<svg xmlns="http://www.w3.org/2000/svg" width="1100" height="420" viewBox="0 0 1100 420">
<rect width="1100" height="420" fill="white"/>
<text x="86" y="26" font-size="22" font-weight="700" font-family="Helvetica, Arial, sans-serif">tb_session_03_turn_001_reuse  phase=reuse  turn=1  prompt=24832  peak_tx=15.47 GiB/s  peak_rx=28.30 GiB/s</text>
<text x="86" y="46" font-size="13" fill="#444" font-family="Helvetica, Arial, sans-serif">response_window=10.325s, response_tx=10.791 GiB, response_rx=4.749 GiB, metrics_tx=10.792 GiB, metrics_rx=4.750 GiB</text>
<line x1="86" y1="366.0" x2="1076" y2="366.0" stroke="#ececec" stroke-width="1"/>
<text x="76" y="370.0" text-anchor="end" font-size="12" fill="#444" font-family="Helvetica, Arial, sans-serif">0.0</text>
<line x1="86" y1="305.2" x2="1076" y2="305.2" stroke="#ececec" stroke-width="1"/>
<text x="76" y="309.2" text-anchor="end" font-size="12" fill="#444" font-family="Helvetica, Arial, sans-serif">6.2</text>
<line x1="86" y1="244.4" x2="1076" y2="244.4" stroke="#ececec" stroke-width="1"/>
<text x="76" y="248.4" text-anchor="end" font-size="12" fill="#444" font-family="Helvetica, Arial, sans-serif">12.4</text>
<line x1="86" y1="183.6" x2="1076" y2="183.6" stroke="#ececec" stroke-width="1"/>
<text x="76" y="187.6" text-anchor="end" font-size="12" fill="#444" font-family="Helvetica, Arial, sans-serif">18.7</text>
<line x1="86" y1="122.8" x2="1076" y2="122.8" stroke="#ececec" stroke-width="1"/>
<text x="76" y="126.8" text-anchor="end" font-size="12" fill="#444" font-family="Helvetica, Arial, sans-serif">24.9</text>
<line x1="86" y1="62.0" x2="1076" y2="62.0" stroke="#ececec" stroke-width="1"/>
<text x="76" y="66.0" text-anchor="end" font-size="12" fill="#444" font-family="Helvetica, Arial, sans-serif">31.1</text>
<line x1="86" y1="366.0" x2="1076" y2="366.0" stroke="#222" stroke-width="1.4"/>
<line x1="86" y1="62.0" x2="86" y2="366.0" stroke="#222" stroke-width="1.4"/>
<rect x="97.9" y="62.0" width="973.4" height="304.0" fill="#F58518" opacity="0.08"/>
<path d="M 86.0 366.0 L 90.0 366.0 L 93.9 366.0 L 97.9 366.0 L 101.8 366.0 L 105.9 366.0 L 109.9 366.0 L 113.8 366.0 L 117.8 366.0 L 121.7 366.0 L 125.7 366.0 L 129.7 366.0 L 133.7 334.8 L 137.9 333.7 L 143.0 337.5 L 147.1 365.9 L 151.3 366.0 L 155.3 366.0 L 159.3 365.9 L 163.4 365.9 L 167.5 366.0 L 171.4 337.8 L 175.5 366.0 L 179.8 366.0 L 183.8 366.0 L 187.7 366.0 L 191.8 366.0 L 195.7 366.0 L 200.5 366.0 L 204.4 366.0 L 208.5 366.0 L 212.5 366.0 L 216.5 215.1 L 220.5 366.0 L 224.5 366.0 L 228.5 366.0 L 232.5 366.0 L 236.8 366.0 L 240.8 282.9 L 244.8 366.0 L 248.8 366.0 L 252.8 366.0 L 256.8 365.9 L 260.8 365.9 L 265.0 215.1 L 269.1 366.0 L 273.0 366.0 L 277.1 366.0 L 281.1 366.0 L 285.1 366.0 L 289.1 365.9 L 293.6 366.0 L 297.7 366.0 L 301.6 366.0 L 305.7 366.0 L 309.6 366.0 L 313.6 366.0 L 317.6 334.5 L 321.8 366.0 L 325.7 366.0 L 329.8 366.0 L 333.8 366.0 L 337.7 366.0 L 341.8 366.0 L 345.7 366.0 L 350.0 366.0 L 353.9 366.0 L 357.9 365.9 L 361.9 365.9 L 365.9 366.0 L 369.9 366.0 L 373.9 366.0 L 378.2 218.1 L 382.1 366.0 L 386.1 366.0 L 390.1 366.0 L 394.1 366.0 L 398.2 366.0 L 402.1 366.0 L 406.4 366.0 L 410.4 215.1 L 414.4 366.0 L 418.4 366.0 L 422.4 366.0 L 426.4 366.0 L 430.4 366.0 L 434.7 366.0 L 438.7 366.0 L 442.7 366.0 L 446.7 366.0 L 450.7 366.0 L 454.7 328.2 L 458.7 365.9 L 463.1 366.0 L 467.1 366.0 L 471.1 366.0 L 475.1 363.2 L 479.0 366.0 L 483.1 366.0 L 487.1 366.0 L 491.3 366.0 L 495.3 366.0 L 499.3 254.9 L 503.4 366.0 L 507.3 366.0 L 511.4 366.0 L 515.3 366.0 L 519.7 366.0 L 523.7 348.5 L 527.7 366.0 L 531.6 366.0 L 535.7 366.0 L 539.7 366.0 L 543.6 366.0 L 548.0 342.6 L 551.9 365.9 L 556.0 365.9 L 559.9 365.9 L 563.9 366.0 L 567.9 366.0 L 571.9 214.9 L 579.6 366.0 L 583.6 366.0 L 587.7 366.0 L 591.7 366.0 L 595.8 366.0 L 599.7 215.1 L 603.7 366.0 L 607.7 366.0 L 611.7 366.0 L 615.8 366.0 L 619.8 366.0 L 623.8 366.0 L 627.8 215.1 L 631.8 366.0 L 635.8 366.0 L 639.8 366.0 L 643.8 366.0 L 647.8 366.0 L 651.8 365.9 L 655.9 349.6 L 659.9 366.0 L 663.8 366.0 L 667.9 366.0 L 671.8 366.0 L 675.9 366.0 L 680.0 366.0 L 684.0 366.0 L 688.1 215.1 L 692.1 366.0 L 696.1 366.0 L 700.1 366.0 L 704.1 366.0 L 708.4 366.0 L 712.5 366.0 L 716.5 366.0 L 720.5 215.1 L 724.5 357.4 L 733.2 366.0 L 737.2 366.0 L 741.2 366.0 L 745.2 366.0 L 749.1 365.9 L 753.3 303.9 L 757.4 365.9 L 761.4 366.0 L 765.5 366.0 L 769.4 366.0 L 773.4 335.6 L 777.4 366.0 L 781.5 366.0 L 785.5 366.0 L 789.6 366.0 L 793.5 219.6 L 797.5 366.0 L 801.6 366.0 L 805.5 366.0 L 809.6 366.0 L 813.6 366.0 L 817.6 366.0 L 821.8 366.0 L 825.8 366.0 L 829.8 366.0 L 833.8 366.0 L 837.8 282.8 L 841.9 366.0 L 846.0 366.0 L 849.9 365.9 L 853.9 365.9 L 857.9 366.0 L 861.9 339.1 L 866.0 366.0 L 869.9 366.0 L 873.9 365.9 L 878.5 366.0 L 882.4 366.0 L 886.5 366.0 L 890.5 364.0 L 894.4 366.0 L 898.6 366.0 L 902.6 366.0 L 906.6 366.0 L 910.5 366.0 L 914.6 343.5 L 918.6 366.0 L 922.6 366.0 L 926.6 366.0 L 930.5 366.0 L 934.9 366.0 L 938.8 366.0 L 942.8 361.3 L 946.8 365.9 L 950.8 365.8 L 954.9 365.9 L 958.9 366.0 L 963.1 366.0 L 967.0 366.0 L 971.1 366.0 L 975.0 275.1 L 979.1 366.0 L 983.0 366.0 L 987.0 366.0 L 991.2 366.0 L 995.3 366.0 L 999.3 366.0 L 1003.2 366.0 L 1007.3 366.0 L 1011.2 366.0 L 1015.3 366.0 L 1019.4 366.0 L 1023.5 366.0 L 1027.4 366.0 L 1031.4 366.0 L 1035.5 366.0 L 1039.4 331.7 L 1043.5 366.0 L 1047.8 366.0 L 1051.9 365.9 L 1055.8 365.9 L 1059.9 365.9 L 1063.8 365.9 L 1067.9 365.9 L 1071.9 366.0 L 1076.0 366.0" fill="none" stroke="#4C78A8" stroke-width="2.8" stroke-linejoin="round" stroke-linecap="round"/>
<path d="M 86.0 366.0 L 90.0 366.0 L 93.9 366.0 L 97.9 366.0 L 101.8 366.0 L 105.9 366.0 L 109.9 366.0 L 113.8 366.0 L 117.8 366.0 L 121.7 366.0 L 125.7 366.0 L 129.7 171.8 L 133.7 92.5 L 137.9 89.6 L 143.0 365.8 L 147.1 365.8 L 151.3 127.6 L 155.3 365.9 L 159.3 365.9 L 163.4 365.9 L 167.5 365.9 L 171.4 365.9 L 175.5 365.9 L 179.8 365.9 L 183.8 365.9 L 187.7 365.9 L 191.8 365.9 L 195.7 365.9 L 200.5 365.9 L 204.4 365.9 L 208.5 365.9 L 212.5 365.9 L 216.5 365.9 L 220.5 365.9 L 224.5 365.9 L 228.5 365.9 L 232.5 365.9 L 236.8 365.9 L 240.8 365.9 L 244.8 365.9 L 248.8 365.9 L 252.8 365.9 L 256.8 365.9 L 260.8 365.9 L 265.0 365.9 L 269.1 365.9 L 273.0 365.9 L 277.1 365.9 L 281.1 365.9 L 285.1 365.9 L 289.1 365.9 L 293.6 365.9 L 297.7 365.9 L 301.6 365.9 L 305.7 365.9 L 309.6 365.9 L 313.6 365.9 L 317.6 365.9 L 321.8 365.9 L 325.7 365.9 L 329.8 365.9 L 333.8 365.9 L 337.7 365.9 L 341.8 365.9 L 345.7 365.9 L 350.0 365.9 L 353.9 365.9 L 357.9 365.8 L 361.9 365.9 L 365.9 365.9 L 369.9 365.9 L 373.9 365.9 L 378.2 365.9 L 382.1 365.9 L 386.1 365.9 L 390.1 365.9 L 394.1 365.9 L 398.2 365.9 L 402.1 365.9 L 406.4 365.9 L 410.4 365.9 L 414.4 365.9 L 418.4 365.9 L 422.4 365.9 L 426.4 365.9 L 430.4 365.9 L 434.7 365.8 L 438.7 365.9 L 442.7 365.9 L 446.7 365.9 L 450.7 365.9 L 454.7 365.9 L 458.7 365.9 L 463.1 365.9 L 467.1 365.9 L 471.1 365.9 L 475.1 365.9 L 479.0 365.9 L 483.1 365.9 L 487.1 365.9 L 491.3 365.9 L 495.3 365.9 L 499.3 365.9 L 503.4 365.9 L 507.3 365.9 L 511.4 365.9 L 515.3 365.9 L 519.7 365.9 L 523.7 365.9 L 527.7 365.9 L 531.6 365.9 L 535.7 365.9 L 539.7 365.9 L 543.6 365.9 L 548.0 365.9 L 551.9 365.9 L 556.0 365.9 L 559.9 365.9 L 563.9 365.9 L 567.9 365.9 L 571.9 365.9 L 579.6 365.9 L 583.6 365.9 L 587.7 365.9 L 591.7 365.9 L 595.8 365.9 L 599.7 365.9 L 603.7 365.9 L 607.7 365.9 L 611.7 365.9 L 615.8 365.9 L 619.8 365.9 L 623.8 365.9 L 627.8 365.9 L 631.8 365.9 L 635.8 365.9 L 639.8 365.9 L 643.8 365.9 L 647.8 365.9 L 651.8 365.9 L 655.9 365.9 L 659.9 365.9 L 663.8 365.9 L 667.9 365.9 L 671.8 365.9 L 675.9 365.9 L 680.0 365.9 L 684.0 365.9 L 688.1 365.9 L 692.1 365.9 L 696.1 365.9 L 700.1 365.9 L 704.1 365.9 L 708.4 365.9 L 712.5 365.9 L 716.5 365.9 L 720.5 366.0 L 724.5 365.9 L 733.2 365.9 L 737.2 365.9 L 741.2 365.9 L 745.2 365.9 L 749.1 365.8 L 753.3 365.9 L 757.4 365.9 L 761.4 365.9 L 765.5 365.9 L 769.4 365.9 L 773.4 365.9 L 777.4 365.9 L 781.5 365.9 L 785.5 365.9 L 789.6 365.9 L 793.5 365.9 L 797.5 365.9 L 801.6 365.9 L 805.5 365.9 L 809.6 365.9 L 813.6 365.9 L 817.6 365.9 L 821.8 365.9 L 825.8 365.9 L 829.8 365.9 L 833.8 365.9 L 837.8 365.9 L 841.9 365.9 L 846.0 365.9 L 849.9 365.9 L 853.9 365.9 L 857.9 365.9 L 861.9 365.9 L 866.0 365.9 L 869.9 365.9 L 873.9 365.9 L 878.5 365.9 L 882.4 365.9 L 886.5 365.9 L 890.5 365.9 L 894.4 365.9 L 898.6 365.9 L 902.6 365.9 L 906.6 365.9 L 910.5 365.9 L 914.6 365.9 L 918.6 365.9 L 922.6 365.9 L 926.6 365.9 L 930.5 365.9 L 934.9 365.9 L 938.8 365.9 L 942.8 365.9 L 946.8 365.9 L 950.8 365.9 L 954.9 365.9 L 958.9 365.9 L 963.1 365.9 L 967.0 365.9 L 971.1 365.9 L 975.0 365.9 L 979.1 365.9 L 983.0 365.9 L 987.0 365.9 L 991.2 365.9 L 995.3 365.9 L 999.3 365.9 L 1003.2 365.9 L 1007.3 365.9 L 1011.2 365.9 L 1015.3 365.9 L 1019.4 365.9 L 1023.5 365.9 L 1027.4 365.9 L 1031.4 365.9 L 1035.5 365.9 L 1039.4 365.9 L 1043.5 365.8 L 1047.8 365.5 L 1051.9 365.7 L 1055.8 365.7 L 1059.9 365.7 L 1063.8 365.7 L 1067.9 365.9 L 1071.9 366.0 L 1076.0 366.0" fill="none" stroke="#F58518" stroke-width="2.8" stroke-linejoin="round" stroke-linecap="round"/>
<line x1="97.9" y1="62.0" x2="97.9" y2="366.0" stroke="#666" stroke-dasharray="4 4" stroke-width="1.2"/>
<text x="97.9" y="402.0" text-anchor="middle" font-size="12" fill="#444" font-family="Helvetica, Arial, sans-serif">submit</text>
<line x1="1071.3" y1="62.0" x2="1071.3" y2="366.0" stroke="#888" stroke-dasharray="4 4" stroke-width="1.2"/>
<text x="1071.3" y="402.0" text-anchor="middle" font-size="12" fill="#444" font-family="Helvetica, Arial, sans-serif">finish</text>
<line x1="86.0" y1="62.0" x2="86.0" y2="366.0" stroke="#f5f5f5" stroke-width="1"/>
<text x="86.0" y="418.0" text-anchor="middle" font-size="11" fill="#444" font-family="Helvetica, Arial, sans-serif">-0.13</text>
<line x1="209.7" y1="62.0" x2="209.7" y2="366.0" stroke="#f5f5f5" stroke-width="1"/>
<text x="209.7" y="418.0" text-anchor="middle" font-size="11" fill="#444" font-family="Helvetica, Arial, sans-serif">1.19</text>
<line x1="333.5" y1="62.0" x2="333.5" y2="366.0" stroke="#f5f5f5" stroke-width="1"/>
<text x="333.5" y="418.0" text-anchor="middle" font-size="11" fill="#444" font-family="Helvetica, Arial, sans-serif">2.50</text>
<line x1="457.2" y1="62.0" x2="457.2" y2="366.0" stroke="#f5f5f5" stroke-width="1"/>
<text x="457.2" y="418.0" text-anchor="middle" font-size="11" fill="#444" font-family="Helvetica, Arial, sans-serif">3.81</text>
<line x1="581.0" y1="62.0" x2="581.0" y2="366.0" stroke="#f5f5f5" stroke-width="1"/>
<text x="581.0" y="418.0" text-anchor="middle" font-size="11" fill="#444" font-family="Helvetica, Arial, sans-serif">5.12</text>
<line x1="704.8" y1="62.0" x2="704.8" y2="366.0" stroke="#f5f5f5" stroke-width="1"/>
<text x="704.8" y="418.0" text-anchor="middle" font-size="11" fill="#444" font-family="Helvetica, Arial, sans-serif">6.44</text>
<line x1="828.5" y1="62.0" x2="828.5" y2="366.0" stroke="#f5f5f5" stroke-width="1"/>
<text x="828.5" y="418.0" text-anchor="middle" font-size="11" fill="#444" font-family="Helvetica, Arial, sans-serif">7.75</text>
<line x1="952.2" y1="62.0" x2="952.2" y2="366.0" stroke="#f5f5f5" stroke-width="1"/>
<text x="952.2" y="418.0" text-anchor="middle" font-size="11" fill="#444" font-family="Helvetica, Arial, sans-serif">9.06</text>
<line x1="1076.0" y1="62.0" x2="1076.0" y2="366.0" stroke="#f5f5f5" stroke-width="1"/>
<text x="1076.0" y="418.0" text-anchor="middle" font-size="11" fill="#444" font-family="Helvetica, Arial, sans-serif">10.38</text>
<text x="581.0" y="386.0" text-anchor="middle" font-size="15" fill="#222" font-family="Helvetica, Arial, sans-serif">time since request submit (s)</text>
</svg>