<svg xmlns="http://www.w3.org/2000/svg" width="1100" height="420" viewBox="0 0 1100 420">
<rect width="1100" height="420" fill="white"/>
<text x="86" y="26" font-size="22" font-weight="700" font-family="Helvetica, Arial, sans-serif">tb_session_01_turn_001_reuse  phase=reuse  turn=1  prompt=24832  peak_tx=15.47 GiB/s  peak_rx=28.30 GiB/s</text>
<text x="86" y="46" font-size="13" fill="#444" font-family="Helvetica, Arial, sans-serif">response_window=7.884s, response_tx=9.996 GiB, response_rx=4.724 GiB, metrics_tx=10.792 GiB, metrics_rx=4.750 GiB</text>
<line x1="86" y1="366.0" x2="1076" y2="366.0" stroke="#ececec" stroke-width="1"/>
<text x="76" y="370.0" text-anchor="end" font-size="12" fill="#444" font-family="Helvetica, Arial, sans-serif">0.0</text>
<line x1="86" y1="305.2" x2="1076" y2="305.2" stroke="#ececec" stroke-width="1"/>
<text x="76" y="309.2" text-anchor="end" font-size="12" fill="#444" font-family="Helvetica, Arial, sans-serif">6.2</text>
<line x1="86" y1="244.4" x2="1076" y2="244.4" stroke="#ececec" stroke-width="1"/>
<text x="76" y="248.4" text-anchor="end" font-size="12" fill="#444" font-family="Helvetica, Arial, sans-serif">12.4</text>
<line x1="86" y1="183.6" x2="1076" y2="183.6" stroke="#ececec" stroke-width="1"/>
<text x="76" y="187.6" text-anchor="end" font-size="12" fill="#444" font-family="Helvetica, Arial, sans-serif">18.7</text>
<line x1="86" y1="122.8" x2="1076" y2="122.8" stroke="#ececec" stroke-width="1"/>
<text x="76" y="126.8" text-anchor="end" font-size="12" fill="#444" font-family="Helvetica, Arial, sans-serif">24.9</text>
<line x1="86" y1="62.0" x2="1076" y2="62.0" stroke="#ececec" stroke-width="1"/>
<text x="76" y="66.0" text-anchor="end" font-size="12" fill="#444" font-family="Helvetica, Arial, sans-serif">31.1</text>
<line x1="86" y1="366.0" x2="1076" y2="366.0" stroke="#222" stroke-width="1.4"/>
<line x1="86" y1="62.0" x2="86" y2="366.0" stroke="#222" stroke-width="1.4"/>
<rect x="101.1" y="62.0" width="973.5" height="304.0" fill="#F58518" opacity="0.08"/>
<path d="M 86.0 366.0 L 91.2 366.0 L 96.4 366.0 L 101.6 366.0 L 106.7 366.0 L 112.1 366.0 L 117.2 366.0 L 122.4 366.0 L 127.6 366.0 L 132.8 366.0 L 138.0 366.0 L 143.3 366.0 L 148.5 334.8 L 154.0 333.7 L 160.7 337.5 L 166.0 365.9 L 171.6 366.0 L 176.8 366.0 L 182.1 365.9 L 187.4 365.9 L 192.7 366.0 L 197.9 337.8 L 203.2 366.0 L 208.9 366.0 L 214.0 366.0 L 219.2 366.0 L 224.5 366.0 L 229.7 366.0 L 235.9 366.0 L 241.1 366.0 L 246.4 366.0 L 251.7 366.0 L 256.9 215.1 L 262.2 366.0 L 267.4 366.0 L 272.7 366.0 L 277.9 366.0 L 283.6 366.0 L 288.7 282.9 L 293.9 366.0 L 299.2 366.0 L 304.4 366.0 L 309.7 365.9 L 314.9 365.9 L 320.5 215.1 L 325.8 366.0 L 331.0 366.0 L 336.3 366.0 L 341.5 366.0 L 346.8 366.0 L 352.0 365.9 L 357.9 366.0 L 363.2 366.0 L 368.4 366.0 L 373.7 366.0 L 378.9 366.0 L 384.1 366.0 L 389.4 334.5 L 394.8 366.0 L 400.0 366.0 L 405.3 366.0 L 410.5 366.0 L 415.7 366.0 L 421.0 366.0 L 426.2 366.0 L 431.7 366.0 L 436.9 366.0 L 442.1 365.9 L 447.4 365.9 L 452.6 366.0 L 457.8 366.0 L 463.1 366.0 L 468.6 218.1 L 473.8 366.0 L 479.0 366.0 L 484.3 366.0 L 489.5 366.0 L 494.8 366.0 L 500.0 366.0 L 505.7 366.0 L 510.9 215.1 L 516.1 366.0 L 521.4 366.0 L 526.5 366.0 L 531.9 366.0 L 537.0 366.0 L 542.7 366.0 L 547.9 366.0 L 553.2 366.0 L 558.4 366.0 L 563.6 366.0 L 568.9 328.2 L 574.1 365.9 L 579.9 366.0 L 585.1 366.0 L 590.4 366.0 L 595.6 363.2 L 600.8 366.0 L 606.1 366.0 L 611.3 366.0 L 616.8 366.0 L 622.1 366.0 L 627.3 254.9 L 632.6 366.0 L 637.8 366.0 L 643.1 366.0 L 648.3 366.0 L 654.0 366.0 L 659.3 348.5 L 664.5 366.0 L 669.7 366.0 L 675.0 366.0 L 680.1 366.0 L 685.3 366.0 L 691.0 342.6 L 696.2 365.9 L 701.5 365.9 L 706.7 365.9 L 711.9 366.0 L 717.2 366.0 L 722.4 214.9 L 732.5 366.0 L 737.7 366.0 L 743.1 366.0 L 748.3 366.0 L 753.6 366.0 L 758.8 215.1 L 764.0 366.0 L 769.3 366.0 L 774.5 366.0 L 779.9 366.0 L 785.1 366.0 L 790.3 366.0 L 795.6 215.1 L 800.8 366.0 L 806.1 366.0 L 811.3 366.0 L 816.6 366.0 L 821.8 366.0 L 827.1 365.9 L 832.4 349.6 L 837.6 366.0 L 842.8 366.0 L 848.1 366.0 L 853.3 366.0 L 858.6 366.0 L 864.0 366.0 L 869.2 366.0 L 874.6 215.1 L 879.8 366.0 L 885.0 366.0 L 890.3 366.0 L 895.5 366.0 L 901.2 366.0 L 906.5 366.0 L 911.8 366.0 L 917.0 215.1 L 922.3 357.4 L 933.6 366.0 L 938.8 366.0 L 944.1 366.0 L 949.3 366.0 L 954.5 365.9 L 959.9 303.9 L 965.4 365.9 L 970.6 366.0 L 975.9 366.0 L 981.0 366.0 L 986.2 335.6 L 991.5 366.0 L 996.9 366.0 L 1002.2 366.0 L 1007.5 366.0 L 1012.7 219.6 L 1017.8 366.0 L 1023.2 366.0 L 1028.3 366.0 L 1033.6 366.0 L 1039.0 366.0 L 1044.1 366.0 L 1049.7 366.0 L 1054.9 366.0 L 1060.2 366.0 L 1065.4 366.0 L 1070.6 282.8 L 1076.0 366.0" fill="none" stroke="#4C78A8" stroke-width="2.8" stroke-linejoin="round" stroke-linecap="round"/>
<path d="M 86.0 366.0 L 91.2 366.0 L 96.4 366.0 L 101.6 366.0 L 106.7 366.0 L 112.1 366.0 L 117.2 366.0 L 122.4 366.0 L 127.6 366.0 L 132.8 366.0 L 138.0 366.0 L 143.3 171.8 L 148.5 92.5 L 154.0 89.6 L 160.7 365.8 L 166.0 365.8 L 171.6 127.6 L 176.8 365.9 L 182.1 365.9 L 187.4 365.9 L 192.7 365.9 L 197.9 365.9 L 203.2 365.9 L 208.9 365.9 L 214.0 365.9 L 219.2 365.9 L 224.5 365.9 L 229.7 365.9 L 235.9 365.9 L 241.1 365.9 L 246.4 365.9 L 251.7 365.9 L 256.9 365.9 L 262.2 365.9 L 267.4 365.9 L 272.7 365.9 L 277.9 365.9 L 283.6 365.9 L 288.7 365.9 L 293.9 365.9 L 299.2 365.9 L 304.4 365.9 L 309.7 365.9 L 314.9 365.9 L 320.5 365.9 L 325.8 365.9 L 331.0 365.9 L 336.3 365.9 L 341.5 365.9 L 346.8 365.9 L 352.0 365.9 L 357.9 365.9 L 363.2 365.9 L 368.4 365.9 L 373.7 365.9 L 378.9 365.9 L 384.1 365.9 L 389.4 365.9 L 394.8 365.9 L 400.0 365.9 L 405.3 365.9 L 410.5 365.9 L 415.7 365.9 L 421.0 365.9 L 426.2 365.9 L 431.7 365.9 L 436.9 365.9 L 442.1 365.8 L 447.4 365.9 L 452.6 365.9 L 457.8 365.9 L 463.1 365.9 L 468.6 365.9 L 473.8 365.9 L 479.0 365.9 L 484.3 365.9 L 489.5 365.9 L 494.8 365.9 L 500.0 365.9 L 505.7 365.9 L 510.9 365.9 L 516.1 365.9 L 521.4 365.9 L 526.5 365.9 L 531.9 365.9 L 537.0 365.9 L 542.7 365.8 L 547.9 365.9 L 553.2 365.9 L 558.4 365.9 L 563.6 365.9 L 568.9 365.9 L 574.1 365.9 L 579.9 365.9 L 585.1 365.9 L 590.4 365.9 L 595.6 365.9 L 600.8 365.9 L 606.1 365.9 L 611.3 365.9 L 616.8 365.9 L 622.1 365.9 L 627.3 365.9 L 632.6 365.9 L 637.8 365.9 L 643.1 365.9 L 648.3 365.9 L 654.0 365.9 L 659.3 365.9 L 664.5 365.9 L 669.7 365.9 L 675.0 365.9 L 680.1 365.9 L 685.3 365.9 L 691.0 365.9 L 696.2 365.9 L 701.5 365.9 L 706.7 365.9 L 711.9 365.9 L 717.2 365.9 L 722.4 365.9 L 732.5 365.9 L 737.7 365.9 L 743.1 365.9 L 748.3 365.9 L 753.6 365.9 L 758.8 365.9 L 764.0 365.9 L 769.3 365.9 L 774.5 365.9 L 779.9 365.9 L 785.1 365.9 L 790.3 365.9 L 795.6 365.9 L 800.8 365.9 L 806.1 365.9 L 811.3 365.9 L 816.6 365.9 L 821.8 365.9 L 827.1 365.9 L 832.4 365.9 L 837.6 365.9 L 842.8 365.9 L 848.1 365.9 L 853.3 365.9 L 858.6 365.9 L 864.0 365.9 L 869.2 365.9 L 874.6 365.9 L 879.8 365.9 L 885.0 365.9 L 890.3 365.9 L 895.5 365.9 L 901.2 365.9 L 906.5 365.9 L 911.8 365.9 L 917.0 366.0 L 922.3 365.9 L 933.6 365.9 L 938.8 365.9 L 944.1 365.9 L 949.3 365.9 L 954.5 365.8 L 959.9 365.9 L 965.4 365.9 L 970.6 365.9 L 975.9 365.9 L 981.0 365.9 L 986.2 365.9 L 991.5 365.9 L 996.9 365.9 L 1002.2 365.9 L 1007.5 365.9 L 1012.7 365.9 L 1017.8 365.9 L 1023.2 365.9 L 1028.3 365.9 L 1033.6 365.9 L 1039.0 365.9 L 1044.1 365.9 L 1049.7 365.9 L 1054.9 365.9 L 1060.2 365.9 L 1065.4 365.9 L 1070.6 365.9 L 1076.0 365.9" fill="none" stroke="#F58518" stroke-width="2.8" stroke-linejoin="round" stroke-linecap="round"/>
<line x1="101.1" y1="62.0" x2="101.1" y2="366.0" stroke="#666" stroke-dasharray="4 4" stroke-width="1.2"/>
<text x="101.1" y="402.0" text-anchor="middle" font-size="12" fill="#444" font-family="Helvetica, Arial, sans-serif">submit</text>
<line x1="1074.5" y1="62.0" x2="1074.5" y2="366.0" stroke="#888" stroke-dasharray="4 4" stroke-width="1.2"/>
<text x="1074.5" y="402.0" text-anchor="middle" font-size="12" fill="#444" font-family="Helvetica, Arial, sans-serif">finish</text>
<line x1="86.0" y1="62.0" x2="86.0" y2="366.0" stroke="#f5f5f5" stroke-width="1"/>
<text x="86.0" y="418.0" text-anchor="middle" font-size="11" fill="#444" font-family="Helvetica, Arial, sans-serif">-0.12</text>
<line x1="209.8" y1="62.0" x2="209.8" y2="366.0" stroke="#f5f5f5" stroke-width="1"/>
<text x="209.8" y="418.0" text-anchor="middle" font-size="11" fill="#444" font-family="Helvetica, Arial, sans-serif">0.88</text>
<line x1="333.5" y1="62.0" x2="333.5" y2="366.0" stroke="#f5f5f5" stroke-width="1"/>
<text x="333.5" y="418.0" text-anchor="middle" font-size="11" fill="#444" font-family="Helvetica, Arial, sans-serif">1.88</text>
<line x1="457.2" y1="62.0" x2="457.2" y2="366.0" stroke="#f5f5f5" stroke-width="1"/>
<text x="457.2" y="418.0" text-anchor="middle" font-size="11" fill="#444" font-family="Helvetica, Arial, sans-serif">2.88</text>
<line x1="581.0" y1="62.0" x2="581.0" y2="366.0" stroke="#f5f5f5" stroke-width="1"/>
<text x="581.0" y="418.0" text-anchor="middle" font-size="11" fill="#444" font-family="Helvetica, Arial, sans-serif">3.89</text>
<line x1="704.8" y1="62.0" x2="704.8" y2="366.0" stroke="#f5f5f5" stroke-width="1"/>
<text x="704.8" y="418.0" text-anchor="middle" font-size="11" fill="#444" font-family="Helvetica, Arial, sans-serif">4.89</text>
<line x1="828.5" y1="62.0" x2="828.5" y2="366.0" stroke="#f5f5f5" stroke-width="1"/>
<text x="828.5" y="418.0" text-anchor="middle" font-size="11" fill="#444" font-family="Helvetica, Arial, sans-serif">5.89</text>
<line x1="952.2" y1="62.0" x2="952.2" y2="366.0" stroke="#f5f5f5" stroke-width="1"/>
<text x="952.2" y="418.0" text-anchor="middle" font-size="11" fill="#444" font-family="Helvetica, Arial, sans-serif">6.89</text>
<line x1="1076.0" y1="62.0" x2="1076.0" y2="366.0" stroke="#f5f5f5" stroke-width="1"/>
<text x="1076.0" y="418.0" text-anchor="middle" font-size="11" fill="#444" font-family="Helvetica, Arial, sans-serif">7.90</text>
<text x="581.0" y="386.0" text-anchor="middle" font-size="15" fill="#222" font-family="Helvetica, Arial, sans-serif">time since request submit (s)</text>
</svg>