<svg xmlns="http://www.w3.org/2000/svg" width="1100" height="420" viewBox="0 0 1100 420">
<rect width="1100" height="420" fill="white"/>
<text x="86" y="26" font-size="22" font-weight="700" font-family="Helvetica, Arial, sans-serif">tb_session_00_turn_000_seed  phase=seed  turn=0  prompt=24576  peak_tx=15.46 GiB/s  peak_rx=0.03 GiB/s</text>
<text x="86" y="46" font-size="13" fill="#444" font-family="Helvetica, Arial, sans-serif">response_window=3.362s, response_tx=3.616 GiB, response_rx=0.029 GiB, metrics_tx=3.617 GiB, metrics_rx=0.030 GiB</text>
<line x1="86" y1="366.0" x2="1076" y2="366.0" stroke="#ececec" stroke-width="1"/>
<text x="76" y="370.0" text-anchor="end" font-size="12" fill="#444" font-family="Helvetica, Arial, sans-serif">0.0</text>
<line x1="86" y1="305.2" x2="1076" y2="305.2" stroke="#ececec" stroke-width="1"/>
<text x="76" y="309.2" text-anchor="end" font-size="12" fill="#444" font-family="Helvetica, Arial, sans-serif">3.4</text>
<line x1="86" y1="244.4" x2="1076" y2="244.4" stroke="#ececec" stroke-width="1"/>
<text x="76" y="248.4" text-anchor="end" font-size="12" fill="#444" font-family="Helvetica, Arial, sans-serif">6.8</text>
<line x1="86" y1="183.6" x2="1076" y2="183.6" stroke="#ececec" stroke-width="1"/>
<text x="76" y="187.6" text-anchor="end" font-size="12" fill="#444" font-family="Helvetica, Arial, sans-serif">10.2</text>
<line x1="86" y1="122.8" x2="1076" y2="122.8" stroke="#ececec" stroke-width="1"/>
<text x="76" y="126.8" text-anchor="end" font-size="12" fill="#444" font-family="Helvetica, Arial, sans-serif">13.6</text>
<line x1="86" y1="62.0" x2="1076" y2="62.0" stroke="#ececec" stroke-width="1"/>
<text x="76" y="66.0" text-anchor="end" font-size="12" fill="#444" font-family="Helvetica, Arial, sans-serif">17.0</text>
<line x1="86" y1="366.0" x2="1076" y2="366.0" stroke="#222" stroke-width="1.4"/>
<line x1="86" y1="62.0" x2="86" y2="366.0" stroke="#222" stroke-width="1.4"/>
<rect x="122.1" y="62.0" width="941.0" height="304.0" fill="#4C78A8" opacity="0.08"/>
<path d="M 86.0 366.0 L 97.8 366.0 L 110.1 366.0 L 121.8 365.9 L 133.6 365.8 L 145.3 365.9 L 157.4 365.9 L 169.4 365.9 L 181.4 365.9 L 194.6 340.4 L 206.6 365.9 L 218.7 366.0 L 230.7 366.0 L 242.7 89.7 L 255.1 365.9 L 266.8 365.5 L 294.2 365.9 L 306.8 366.0 L 318.9 366.0 L 330.9 366.0 L 342.9 366.0 L 355.3 360.2 L 367.6 366.0 L 379.6 365.9 L 391.4 365.9 L 403.1 365.9 L 415.2 365.8 L 426.9 173.5 L 439.0 365.9 L 451.3 366.0 L 463.0 365.9 L 475.1 366.0 L 486.8 366.0 L 498.8 366.0 L 510.6 366.0 L 522.4 365.9 L 534.4 366.0 L 546.2 365.9 L 558.2 366.0 L 570.2 240.2 L 582.0 366.0 L 594.0 366.0 L 605.8 365.9 L 617.5 366.0 L 629.6 365.9 L 642.7 164.0 L 654.5 366.0 L 666.5 366.0 L 678.3 366.0 L 690.3 365.9 L 702.1 366.0 L 713.8 365.9 L 727.5 89.6 L 739.6 366.0 L 751.3 366.0 L 763.4 366.0 L 775.4 366.0 L 787.7 366.0 L 799.5 365.9 L 811.5 193.3 L 823.3 366.0 L 835.0 366.0 L 847.0 366.0 L 858.8 366.0 L 871.4 366.0 L 883.2 366.0 L 894.9 366.0 L 906.9 253.9 L 919.8 366.0 L 931.6 366.0 L 943.9 366.0 L 955.9 366.0 L 967.7 366.0 L 979.7 366.0 L 991.5 366.0 L 1003.2 260.8 L 1015.5 365.7 L 1027.9 365.8 L 1040.2 365.8 L 1052.2 365.8 L 1064.0 366.0 L 1076.0 366.0" fill="none" stroke="#4C78A8" stroke-width="2.8" stroke-linejoin="round" stroke-linecap="round"/>
<path d="M 86.0 366.0 L 97.8 366.0 L 110.1 366.0 L 121.8 365.9 L 133.6 365.9 L 145.3 365.8 L 157.4 365.8 L 169.4 365.8 L 181.4 365.9 L 194.6 365.8 L 206.6 365.9 L 218.7 365.9 L 230.7 365.8 L 242.7 365.8 L 255.1 365.9 L 266.8 365.9 L 294.2 365.9 L 306.8 365.9 L 318.9 365.9 L 330.9 365.9 L 342.9 365.9 L 355.3 365.9 L 367.6 365.8 L 379.6 365.9 L 391.4 365.9 L 403.1 365.9 L 415.2 365.7 L 426.9 365.8 L 439.0 365.9 L 451.3 365.9 L 463.0 365.9 L 475.1 365.9 L 486.8 365.9 L 498.8 365.9 L 510.6 365.9 L 522.4 365.9 L 534.4 365.9 L 546.2 365.9 L 558.2 365.8 L 570.2 365.9 L 582.0 365.9 L 594.0 365.9 L 605.8 365.9 L 617.5 365.9 L 629.6 365.9 L 642.7 365.8 L 654.5 365.9 L 666.5 365.9 L 678.3 365.9 L 690.3 365.9 L 702.1 365.8 L 713.8 365.7 L 727.5 365.9 L 739.6 365.9 L 751.3 365.9 L 763.4 365.9 L 775.4 365.9 L 787.7 365.9 L 799.5 365.9 L 811.5 365.8 L 823.3 365.9 L 835.0 365.9 L 847.0 365.9 L 858.8 365.9 L 871.4 365.9 L 883.2 365.9 L 894.9 365.8 L 906.9 365.9 L 919.8 365.9 L 931.6 365.9 L 943.9 365.9 L 955.9 365.9 L 967.7 365.9 L 979.7 365.9 L 991.5 365.8 L 1003.2 365.5 L 1015.5 365.5 L 1027.9 365.5 L 1040.2 365.5 L 1052.2 365.7 L 1064.0 366.0 L 1076.0 366.0" fill="none" stroke="#F58518" stroke-width="2.8" stroke-linejoin="round" stroke-linecap="round"/>
<line x1="122.1" y1="62.0" x2="122.1" y2="366.0" stroke="#666" stroke-dasharray="4 4" stroke-width="1.2"/>
<text x="122.1" y="402.0" text-anchor="middle" font-size="12" fill="#444" font-family="Helvetica, Arial, sans-serif">submit</text>
<line x1="1063.1" y1="62.0" x2="1063.1" y2="366.0" stroke="#888" stroke-dasharray="4 4" stroke-width="1.2"/>
<text x="1063.1" y="402.0" text-anchor="middle" font-size="12" fill="#444" font-family="Helvetica, Arial, sans-serif">finish</text>
<line x1="86.0" y1="62.0" x2="86.0" y2="366.0" stroke="#f5f5f5" stroke-width="1"/>
<text x="86.0" y="418.0" text-anchor="middle" font-size="11" fill="#444" font-family="Helvetica, Arial, sans-serif">-0.13</text>
<line x1="209.8" y1="62.0" x2="209.8" y2="366.0" stroke="#f5f5f5" stroke-width="1"/>
<text x="209.8" y="418.0" text-anchor="middle" font-size="11" fill="#444" font-family="Helvetica, Arial, sans-serif">0.31</text>
<line x1="333.5" y1="62.0" x2="333.5" y2="366.0" stroke="#f5f5f5" stroke-width="1"/>
<text x="333.5" y="418.0" text-anchor="middle" font-size="11" fill="#444" font-family="Helvetica, Arial, sans-serif">0.76</text>
<line x1="457.3" y1="62.0" x2="457.3" y2="366.0" stroke="#f5f5f5" stroke-width="1"/>
<text x="457.3" y="418.0" text-anchor="middle" font-size="11" fill="#444" font-family="Helvetica, Arial, sans-serif">1.20</text>
<line x1="581.0" y1="62.0" x2="581.0" y2="366.0" stroke="#f5f5f5" stroke-width="1"/>
<text x="581.0" y="418.0" text-anchor="middle" font-size="11" fill="#444" font-family="Helvetica, Arial, sans-serif">1.64</text>
<line x1="704.8" y1="62.0" x2="704.8" y2="366.0" stroke="#f5f5f5" stroke-width="1"/>
<text x="704.8" y="418.0" text-anchor="middle" font-size="11" fill="#444" font-family="Helvetica, Arial, sans-serif">2.08</text>
<line x1="828.5" y1="62.0" x2="828.5" y2="366.0" stroke="#f5f5f5" stroke-width="1"/>
<text x="828.5" y="418.0" text-anchor="middle" font-size="11" fill="#444" font-family="Helvetica, Arial, sans-serif">2.52</text>
<line x1="952.2" y1="62.0" x2="952.2" y2="366.0" stroke="#f5f5f5" stroke-width="1"/>
<text x="952.2" y="418.0" text-anchor="middle" font-size="11" fill="#444" font-family="Helvetica, Arial, sans-serif">2.97</text>
<line x1="1076.0" y1="62.0" x2="1076.0" y2="366.0" stroke="#f5f5f5" stroke-width="1"/>
<text x="1076.0" y="418.0" text-anchor="middle" font-size="11" fill="#444" font-family="Helvetica, Arial, sans-serif">3.41</text>
<text x="581.0" y="386.0" text-anchor="middle" font-size="15" fill="#222" font-family="Helvetica, Arial, sans-serif">time since request submit (s)</text>
</svg>