<svg xmlns="http://www.w3.org/2000/svg" width="1100" height="420" viewBox="0 0 1100 420">
<rect width="1100" height="420" fill="white"/>
<text x="86" y="26" font-size="22" font-weight="700" font-family="Helvetica, Arial, sans-serif">tb_session_02_turn_005_reuse  phase=reuse  turn=5  prompt=25856  peak_tx=3.54 GiB/s  peak_rx=38.93 GiB/s</text>
<text x="86" y="46" font-size="13" fill="#444" font-family="Helvetica, Arial, sans-serif">response_window=2.051s, response_tx=1.873 GiB, response_rx=16.486 GiB, metrics_tx=1.874 GiB, metrics_rx=16.487 GiB</text>
<line x1="86" y1="366.0" x2="1076" y2="366.0" stroke="#ececec" stroke-width="1"/>
<text x="76" y="370.0" text-anchor="end" font-size="12" fill="#444" font-family="Helvetica, Arial, sans-serif">0.0</text>
<line x1="86" y1="305.2" x2="1076" y2="305.2" stroke="#ececec" stroke-width="1"/>
<text x="76" y="309.2" text-anchor="end" font-size="12" fill="#444" font-family="Helvetica, Arial, sans-serif">8.6</text>
<line x1="86" y1="244.4" x2="1076" y2="244.4" stroke="#ececec" stroke-width="1"/>
<text x="76" y="248.4" text-anchor="end" font-size="12" fill="#444" font-family="Helvetica, Arial, sans-serif">17.1</text>
<line x1="86" y1="183.6" x2="1076" y2="183.6" stroke="#ececec" stroke-width="1"/>
<text x="76" y="187.6" text-anchor="end" font-size="12" fill="#444" font-family="Helvetica, Arial, sans-serif">25.7</text>
<line x1="86" y1="122.8" x2="1076" y2="122.8" stroke="#ececec" stroke-width="1"/>
<text x="76" y="126.8" text-anchor="end" font-size="12" fill="#444" font-family="Helvetica, Arial, sans-serif">34.3</text>
<line x1="86" y1="62.0" x2="1076" y2="62.0" stroke="#ececec" stroke-width="1"/>
<text x="76" y="66.0" text-anchor="end" font-size="12" fill="#444" font-family="Helvetica, Arial, sans-serif">42.8</text>
<line x1="86" y1="366.0" x2="1076" y2="366.0" stroke="#222" stroke-width="1.4"/>
<line x1="86" y1="62.0" x2="86" y2="366.0" stroke="#222" stroke-width="1.4"/>
<rect x="145.2" y="62.0" width="912.2" height="304.0" fill="#F58518" opacity="0.08"/>
<path d="M 86.0 366.0 L 104.7 366.0 L 123.4 366.0 L 142.5 366.0 L 161.2 366.0 L 179.8 366.0 L 198.5 366.0 L 217.6 366.0 L 236.3 366.0 L 255.0 366.0 L 273.7 366.0 L 292.8 343.5 L 312.4 343.6 L 332.8 343.1 L 354.6 366.0 L 373.7 352.3 L 392.4 366.0 L 411.1 366.0 L 430.7 366.0 L 449.4 366.0 L 468.0 366.0 L 486.7 366.0 L 505.4 366.0 L 524.1 366.0 L 542.8 366.0 L 561.4 366.0 L 580.6 354.4 L 605.9 343.3 L 628.1 343.0 L 648.2 366.0 L 666.8 366.0 L 685.5 351.2 L 705.5 343.3 L 725.5 340.9 L 746.4 353.8 L 765.6 366.0 L 785.6 362.4 L 805.2 343.4 L 825.2 343.3 L 846.5 343.7 L 866.5 366.0 L 885.6 366.0 L 904.3 366.0 L 923.0 365.9 L 942.1 365.9 L 960.8 365.9 L 979.9 365.9 L 999.5 365.9 L 1019.5 365.9 L 1038.2 365.9 L 1057.3 366.0 L 1076.0 365.9" fill="none" stroke="#4C78A8" stroke-width="2.8" stroke-linejoin="round" stroke-linecap="round"/>
<path d="M 86.0 366.0 L 104.7 366.0 L 123.4 365.9 L 142.5 366.0 L 161.2 366.0 L 179.8 366.0 L 198.5 366.0 L 217.6 366.0 L 236.3 365.9 L 255.0 366.0 L 273.7 301.9 L 292.8 168.4 L 312.4 155.6 L 332.8 227.1 L 354.6 365.9 L 373.7 366.0 L 392.4 366.0 L 411.1 366.0 L 430.7 366.0 L 449.4 366.0 L 468.0 366.0 L 486.7 366.0 L 505.4 366.0 L 524.1 366.0 L 542.8 366.0 L 561.4 366.0 L 580.6 89.6 L 605.9 170.1 L 628.1 171.0 L 648.2 366.0 L 666.8 366.0 L 685.5 168.0 L 705.5 167.7 L 725.5 165.9 L 746.4 366.0 L 765.6 366.0 L 785.6 169.3 L 805.2 155.2 L 825.2 166.5 L 846.5 365.9 L 866.5 365.9 L 885.6 365.9 L 904.3 365.7 L 923.0 365.8 L 942.1 365.8 L 960.8 365.8 L 979.9 365.8 L 999.5 365.8 L 1019.5 365.8 L 1038.2 365.9 L 1057.3 366.0 L 1076.0 366.0" fill="none" stroke="#F58518" stroke-width="2.8" stroke-linejoin="round" stroke-linecap="round"/>
<line x1="145.2" y1="62.0" x2="145.2" y2="366.0" stroke="#666" stroke-dasharray="4 4" stroke-width="1.2"/>
<text x="145.2" y="402.0" text-anchor="middle" font-size="12" fill="#444" font-family="Helvetica, Arial, sans-serif">submit</text>
<line x1="1057.3" y1="62.0" x2="1057.3" y2="366.0" stroke="#888" stroke-dasharray="4 4" stroke-width="1.2"/>
<text x="1057.3" y="402.0" text-anchor="middle" font-size="12" fill="#444" font-family="Helvetica, Arial, sans-serif">finish</text>
<line x1="86.0" y1="62.0" x2="86.0" y2="366.0" stroke="#f5f5f5" stroke-width="1"/>
<text x="86.0" y="418.0" text-anchor="middle" font-size="11" fill="#444" font-family="Helvetica, Arial, sans-serif">-0.13</text>
<line x1="209.8" y1="62.0" x2="209.8" y2="366.0" stroke="#f5f5f5" stroke-width="1"/>
<text x="209.8" y="418.0" text-anchor="middle" font-size="11" fill="#444" font-family="Helvetica, Arial, sans-serif">0.15</text>
<line x1="333.5" y1="62.0" x2="333.5" y2="366.0" stroke="#f5f5f5" stroke-width="1"/>
<text x="333.5" y="418.0" text-anchor="middle" font-size="11" fill="#444" font-family="Helvetica, Arial, sans-serif">0.42</text>
<line x1="457.2" y1="62.0" x2="457.2" y2="366.0" stroke="#f5f5f5" stroke-width="1"/>
<text x="457.2" y="418.0" text-anchor="middle" font-size="11" fill="#444" font-family="Helvetica, Arial, sans-serif">0.70</text>
<line x1="581.0" y1="62.0" x2="581.0" y2="366.0" stroke="#f5f5f5" stroke-width="1"/>
<text x="581.0" y="418.0" text-anchor="middle" font-size="11" fill="#444" font-family="Helvetica, Arial, sans-serif">0.98</text>
<line x1="704.8" y1="62.0" x2="704.8" y2="366.0" stroke="#f5f5f5" stroke-width="1"/>
<text x="704.8" y="418.0" text-anchor="middle" font-size="11" fill="#444" font-family="Helvetica, Arial, sans-serif">1.26</text>
<line x1="828.5" y1="62.0" x2="828.5" y2="366.0" stroke="#f5f5f5" stroke-width="1"/>
<text x="828.5" y="418.0" text-anchor="middle" font-size="11" fill="#444" font-family="Helvetica, Arial, sans-serif">1.54</text>
<line x1="952.2" y1="62.0" x2="952.2" y2="366.0" stroke="#f5f5f5" stroke-width="1"/>
<text x="952.2" y="418.0" text-anchor="middle" font-size="11" fill="#444" font-family="Helvetica, Arial, sans-serif">1.81</text>
<line x1="1076.0" y1="62.0" x2="1076.0" y2="366.0" stroke="#f5f5f5" stroke-width="1"/>
<text x="1076.0" y="418.0" text-anchor="middle" font-size="11" fill="#444" font-family="Helvetica, Arial, sans-serif">2.09</text>
<text x="581.0" y="386.0" text-anchor="middle" font-size="15" fill="#222" font-family="Helvetica, Arial, sans-serif">time since request submit (s)</text>
</svg>