<svg xmlns="http://www.w3.org/2000/svg" width="1100" height="420" viewBox="0 0 1100 420">
<rect width="1100" height="420" fill="white"/>
<text x="86" y="26" font-size="22" font-weight="700" font-family="Helvetica, Arial, sans-serif">tb_session_02_turn_001_reuse  phase=reuse  turn=1  prompt=24832  peak_tx=15.47 GiB/s  peak_rx=28.30 GiB/s</text>
<text x="86" y="46" font-size="13" fill="#444" font-family="Helvetica, Arial, sans-serif">response_window=10.166s, response_tx=10.790 GiB, response_rx=4.746 GiB, metrics_tx=10.792 GiB, metrics_rx=4.750 GiB</text>
<line x1="86" y1="366.0" x2="1076" y2="366.0" stroke="#ececec" stroke-width="1"/>
<text x="76" y="370.0" text-anchor="end" font-size="12" fill="#444" font-family="Helvetica, Arial, sans-serif">0.0</text>
<line x1="86" y1="305.2" x2="1076" y2="305.2" stroke="#ececec" stroke-width="1"/>
<text x="76" y="309.2" text-anchor="end" font-size="12" fill="#444" font-family="Helvetica, Arial, sans-serif">6.2</text>
<line x1="86" y1="244.4" x2="1076" y2="244.4" stroke="#ececec" stroke-width="1"/>
<text x="76" y="248.4" text-anchor="end" font-size="12" fill="#444" font-family="Helvetica, Arial, sans-serif">12.4</text>
<line x1="86" y1="183.6" x2="1076" y2="183.6" stroke="#ececec" stroke-width="1"/>
<text x="76" y="187.6" text-anchor="end" font-size="12" fill="#444" font-family="Helvetica, Arial, sans-serif">18.7</text>
<line x1="86" y1="122.8" x2="1076" y2="122.8" stroke="#ececec" stroke-width="1"/>
<text x="76" y="126.8" text-anchor="end" font-size="12" fill="#444" font-family="Helvetica, Arial, sans-serif">24.9</text>
<line x1="86" y1="62.0" x2="1076" y2="62.0" stroke="#ececec" stroke-width="1"/>
<text x="76" y="66.0" text-anchor="end" font-size="12" fill="#444" font-family="Helvetica, Arial, sans-serif">31.1</text>
<line x1="86" y1="366.0" x2="1076" y2="366.0" stroke="#222" stroke-width="1.4"/>
<line x1="86" y1="62.0" x2="86" y2="366.0" stroke="#222" stroke-width="1.4"/>
<rect x="97.9" y="62.0" width="974.3" height="304.0" fill="#F58518" opacity="0.08"/>
<path d="M 86.0 366.0 L 90.0 366.0 L 94.1 366.0 L 98.1 366.0 L 102.1 366.0 L 106.2 366.0 L 110.2 366.0 L 114.3 366.0 L 118.3 366.0 L 122.3 366.0 L 126.3 366.0 L 130.5 366.0 L 134.5 334.8 L 138.8 333.7 L 144.0 337.5 L 148.1 365.9 L 152.4 366.0 L 156.4 366.0 L 160.6 365.9 L 164.7 365.9 L 168.8 366.0 L 172.8 337.8 L 176.9 366.0 L 181.4 366.0 L 185.4 366.0 L 189.4 366.0 L 193.5 366.0 L 197.6 366.0 L 202.3 366.0 L 206.4 366.0 L 210.5 366.0 L 214.6 366.0 L 218.6 215.1 L 222.8 366.0 L 226.8 366.0 L 230.9 366.0 L 234.9 366.0 L 239.3 366.0 L 243.4 282.9 L 247.4 366.0 L 251.5 366.0 L 255.5 366.0 L 259.7 365.9 L 263.7 365.9 L 268.0 215.1 L 272.1 366.0 L 276.1 366.0 L 280.3 366.0 L 284.3 366.0 L 288.4 366.0 L 292.4 365.9 L 297.0 366.0 L 301.2 366.0 L 305.2 366.0 L 309.3 366.0 L 313.3 366.0 L 317.4 366.0 L 321.5 334.5 L 325.7 366.0 L 329.7 366.0 L 333.8 366.0 L 337.9 366.0 L 341.9 366.0 L 346.0 366.0 L 350.0 366.0 L 354.3 366.0 L 358.4 366.0 L 362.4 365.9 L 366.5 365.9 L 370.5 366.0 L 374.6 366.0 L 378.7 366.0 L 383.0 218.1 L 387.0 366.0 L 391.1 366.0 L 395.2 366.0 L 399.2 366.0 L 403.3 366.0 L 407.3 366.0 L 411.8 366.0 L 415.8 215.1 L 419.8 366.0 L 423.9 366.0 L 427.9 366.0 L 432.1 366.0 L 436.1 366.0 L 440.5 366.0 L 444.5 366.0 L 448.6 366.0 L 452.7 366.0 L 456.7 366.0 L 460.8 328.2 L 464.8 365.9 L 469.3 366.0 L 473.4 366.0 L 477.5 366.0 L 481.5 363.2 L 485.5 366.0 L 489.7 366.0 L 493.7 366.0 L 498.0 366.0 L 502.1 366.0 L 506.2 254.9 L 510.3 366.0 L 514.3 366.0 L 518.4 366.0 L 522.4 366.0 L 526.9 366.0 L 531.0 348.5 L 535.0 366.0 L 539.0 366.0 L 543.1 366.0 L 547.2 366.0 L 551.2 366.0 L 555.6 342.6 L 559.6 365.9 L 563.7 365.9 L 567.8 365.9 L 571.8 366.0 L 575.9 366.0 L 579.9 214.9 L 587.8 366.0 L 591.8 366.0 L 596.0 366.0 L 600.1 366.0 L 604.2 366.0 L 608.2 215.1 L 612.2 366.0 L 616.4 366.0 L 620.4 366.0 L 624.6 366.0 L 628.6 366.0 L 632.7 366.0 L 636.8 215.1 L 640.8 366.0 L 644.9 366.0 L 648.9 366.0 L 653.1 366.0 L 657.1 366.0 L 661.2 365.9 L 665.3 349.6 L 669.4 366.0 L 673.4 366.0 L 677.5 366.0 L 681.5 366.0 L 685.7 366.0 L 689.9 366.0 L 693.9 366.0 L 698.1 215.1 L 702.1 366.0 L 706.2 366.0 L 710.3 366.0 L 714.3 366.0 L 718.7 366.0 L 722.8 366.0 L 727.0 366.0 L 731.0 215.1 L 735.1 357.4 L 743.9 366.0 L 747.9 366.0 L 752.1 366.0 L 756.1 366.0 L 760.1 365.9 L 764.3 303.9 L 768.6 365.9 L 772.6 366.0 L 776.7 366.0 L 780.7 366.0 L 784.8 335.6 L 788.9 366.0 L 793.0 366.0 L 797.1 366.0 L 801.2 366.0 L 805.3 219.6 L 809.3 366.0 L 813.4 366.0 L 817.4 366.0 L 821.6 366.0 L 825.7 366.0 L 829.7 366.0 L 834.0 366.0 L 838.0 366.0 L 842.2 366.0 L 846.2 366.0 L 850.2 282.8 L 854.4 366.0 L 858.5 366.0 L 862.6 365.9 L 866.6 365.9 L 870.7 366.0 L 874.7 339.1 L 878.9 366.0 L 882.9 366.0 L 886.9 365.9 L 891.6 366.0 L 895.6 366.0 L 899.8 366.0 L 903.8 364.0 L 907.8 366.0 L 912.0 366.0 L 916.1 366.0 L 920.2 366.0 L 924.2 366.0 L 928.3 343.5 L 932.3 366.0 L 936.5 366.0 L 940.5 366.0 L 944.5 366.0 L 948.9 366.0 L 952.9 366.0 L 957.0 361.3 L 961.1 365.9 L 965.1 365.8 L 969.2 365.9 L 973.4 366.0 L 977.6 366.0 L 981.6 366.0 L 985.7 366.0 L 989.7 275.1 L 993.9 366.0 L 997.9 366.0 L 1001.9 366.0 L 1006.2 366.0 L 1010.4 366.0 L 1014.4 366.0 L 1018.4 366.0 L 1022.5 366.0 L 1026.5 366.0 L 1030.7 366.0 L 1034.9 366.0 L 1039.0 366.0 L 1043.0 366.0 L 1047.1 366.0 L 1051.2 366.0 L 1055.2 331.7 L 1059.3 366.0 L 1063.7 366.0 L 1067.9 365.9 L 1071.9 365.9 L 1076.0 365.9" fill="none" stroke="#4C78A8" stroke-width="2.8" stroke-linejoin="round" stroke-linecap="round"/>
<path d="M 86.0 366.0 L 90.0 366.0 L 94.1 366.0 L 98.1 366.0 L 102.1 366.0 L 106.2 366.0 L 110.2 366.0 L 114.3 366.0 L 118.3 366.0 L 122.3 366.0 L 126.3 366.0 L 130.5 171.8 L 134.5 92.5 L 138.8 89.6 L 144.0 365.8 L 148.1 365.8 L 152.4 127.6 L 156.4 365.9 L 160.6 365.9 L 164.7 365.9 L 168.8 365.9 L 172.8 365.9 L 176.9 365.9 L 181.4 365.9 L 185.4 365.9 L 189.4 365.9 L 193.5 365.9 L 197.6 365.9 L 202.3 365.9 L 206.4 365.9 L 210.5 365.9 L 214.6 365.9 L 218.6 365.9 L 222.8 365.9 L 226.8 365.9 L 230.9 365.9 L 234.9 365.9 L 239.3 365.9 L 243.4 365.9 L 247.4 365.9 L 251.5 365.9 L 255.5 365.9 L 259.7 365.9 L 263.7 365.9 L 268.0 365.9 L 272.1 365.9 L 276.1 365.9 L 280.3 365.9 L 284.3 365.9 L 288.4 365.9 L 292.4 365.9 L 297.0 365.9 L 301.2 365.9 L 305.2 365.9 L 309.3 365.9 L 313.3 365.9 L 317.4 365.9 L 321.5 365.9 L 325.7 365.9 L 329.7 365.9 L 333.8 365.9 L 337.9 365.9 L 341.9 365.9 L 346.0 365.9 L 350.0 365.9 L 354.3 365.9 L 358.4 365.9 L 362.4 365.8 L 366.5 365.9 L 370.5 365.9 L 374.6 365.9 L 378.7 365.9 L 383.0 365.9 L 387.0 365.9 L 391.1 365.9 L 395.2 365.9 L 399.2 365.9 L 403.3 365.9 L 407.3 365.9 L 411.8 365.9 L 415.8 365.9 L 419.8 365.9 L 423.9 365.9 L 427.9 365.9 L 432.1 365.9 L 436.1 365.9 L 440.5 365.8 L 444.5 365.9 L 448.6 365.9 L 452.7 365.9 L 456.7 365.9 L 460.8 365.9 L 464.8 365.9 L 469.3 365.9 L 473.4 365.9 L 477.5 365.9 L 481.5 365.9 L 485.5 365.9 L 489.7 365.9 L 493.7 365.9 L 498.0 365.9 L 502.1 365.9 L 506.2 365.9 L 510.3 365.9 L 514.3 365.9 L 518.4 365.9 L 522.4 365.9 L 526.9 365.9 L 531.0 365.9 L 535.0 365.9 L 539.0 365.9 L 543.1 365.9 L 547.2 365.9 L 551.2 365.9 L 555.6 365.9 L 559.6 365.9 L 563.7 365.9 L 567.8 365.9 L 571.8 365.9 L 575.9 365.9 L 579.9 365.9 L 587.8 365.9 L 591.8 365.9 L 596.0 365.9 L 600.1 365.9 L 604.2 365.9 L 608.2 365.9 L 612.2 365.9 L 616.4 365.9 L 620.4 365.9 L 624.6 365.9 L 628.6 365.9 L 632.7 365.9 L 636.8 365.9 L 640.8 365.9 L 644.9 365.9 L 648.9 365.9 L 653.1 365.9 L 657.1 365.9 L 661.2 365.9 L 665.3 365.9 L 669.4 365.9 L 673.4 365.9 L 677.5 365.9 L 681.5 365.9 L 685.7 365.9 L 689.9 365.9 L 693.9 365.9 L 698.1 365.9 L 702.1 365.9 L 706.2 365.9 L 710.3 365.9 L 714.3 365.9 L 718.7 365.9 L 722.8 365.9 L 727.0 365.9 L 731.0 366.0 L 735.1 365.9 L 743.9 365.9 L 747.9 365.9 L 752.1 365.9 L 756.1 365.9 L 760.1 365.8 L 764.3 365.9 L 768.6 365.9 L 772.6 365.9 L 776.7 365.9 L 780.7 365.9 L 784.8 365.9 L 788.9 365.9 L 793.0 365.9 L 797.1 365.9 L 801.2 365.9 L 805.3 365.9 L 809.3 365.9 L 813.4 365.9 L 817.4 365.9 L 821.6 365.9 L 825.7 365.9 L 829.7 365.9 L 834.0 365.9 L 838.0 365.9 L 842.2 365.9 L 846.2 365.9 L 850.2 365.9 L 854.4 365.9 L 858.5 365.9 L 862.6 365.9 L 866.6 365.9 L 870.7 365.9 L 874.7 365.9 L 878.9 365.9 L 882.9 365.9 L 886.9 365.9 L 891.6 365.9 L 895.6 365.9 L 899.8 365.9 L 903.8 365.9 L 907.8 365.9 L 912.0 365.9 L 916.1 365.9 L 920.2 365.9 L 924.2 365.9 L 928.3 365.9 L 932.3 365.9 L 936.5 365.9 L 940.5 365.9 L 944.5 365.9 L 948.9 365.9 L 952.9 365.9 L 957.0 365.9 L 961.1 365.9 L 965.1 365.9 L 969.2 365.9 L 973.4 365.9 L 977.6 365.9 L 981.6 365.9 L 985.7 365.9 L 989.7 365.9 L 993.9 365.9 L 997.9 365.9 L 1001.9 365.9 L 1006.2 365.9 L 1010.4 365.9 L 1014.4 365.9 L 1018.4 365.9 L 1022.5 365.9 L 1026.5 365.9 L 1030.7 365.9 L 1034.9 365.9 L 1039.0 365.9 L 1043.0 365.9 L 1047.1 365.9 L 1051.2 365.9 L 1055.2 365.9 L 1059.3 365.8 L 1063.7 365.5 L 1067.9 365.7 L 1071.9 365.7 L 1076.0 365.7" fill="none" stroke="#F58518" stroke-width="2.8" stroke-linejoin="round" stroke-linecap="round"/>
<line x1="97.9" y1="62.0" x2="97.9" y2="366.0" stroke="#666" stroke-dasharray="4 4" stroke-width="1.2"/>
<text x="97.9" y="402.0" text-anchor="middle" font-size="12" fill="#444" font-family="Helvetica, Arial, sans-serif">submit</text>
<line x1="1072.2" y1="62.0" x2="1072.2" y2="366.0" stroke="#888" stroke-dasharray="4 4" stroke-width="1.2"/>
<text x="1072.2" y="402.0" text-anchor="middle" font-size="12" fill="#444" font-family="Helvetica, Arial, sans-serif">finish</text>
<line x1="86.0" y1="62.0" x2="86.0" y2="366.0" stroke="#f5f5f5" stroke-width="1"/>
<text x="86.0" y="418.0" text-anchor="middle" font-size="11" fill="#444" font-family="Helvetica, Arial, sans-serif">-0.12</text>
<line x1="209.8" y1="62.0" x2="209.8" y2="366.0" stroke="#f5f5f5" stroke-width="1"/>
<text x="209.8" y="418.0" text-anchor="middle" font-size="11" fill="#444" font-family="Helvetica, Arial, sans-serif">1.17</text>
<line x1="333.5" y1="62.0" x2="333.5" y2="366.0" stroke="#f5f5f5" stroke-width="1"/>
<text x="333.5" y="418.0" text-anchor="middle" font-size="11" fill="#444" font-family="Helvetica, Arial, sans-serif">2.46</text>
<line x1="457.2" y1="62.0" x2="457.2" y2="366.0" stroke="#f5f5f5" stroke-width="1"/>
<text x="457.2" y="418.0" text-anchor="middle" font-size="11" fill="#444" font-family="Helvetica, Arial, sans-serif">3.75</text>
<line x1="581.0" y1="62.0" x2="581.0" y2="366.0" stroke="#f5f5f5" stroke-width="1"/>
<text x="581.0" y="418.0" text-anchor="middle" font-size="11" fill="#444" font-family="Helvetica, Arial, sans-serif">5.04</text>
<line x1="704.8" y1="62.0" x2="704.8" y2="366.0" stroke="#f5f5f5" stroke-width="1"/>
<text x="704.8" y="418.0" text-anchor="middle" font-size="11" fill="#444" font-family="Helvetica, Arial, sans-serif">6.33</text>
<line x1="828.5" y1="62.0" x2="828.5" y2="366.0" stroke="#f5f5f5" stroke-width="1"/>
<text x="828.5" y="418.0" text-anchor="middle" font-size="11" fill="#444" font-family="Helvetica, Arial, sans-serif">7.62</text>
<line x1="952.2" y1="62.0" x2="952.2" y2="366.0" stroke="#f5f5f5" stroke-width="1"/>
<text x="952.2" y="418.0" text-anchor="middle" font-size="11" fill="#444" font-family="Helvetica, Arial, sans-serif">8.91</text>
<line x1="1076.0" y1="62.0" x2="1076.0" y2="366.0" stroke="#f5f5f5" stroke-width="1"/>
<text x="1076.0" y="418.0" text-anchor="middle" font-size="11" fill="#444" font-family="Helvetica, Arial, sans-serif">10.21</text>
<text x="581.0" y="386.0" text-anchor="middle" font-size="15" fill="#222" font-family="Helvetica, Arial, sans-serif">time since request submit (s)</text>
</svg>