<svg xmlns="http://www.w3.org/2000/svg" width="1100" height="420" viewBox="0 0 1100 420">
<rect width="1100" height="420" fill="white"/>
<text x="86" y="26" font-size="24" font-weight="700" font-family="Helvetica, Arial, sans-serif">PCIe RX Timeline: pd_external_prefix_terminalbench_qwen3_8b_s12</text>
<line x1="86" y1="366.0" x2="1076" y2="366.0" stroke="#ececec" stroke-width="1"/>
<text x="76" y="370.0" text-anchor="end" font-size="12" fill="#444" font-family="Helvetica, Arial, sans-serif">0.0</text>
<line x1="86" y1="301.6" x2="1076" y2="301.6" stroke="#ececec" stroke-width="1"/>
<text x="76" y="305.6" text-anchor="end" font-size="12" fill="#444" font-family="Helvetica, Arial, sans-serif">9.4</text>
<line x1="86" y1="237.2" x2="1076" y2="237.2" stroke="#ececec" stroke-width="1"/>
<text x="76" y="241.2" text-anchor="end" font-size="12" fill="#444" font-family="Helvetica, Arial, sans-serif">18.9</text>
<line x1="86" y1="172.8" x2="1076" y2="172.8" stroke="#ececec" stroke-width="1"/>
<text x="76" y="176.8" text-anchor="end" font-size="12" fill="#444" font-family="Helvetica, Arial, sans-serif">28.3</text>
<line x1="86" y1="108.4" x2="1076" y2="108.4" stroke="#ececec" stroke-width="1"/>
<text x="76" y="112.4" text-anchor="end" font-size="12" fill="#444" font-family="Helvetica, Arial, sans-serif">37.7</text>
<line x1="86" y1="44.0" x2="1076" y2="44.0" stroke="#ececec" stroke-width="1"/>
<text x="76" y="48.0" text-anchor="end" font-size="12" fill="#444" font-family="Helvetica, Arial, sans-serif">47.2</text>
<line x1="86" y1="366.0" x2="1076" y2="366.0" stroke="#222" stroke-width="1.4"/>
<line x1="86" y1="44.0" x2="86" y2="366.0" stroke="#222" stroke-width="1.4"/>
<text x="24" y="205.0" text-anchor="middle" font-size="15" fill="#222" font-family="Helvetica, Arial, sans-serif" transform="rotate(-90 24,205.0)">RX GiB/s</text>
<rect x="86.0" y="44.0" width="50.1" height="322.0" fill="#4C78A8" opacity="0.08"/>
<rect x="136.2" y="44.0" width="412.0" height="322.0" fill="#F58518" opacity="0.08"/>
<rect x="136.2" y="44.0" width="412.0" height="322.0" fill="#F58518" opacity="0.08"/>
<rect x="136.2" y="44.0" width="412.0" height="322.0" fill="#F58518" opacity="0.08"/>
<rect x="136.2" y="44.0" width="412.0" height="322.0" fill="#F58518" opacity="0.08"/>
<rect x="136.2" y="44.0" width="412.0" height="322.0" fill="#F58518" opacity="0.08"/>
<rect x="136.2" y="44.0" width="411.9" height="322.0" fill="#F58518" opacity="0.08"/>
<rect x="136.3" y="44.0" width="411.9" height="322.0" fill="#F58518" opacity="0.08"/>
<rect x="136.3" y="44.0" width="411.9" height="322.0" fill="#F58518" opacity="0.08"/>
<rect x="136.3" y="44.0" width="411.9" height="322.0" fill="#F58518" opacity="0.08"/>
<rect x="136.3" y="44.0" width="411.9" height="322.0" fill="#F58518" opacity="0.08"/>
<rect x="136.3" y="44.0" width="411.9" height="322.0" fill="#F58518" opacity="0.08"/>
<rect x="136.3" y="44.0" width="411.9" height="322.0" fill="#F58518" opacity="0.08"/>
<rect x="548.4" y="44.0" width="74.4" height="322.0" fill="#F58518" opacity="0.08"/>
<rect x="548.4" y="44.0" width="74.4" height="322.0" fill="#F58518" opacity="0.08"/>
<rect x="548.5" y="44.0" width="74.4" height="322.0" fill="#F58518" opacity="0.08"/>
<rect x="548.5" y="44.0" width="74.4" height="322.0" fill="#F58518" opacity="0.08"/>
<rect x="548.5" y="44.0" width="74.4" height="322.0" fill="#F58518" opacity="0.08"/>
<rect x="548.5" y="44.0" width="74.4" height="322.0" fill="#F58518" opacity="0.08"/>
<rect x="548.5" y="44.0" width="74.4" height="322.0" fill="#F58518" opacity="0.08"/>
<rect x="548.5" y="44.0" width="74.3" height="322.0" fill="#F58518" opacity="0.08"/>
<rect x="548.5" y="44.0" width="74.3" height="322.0" fill="#F58518" opacity="0.08"/>
<rect x="548.5" y="44.0" width="74.3" height="322.0" fill="#F58518" opacity="0.08"/>
<rect x="548.6" y="44.0" width="74.3" height="322.0" fill="#F58518" opacity="0.08"/>
<rect x="548.6" y="44.0" width="74.3" height="322.0" fill="#F58518" opacity="0.08"/>
<rect x="623.2" y="44.0" width="75.1" height="322.0" fill="#F58518" opacity="0.08"/>
<rect x="623.2" y="44.0" width="75.1" height="322.0" fill="#F58518" opacity="0.08"/>
<rect x="623.2" y="44.0" width="75.1" height="322.0" fill="#F58518" opacity="0.08"/>
<rect x="623.2" y="44.0" width="75.0" height="322.0" fill="#F58518" opacity="0.08"/>
<rect x="623.2" y="44.0" width="75.0" height="322.0" fill="#F58518" opacity="0.08"/>
<rect x="623.3" y="44.0" width="75.0" height="322.0" fill="#F58518" opacity="0.08"/>
<rect x="623.3" y="44.0" width="75.0" height="322.0" fill="#F58518" opacity="0.08"/>
<rect x="623.3" y="44.0" width="75.0" height="322.0" fill="#F58518" opacity="0.08"/>
<rect x="623.3" y="44.0" width="75.0" height="322.0" fill="#F58518" opacity="0.08"/>
<rect x="623.3" y="44.0" width="75.0" height="322.0" fill="#F58518" opacity="0.08"/>
<rect x="623.3" y="44.0" width="74.9" height="322.0" fill="#F58518" opacity="0.08"/>
<rect x="623.3" y="44.0" width="74.9" height="322.0" fill="#F58518" opacity="0.08"/>
<rect x="698.6" y="44.0" width="75.6" height="322.0" fill="#F58518" opacity="0.08"/>
<rect x="698.6" y="44.0" width="75.6" height="322.0" fill="#F58518" opacity="0.08"/>
<rect x="698.6" y="44.0" width="75.6" height="322.0" fill="#F58518" opacity="0.08"/>
<rect x="698.6" y="44.0" width="75.5" height="322.0" fill="#F58518" opacity="0.08"/>
<rect x="698.6" y="44.0" width="75.5" height="322.0" fill="#F58518" opacity="0.08"/>
<rect x="698.7" y="44.0" width="75.5" height="322.0" fill="#F58518" opacity="0.08"/>
<rect x="698.7" y="44.0" width="75.5" height="322.0" fill="#F58518" opacity="0.08"/>
<rect x="698.7" y="44.0" width="75.5" height="322.0" fill="#F58518" opacity="0.08"/>
<rect x="698.7" y="44.0" width="75.5" height="322.0" fill="#F58518" opacity="0.08"/>
<rect x="698.7" y="44.0" width="75.5" height="322.0" fill="#F58518" opacity="0.08"/>
<rect x="698.7" y="44.0" width="75.5" height="322.0" fill="#F58518" opacity="0.08"/>
<rect x="698.7" y="44.0" width="75.4" height="322.0" fill="#F58518" opacity="0.08"/>
<rect x="774.4" y="44.0" width="75.8" height="322.0" fill="#F58518" opacity="0.08"/>
<rect x="774.4" y="44.0" width="75.8" height="322.0" fill="#F58518" opacity="0.08"/>
<rect x="774.4" y="44.0" width="75.8" height="322.0" fill="#F58518" opacity="0.08"/>
<rect x="774.5" y="44.0" width="75.7" height="322.0" fill="#F58518" opacity="0.08"/>
<rect x="774.5" y="44.0" width="75.7" height="322.0" fill="#F58518" opacity="0.08"/>
<rect x="774.5" y="44.0" width="75.7" height="322.0" fill="#F58518" opacity="0.08"/>
<rect x="774.5" y="44.0" width="75.7" height="322.0" fill="#F58518" opacity="0.08"/>
<rect x="774.5" y="44.0" width="75.7" height="322.0" fill="#F58518" opacity="0.08"/>
<rect x="774.5" y="44.0" width="75.7" height="322.0" fill="#F58518" opacity="0.08"/>
<rect x="774.5" y="44.0" width="75.7" height="322.0" fill="#F58518" opacity="0.08"/>
<rect x="774.6" y="44.0" width="75.7" height="322.0" fill="#F58518" opacity="0.08"/>
<rect x="774.6" y="44.0" width="75.6" height="322.0" fill="#F58518" opacity="0.08"/>
<rect x="850.5" y="44.0" width="20.6" height="322.0" fill="#4C78A8" opacity="0.08"/>
<rect x="871.3" y="44.0" width="20.2" height="322.0" fill="#4C78A8" opacity="0.08"/>
<rect x="891.8" y="44.0" width="20.3" height="322.0" fill="#4C78A8" opacity="0.08"/>
<rect x="912.3" y="44.0" width="20.2" height="322.0" fill="#4C78A8" opacity="0.08"/>
<rect x="932.8" y="44.0" width="20.2" height="322.0" fill="#4C78A8" opacity="0.08"/>
<rect x="953.3" y="44.0" width="20.4" height="322.0" fill="#4C78A8" opacity="0.08"/>
<rect x="974.0" y="44.0" width="20.2" height="322.0" fill="#4C78A8" opacity="0.08"/>
<rect x="994.5" y="44.0" width="20.2" height="322.0" fill="#4C78A8" opacity="0.08"/>
<rect x="1014.9" y="44.0" width="20.2" height="322.0" fill="#4C78A8" opacity="0.08"/>
<rect x="1035.4" y="44.0" width="20.4" height="322.0" fill="#4C78A8" opacity="0.08"/>
<rect x="1056.1" y="44.0" width="20.2" height="322.0" fill="#4C78A8" opacity="0.08"/>
<path d="M 86.1 366.0 L 86.6 365.9 L 87.1 365.9 L 87.5 365.9 L 88.0 365.9 L 88.5 365.9 L 88.9 365.9 L 89.4 365.9 L 90.4 365.9 L 90.9 365.9 L 91.3 365.8 L 92.2 365.9 L 92.7 365.9 L 93.2 365.9 L 93.6 365.9 L 94.1 366.0 L 94.6 365.9 L 95.0 365.9 L 95.5 365.9 L 96.0 365.9 L 96.4 365.9 L 96.9 365.9 L 97.4 365.9 L 97.8 365.9 L 98.3 365.9 L 98.8 365.9 L 99.2 365.9 L 99.7 365.9 L 100.2 365.7 L 101.1 365.9 L 101.6 365.9 L 102.1 365.9 L 102.5 366.0 L 103.0 365.9 L 103.5 366.0 L 103.9 365.9 L 104.4 366.0 L 104.9 366.0 L 105.3 366.0 L 105.8 366.0 L 106.3 365.9 L 106.7 366.0 L 107.2 366.0 L 107.7 366.0 L 108.2 366.0 L 108.6 366.0 L 109.1 366.0 L 109.6 365.9 L 110.0 366.0 L 110.5 366.0 L 111.0 366.0 L 111.4 366.0 L 111.9 366.0 L 112.4 366.0 L 112.8 365.9 L 113.3 365.9 L 113.8 366.0 L 114.3 366.0 L 114.7 366.0 L 115.2 366.0 L 115.7 365.8 L 116.5 365.9 L 117.0 366.0 L 117.5 366.0 L 117.9 366.0 L 118.4 366.0 L 118.9 366.0 L 119.3 366.0 L 119.8 365.9 L 120.3 365.7 L 120.8 365.8 L 121.2 365.8 L 121.7 365.8 L 122.2 365.8 L 122.6 366.0 L 123.1 366.0 L 123.6 366.0 L 124.0 366.0 L 124.5 365.9 L 125.0 365.9 L 125.4 366.0 L 125.9 366.0 L 126.4 366.0 L 126.8 366.0 L 127.3 366.0 L 127.8 366.0 L 128.2 366.0 L 128.7 366.0 L 129.1 366.0 L 129.6 366.0 L 130.1 366.0 L 130.5 366.0 L 131.0 366.0 L 131.5 366.0 L 131.9 366.0 L 132.4 366.0 L 132.9 366.0 L 133.3 366.0 L 133.8 366.0 L 134.2 366.0 L 134.7 366.0 L 135.2 366.0 L 135.6 366.0 L 136.1 366.0 L 136.6 366.0 L 137.0 366.0 L 137.5 366.0 L 138.0 366.0 L 138.4 366.0 L 138.9 365.9 L 139.3 366.0 L 139.8 328.4 L 140.3 173.3 L 140.8 148.2 L 141.3 238.8 L 141.8 365.9 L 142.2 366.0 L 142.7 365.9 L 143.2 365.9 L 143.6 365.9 L 144.1 365.9 L 144.6 366.0 L 145.0 365.9 L 145.5 365.9 L 146.0 365.9 L 146.5 366.0 L 146.9 365.9 L 147.4 365.9 L 147.9 365.9 L 148.3 365.9 L 148.8 365.9 L 149.3 365.9 L 149.8 365.9 L 150.3 365.9 L 150.7 365.9 L 151.2 365.9 L 151.7 365.9 L 152.2 365.9 L 152.6 365.9 L 153.1 365.9 L 153.6 365.9 L 154.0 365.9 L 154.5 365.9 L 155.0 365.9 L 155.5 365.9 L 155.9 365.9 L 156.4 365.9 L 156.9 365.9 L 157.3 365.9 L 157.8 365.9 L 158.3 366.0 L 158.8 365.9 L 159.2 365.9 L 159.7 365.9 L 160.1 365.9 L 160.6 366.0 L 161.1 365.9 L 161.5 365.9 L 162.0 365.9 L 162.5 365.9 L 162.9 366.0 L 163.4 366.0 L 163.9 365.9 L 164.3 365.9 L 164.8 366.0 L 165.3 365.9 L 165.8 365.9 L 166.2 365.9 L 166.7 365.9 L 167.2 365.9 L 167.6 365.9 L 168.1 365.9 L 168.5 366.0 L 169.0 366.0 L 169.5 366.0 L 170.0 365.9 L 170.4 365.9 L 170.9 365.9 L 171.4 366.0 L 171.9 365.9 L 172.4 365.9 L 172.8 366.0 L 173.3 366.0 L 173.8 366.0 L 174.2 366.0 L 174.7 365.9 L 175.2 366.0 L 175.6 365.9 L 176.1 365.9 L 176.6 365.9 L 177.0 365.9 L 177.5 365.9 L 178.0 365.9 L 178.4 365.9 L 178.9 365.9 L 179.4 365.9 L 179.9 365.9 L 180.3 365.9 L 180.8 365.9 L 181.2 365.9 L 181.7 365.9 L 182.2 365.9 L 182.7 365.9 L 183.1 365.9 L 183.6 365.9 L 184.1 365.9 L 184.5 365.9 L 185.0 365.9 L 185.5 365.9 L 185.9 365.9 L 186.4 365.9 L 186.9 365.9 L 187.4 365.9 L 187.8 365.9 L 188.3 365.9 L 188.7 365.9 L 189.2 365.9 L 189.7 365.9 L 190.2 365.9 L 190.6 365.9 L 191.1 365.9 L 191.6 365.9 L 192.2 365.9 L 192.6 366.0 L 193.1 365.9 L 193.5 365.9 L 194.0 365.9 L 194.5 365.9 L 195.0 365.9 L 195.5 365.9 L 195.9 366.0 L 196.4 365.9 L 196.9 365.9 L 197.4 365.9 L 197.8 366.0 L 198.3 365.9 L 198.8 365.9 L 199.2 366.0 L 199.7 366.0 L 200.2 365.9 L 200.7 365.9 L 201.1 366.0 L 201.6 366.0 L 202.1 366.0 L 202.5 366.0 L 203.0 366.0 L 203.4 366.0 L 203.9 365.9 L 204.4 365.8 L 205.2 365.9 L 205.7 366.0 L 206.2 366.0 L 206.7 366.0 L 207.1 366.0 L 207.6 366.0 L 208.1 366.0 L 208.5 366.0 L 209.0 365.9 L 209.5 366.0 L 209.9 366.0 L 210.4 366.0 L 210.9 366.0 L 211.3 366.0 L 211.8 365.9 L 212.2 366.0 L 212.8 206.7 L 213.2 365.9 L 213.7 365.9 L 214.2 365.9 L 214.6 365.9 L 215.1 366.0 L 215.5 365.9 L 216.0 365.9 L 216.5 365.9 L 217.0 365.9 L 217.4 365.9 L 217.9 365.9 L 218.3 365.9 L 218.8 365.9 L 219.3 365.9 L 219.7 365.9 L 220.2 365.9 L 220.7 365.9 L 221.1 365.9 L 221.6 365.9 L 222.1 365.9 L 222.5 365.9 L 223.0 365.9 L 223.4 365.9 L 223.9 365.9 L 224.4 365.9 L 224.8 365.9 L 225.3 365.9 L 225.8 365.9 L 226.2 365.9 L 226.7 365.9 L 227.1 365.9 L 227.6 366.0 L 228.1 365.9 L 228.6 365.9 L 229.0 365.9 L 229.5 366.0 L 230.0 365.9 L 230.4 366.0 L 230.9 365.9 L 231.3 366.0 L 231.8 365.9 L 232.3 365.9 L 232.7 365.9 L 233.2 366.0 L 233.7 366.0 L 234.1 366.0 L 234.6 366.0 L 235.1 365.9 L 235.5 366.0 L 236.0 365.9 L 236.5 366.0 L 236.9 366.0 L 237.4 366.0 L 237.9 365.9 L 238.3 366.0 L 238.8 366.0 L 239.2 366.0 L 239.7 365.9 L 240.2 366.0 L 240.7 366.0 L 241.2 366.0 L 241.6 366.0 L 242.1 366.0 L 242.5 366.0 L 243.0 366.0 L 243.5 365.9 L 244.0 366.0 L 244.4 285.8 L 244.9 365.9 L 245.4 365.9 L 245.8 365.9 L 246.3 365.9 L 246.8 365.9 L 247.3 365.9 L 247.7 365.9 L 248.2 365.9 L 248.7 365.9 L 249.1 365.9 L 249.6 365.9 L 250.1 365.9 L 250.6 365.9 L 251.0 365.9 L 251.5 365.9 L 251.9 365.9 L 252.4 365.9 L 252.9 365.9 L 253.4 365.9 L 253.8 365.9 L 254.3 365.9 L 254.8 365.9 L 255.2 365.9 L 255.7 365.9 L 256.2 365.9 L 256.6 365.9 L 257.1 365.9 L 257.6 365.9 L 258.0 365.9 L 258.5 365.9 L 259.0 365.9 L 259.4 365.9 L 259.9 365.9 L 260.4 365.9 L 260.9 365.9 L 261.3 365.9 L 261.8 365.9 L 262.3 365.9 L 262.7 365.9 L 263.2 365.9 L 263.7 365.9 L 264.2 366.0 L 264.6 365.9 L 265.1 366.0 L 265.6 366.0 L 266.0 365.9 L 266.5 365.9 L 267.0 365.9 L 267.4 366.0 L 267.9 365.9 L 268.4 365.9 L 268.8 366.0 L 269.3 365.9 L 269.8 365.9 L 270.2 365.9 L 270.7 365.9 L 271.2 365.9 L 271.6 365.9 L 272.1 366.0 L 272.6 366.0 L 273.1 366.0 L 273.5 366.0 L 274.0 365.9 L 274.5 365.9 L 274.9 366.0 L 275.4 366.0 L 275.9 366.0 L 276.3 366.0 L 276.8 365.9 L 277.3 366.0 L 277.8 366.0 L 278.2 366.0 L 278.7 366.0 L 279.2 365.9 L 279.6 365.9 L 280.1 365.9 L 280.6 365.9 L 281.0 365.9 L 281.5 365.9 L 282.0 365.9 L 282.4 365.9 L 282.9 365.9 L 283.4 365.9 L 283.8 365.9 L 284.3 365.9 L 284.8 365.9 L 285.3 365.9 L 285.7 365.9 L 286.2 365.9 L 286.7 365.9 L 287.2 365.9 L 287.7 365.9 L 288.1 365.9 L 288.6 365.9 L 289.1 365.9 L 289.5 365.9 L 290.0 365.9 L 290.5 365.9 L 290.9 365.9 L 291.4 365.9 L 291.9 365.9 L 292.3 365.9 L 292.8 365.9 L 293.3 365.9 L 293.7 365.9 L 294.2 365.9 L 294.7 365.9 L 295.2 365.9 L 295.6 365.9 L 296.1 366.0 L 296.5 365.9 L 297.0 365.9 L 297.5 365.9 L 298.0 366.0 L 298.4 365.9 L 298.9 366.0 L 299.4 365.9 L 299.8 365.9 L 300.3 366.0 L 300.8 365.9 L 301.2 366.0 L 301.7 365.9 L 302.2 365.9 L 302.6 365.9 L 303.1 365.9 L 303.6 366.0 L 304.0 366.0 L 304.5 366.0 L 305.0 365.9 L 305.4 366.0 L 305.9 366.0 L 306.4 366.0 L 306.8 366.0 L 307.3 366.0 L 307.8 366.0 L 308.3 366.0 L 308.7 365.9 L 309.2 366.0 L 309.7 366.0 L 310.2 366.0 L 310.6 366.0 L 311.1 365.9 L 311.9 366.0 L 312.3 366.0 L 312.8 365.9 L 313.3 365.9 L 313.8 366.0 L 314.2 366.0 L 314.7 366.0 L 315.2 366.0 L 315.6 365.9 L 316.1 365.9 L 316.6 365.9 L 317.0 365.9 L 317.5 365.9 L 317.9 365.9 L 318.4 365.9 L 318.9 365.9 L 319.4 365.9 L 319.8 365.9 L 320.3 365.9 L 320.7 365.9 L 321.2 365.9 L 321.7 365.9 L 322.2 365.9 L 322.6 365.9 L 323.1 365.9 L 323.6 365.9 L 324.0 365.9 L 324.5 365.9 L 325.0 365.9 L 325.4 365.9 L 325.9 365.9 L 326.4 365.9 L 326.8 365.9 L 327.3 365.9 L 327.8 365.9 L 328.2 365.9 L 328.7 365.9 L 329.2 365.9 L 329.6 366.0 L 330.1 366.0 L 330.6 365.9 L 331.0 365.9 L 331.8 365.9 L 332.3 366.0 L 332.8 365.9 L 333.2 366.0 L 333.7 365.9 L 334.2 365.9 L 334.7 365.9 L 335.1 365.9 L 335.6 365.9 L 336.1 366.0 L 336.5 365.9 L 337.0 365.9 L 337.5 366.0 L 337.9 365.9 L 338.4 365.9 L 338.9 366.0 L 339.3 366.0 L 339.8 366.0 L 340.3 366.0 L 340.7 366.0 L 341.2 366.0 L 341.7 365.9 L 342.2 366.0 L 342.6 366.0 L 343.1 365.9 L 343.5 365.9 L 344.0 366.0 L 344.5 366.0 L 345.0 365.9 L 345.5 366.0 L 345.9 366.0 L 346.4 366.0 L 346.9 366.0 L 347.3 366.0 L 347.8 366.0 L 348.3 366.0 L 348.7 366.0 L 349.2 365.9 L 349.7 365.9 L 350.1 365.9 L 350.6 365.9 L 351.1 365.9 L 351.6 366.0 L 352.0 365.9 L 352.5 365.9 L 353.0 365.9 L 353.4 365.9 L 353.9 366.0 L 354.4 365.9 L 354.9 365.9 L 355.4 365.9 L 355.9 365.9 L 356.3 365.9 L 356.8 365.9 L 357.3 365.9 L 357.8 365.9 L 358.3 365.9 L 358.7 365.9 L 359.2 365.9 L 359.7 365.9 L 360.2 365.9 L 360.6 365.9 L 361.1 365.9 L 361.6 365.9 L 362.0 365.9 L 362.5 365.9 L 363.0 365.9 L 363.4 365.9 L 363.9 365.9 L 364.4 365.9 L 364.8 365.9 L 365.3 365.9 L 365.7 365.9 L 366.2 365.9 L 366.7 365.9 L 367.2 365.9 L 367.6 365.9 L 368.1 365.9 L 368.5 365.9 L 369.0 366.0 L 369.5 366.0 L 370.0 365.9 L 370.4 366.0 L 370.9 365.9 L 371.4 365.9 L 371.8 365.9 L 372.3 365.9 L 372.8 366.0 L 373.2 365.9 L 373.7 365.9 L 374.1 365.9 L 374.6 365.9 L 375.1 365.9 L 375.6 366.0 L 376.0 365.9 L 376.5 365.9 L 376.9 366.0 L 377.4 365.9 L 377.9 365.9 L 378.4 365.9 L 378.9 366.0 L 379.4 366.0 L 379.8 366.0 L 380.3 366.0 L 380.8 366.0 L 381.3 365.9 L 381.7 366.0 L 382.2 366.0 L 382.7 366.0 L 383.1 366.0 L 383.6 366.0 L 384.1 365.9 L 384.5 366.0 L 385.0 365.9 L 385.5 366.0 L 385.9 365.9 L 386.4 366.0 L 386.9 366.0 L 387.4 366.0 L 387.8 365.9 L 388.3 366.0 L 388.7 365.9 L 389.2 365.9 L 389.7 365.9 L 390.2 365.9 L 390.7 365.9 L 391.1 365.9 L 391.6 365.9 L 392.1 365.9 L 392.5 365.9 L 393.0 365.9 L 393.5 365.9 L 393.9 365.9 L 394.4 365.9 L 394.8 365.9 L 395.3 365.9 L 395.8 365.9 L 396.2 365.9 L 396.7 365.9 L 397.2 365.9 L 397.7 365.9 L 398.1 365.9 L 398.6 365.9 L 399.1 365.9 L 399.5 365.9 L 400.0 365.9 L 400.5 365.9 L 400.9 365.9 L 401.4 365.9 L 401.9 366.0 L 402.4 366.0 L 402.8 366.0 L 403.3 365.9 L 403.8 366.0 L 404.2 365.9 L 404.7 365.9 L 405.2 365.9 L 405.6 366.0 L 406.1 365.9 L 406.6 366.0 L 407.0 366.0 L 407.5 365.9 L 408.0 366.0 L 408.4 365.9 L 408.9 366.0 L 409.4 366.0 L 409.8 365.9 L 410.3 366.0 L 410.8 366.0 L 411.2 366.0 L 411.7 365.9 L 412.2 365.9 L 412.6 365.9 L 413.1 366.0 L 413.6 365.9 L 414.0 366.0 L 414.5 365.9 L 415.0 365.9 L 415.5 365.9 L 415.9 366.0 L 416.4 366.0 L 416.9 366.0 L 417.3 366.0 L 417.8 366.0 L 418.3 365.9 L 418.7 365.9 L 419.2 366.0 L 419.7 366.0 L 420.2 366.0 L 420.6 366.0 L 421.1 366.0 L 421.6 366.0 L 422.0 366.0 L 422.5 365.9 L 423.0 366.0 L 423.4 365.9 L 423.9 365.9 L 424.4 365.9 L 424.8 365.9 L 425.3 365.9 L 425.8 365.9 L 426.3 365.9 L 426.7 365.9 L 427.2 365.9 L 427.7 366.0 L 428.1 365.9 L 428.6 365.9 L 429.1 365.9 L 429.5 365.9 L 430.0 365.9 L 430.5 365.9 L 430.9 365.9 L 431.4 365.9 L 431.9 365.9 L 432.4 365.9 L 432.8 365.9 L 433.3 365.9 L 433.7 365.9 L 434.2 365.9 L 434.7 365.9 L 435.1 365.9 L 435.6 365.9 L 436.1 365.9 L 436.6 365.9 L 437.1 365.9 L 437.5 365.9 L 438.0 365.9 L 438.4 365.9 L 438.9 365.9 L 439.4 365.9 L 439.9 365.9 L 440.3 365.9 L 440.8 365.9 L 441.3 365.9 L 441.7 365.9 L 442.3 365.9 L 442.7 365.9 L 443.2 366.0 L 443.7 365.9 L 444.1 365.9 L 444.6 366.0 L 445.1 365.9 L 445.6 365.9 L 446.1 366.0 L 446.5 366.0 L 447.0 365.9 L 447.4 366.0 L 447.9 366.0 L 448.4 365.9 L 448.9 365.9 L 449.3 365.9 L 449.8 366.0 L 450.2 366.0 L 450.7 366.0 L 451.2 366.0 L 451.6 366.0 L 452.1 365.9 L 452.6 366.0 L 453.1 366.0 L 453.5 366.0 L 454.0 366.0 L 454.5 366.0 L 454.9 366.0 L 455.4 366.0 L 455.9 365.9 L 456.4 366.0 L 456.8 366.0 L 457.3 366.0 L 457.7 366.0 L 458.2 365.9 L 458.7 365.9 L 459.2 366.0 L 459.6 366.0 L 460.1 365.9 L 460.6 365.9 L 461.0 365.9 L 461.5 365.9 L 462.0 365.9 L 462.5 365.9 L 462.9 365.9 L 463.4 365.9 L 463.9 365.9 L 464.3 365.9 L 464.8 365.9 L 465.3 365.9 L 465.8 365.9 L 466.3 365.9 L 466.7 365.9 L 467.2 365.9 L 467.7 365.9 L 468.1 365.9 L 468.6 365.9 L 469.1 365.9 L 469.5 365.9 L 470.0 365.9 L 470.5 365.9 L 470.9 365.9 L 471.4 365.9 L 471.9 365.9 L 472.4 365.9 L 472.8 366.0 L 473.3 365.9 L 473.8 365.9 L 474.2 365.9 L 474.7 366.0 L 475.2 365.9 L 475.7 365.9 L 476.1 365.9 L 476.6 365.9 L 477.1 366.0 L 477.5 365.9 L 478.0 365.9 L 478.5 366.0 L 478.9 365.9 L 479.4 365.9 L 479.9 365.9 L 480.3 365.9 L 480.8 366.0 L 481.3 365.9 L 481.8 365.9 L 482.2 365.9 L 482.7 365.9 L 483.2 365.9 L 483.6 366.0 L 484.7 366.0 L 485.1 366.0 L 485.6 366.0 L 486.0 365.9 L 486.5 366.0 L 487.0 366.0 L 487.4 366.0 L 487.9 366.0 L 488.4 366.0 L 488.9 366.0 L 489.3 366.0 L 489.8 365.9 L 490.2 366.0 L 490.7 366.0 L 491.2 366.0 L 491.7 366.0 L 492.1 366.0 L 492.6 366.0 L 493.1 365.9 L 493.5 365.9 L 494.0 365.9 L 494.5 365.9 L 494.9 365.9 L 495.4 365.9 L 495.9 365.9 L 496.3 365.9 L 496.8 365.9 L 497.3 365.9 L 497.7 365.9 L 498.2 365.9 L 498.7 365.9 L 499.2 365.9 L 499.6 365.9 L 500.1 365.9 L 500.6 365.9 L 501.0 366.0 L 501.5 365.9 L 502.0 365.9 L 502.5 365.9 L 502.9 365.9 L 503.4 365.9 L 503.9 366.0 L 504.3 365.9 L 504.9 365.9 L 505.4 365.9 L 505.8 365.9 L 506.3 365.9 L 506.8 365.9 L 507.2 365.9 L 507.7 365.9 L 508.2 365.9 L 508.6 365.9 L 509.1 365.9 L 509.6 365.9 L 510.0 365.9 L 510.5 365.9 L 510.9 365.9 L 511.4 365.9 L 511.9 365.9 L 512.4 365.9 L 512.8 365.9 L 513.4 365.9 L 513.9 365.9 L 514.3 366.0 L 514.8 365.9 L 515.2 365.9 L 515.7 365.9 L 516.2 365.9 L 516.6 366.0 L 517.1 366.0 L 517.6 366.0 L 518.1 365.9 L 518.5 365.9 L 519.0 366.0 L 519.5 366.0 L 519.9 365.9 L 520.4 365.9 L 520.9 365.9 L 521.3 365.9 L 521.8 366.0 L 522.3 365.9 L 522.7 365.9 L 523.2 365.9 L 523.7 366.0 L 524.1 366.0 L 524.6 366.0 L 525.1 366.0 L 525.5 366.0 L 526.0 365.9 L 526.5 365.9 L 526.9 366.0 L 527.4 365.9 L 527.9 365.9 L 528.4 366.0 L 528.9 366.0 L 529.3 366.0 L 529.8 365.9 L 530.2 365.9 L 530.7 365.9 L 531.2 365.9 L 531.7 365.9 L 532.2 365.8 L 532.6 365.8 L 533.1 365.8 L 533.6 365.8 L 534.0 365.8 L 534.6 366.0 L 535.0 366.0 L 535.5 366.0 L 535.9 366.0 L 536.4 366.0 L 536.9 366.0 L 537.3 366.0 L 537.9 366.0 L 538.4 366.0 L 538.8 366.0 L 539.3 366.0 L 539.8 366.0 L 540.3 366.0 L 540.7 366.0 L 541.2 366.0 L 541.6 366.0 L 542.1 366.0 L 542.6 366.0 L 543.0 366.0 L 543.5 366.0 L 544.0 366.0 L 544.4 366.0 L 544.9 366.0 L 545.4 366.0 L 545.8 366.0 L 546.3 366.0 L 546.7 366.0 L 547.2 366.0 L 547.7 366.0 L 548.1 366.0 L 548.6 366.0 L 549.1 366.0 L 549.5 366.0 L 550.0 366.0 L 550.4 365.9 L 550.9 365.9 L 551.4 366.0 L 551.8 366.0 L 552.3 366.0 L 552.8 366.0 L 553.2 209.9 L 553.7 252.1 L 554.2 175.2 L 554.7 169.0 L 555.1 366.0 L 555.7 366.0 L 556.1 177.7 L 556.6 178.7 L 557.1 172.6 L 557.7 365.9 L 558.2 365.9 L 558.7 366.0 L 559.1 366.0 L 559.6 366.0 L 560.1 366.0 L 560.5 366.0 L 561.0 366.0 L 561.5 366.0 L 561.9 365.9 L 562.4 365.9 L 562.9 366.0 L 563.3 366.0 L 563.8 366.0 L 564.3 366.0 L 564.7 366.0 L 565.2 366.0 L 565.6 366.0 L 566.1 366.0 L 566.6 366.0 L 567.0 366.0 L 567.5 366.0 L 568.0 366.0 L 568.4 366.0 L 568.9 366.0 L 569.3 365.9 L 569.8 366.0 L 570.3 358.7 L 570.8 176.6 L 571.2 169.5 L 571.7 191.5 L 572.3 366.0 L 572.7 366.0 L 573.2 177.0 L 573.7 177.4 L 574.3 226.8 L 574.8 366.0 L 575.3 366.0 L 575.7 173.3 L 576.3 177.0 L 576.8 172.9 L 577.3 366.0 L 577.7 366.0 L 578.2 177.5 L 578.7 175.8 L 579.2 175.8 L 579.7 366.0 L 580.1 366.0 L 580.6 175.2 L 581.1 151.3 L 581.6 176.5 L 582.1 366.0 L 582.6 366.0 L 583.1 175.2 L 583.5 172.2 L 584.1 177.5 L 584.6 366.0 L 585.0 366.0 L 585.5 73.3 L 586.1 177.3 L 586.7 202.6 L 587.3 366.0 L 587.7 366.0 L 588.2 177.3 L 588.7 161.0 L 589.2 178.4 L 589.7 365.9 L 590.2 365.9 L 590.7 365.9 L 591.1 365.9 L 591.6 365.9 L 592.1 365.9 L 592.5 365.9 L 593.0 365.9 L 593.5 366.0 L 593.9 366.0 L 594.4 366.0 L 594.9 366.0 L 595.4 366.0 L 595.8 366.0 L 596.3 366.0 L 596.8 366.0 L 597.2 147.9 L 597.7 172.5 L 598.3 174.4 L 598.8 366.0 L 599.3 366.0 L 599.7 150.1 L 600.3 177.1 L 600.8 168.0 L 601.3 365.9 L 601.8 365.9 L 602.3 365.9 L 602.8 365.7 L 603.2 365.7 L 603.7 365.8 L 604.2 365.8 L 604.7 365.8 L 605.1 365.8 L 605.6 365.8 L 606.1 365.8 L 606.5 365.8 L 607.0 365.8 L 607.5 365.8 L 607.9 365.8 L 608.4 365.8 L 608.9 365.9 L 609.3 366.0 L 609.8 366.0 L 610.3 366.0 L 610.7 366.0 L 611.2 366.0 L 611.7 366.0 L 612.1 366.0 L 612.6 366.0 L 613.1 366.0 L 613.5 366.0 L 614.0 366.0 L 614.5 366.0 L 614.9 366.0 L 615.4 366.0 L 615.9 366.0 L 616.3 366.0 L 616.8 366.0 L 617.2 366.0 L 617.7 366.0 L 618.2 366.0 L 618.6 366.0 L 619.1 366.0 L 619.6 366.0 L 620.0 366.0 L 620.5 366.0 L 621.0 366.0 L 621.4 366.0 L 621.9 366.0 L 622.4 366.0 L 622.8 366.0 L 623.3 366.0 L 623.8 366.0 L 624.2 366.0 L 624.7 366.0 L 625.1 365.9 L 625.6 366.0 L 626.2 359.6 L 626.7 175.3 L 627.1 121.2 L 627.7 219.6 L 628.2 366.0 L 628.7 366.0 L 629.2 366.0 L 629.6 366.0 L 630.1 366.0 L 630.5 366.0 L 631.0 366.0 L 631.5 366.0 L 631.9 365.9 L 632.4 366.0 L 632.9 366.0 L 633.3 366.0 L 633.8 366.0 L 634.2 366.0 L 634.7 366.0 L 635.2 366.0 L 635.7 366.0 L 636.2 366.0 L 636.6 366.0 L 637.1 366.0 L 637.6 366.0 L 638.0 366.0 L 638.5 366.0 L 638.9 366.0 L 639.4 366.0 L 639.9 175.3 L 640.4 170.6 L 640.9 175.5 L 641.4 366.0 L 641.9 366.0 L 642.3 177.3 L 642.8 175.7 L 643.4 160.1 L 643.9 366.0 L 644.4 366.0 L 644.8 148.6 L 645.3 176.1 L 645.9 148.2 L 646.4 366.0 L 646.9 366.0 L 647.4 176.5 L 647.8 176.6 L 648.3 177.5 L 648.9 366.0 L 649.4 366.0 L 649.8 226.4 L 650.3 170.0 L 650.8 177.1 L 651.3 314.2 L 651.8 366.0 L 652.3 313.3 L 652.7 175.8 L 653.3 174.6 L 653.7 279.9 L 654.3 366.0 L 654.8 339.2 L 655.2 174.2 L 655.7 154.7 L 656.2 223.5 L 656.8 365.9 L 657.2 365.9 L 657.7 365.9 L 658.2 365.9 L 658.6 365.9 L 659.1 365.9 L 659.7 365.9 L 660.1 365.9 L 660.6 366.0 L 661.1 366.0 L 661.5 366.0 L 662.0 366.0 L 662.5 366.0 L 662.9 366.0 L 663.4 366.0 L 663.8 366.0 L 664.3 366.0 L 664.8 366.0 L 665.2 366.0 L 665.7 366.0 L 666.3 366.0 L 666.7 137.0 L 667.3 176.9 L 667.8 144.4 L 668.3 366.0 L 668.8 366.0 L 669.3 175.3 L 669.8 174.1 L 670.2 175.1 L 670.8 366.0 L 671.3 366.0 L 671.7 176.0 L 672.2 126.0 L 672.8 176.2 L 673.3 366.0 L 673.8 366.0 L 674.2 198.1 L 674.7 176.2 L 675.3 176.8 L 675.7 365.9 L 676.3 365.9 L 676.7 365.9 L 677.2 365.9 L 677.6 365.9 L 678.1 365.6 L 678.6 365.8 L 679.1 365.8 L 679.7 365.8 L 680.1 365.8 L 680.6 365.8 L 681.1 365.8 L 681.6 365.8 L 682.1 365.8 L 682.5 365.8 L 683.0 365.8 L 683.5 365.8 L 683.9 365.8 L 684.4 366.0 L 684.9 366.0 L 685.3 366.0 L 685.8 366.0 L 686.3 366.0 L 686.7 366.0 L 687.2 366.0 L 687.7 366.0 L 688.1 366.0 L 688.6 366.0 L 689.1 366.0 L 689.5 365.9 L 690.0 366.0 L 690.5 366.0 L 690.9 366.0 L 691.4 366.0 L 691.8 366.0 L 692.3 366.0 L 692.9 366.0 L 693.3 366.0 L 693.8 366.0 L 694.3 366.0 L 694.7 366.0 L 695.2 366.0 L 695.6 366.0 L 696.1 366.0 L 696.6 366.0 L 697.0 366.0 L 697.5 366.0 L 698.0 366.0 L 698.4 366.0 L 698.9 366.0 L 699.4 366.0 L 699.8 366.0 L 700.3 366.0 L 700.7 366.0 L 701.2 366.0 L 701.7 223.7 L 702.1 173.8 L 702.7 176.7 L 703.2 365.9 L 703.7 366.0 L 704.2 365.9 L 704.7 366.0 L 705.1 366.0 L 705.6 366.0 L 706.1 366.0 L 706.5 366.0 L 707.0 366.0 L 707.5 366.0 L 707.9 366.0 L 708.4 366.0 L 708.9 366.0 L 709.3 366.0 L 709.8 366.0 L 710.3 366.0 L 710.7 366.0 L 711.2 366.0 L 711.7 366.0 L 712.1 366.0 L 712.6 365.9 L 713.0 366.0 L 713.5 366.0 L 714.0 366.0 L 714.4 366.0 L 714.9 366.0 L 715.4 176.1 L 715.8 174.2 L 716.3 172.2 L 716.9 366.0 L 717.4 366.0 L 717.9 177.2 L 718.3 135.3 L 718.9 177.6 L 719.4 366.0 L 719.9 366.0 L 720.3 230.5 L 720.8 173.5 L 721.4 175.6 L 721.9 365.9 L 722.4 366.0 L 722.9 260.8 L 723.3 169.0 L 723.8 105.8 L 724.5 366.0 L 725.0 366.0 L 725.5 210.5 L 726.0 134.2 L 726.5 174.5 L 727.0 365.9 L 727.5 366.0 L 728.0 253.3 L 728.5 173.8 L 729.0 177.2 L 729.5 365.9 L 730.1 366.0 L 730.5 254.5 L 731.0 178.7 L 731.5 128.4 L 732.1 314.0 L 732.5 365.9 L 733.0 365.9 L 733.5 365.9 L 734.0 365.9 L 734.4 365.9 L 734.9 365.9 L 735.4 365.9 L 735.8 365.8 L 736.3 366.0 L 737.3 366.0 L 737.8 366.0 L 738.3 365.9 L 739.1 366.0 L 739.6 366.0 L 740.0 366.0 L 740.5 366.0 L 741.0 366.0 L 741.4 366.0 L 741.9 366.0 L 742.4 227.8 L 742.8 177.0 L 743.4 177.2 L 743.8 354.3 L 744.4 366.0 L 744.9 269.9 L 745.3 176.2 L 745.8 161.0 L 746.3 260.5 L 746.8 366.0 L 747.3 355.8 L 747.8 174.5 L 748.3 173.4 L 748.8 175.7 L 749.3 366.0 L 749.8 366.0 L 750.2 155.4 L 750.8 176.3 L 751.3 172.2 L 751.8 365.9 L 752.3 365.9 L 752.7 365.9 L 753.2 365.9 L 753.7 365.9 L 754.2 365.8 L 754.7 365.8 L 755.1 365.8 L 755.6 365.8 L 756.1 365.8 L 756.5 365.8 L 757.0 365.8 L 757.5 365.8 L 758.0 365.8 L 758.4 365.8 L 758.9 365.8 L 759.3 365.8 L 759.8 365.8 L 760.3 366.0 L 761.5 366.0 L 761.9 366.0 L 762.4 366.0 L 762.9 366.0 L 763.3 366.0 L 763.8 366.0 L 764.2 366.0 L 764.7 366.0 L 765.8 366.0 L 766.3 366.0 L 766.8 366.0 L 767.2 366.0 L 767.7 366.0 L 768.1 366.0 L 768.6 366.0 L 769.1 366.0 L 769.5 366.0 L 770.0 366.0 L 770.5 366.0 L 770.9 366.0 L 771.4 366.0 L 771.9 366.0 L 772.3 366.0 L 772.8 366.0 L 773.3 366.0 L 773.7 366.0 L 774.2 366.0 L 774.7 366.0 L 775.1 366.0 L 775.6 366.0 L 776.0 366.0 L 776.5 365.9 L 777.0 366.0 L 777.5 366.0 L 777.9 174.0 L 778.4 176.4 L 778.9 174.2 L 779.4 365.9 L 779.9 366.0 L 780.3 366.0 L 780.8 366.0 L 781.3 365.9 L 781.7 365.9 L 782.2 366.0 L 782.6 366.0 L 783.1 366.0 L 783.6 366.0 L 784.0 366.0 L 784.5 366.0 L 785.0 366.0 L 785.4 366.0 L 785.9 366.0 L 786.4 366.0 L 786.8 366.0 L 787.3 366.0 L 787.7 366.0 L 788.2 366.0 L 788.7 366.0 L 789.1 366.0 L 789.6 366.0 L 790.1 366.0 L 790.5 366.0 L 791.0 303.6 L 791.5 174.3 L 792.0 157.3 L 792.5 220.3 L 793.0 366.0 L 793.4 366.0 L 793.9 175.4 L 794.4 172.2 L 794.9 175.2 L 795.4 366.0 L 795.9 366.0 L 796.4 160.7 L 796.9 176.0 L 797.4 130.0 L 797.9 366.0 L 798.4 366.0 L 798.9 176.2 L 799.4 177.0 L 799.9 174.5 L 800.4 365.9 L 800.9 366.0 L 801.3 263.5 L 801.8 135.1 L 802.3 176.1 L 802.9 282.0 L 803.3 366.0 L 803.8 331.9 L 804.3 176.3 L 805.0 175.1 L 805.5 324.9 L 806.0 366.0 L 806.4 299.7 L 806.9 176.0 L 807.4 141.7 L 807.9 256.8 L 808.4 365.9 L 808.9 365.9 L 809.4 365.9 L 809.8 365.9 L 810.3 365.9 L 810.8 365.9 L 811.2 365.9 L 811.7 365.6 L 812.2 366.0 L 812.6 366.0 L 813.1 366.0 L 813.6 366.0 L 814.0 366.0 L 814.5 366.0 L 814.9 366.0 L 815.4 366.0 L 815.9 366.0 L 816.3 366.0 L 816.8 366.0 L 817.3 365.9 L 817.7 366.0 L 818.2 358.3 L 818.7 175.5 L 819.2 177.3 L 819.6 176.4 L 820.2 366.0 L 820.6 366.0 L 821.1 177.2 L 821.6 136.9 L 822.1 175.5 L 822.6 366.0 L 823.1 366.0 L 823.6 177.1 L 824.1 172.4 L 824.6 174.6 L 825.1 366.0 L 825.6 366.0 L 826.1 208.5 L 826.6 176.6 L 827.0 129.8 L 827.6 365.5 L 828.1 365.8 L 828.7 365.9 L 829.1 365.9 L 829.6 365.9 L 830.1 365.6 L 830.5 365.8 L 831.0 365.8 L 831.5 365.8 L 831.9 365.8 L 832.4 365.8 L 832.9 365.8 L 833.3 365.8 L 833.8 365.8 L 834.3 365.8 L 834.7 365.8 L 835.2 365.8 L 835.7 365.8 L 836.2 365.8 L 836.6 366.0 L 837.1 366.0 L 837.6 366.0 L 838.0 366.0 L 838.5 366.0 L 838.9 366.0 L 839.4 365.9 L 839.9 366.0 L 840.3 366.0 L 840.8 366.0 L 841.3 366.0 L 841.7 366.0 L 842.2 366.0 L 842.7 366.0 L 843.1 366.0 L 843.6 366.0 L 844.1 366.0 L 844.5 366.0 L 845.0 366.0 L 845.4 366.0 L 845.9 366.0 L 846.4 366.0 L 846.8 366.0 L 847.3 366.0 L 847.8 366.0 L 848.2 366.0 L 848.7 366.0 L 849.1 366.0 L 849.6 366.0 L 850.1 366.0 L 850.5 365.9 L 851.0 365.9 L 851.5 366.0 L 851.9 366.0 L 852.4 365.9 L 852.9 366.0 L 853.3 366.0 L 853.8 175.3 L 854.3 176.8 L 854.8 172.8 L 855.3 365.8 L 855.7 365.8 L 856.2 365.8 L 856.7 365.8 L 857.2 365.8 L 857.6 366.0 L 858.1 366.0 L 858.6 366.0 L 859.0 366.0 L 859.5 366.0 L 860.0 366.0 L 860.4 366.0 L 860.9 366.0 L 861.4 366.0 L 861.8 366.0 L 862.3 366.0 L 862.8 366.0 L 863.2 366.0 L 863.7 366.0 L 864.1 366.0 L 864.6 366.0 L 865.1 366.0 L 865.5 366.0 L 866.0 366.0 L 866.5 366.0 L 866.9 366.0 L 867.4 366.0 L 867.9 366.0 L 868.3 366.0 L 868.8 366.0 L 869.3 366.0 L 869.7 366.0 L 870.2 366.0 L 870.6 366.0 L 871.1 366.0 L 871.6 366.0 L 872.0 366.0 L 872.5 366.0 L 873.0 365.9 L 873.4 365.9 L 873.9 283.5 L 874.4 171.8 L 874.9 174.7 L 875.4 310.9 L 875.9 365.8 L 876.4 365.8 L 876.9 365.8 L 877.3 365.8 L 877.8 366.0 L 878.3 366.0 L 878.7 366.0 L 879.2 366.0 L 879.7 366.0 L 880.1 366.0 L 880.6 366.0 L 881.0 366.0 L 881.5 366.0 L 882.0 366.0 L 882.5 366.0 L 882.9 366.0 L 883.4 366.0 L 883.8 366.0 L 884.3 366.0 L 884.8 366.0 L 885.2 366.0 L 885.7 366.0 L 886.2 366.0 L 886.6 366.0 L 887.1 366.0 L 887.6 366.0 L 888.0 366.0 L 888.5 366.0 L 889.0 366.0 L 889.4 366.0 L 889.9 366.0 L 890.4 366.0 L 890.8 366.0 L 891.3 366.0 L 891.8 366.0 L 892.2 366.0 L 892.7 366.0 L 893.1 366.0 L 893.6 366.0 L 894.1 366.0 L 894.6 176.8 L 895.0 177.3 L 895.5 177.1 L 896.0 365.8 L 896.5 365.8 L 897.0 365.7 L 897.5 365.8 L 897.9 365.8 L 898.4 366.0 L 898.9 366.0 L 899.3 366.0 L 899.8 366.0 L 900.3 366.0 L 900.7 366.0 L 901.2 366.0 L 901.7 366.0 L 902.1 366.0 L 902.6 366.0 L 903.0 366.0 L 903.5 366.0 L 904.0 366.0 L 904.4 366.0 L 904.9 366.0 L 905.4 366.0 L 905.8 366.0 L 906.3 366.0 L 906.7 366.0 L 907.2 366.0 L 907.7 366.0 L 908.1 366.0 L 908.6 366.0 L 909.1 366.0 L 909.5 366.0 L 910.0 366.0 L 910.5 366.0 L 910.9 366.0 L 911.4 366.0 L 911.8 366.0 L 912.3 366.0 L 912.8 366.0 L 913.2 366.0 L 913.7 366.0 L 914.2 366.0 L 914.6 366.0 L 915.1 175.5 L 915.7 177.7 L 916.2 174.0 L 916.7 365.8 L 917.1 365.8 L 917.6 365.8 L 918.1 365.8 L 918.6 365.8 L 919.0 366.0 L 919.5 365.9 L 920.0 365.9 L 920.4 366.0 L 920.9 366.0 L 921.4 366.0 L 921.8 366.0 L 922.3 366.0 L 922.8 366.0 L 923.2 366.0 L 923.7 366.0 L 924.2 366.0 L 924.6 366.0 L 925.1 366.0 L 925.5 366.0 L 926.0 366.0 L 926.5 366.0 L 926.9 366.0 L 927.4 366.0 L 927.9 366.0 L 928.3 366.0 L 928.8 366.0 L 929.3 366.0 L 929.7 366.0 L 930.2 366.0 L 930.7 366.0 L 931.1 366.0 L 931.6 366.0 L 932.1 366.0 L 932.6 366.0 L 933.0 366.0 L 933.5 366.0 L 933.9 366.0 L 934.4 365.9 L 934.9 366.0 L 935.4 335.0 L 935.8 162.1 L 936.3 176.2 L 936.8 233.5 L 937.3 365.8 L 937.8 365.8 L 938.3 365.8 L 938.7 365.8 L 939.2 365.9 L 939.7 366.0 L 940.1 366.0 L 940.6 366.0 L 941.1 366.0 L 941.5 366.0 L 942.0 366.0 L 942.5 365.9 L 942.9 365.9 L 943.4 366.0 L 943.8 366.0 L 944.3 366.0 L 944.8 366.0 L 945.2 366.0 L 945.7 366.0 L 946.2 366.0 L 946.6 366.0 L 947.1 366.0 L 947.5 366.0 L 948.0 366.0 L 948.5 366.0 L 948.9 366.0 L 949.4 366.0 L 949.9 366.0 L 950.3 366.0 L 950.8 366.0 L 951.3 366.0 L 951.7 366.0 L 952.2 366.0 L 952.6 366.0 L 953.1 366.0 L 953.6 366.0 L 954.0 365.9 L 954.5 365.9 L 955.0 365.9 L 955.4 366.0 L 955.9 366.0 L 956.3 174.2 L 956.8 174.9 L 957.4 176.7 L 957.9 365.8 L 958.4 365.8 L 958.8 365.8 L 959.3 365.8 L 959.8 365.8 L 960.3 366.0 L 960.7 366.0 L 961.2 366.0 L 961.6 366.0 L 962.1 366.0 L 962.6 366.0 L 963.1 366.0 L 963.5 366.0 L 964.0 366.0 L 964.4 366.0 L 964.9 366.0 L 965.4 366.0 L 965.8 366.0 L 966.3 366.0 L 966.8 366.0 L 967.2 366.0 L 967.7 366.0 L 968.1 366.0 L 968.6 366.0 L 969.1 366.0 L 969.5 366.0 L 970.0 366.0 L 970.5 366.0 L 970.9 366.0 L 971.4 366.0 L 971.8 366.0 L 972.3 366.0 L 972.8 366.0 L 973.2 366.0 L 973.7 366.0 L 974.2 366.0 L 974.6 366.0 L 975.1 366.0 L 975.6 365.9 L 976.0 366.0 L 976.5 329.4 L 977.0 158.8 L 977.5 98.8 L 978.1 365.8 L 978.7 365.8 L 979.2 365.8 L 979.6 365.8 L 980.1 365.8 L 980.6 366.0 L 981.0 366.0 L 981.5 366.0 L 982.0 366.0 L 982.4 366.0 L 982.9 366.0 L 983.4 366.0 L 983.8 366.0 L 984.3 366.0 L 984.8 366.0 L 985.2 366.0 L 985.7 366.0 L 986.2 366.0 L 986.6 366.0 L 987.1 366.0 L 987.5 366.0 L 988.0 366.0 L 988.5 366.0 L 988.9 365.9 L 989.4 365.9 L 989.9 366.0 L 990.3 366.0 L 990.8 366.0 L 991.2 366.0 L 991.7 366.0 L 992.2 366.0 L 992.6 366.0 L 993.1 366.0 L 993.6 366.0 L 994.0 366.0 L 994.5 366.0 L 994.9 366.0 L 995.4 366.0 L 995.9 366.0 L 996.3 366.0 L 996.8 366.0 L 997.3 170.9 L 997.7 174.5 L 998.3 177.1 L 998.8 365.8 L 999.3 365.8 L 999.8 365.8 L 1000.2 365.8 L 1000.7 365.8 L 1001.2 366.0 L 1001.7 366.0 L 1002.1 366.0 L 1002.6 366.0 L 1003.1 366.0 L 1003.5 366.0 L 1004.0 366.0 L 1004.4 366.0 L 1004.9 366.0 L 1005.4 366.0 L 1005.8 366.0 L 1006.3 366.0 L 1006.8 366.0 L 1007.2 366.0 L 1007.7 366.0 L 1008.1 366.0 L 1008.6 366.0 L 1009.1 366.0 L 1009.5 366.0 L 1010.0 366.0 L 1010.5 366.0 L 1010.9 366.0 L 1011.4 366.0 L 1011.9 365.9 L 1012.3 365.9 L 1012.8 366.0 L 1013.3 366.0 L 1013.7 366.0 L 1014.2 366.0 L 1014.7 366.0 L 1015.1 366.0 L 1015.6 366.0 L 1016.1 366.0 L 1016.5 365.9 L 1017.0 366.0 L 1017.4 338.7 L 1017.9 175.2 L 1018.4 173.9 L 1019.0 264.6 L 1019.4 365.8 L 1019.9 365.8 L 1020.4 365.8 L 1020.9 365.8 L 1021.3 365.9 L 1021.8 366.0 L 1022.3 366.0 L 1022.7 366.0 L 1023.2 366.0 L 1023.7 366.0 L 1024.1 366.0 L 1024.6 366.0 L 1025.1 366.0 L 1025.5 366.0 L 1026.0 366.0 L 1026.4 366.0 L 1026.9 366.0 L 1027.4 366.0 L 1027.8 366.0 L 1028.3 366.0 L 1028.8 366.0 L 1029.2 366.0 L 1029.7 366.0 L 1030.2 366.0 L 1030.6 366.0 L 1031.1 366.0 L 1031.6 366.0 L 1032.0 366.0 L 1032.5 366.0 L 1032.9 366.0 L 1033.4 366.0 L 1033.9 366.0 L 1034.3 366.0 L 1034.8 365.9 L 1035.3 365.9 L 1035.8 366.0 L 1036.2 366.0 L 1036.7 366.0 L 1037.1 365.9 L 1037.6 366.0 L 1038.1 342.6 L 1038.5 174.1 L 1039.0 158.6 L 1039.5 236.4 L 1040.1 365.8 L 1040.6 365.8 L 1041.0 365.8 L 1041.5 365.8 L 1042.0 365.9 L 1042.4 366.0 L 1042.9 366.0 L 1043.4 366.0 L 1043.8 366.0 L 1044.3 366.0 L 1044.8 366.0 L 1045.2 366.0 L 1045.7 366.0 L 1046.1 366.0 L 1046.6 366.0 L 1047.1 366.0 L 1047.5 366.0 L 1048.0 366.0 L 1048.5 366.0 L 1048.9 366.0 L 1049.4 366.0 L 1049.9 366.0 L 1050.3 366.0 L 1050.8 366.0 L 1051.2 366.0 L 1051.7 366.0 L 1052.2 366.0 L 1052.6 366.0 L 1053.1 366.0 L 1053.6 366.0 L 1054.0 366.0 L 1054.5 366.0 L 1055.0 366.0 L 1055.4 366.0 L 1055.9 366.0 L 1056.3 366.0 L 1056.8 366.0 L 1057.3 366.0 L 1057.7 366.0 L 1058.2 365.9 L 1058.7 236.5 L 1059.1 177.8 L 1059.6 176.6 L 1060.1 357.3 L 1060.7 365.8 L 1061.1 365.8 L 1061.6 365.8 L 1062.1 365.8 L 1062.5 366.0 L 1063.0 366.0 L 1063.5 366.0 L 1063.9 366.0 L 1064.4 366.0 L 1064.9 366.0 L 1065.3 366.0 L 1065.8 366.0 L 1066.3 366.0 L 1066.7 366.0 L 1067.2 366.0 L 1067.6 366.0 L 1068.1 366.0 L 1068.6 366.0 L 1069.0 366.0 L 1069.5 366.0 L 1070.0 366.0 L 1070.4 366.0 L 1070.9 366.0 L 1071.4 366.0 L 1071.8 366.0 L 1072.3 366.0 L 1072.8 366.0 L 1073.2 366.0 L 1073.7 366.0 L 1074.1 366.0 L 1074.6 366.0 L 1075.1 366.0 L 1075.5 366.0 L 1076.0 366.0" fill="none" stroke="#F58518" stroke-width="2.8" stroke-linejoin="round" stroke-linecap="round"/>
<line x1="86.0" y1="44.0" x2="86.0" y2="366.0" stroke="#f2f2f2" stroke-width="1"/>
<text x="86.0" y="402" text-anchor="middle" font-size="12" fill="#444" font-family="Helvetica, Arial, sans-serif">0.0</text>
<line x1="251.0" y1="44.0" x2="251.0" y2="366.0" stroke="#f2f2f2" stroke-width="1"/>
<text x="251.0" y="402" text-anchor="middle" font-size="12" fill="#444" font-family="Helvetica, Arial, sans-serif">15.0</text>
<line x1="416.0" y1="44.0" x2="416.0" y2="366.0" stroke="#f2f2f2" stroke-width="1"/>
<text x="416.0" y="402" text-anchor="middle" font-size="12" fill="#444" font-family="Helvetica, Arial, sans-serif">30.1</text>
<line x1="581.0" y1="44.0" x2="581.0" y2="366.0" stroke="#f2f2f2" stroke-width="1"/>
<text x="581.0" y="402" text-anchor="middle" font-size="12" fill="#444" font-family="Helvetica, Arial, sans-serif">45.1</text>
<line x1="746.0" y1="44.0" x2="746.0" y2="366.0" stroke="#f2f2f2" stroke-width="1"/>
<text x="746.0" y="402" text-anchor="middle" font-size="12" fill="#444" font-family="Helvetica, Arial, sans-serif">60.1</text>
<line x1="911.0" y1="44.0" x2="911.0" y2="366.0" stroke="#f2f2f2" stroke-width="1"/>
<text x="911.0" y="402" text-anchor="middle" font-size="12" fill="#444" font-family="Helvetica, Arial, sans-serif">75.1</text>
<line x1="1076.0" y1="44.0" x2="1076.0" y2="366.0" stroke="#f2f2f2" stroke-width="1"/>
<text x="1076.0" y="402" text-anchor="middle" font-size="12" fill="#444" font-family="Helvetica, Arial, sans-serif">90.2</text>
<text x="581.0" y="418" text-anchor="middle" font-size="16" fill="#222" font-family="Helvetica, Arial, sans-serif">time since first request submit (s)</text>
</svg>