<svg xmlns="http://www.w3.org/2000/svg" width="1100" height="420" viewBox="0 0 1100 420">
<rect width="1100" height="420" fill="white"/>
<text x="86" y="26" font-size="22" font-weight="700" font-family="Helvetica, Arial, sans-serif">turn_001_reuse  phase=reuse  turn=1  prompt=25088  peak_tx=3.30 GiB/s  peak_rx=35.53 GiB/s</text>
<line x1="86" y1="366.0" x2="1076" y2="366.0" stroke="#ececec" stroke-width="1"/>
<text x="76" y="370.0" text-anchor="end" font-size="12" fill="#444" font-family="Helvetica, Arial, sans-serif">0.0</text>
<line x1="86" y1="301.6" x2="1076" y2="301.6" stroke="#ececec" stroke-width="1"/>
<text x="76" y="305.6" text-anchor="end" font-size="12" fill="#444" font-family="Helvetica, Arial, sans-serif">7.8</text>
<line x1="86" y1="237.2" x2="1076" y2="237.2" stroke="#ececec" stroke-width="1"/>
<text x="76" y="241.2" text-anchor="end" font-size="12" fill="#444" font-family="Helvetica, Arial, sans-serif">15.6</text>
<line x1="86" y1="172.8" x2="1076" y2="172.8" stroke="#ececec" stroke-width="1"/>
<text x="76" y="176.8" text-anchor="end" font-size="12" fill="#444" font-family="Helvetica, Arial, sans-serif">23.4</text>
<line x1="86" y1="108.4" x2="1076" y2="108.4" stroke="#ececec" stroke-width="1"/>
<text x="76" y="112.4" text-anchor="end" font-size="12" fill="#444" font-family="Helvetica, Arial, sans-serif">31.3</text>
<line x1="86" y1="44.0" x2="1076" y2="44.0" stroke="#ececec" stroke-width="1"/>
<text x="76" y="48.0" text-anchor="end" font-size="12" fill="#444" font-family="Helvetica, Arial, sans-serif">39.1</text>
<line x1="86" y1="366.0" x2="1076" y2="366.0" stroke="#222" stroke-width="1.4"/>
<line x1="86" y1="44.0" x2="86" y2="366.0" stroke="#222" stroke-width="1.4"/>
<rect x="123.6" y="44.0" width="559.7" height="322.0" fill="#F58518" opacity="0.08"/>
<path d="M 86.0 366.0 L 98.4 366.0 L 111.2 366.0 L 123.6 366.0 L 136.0 366.0 L 150.6 366.0 L 163.6 366.0 L 176.3 366.0 L 188.8 366.0 L 201.2 363.3 L 214.5 340.1 L 227.9 339.7 L 242.7 351.3 L 256.3 366.0 L 268.7 365.9 L 281.7 365.9 L 294.2 365.9 L 307.2 365.9 L 319.7 366.0 L 332.4 366.0 L 344.8 366.0 L 357.3 366.0 L 370.0 366.0 L 382.7 366.0 L 395.2 366.0 L 407.6 366.0 L 420.3 366.0 L 432.8 366.0 L 445.2 366.0 L 457.7 366.0 L 470.1 366.0 L 483.4 366.0 L 495.9 366.0 L 508.3 366.0 L 520.7 366.0 L 533.2 366.0 L 545.6 366.0 L 558.0 366.0 L 570.5 366.0 L 583.2 366.0 L 595.7 366.0 L 608.4 366.0 L 621.1 366.0 L 633.6 366.0 L 646.0 365.9 L 658.4 366.0 L 670.9 366.0 L 683.6 366.0 L 696.1 366.0 L 708.5 366.0 L 721.2 366.0 L 733.7 366.0 L 746.1 366.0 L 758.5 366.0 L 771.0 366.0 L 783.7 366.0 L 796.1 366.0 L 809.2 366.0 L 821.9 366.0 L 834.3 366.0 L 846.8 339.7 L 860.1 338.8 L 873.7 339.8 L 886.8 366.0 L 900.1 350.0 L 912.5 365.9 L 925.3 365.9 L 937.7 365.9 L 950.4 365.9 L 962.9 366.0 L 975.6 366.0 L 988.0 366.0 L 1000.5 366.0 L 1012.9 366.0 L 1025.7 366.0 L 1038.1 366.0 L 1050.5 366.0 L 1063.0 366.0 L 1076.0 366.0" fill="none" stroke="#4C78A8" stroke-width="2.8" stroke-linejoin="round" stroke-linecap="round"/>
<path d="M 86.0 366.0 L 98.4 366.0 L 111.2 366.0 L 123.6 366.0 L 136.0 366.0 L 150.6 366.0 L 163.6 366.0 L 176.3 366.0 L 188.8 366.0 L 201.2 121.7 L 214.5 135.8 L 227.9 73.3 L 242.7 365.9 L 256.3 365.7 L 268.7 365.8 L 281.7 365.8 L 294.2 365.8 L 307.2 365.8 L 319.7 366.0 L 332.4 365.9 L 344.8 366.0 L 357.3 366.0 L 370.0 366.0 L 382.7 366.0 L 395.2 366.0 L 407.6 366.0 L 420.3 366.0 L 432.8 366.0 L 445.2 366.0 L 457.7 366.0 L 470.1 366.0 L 483.4 366.0 L 495.9 366.0 L 508.3 366.0 L 520.7 366.0 L 533.2 366.0 L 545.6 366.0 L 558.0 366.0 L 570.5 366.0 L 583.2 366.0 L 595.7 366.0 L 608.4 366.0 L 621.1 366.0 L 633.6 366.0 L 646.0 366.0 L 658.4 366.0 L 670.9 366.0 L 683.6 366.0 L 696.1 366.0 L 708.5 366.0 L 721.2 366.0 L 733.7 366.0 L 746.1 366.0 L 758.5 366.0 L 771.0 366.0 L 783.7 366.0 L 796.1 366.0 L 809.2 365.9 L 821.9 366.0 L 834.3 294.3 L 846.8 139.1 L 860.1 136.5 L 873.7 180.0 L 886.8 365.9 L 900.1 365.8 L 912.5 365.8 L 925.3 365.8 L 937.7 365.7 L 950.4 365.7 L 962.9 366.0 L 975.6 366.0 L 988.0 366.0 L 1000.5 366.0 L 1012.9 366.0 L 1025.7 366.0 L 1038.1 366.0 L 1050.5 366.0 L 1063.0 366.0 L 1076.0 366.0" fill="none" stroke="#F58518" stroke-width="2.8" stroke-linejoin="round" stroke-linecap="round"/>
<line x1="123.6" y1="44.0" x2="123.6" y2="366.0" stroke="#666" stroke-dasharray="4 4" stroke-width="1.2"/>
<text x="123.6" y="402.0" text-anchor="middle" font-size="12" fill="#444" font-family="Helvetica, Arial, sans-serif">submit</text>
<line x1="683.3" y1="44.0" x2="683.3" y2="366.0" stroke="#888" stroke-dasharray="4 4" stroke-width="1.2"/>
<text x="683.3" y="402.0" text-anchor="middle" font-size="12" fill="#444" font-family="Helvetica, Arial, sans-serif">metrics</text>
<line x1="86.0" y1="44.0" x2="86.0" y2="366.0" stroke="#f5f5f5" stroke-width="1"/>
<text x="86.0" y="418.0" text-anchor="middle" font-size="11" fill="#444" font-family="Helvetica, Arial, sans-serif">-0.13</text>
<line x1="209.8" y1="44.0" x2="209.8" y2="366.0" stroke="#f5f5f5" stroke-width="1"/>
<text x="209.8" y="418.0" text-anchor="middle" font-size="11" fill="#444" font-family="Helvetica, Arial, sans-serif">0.29</text>
<line x1="333.5" y1="44.0" x2="333.5" y2="366.0" stroke="#f5f5f5" stroke-width="1"/>
<text x="333.5" y="418.0" text-anchor="middle" font-size="11" fill="#444" font-family="Helvetica, Arial, sans-serif">0.71</text>
<line x1="457.2" y1="44.0" x2="457.2" y2="366.0" stroke="#f5f5f5" stroke-width="1"/>
<text x="457.2" y="418.0" text-anchor="middle" font-size="11" fill="#444" font-family="Helvetica, Arial, sans-serif">1.13</text>
<line x1="581.0" y1="44.0" x2="581.0" y2="366.0" stroke="#f5f5f5" stroke-width="1"/>
<text x="581.0" y="418.0" text-anchor="middle" font-size="11" fill="#444" font-family="Helvetica, Arial, sans-serif">1.54</text>
<line x1="704.8" y1="44.0" x2="704.8" y2="366.0" stroke="#f5f5f5" stroke-width="1"/>
<text x="704.8" y="418.0" text-anchor="middle" font-size="11" fill="#444" font-family="Helvetica, Arial, sans-serif">1.96</text>
<line x1="828.5" y1="44.0" x2="828.5" y2="366.0" stroke="#f5f5f5" stroke-width="1"/>
<text x="828.5" y="418.0" text-anchor="middle" font-size="11" fill="#444" font-family="Helvetica, Arial, sans-serif">2.38</text>
<line x1="952.2" y1="44.0" x2="952.2" y2="366.0" stroke="#f5f5f5" stroke-width="1"/>
<text x="952.2" y="418.0" text-anchor="middle" font-size="11" fill="#444" font-family="Helvetica, Arial, sans-serif">2.80</text>
<line x1="1076.0" y1="44.0" x2="1076.0" y2="366.0" stroke="#f5f5f5" stroke-width="1"/>
<text x="1076.0" y="418.0" text-anchor="middle" font-size="11" fill="#444" font-family="Helvetica, Arial, sans-serif">3.22</text>
<text x="581.0" y="386.0" text-anchor="middle" font-size="15" fill="#222" font-family="Helvetica, Arial, sans-serif">time since request submit (s)</text>
</svg>