<svg xmlns="http://www.w3.org/2000/svg" width="1100" height="420" viewBox="0 0 1100 420">
<rect width="1100" height="420" fill="white"/>
<text x="86" y="26" font-size="22" font-weight="700" font-family="Helvetica, Arial, sans-serif">turn_004_reuse  phase=reuse  turn=4  prompt=25856  peak_tx=4.12 GiB/s  peak_rx=35.76 GiB/s</text>
<line x1="86" y1="366.0" x2="1076" y2="366.0" stroke="#ececec" stroke-width="1"/>
<text x="76" y="370.0" text-anchor="end" font-size="12" fill="#444" font-family="Helvetica, Arial, sans-serif">0.0</text>
<line x1="86" y1="301.6" x2="1076" y2="301.6" stroke="#ececec" stroke-width="1"/>
<text x="76" y="305.6" text-anchor="end" font-size="12" fill="#444" font-family="Helvetica, Arial, sans-serif">7.9</text>
<line x1="86" y1="237.2" x2="1076" y2="237.2" stroke="#ececec" stroke-width="1"/>
<text x="76" y="241.2" text-anchor="end" font-size="12" fill="#444" font-family="Helvetica, Arial, sans-serif">15.7</text>
<line x1="86" y1="172.8" x2="1076" y2="172.8" stroke="#ececec" stroke-width="1"/>
<text x="76" y="176.8" text-anchor="end" font-size="12" fill="#444" font-family="Helvetica, Arial, sans-serif">23.6</text>
<line x1="86" y1="108.4" x2="1076" y2="108.4" stroke="#ececec" stroke-width="1"/>
<text x="76" y="112.4" text-anchor="end" font-size="12" fill="#444" font-family="Helvetica, Arial, sans-serif">31.5</text>
<line x1="86" y1="44.0" x2="1076" y2="44.0" stroke="#ececec" stroke-width="1"/>
<text x="76" y="48.0" text-anchor="end" font-size="12" fill="#444" font-family="Helvetica, Arial, sans-serif">39.3</text>
<line x1="86" y1="366.0" x2="1076" y2="366.0" stroke="#222" stroke-width="1.4"/>
<line x1="86" y1="44.0" x2="86" y2="366.0" stroke="#222" stroke-width="1.4"/>
<rect x="119.7" y="44.0" width="563.5" height="322.0" fill="#F58518" opacity="0.08"/>
<path d="M 86.0 366.0 L 98.3 366.0 L 110.6 366.0 L 122.9 366.0 L 135.2 366.0 L 147.8 366.0 L 160.1 366.0 L 172.4 366.0 L 184.6 366.0 L 196.9 364.9 L 209.8 340.1 L 223.0 332.3 L 238.2 342.3 L 250.8 365.9 L 263.4 356.2 L 276.0 365.9 L 288.3 365.9 L 300.9 365.9 L 313.4 365.9 L 325.7 366.0 L 338.0 366.0 L 350.6 366.0 L 362.9 366.0 L 375.2 366.0 L 387.8 366.0 L 400.1 366.0 L 412.7 366.0 L 425.0 366.0 L 437.3 366.0 L 449.6 366.0 L 461.9 366.0 L 474.2 366.0 L 486.4 366.0 L 499.0 366.0 L 511.3 366.0 L 523.6 366.0 L 535.9 366.0 L 548.2 366.0 L 560.8 366.0 L 573.1 366.0 L 585.4 366.0 L 597.7 366.0 L 610.3 366.0 L 622.6 366.0 L 634.9 366.0 L 647.2 366.0 L 659.5 366.0 L 671.7 366.0 L 684.3 366.0 L 696.6 366.0 L 708.9 366.0 L 721.2 366.0 L 733.5 366.0 L 745.8 366.0 L 758.1 366.0 L 770.4 366.0 L 783.0 366.0 L 795.3 366.0 L 807.6 366.0 L 821.0 366.0 L 833.3 366.0 L 845.6 351.2 L 858.5 338.4 L 874.3 337.7 L 888.9 363.7 L 901.5 353.9 L 914.1 365.9 L 926.4 365.9 L 939.6 365.9 L 952.2 365.9 L 964.5 366.0 L 976.8 366.0 L 989.1 366.0 L 1001.6 366.0 L 1013.9 366.0 L 1026.5 366.0 L 1038.8 366.0 L 1051.1 366.0 L 1063.7 366.0 L 1076.0 366.0" fill="none" stroke="#4C78A8" stroke-width="2.8" stroke-linejoin="round" stroke-linecap="round"/>
<path d="M 86.0 366.0 L 98.3 366.0 L 110.6 366.0 L 122.9 366.0 L 135.2 366.0 L 147.8 366.0 L 160.1 366.0 L 172.4 366.0 L 184.6 366.0 L 196.9 139.4 L 209.8 135.0 L 223.0 131.1 L 238.2 365.9 L 250.8 365.9 L 263.4 365.8 L 276.0 365.8 L 288.3 365.8 L 300.9 365.8 L 313.4 365.8 L 325.7 366.0 L 338.0 366.0 L 350.6 366.0 L 362.9 366.0 L 375.2 366.0 L 387.8 366.0 L 400.1 366.0 L 412.7 366.0 L 425.0 366.0 L 437.3 366.0 L 449.6 366.0 L 461.9 366.0 L 474.2 366.0 L 486.4 366.0 L 499.0 366.0 L 511.3 366.0 L 523.6 366.0 L 535.9 366.0 L 548.2 366.0 L 560.8 365.9 L 573.1 366.0 L 585.4 366.0 L 597.7 366.0 L 610.3 366.0 L 622.6 366.0 L 634.9 366.0 L 647.2 366.0 L 659.5 366.0 L 671.7 366.0 L 684.3 366.0 L 696.6 366.0 L 708.9 366.0 L 721.2 366.0 L 733.5 366.0 L 745.8 366.0 L 758.1 366.0 L 770.4 366.0 L 783.0 366.0 L 795.3 366.0 L 807.6 365.9 L 821.0 366.0 L 833.3 366.0 L 845.6 140.6 L 858.5 73.3 L 874.3 137.0 L 888.9 365.9 L 901.5 365.8 L 914.1 365.8 L 926.4 365.8 L 939.6 365.8 L 952.2 365.8 L 964.5 366.0 L 976.8 366.0 L 989.1 366.0 L 1001.6 366.0 L 1013.9 366.0 L 1026.5 366.0 L 1038.8 366.0 L 1051.1 366.0 L 1063.7 366.0 L 1076.0 366.0" fill="none" stroke="#F58518" stroke-width="2.8" stroke-linejoin="round" stroke-linecap="round"/>
<line x1="119.7" y1="44.0" x2="119.7" y2="366.0" stroke="#666" stroke-dasharray="4 4" stroke-width="1.2"/>
<text x="119.7" y="402.0" text-anchor="middle" font-size="12" fill="#444" font-family="Helvetica, Arial, sans-serif">submit</text>
<line x1="683.2" y1="44.0" x2="683.2" y2="366.0" stroke="#888" stroke-dasharray="4 4" stroke-width="1.2"/>
<text x="683.2" y="402.0" text-anchor="middle" font-size="12" fill="#444" font-family="Helvetica, Arial, sans-serif">metrics</text>
<line x1="86.0" y1="44.0" x2="86.0" y2="366.0" stroke="#f5f5f5" stroke-width="1"/>
<text x="86.0" y="418.0" text-anchor="middle" font-size="11" fill="#444" font-family="Helvetica, Arial, sans-serif">-0.12</text>
<line x1="209.8" y1="44.0" x2="209.8" y2="366.0" stroke="#f5f5f5" stroke-width="1"/>
<text x="209.8" y="418.0" text-anchor="middle" font-size="11" fill="#444" font-family="Helvetica, Arial, sans-serif">0.31</text>
<line x1="333.5" y1="44.0" x2="333.5" y2="366.0" stroke="#f5f5f5" stroke-width="1"/>
<text x="333.5" y="418.0" text-anchor="middle" font-size="11" fill="#444" font-family="Helvetica, Arial, sans-serif">0.73</text>
<line x1="457.2" y1="44.0" x2="457.2" y2="366.0" stroke="#f5f5f5" stroke-width="1"/>
<text x="457.2" y="418.0" text-anchor="middle" font-size="11" fill="#444" font-family="Helvetica, Arial, sans-serif">1.15</text>
<line x1="581.0" y1="44.0" x2="581.0" y2="366.0" stroke="#f5f5f5" stroke-width="1"/>
<text x="581.0" y="418.0" text-anchor="middle" font-size="11" fill="#444" font-family="Helvetica, Arial, sans-serif">1.58</text>
<line x1="704.8" y1="44.0" x2="704.8" y2="366.0" stroke="#f5f5f5" stroke-width="1"/>
<text x="704.8" y="418.0" text-anchor="middle" font-size="11" fill="#444" font-family="Helvetica, Arial, sans-serif">2.00</text>
<line x1="828.5" y1="44.0" x2="828.5" y2="366.0" stroke="#f5f5f5" stroke-width="1"/>
<text x="828.5" y="418.0" text-anchor="middle" font-size="11" fill="#444" font-family="Helvetica, Arial, sans-serif">2.42</text>
<line x1="952.2" y1="44.0" x2="952.2" y2="366.0" stroke="#f5f5f5" stroke-width="1"/>
<text x="952.2" y="418.0" text-anchor="middle" font-size="11" fill="#444" font-family="Helvetica, Arial, sans-serif">2.84</text>
<line x1="1076.0" y1="44.0" x2="1076.0" y2="366.0" stroke="#f5f5f5" stroke-width="1"/>
<text x="1076.0" y="418.0" text-anchor="middle" font-size="11" fill="#444" font-family="Helvetica, Arial, sans-serif">3.27</text>
<text x="581.0" y="386.0" text-anchor="middle" font-size="15" fill="#222" font-family="Helvetica, Arial, sans-serif">time since request submit (s)</text>
</svg>