<svg xmlns="http://www.w3.org/2000/svg" width="1100" height="420" viewBox="0 0 1100 420">
<rect width="1100" height="420" fill="white"/>
<text x="86" y="26" font-size="22" font-weight="700" font-family="Helvetica, Arial, sans-serif">turn_002_reuse  phase=reuse  turn=2  prompt=25344  peak_tx=3.30 GiB/s  peak_rx=32.07 GiB/s</text>
<line x1="86" y1="366.0" x2="1076" y2="366.0" stroke="#ececec" stroke-width="1"/>
<text x="76" y="370.0" text-anchor="end" font-size="12" fill="#444" font-family="Helvetica, Arial, sans-serif">0.0</text>
<line x1="86" y1="301.6" x2="1076" y2="301.6" stroke="#ececec" stroke-width="1"/>
<text x="76" y="305.6" text-anchor="end" font-size="12" fill="#444" font-family="Helvetica, Arial, sans-serif">7.1</text>
<line x1="86" y1="237.2" x2="1076" y2="237.2" stroke="#ececec" stroke-width="1"/>
<text x="76" y="241.2" text-anchor="end" font-size="12" fill="#444" font-family="Helvetica, Arial, sans-serif">14.1</text>
<line x1="86" y1="172.8" x2="1076" y2="172.8" stroke="#ececec" stroke-width="1"/>
<text x="76" y="176.8" text-anchor="end" font-size="12" fill="#444" font-family="Helvetica, Arial, sans-serif">21.2</text>
<line x1="86" y1="108.4" x2="1076" y2="108.4" stroke="#ececec" stroke-width="1"/>
<text x="76" y="112.4" text-anchor="end" font-size="12" fill="#444" font-family="Helvetica, Arial, sans-serif">28.2</text>
<line x1="86" y1="44.0" x2="1076" y2="44.0" stroke="#ececec" stroke-width="1"/>
<text x="76" y="48.0" text-anchor="end" font-size="12" fill="#444" font-family="Helvetica, Arial, sans-serif">35.3</text>
<line x1="86" y1="366.0" x2="1076" y2="366.0" stroke="#222" stroke-width="1.4"/>
<line x1="86" y1="44.0" x2="86" y2="366.0" stroke="#222" stroke-width="1.4"/>
<rect x="126.2" y="44.0" width="559.0" height="322.0" fill="#F58518" opacity="0.08"/>
<path d="M 86.0 366.0 L 98.3 366.0 L 110.6 366.0 L 123.0 366.0 L 135.3 366.0 L 147.9 366.0 L 160.2 366.0 L 173.1 366.0 L 185.8 366.0 L 198.1 366.0 L 210.4 336.9 L 223.6 335.9 L 237.1 337.0 L 250.0 366.0 L 263.2 348.3 L 275.5 365.9 L 288.2 365.9 L 300.5 365.9 L 313.1 365.9 L 325.4 366.0 L 338.0 366.0 L 350.4 366.0 L 362.7 366.0 L 375.0 366.0 L 387.6 366.0 L 400.0 366.0 L 412.3 366.0 L 424.6 366.0 L 437.5 366.0 L 449.8 366.0 L 462.5 366.0 L 474.8 366.0 L 487.1 366.0 L 499.4 366.0 L 511.8 366.0 L 524.1 366.0 L 536.4 366.0 L 549.0 366.0 L 561.6 366.0 L 574.0 366.0 L 586.3 366.0 L 598.6 366.0 L 610.9 366.0 L 623.5 366.0 L 635.9 366.0 L 648.8 366.0 L 661.1 366.0 L 673.4 366.0 L 685.8 366.0 L 699.0 366.0 L 711.3 366.0 L 723.6 366.0 L 736.2 366.0 L 748.5 366.0 L 760.9 366.0 L 773.5 366.0 L 785.8 366.0 L 798.1 366.0 L 810.5 366.0 L 822.8 366.0 L 835.1 366.0 L 848.3 337.5 L 861.2 336.6 L 875.6 336.9 L 889.4 366.0 L 902.0 348.3 L 914.6 365.9 L 926.9 365.9 L 939.6 365.9 L 951.9 365.9 L 964.5 366.0 L 976.8 366.0 L 989.4 366.0 L 1001.8 366.0 L 1014.1 366.0 L 1026.4 366.0 L 1038.7 366.0 L 1051.4 366.0 L 1063.7 366.0 L 1076.0 366.0" fill="none" stroke="#4C78A8" stroke-width="2.8" stroke-linejoin="round" stroke-linecap="round"/>
<path d="M 86.0 366.0 L 98.3 366.0 L 110.6 366.0 L 123.0 366.0 L 135.3 366.0 L 147.9 366.0 L 160.2 366.0 L 173.1 365.9 L 185.8 366.0 L 198.1 286.5 L 210.4 114.6 L 223.6 111.7 L 237.1 160.0 L 250.0 365.9 L 263.2 365.8 L 275.5 365.8 L 288.2 365.8 L 300.5 365.7 L 313.1 365.7 L 325.4 366.0 L 338.0 366.0 L 350.4 366.0 L 362.7 366.0 L 375.0 366.0 L 387.6 366.0 L 400.0 366.0 L 412.3 366.0 L 424.6 366.0 L 437.5 366.0 L 449.8 366.0 L 462.5 366.0 L 474.8 366.0 L 487.1 366.0 L 499.4 366.0 L 511.8 366.0 L 524.1 366.0 L 536.4 366.0 L 549.0 366.0 L 561.6 366.0 L 574.0 366.0 L 586.3 366.0 L 598.6 366.0 L 610.9 366.0 L 623.5 365.9 L 635.9 366.0 L 648.8 366.0 L 661.1 366.0 L 673.4 366.0 L 685.8 366.0 L 699.0 366.0 L 711.3 366.0 L 723.6 366.0 L 736.2 366.0 L 748.5 366.0 L 760.9 366.0 L 773.5 366.0 L 785.8 366.0 L 798.1 366.0 L 810.5 365.9 L 822.8 366.0 L 835.1 295.7 L 848.3 113.8 L 861.2 73.3 L 875.6 201.3 L 889.4 365.9 L 902.0 365.8 L 914.6 365.7 L 926.9 365.7 L 939.6 365.8 L 951.9 365.8 L 964.5 366.0 L 976.8 366.0 L 989.4 366.0 L 1001.8 366.0 L 1014.1 366.0 L 1026.4 366.0 L 1038.7 366.0 L 1051.4 366.0 L 1063.7 366.0 L 1076.0 366.0" fill="none" stroke="#F58518" stroke-width="2.8" stroke-linejoin="round" stroke-linecap="round"/>
<line x1="126.2" y1="44.0" x2="126.2" y2="366.0" stroke="#666" stroke-dasharray="4 4" stroke-width="1.2"/>
<text x="126.2" y="402.0" text-anchor="middle" font-size="12" fill="#444" font-family="Helvetica, Arial, sans-serif">submit</text>
<line x1="685.2" y1="44.0" x2="685.2" y2="366.0" stroke="#888" stroke-dasharray="4 4" stroke-width="1.2"/>
<text x="685.2" y="402.0" text-anchor="middle" font-size="12" fill="#444" font-family="Helvetica, Arial, sans-serif">metrics</text>
<line x1="86.0" y1="44.0" x2="86.0" y2="366.0" stroke="#f5f5f5" stroke-width="1"/>
<text x="86.0" y="418.0" text-anchor="middle" font-size="11" fill="#444" font-family="Helvetica, Arial, sans-serif">-0.14</text>
<line x1="209.8" y1="44.0" x2="209.8" y2="366.0" stroke="#f5f5f5" stroke-width="1"/>
<text x="209.8" y="418.0" text-anchor="middle" font-size="11" fill="#444" font-family="Helvetica, Arial, sans-serif">0.28</text>
<line x1="333.5" y1="44.0" x2="333.5" y2="366.0" stroke="#f5f5f5" stroke-width="1"/>
<text x="333.5" y="418.0" text-anchor="middle" font-size="11" fill="#444" font-family="Helvetica, Arial, sans-serif">0.71</text>
<line x1="457.2" y1="44.0" x2="457.2" y2="366.0" stroke="#f5f5f5" stroke-width="1"/>
<text x="457.2" y="418.0" text-anchor="middle" font-size="11" fill="#444" font-family="Helvetica, Arial, sans-serif">1.13</text>
<line x1="581.0" y1="44.0" x2="581.0" y2="366.0" stroke="#f5f5f5" stroke-width="1"/>
<text x="581.0" y="418.0" text-anchor="middle" font-size="11" fill="#444" font-family="Helvetica, Arial, sans-serif">1.55</text>
<line x1="704.8" y1="44.0" x2="704.8" y2="366.0" stroke="#f5f5f5" stroke-width="1"/>
<text x="704.8" y="418.0" text-anchor="middle" font-size="11" fill="#444" font-family="Helvetica, Arial, sans-serif">1.97</text>
<line x1="828.5" y1="44.0" x2="828.5" y2="366.0" stroke="#f5f5f5" stroke-width="1"/>
<text x="828.5" y="418.0" text-anchor="middle" font-size="11" fill="#444" font-family="Helvetica, Arial, sans-serif">2.39</text>
<line x1="952.2" y1="44.0" x2="952.2" y2="366.0" stroke="#f5f5f5" stroke-width="1"/>
<text x="952.2" y="418.0" text-anchor="middle" font-size="11" fill="#444" font-family="Helvetica, Arial, sans-serif">2.82</text>
<line x1="1076.0" y1="44.0" x2="1076.0" y2="366.0" stroke="#f5f5f5" stroke-width="1"/>
<text x="1076.0" y="418.0" text-anchor="middle" font-size="11" fill="#444" font-family="Helvetica, Arial, sans-serif">3.24</text>
<text x="581.0" y="386.0" text-anchor="middle" font-size="15" fill="#222" font-family="Helvetica, Arial, sans-serif">time since request submit (s)</text>
</svg>