<svg xmlns="http://www.w3.org/2000/svg" width="1100" height="420" viewBox="0 0 1100 420">
<rect width="1100" height="420" fill="white"/>
<text x="86" y="26" font-size="22" font-weight="700" font-family="Helvetica, Arial, sans-serif">tb_session_02_turn_000_seed  phase=seed  turn=0  prompt=24576  peak_tx=3.63 GiB/s  peak_rx=28.45 GiB/s</text>
<line x1="86" y1="366.0" x2="1076" y2="366.0" stroke="#ececec" stroke-width="1"/>
<text x="76" y="370.0" text-anchor="end" font-size="12" fill="#444" font-family="Helvetica, Arial, sans-serif">0.0</text>
<line x1="86" y1="301.6" x2="1076" y2="301.6" stroke="#ececec" stroke-width="1"/>
<text x="76" y="305.6" text-anchor="end" font-size="12" fill="#444" font-family="Helvetica, Arial, sans-serif">6.3</text>
<line x1="86" y1="237.2" x2="1076" y2="237.2" stroke="#ececec" stroke-width="1"/>
<text x="76" y="241.2" text-anchor="end" font-size="12" fill="#444" font-family="Helvetica, Arial, sans-serif">12.5</text>
<line x1="86" y1="172.8" x2="1076" y2="172.8" stroke="#ececec" stroke-width="1"/>
<text x="76" y="176.8" text-anchor="end" font-size="12" fill="#444" font-family="Helvetica, Arial, sans-serif">18.8</text>
<line x1="86" y1="108.4" x2="1076" y2="108.4" stroke="#ececec" stroke-width="1"/>
<text x="76" y="112.4" text-anchor="end" font-size="12" fill="#444" font-family="Helvetica, Arial, sans-serif">25.0</text>
<line x1="86" y1="44.0" x2="1076" y2="44.0" stroke="#ececec" stroke-width="1"/>
<text x="76" y="48.0" text-anchor="end" font-size="12" fill="#444" font-family="Helvetica, Arial, sans-serif">31.3</text>
<line x1="86" y1="366.0" x2="1076" y2="366.0" stroke="#222" stroke-width="1.4"/>
<line x1="86" y1="44.0" x2="86" y2="366.0" stroke="#222" stroke-width="1.4"/>
<rect x="129.4" y="44.0" width="547.8" height="322.0" fill="#4C78A8" opacity="0.08"/>
<path d="M 86.0 366.0 L 98.8 366.0 L 111.3 366.0 L 123.7 366.0 L 136.2 366.0 L 148.7 366.0 L 161.2 366.0 L 174.0 366.0 L 186.8 366.0 L 199.2 366.0 L 212.3 333.9 L 227.2 333.2 L 240.5 333.4 L 253.9 365.9 L 266.4 365.9 L 279.2 365.9 L 291.7 365.9 L 304.4 365.9 L 317.8 366.0 L 330.3 366.0 L 342.8 366.0 L 355.3 366.0 L 367.8 366.0 L 380.2 366.0 L 392.7 366.0 L 406.1 366.0 L 418.6 366.0 L 431.1 366.0 L 443.5 366.0 L 456.0 366.0 L 468.5 366.0 L 481.0 366.0 L 493.5 366.0 L 506.3 365.9 L 519.3 365.9 L 531.8 366.0 L 544.3 366.0 L 556.8 366.0 L 569.6 366.0 L 582.0 366.0 L 594.5 366.0 L 607.0 366.0 L 620.1 366.0 L 632.6 366.0 L 645.0 366.0 L 657.5 366.0 L 670.0 366.0 L 682.5 366.0 L 695.0 366.0 L 707.8 366.0 L 720.2 366.0 L 733.3 366.0 L 745.8 366.0 L 758.3 366.0 L 771.1 332.6 L 784.4 328.7 L 798.7 336.6 L 811.5 365.9 L 824.3 365.9 L 837.0 365.9 L 849.5 365.9 L 862.3 365.9 L 875.4 366.0 L 888.2 366.0 L 900.6 366.0 L 913.1 366.0 L 925.9 366.0 L 938.4 366.0 L 950.9 366.0 L 963.4 366.0 L 975.8 366.0 L 988.3 366.0 L 1000.8 366.0 L 1013.6 366.0 L 1026.1 366.0 L 1038.6 366.0 L 1051.0 366.0 L 1063.5 366.0 L 1076.0 366.0" fill="none" stroke="#4C78A8" stroke-width="2.8" stroke-linejoin="round" stroke-linecap="round"/>
<path d="M 86.0 366.0 L 98.8 366.0 L 111.3 366.0 L 123.7 366.0 L 136.2 366.0 L 148.7 366.0 L 161.2 366.0 L 174.0 365.9 L 186.8 365.9 L 199.2 241.7 L 212.3 73.3 L 227.2 77.7 L 240.5 282.9 L 253.9 365.7 L 266.4 365.7 L 279.2 365.7 L 291.7 365.7 L 304.4 366.0 L 317.8 366.0 L 330.3 366.0 L 342.8 366.0 L 355.3 366.0 L 367.8 366.0 L 380.2 366.0 L 392.7 366.0 L 406.1 366.0 L 418.6 366.0 L 431.1 366.0 L 443.5 366.0 L 456.0 366.0 L 468.5 366.0 L 481.0 366.0 L 493.5 366.0 L 506.3 366.0 L 519.3 366.0 L 531.8 366.0 L 544.3 366.0 L 556.8 366.0 L 569.6 366.0 L 582.0 366.0 L 594.5 366.0 L 607.0 366.0 L 620.1 366.0 L 632.6 366.0 L 645.0 366.0 L 657.5 366.0 L 670.0 366.0 L 682.5 366.0 L 695.0 366.0 L 707.8 366.0 L 720.2 366.0 L 733.3 366.0 L 745.8 366.0 L 758.3 80.8 L 771.1 81.7 L 784.4 81.3 L 798.7 365.7 L 811.5 365.7 L 824.3 365.6 L 837.0 365.7 L 849.5 365.7 L 862.3 366.0 L 875.4 366.0 L 888.2 366.0 L 900.6 366.0 L 913.1 366.0 L 925.9 366.0 L 938.4 366.0 L 950.9 366.0 L 963.4 366.0 L 975.8 366.0 L 988.3 366.0 L 1000.8 366.0 L 1013.6 366.0 L 1026.1 366.0 L 1038.6 366.0 L 1051.0 366.0 L 1063.5 366.0 L 1076.0 366.0" fill="none" stroke="#F58518" stroke-width="2.8" stroke-linejoin="round" stroke-linecap="round"/>
<line x1="129.4" y1="44.0" x2="129.4" y2="366.0" stroke="#666" stroke-dasharray="4 4" stroke-width="1.2"/>
<text x="129.4" y="402.0" text-anchor="middle" font-size="12" fill="#444" font-family="Helvetica, Arial, sans-serif">submit</text>
<line x1="677.1" y1="44.0" x2="677.1" y2="366.0" stroke="#888" stroke-dasharray="4 4" stroke-width="1.2"/>
<text x="677.1" y="402.0" text-anchor="middle" font-size="12" fill="#444" font-family="Helvetica, Arial, sans-serif">metrics</text>
<line x1="86.0" y1="44.0" x2="86.0" y2="366.0" stroke="#f5f5f5" stroke-width="1"/>
<text x="86.0" y="418.0" text-anchor="middle" font-size="11" fill="#444" font-family="Helvetica, Arial, sans-serif">-0.15</text>
<line x1="209.8" y1="44.0" x2="209.8" y2="366.0" stroke="#f5f5f5" stroke-width="1"/>
<text x="209.8" y="418.0" text-anchor="middle" font-size="11" fill="#444" font-family="Helvetica, Arial, sans-serif">0.27</text>
<line x1="333.5" y1="44.0" x2="333.5" y2="366.0" stroke="#f5f5f5" stroke-width="1"/>
<text x="333.5" y="418.0" text-anchor="middle" font-size="11" fill="#444" font-family="Helvetica, Arial, sans-serif">0.69</text>
<line x1="457.2" y1="44.0" x2="457.2" y2="366.0" stroke="#f5f5f5" stroke-width="1"/>
<text x="457.2" y="418.0" text-anchor="middle" font-size="11" fill="#444" font-family="Helvetica, Arial, sans-serif">1.10</text>
<line x1="581.0" y1="44.0" x2="581.0" y2="366.0" stroke="#f5f5f5" stroke-width="1"/>
<text x="581.0" y="418.0" text-anchor="middle" font-size="11" fill="#444" font-family="Helvetica, Arial, sans-serif">1.52</text>
<line x1="704.8" y1="44.0" x2="704.8" y2="366.0" stroke="#f5f5f5" stroke-width="1"/>
<text x="704.8" y="418.0" text-anchor="middle" font-size="11" fill="#444" font-family="Helvetica, Arial, sans-serif">1.94</text>
<line x1="828.5" y1="44.0" x2="828.5" y2="366.0" stroke="#f5f5f5" stroke-width="1"/>
<text x="828.5" y="418.0" text-anchor="middle" font-size="11" fill="#444" font-family="Helvetica, Arial, sans-serif">2.35</text>
<line x1="952.2" y1="44.0" x2="952.2" y2="366.0" stroke="#f5f5f5" stroke-width="1"/>
<text x="952.2" y="418.0" text-anchor="middle" font-size="11" fill="#444" font-family="Helvetica, Arial, sans-serif">2.77</text>
<line x1="1076.0" y1="44.0" x2="1076.0" y2="366.0" stroke="#f5f5f5" stroke-width="1"/>
<text x="1076.0" y="418.0" text-anchor="middle" font-size="11" fill="#444" font-family="Helvetica, Arial, sans-serif">3.19</text>
<text x="581.0" y="386.0" text-anchor="middle" font-size="15" fill="#222" font-family="Helvetica, Arial, sans-serif">time since request submit (s)</text>
</svg>