<svg xmlns="http://www.w3.org/2000/svg" width="1100" height="420" viewBox="0 0 1100 420">
<rect width="1100" height="420" fill="white"/>
<text x="86" y="26" font-size="22" font-weight="700" font-family="Helvetica, Arial, sans-serif">tb_session_10_turn_000_seed  phase=seed  turn=0  prompt=24576  peak_tx=3.66 GiB/s  peak_rx=30.39 GiB/s</text>
<line x1="86" y1="366.0" x2="1076" y2="366.0" stroke="#ececec" stroke-width="1"/>
<text x="76" y="370.0" text-anchor="end" font-size="12" fill="#444" font-family="Helvetica, Arial, sans-serif">0.0</text>
<line x1="86" y1="301.6" x2="1076" y2="301.6" stroke="#ececec" stroke-width="1"/>
<text x="76" y="305.6" text-anchor="end" font-size="12" fill="#444" font-family="Helvetica, Arial, sans-serif">6.7</text>
<line x1="86" y1="237.2" x2="1076" y2="237.2" stroke="#ececec" stroke-width="1"/>
<text x="76" y="241.2" text-anchor="end" font-size="12" fill="#444" font-family="Helvetica, Arial, sans-serif">13.4</text>
<line x1="86" y1="172.8" x2="1076" y2="172.8" stroke="#ececec" stroke-width="1"/>
<text x="76" y="176.8" text-anchor="end" font-size="12" fill="#444" font-family="Helvetica, Arial, sans-serif">20.1</text>
<line x1="86" y1="108.4" x2="1076" y2="108.4" stroke="#ececec" stroke-width="1"/>
<text x="76" y="112.4" text-anchor="end" font-size="12" fill="#444" font-family="Helvetica, Arial, sans-serif">26.7</text>
<line x1="86" y1="44.0" x2="1076" y2="44.0" stroke="#ececec" stroke-width="1"/>
<text x="76" y="48.0" text-anchor="end" font-size="12" fill="#444" font-family="Helvetica, Arial, sans-serif">33.4</text>
<line x1="86" y1="366.0" x2="1076" y2="366.0" stroke="#222" stroke-width="1.4"/>
<line x1="86" y1="44.0" x2="86" y2="366.0" stroke="#222" stroke-width="1.4"/>
<rect x="127.6" y="44.0" width="552.1" height="322.0" fill="#4C78A8" opacity="0.08"/>
<path d="M 86.0 366.0 L 98.5 366.0 L 111.0 366.0 L 124.6 366.0 L 137.1 366.0 L 149.6 366.0 L 162.1 366.0 L 174.6 366.0 L 187.1 366.0 L 199.6 366.0 L 212.6 335.6 L 226.0 335.3 L 239.7 335.1 L 253.7 365.9 L 267.1 365.9 L 280.1 365.9 L 292.6 365.9 L 305.4 365.9 L 317.9 366.0 L 330.7 366.0 L 343.2 366.0 L 355.6 366.0 L 368.1 366.0 L 380.9 366.0 L 393.4 366.0 L 405.9 366.0 L 418.4 366.0 L 430.9 365.9 L 443.6 365.9 L 456.1 366.0 L 468.6 366.0 L 481.1 366.0 L 493.6 366.0 L 506.4 366.0 L 518.9 366.0 L 531.4 366.0 L 543.8 366.0 L 556.3 366.0 L 568.8 366.0 L 581.3 366.0 L 594.1 366.0 L 606.6 366.0 L 619.1 366.0 L 631.5 366.0 L 644.0 366.0 L 656.8 366.0 L 669.3 366.0 L 681.8 366.0 L 694.3 366.0 L 707.1 366.0 L 719.5 366.0 L 732.0 366.0 L 744.5 365.9 L 757.0 366.0 L 769.5 334.4 L 783.2 335.4 L 796.2 330.8 L 811.4 365.9 L 823.9 365.9 L 836.7 365.9 L 849.2 365.9 L 862.2 365.9 L 875.3 366.0 L 887.8 366.0 L 900.3 366.0 L 912.8 366.0 L 925.3 366.0 L 937.8 366.0 L 950.2 366.0 L 963.0 366.0 L 975.5 366.0 L 988.0 366.0 L 1000.5 366.0 L 1013.0 366.0 L 1025.8 366.0 L 1038.2 366.0 L 1050.7 365.9 L 1063.5 365.9 L 1076.0 366.0" fill="none" stroke="#4C78A8" stroke-width="2.8" stroke-linejoin="round" stroke-linecap="round"/>
<path d="M 86.0 366.0 L 98.5 366.0 L 111.0 365.9 L 124.6 365.9 L 137.1 366.0 L 149.6 366.0 L 162.1 366.0 L 174.6 365.9 L 187.1 366.0 L 199.6 333.0 L 212.6 95.2 L 226.0 73.3 L 239.7 183.1 L 253.7 365.7 L 267.1 365.7 L 280.1 365.7 L 292.6 365.7 L 305.4 365.9 L 317.9 366.0 L 330.7 366.0 L 343.2 366.0 L 355.6 366.0 L 368.1 366.0 L 380.9 366.0 L 393.4 366.0 L 405.9 366.0 L 418.4 366.0 L 430.9 366.0 L 443.6 366.0 L 456.1 366.0 L 468.6 366.0 L 481.1 366.0 L 493.6 366.0 L 506.4 366.0 L 518.9 366.0 L 531.4 366.0 L 543.8 366.0 L 556.3 366.0 L 568.8 366.0 L 581.3 366.0 L 594.1 366.0 L 606.6 366.0 L 619.1 366.0 L 631.5 366.0 L 644.0 366.0 L 656.8 366.0 L 669.3 366.0 L 681.8 366.0 L 694.3 366.0 L 707.1 366.0 L 719.5 366.0 L 732.0 365.9 L 744.5 365.9 L 757.0 183.3 L 769.5 100.4 L 783.2 98.7 L 796.2 353.7 L 811.4 365.7 L 823.9 365.8 L 836.7 365.7 L 849.2 365.7 L 862.2 366.0 L 875.3 366.0 L 887.8 366.0 L 900.3 366.0 L 912.8 366.0 L 925.3 366.0 L 937.8 366.0 L 950.2 366.0 L 963.0 366.0 L 975.5 366.0 L 988.0 366.0 L 1000.5 366.0 L 1013.0 366.0 L 1025.8 366.0 L 1038.2 366.0 L 1050.7 366.0 L 1063.5 366.0 L 1076.0 366.0" fill="none" stroke="#F58518" stroke-width="2.8" stroke-linejoin="round" stroke-linecap="round"/>
<line x1="127.6" y1="44.0" x2="127.6" y2="366.0" stroke="#666" stroke-dasharray="4 4" stroke-width="1.2"/>
<text x="127.6" y="402.0" text-anchor="middle" font-size="12" fill="#444" font-family="Helvetica, Arial, sans-serif">submit</text>
<line x1="679.7" y1="44.0" x2="679.7" y2="366.0" stroke="#888" stroke-dasharray="4 4" stroke-width="1.2"/>
<text x="679.7" y="402.0" text-anchor="middle" font-size="12" fill="#444" font-family="Helvetica, Arial, sans-serif">metrics</text>
<line x1="86.0" y1="44.0" x2="86.0" y2="366.0" stroke="#f5f5f5" stroke-width="1"/>
<text x="86.0" y="418.0" text-anchor="middle" font-size="11" fill="#444" font-family="Helvetica, Arial, sans-serif">-0.14</text>
<line x1="209.8" y1="44.0" x2="209.8" y2="366.0" stroke="#f5f5f5" stroke-width="1"/>
<text x="209.8" y="418.0" text-anchor="middle" font-size="11" fill="#444" font-family="Helvetica, Arial, sans-serif">0.28</text>
<line x1="333.5" y1="44.0" x2="333.5" y2="366.0" stroke="#f5f5f5" stroke-width="1"/>
<text x="333.5" y="418.0" text-anchor="middle" font-size="11" fill="#444" font-family="Helvetica, Arial, sans-serif">0.69</text>
<line x1="457.3" y1="44.0" x2="457.3" y2="366.0" stroke="#f5f5f5" stroke-width="1"/>
<text x="457.3" y="418.0" text-anchor="middle" font-size="11" fill="#444" font-family="Helvetica, Arial, sans-serif">1.11</text>
<line x1="581.0" y1="44.0" x2="581.0" y2="366.0" stroke="#f5f5f5" stroke-width="1"/>
<text x="581.0" y="418.0" text-anchor="middle" font-size="11" fill="#444" font-family="Helvetica, Arial, sans-serif">1.52</text>
<line x1="704.7" y1="44.0" x2="704.7" y2="366.0" stroke="#f5f5f5" stroke-width="1"/>
<text x="704.7" y="418.0" text-anchor="middle" font-size="11" fill="#444" font-family="Helvetica, Arial, sans-serif">1.94</text>
<line x1="828.5" y1="44.0" x2="828.5" y2="366.0" stroke="#f5f5f5" stroke-width="1"/>
<text x="828.5" y="418.0" text-anchor="middle" font-size="11" fill="#444" font-family="Helvetica, Arial, sans-serif">2.36</text>
<line x1="952.3" y1="44.0" x2="952.3" y2="366.0" stroke="#f5f5f5" stroke-width="1"/>
<text x="952.3" y="418.0" text-anchor="middle" font-size="11" fill="#444" font-family="Helvetica, Arial, sans-serif">2.77</text>
<line x1="1076.0" y1="44.0" x2="1076.0" y2="366.0" stroke="#f5f5f5" stroke-width="1"/>
<text x="1076.0" y="418.0" text-anchor="middle" font-size="11" fill="#444" font-family="Helvetica, Arial, sans-serif">3.19</text>
<text x="581.0" y="386.0" text-anchor="middle" font-size="15" fill="#222" font-family="Helvetica, Arial, sans-serif">time since request submit (s)</text>
</svg>