<svg xmlns="http://www.w3.org/2000/svg" width="1100" height="420" viewBox="0 0 1100 420">
<rect width="1100" height="420" fill="white"/>
<text x="86" y="26" font-size="22" font-weight="700" font-family="Helvetica, Arial, sans-serif">tb_session_11_turn_004_reuse  phase=reuse  turn=4  prompt=25600  peak_tx=7.83 GiB/s  peak_rx=38.12 GiB/s</text>
<line x1="86" y1="366.0" x2="1076" y2="366.0" stroke="#ececec" stroke-width="1"/>
<text x="76" y="370.0" text-anchor="end" font-size="12" fill="#444" font-family="Helvetica, Arial, sans-serif">0.0</text>
<line x1="86" y1="301.6" x2="1076" y2="301.6" stroke="#ececec" stroke-width="1"/>
<text x="76" y="305.6" text-anchor="end" font-size="12" fill="#444" font-family="Helvetica, Arial, sans-serif">8.4</text>
<line x1="86" y1="237.2" x2="1076" y2="237.2" stroke="#ececec" stroke-width="1"/>
<text x="76" y="241.2" text-anchor="end" font-size="12" fill="#444" font-family="Helvetica, Arial, sans-serif">16.8</text>
<line x1="86" y1="172.8" x2="1076" y2="172.8" stroke="#ececec" stroke-width="1"/>
<text x="76" y="176.8" text-anchor="end" font-size="12" fill="#444" font-family="Helvetica, Arial, sans-serif">25.2</text>
<line x1="86" y1="108.4" x2="1076" y2="108.4" stroke="#ececec" stroke-width="1"/>
<text x="76" y="112.4" text-anchor="end" font-size="12" fill="#444" font-family="Helvetica, Arial, sans-serif">33.5</text>
<line x1="86" y1="44.0" x2="1076" y2="44.0" stroke="#ececec" stroke-width="1"/>
<text x="76" y="48.0" text-anchor="end" font-size="12" fill="#444" font-family="Helvetica, Arial, sans-serif">41.9</text>
<line x1="86" y1="366.0" x2="1076" y2="366.0" stroke="#222" stroke-width="1.4"/>
<line x1="86" y1="44.0" x2="86" y2="366.0" stroke="#222" stroke-width="1.4"/>
<rect x="99.1" y="44.0" width="819.3" height="322.0" fill="#F58518" opacity="0.08"/>
<path d="M 86.0 366.0 L 91.0 366.0 L 96.0 366.0 L 101.0 366.0 L 106.0 366.0 L 111.2 366.0 L 116.2 366.0 L 121.2 365.9 L 126.2 365.9 L 131.3 366.0 L 136.3 338.6 L 142.4 341.6 L 147.6 335.3 L 153.6 366.0 L 158.6 366.0 L 163.6 351.2 L 168.7 366.0 L 174.0 366.0 L 179.1 366.0 L 184.1 366.0 L 189.1 366.0 L 194.1 366.0 L 199.2 366.0 L 204.3 366.0 L 209.3 366.0 L 214.4 366.0 L 219.4 366.0 L 224.5 366.0 L 229.6 366.0 L 234.6 366.0 L 239.6 366.0 L 244.6 366.0 L 249.6 366.0 L 254.6 366.0 L 259.8 366.0 L 264.9 366.0 L 269.9 366.0 L 274.9 366.0 L 280.0 358.3 L 285.1 341.7 L 290.5 339.7 L 296.9 353.5 L 302.1 366.0 L 307.1 365.2 L 312.3 341.6 L 318.0 341.3 L 323.6 343.2 L 328.9 366.0 L 334.0 366.0 L 339.1 338.0 L 345.3 341.7 L 350.7 338.4 L 356.4 366.0 L 361.4 366.0 L 366.6 341.6 L 371.9 341.4 L 379.2 348.9 L 384.9 366.0 L 389.9 366.0 L 394.9 341.6 L 400.8 341.3 L 406.7 341.5 L 412.0 366.0 L 417.1 366.0 L 422.1 336.4 L 428.4 341.2 L 433.8 340.6 L 439.8 366.0 L 444.8 366.0 L 449.8 341.5 L 455.1 341.3 L 461.1 341.6 L 466.5 366.0 L 471.6 366.0 L 477.0 366.0 L 482.1 366.0 L 487.1 366.0 L 492.2 366.0 L 497.2 365.9 L 502.2 305.9 L 507.4 366.0 L 518.6 366.0 L 523.6 366.0 L 528.6 366.0 L 537.4 366.0 L 542.8 366.0 L 547.8 366.0 L 552.8 366.0 L 558.0 366.0 L 563.1 366.0 L 568.1 366.0 L 573.1 366.0 L 578.2 338.3 L 583.8 341.4 L 589.2 337.1 L 595.2 366.0 L 600.3 366.0 L 605.4 341.5 L 610.6 341.5 L 616.2 341.5 L 621.7 366.0 L 626.8 365.9 L 632.1 341.8 L 637.3 341.3 L 643.2 341.9 L 648.4 366.0 L 653.6 366.0 L 658.6 350.2 L 664.2 341.4 L 669.7 341.5 L 675.1 363.2 L 680.9 366.0 L 685.9 366.0 L 691.0 366.0 L 696.0 365.9 L 701.5 309.2 L 706.6 365.9 L 711.6 365.9 L 716.7 365.9 L 721.9 365.9 L 726.9 365.9 L 732.0 365.9 L 737.4 365.9 L 742.4 365.9 L 747.5 365.9 L 752.5 365.8 L 757.5 365.9 L 762.7 365.9 L 767.7 365.7 L 780.5 366.0 L 785.5 366.0 L 790.6 366.0 L 795.6 366.0 L 800.6 366.0 L 805.6 366.0 L 810.7 366.0 L 815.7 366.0 L 828.0 366.0 L 833.0 366.0 L 838.0 366.0 L 843.0 366.0 L 848.0 366.0 L 853.0 366.0 L 858.0 366.0 L 863.0 366.0 L 868.3 366.0 L 873.3 365.9 L 878.3 365.9 L 883.3 366.0 L 888.4 366.0 L 893.5 366.0 L 898.5 366.0 L 903.7 366.0 L 908.7 366.0 L 913.7 366.0 L 918.7 366.0 L 923.7 366.0 L 928.7 366.0 L 933.8 366.0 L 938.8 366.0 L 943.8 366.0 L 949.0 366.0 L 954.1 366.0 L 959.2 341.5 L 964.5 341.7 L 969.9 341.6 L 975.1 360.5 L 980.3 366.0 L 985.4 351.2 L 990.4 366.0 L 995.4 366.0 L 1000.4 366.0 L 1005.4 366.0 L 1010.4 366.0 L 1015.5 366.0 L 1020.6 366.0 L 1025.7 366.0 L 1030.8 366.0 L 1035.8 366.0 L 1040.8 366.0 L 1045.8 366.0 L 1050.8 366.0 L 1055.8 366.0 L 1060.9 366.0 L 1065.9 366.0 L 1071.0 366.0 L 1076.0 366.0" fill="none" stroke="#4C78A8" stroke-width="2.8" stroke-linejoin="round" stroke-linecap="round"/>
<path d="M 86.0 366.0 L 91.0 366.0 L 96.0 366.0 L 101.0 366.0 L 106.0 366.0 L 111.2 366.0 L 116.2 366.0 L 121.2 366.0 L 126.2 366.0 L 131.3 206.0 L 136.3 149.8 L 142.4 153.1 L 147.6 365.9 L 153.6 366.0 L 158.6 365.9 L 163.6 366.0 L 168.7 366.0 L 174.0 366.0 L 179.1 366.0 L 184.1 366.0 L 189.1 366.0 L 194.1 366.0 L 199.2 366.0 L 204.3 366.0 L 209.3 366.0 L 214.4 366.0 L 219.4 366.0 L 224.5 366.0 L 229.6 366.0 L 234.6 366.0 L 239.6 366.0 L 244.6 366.0 L 249.6 365.9 L 254.6 366.0 L 259.8 366.0 L 264.9 366.0 L 269.9 366.0 L 274.9 366.0 L 280.0 152.3 L 285.1 150.3 L 290.5 148.0 L 296.9 366.0 L 302.1 366.0 L 307.1 153.6 L 312.3 106.5 L 318.0 154.1 L 323.6 366.0 L 328.9 366.0 L 334.0 213.6 L 339.1 149.4 L 345.3 151.9 L 350.7 365.9 L 356.4 366.0 L 361.4 247.7 L 366.6 144.5 L 371.9 73.3 L 379.2 366.0 L 384.9 366.0 L 389.9 191.1 L 394.9 105.2 L 400.8 150.6 L 406.7 365.9 L 412.0 366.0 L 417.1 239.3 L 422.1 149.8 L 428.4 153.6 L 433.8 365.9 L 439.8 366.0 L 444.8 240.6 L 449.8 155.3 L 455.1 98.7 L 461.1 307.5 L 466.5 365.9 L 471.6 365.9 L 477.0 365.9 L 482.1 365.9 L 487.1 365.9 L 492.2 365.9 L 497.2 365.9 L 502.2 365.8 L 507.4 366.0 L 518.6 366.0 L 523.6 366.0 L 528.6 365.9 L 537.4 366.0 L 542.8 366.0 L 547.8 366.0 L 552.8 366.0 L 558.0 366.0 L 563.1 366.0 L 568.1 366.0 L 573.1 210.6 L 578.2 153.4 L 583.8 153.7 L 589.2 352.8 L 595.2 366.0 L 600.3 257.9 L 605.4 152.5 L 610.6 135.4 L 616.2 247.4 L 621.7 366.0 L 626.8 354.5 L 632.1 150.6 L 637.3 149.4 L 643.2 151.9 L 648.4 366.0 L 653.6 366.0 L 658.6 129.2 L 664.2 152.6 L 669.7 148.0 L 675.1 365.9 L 680.9 365.9 L 685.9 365.9 L 691.0 365.9 L 696.0 365.9 L 701.5 365.8 L 706.6 365.8 L 711.6 365.8 L 716.7 365.8 L 721.9 365.8 L 726.9 365.8 L 732.0 365.7 L 737.4 365.7 L 742.4 365.7 L 747.5 365.7 L 752.5 365.8 L 757.5 365.8 L 762.7 365.8 L 767.7 366.0 L 780.5 366.0 L 785.5 366.0 L 790.6 366.0 L 795.6 366.0 L 800.6 366.0 L 805.6 366.0 L 810.7 366.0 L 815.7 366.0 L 828.0 366.0 L 833.0 366.0 L 838.0 366.0 L 843.0 366.0 L 848.0 366.0 L 853.0 366.0 L 858.0 366.0 L 863.0 366.0 L 868.3 366.0 L 873.3 366.0 L 878.3 366.0 L 883.3 366.0 L 888.4 366.0 L 893.5 366.0 L 898.5 366.0 L 903.7 366.0 L 908.7 366.0 L 913.7 366.0 L 918.7 366.0 L 923.7 366.0 L 928.7 366.0 L 933.8 366.0 L 938.8 366.0 L 943.8 365.9 L 949.0 366.0 L 954.1 366.0 L 959.2 150.1 L 964.5 152.7 L 969.9 150.2 L 975.1 365.9 L 980.3 366.0 L 985.4 366.0 L 990.4 366.0 L 995.4 365.9 L 1000.4 365.9 L 1005.4 366.0 L 1010.4 366.0 L 1015.5 366.0 L 1020.6 366.0 L 1025.7 366.0 L 1030.8 366.0 L 1035.8 366.0 L 1040.8 366.0 L 1045.8 366.0 L 1050.8 366.0 L 1055.8 366.0 L 1060.9 366.0 L 1065.9 366.0 L 1071.0 366.0 L 1076.0 366.0" fill="none" stroke="#F58518" stroke-width="2.8" stroke-linejoin="round" stroke-linecap="round"/>
<line x1="99.1" y1="44.0" x2="99.1" y2="366.0" stroke="#666" stroke-dasharray="4 4" stroke-width="1.2"/>
<text x="99.1" y="402.0" text-anchor="middle" font-size="12" fill="#444" font-family="Helvetica, Arial, sans-serif">submit</text>
<line x1="918.4" y1="44.0" x2="918.4" y2="366.0" stroke="#888" stroke-dasharray="4 4" stroke-width="1.2"/>
<text x="918.4" y="402.0" text-anchor="middle" font-size="12" fill="#444" font-family="Helvetica, Arial, sans-serif">metrics</text>
<line x1="86.0" y1="44.0" x2="86.0" y2="366.0" stroke="#f5f5f5" stroke-width="1"/>
<text x="86.0" y="418.0" text-anchor="middle" font-size="11" fill="#444" font-family="Helvetica, Arial, sans-serif">-0.11</text>
<line x1="209.8" y1="44.0" x2="209.8" y2="366.0" stroke="#f5f5f5" stroke-width="1"/>
<text x="209.8" y="418.0" text-anchor="middle" font-size="11" fill="#444" font-family="Helvetica, Arial, sans-serif">0.93</text>
<line x1="333.5" y1="44.0" x2="333.5" y2="366.0" stroke="#f5f5f5" stroke-width="1"/>
<text x="333.5" y="418.0" text-anchor="middle" font-size="11" fill="#444" font-family="Helvetica, Arial, sans-serif">1.97</text>
<line x1="457.2" y1="44.0" x2="457.2" y2="366.0" stroke="#f5f5f5" stroke-width="1"/>
<text x="457.2" y="418.0" text-anchor="middle" font-size="11" fill="#444" font-family="Helvetica, Arial, sans-serif">3.00</text>
<line x1="581.0" y1="44.0" x2="581.0" y2="366.0" stroke="#f5f5f5" stroke-width="1"/>
<text x="581.0" y="418.0" text-anchor="middle" font-size="11" fill="#444" font-family="Helvetica, Arial, sans-serif">4.04</text>
<line x1="704.8" y1="44.0" x2="704.8" y2="366.0" stroke="#f5f5f5" stroke-width="1"/>
<text x="704.8" y="418.0" text-anchor="middle" font-size="11" fill="#444" font-family="Helvetica, Arial, sans-serif">5.08</text>
<line x1="828.5" y1="44.0" x2="828.5" y2="366.0" stroke="#f5f5f5" stroke-width="1"/>
<text x="828.5" y="418.0" text-anchor="middle" font-size="11" fill="#444" font-family="Helvetica, Arial, sans-serif">6.12</text>
<line x1="952.2" y1="44.0" x2="952.2" y2="366.0" stroke="#f5f5f5" stroke-width="1"/>
<text x="952.2" y="418.0" text-anchor="middle" font-size="11" fill="#444" font-family="Helvetica, Arial, sans-serif">7.16</text>
<line x1="1076.0" y1="44.0" x2="1076.0" y2="366.0" stroke="#f5f5f5" stroke-width="1"/>
<text x="1076.0" y="418.0" text-anchor="middle" font-size="11" fill="#444" font-family="Helvetica, Arial, sans-serif">8.19</text>
<text x="581.0" y="386.0" text-anchor="middle" font-size="15" fill="#222" font-family="Helvetica, Arial, sans-serif">time since request submit (s)</text>
</svg>