<svg xmlns="http://www.w3.org/2000/svg" width="1100" height="420" viewBox="0 0 1100 420">
<rect width="1100" height="420" fill="white"/>
<text x="86" y="26" font-size="22" font-weight="700" font-family="Helvetica, Arial, sans-serif">tb_session_10_turn_003_reuse  phase=reuse  turn=3  prompt=25344  peak_tx=7.73 GiB/s  peak_rx=35.86 GiB/s</text>
<line x1="86" y1="366.0" x2="1076" y2="366.0" stroke="#ececec" stroke-width="1"/>
<text x="76" y="370.0" text-anchor="end" font-size="12" fill="#444" font-family="Helvetica, Arial, sans-serif">0.0</text>
<line x1="86" y1="301.6" x2="1076" y2="301.6" stroke="#ececec" stroke-width="1"/>
<text x="76" y="305.6" text-anchor="end" font-size="12" fill="#444" font-family="Helvetica, Arial, sans-serif">7.9</text>
<line x1="86" y1="237.2" x2="1076" y2="237.2" stroke="#ececec" stroke-width="1"/>
<text x="76" y="241.2" text-anchor="end" font-size="12" fill="#444" font-family="Helvetica, Arial, sans-serif">15.8</text>
<line x1="86" y1="172.8" x2="1076" y2="172.8" stroke="#ececec" stroke-width="1"/>
<text x="76" y="176.8" text-anchor="end" font-size="12" fill="#444" font-family="Helvetica, Arial, sans-serif">23.7</text>
<line x1="86" y1="108.4" x2="1076" y2="108.4" stroke="#ececec" stroke-width="1"/>
<text x="76" y="112.4" text-anchor="end" font-size="12" fill="#444" font-family="Helvetica, Arial, sans-serif">31.6</text>
<line x1="86" y1="44.0" x2="1076" y2="44.0" stroke="#ececec" stroke-width="1"/>
<text x="76" y="48.0" text-anchor="end" font-size="12" fill="#444" font-family="Helvetica, Arial, sans-serif">39.4</text>
<line x1="86" y1="366.0" x2="1076" y2="366.0" stroke="#222" stroke-width="1.4"/>
<line x1="86" y1="44.0" x2="86" y2="366.0" stroke="#222" stroke-width="1.4"/>
<rect x="101.4" y="44.0" width="814.2" height="322.0" fill="#F58518" opacity="0.08"/>
<path d="M 86.0 366.0 L 91.0 366.0 L 96.0 366.0 L 101.0 366.0 L 106.2 366.0 L 111.2 366.0 L 116.2 366.0 L 121.2 366.0 L 126.7 366.0 L 132.5 366.0 L 137.6 340.2 L 142.9 339.9 L 149.0 340.0 L 154.5 366.0 L 159.6 366.0 L 164.7 350.2 L 169.7 366.0 L 174.7 366.0 L 179.8 366.0 L 184.8 366.0 L 189.8 366.0 L 194.8 366.0 L 199.9 366.0 L 204.9 366.0 L 210.0 366.0 L 215.1 366.0 L 220.1 366.0 L 225.1 366.0 L 230.9 366.0 L 236.1 366.0 L 241.1 366.0 L 246.1 366.0 L 251.1 366.0 L 256.1 366.0 L 261.1 366.0 L 266.1 366.0 L 271.1 366.0 L 276.1 366.0 L 281.5 347.4 L 286.7 340.2 L 292.1 340.1 L 297.6 358.1 L 303.0 366.0 L 308.0 357.6 L 313.2 335.6 L 319.4 339.8 L 325.0 355.1 L 330.2 366.0 L 335.2 362.3 L 340.7 339.5 L 346.5 340.0 L 352.2 351.9 L 357.4 366.0 L 362.5 363.9 L 367.9 339.9 L 373.1 337.3 L 379.2 345.1 L 384.3 366.0 L 389.3 366.0 L 394.5 340.2 L 399.8 339.7 L 405.5 340.1 L 410.8 366.0 L 415.8 366.0 L 420.8 336.4 L 426.5 340.1 L 431.9 335.8 L 437.9 366.0 L 442.9 365.9 L 448.1 339.9 L 453.5 339.9 L 459.1 339.8 L 464.7 366.0 L 469.8 366.0 L 475.0 366.0 L 480.0 366.0 L 485.0 366.0 L 490.1 365.9 L 496.2 366.0 L 501.2 302.9 L 506.3 366.0 L 511.3 366.0 L 516.5 366.0 L 521.5 366.0 L 526.5 366.0 L 531.5 366.0 L 536.5 366.0 L 541.6 366.0 L 546.6 366.0 L 551.7 366.0 L 556.7 366.0 L 561.7 366.0 L 567.9 366.0 L 572.9 355.4 L 578.7 339.8 L 584.2 340.1 L 589.9 362.9 L 595.6 366.0 L 600.6 354.1 L 605.8 340.3 L 611.2 333.0 L 617.1 353.6 L 622.3 366.0 L 627.3 363.9 L 632.5 340.0 L 638.5 339.7 L 644.1 347.5 L 649.3 366.0 L 654.5 366.0 L 659.5 336.7 L 665.7 340.3 L 670.9 339.7 L 676.4 366.0 L 681.4 366.0 L 686.4 366.0 L 691.6 365.9 L 696.6 365.9 L 702.3 365.9 L 707.4 365.9 L 713.6 365.9 L 718.6 365.9 L 724.1 365.9 L 729.3 365.9 L 734.3 365.9 L 739.4 365.9 L 744.6 365.9 L 749.8 365.9 L 754.9 365.9 L 759.9 365.9 L 765.0 365.9 L 770.1 366.0 L 775.2 366.0 L 780.2 366.0 L 785.3 366.0 L 790.3 366.0 L 795.5 366.0 L 800.5 366.0 L 805.5 366.0 L 810.5 366.0 L 815.5 366.0 L 820.5 366.0 L 825.5 366.0 L 830.8 366.0 L 835.8 366.0 L 840.8 366.0 L 845.8 366.0 L 850.8 366.0 L 856.9 366.0 L 861.9 366.0 L 867.0 366.0 L 872.0 366.0 L 877.0 366.0 L 882.1 366.0 L 887.1 366.0 L 892.1 366.0 L 897.1 366.0 L 902.3 366.0 L 907.3 366.0 L 912.4 366.0 L 917.4 366.0 L 922.4 366.0 L 927.4 366.0 L 932.5 366.0 L 937.5 366.0 L 942.5 365.9 L 947.5 365.9 L 952.7 366.0 L 957.7 336.9 L 963.8 340.0 L 969.0 333.4 L 975.0 366.0 L 980.0 366.0 L 985.0 350.2 L 990.1 366.0 L 995.4 366.0 L 1000.5 366.0 L 1005.5 366.0 L 1010.5 366.0 L 1015.5 366.0 L 1020.5 366.0 L 1025.7 366.0 L 1030.7 366.0 L 1035.8 366.0 L 1040.8 366.0 L 1045.9 366.0 L 1051.0 366.0 L 1056.0 366.0 L 1061.0 366.0 L 1066.0 366.0 L 1071.0 366.0 L 1076.0 366.0" fill="none" stroke="#4C78A8" stroke-width="2.8" stroke-linejoin="round" stroke-linecap="round"/>
<path d="M 86.0 366.0 L 91.0 366.0 L 96.0 366.0 L 101.0 366.0 L 106.2 366.0 L 111.2 366.0 L 116.2 366.0 L 121.2 365.9 L 126.7 366.0 L 132.5 358.4 L 137.6 137.9 L 142.9 73.3 L 149.0 191.0 L 154.5 366.0 L 159.6 366.0 L 164.7 366.0 L 169.7 366.0 L 174.7 366.0 L 179.8 366.0 L 184.8 366.0 L 189.8 366.0 L 194.8 365.9 L 199.9 366.0 L 204.9 366.0 L 210.0 366.0 L 215.1 366.0 L 220.1 366.0 L 225.1 366.0 L 230.9 366.0 L 236.1 366.0 L 241.1 366.0 L 246.1 366.0 L 251.1 366.0 L 256.1 366.0 L 261.1 366.0 L 266.1 366.0 L 271.1 366.0 L 276.1 366.0 L 281.5 137.9 L 286.7 132.3 L 292.1 138.2 L 297.6 366.0 L 303.0 366.0 L 308.0 140.3 L 313.2 138.4 L 319.4 119.8 L 325.0 366.0 L 330.2 366.0 L 335.2 106.1 L 340.7 139.0 L 346.5 105.5 L 352.2 366.0 L 357.4 366.0 L 362.5 139.4 L 367.9 139.5 L 373.1 140.6 L 379.2 366.0 L 384.3 366.0 L 389.3 199.1 L 394.5 131.6 L 399.8 140.1 L 405.5 304.1 L 410.8 366.0 L 415.8 303.0 L 420.8 138.6 L 426.5 137.1 L 431.9 263.1 L 437.9 366.0 L 442.9 334.0 L 448.1 136.7 L 453.5 113.4 L 459.1 195.6 L 464.7 365.9 L 469.8 365.9 L 475.0 365.9 L 480.0 365.9 L 485.0 365.9 L 490.1 365.9 L 496.2 365.9 L 501.2 365.8 L 506.3 366.0 L 511.3 366.0 L 516.5 366.0 L 521.5 366.0 L 526.5 366.0 L 531.5 366.0 L 536.5 366.0 L 541.6 366.0 L 546.6 366.0 L 551.7 366.0 L 556.7 366.0 L 561.7 366.0 L 567.9 366.0 L 572.9 92.1 L 578.7 139.9 L 584.2 101.0 L 589.9 366.0 L 595.6 366.0 L 600.6 137.9 L 605.8 136.5 L 611.2 137.7 L 617.1 366.0 L 622.3 366.0 L 627.3 138.8 L 632.5 79.0 L 638.5 139.0 L 644.1 366.0 L 649.3 366.0 L 654.5 165.3 L 659.5 139.0 L 665.7 139.8 L 670.9 365.9 L 676.4 365.9 L 681.4 365.9 L 686.4 365.9 L 691.6 365.8 L 696.6 365.5 L 702.3 365.7 L 707.4 365.8 L 713.6 365.8 L 718.6 365.8 L 724.1 365.7 L 729.3 365.7 L 734.3 365.7 L 739.4 365.7 L 744.6 365.8 L 749.8 365.8 L 754.9 365.8 L 759.9 365.8 L 765.0 366.0 L 770.1 366.0 L 775.2 366.0 L 780.2 366.0 L 785.3 366.0 L 790.3 366.0 L 795.5 366.0 L 800.5 366.0 L 805.5 366.0 L 810.5 366.0 L 815.5 366.0 L 820.5 365.9 L 825.5 366.0 L 830.8 366.0 L 835.8 366.0 L 840.8 366.0 L 845.8 366.0 L 850.8 366.0 L 856.9 366.0 L 861.9 366.0 L 867.0 366.0 L 872.0 366.0 L 877.0 366.0 L 882.1 366.0 L 887.1 366.0 L 892.1 366.0 L 897.1 366.0 L 902.3 366.0 L 907.3 366.0 L 912.4 366.0 L 917.4 366.0 L 922.4 366.0 L 927.4 366.0 L 932.5 366.0 L 937.5 366.0 L 942.5 366.0 L 947.5 366.0 L 952.7 195.9 L 957.7 136.2 L 963.8 139.7 L 969.0 365.9 L 975.0 366.0 L 980.0 365.9 L 985.0 366.0 L 990.1 366.0 L 995.4 366.0 L 1000.5 366.0 L 1005.5 366.0 L 1010.5 366.0 L 1015.5 366.0 L 1020.5 366.0 L 1025.7 366.0 L 1030.7 366.0 L 1035.8 366.0 L 1040.8 366.0 L 1045.9 366.0 L 1051.0 366.0 L 1056.0 366.0 L 1061.0 366.0 L 1066.0 366.0 L 1071.0 365.9 L 1076.0 366.0" fill="none" stroke="#F58518" stroke-width="2.8" stroke-linejoin="round" stroke-linecap="round"/>
<line x1="101.4" y1="44.0" x2="101.4" y2="366.0" stroke="#666" stroke-dasharray="4 4" stroke-width="1.2"/>
<text x="101.4" y="402.0" text-anchor="middle" font-size="12" fill="#444" font-family="Helvetica, Arial, sans-serif">submit</text>
<line x1="915.6" y1="44.0" x2="915.6" y2="366.0" stroke="#888" stroke-dasharray="4 4" stroke-width="1.2"/>
<text x="915.6" y="402.0" text-anchor="middle" font-size="12" fill="#444" font-family="Helvetica, Arial, sans-serif">metrics</text>
<line x1="86.0" y1="44.0" x2="86.0" y2="366.0" stroke="#f5f5f5" stroke-width="1"/>
<text x="86.0" y="418.0" text-anchor="middle" font-size="11" fill="#444" font-family="Helvetica, Arial, sans-serif">-0.13</text>
<line x1="209.8" y1="44.0" x2="209.8" y2="366.0" stroke="#f5f5f5" stroke-width="1"/>
<text x="209.8" y="418.0" text-anchor="middle" font-size="11" fill="#444" font-family="Helvetica, Arial, sans-serif">0.91</text>
<line x1="333.5" y1="44.0" x2="333.5" y2="366.0" stroke="#f5f5f5" stroke-width="1"/>
<text x="333.5" y="418.0" text-anchor="middle" font-size="11" fill="#444" font-family="Helvetica, Arial, sans-serif">1.95</text>
<line x1="457.2" y1="44.0" x2="457.2" y2="366.0" stroke="#f5f5f5" stroke-width="1"/>
<text x="457.2" y="418.0" text-anchor="middle" font-size="11" fill="#444" font-family="Helvetica, Arial, sans-serif">2.98</text>
<line x1="581.0" y1="44.0" x2="581.0" y2="366.0" stroke="#f5f5f5" stroke-width="1"/>
<text x="581.0" y="418.0" text-anchor="middle" font-size="11" fill="#444" font-family="Helvetica, Arial, sans-serif">4.02</text>
<line x1="704.7" y1="44.0" x2="704.7" y2="366.0" stroke="#f5f5f5" stroke-width="1"/>
<text x="704.7" y="418.0" text-anchor="middle" font-size="11" fill="#444" font-family="Helvetica, Arial, sans-serif">5.06</text>
<line x1="828.5" y1="44.0" x2="828.5" y2="366.0" stroke="#f5f5f5" stroke-width="1"/>
<text x="828.5" y="418.0" text-anchor="middle" font-size="11" fill="#444" font-family="Helvetica, Arial, sans-serif">6.10</text>
<line x1="952.2" y1="44.0" x2="952.2" y2="366.0" stroke="#f5f5f5" stroke-width="1"/>
<text x="952.2" y="418.0" text-anchor="middle" font-size="11" fill="#444" font-family="Helvetica, Arial, sans-serif">7.13</text>
<line x1="1076.0" y1="44.0" x2="1076.0" y2="366.0" stroke="#f5f5f5" stroke-width="1"/>
<text x="1076.0" y="418.0" text-anchor="middle" font-size="11" fill="#444" font-family="Helvetica, Arial, sans-serif">8.17</text>
<text x="581.0" y="386.0" text-anchor="middle" font-size="15" fill="#222" font-family="Helvetica, Arial, sans-serif">time since request submit (s)</text>
</svg>