<svg xmlns="http://www.w3.org/2000/svg" width="1100" height="420" viewBox="0 0 1100 420">
<rect width="1100" height="420" fill="white"/>
<text x="86" y="26" font-size="22" font-weight="700" font-family="Helvetica, Arial, sans-serif">tb_session_01_turn_000_seed  phase=seed  turn=0  prompt=24576  peak_tx=3.52 GiB/s  peak_rx=28.45 GiB/s</text>
<line x1="86" y1="366.0" x2="1076" y2="366.0" stroke="#ececec" stroke-width="1"/>
<text x="76" y="370.0" text-anchor="end" font-size="12" fill="#444" font-family="Helvetica, Arial, sans-serif">0.0</text>
<line x1="86" y1="301.6" x2="1076" y2="301.6" stroke="#ececec" stroke-width="1"/>
<text x="76" y="305.6" text-anchor="end" font-size="12" fill="#444" font-family="Helvetica, Arial, sans-serif">6.3</text>
<line x1="86" y1="237.2" x2="1076" y2="237.2" stroke="#ececec" stroke-width="1"/>
<text x="76" y="241.2" text-anchor="end" font-size="12" fill="#444" font-family="Helvetica, Arial, sans-serif">12.5</text>
<line x1="86" y1="172.8" x2="1076" y2="172.8" stroke="#ececec" stroke-width="1"/>
<text x="76" y="176.8" text-anchor="end" font-size="12" fill="#444" font-family="Helvetica, Arial, sans-serif">18.8</text>
<line x1="86" y1="108.4" x2="1076" y2="108.4" stroke="#ececec" stroke-width="1"/>
<text x="76" y="112.4" text-anchor="end" font-size="12" fill="#444" font-family="Helvetica, Arial, sans-serif">25.0</text>
<line x1="86" y1="44.0" x2="1076" y2="44.0" stroke="#ececec" stroke-width="1"/>
<text x="76" y="48.0" text-anchor="end" font-size="12" fill="#444" font-family="Helvetica, Arial, sans-serif">31.3</text>
<line x1="86" y1="366.0" x2="1076" y2="366.0" stroke="#222" stroke-width="1.4"/>
<line x1="86" y1="44.0" x2="86" y2="366.0" stroke="#222" stroke-width="1.4"/>
<rect x="121.7" y="44.0" width="557.6" height="322.0" fill="#4C78A8" opacity="0.08"/>
<path d="M 86.0 366.0 L 98.5 366.0 L 111.0 366.0 L 123.7 366.0 L 136.2 366.0 L 149.0 366.0 L 161.5 366.0 L 174.0 366.0 L 186.5 366.0 L 198.9 366.0 L 211.4 335.4 L 224.8 333.4 L 237.9 329.8 L 252.1 365.9 L 264.6 365.9 L 277.4 365.9 L 289.9 365.9 L 303.0 365.9 L 316.0 366.0 L 328.8 366.0 L 341.3 366.0 L 353.8 366.0 L 366.3 366.0 L 378.7 366.0 L 391.5 366.0 L 404.0 366.0 L 416.5 366.0 L 429.0 366.0 L 441.5 365.9 L 454.2 365.9 L 466.7 366.0 L 479.2 366.0 L 491.7 366.0 L 504.2 366.0 L 517.2 366.0 L 529.7 366.0 L 542.2 366.0 L 555.0 366.0 L 567.5 366.0 L 580.0 366.0 L 592.4 366.0 L 604.9 366.0 L 617.4 366.0 L 630.2 366.0 L 642.7 366.0 L 655.5 366.0 L 667.9 366.0 L 680.4 366.0 L 692.9 366.0 L 705.4 366.0 L 717.9 366.0 L 730.6 366.0 L 743.4 366.0 L 755.9 366.0 L 769.0 333.9 L 783.8 333.2 L 797.2 333.4 L 810.6 365.9 L 823.1 365.9 L 835.9 365.9 L 848.3 365.9 L 861.1 365.9 L 874.5 366.0 L 887.0 366.0 L 899.5 366.0 L 911.9 366.0 L 924.4 366.0 L 936.9 366.0 L 949.4 366.0 L 962.8 366.0 L 975.2 366.0 L 987.7 366.0 L 1000.2 366.0 L 1012.7 366.0 L 1025.2 366.0 L 1037.7 366.0 L 1050.1 366.0 L 1062.9 365.9 L 1076.0 365.9" fill="none" stroke="#4C78A8" stroke-width="2.8" stroke-linejoin="round" stroke-linecap="round"/>
<path d="M 86.0 366.0 L 98.5 366.0 L 111.0 366.0 L 123.7 365.9 L 136.2 365.9 L 149.0 366.0 L 161.5 366.0 L 174.0 365.9 L 186.5 366.0 L 198.9 366.0 L 211.4 78.6 L 224.8 80.8 L 237.9 74.9 L 252.1 365.7 L 264.6 365.7 L 277.4 365.7 L 289.9 365.7 L 303.0 365.7 L 316.0 366.0 L 328.8 366.0 L 341.3 366.0 L 353.8 366.0 L 366.3 366.0 L 378.7 366.0 L 391.5 366.0 L 404.0 366.0 L 416.5 366.0 L 429.0 366.0 L 441.5 366.0 L 454.2 366.0 L 466.7 366.0 L 479.2 366.0 L 491.7 366.0 L 504.2 366.0 L 517.2 366.0 L 529.7 366.0 L 542.2 366.0 L 555.0 366.0 L 567.5 366.0 L 580.0 366.0 L 592.4 366.0 L 604.9 366.0 L 617.4 366.0 L 630.2 366.0 L 642.7 366.0 L 655.5 366.0 L 667.9 366.0 L 680.4 366.0 L 692.9 366.0 L 705.4 366.0 L 717.9 366.0 L 730.6 365.9 L 743.4 365.9 L 755.9 241.7 L 769.0 73.3 L 783.8 77.7 L 797.2 282.9 L 810.6 365.7 L 823.1 365.7 L 835.9 365.7 L 848.3 365.7 L 861.1 366.0 L 874.5 366.0 L 887.0 366.0 L 899.5 366.0 L 911.9 366.0 L 924.4 366.0 L 936.9 366.0 L 949.4 366.0 L 962.8 366.0 L 975.2 366.0 L 987.7 366.0 L 1000.2 366.0 L 1012.7 366.0 L 1025.2 366.0 L 1037.7 366.0 L 1050.1 366.0 L 1062.9 366.0 L 1076.0 366.0" fill="none" stroke="#F58518" stroke-width="2.8" stroke-linejoin="round" stroke-linecap="round"/>
<line x1="121.7" y1="44.0" x2="121.7" y2="366.0" stroke="#666" stroke-dasharray="4 4" stroke-width="1.2"/>
<text x="121.7" y="402.0" text-anchor="middle" font-size="12" fill="#444" font-family="Helvetica, Arial, sans-serif">submit</text>
<line x1="679.2" y1="44.0" x2="679.2" y2="366.0" stroke="#888" stroke-dasharray="4 4" stroke-width="1.2"/>
<text x="679.2" y="402.0" text-anchor="middle" font-size="12" fill="#444" font-family="Helvetica, Arial, sans-serif">metrics</text>
<line x1="86.0" y1="44.0" x2="86.0" y2="366.0" stroke="#f5f5f5" stroke-width="1"/>
<text x="86.0" y="418.0" text-anchor="middle" font-size="11" fill="#444" font-family="Helvetica, Arial, sans-serif">-0.12</text>
<line x1="209.8" y1="44.0" x2="209.8" y2="366.0" stroke="#f5f5f5" stroke-width="1"/>
<text x="209.8" y="418.0" text-anchor="middle" font-size="11" fill="#444" font-family="Helvetica, Arial, sans-serif">0.30</text>
<line x1="333.5" y1="44.0" x2="333.5" y2="366.0" stroke="#f5f5f5" stroke-width="1"/>
<text x="333.5" y="418.0" text-anchor="middle" font-size="11" fill="#444" font-family="Helvetica, Arial, sans-serif">0.71</text>
<line x1="457.3" y1="44.0" x2="457.3" y2="366.0" stroke="#f5f5f5" stroke-width="1"/>
<text x="457.3" y="418.0" text-anchor="middle" font-size="11" fill="#444" font-family="Helvetica, Arial, sans-serif">1.13</text>
<line x1="581.0" y1="44.0" x2="581.0" y2="366.0" stroke="#f5f5f5" stroke-width="1"/>
<text x="581.0" y="418.0" text-anchor="middle" font-size="11" fill="#444" font-family="Helvetica, Arial, sans-serif">1.55</text>
<line x1="704.8" y1="44.0" x2="704.8" y2="366.0" stroke="#f5f5f5" stroke-width="1"/>
<text x="704.8" y="418.0" text-anchor="middle" font-size="11" fill="#444" font-family="Helvetica, Arial, sans-serif">1.96</text>
<line x1="828.5" y1="44.0" x2="828.5" y2="366.0" stroke="#f5f5f5" stroke-width="1"/>
<text x="828.5" y="418.0" text-anchor="middle" font-size="11" fill="#444" font-family="Helvetica, Arial, sans-serif">2.38</text>
<line x1="952.2" y1="44.0" x2="952.2" y2="366.0" stroke="#f5f5f5" stroke-width="1"/>
<text x="952.2" y="418.0" text-anchor="middle" font-size="11" fill="#444" font-family="Helvetica, Arial, sans-serif">2.79</text>
<line x1="1076.0" y1="44.0" x2="1076.0" y2="366.0" stroke="#f5f5f5" stroke-width="1"/>
<text x="1076.0" y="418.0" text-anchor="middle" font-size="11" fill="#444" font-family="Helvetica, Arial, sans-serif">3.21</text>
<text x="581.0" y="386.0" text-anchor="middle" font-size="15" fill="#222" font-family="Helvetica, Arial, sans-serif">time since request submit (s)</text>
</svg>