<svg xmlns="http://www.w3.org/2000/svg" width="1100" height="420" viewBox="0 0 1100 420">
<rect width="1100" height="420" fill="white"/>
<text x="86" y="26" font-size="22" font-weight="700" font-family="Helvetica, Arial, sans-serif">tb_session_04_turn_000_seed  phase=seed  turn=0  prompt=24576  peak_tx=3.22 GiB/s  peak_rx=29.87 GiB/s</text>
<line x1="86" y1="366.0" x2="1076" y2="366.0" stroke="#ececec" stroke-width="1"/>
<text x="76" y="370.0" text-anchor="end" font-size="12" fill="#444" font-family="Helvetica, Arial, sans-serif">0.0</text>
<line x1="86" y1="301.6" x2="1076" y2="301.6" stroke="#ececec" stroke-width="1"/>
<text x="76" y="305.6" text-anchor="end" font-size="12" fill="#444" font-family="Helvetica, Arial, sans-serif">6.6</text>
<line x1="86" y1="237.2" x2="1076" y2="237.2" stroke="#ececec" stroke-width="1"/>
<text x="76" y="241.2" text-anchor="end" font-size="12" fill="#444" font-family="Helvetica, Arial, sans-serif">13.1</text>
<line x1="86" y1="172.8" x2="1076" y2="172.8" stroke="#ececec" stroke-width="1"/>
<text x="76" y="176.8" text-anchor="end" font-size="12" fill="#444" font-family="Helvetica, Arial, sans-serif">19.7</text>
<line x1="86" y1="108.4" x2="1076" y2="108.4" stroke="#ececec" stroke-width="1"/>
<text x="76" y="112.4" text-anchor="end" font-size="12" fill="#444" font-family="Helvetica, Arial, sans-serif">26.3</text>
<line x1="86" y1="44.0" x2="1076" y2="44.0" stroke="#ececec" stroke-width="1"/>
<text x="76" y="48.0" text-anchor="end" font-size="12" fill="#444" font-family="Helvetica, Arial, sans-serif">32.9</text>
<line x1="86" y1="366.0" x2="1076" y2="366.0" stroke="#222" stroke-width="1.4"/>
<line x1="86" y1="44.0" x2="86" y2="366.0" stroke="#222" stroke-width="1.4"/>
<rect x="124.8" y="44.0" width="553.9" height="322.0" fill="#4C78A8" opacity="0.08"/>
<path d="M 86.0 366.0 L 98.6 366.0 L 111.2 366.0 L 124.2 366.0 L 136.8 366.0 L 149.4 366.0 L 162.0 366.0 L 174.7 366.0 L 187.3 366.0 L 199.9 355.2 L 215.8 334.8 L 229.4 334.8 L 242.9 352.6 L 255.8 365.9 L 268.7 365.9 L 282.0 365.9 L 294.9 365.9 L 307.5 366.0 L 320.4 366.0 L 334.0 366.0 L 346.6 366.0 L 359.2 366.0 L 371.8 366.0 L 384.4 366.0 L 397.4 366.0 L 410.0 366.0 L 422.6 366.0 L 435.2 366.0 L 448.2 366.0 L 460.8 366.0 L 473.4 366.0 L 486.0 366.0 L 498.7 366.0 L 511.3 366.0 L 523.9 366.0 L 536.8 366.0 L 549.7 366.0 L 562.4 366.0 L 575.3 366.0 L 587.9 366.0 L 600.5 366.0 L 613.2 366.0 L 626.1 366.0 L 638.7 366.0 L 651.3 365.9 L 665.5 366.0 L 678.1 366.0 L 690.7 366.0 L 703.3 366.0 L 715.9 366.0 L 728.6 366.0 L 741.2 366.0 L 754.7 366.0 L 767.3 335.0 L 781.2 334.5 L 795.6 335.2 L 808.8 365.9 L 822.0 365.9 L 834.7 365.9 L 847.6 365.9 L 860.2 365.9 L 873.1 366.0 L 885.8 366.0 L 898.7 366.0 L 911.3 366.0 L 923.9 366.0 L 936.5 366.0 L 949.5 366.0 L 962.1 366.0 L 974.7 366.0 L 987.3 366.0 L 1000.0 366.0 L 1012.6 366.0 L 1025.5 366.0 L 1038.1 366.0 L 1050.8 366.0 L 1063.4 366.0 L 1076.0 366.0" fill="none" stroke="#4C78A8" stroke-width="2.8" stroke-linejoin="round" stroke-linecap="round"/>
<path d="M 86.0 366.0 L 98.6 366.0 L 111.2 366.0 L 124.2 366.0 L 136.8 366.0 L 149.4 366.0 L 162.0 366.0 L 174.7 366.0 L 187.3 366.0 L 199.9 92.5 L 215.8 95.7 L 229.4 90.3 L 242.9 365.7 L 255.8 365.7 L 268.7 365.7 L 282.0 365.7 L 294.9 365.7 L 307.5 366.0 L 320.4 365.9 L 334.0 365.9 L 346.6 366.0 L 359.2 366.0 L 371.8 366.0 L 384.4 366.0 L 397.4 366.0 L 410.0 366.0 L 422.6 366.0 L 435.2 366.0 L 448.2 366.0 L 460.8 366.0 L 473.4 366.0 L 486.0 366.0 L 498.7 366.0 L 511.3 366.0 L 523.9 366.0 L 536.8 366.0 L 549.7 366.0 L 562.4 366.0 L 575.3 366.0 L 587.9 366.0 L 600.5 366.0 L 613.2 366.0 L 626.1 366.0 L 638.7 365.9 L 651.3 365.9 L 665.5 366.0 L 678.1 366.0 L 690.7 366.0 L 703.3 366.0 L 715.9 366.0 L 728.6 365.9 L 741.2 366.0 L 754.7 321.5 L 767.3 73.3 L 781.2 93.5 L 795.6 175.8 L 808.8 365.7 L 822.0 365.7 L 834.7 365.7 L 847.6 365.7 L 860.2 365.8 L 873.1 366.0 L 885.8 366.0 L 898.7 366.0 L 911.3 366.0 L 923.9 366.0 L 936.5 366.0 L 949.5 365.9 L 962.1 365.9 L 974.7 366.0 L 987.3 366.0 L 1000.0 366.0 L 1012.6 366.0 L 1025.5 366.0 L 1038.1 366.0 L 1050.8 366.0 L 1063.4 366.0 L 1076.0 366.0" fill="none" stroke="#F58518" stroke-width="2.8" stroke-linejoin="round" stroke-linecap="round"/>
<line x1="124.8" y1="44.0" x2="124.8" y2="366.0" stroke="#666" stroke-dasharray="4 4" stroke-width="1.2"/>
<text x="124.8" y="402.0" text-anchor="middle" font-size="12" fill="#444" font-family="Helvetica, Arial, sans-serif">submit</text>
<line x1="678.7" y1="44.0" x2="678.7" y2="366.0" stroke="#888" stroke-dasharray="4 4" stroke-width="1.2"/>
<text x="678.7" y="402.0" text-anchor="middle" font-size="12" fill="#444" font-family="Helvetica, Arial, sans-serif">metrics</text>
<line x1="86.0" y1="44.0" x2="86.0" y2="366.0" stroke="#f5f5f5" stroke-width="1"/>
<text x="86.0" y="418.0" text-anchor="middle" font-size="11" fill="#444" font-family="Helvetica, Arial, sans-serif">-0.13</text>
<line x1="209.8" y1="44.0" x2="209.8" y2="366.0" stroke="#f5f5f5" stroke-width="1"/>
<text x="209.8" y="418.0" text-anchor="middle" font-size="11" fill="#444" font-family="Helvetica, Arial, sans-serif">0.28</text>
<line x1="333.5" y1="44.0" x2="333.5" y2="366.0" stroke="#f5f5f5" stroke-width="1"/>
<text x="333.5" y="418.0" text-anchor="middle" font-size="11" fill="#444" font-family="Helvetica, Arial, sans-serif">0.69</text>
<line x1="457.2" y1="44.0" x2="457.2" y2="366.0" stroke="#f5f5f5" stroke-width="1"/>
<text x="457.2" y="418.0" text-anchor="middle" font-size="11" fill="#444" font-family="Helvetica, Arial, sans-serif">1.11</text>
<line x1="581.0" y1="44.0" x2="581.0" y2="366.0" stroke="#f5f5f5" stroke-width="1"/>
<text x="581.0" y="418.0" text-anchor="middle" font-size="11" fill="#444" font-family="Helvetica, Arial, sans-serif">1.52</text>
<line x1="704.8" y1="44.0" x2="704.8" y2="366.0" stroke="#f5f5f5" stroke-width="1"/>
<text x="704.8" y="418.0" text-anchor="middle" font-size="11" fill="#444" font-family="Helvetica, Arial, sans-serif">1.93</text>
<line x1="828.5" y1="44.0" x2="828.5" y2="366.0" stroke="#f5f5f5" stroke-width="1"/>
<text x="828.5" y="418.0" text-anchor="middle" font-size="11" fill="#444" font-family="Helvetica, Arial, sans-serif">2.34</text>
<line x1="952.2" y1="44.0" x2="952.2" y2="366.0" stroke="#f5f5f5" stroke-width="1"/>
<text x="952.2" y="418.0" text-anchor="middle" font-size="11" fill="#444" font-family="Helvetica, Arial, sans-serif">2.75</text>
<line x1="1076.0" y1="44.0" x2="1076.0" y2="366.0" stroke="#f5f5f5" stroke-width="1"/>
<text x="1076.0" y="418.0" text-anchor="middle" font-size="11" fill="#444" font-family="Helvetica, Arial, sans-serif">3.17</text>
<text x="581.0" y="386.0" text-anchor="middle" font-size="15" fill="#222" font-family="Helvetica, Arial, sans-serif">time since request submit (s)</text>
</svg>