<svg xmlns="http://www.w3.org/2000/svg" width="1100" height="420" viewBox="0 0 1100 420">
<rect width="1100" height="420" fill="white"/>
<text x="86" y="26" font-size="22" font-weight="700" font-family="Helvetica, Arial, sans-serif">tb_session_09_turn_000_seed  phase=seed  turn=0  prompt=24576  peak_tx=3.72 GiB/s  peak_rx=30.39 GiB/s</text>
<line x1="86" y1="366.0" x2="1076" y2="366.0" stroke="#ececec" stroke-width="1"/>
<text x="76" y="370.0" text-anchor="end" font-size="12" fill="#444" font-family="Helvetica, Arial, sans-serif">0.0</text>
<line x1="86" y1="301.6" x2="1076" y2="301.6" stroke="#ececec" stroke-width="1"/>
<text x="76" y="305.6" text-anchor="end" font-size="12" fill="#444" font-family="Helvetica, Arial, sans-serif">6.7</text>
<line x1="86" y1="237.2" x2="1076" y2="237.2" stroke="#ececec" stroke-width="1"/>
<text x="76" y="241.2" text-anchor="end" font-size="12" fill="#444" font-family="Helvetica, Arial, sans-serif">13.4</text>
<line x1="86" y1="172.8" x2="1076" y2="172.8" stroke="#ececec" stroke-width="1"/>
<text x="76" y="176.8" text-anchor="end" font-size="12" fill="#444" font-family="Helvetica, Arial, sans-serif">20.1</text>
<line x1="86" y1="108.4" x2="1076" y2="108.4" stroke="#ececec" stroke-width="1"/>
<text x="76" y="112.4" text-anchor="end" font-size="12" fill="#444" font-family="Helvetica, Arial, sans-serif">26.7</text>
<line x1="86" y1="44.0" x2="1076" y2="44.0" stroke="#ececec" stroke-width="1"/>
<text x="76" y="48.0" text-anchor="end" font-size="12" fill="#444" font-family="Helvetica, Arial, sans-serif">33.4</text>
<line x1="86" y1="366.0" x2="1076" y2="366.0" stroke="#222" stroke-width="1.4"/>
<line x1="86" y1="44.0" x2="86" y2="366.0" stroke="#222" stroke-width="1.4"/>
<rect x="119.4" y="44.0" width="553.6" height="322.0" fill="#4C78A8" opacity="0.08"/>
<path d="M 86.0 366.0 L 98.9 366.0 L 111.9 366.0 L 124.5 366.0 L 137.1 366.0 L 150.1 366.0 L 162.7 366.0 L 175.3 366.0 L 187.9 366.0 L 200.6 335.3 L 214.1 330.1 L 229.7 335.3 L 243.0 365.9 L 256.2 365.9 L 268.8 365.9 L 281.8 365.9 L 294.4 365.9 L 307.3 366.0 L 320.0 366.0 L 332.6 366.0 L 345.8 366.0 L 358.8 365.9 L 371.4 366.0 L 384.0 366.0 L 396.7 366.0 L 409.3 366.0 L 421.9 366.0 L 434.5 366.0 L 447.5 366.0 L 460.1 366.0 L 473.0 366.0 L 485.7 366.0 L 498.3 366.0 L 510.9 366.0 L 523.6 366.0 L 536.5 366.0 L 549.1 366.0 L 562.1 366.0 L 574.7 366.0 L 587.3 366.0 L 599.9 366.0 L 612.9 366.0 L 625.5 366.0 L 638.1 366.0 L 650.8 366.0 L 663.4 366.0 L 677.2 366.0 L 689.9 366.0 L 702.5 366.0 L 715.1 366.0 L 727.8 366.0 L 740.4 366.0 L 753.0 366.0 L 766.2 335.6 L 779.8 335.3 L 793.6 335.1 L 807.7 365.9 L 821.3 365.9 L 834.5 365.9 L 847.1 365.9 L 860.1 365.9 L 872.7 366.0 L 885.6 366.0 L 898.3 366.0 L 910.9 366.0 L 923.5 366.0 L 936.5 366.0 L 949.1 366.0 L 961.7 366.0 L 974.4 366.0 L 987.0 365.9 L 999.9 365.9 L 1012.5 366.0 L 1025.2 366.0 L 1037.8 366.0 L 1050.4 366.0 L 1063.4 366.0 L 1076.0 366.0" fill="none" stroke="#4C78A8" stroke-width="2.8" stroke-linejoin="round" stroke-linecap="round"/>
<path d="M 86.0 366.0 L 98.9 366.0 L 111.9 366.0 L 124.5 366.0 L 137.1 366.0 L 150.1 366.0 L 162.7 365.9 L 175.3 366.0 L 187.9 327.4 L 200.6 96.8 L 214.1 95.0 L 229.7 222.9 L 243.0 365.7 L 256.2 365.7 L 268.8 365.7 L 281.8 365.7 L 294.4 365.9 L 307.3 366.0 L 320.0 366.0 L 332.6 366.0 L 345.8 366.0 L 358.8 366.0 L 371.4 366.0 L 384.0 366.0 L 396.7 366.0 L 409.3 366.0 L 421.9 366.0 L 434.5 366.0 L 447.5 366.0 L 460.1 366.0 L 473.0 366.0 L 485.7 366.0 L 498.3 366.0 L 510.9 366.0 L 523.6 366.0 L 536.5 366.0 L 549.1 366.0 L 562.1 366.0 L 574.7 366.0 L 587.3 366.0 L 599.9 366.0 L 612.9 366.0 L 625.5 366.0 L 638.1 366.0 L 650.8 366.0 L 663.4 365.9 L 677.2 365.9 L 689.9 366.0 L 702.5 366.0 L 715.1 366.0 L 727.8 365.9 L 740.4 366.0 L 753.0 333.0 L 766.2 95.2 L 779.8 73.3 L 793.6 183.1 L 807.7 365.7 L 821.3 365.7 L 834.5 365.7 L 847.1 365.7 L 860.1 365.9 L 872.7 366.0 L 885.6 366.0 L 898.3 366.0 L 910.9 366.0 L 923.5 366.0 L 936.5 366.0 L 949.1 366.0 L 961.7 366.0 L 974.4 366.0 L 987.0 366.0 L 999.9 366.0 L 1012.5 366.0 L 1025.2 366.0 L 1037.8 366.0 L 1050.4 366.0 L 1063.4 366.0 L 1076.0 366.0" fill="none" stroke="#F58518" stroke-width="2.8" stroke-linejoin="round" stroke-linecap="round"/>
<line x1="119.4" y1="44.0" x2="119.4" y2="366.0" stroke="#666" stroke-dasharray="4 4" stroke-width="1.2"/>
<text x="119.4" y="402.0" text-anchor="middle" font-size="12" fill="#444" font-family="Helvetica, Arial, sans-serif">submit</text>
<line x1="673.0" y1="44.0" x2="673.0" y2="366.0" stroke="#888" stroke-dasharray="4 4" stroke-width="1.2"/>
<text x="673.0" y="402.0" text-anchor="middle" font-size="12" fill="#444" font-family="Helvetica, Arial, sans-serif">metrics</text>
<line x1="86.0" y1="44.0" x2="86.0" y2="366.0" stroke="#f5f5f5" stroke-width="1"/>
<text x="86.0" y="418.0" text-anchor="middle" font-size="11" fill="#444" font-family="Helvetica, Arial, sans-serif">-0.11</text>
<line x1="209.8" y1="44.0" x2="209.8" y2="366.0" stroke="#f5f5f5" stroke-width="1"/>
<text x="209.8" y="418.0" text-anchor="middle" font-size="11" fill="#444" font-family="Helvetica, Arial, sans-serif">0.30</text>
<line x1="333.5" y1="44.0" x2="333.5" y2="366.0" stroke="#f5f5f5" stroke-width="1"/>
<text x="333.5" y="418.0" text-anchor="middle" font-size="11" fill="#444" font-family="Helvetica, Arial, sans-serif">0.71</text>
<line x1="457.2" y1="44.0" x2="457.2" y2="366.0" stroke="#f5f5f5" stroke-width="1"/>
<text x="457.2" y="418.0" text-anchor="middle" font-size="11" fill="#444" font-family="Helvetica, Arial, sans-serif">1.12</text>
<line x1="581.0" y1="44.0" x2="581.0" y2="366.0" stroke="#f5f5f5" stroke-width="1"/>
<text x="581.0" y="418.0" text-anchor="middle" font-size="11" fill="#444" font-family="Helvetica, Arial, sans-serif">1.54</text>
<line x1="704.8" y1="44.0" x2="704.8" y2="366.0" stroke="#f5f5f5" stroke-width="1"/>
<text x="704.8" y="418.0" text-anchor="middle" font-size="11" fill="#444" font-family="Helvetica, Arial, sans-serif">1.95</text>
<line x1="828.5" y1="44.0" x2="828.5" y2="366.0" stroke="#f5f5f5" stroke-width="1"/>
<text x="828.5" y="418.0" text-anchor="middle" font-size="11" fill="#444" font-family="Helvetica, Arial, sans-serif">2.36</text>
<line x1="952.2" y1="44.0" x2="952.2" y2="366.0" stroke="#f5f5f5" stroke-width="1"/>
<text x="952.2" y="418.0" text-anchor="middle" font-size="11" fill="#444" font-family="Helvetica, Arial, sans-serif">2.77</text>
<line x1="1076.0" y1="44.0" x2="1076.0" y2="366.0" stroke="#f5f5f5" stroke-width="1"/>
<text x="1076.0" y="418.0" text-anchor="middle" font-size="11" fill="#444" font-family="Helvetica, Arial, sans-serif">3.18</text>
<text x="581.0" y="386.0" text-anchor="middle" font-size="15" fill="#222" font-family="Helvetica, Arial, sans-serif">time since request submit (s)</text>
</svg>