<svg xmlns="http://www.w3.org/2000/svg" width="1100" height="420" viewBox="0 0 1100 420">
<rect width="1100" height="420" fill="white"/>
<text x="86" y="26" font-size="22" font-weight="700" font-family="Helvetica, Arial, sans-serif">tb_session_04_turn_004_reuse  phase=reuse  turn=4  prompt=25600  peak_tx=7.83 GiB/s  peak_rx=38.12 GiB/s</text>
<line x1="86" y1="366.0" x2="1076" y2="366.0" stroke="#ececec" stroke-width="1"/>
<text x="76" y="370.0" text-anchor="end" font-size="12" fill="#444" font-family="Helvetica, Arial, sans-serif">0.0</text>
<line x1="86" y1="301.6" x2="1076" y2="301.6" stroke="#ececec" stroke-width="1"/>
<text x="76" y="305.6" text-anchor="end" font-size="12" fill="#444" font-family="Helvetica, Arial, sans-serif">8.4</text>
<line x1="86" y1="237.2" x2="1076" y2="237.2" stroke="#ececec" stroke-width="1"/>
<text x="76" y="241.2" text-anchor="end" font-size="12" fill="#444" font-family="Helvetica, Arial, sans-serif">16.8</text>
<line x1="86" y1="172.8" x2="1076" y2="172.8" stroke="#ececec" stroke-width="1"/>
<text x="76" y="176.8" text-anchor="end" font-size="12" fill="#444" font-family="Helvetica, Arial, sans-serif">25.2</text>
<line x1="86" y1="108.4" x2="1076" y2="108.4" stroke="#ececec" stroke-width="1"/>
<text x="76" y="112.4" text-anchor="end" font-size="12" fill="#444" font-family="Helvetica, Arial, sans-serif">33.5</text>
<line x1="86" y1="44.0" x2="1076" y2="44.0" stroke="#ececec" stroke-width="1"/>
<text x="76" y="48.0" text-anchor="end" font-size="12" fill="#444" font-family="Helvetica, Arial, sans-serif">41.9</text>
<line x1="86" y1="366.0" x2="1076" y2="366.0" stroke="#222" stroke-width="1.4"/>
<line x1="86" y1="44.0" x2="86" y2="366.0" stroke="#222" stroke-width="1.4"/>
<rect x="103.1" y="44.0" width="816.1" height="322.0" fill="#F58518" opacity="0.08"/>
<path d="M 86.0 366.0 L 91.0 366.0 L 96.0 366.0 L 100.9 366.0 L 105.9 366.0 L 110.9 366.0 L 116.0 366.0 L 121.0 366.0 L 126.0 365.9 L 131.0 365.9 L 136.1 366.0 L 141.0 338.6 L 147.1 341.6 L 152.3 335.3 L 158.2 366.0 L 163.2 366.0 L 168.2 351.2 L 173.3 366.0 L 178.5 366.0 L 183.6 366.0 L 188.6 366.0 L 193.6 366.0 L 198.6 366.0 L 203.6 366.0 L 208.7 366.0 L 213.7 366.0 L 218.8 366.0 L 223.7 366.0 L 228.8 366.0 L 233.8 366.0 L 238.8 366.0 L 243.8 366.0 L 248.8 366.0 L 253.7 366.0 L 258.7 366.0 L 264.0 366.0 L 268.9 366.0 L 273.9 366.0 L 278.9 366.0 L 284.0 358.3 L 289.1 341.7 L 294.4 339.7 L 300.8 353.5 L 305.9 366.0 L 310.9 365.2 L 316.1 341.6 L 321.8 341.3 L 327.4 343.2 L 332.6 366.0 L 337.7 366.0 L 342.8 338.0 L 349.0 341.7 L 354.3 338.4 L 360.0 366.0 L 365.0 366.0 L 370.1 341.6 L 375.5 341.4 L 382.7 348.9 L 388.4 366.0 L 393.4 366.0 L 398.4 341.6 L 404.2 341.3 L 410.1 341.5 L 415.3 366.0 L 420.4 366.0 L 425.4 336.4 L 431.7 341.2 L 437.0 340.6 L 443.0 366.0 L 448.0 366.0 L 452.9 341.5 L 458.3 341.3 L 464.2 341.6 L 469.5 366.0 L 474.6 366.0 L 480.0 366.0 L 485.1 366.0 L 490.1 366.0 L 495.2 366.0 L 500.2 365.9 L 505.1 305.9 L 510.2 366.0 L 521.4 366.0 L 526.4 366.0 L 531.4 366.0 L 540.1 366.0 L 545.5 366.0 L 550.5 366.0 L 555.4 366.0 L 560.7 366.0 L 565.6 366.0 L 570.6 366.0 L 575.6 366.0 L 580.7 338.3 L 586.3 341.4 L 591.6 337.1 L 597.7 366.0 L 602.7 366.0 L 607.8 341.5 L 613.0 341.5 L 618.5 341.5 L 624.0 366.0 L 629.1 365.9 L 634.3 341.8 L 639.5 341.3 L 645.4 341.9 L 650.6 366.0 L 655.7 366.0 L 660.7 350.2 L 666.2 341.4 L 671.7 341.5 L 677.2 363.2 L 682.8 366.0 L 687.8 366.0 L 692.9 366.0 L 697.9 365.9 L 703.4 309.2 L 708.5 365.9 L 713.5 365.9 L 718.6 365.9 L 723.7 365.9 L 728.6 365.9 L 733.7 365.9 L 739.1 365.9 L 744.1 365.9 L 749.2 365.9 L 754.1 365.8 L 759.1 365.9 L 764.2 365.9 L 769.2 365.7 L 782.0 366.0 L 787.0 366.0 L 792.0 366.0 L 797.0 366.0 L 802.0 366.0 L 806.9 366.0 L 812.0 366.0 L 817.0 366.0 L 829.2 366.0 L 834.2 366.0 L 839.2 366.0 L 844.2 366.0 L 849.2 366.0 L 854.2 366.0 L 859.1 366.0 L 864.1 366.0 L 869.3 366.0 L 874.3 365.9 L 879.3 365.9 L 884.3 366.0 L 889.4 366.0 L 894.4 366.0 L 899.4 366.0 L 904.6 366.0 L 909.6 366.0 L 914.5 366.0 L 919.5 366.0 L 924.5 366.0 L 929.5 366.0 L 934.5 366.0 L 939.5 366.0 L 944.4 366.0 L 949.7 366.0 L 954.8 366.0 L 959.7 341.5 L 965.1 341.7 L 970.4 341.6 L 975.6 360.5 L 980.7 366.0 L 985.8 351.2 L 990.8 366.0 L 995.8 366.0 L 1000.8 366.0 L 1005.8 366.0 L 1010.8 366.0 L 1015.9 366.0 L 1020.8 366.0 L 1025.9 366.0 L 1031.0 366.0 L 1036.0 366.0 L 1041.0 366.0 L 1046.0 366.0 L 1051.0 366.0 L 1056.0 366.0 L 1060.9 366.0 L 1065.9 366.0 L 1071.0 366.0 L 1076.0 366.0" fill="none" stroke="#4C78A8" stroke-width="2.8" stroke-linejoin="round" stroke-linecap="round"/>
<path d="M 86.0 366.0 L 91.0 366.0 L 96.0 366.0 L 100.9 366.0 L 105.9 366.0 L 110.9 366.0 L 116.0 366.0 L 121.0 366.0 L 126.0 366.0 L 131.0 366.0 L 136.1 206.0 L 141.0 149.8 L 147.1 153.1 L 152.3 365.9 L 158.2 366.0 L 163.2 365.9 L 168.2 366.0 L 173.3 366.0 L 178.5 366.0 L 183.6 366.0 L 188.6 366.0 L 193.6 366.0 L 198.6 366.0 L 203.6 366.0 L 208.7 366.0 L 213.7 366.0 L 218.8 366.0 L 223.7 366.0 L 228.8 366.0 L 233.8 366.0 L 238.8 366.0 L 243.8 366.0 L 248.8 366.0 L 253.7 365.9 L 258.7 366.0 L 264.0 366.0 L 268.9 366.0 L 273.9 366.0 L 278.9 366.0 L 284.0 152.3 L 289.1 150.3 L 294.4 148.0 L 300.8 366.0 L 305.9 366.0 L 310.9 153.6 L 316.1 106.5 L 321.8 154.1 L 327.4 366.0 L 332.6 366.0 L 337.7 213.6 L 342.8 149.4 L 349.0 151.9 L 354.3 365.9 L 360.0 366.0 L 365.0 247.7 L 370.1 144.5 L 375.5 73.3 L 382.7 366.0 L 388.4 366.0 L 393.4 191.1 L 398.4 105.2 L 404.2 150.6 L 410.1 365.9 L 415.3 366.0 L 420.4 239.3 L 425.4 149.8 L 431.7 153.6 L 437.0 365.9 L 443.0 366.0 L 448.0 240.6 L 452.9 155.3 L 458.3 98.7 L 464.2 307.5 L 469.5 365.9 L 474.6 365.9 L 480.0 365.9 L 485.1 365.9 L 490.1 365.9 L 495.2 365.9 L 500.2 365.9 L 505.1 365.8 L 510.2 366.0 L 521.4 366.0 L 526.4 366.0 L 531.4 365.9 L 540.1 366.0 L 545.5 366.0 L 550.5 366.0 L 555.4 366.0 L 560.7 366.0 L 565.6 366.0 L 570.6 366.0 L 575.6 210.6 L 580.7 153.4 L 586.3 153.7 L 591.6 352.8 L 597.7 366.0 L 602.7 257.9 L 607.8 152.5 L 613.0 135.4 L 618.5 247.4 L 624.0 366.0 L 629.1 354.5 L 634.3 150.6 L 639.5 149.4 L 645.4 151.9 L 650.6 366.0 L 655.7 366.0 L 660.7 129.2 L 666.2 152.6 L 671.7 148.0 L 677.2 365.9 L 682.8 365.9 L 687.8 365.9 L 692.9 365.9 L 697.9 365.9 L 703.4 365.8 L 708.5 365.8 L 713.5 365.8 L 718.6 365.8 L 723.7 365.8 L 728.6 365.8 L 733.7 365.7 L 739.1 365.7 L 744.1 365.7 L 749.2 365.7 L 754.1 365.8 L 759.1 365.8 L 764.2 365.8 L 769.2 366.0 L 782.0 366.0 L 787.0 366.0 L 792.0 366.0 L 797.0 366.0 L 802.0 366.0 L 806.9 366.0 L 812.0 366.0 L 817.0 366.0 L 829.2 366.0 L 834.2 366.0 L 839.2 366.0 L 844.2 366.0 L 849.2 366.0 L 854.2 366.0 L 859.1 366.0 L 864.1 366.0 L 869.3 366.0 L 874.3 366.0 L 879.3 366.0 L 884.3 366.0 L 889.4 366.0 L 894.4 366.0 L 899.4 366.0 L 904.6 366.0 L 909.6 366.0 L 914.5 366.0 L 919.5 366.0 L 924.5 366.0 L 929.5 366.0 L 934.5 366.0 L 939.5 366.0 L 944.4 365.9 L 949.7 366.0 L 954.8 366.0 L 959.7 150.1 L 965.1 152.7 L 970.4 150.2 L 975.6 365.9 L 980.7 366.0 L 985.8 366.0 L 990.8 366.0 L 995.8 365.9 L 1000.8 365.9 L 1005.8 366.0 L 1010.8 366.0 L 1015.9 366.0 L 1020.8 366.0 L 1025.9 366.0 L 1031.0 366.0 L 1036.0 366.0 L 1041.0 366.0 L 1046.0 366.0 L 1051.0 366.0 L 1056.0 366.0 L 1060.9 366.0 L 1065.9 366.0 L 1071.0 366.0 L 1076.0 366.0" fill="none" stroke="#F58518" stroke-width="2.8" stroke-linejoin="round" stroke-linecap="round"/>
<line x1="103.1" y1="44.0" x2="103.1" y2="366.0" stroke="#666" stroke-dasharray="4 4" stroke-width="1.2"/>
<text x="103.1" y="402.0" text-anchor="middle" font-size="12" fill="#444" font-family="Helvetica, Arial, sans-serif">submit</text>
<line x1="919.2" y1="44.0" x2="919.2" y2="366.0" stroke="#888" stroke-dasharray="4 4" stroke-width="1.2"/>
<text x="919.2" y="402.0" text-anchor="middle" font-size="12" fill="#444" font-family="Helvetica, Arial, sans-serif">metrics</text>
<line x1="86.0" y1="44.0" x2="86.0" y2="366.0" stroke="#f5f5f5" stroke-width="1"/>
<text x="86.0" y="418.0" text-anchor="middle" font-size="11" fill="#444" font-family="Helvetica, Arial, sans-serif">-0.14</text>
<line x1="209.8" y1="44.0" x2="209.8" y2="366.0" stroke="#f5f5f5" stroke-width="1"/>
<text x="209.8" y="418.0" text-anchor="middle" font-size="11" fill="#444" font-family="Helvetica, Arial, sans-serif">0.90</text>
<line x1="333.5" y1="44.0" x2="333.5" y2="366.0" stroke="#f5f5f5" stroke-width="1"/>
<text x="333.5" y="418.0" text-anchor="middle" font-size="11" fill="#444" font-family="Helvetica, Arial, sans-serif">1.94</text>
<line x1="457.2" y1="44.0" x2="457.2" y2="366.0" stroke="#f5f5f5" stroke-width="1"/>
<text x="457.2" y="418.0" text-anchor="middle" font-size="11" fill="#444" font-family="Helvetica, Arial, sans-serif">2.99</text>
<line x1="581.0" y1="44.0" x2="581.0" y2="366.0" stroke="#f5f5f5" stroke-width="1"/>
<text x="581.0" y="418.0" text-anchor="middle" font-size="11" fill="#444" font-family="Helvetica, Arial, sans-serif">4.03</text>
<line x1="704.8" y1="44.0" x2="704.8" y2="366.0" stroke="#f5f5f5" stroke-width="1"/>
<text x="704.8" y="418.0" text-anchor="middle" font-size="11" fill="#444" font-family="Helvetica, Arial, sans-serif">5.07</text>
<line x1="828.5" y1="44.0" x2="828.5" y2="366.0" stroke="#f5f5f5" stroke-width="1"/>
<text x="828.5" y="418.0" text-anchor="middle" font-size="11" fill="#444" font-family="Helvetica, Arial, sans-serif">6.11</text>
<line x1="952.2" y1="44.0" x2="952.2" y2="366.0" stroke="#f5f5f5" stroke-width="1"/>
<text x="952.2" y="418.0" text-anchor="middle" font-size="11" fill="#444" font-family="Helvetica, Arial, sans-serif">7.16</text>
<line x1="1076.0" y1="44.0" x2="1076.0" y2="366.0" stroke="#f5f5f5" stroke-width="1"/>
<text x="1076.0" y="418.0" text-anchor="middle" font-size="11" fill="#444" font-family="Helvetica, Arial, sans-serif">8.20</text>
<text x="581.0" y="386.0" text-anchor="middle" font-size="15" fill="#222" font-family="Helvetica, Arial, sans-serif">time since request submit (s)</text>
</svg>