<svg xmlns="http://www.w3.org/2000/svg" width="1100" height="420" viewBox="0 0 1100 420">
<rect width="1100" height="420" fill="white"/>
<text x="86" y="26" font-size="22" font-weight="700" font-family="Helvetica, Arial, sans-serif">tb_session_03_turn_000_seed  phase=seed  turn=0  prompt=24576  peak_tx=3.63 GiB/s  peak_rx=28.13 GiB/s</text>
<line x1="86" y1="366.0" x2="1076" y2="366.0" stroke="#ececec" stroke-width="1"/>
<text x="76" y="370.0" text-anchor="end" font-size="12" fill="#444" font-family="Helvetica, Arial, sans-serif">0.0</text>
<line x1="86" y1="301.6" x2="1076" y2="301.6" stroke="#ececec" stroke-width="1"/>
<text x="76" y="305.6" text-anchor="end" font-size="12" fill="#444" font-family="Helvetica, Arial, sans-serif">6.2</text>
<line x1="86" y1="237.2" x2="1076" y2="237.2" stroke="#ececec" stroke-width="1"/>
<text x="76" y="241.2" text-anchor="end" font-size="12" fill="#444" font-family="Helvetica, Arial, sans-serif">12.4</text>
<line x1="86" y1="172.8" x2="1076" y2="172.8" stroke="#ececec" stroke-width="1"/>
<text x="76" y="176.8" text-anchor="end" font-size="12" fill="#444" font-family="Helvetica, Arial, sans-serif">18.6</text>
<line x1="86" y1="108.4" x2="1076" y2="108.4" stroke="#ececec" stroke-width="1"/>
<text x="76" y="112.4" text-anchor="end" font-size="12" fill="#444" font-family="Helvetica, Arial, sans-serif">24.8</text>
<line x1="86" y1="44.0" x2="1076" y2="44.0" stroke="#ececec" stroke-width="1"/>
<text x="76" y="48.0" text-anchor="end" font-size="12" fill="#444" font-family="Helvetica, Arial, sans-serif">30.9</text>
<line x1="86" y1="366.0" x2="1076" y2="366.0" stroke="#222" stroke-width="1.4"/>
<line x1="86" y1="44.0" x2="86" y2="366.0" stroke="#222" stroke-width="1.4"/>
<rect x="125.5" y="44.0" width="556.0" height="322.0" fill="#4C78A8" opacity="0.08"/>
<path d="M 86.0 366.0 L 98.6 366.0 L 111.3 366.0 L 123.9 366.0 L 136.6 366.0 L 149.6 366.0 L 162.2 366.0 L 175.5 366.0 L 188.1 366.0 L 200.8 366.0 L 213.7 332.2 L 227.3 328.2 L 241.7 336.3 L 254.7 365.9 L 267.6 365.9 L 280.6 365.9 L 293.2 365.9 L 306.2 365.9 L 319.4 366.0 L 332.4 366.0 L 345.0 366.0 L 357.7 366.0 L 370.6 366.0 L 383.3 366.0 L 395.9 366.0 L 408.6 366.0 L 421.2 366.0 L 433.9 366.0 L 446.5 366.0 L 459.5 366.0 L 472.1 366.0 L 484.8 366.0 L 497.4 366.0 L 510.1 366.0 L 522.7 366.0 L 535.4 366.0 L 548.0 366.0 L 561.0 366.0 L 573.6 366.0 L 586.3 365.9 L 598.9 366.0 L 611.6 366.0 L 624.5 366.0 L 637.2 366.0 L 649.8 366.0 L 662.5 366.0 L 675.1 366.0 L 688.1 366.0 L 700.7 366.0 L 713.4 366.0 L 726.0 366.0 L 738.7 366.0 L 751.3 366.0 L 764.0 354.5 L 779.9 332.9 L 793.5 332.8 L 807.0 351.7 L 820.0 365.9 L 832.9 365.9 L 846.2 365.9 L 859.1 365.9 L 871.8 366.0 L 884.7 366.0 L 898.3 366.0 L 910.9 366.0 L 923.6 366.0 L 936.2 366.0 L 948.9 366.0 L 961.9 366.0 L 974.5 366.0 L 987.1 366.0 L 999.8 366.0 L 1012.8 366.0 L 1025.4 366.0 L 1038.1 366.0 L 1050.7 366.0 L 1063.4 366.0 L 1076.0 366.0" fill="none" stroke="#4C78A8" stroke-width="2.8" stroke-linejoin="round" stroke-linecap="round"/>
<path d="M 86.0 366.0 L 98.6 366.0 L 111.3 366.0 L 123.9 366.0 L 136.6 366.0 L 149.6 366.0 L 162.2 366.0 L 175.5 366.0 L 188.1 366.0 L 200.8 77.5 L 213.7 78.4 L 227.3 77.9 L 241.7 365.7 L 254.7 365.6 L 267.6 365.6 L 280.6 365.7 L 293.2 365.7 L 306.2 366.0 L 319.4 366.0 L 332.4 366.0 L 345.0 366.0 L 357.7 366.0 L 370.6 366.0 L 383.3 366.0 L 395.9 366.0 L 408.6 366.0 L 421.2 366.0 L 433.9 366.0 L 446.5 366.0 L 459.5 366.0 L 472.1 366.0 L 484.8 366.0 L 497.4 366.0 L 510.1 366.0 L 522.7 366.0 L 535.4 366.0 L 548.0 366.0 L 561.0 366.0 L 573.6 365.9 L 586.3 365.9 L 598.9 366.0 L 611.6 366.0 L 624.5 366.0 L 637.2 366.0 L 649.8 366.0 L 662.5 366.0 L 675.1 366.0 L 688.1 366.0 L 700.7 366.0 L 713.4 366.0 L 726.0 366.0 L 738.7 366.0 L 751.3 366.0 L 764.0 75.6 L 779.9 79.0 L 793.5 73.3 L 807.0 365.7 L 820.0 365.7 L 832.9 365.7 L 846.2 365.7 L 859.1 365.7 L 871.8 366.0 L 884.7 365.9 L 898.3 365.9 L 910.9 366.0 L 923.6 366.0 L 936.2 366.0 L 948.9 366.0 L 961.9 366.0 L 974.5 366.0 L 987.1 366.0 L 999.8 366.0 L 1012.8 366.0 L 1025.4 366.0 L 1038.1 366.0 L 1050.7 366.0 L 1063.4 366.0 L 1076.0 366.0" fill="none" stroke="#F58518" stroke-width="2.8" stroke-linejoin="round" stroke-linecap="round"/>
<line x1="125.5" y1="44.0" x2="125.5" y2="366.0" stroke="#666" stroke-dasharray="4 4" stroke-width="1.2"/>
<text x="125.5" y="402.0" text-anchor="middle" font-size="12" fill="#444" font-family="Helvetica, Arial, sans-serif">submit</text>
<line x1="681.4" y1="44.0" x2="681.4" y2="366.0" stroke="#888" stroke-dasharray="4 4" stroke-width="1.2"/>
<text x="681.4" y="402.0" text-anchor="middle" font-size="12" fill="#444" font-family="Helvetica, Arial, sans-serif">metrics</text>
<line x1="86.0" y1="44.0" x2="86.0" y2="366.0" stroke="#f5f5f5" stroke-width="1"/>
<text x="86.0" y="418.0" text-anchor="middle" font-size="11" fill="#444" font-family="Helvetica, Arial, sans-serif">-0.13</text>
<line x1="209.8" y1="44.0" x2="209.8" y2="366.0" stroke="#f5f5f5" stroke-width="1"/>
<text x="209.8" y="418.0" text-anchor="middle" font-size="11" fill="#444" font-family="Helvetica, Arial, sans-serif">0.28</text>
<line x1="333.5" y1="44.0" x2="333.5" y2="366.0" stroke="#f5f5f5" stroke-width="1"/>
<text x="333.5" y="418.0" text-anchor="middle" font-size="11" fill="#444" font-family="Helvetica, Arial, sans-serif">0.69</text>
<line x1="457.3" y1="44.0" x2="457.3" y2="366.0" stroke="#f5f5f5" stroke-width="1"/>
<text x="457.3" y="418.0" text-anchor="middle" font-size="11" fill="#444" font-family="Helvetica, Arial, sans-serif">1.10</text>
<line x1="581.0" y1="44.0" x2="581.0" y2="366.0" stroke="#f5f5f5" stroke-width="1"/>
<text x="581.0" y="418.0" text-anchor="middle" font-size="11" fill="#444" font-family="Helvetica, Arial, sans-serif">1.51</text>
<line x1="704.8" y1="44.0" x2="704.8" y2="366.0" stroke="#f5f5f5" stroke-width="1"/>
<text x="704.8" y="418.0" text-anchor="middle" font-size="11" fill="#444" font-family="Helvetica, Arial, sans-serif">1.92</text>
<line x1="828.5" y1="44.0" x2="828.5" y2="366.0" stroke="#f5f5f5" stroke-width="1"/>
<text x="828.5" y="418.0" text-anchor="middle" font-size="11" fill="#444" font-family="Helvetica, Arial, sans-serif">2.33</text>
<line x1="952.2" y1="44.0" x2="952.2" y2="366.0" stroke="#f5f5f5" stroke-width="1"/>
<text x="952.2" y="418.0" text-anchor="middle" font-size="11" fill="#444" font-family="Helvetica, Arial, sans-serif">2.75</text>
<line x1="1076.0" y1="44.0" x2="1076.0" y2="366.0" stroke="#f5f5f5" stroke-width="1"/>
<text x="1076.0" y="418.0" text-anchor="middle" font-size="11" fill="#444" font-family="Helvetica, Arial, sans-serif">3.16</text>
<text x="581.0" y="386.0" text-anchor="middle" font-size="15" fill="#222" font-family="Helvetica, Arial, sans-serif">time since request submit (s)</text>
</svg>