<svg xmlns="http://www.w3.org/2000/svg" width="1100" height="420" viewBox="0 0 1100 420">
<rect width="1100" height="420" fill="white"/>
<text x="86" y="26" font-size="22" font-weight="700" font-family="Helvetica, Arial, sans-serif">tb_session_06_turn_000_seed  phase=seed  turn=0  prompt=24576  peak_tx=3.57 GiB/s  peak_rx=39.15 GiB/s</text>
<line x1="86" y1="366.0" x2="1076" y2="366.0" stroke="#ececec" stroke-width="1"/>
<text x="76" y="370.0" text-anchor="end" font-size="12" fill="#444" font-family="Helvetica, Arial, sans-serif">0.0</text>
<line x1="86" y1="301.6" x2="1076" y2="301.6" stroke="#ececec" stroke-width="1"/>
<text x="76" y="305.6" text-anchor="end" font-size="12" fill="#444" font-family="Helvetica, Arial, sans-serif">8.6</text>
<line x1="86" y1="237.2" x2="1076" y2="237.2" stroke="#ececec" stroke-width="1"/>
<text x="76" y="241.2" text-anchor="end" font-size="12" fill="#444" font-family="Helvetica, Arial, sans-serif">17.2</text>
<line x1="86" y1="172.8" x2="1076" y2="172.8" stroke="#ececec" stroke-width="1"/>
<text x="76" y="176.8" text-anchor="end" font-size="12" fill="#444" font-family="Helvetica, Arial, sans-serif">25.8</text>
<line x1="86" y1="108.4" x2="1076" y2="108.4" stroke="#ececec" stroke-width="1"/>
<text x="76" y="112.4" text-anchor="end" font-size="12" fill="#444" font-family="Helvetica, Arial, sans-serif">34.5</text>
<line x1="86" y1="44.0" x2="1076" y2="44.0" stroke="#ececec" stroke-width="1"/>
<text x="76" y="48.0" text-anchor="end" font-size="12" fill="#444" font-family="Helvetica, Arial, sans-serif">43.1</text>
<line x1="86" y1="366.0" x2="1076" y2="366.0" stroke="#222" stroke-width="1.4"/>
<line x1="86" y1="44.0" x2="86" y2="366.0" stroke="#222" stroke-width="1.4"/>
<rect x="129.2" y="44.0" width="549.4" height="322.0" fill="#4C78A8" opacity="0.08"/>
<path d="M 86.0 366.0 L 98.4 366.0 L 110.9 366.0 L 123.6 366.0 L 136.0 366.0 L 148.4 366.0 L 160.9 366.0 L 173.3 366.0 L 185.7 366.0 L 198.1 366.0 L 210.6 349.1 L 223.6 339.3 L 239.6 342.2 L 252.9 365.9 L 265.3 365.9 L 278.0 365.9 L 290.5 365.9 L 303.5 365.9 L 316.2 366.0 L 328.6 366.0 L 341.0 366.0 L 353.5 366.0 L 365.9 366.0 L 378.9 366.0 L 391.3 366.0 L 403.8 366.0 L 416.2 366.0 L 428.6 366.0 L 441.3 366.0 L 453.8 366.0 L 466.2 365.9 L 478.6 365.9 L 491.1 366.0 L 503.8 366.0 L 516.2 366.0 L 528.6 366.0 L 541.1 366.0 L 553.5 366.0 L 565.9 366.0 L 578.3 366.0 L 591.1 366.0 L 603.5 366.0 L 615.9 366.0 L 628.3 366.0 L 641.1 366.0 L 653.5 366.0 L 665.9 366.0 L 678.3 366.0 L 690.8 366.0 L 703.5 366.0 L 715.9 366.0 L 728.3 366.0 L 740.8 366.0 L 753.5 366.0 L 765.9 342.4 L 779.8 341.3 L 798.2 351.0 L 813.0 365.9 L 825.7 365.9 L 838.1 365.9 L 850.8 365.9 L 863.9 366.0 L 876.3 366.0 L 888.7 366.0 L 901.1 366.0 L 913.6 366.0 L 926.3 366.0 L 938.7 366.0 L 951.1 366.0 L 963.6 366.0 L 976.6 366.0 L 989.0 366.0 L 1001.4 366.0 L 1013.9 366.0 L 1026.3 366.0 L 1038.7 366.0 L 1051.1 366.0 L 1063.6 366.0 L 1076.0 366.0" fill="none" stroke="#4C78A8" stroke-width="2.8" stroke-linejoin="round" stroke-linecap="round"/>
<path d="M 86.0 366.0 L 98.4 366.0 L 110.9 366.0 L 123.6 366.0 L 136.0 366.0 L 148.4 365.9 L 160.9 365.9 L 173.3 365.9 L 185.7 366.0 L 198.1 366.0 L 210.6 155.9 L 223.6 156.6 L 239.6 158.7 L 252.9 365.8 L 265.3 365.8 L 278.0 365.8 L 290.5 365.8 L 303.5 365.8 L 316.2 366.0 L 328.6 366.0 L 341.0 366.0 L 353.5 366.0 L 365.9 366.0 L 378.9 366.0 L 391.3 366.0 L 403.8 366.0 L 416.2 366.0 L 428.6 366.0 L 441.3 366.0 L 453.8 366.0 L 466.2 366.0 L 478.6 366.0 L 491.1 366.0 L 503.8 366.0 L 516.2 366.0 L 528.6 366.0 L 541.1 366.0 L 553.5 366.0 L 565.9 366.0 L 578.3 366.0 L 591.1 366.0 L 603.5 366.0 L 615.9 366.0 L 628.3 366.0 L 641.1 366.0 L 653.5 366.0 L 665.9 366.0 L 678.3 366.0 L 690.8 366.0 L 703.5 366.0 L 715.9 366.0 L 728.3 365.9 L 740.8 366.0 L 753.5 325.9 L 765.9 139.0 L 779.8 73.3 L 798.2 365.8 L 813.0 365.8 L 825.7 365.8 L 838.1 365.8 L 850.8 365.8 L 863.9 366.0 L 876.3 366.0 L 888.7 366.0 L 901.1 366.0 L 913.6 366.0 L 926.3 366.0 L 938.7 366.0 L 951.1 366.0 L 963.6 366.0 L 976.6 366.0 L 989.0 366.0 L 1001.4 366.0 L 1013.9 366.0 L 1026.3 366.0 L 1038.7 366.0 L 1051.1 366.0 L 1063.6 366.0 L 1076.0 366.0" fill="none" stroke="#F58518" stroke-width="2.8" stroke-linejoin="round" stroke-linecap="round"/>
<line x1="129.2" y1="44.0" x2="129.2" y2="366.0" stroke="#666" stroke-dasharray="4 4" stroke-width="1.2"/>
<text x="129.2" y="402.0" text-anchor="middle" font-size="12" fill="#444" font-family="Helvetica, Arial, sans-serif">submit</text>
<line x1="678.6" y1="44.0" x2="678.6" y2="366.0" stroke="#888" stroke-dasharray="4 4" stroke-width="1.2"/>
<text x="678.6" y="402.0" text-anchor="middle" font-size="12" fill="#444" font-family="Helvetica, Arial, sans-serif">metrics</text>
<line x1="86.0" y1="44.0" x2="86.0" y2="366.0" stroke="#f5f5f5" stroke-width="1"/>
<text x="86.0" y="418.0" text-anchor="middle" font-size="11" fill="#444" font-family="Helvetica, Arial, sans-serif">-0.15</text>
<line x1="209.8" y1="44.0" x2="209.8" y2="366.0" stroke="#f5f5f5" stroke-width="1"/>
<text x="209.8" y="418.0" text-anchor="middle" font-size="11" fill="#444" font-family="Helvetica, Arial, sans-serif">0.27</text>
<line x1="333.5" y1="44.0" x2="333.5" y2="366.0" stroke="#f5f5f5" stroke-width="1"/>
<text x="333.5" y="418.0" text-anchor="middle" font-size="11" fill="#444" font-family="Helvetica, Arial, sans-serif">0.69</text>
<line x1="457.2" y1="44.0" x2="457.2" y2="366.0" stroke="#f5f5f5" stroke-width="1"/>
<text x="457.2" y="418.0" text-anchor="middle" font-size="11" fill="#444" font-family="Helvetica, Arial, sans-serif">1.11</text>
<line x1="581.0" y1="44.0" x2="581.0" y2="366.0" stroke="#f5f5f5" stroke-width="1"/>
<text x="581.0" y="418.0" text-anchor="middle" font-size="11" fill="#444" font-family="Helvetica, Arial, sans-serif">1.53</text>
<line x1="704.8" y1="44.0" x2="704.8" y2="366.0" stroke="#f5f5f5" stroke-width="1"/>
<text x="704.8" y="418.0" text-anchor="middle" font-size="11" fill="#444" font-family="Helvetica, Arial, sans-serif">1.95</text>
<line x1="828.5" y1="44.0" x2="828.5" y2="366.0" stroke="#f5f5f5" stroke-width="1"/>
<text x="828.5" y="418.0" text-anchor="middle" font-size="11" fill="#444" font-family="Helvetica, Arial, sans-serif">2.36</text>
<line x1="952.2" y1="44.0" x2="952.2" y2="366.0" stroke="#f5f5f5" stroke-width="1"/>
<text x="952.2" y="418.0" text-anchor="middle" font-size="11" fill="#444" font-family="Helvetica, Arial, sans-serif">2.78</text>
<line x1="1076.0" y1="44.0" x2="1076.0" y2="366.0" stroke="#f5f5f5" stroke-width="1"/>
<text x="1076.0" y="418.0" text-anchor="middle" font-size="11" fill="#444" font-family="Helvetica, Arial, sans-serif">3.20</text>
<text x="581.0" y="386.0" text-anchor="middle" font-size="15" fill="#222" font-family="Helvetica, Arial, sans-serif">time since request submit (s)</text>
</svg>