<svg xmlns="http://www.w3.org/2000/svg" width="1100" height="420" viewBox="0 0 1100 420">
<rect width="1100" height="420" fill="white"/>
<text x="86" y="26" font-size="22" font-weight="700" font-family="Helvetica, Arial, sans-serif">tb_session_11_turn_001_reuse  phase=reuse  turn=1  prompt=24832  peak_tx=15.46 GiB/s  peak_rx=31.90 GiB/s</text>
<line x1="86" y1="366.0" x2="1076" y2="366.0" stroke="#ececec" stroke-width="1"/>
<text x="76" y="370.0" text-anchor="end" font-size="12" fill="#444" font-family="Helvetica, Arial, sans-serif">0.0</text>
<line x1="86" y1="301.6" x2="1076" y2="301.6" stroke="#ececec" stroke-width="1"/>
<text x="76" y="305.6" text-anchor="end" font-size="12" fill="#444" font-family="Helvetica, Arial, sans-serif">7.0</text>
<line x1="86" y1="237.2" x2="1076" y2="237.2" stroke="#ececec" stroke-width="1"/>
<text x="76" y="241.2" text-anchor="end" font-size="12" fill="#444" font-family="Helvetica, Arial, sans-serif">14.0</text>
<line x1="86" y1="172.8" x2="1076" y2="172.8" stroke="#ececec" stroke-width="1"/>
<text x="76" y="176.8" text-anchor="end" font-size="12" fill="#444" font-family="Helvetica, Arial, sans-serif">21.1</text>
<line x1="86" y1="108.4" x2="1076" y2="108.4" stroke="#ececec" stroke-width="1"/>
<text x="76" y="112.4" text-anchor="end" font-size="12" fill="#444" font-family="Helvetica, Arial, sans-serif">28.1</text>
<line x1="86" y1="44.0" x2="1076" y2="44.0" stroke="#ececec" stroke-width="1"/>
<text x="76" y="48.0" text-anchor="end" font-size="12" fill="#444" font-family="Helvetica, Arial, sans-serif">35.1</text>
<line x1="86" y1="366.0" x2="1076" y2="366.0" stroke="#222" stroke-width="1.4"/>
<line x1="86" y1="44.0" x2="86" y2="366.0" stroke="#222" stroke-width="1.4"/>
<rect x="89.7" y="44.0" width="952.3" height="322.0" fill="#F58518" opacity="0.08"/>
<path d="M 86.0 366.0 L 87.1 366.0 L 88.1 366.0 L 89.2 365.9 L 90.3 365.9 L 91.4 366.0 L 92.4 366.0 L 93.5 366.0 L 94.6 366.0 L 95.6 366.0 L 96.7 366.0 L 97.8 366.0 L 98.8 337.0 L 100.0 336.6 L 101.2 336.6 L 102.3 366.0 L 103.4 348.2 L 104.5 346.3 L 105.6 366.0 L 106.6 366.0 L 107.7 366.0 L 108.8 366.0 L 109.9 346.9 L 111.0 366.0 L 112.1 366.0 L 113.2 366.0 L 114.3 366.0 L 115.3 288.8 L 116.4 366.0 L 117.5 366.0 L 118.7 366.0 L 119.8 366.0 L 120.9 224.2 L 122.0 366.0 L 123.1 366.0 L 124.2 366.0 L 125.3 366.0 L 126.4 366.0 L 127.4 246.1 L 128.5 366.0 L 129.6 366.0 L 130.7 366.0 L 131.8 366.0 L 132.9 366.0 L 134.0 224.2 L 135.0 366.0 L 136.1 366.0 L 137.2 366.0 L 138.3 366.0 L 139.4 366.0 L 140.5 358.7 L 141.6 365.9 L 142.6 365.9 L 143.7 365.9 L 144.8 366.0 L 145.9 366.0 L 147.0 366.0 L 148.0 303.7 L 149.1 366.0 L 150.2 366.0 L 151.3 366.0 L 152.3 366.0 L 153.4 366.0 L 154.5 366.0 L 155.6 366.0 L 156.7 366.0 L 157.8 366.0 L 158.8 366.0 L 159.9 366.0 L 161.0 366.0 L 162.1 366.0 L 163.2 366.0 L 164.2 269.4 L 165.4 366.0 L 166.5 366.0 L 167.5 366.0 L 168.6 366.0 L 169.7 366.0 L 170.8 366.0 L 171.9 366.0 L 173.0 366.0 L 174.1 366.0 L 175.2 366.0 L 176.3 366.0 L 177.3 366.0 L 178.4 366.0 L 179.6 366.0 L 180.6 366.0 L 181.7 366.0 L 182.8 366.0 L 183.9 366.0 L 184.9 366.0 L 186.0 255.5 L 187.1 366.0 L 188.2 366.0 L 189.3 366.0 L 190.4 366.0 L 191.4 259.7 L 192.5 366.0 L 193.6 366.0 L 194.7 365.9 L 195.8 365.9 L 196.9 365.9 L 198.0 366.0 L 199.1 366.0 L 200.1 366.0 L 201.2 366.0 L 202.3 366.0 L 203.4 262.1 L 204.5 366.0 L 205.6 366.0 L 206.6 366.0 L 207.7 366.0 L 208.8 366.0 L 209.8 288.4 L 210.9 366.0 L 212.0 366.0 L 213.1 366.0 L 214.2 366.0 L 215.3 366.0 L 216.4 366.0 L 217.5 365.9 L 218.8 366.0 L 219.9 366.0 L 220.9 366.0 L 222.0 365.9 L 223.1 365.9 L 224.2 224.2 L 225.4 366.0 L 226.5 366.0 L 227.5 366.0 L 228.6 366.0 L 229.7 366.0 L 230.8 366.0 L 231.9 356.6 L 233.0 366.0 L 234.1 366.0 L 235.2 366.0 L 236.2 366.0 L 237.3 366.0 L 238.5 366.0 L 239.5 275.4 L 240.6 366.0 L 241.7 366.0 L 242.8 366.0 L 243.9 366.0 L 244.9 366.0 L 246.1 366.0 L 247.2 336.5 L 249.1 365.9 L 250.2 365.9 L 251.4 366.0 L 252.4 366.0 L 253.5 366.0 L 254.6 366.0 L 255.6 366.0 L 256.7 366.0 L 257.8 366.0 L 258.9 366.0 L 259.9 366.0 L 261.0 366.0 L 262.1 366.0 L 263.1 366.0 L 264.2 366.0 L 265.3 320.9 L 266.5 361.9 L 267.5 366.0 L 268.6 366.0 L 269.7 366.0 L 270.7 366.0 L 271.8 366.0 L 272.9 337.6 L 274.0 366.0 L 275.1 366.0 L 276.2 366.0 L 277.2 366.0 L 278.3 295.1 L 279.4 366.0 L 280.4 366.0 L 281.5 366.0 L 282.6 366.0 L 283.7 366.0 L 284.7 266.6 L 285.8 366.0 L 286.9 366.0 L 288.0 366.0 L 289.0 366.0 L 290.1 366.0 L 291.2 312.8 L 292.3 366.0 L 293.3 366.0 L 294.4 366.0 L 295.4 366.0 L 296.5 366.0 L 297.6 366.0 L 298.6 316.8 L 299.7 366.0 L 300.8 366.0 L 301.9 365.9 L 303.0 365.9 L 304.1 366.0 L 305.1 359.4 L 306.2 366.0 L 307.3 366.0 L 308.3 366.0 L 309.4 366.0 L 310.5 366.0 L 311.6 366.0 L 312.7 366.0 L 313.7 366.0 L 314.8 366.0 L 315.9 366.0 L 317.0 366.0 L 318.0 366.0 L 319.1 366.0 L 320.2 366.0 L 321.2 243.8 L 322.3 366.0 L 323.4 366.0 L 324.5 366.0 L 325.6 366.0 L 326.6 366.0 L 327.7 366.0 L 328.8 365.9 L 330.0 365.9 L 331.0 366.0 L 332.1 366.0 L 333.2 366.0 L 334.3 366.0 L 335.3 366.0 L 336.4 366.0 L 337.5 366.0 L 338.6 366.0 L 339.7 353.6 L 340.8 366.0 L 341.9 366.0 L 343.0 366.0 L 344.0 366.0 L 345.2 366.0 L 346.2 231.2 L 347.3 366.0 L 348.4 366.0 L 349.5 366.0 L 350.5 366.0 L 351.6 366.0 L 352.8 366.0 L 353.8 366.0 L 354.9 366.0 L 356.0 366.0 L 357.1 366.0 L 358.1 290.0 L 359.2 366.0 L 360.4 366.0 L 361.5 366.0 L 362.5 366.0 L 363.6 366.0 L 364.7 312.1 L 365.7 366.0 L 366.8 366.0 L 367.9 366.0 L 369.0 366.0 L 370.1 366.0 L 371.2 366.0 L 372.2 313.2 L 373.3 366.0 L 374.4 366.0 L 375.5 366.0 L 376.5 366.0 L 377.7 366.0 L 378.7 366.0 L 379.8 366.0 L 380.9 366.0 L 382.0 365.9 L 383.0 365.9 L 384.1 366.0 L 385.3 366.0 L 386.4 330.5 L 387.5 366.0 L 388.5 366.0 L 389.6 366.0 L 390.7 366.0 L 391.8 366.0 L 392.9 366.0 L 394.0 366.0 L 395.0 366.0 L 396.1 366.0 L 397.2 366.0 L 398.3 366.0 L 399.3 366.0 L 400.5 366.0 L 401.5 366.0 L 402.6 224.2 L 403.8 366.0 L 404.8 366.0 L 405.9 366.0 L 407.0 366.0 L 408.1 366.0 L 409.2 366.0 L 410.3 366.0 L 411.3 224.2 L 412.4 358.1 L 413.5 366.0 L 414.6 366.0 L 415.7 366.0 L 416.8 366.0 L 417.8 366.0 L 418.9 366.0 L 420.0 278.2 L 421.1 366.0 L 422.2 366.0 L 423.3 366.0 L 424.3 366.0 L 425.4 227.3 L 426.5 366.0 L 427.6 366.0 L 428.6 366.0 L 429.7 366.0 L 430.8 311.3 L 432.0 366.0 L 433.1 366.0 L 434.1 366.0 L 435.2 365.9 L 436.3 365.9 L 437.4 230.4 L 438.5 366.0 L 439.7 366.0 L 440.7 366.0 L 441.8 366.0 L 442.9 366.0 L 444.0 310.1 L 445.0 366.0 L 446.2 366.0 L 447.2 366.0 L 448.3 366.0 L 449.4 366.0 L 450.5 224.2 L 451.6 366.0 L 452.6 366.0 L 453.7 366.0 L 454.8 366.0 L 455.9 366.0 L 457.0 316.8 L 458.0 366.0 L 459.1 366.0 L 460.2 366.0 L 461.3 366.0 L 462.4 365.9 L 463.5 366.0 L 464.6 224.9 L 465.7 366.0 L 466.7 366.0 L 467.8 366.0 L 468.9 366.0 L 470.0 366.0 L 471.1 366.0 L 472.1 224.2 L 473.2 366.0 L 474.3 366.0 L 475.4 366.0 L 476.4 366.0 L 477.5 366.0 L 478.6 366.0 L 479.7 342.7 L 480.8 366.0 L 481.9 366.0 L 482.9 366.0 L 484.0 366.0 L 485.1 366.0 L 486.2 366.0 L 487.3 366.0 L 488.4 224.1 L 489.5 365.9 L 490.6 366.0 L 491.7 366.0 L 492.7 366.0 L 493.8 365.9 L 495.6 366.0 L 496.7 366.0 L 497.8 362.1 L 498.8 366.0 L 500.0 366.0 L 501.1 366.0 L 502.1 366.0 L 503.2 366.0 L 504.3 264.4 L 505.4 366.0 L 506.4 366.0 L 507.5 366.0 L 508.6 366.0 L 509.7 241.9 L 510.8 366.0 L 511.8 366.0 L 512.9 366.0 L 514.0 366.0 L 515.1 365.9 L 516.1 365.9 L 517.2 366.0 L 518.3 366.0 L 519.4 366.0 L 520.5 366.0 L 521.6 224.2 L 522.6 366.0 L 523.7 366.0 L 524.8 366.0 L 525.9 366.0 L 527.0 366.0 L 528.1 269.5 L 529.1 366.0 L 530.2 366.0 L 531.3 366.0 L 532.4 366.0 L 533.5 366.0 L 534.5 224.2 L 535.6 366.0 L 536.7 366.0 L 537.8 366.0 L 538.9 366.0 L 539.9 365.8 L 541.8 244.1 L 542.8 365.9 L 543.9 366.0 L 545.0 366.0 L 546.1 366.0 L 547.2 366.0 L 548.3 366.0 L 549.4 360.4 L 550.5 366.0 L 551.6 366.0 L 552.6 366.0 L 553.7 366.0 L 554.8 366.0 L 555.9 366.0 L 557.0 311.1 L 558.1 366.0 L 559.1 366.0 L 560.2 366.0 L 561.3 366.0 L 562.4 366.0 L 563.5 366.0 L 564.6 268.7 L 565.7 366.0 L 566.7 366.0 L 567.8 365.9 L 568.9 366.0 L 570.0 366.0 L 571.1 366.0 L 572.2 366.0 L 573.3 227.1 L 574.4 366.0 L 575.5 366.0 L 576.5 366.0 L 577.6 366.0 L 578.7 366.0 L 579.8 366.0 L 580.9 366.0 L 582.0 224.3 L 583.0 366.0 L 584.1 366.0 L 585.2 366.0 L 586.3 366.0 L 587.4 366.0 L 588.5 263.7 L 589.5 366.0 L 590.6 366.0 L 591.7 366.0 L 592.8 366.0 L 594.0 321.4 L 595.1 366.0 L 596.3 366.0 L 597.4 366.0 L 598.5 366.0 L 599.6 269.6 L 600.7 366.0 L 601.8 366.0 L 602.9 366.0 L 604.0 366.0 L 605.1 361.9 L 606.1 366.0 L 607.3 366.0 L 608.4 366.0 L 609.4 366.0 L 610.5 366.0 L 611.6 247.0 L 612.6 366.0 L 613.7 366.0 L 614.8 366.0 L 615.9 366.0 L 617.0 366.0 L 618.1 313.7 L 619.1 366.0 L 620.2 366.0 L 621.3 365.9 L 622.4 365.9 L 623.5 366.0 L 624.5 366.0 L 625.6 312.4 L 626.7 366.0 L 627.8 366.0 L 628.8 366.0 L 629.9 366.0 L 631.0 366.0 L 632.1 366.0 L 633.2 366.0 L 634.3 366.0 L 635.3 366.0 L 636.4 366.0 L 637.5 366.0 L 638.6 366.0 L 639.6 366.0 L 640.7 360.1 L 641.8 366.0 L 642.9 366.0 L 644.0 366.0 L 645.0 366.0 L 646.1 366.0 L 647.2 366.0 L 648.3 224.2 L 649.5 365.9 L 650.7 366.0 L 651.7 366.0 L 652.8 366.0 L 653.9 366.0 L 655.0 366.0 L 656.1 366.0 L 657.2 357.1 L 658.2 366.0 L 659.3 366.0 L 660.4 366.0 L 661.5 366.0 L 662.6 366.0 L 663.7 366.0 L 664.7 366.0 L 665.8 286.2 L 666.9 358.1 L 668.0 366.0 L 669.0 366.0 L 670.2 366.0 L 671.2 366.0 L 672.3 366.0 L 673.4 224.2 L 674.5 365.9 L 675.6 366.0 L 676.7 366.0 L 677.8 366.0 L 678.9 224.2 L 679.9 366.0 L 681.0 366.0 L 682.1 366.0 L 683.2 366.0 L 684.3 366.0 L 685.3 366.0 L 686.4 366.0 L 687.5 366.0 L 688.6 366.0 L 689.6 366.0 L 690.7 285.6 L 691.8 366.0 L 692.9 366.0 L 694.0 366.0 L 695.1 366.0 L 696.2 366.0 L 697.2 244.1 L 698.3 366.0 L 699.4 366.0 L 700.5 366.0 L 701.6 365.9 L 702.7 365.8 L 703.8 353.1 L 704.9 366.0 L 705.9 366.0 L 707.0 366.0 L 708.1 366.0 L 709.2 366.0 L 710.3 366.0 L 711.4 224.2 L 712.4 366.0 L 713.5 366.0 L 714.6 366.0 L 715.7 366.0 L 716.7 366.0 L 717.8 366.0 L 718.9 228.3 L 720.0 366.0 L 721.1 366.0 L 722.1 366.0 L 723.2 366.0 L 724.3 366.0 L 725.4 366.0 L 726.5 257.9 L 727.6 366.0 L 728.6 366.0 L 729.7 366.0 L 730.8 366.0 L 731.9 366.0 L 732.9 366.0 L 734.1 366.0 L 735.1 311.8 L 736.3 366.0 L 737.3 366.0 L 738.4 366.0 L 739.5 366.0 L 740.6 366.0 L 741.7 366.0 L 742.7 366.0 L 743.9 366.0 L 744.9 366.0 L 746.0 366.0 L 747.1 366.0 L 748.2 366.0 L 749.3 366.0 L 750.3 366.0 L 751.4 366.0 L 752.5 298.3 L 753.6 360.6 L 754.7 365.9 L 755.8 365.8 L 756.8 366.0 L 757.9 366.0 L 759.1 366.0 L 760.1 366.0 L 761.2 366.0 L 762.3 366.0 L 763.3 366.0 L 764.4 313.3 L 765.5 366.0 L 766.6 366.0 L 767.7 366.0 L 768.7 366.0 L 769.8 313.3 L 770.9 366.0 L 772.0 366.0 L 773.1 366.0 L 774.2 366.0 L 775.3 366.0 L 776.4 227.0 L 777.4 366.0 L 778.5 366.0 L 779.6 366.0 L 780.7 366.0 L 781.8 366.0 L 782.9 224.2 L 784.0 366.0 L 785.1 366.0 L 786.1 366.0 L 787.2 366.0 L 788.3 366.0 L 789.4 322.1 L 790.5 366.0 L 791.6 366.0 L 792.7 366.0 L 793.8 366.0 L 794.8 366.0 L 795.9 366.0 L 797.1 245.3 L 798.2 366.0 L 799.3 366.0 L 800.4 366.0 L 801.5 366.0 L 802.5 366.0 L 803.6 366.0 L 804.8 299.3 L 805.9 366.0 L 807.0 366.0 L 808.1 365.9 L 809.1 365.8 L 810.2 366.0 L 811.3 366.0 L 812.4 237.7 L 813.4 366.0 L 814.5 366.0 L 815.6 366.0 L 816.7 366.0 L 817.8 366.0 L 818.8 366.0 L 819.9 366.0 L 821.0 271.1 L 822.1 366.0 L 823.2 366.0 L 824.3 366.0 L 825.3 366.0 L 826.4 366.0 L 827.6 366.0 L 828.6 366.0 L 829.7 285.9 L 830.8 358.1 L 831.9 366.0 L 832.9 366.0 L 834.0 366.0 L 835.1 366.0 L 836.2 366.0 L 837.3 366.0 L 838.4 224.2 L 839.5 366.0 L 840.5 366.0 L 841.6 366.0 L 842.8 366.0 L 843.9 224.2 L 844.9 366.0 L 846.0 366.0 L 847.1 366.0 L 848.2 366.0 L 849.3 296.0 L 850.5 366.0 L 851.5 366.0 L 852.6 366.0 L 853.7 366.0 L 854.8 366.0 L 855.9 302.8 L 856.9 366.0 L 858.0 366.0 L 859.1 366.0 L 860.2 366.0 L 861.3 365.9 L 862.4 312.7 L 863.4 366.0 L 864.5 366.0 L 865.7 366.0 L 866.7 366.0 L 867.8 366.0 L 868.9 226.6 L 870.0 366.0 L 871.0 366.0 L 872.1 366.0 L 873.3 366.0 L 874.3 366.0 L 875.4 366.0 L 876.5 366.0 L 877.6 366.0 L 878.6 366.0 L 879.7 366.0 L 880.8 366.0 L 881.9 366.0 L 883.0 311.3 L 884.1 366.0 L 885.2 366.0 L 886.2 366.0 L 887.3 366.0 L 888.5 366.0 L 889.6 366.0 L 890.6 338.6 L 891.7 366.0 L 892.8 365.7 L 895.2 366.0 L 896.2 366.0 L 897.3 366.0 L 898.4 366.0 L 899.5 366.0 L 900.5 366.0 L 901.6 366.0 L 902.7 366.0 L 903.8 366.0 L 904.9 366.0 L 905.9 366.0 L 907.0 366.0 L 908.1 366.0 L 909.2 366.0 L 910.2 366.0 L 911.4 366.0 L 912.4 366.0 L 913.5 366.0 L 914.6 365.9 L 915.7 365.8 L 916.7 345.2 L 917.8 366.0 L 918.9 366.0 L 920.0 366.0 L 921.1 366.0 L 922.2 366.0 L 923.2 366.0 L 924.3 366.0 L 925.4 366.0 L 926.6 366.0 L 927.6 366.0 L 928.7 366.0 L 929.8 366.0 L 930.9 366.0 L 931.9 366.0 L 933.0 366.0 L 934.2 310.2 L 935.2 366.0 L 936.3 366.0 L 937.4 366.0 L 938.5 366.0 L 939.6 366.0 L 940.6 365.9 L 942.0 366.0 L 943.0 366.0 L 944.1 366.0 L 945.2 366.0 L 946.2 224.2 L 947.3 366.0 L 948.4 366.0 L 949.5 366.0 L 950.6 366.0 L 951.7 366.0 L 952.7 265.5 L 953.8 366.0 L 954.9 366.0 L 955.9 366.0 L 957.1 366.0 L 958.1 366.0 L 959.2 366.0 L 960.3 352.1 L 961.5 366.0 L 962.7 366.0 L 963.7 366.0 L 964.8 366.0 L 965.9 366.0 L 967.0 322.7 L 968.1 365.9 L 969.1 365.8 L 970.3 366.0 L 971.4 366.0 L 972.4 366.0 L 973.5 366.0 L 974.6 366.0 L 975.7 366.0 L 976.7 366.0 L 977.9 366.0 L 978.9 366.0 L 980.0 366.0 L 981.1 366.0 L 982.1 366.0 L 983.2 245.2 L 984.3 366.0 L 985.4 366.0 L 986.4 366.0 L 987.6 366.0 L 988.6 366.0 L 989.7 366.0 L 990.8 366.0 L 991.9 332.8 L 992.9 366.0 L 994.0 366.0 L 995.2 366.0 L 996.3 366.0 L 997.3 366.0 L 998.4 366.0 L 999.5 366.0 L 1000.6 298.6 L 1001.7 366.0 L 1002.9 366.0 L 1003.9 366.0 L 1005.0 295.1 L 1006.1 365.9 L 1007.2 365.9 L 1008.3 365.9 L 1009.3 365.9 L 1010.5 365.9 L 1011.6 366.0 L 1012.7 366.0 L 1013.7 366.0 L 1014.8 366.0 L 1015.9 366.0 L 1016.9 366.0 L 1018.3 366.0 L 1019.4 366.0 L 1020.4 366.0 L 1021.5 366.0 L 1022.6 366.0 L 1023.7 366.0 L 1024.8 366.0 L 1025.9 366.0 L 1026.9 366.0 L 1028.0 366.0 L 1029.1 366.0 L 1030.1 366.0 L 1031.2 366.0 L 1032.3 366.0 L 1033.4 366.0 L 1034.4 366.0 L 1035.5 366.0 L 1036.6 366.0 L 1037.6 366.0 L 1038.7 366.0 L 1039.8 366.0 L 1040.9 366.0 L 1041.9 366.0 L 1043.0 366.0 L 1044.1 366.0 L 1045.1 366.0 L 1046.2 366.0 L 1047.3 366.0 L 1048.4 366.0 L 1049.4 366.0 L 1050.5 366.0 L 1051.6 366.0 L 1052.6 366.0 L 1053.7 366.0 L 1054.8 336.6 L 1055.9 351.1 L 1057.0 337.0 L 1058.2 366.0 L 1059.3 366.0 L 1060.4 353.7 L 1061.5 336.8 L 1062.6 328.0 L 1064.0 359.5 L 1065.1 365.9 L 1066.3 330.5 L 1067.4 366.0 L 1068.5 366.0 L 1069.5 366.0 L 1070.6 366.0 L 1071.7 366.0 L 1072.8 366.0 L 1073.9 366.0 L 1074.9 366.0 L 1076.0 366.0" fill="none" stroke="#4C78A8" stroke-width="2.8" stroke-linejoin="round" stroke-linecap="round"/>
<path d="M 86.0 366.0 L 87.1 366.0 L 88.1 366.0 L 89.2 366.0 L 90.3 366.0 L 91.4 366.0 L 92.4 366.0 L 93.5 366.0 L 94.6 366.0 L 95.6 365.9 L 96.7 366.0 L 97.8 315.5 L 98.8 107.0 L 100.0 73.3 L 101.2 195.1 L 102.3 365.8 L 103.4 366.0 L 104.5 365.9 L 105.6 365.9 L 106.6 365.9 L 107.7 365.9 L 108.8 365.9 L 109.9 365.9 L 111.0 365.9 L 112.1 365.9 L 113.2 365.9 L 114.3 365.9 L 115.3 365.8 L 116.4 365.8 L 117.5 365.9 L 118.7 365.9 L 119.8 365.9 L 120.9 365.9 L 122.0 365.9 L 123.1 365.9 L 124.2 365.9 L 125.3 365.9 L 126.4 365.9 L 127.4 365.9 L 128.5 365.9 L 129.6 365.9 L 130.7 365.9 L 131.8 365.9 L 132.9 365.9 L 134.0 365.9 L 135.0 365.9 L 136.1 365.9 L 137.2 365.9 L 138.3 365.9 L 139.4 365.9 L 140.5 365.9 L 141.6 365.9 L 142.6 365.9 L 143.7 365.9 L 144.8 365.9 L 145.9 365.9 L 147.0 365.9 L 148.0 365.9 L 149.1 365.9 L 150.2 365.9 L 151.3 365.9 L 152.3 365.9 L 153.4 365.9 L 154.5 365.9 L 155.6 365.9 L 156.7 365.9 L 157.8 365.9 L 158.8 365.9 L 159.9 365.9 L 161.0 365.9 L 162.1 365.9 L 163.2 365.9 L 164.2 365.9 L 165.4 365.9 L 166.5 365.9 L 167.5 365.9 L 168.6 365.8 L 169.7 365.9 L 170.8 365.9 L 171.9 365.9 L 173.0 365.9 L 174.1 365.9 L 175.2 365.9 L 176.3 365.9 L 177.3 365.9 L 178.4 365.9 L 179.6 365.9 L 180.6 365.9 L 181.7 365.9 L 182.8 365.9 L 183.9 365.9 L 184.9 365.9 L 186.0 365.9 L 187.1 365.9 L 188.2 365.9 L 189.3 365.9 L 190.4 365.9 L 191.4 365.9 L 192.5 365.9 L 193.6 365.9 L 194.7 365.9 L 195.8 365.9 L 196.9 365.9 L 198.0 365.9 L 199.1 365.9 L 200.1 365.9 L 201.2 365.9 L 202.3 365.9 L 203.4 365.9 L 204.5 365.9 L 205.6 365.9 L 206.6 365.9 L 207.7 365.9 L 208.8 365.9 L 209.8 365.9 L 210.9 365.9 L 212.0 365.9 L 213.1 365.9 L 214.2 365.9 L 215.3 365.9 L 216.4 365.9 L 217.5 365.9 L 218.8 365.9 L 219.9 365.9 L 220.9 365.9 L 222.0 365.8 L 223.1 365.9 L 224.2 365.9 L 225.4 365.9 L 226.5 365.9 L 227.5 365.9 L 228.6 365.9 L 229.7 365.9 L 230.8 365.9 L 231.9 365.9 L 233.0 365.9 L 234.1 365.9 L 235.2 365.9 L 236.2 365.9 L 237.3 365.9 L 238.5 365.9 L 239.5 365.9 L 240.6 365.9 L 241.7 365.9 L 242.8 365.9 L 243.9 365.9 L 244.9 365.9 L 246.1 365.9 L 247.2 365.7 L 249.1 365.9 L 250.2 365.9 L 251.4 365.9 L 252.4 365.9 L 253.5 365.9 L 254.6 365.9 L 255.6 365.9 L 256.7 365.9 L 257.8 365.9 L 258.9 365.9 L 259.9 365.9 L 261.0 365.9 L 262.1 365.9 L 263.1 365.9 L 264.2 365.9 L 265.3 366.0 L 266.5 151.9 L 267.5 365.9 L 268.6 365.9 L 269.7 365.9 L 270.7 365.9 L 271.8 365.9 L 272.9 365.9 L 274.0 365.9 L 275.1 365.8 L 276.2 365.8 L 277.2 365.9 L 278.3 365.9 L 279.4 365.9 L 280.4 365.9 L 281.5 365.9 L 282.6 365.9 L 283.7 365.9 L 284.7 365.9 L 285.8 365.9 L 286.9 365.9 L 288.0 365.9 L 289.0 365.9 L 290.1 365.9 L 291.2 365.9 L 292.3 365.9 L 293.3 365.9 L 294.4 365.9 L 295.4 365.9 L 296.5 365.9 L 297.6 365.9 L 298.6 365.9 L 299.7 365.9 L 300.8 365.9 L 301.9 365.9 L 303.0 365.9 L 304.1 365.9 L 305.1 365.9 L 306.2 365.9 L 307.3 365.9 L 308.3 365.9 L 309.4 365.9 L 310.5 365.9 L 311.6 365.9 L 312.7 365.9 L 313.7 365.9 L 314.8 365.9 L 315.9 365.9 L 317.0 365.9 L 318.0 365.9 L 319.1 365.9 L 320.2 365.9 L 321.2 365.9 L 322.3 365.9 L 323.4 365.9 L 324.5 365.9 L 325.6 365.9 L 326.6 365.9 L 327.7 365.9 L 328.8 365.9 L 330.0 365.9 L 331.0 365.9 L 332.1 365.9 L 333.2 365.9 L 334.3 365.9 L 335.3 365.9 L 336.4 365.9 L 337.5 365.9 L 338.6 366.0 L 339.7 258.2 L 340.8 365.9 L 341.9 365.9 L 343.0 365.9 L 344.0 365.9 L 345.2 365.9 L 346.2 365.9 L 347.3 365.9 L 348.4 365.9 L 349.5 365.9 L 350.5 365.9 L 351.6 365.9 L 352.8 365.9 L 353.8 365.9 L 354.9 365.8 L 356.0 365.8 L 357.1 365.9 L 358.1 365.9 L 359.2 365.9 L 360.4 365.9 L 361.5 365.9 L 362.5 365.9 L 363.6 365.9 L 364.7 365.9 L 365.7 365.9 L 366.8 365.9 L 367.9 365.9 L 369.0 365.9 L 370.1 365.9 L 371.2 365.9 L 372.2 365.9 L 373.3 365.9 L 374.4 365.9 L 375.5 365.9 L 376.5 365.9 L 377.7 365.9 L 378.7 365.9 L 379.8 365.9 L 380.9 365.9 L 382.0 365.9 L 383.0 365.9 L 384.1 365.9 L 385.3 365.9 L 386.4 365.9 L 387.5 365.9 L 388.5 365.9 L 389.6 365.9 L 390.7 365.9 L 391.8 365.9 L 392.9 365.9 L 394.0 365.9 L 395.0 365.9 L 396.1 365.9 L 397.2 365.9 L 398.3 365.9 L 399.3 365.9 L 400.5 365.9 L 401.5 365.9 L 402.6 365.9 L 403.8 365.9 L 404.8 365.9 L 405.9 365.9 L 407.0 365.9 L 408.1 365.9 L 409.2 365.8 L 410.3 365.9 L 411.3 366.0 L 412.4 365.9 L 413.5 365.9 L 414.6 365.9 L 415.7 365.9 L 416.8 366.0 L 417.8 366.0 L 418.9 366.0 L 420.0 365.9 L 421.1 365.9 L 422.2 365.9 L 423.3 365.9 L 424.3 365.9 L 425.4 365.9 L 426.5 365.9 L 427.6 365.9 L 428.6 365.9 L 429.7 365.9 L 430.8 365.9 L 432.0 365.9 L 433.1 365.9 L 434.1 365.9 L 435.2 365.9 L 436.3 365.9 L 437.4 365.9 L 438.5 365.9 L 439.7 365.9 L 440.7 365.9 L 441.8 365.9 L 442.9 365.9 L 444.0 365.9 L 445.0 365.9 L 446.2 365.9 L 447.2 365.9 L 448.3 365.9 L 449.4 365.9 L 450.5 365.9 L 451.6 365.9 L 452.6 365.9 L 453.7 365.9 L 454.8 365.9 L 455.9 365.9 L 457.0 365.9 L 458.0 365.9 L 459.1 365.9 L 460.2 365.9 L 461.3 365.9 L 462.4 365.9 L 463.5 365.9 L 464.6 365.9 L 465.7 365.9 L 466.7 365.9 L 467.8 365.9 L 468.9 365.9 L 470.0 365.9 L 471.1 365.9 L 472.1 365.9 L 473.2 365.9 L 474.3 365.9 L 475.4 365.9 L 476.4 365.9 L 477.5 365.9 L 478.6 365.9 L 479.7 365.9 L 480.8 365.9 L 481.9 365.9 L 482.9 365.9 L 484.0 365.9 L 485.1 365.9 L 486.2 365.9 L 487.3 365.9 L 488.4 365.9 L 489.5 365.9 L 490.6 365.9 L 491.7 365.9 L 492.7 365.9 L 493.8 365.9 L 495.6 365.9 L 496.7 366.0 L 497.8 365.9 L 498.8 365.9 L 500.0 365.9 L 501.1 365.9 L 502.1 365.9 L 503.2 365.9 L 504.3 365.9 L 505.4 365.9 L 506.4 365.9 L 507.5 365.9 L 508.6 365.9 L 509.7 365.9 L 510.8 365.9 L 511.8 365.9 L 512.9 365.9 L 514.0 365.9 L 515.1 365.9 L 516.1 365.9 L 517.2 365.9 L 518.3 365.9 L 519.4 365.9 L 520.5 365.9 L 521.6 365.9 L 522.6 365.9 L 523.7 365.9 L 524.8 365.9 L 525.9 365.9 L 527.0 365.9 L 528.1 365.9 L 529.1 365.9 L 530.2 365.9 L 531.3 365.9 L 532.4 365.9 L 533.5 365.9 L 534.5 365.9 L 535.6 365.9 L 536.7 365.9 L 537.8 365.9 L 538.9 365.9 L 539.9 365.8 L 541.8 365.9 L 542.8 365.9 L 543.9 365.9 L 545.0 365.9 L 546.1 365.9 L 547.2 365.9 L 548.3 365.9 L 549.4 365.9 L 550.5 365.9 L 551.6 365.9 L 552.6 365.9 L 553.7 365.9 L 554.8 365.9 L 555.9 365.9 L 557.0 365.9 L 558.1 365.9 L 559.1 365.9 L 560.2 365.9 L 561.3 365.9 L 562.4 365.9 L 563.5 365.9 L 564.6 365.9 L 565.7 365.9 L 566.7 365.9 L 567.8 365.9 L 568.9 365.9 L 570.0 365.9 L 571.1 365.9 L 572.2 365.9 L 573.3 365.9 L 574.4 365.9 L 575.5 365.9 L 576.5 365.9 L 577.6 365.9 L 578.7 365.9 L 579.8 365.9 L 580.9 366.0 L 582.0 365.9 L 583.0 365.9 L 584.1 365.9 L 585.2 365.9 L 586.3 365.9 L 587.4 365.9 L 588.5 365.9 L 589.5 365.9 L 590.6 365.9 L 591.7 365.9 L 592.8 365.9 L 594.0 365.8 L 595.1 365.9 L 596.3 365.9 L 597.4 365.9 L 598.5 365.9 L 599.6 365.9 L 600.7 365.9 L 601.8 365.9 L 602.9 365.9 L 604.0 365.9 L 605.1 365.9 L 606.1 365.9 L 607.3 365.9 L 608.4 365.9 L 609.4 365.9 L 610.5 365.9 L 611.6 365.9 L 612.6 365.9 L 613.7 365.9 L 614.8 365.9 L 615.9 365.9 L 617.0 365.9 L 618.1 365.9 L 619.1 365.9 L 620.2 365.9 L 621.3 365.9 L 622.4 365.9 L 623.5 365.9 L 624.5 365.9 L 625.6 365.9 L 626.7 365.9 L 627.8 365.9 L 628.8 365.9 L 629.9 365.9 L 631.0 365.9 L 632.1 365.9 L 633.2 365.9 L 634.3 365.9 L 635.3 365.9 L 636.4 365.9 L 637.5 365.9 L 638.6 365.9 L 639.6 365.9 L 640.7 365.9 L 641.8 365.9 L 642.9 365.9 L 644.0 365.9 L 645.0 365.9 L 646.1 365.9 L 647.2 365.9 L 648.3 365.9 L 649.5 365.9 L 650.7 365.9 L 651.7 365.9 L 652.8 365.9 L 653.9 365.9 L 655.0 365.9 L 656.1 365.9 L 657.2 365.9 L 658.2 365.9 L 659.3 365.9 L 660.4 365.9 L 661.5 365.9 L 662.6 365.9 L 663.7 365.9 L 664.7 365.9 L 665.8 366.0 L 666.9 365.9 L 668.0 365.9 L 669.0 365.9 L 670.2 365.9 L 671.2 365.9 L 672.3 365.9 L 673.4 365.9 L 674.5 365.9 L 675.6 365.9 L 676.7 365.9 L 677.8 365.9 L 678.9 365.9 L 679.9 365.9 L 681.0 365.9 L 682.1 365.9 L 683.2 365.9 L 684.3 365.9 L 685.3 365.9 L 686.4 365.9 L 687.5 365.9 L 688.6 365.9 L 689.6 365.9 L 690.7 365.9 L 691.8 365.9 L 692.9 365.9 L 694.0 365.9 L 695.1 365.9 L 696.2 365.9 L 697.2 365.9 L 698.3 365.9 L 699.4 365.9 L 700.5 365.9 L 701.6 365.9 L 702.7 365.9 L 703.8 365.9 L 704.9 365.9 L 705.9 365.9 L 707.0 365.9 L 708.1 365.9 L 709.2 365.9 L 710.3 365.9 L 711.4 365.9 L 712.4 365.9 L 713.5 365.9 L 714.6 365.9 L 715.7 365.9 L 716.7 365.9 L 717.8 365.9 L 718.9 365.9 L 720.0 365.9 L 721.1 365.9 L 722.1 365.9 L 723.2 365.9 L 724.3 365.9 L 725.4 365.9 L 726.5 365.9 L 727.6 365.9 L 728.6 365.8 L 729.7 365.9 L 730.8 365.9 L 731.9 365.9 L 732.9 365.9 L 734.1 365.9 L 735.1 365.9 L 736.3 365.9 L 737.3 365.9 L 738.4 365.9 L 739.5 365.9 L 740.6 365.9 L 741.7 365.9 L 742.7 365.9 L 743.9 365.9 L 744.9 365.9 L 746.0 365.9 L 747.1 365.9 L 748.2 365.9 L 749.3 365.9 L 750.3 365.9 L 751.4 365.9 L 752.5 366.0 L 753.6 365.9 L 754.7 365.9 L 755.8 365.9 L 756.8 365.9 L 757.9 365.8 L 759.1 365.9 L 760.1 365.9 L 761.2 365.9 L 762.3 365.9 L 763.3 365.9 L 764.4 365.9 L 765.5 365.9 L 766.6 365.9 L 767.7 365.9 L 768.7 365.9 L 769.8 365.9 L 770.9 365.9 L 772.0 365.9 L 773.1 365.9 L 774.2 365.9 L 775.3 365.9 L 776.4 365.9 L 777.4 365.9 L 778.5 365.9 L 779.6 365.9 L 780.7 365.9 L 781.8 365.8 L 782.9 365.9 L 784.0 365.9 L 785.1 365.9 L 786.1 365.9 L 787.2 365.9 L 788.3 365.9 L 789.4 365.9 L 790.5 365.9 L 791.6 365.9 L 792.7 365.9 L 793.8 365.9 L 794.8 365.9 L 795.9 365.9 L 797.1 365.9 L 798.2 365.9 L 799.3 365.9 L 800.4 365.9 L 801.5 365.9 L 802.5 365.9 L 803.6 365.9 L 804.8 365.9 L 805.9 365.9 L 807.0 365.9 L 808.1 365.9 L 809.1 365.9 L 810.2 365.9 L 811.3 365.9 L 812.4 365.9 L 813.4 365.9 L 814.5 365.9 L 815.6 365.9 L 816.7 365.9 L 817.8 365.9 L 818.8 365.9 L 819.9 365.9 L 821.0 365.9 L 822.1 365.9 L 823.2 365.9 L 824.3 365.9 L 825.3 365.9 L 826.4 365.9 L 827.6 365.9 L 828.6 365.9 L 829.7 366.0 L 830.8 365.9 L 831.9 365.9 L 832.9 365.9 L 834.0 365.9 L 835.1 365.8 L 836.2 366.0 L 837.3 366.0 L 838.4 365.9 L 839.5 365.9 L 840.5 365.9 L 841.6 365.9 L 842.8 365.9 L 843.9 365.9 L 844.9 365.9 L 846.0 365.9 L 847.1 365.9 L 848.2 365.9 L 849.3 365.9 L 850.5 365.9 L 851.5 365.9 L 852.6 365.9 L 853.7 365.9 L 854.8 365.9 L 855.9 365.9 L 856.9 365.9 L 858.0 365.9 L 859.1 365.9 L 860.2 365.9 L 861.3 365.9 L 862.4 365.9 L 863.4 365.9 L 864.5 365.9 L 865.7 365.9 L 866.7 365.9 L 867.8 365.9 L 868.9 365.9 L 870.0 365.9 L 871.0 365.9 L 872.1 365.9 L 873.3 365.9 L 874.3 365.9 L 875.4 365.9 L 876.5 365.9 L 877.6 365.9 L 878.6 365.9 L 879.7 365.9 L 880.8 365.9 L 881.9 365.9 L 883.0 365.9 L 884.1 365.9 L 885.2 365.9 L 886.2 365.9 L 887.3 365.9 L 888.5 365.8 L 889.6 365.9 L 890.6 365.9 L 891.7 365.9 L 892.8 365.9 L 895.2 365.9 L 896.2 365.9 L 897.3 365.9 L 898.4 365.9 L 899.5 365.9 L 900.5 365.9 L 901.6 365.9 L 902.7 365.9 L 903.8 365.9 L 904.9 365.9 L 905.9 365.9 L 907.0 365.9 L 908.1 365.9 L 909.2 365.9 L 910.2 365.9 L 911.4 365.9 L 912.4 365.9 L 913.5 365.9 L 914.6 365.9 L 915.7 365.9 L 916.7 365.9 L 917.8 365.9 L 918.9 365.9 L 920.0 365.9 L 921.1 365.9 L 922.2 365.9 L 923.2 365.9 L 924.3 365.9 L 925.4 365.9 L 926.6 365.9 L 927.6 365.9 L 928.7 365.9 L 929.8 365.9 L 930.9 365.9 L 931.9 365.9 L 933.0 365.9 L 934.2 365.9 L 935.2 365.9 L 936.3 365.9 L 937.4 365.9 L 938.5 365.9 L 939.6 365.9 L 940.6 365.8 L 942.0 365.8 L 943.0 365.9 L 944.1 365.9 L 945.2 365.9 L 946.2 365.9 L 947.3 365.9 L 948.4 365.9 L 949.5 365.9 L 950.6 365.9 L 951.7 365.9 L 952.7 365.9 L 953.8 365.9 L 954.9 365.9 L 955.9 365.9 L 957.1 365.9 L 958.1 365.9 L 959.2 365.9 L 960.3 365.9 L 961.5 365.9 L 962.7 365.9 L 963.7 365.9 L 964.8 365.9 L 965.9 365.9 L 967.0 365.9 L 968.1 365.9 L 969.1 365.9 L 970.3 365.9 L 971.4 365.9 L 972.4 365.9 L 973.5 365.9 L 974.6 365.9 L 975.7 365.9 L 976.7 365.9 L 977.9 365.9 L 978.9 365.9 L 980.0 365.9 L 981.1 365.9 L 982.1 365.9 L 983.2 365.9 L 984.3 365.9 L 985.4 365.9 L 986.4 365.9 L 987.6 365.9 L 988.6 365.9 L 989.7 365.9 L 990.8 365.9 L 991.9 365.9 L 992.9 365.9 L 994.0 365.9 L 995.2 365.8 L 996.3 365.9 L 997.3 365.9 L 998.4 365.9 L 999.5 365.9 L 1000.6 365.9 L 1001.7 365.9 L 1002.9 365.9 L 1003.9 365.9 L 1005.0 365.8 L 1006.1 365.8 L 1007.2 365.8 L 1008.3 365.8 L 1009.3 365.8 L 1010.5 366.0 L 1011.6 366.0 L 1012.7 366.0 L 1013.7 366.0 L 1014.8 366.0 L 1015.9 366.0 L 1016.9 366.0 L 1018.3 366.0 L 1019.4 366.0 L 1020.4 365.9 L 1021.5 365.9 L 1022.6 366.0 L 1023.7 366.0 L 1024.8 366.0 L 1025.9 366.0 L 1026.9 366.0 L 1028.0 366.0 L 1029.1 366.0 L 1030.1 366.0 L 1031.2 366.0 L 1032.3 366.0 L 1033.4 366.0 L 1034.4 366.0 L 1035.5 366.0 L 1036.6 366.0 L 1037.6 366.0 L 1038.7 366.0 L 1039.8 366.0 L 1040.9 366.0 L 1041.9 366.0 L 1043.0 366.0 L 1044.1 366.0 L 1045.1 366.0 L 1046.2 366.0 L 1047.3 365.9 L 1048.4 365.9 L 1049.4 366.0 L 1050.5 366.0 L 1051.6 366.0 L 1052.6 366.0 L 1053.7 156.2 L 1054.8 212.9 L 1055.9 109.6 L 1057.0 101.2 L 1058.2 366.0 L 1059.3 366.0 L 1060.4 112.9 L 1061.5 114.2 L 1062.6 106.0 L 1064.0 365.9 L 1065.1 365.9 L 1066.3 366.0 L 1067.4 366.0 L 1068.5 366.0 L 1069.5 366.0 L 1070.6 366.0 L 1071.7 366.0 L 1072.8 366.0 L 1073.9 365.9 L 1074.9 365.9 L 1076.0 366.0" fill="none" stroke="#F58518" stroke-width="2.8" stroke-linejoin="round" stroke-linecap="round"/>
<line x1="89.7" y1="44.0" x2="89.7" y2="366.0" stroke="#666" stroke-dasharray="4 4" stroke-width="1.2"/>
<text x="89.7" y="402.0" text-anchor="middle" font-size="12" fill="#444" font-family="Helvetica, Arial, sans-serif">submit</text>
<line x1="1042.0" y1="44.0" x2="1042.0" y2="366.0" stroke="#888" stroke-dasharray="4 4" stroke-width="1.2"/>
<text x="1042.0" y="402.0" text-anchor="middle" font-size="12" fill="#444" font-family="Helvetica, Arial, sans-serif">metrics</text>
<line x1="86.0" y1="44.0" x2="86.0" y2="366.0" stroke="#f5f5f5" stroke-width="1"/>
<text x="86.0" y="418.0" text-anchor="middle" font-size="11" fill="#444" font-family="Helvetica, Arial, sans-serif">-0.14</text>
<line x1="209.8" y1="44.0" x2="209.8" y2="366.0" stroke="#f5f5f5" stroke-width="1"/>
<text x="209.8" y="418.0" text-anchor="middle" font-size="11" fill="#444" font-family="Helvetica, Arial, sans-serif">4.73</text>
<line x1="333.5" y1="44.0" x2="333.5" y2="366.0" stroke="#f5f5f5" stroke-width="1"/>
<text x="333.5" y="418.0" text-anchor="middle" font-size="11" fill="#444" font-family="Helvetica, Arial, sans-serif">9.60</text>
<line x1="457.2" y1="44.0" x2="457.2" y2="366.0" stroke="#f5f5f5" stroke-width="1"/>
<text x="457.2" y="418.0" text-anchor="middle" font-size="11" fill="#444" font-family="Helvetica, Arial, sans-serif">14.48</text>
<line x1="581.0" y1="44.0" x2="581.0" y2="366.0" stroke="#f5f5f5" stroke-width="1"/>
<text x="581.0" y="418.0" text-anchor="middle" font-size="11" fill="#444" font-family="Helvetica, Arial, sans-serif">19.35</text>
<line x1="704.8" y1="44.0" x2="704.8" y2="366.0" stroke="#f5f5f5" stroke-width="1"/>
<text x="704.8" y="418.0" text-anchor="middle" font-size="11" fill="#444" font-family="Helvetica, Arial, sans-serif">24.23</text>
<line x1="828.5" y1="44.0" x2="828.5" y2="366.0" stroke="#f5f5f5" stroke-width="1"/>
<text x="828.5" y="418.0" text-anchor="middle" font-size="11" fill="#444" font-family="Helvetica, Arial, sans-serif">29.10</text>
<line x1="952.2" y1="44.0" x2="952.2" y2="366.0" stroke="#f5f5f5" stroke-width="1"/>
<text x="952.2" y="418.0" text-anchor="middle" font-size="11" fill="#444" font-family="Helvetica, Arial, sans-serif">33.98</text>
<line x1="1076.0" y1="44.0" x2="1076.0" y2="366.0" stroke="#f5f5f5" stroke-width="1"/>
<text x="1076.0" y="418.0" text-anchor="middle" font-size="11" fill="#444" font-family="Helvetica, Arial, sans-serif">38.85</text>
<text x="581.0" y="386.0" text-anchor="middle" font-size="15" fill="#222" font-family="Helvetica, Arial, sans-serif">time since request submit (s)</text>
</svg>