<svg xmlns="http://www.w3.org/2000/svg" width="1100" height="420" viewBox="0 0 1100 420">
<rect width="1100" height="420" fill="white"/>
<text x="86" y="26" font-size="22" font-weight="700" font-family="Helvetica, Arial, sans-serif">tb_session_08_turn_005_reuse  phase=reuse  turn=5  prompt=25856  peak_tx=4.30 GiB/s  peak_rx=34.60 GiB/s</text>
<line x1="86" y1="366.0" x2="1076" y2="366.0" stroke="#ececec" stroke-width="1"/>
<text x="76" y="370.0" text-anchor="end" font-size="12" fill="#444" font-family="Helvetica, Arial, sans-serif">0.0</text>
<line x1="86" y1="301.6" x2="1076" y2="301.6" stroke="#ececec" stroke-width="1"/>
<text x="76" y="305.6" text-anchor="end" font-size="12" fill="#444" font-family="Helvetica, Arial, sans-serif">7.6</text>
<line x1="86" y1="237.2" x2="1076" y2="237.2" stroke="#ececec" stroke-width="1"/>
<text x="76" y="241.2" text-anchor="end" font-size="12" fill="#444" font-family="Helvetica, Arial, sans-serif">15.2</text>
<line x1="86" y1="172.8" x2="1076" y2="172.8" stroke="#ececec" stroke-width="1"/>
<text x="76" y="176.8" text-anchor="end" font-size="12" fill="#444" font-family="Helvetica, Arial, sans-serif">22.8</text>
<line x1="86" y1="108.4" x2="1076" y2="108.4" stroke="#ececec" stroke-width="1"/>
<text x="76" y="112.4" text-anchor="end" font-size="12" fill="#444" font-family="Helvetica, Arial, sans-serif">30.5</text>
<line x1="86" y1="44.0" x2="1076" y2="44.0" stroke="#ececec" stroke-width="1"/>
<text x="76" y="48.0" text-anchor="end" font-size="12" fill="#444" font-family="Helvetica, Arial, sans-serif">38.1</text>
<line x1="86" y1="366.0" x2="1076" y2="366.0" stroke="#222" stroke-width="1.4"/>
<line x1="86" y1="44.0" x2="86" y2="366.0" stroke="#222" stroke-width="1.4"/>
<rect x="99.7" y="44.0" width="820.4" height="322.0" fill="#F58518" opacity="0.08"/>
<path d="M 86.0 366.0 L 91.0 366.0 L 96.0 366.0 L 101.0 366.0 L 106.0 366.0 L 111.0 366.0 L 116.0 366.0 L 121.0 366.0 L 126.2 366.0 L 131.3 366.0 L 136.3 339.1 L 141.7 339.2 L 147.1 339.2 L 152.3 359.9 L 157.4 366.0 L 162.5 349.7 L 167.5 366.0 L 172.5 366.0 L 177.5 366.0 L 182.5 366.0 L 187.5 366.0 L 192.6 366.0 L 197.6 366.0 L 202.8 366.0 L 207.9 366.0 L 212.9 366.0 L 217.9 366.0 L 222.9 366.0 L 227.9 366.0 L 232.9 366.0 L 237.9 366.0 L 242.9 366.0 L 248.0 366.0 L 253.0 366.0 L 258.0 366.0 L 263.0 366.0 L 268.1 366.0 L 273.1 366.0 L 278.1 366.0 L 283.2 339.4 L 288.6 339.3 L 294.0 338.9 L 299.6 365.9 L 304.6 365.9 L 309.8 342.7 L 314.9 336.9 L 320.9 339.0 L 326.3 361.4 L 331.4 366.0 L 336.4 355.2 L 341.9 338.8 L 347.5 339.4 L 353.3 355.0 L 358.7 366.0 L 363.7 362.1 L 368.9 339.0 L 374.1 334.5 L 380.0 339.4 L 385.1 366.0 L 390.1 366.0 L 395.2 339.1 L 401.0 338.8 L 406.8 339.0 L 412.0 366.0 L 417.1 366.0 L 422.2 329.7 L 429.6 339.0 L 435.0 337.3 L 440.3 366.0 L 445.3 366.0 L 450.4 339.3 L 455.7 339.2 L 461.5 339.3 L 467.1 366.0 L 472.2 366.0 L 477.2 366.0 L 482.2 366.0 L 487.3 366.0 L 492.3 366.0 L 497.6 366.0 L 502.6 353.2 L 507.7 366.0 L 512.7 366.0 L 517.7 366.0 L 522.7 366.0 L 527.7 366.0 L 532.8 366.0 L 537.8 366.0 L 542.9 366.0 L 547.9 366.0 L 552.9 365.9 L 557.9 365.9 L 562.9 366.0 L 568.0 366.0 L 573.0 366.0 L 578.0 338.8 L 583.4 339.0 L 588.7 339.0 L 594.3 365.5 L 599.4 366.0 L 604.4 351.5 L 609.7 339.0 L 615.5 339.1 L 621.0 352.4 L 626.2 366.0 L 631.3 362.7 L 636.5 334.4 L 642.9 339.2 L 648.1 344.5 L 653.2 366.0 L 658.4 366.0 L 663.6 338.9 L 669.0 339.0 L 674.9 337.4 L 680.6 365.9 L 686.3 366.0 L 691.4 366.0 L 696.6 365.9 L 701.6 366.0 L 706.6 365.9 L 711.7 365.9 L 716.8 365.9 L 721.8 365.9 L 726.9 365.9 L 731.9 365.9 L 737.0 365.9 L 742.0 365.9 L 747.2 365.9 L 752.1 365.9 L 757.5 365.9 L 762.6 365.9 L 767.7 365.9 L 772.7 366.0 L 777.7 366.0 L 782.9 366.0 L 787.9 366.0 L 793.0 366.0 L 798.0 366.0 L 803.0 366.0 L 808.1 366.0 L 813.1 366.0 L 818.1 366.0 L 823.1 366.0 L 828.2 366.0 L 833.3 366.0 L 838.3 366.0 L 843.3 366.0 L 848.3 366.0 L 853.3 366.0 L 858.3 366.0 L 863.3 366.0 L 868.3 366.0 L 873.3 366.0 L 878.4 366.0 L 883.4 366.0 L 888.5 366.0 L 893.5 366.0 L 898.5 366.0 L 903.5 366.0 L 908.5 366.0 L 913.5 366.0 L 918.5 366.0 L 923.7 366.0 L 928.7 366.0 L 933.8 366.0 L 938.8 366.0 L 943.8 366.0 L 948.8 366.0 L 953.8 366.0 L 958.8 340.9 L 964.1 339.2 L 969.4 336.2 L 975.1 365.9 L 980.1 365.9 L 985.2 365.9 L 990.2 365.9 L 995.4 365.9 L 1000.7 366.0 L 1005.8 366.0 L 1010.8 366.0 L 1015.8 366.0 L 1020.8 366.0 L 1025.8 366.0 L 1030.9 366.0 L 1035.9 366.0 L 1040.9 366.0 L 1045.9 366.0 L 1050.9 365.9 L 1056.0 365.9 L 1061.0 366.0 L 1066.0 366.0 L 1071.0 366.0 L 1076.0 366.0" fill="none" stroke="#4C78A8" stroke-width="2.8" stroke-linejoin="round" stroke-linecap="round"/>
<path d="M 86.0 366.0 L 91.0 366.0 L 96.0 366.0 L 101.0 366.0 L 106.0 366.0 L 111.0 366.0 L 116.0 366.0 L 121.0 365.9 L 126.2 366.0 L 131.3 366.0 L 136.3 128.1 L 141.7 131.1 L 147.1 128.3 L 152.3 365.9 L 157.4 366.0 L 162.5 366.0 L 167.5 366.0 L 172.5 365.9 L 177.5 365.9 L 182.5 366.0 L 187.5 366.0 L 192.6 366.0 L 197.6 366.0 L 202.8 366.0 L 207.9 366.0 L 212.9 366.0 L 217.9 366.0 L 222.9 366.0 L 227.9 366.0 L 232.9 366.0 L 237.9 366.0 L 242.9 366.0 L 248.0 366.0 L 253.0 366.0 L 258.0 366.0 L 263.0 366.0 L 268.1 366.0 L 273.1 366.0 L 278.1 288.7 L 283.2 128.4 L 288.6 107.3 L 294.0 185.4 L 299.6 366.0 L 304.6 366.0 L 309.8 129.8 L 314.9 125.9 L 320.9 129.6 L 326.3 366.0 L 331.4 366.0 L 336.4 111.6 L 341.9 130.6 L 347.5 73.6 L 353.3 366.0 L 358.7 366.0 L 363.7 130.8 L 368.9 131.9 L 374.1 128.7 L 380.0 365.9 L 385.1 366.0 L 390.1 239.0 L 395.2 79.9 L 401.0 130.7 L 406.8 261.9 L 412.0 366.0 L 417.1 323.8 L 422.2 130.9 L 429.6 129.5 L 435.0 315.0 L 440.3 366.0 L 445.3 283.9 L 450.4 130.5 L 455.7 88.1 L 461.5 230.6 L 467.1 365.9 L 472.2 365.9 L 477.2 365.9 L 482.2 365.9 L 487.3 365.9 L 492.3 365.9 L 497.6 365.9 L 502.6 365.5 L 507.7 366.0 L 512.7 366.0 L 517.7 366.0 L 522.7 366.0 L 527.7 366.0 L 532.8 366.0 L 537.8 366.0 L 542.9 366.0 L 547.9 366.0 L 552.9 366.0 L 557.9 366.0 L 562.9 365.9 L 568.0 366.0 L 573.0 356.4 L 578.0 129.9 L 583.4 132.1 L 588.7 131.0 L 594.3 366.0 L 599.4 366.0 L 604.4 132.1 L 609.7 82.0 L 615.5 129.9 L 621.0 366.0 L 626.2 366.0 L 631.3 131.9 L 636.5 126.0 L 642.9 128.8 L 648.1 366.0 L 653.2 366.0 L 658.4 170.8 L 663.6 131.3 L 669.0 73.3 L 674.9 365.4 L 680.6 365.8 L 686.3 365.9 L 691.4 365.9 L 696.6 365.9 L 701.6 365.6 L 706.6 365.7 L 711.7 365.7 L 716.8 365.7 L 721.8 365.7 L 726.9 365.7 L 731.9 365.8 L 737.0 365.8 L 742.0 365.8 L 747.2 365.8 L 752.1 365.7 L 757.5 365.7 L 762.6 365.7 L 767.7 365.8 L 772.7 366.0 L 777.7 366.0 L 782.9 366.0 L 787.9 366.0 L 793.0 366.0 L 798.0 366.0 L 803.0 365.9 L 808.1 366.0 L 813.1 366.0 L 818.1 366.0 L 823.1 366.0 L 828.2 366.0 L 833.3 366.0 L 838.3 366.0 L 843.3 366.0 L 848.3 366.0 L 853.3 366.0 L 858.3 366.0 L 863.3 366.0 L 868.3 366.0 L 873.3 366.0 L 878.4 366.0 L 883.4 366.0 L 888.5 366.0 L 893.5 366.0 L 898.5 366.0 L 903.5 366.0 L 908.5 366.0 L 913.5 366.0 L 918.5 366.0 L 923.7 365.9 L 928.7 365.9 L 933.8 366.0 L 938.8 366.0 L 943.8 365.9 L 948.8 366.0 L 953.8 366.0 L 958.8 129.7 L 964.1 131.5 L 969.4 126.6 L 975.1 365.8 L 980.1 365.8 L 985.2 365.8 L 990.2 365.8 L 995.4 365.8 L 1000.7 366.0 L 1005.8 366.0 L 1010.8 366.0 L 1015.8 366.0 L 1020.8 366.0 L 1025.8 366.0 L 1030.9 366.0 L 1035.9 366.0 L 1040.9 366.0 L 1045.9 366.0 L 1050.9 366.0 L 1056.0 366.0 L 1061.0 366.0 L 1066.0 366.0 L 1071.0 366.0 L 1076.0 366.0" fill="none" stroke="#F58518" stroke-width="2.8" stroke-linejoin="round" stroke-linecap="round"/>
<line x1="99.7" y1="44.0" x2="99.7" y2="366.0" stroke="#666" stroke-dasharray="4 4" stroke-width="1.2"/>
<text x="99.7" y="402.0" text-anchor="middle" font-size="12" fill="#444" font-family="Helvetica, Arial, sans-serif">submit</text>
<line x1="920.1" y1="44.0" x2="920.1" y2="366.0" stroke="#888" stroke-dasharray="4 4" stroke-width="1.2"/>
<text x="920.1" y="402.0" text-anchor="middle" font-size="12" fill="#444" font-family="Helvetica, Arial, sans-serif">metrics</text>
<line x1="86.0" y1="44.0" x2="86.0" y2="366.0" stroke="#f5f5f5" stroke-width="1"/>
<text x="86.0" y="418.0" text-anchor="middle" font-size="11" fill="#444" font-family="Helvetica, Arial, sans-serif">-0.12</text>
<line x1="209.8" y1="44.0" x2="209.8" y2="366.0" stroke="#f5f5f5" stroke-width="1"/>
<text x="209.8" y="418.0" text-anchor="middle" font-size="11" fill="#444" font-family="Helvetica, Arial, sans-serif">0.92</text>
<line x1="333.5" y1="44.0" x2="333.5" y2="366.0" stroke="#f5f5f5" stroke-width="1"/>
<text x="333.5" y="418.0" text-anchor="middle" font-size="11" fill="#444" font-family="Helvetica, Arial, sans-serif">1.96</text>
<line x1="457.2" y1="44.0" x2="457.2" y2="366.0" stroke="#f5f5f5" stroke-width="1"/>
<text x="457.2" y="418.0" text-anchor="middle" font-size="11" fill="#444" font-family="Helvetica, Arial, sans-serif">3.00</text>
<line x1="581.0" y1="44.0" x2="581.0" y2="366.0" stroke="#f5f5f5" stroke-width="1"/>
<text x="581.0" y="418.0" text-anchor="middle" font-size="11" fill="#444" font-family="Helvetica, Arial, sans-serif">4.04</text>
<line x1="704.8" y1="44.0" x2="704.8" y2="366.0" stroke="#f5f5f5" stroke-width="1"/>
<text x="704.8" y="418.0" text-anchor="middle" font-size="11" fill="#444" font-family="Helvetica, Arial, sans-serif">5.08</text>
<line x1="828.5" y1="44.0" x2="828.5" y2="366.0" stroke="#f5f5f5" stroke-width="1"/>
<text x="828.5" y="418.0" text-anchor="middle" font-size="11" fill="#444" font-family="Helvetica, Arial, sans-serif">6.12</text>
<line x1="952.2" y1="44.0" x2="952.2" y2="366.0" stroke="#f5f5f5" stroke-width="1"/>
<text x="952.2" y="418.0" text-anchor="middle" font-size="11" fill="#444" font-family="Helvetica, Arial, sans-serif">7.16</text>
<line x1="1076.0" y1="44.0" x2="1076.0" y2="366.0" stroke="#f5f5f5" stroke-width="1"/>
<text x="1076.0" y="418.0" text-anchor="middle" font-size="11" fill="#444" font-family="Helvetica, Arial, sans-serif">8.20</text>
<text x="581.0" y="386.0" text-anchor="middle" font-size="15" fill="#222" font-family="Helvetica, Arial, sans-serif">time since request submit (s)</text>
</svg>