<svg xmlns="http://www.w3.org/2000/svg" width="1100" height="420" viewBox="0 0 1100 420">
<rect width="1100" height="420" fill="white"/>
<text x="86" y="26" font-size="22" font-weight="700" font-family="Helvetica, Arial, sans-serif">tb_session_11_turn_000_seed  phase=seed  turn=0  prompt=24576  peak_tx=3.66 GiB/s  peak_rx=27.74 GiB/s</text>
<line x1="86" y1="366.0" x2="1076" y2="366.0" stroke="#ececec" stroke-width="1"/>
<text x="76" y="370.0" text-anchor="end" font-size="12" fill="#444" font-family="Helvetica, Arial, sans-serif">0.0</text>
<line x1="86" y1="301.6" x2="1076" y2="301.6" stroke="#ececec" stroke-width="1"/>
<text x="76" y="305.6" text-anchor="end" font-size="12" fill="#444" font-family="Helvetica, Arial, sans-serif">6.1</text>
<line x1="86" y1="237.2" x2="1076" y2="237.2" stroke="#ececec" stroke-width="1"/>
<text x="76" y="241.2" text-anchor="end" font-size="12" fill="#444" font-family="Helvetica, Arial, sans-serif">12.2</text>
<line x1="86" y1="172.8" x2="1076" y2="172.8" stroke="#ececec" stroke-width="1"/>
<text x="76" y="176.8" text-anchor="end" font-size="12" fill="#444" font-family="Helvetica, Arial, sans-serif">18.3</text>
<line x1="86" y1="108.4" x2="1076" y2="108.4" stroke="#ececec" stroke-width="1"/>
<text x="76" y="112.4" text-anchor="end" font-size="12" fill="#444" font-family="Helvetica, Arial, sans-serif">24.4</text>
<line x1="86" y1="44.0" x2="1076" y2="44.0" stroke="#ececec" stroke-width="1"/>
<text x="76" y="48.0" text-anchor="end" font-size="12" fill="#444" font-family="Helvetica, Arial, sans-serif">30.5</text>
<line x1="86" y1="366.0" x2="1076" y2="366.0" stroke="#222" stroke-width="1.4"/>
<line x1="86" y1="44.0" x2="86" y2="366.0" stroke="#222" stroke-width="1.4"/>
<rect x="158.2" y="44.0" width="928.9" height="322.0" fill="#4C78A8" opacity="0.08"/>
<path d="M 86.0 366.0 L 107.7 366.0 L 128.9 366.0 L 150.1 366.0 L 171.4 366.0 L 193.1 366.0 L 214.3 366.0 L 235.5 366.0 L 256.7 365.9 L 277.9 366.0 L 299.2 331.4 L 322.4 332.4 L 344.6 327.4 L 370.4 365.9 L 391.6 365.9 L 413.3 365.9 L 434.5 365.9 L 456.7 365.9 L 479.0 366.0 L 500.2 366.0 L 521.4 366.0 L 542.6 366.0 L 563.8 366.0 L 585.0 366.0 L 606.3 366.0 L 628.0 366.0 L 649.2 366.0 L 670.4 366.0 L 691.6 366.0 L 712.8 366.0 L 734.6 366.0 L 755.8 366.0 L 777.0 365.9 L 798.7 365.9 L 819.9 366.0 L 841.6 366.0 L 862.8 366.0 L 884.1 366.0 L 905.3 366.0 L 926.5 366.0 L 947.7 366.0 L 969.4 366.0 L 990.6 366.0 L 1011.9 366.0 L 1033.6 366.0 L 1054.8 366.0 L 1076.0 366.0" fill="none" stroke="#4C78A8" stroke-width="2.8" stroke-linejoin="round" stroke-linecap="round"/>
<path d="M 86.0 366.0 L 107.7 366.0 L 128.9 366.0 L 150.1 366.0 L 171.4 366.0 L 193.1 366.0 L 214.3 366.0 L 235.5 365.9 L 256.7 365.9 L 277.9 165.9 L 299.2 75.1 L 322.4 73.3 L 344.6 352.5 L 370.4 365.7 L 391.6 365.7 L 413.3 365.7 L 434.5 365.7 L 456.7 366.0 L 479.0 366.0 L 500.2 366.0 L 521.4 366.0 L 542.6 366.0 L 563.8 366.0 L 585.0 366.0 L 606.3 366.0 L 628.0 366.0 L 649.2 366.0 L 670.4 366.0 L 691.6 366.0 L 712.8 366.0 L 734.6 366.0 L 755.8 366.0 L 777.0 366.0 L 798.7 366.0 L 819.9 366.0 L 841.6 366.0 L 862.8 366.0 L 884.1 366.0 L 905.3 366.0 L 926.5 366.0 L 947.7 366.0 L 969.4 366.0 L 990.6 366.0 L 1011.9 366.0 L 1033.6 366.0 L 1054.8 366.0 L 1076.0 366.0" fill="none" stroke="#F58518" stroke-width="2.8" stroke-linejoin="round" stroke-linecap="round"/>
<line x1="158.2" y1="44.0" x2="158.2" y2="366.0" stroke="#666" stroke-dasharray="4 4" stroke-width="1.2"/>
<text x="158.2" y="402.0" text-anchor="middle" font-size="12" fill="#444" font-family="Helvetica, Arial, sans-serif">submit</text>
<line x1="1087.1" y1="44.0" x2="1087.1" y2="366.0" stroke="#888" stroke-dasharray="4 4" stroke-width="1.2"/>
<text x="1087.1" y="402.0" text-anchor="middle" font-size="12" fill="#444" font-family="Helvetica, Arial, sans-serif">metrics</text>
<line x1="86.0" y1="44.0" x2="86.0" y2="366.0" stroke="#f5f5f5" stroke-width="1"/>
<text x="86.0" y="418.0" text-anchor="middle" font-size="11" fill="#444" font-family="Helvetica, Arial, sans-serif">-0.14</text>
<line x1="209.8" y1="44.0" x2="209.8" y2="366.0" stroke="#f5f5f5" stroke-width="1"/>
<text x="209.8" y="418.0" text-anchor="middle" font-size="11" fill="#444" font-family="Helvetica, Arial, sans-serif">0.10</text>
<line x1="333.5" y1="44.0" x2="333.5" y2="366.0" stroke="#f5f5f5" stroke-width="1"/>
<text x="333.5" y="418.0" text-anchor="middle" font-size="11" fill="#444" font-family="Helvetica, Arial, sans-serif">0.35</text>
<line x1="457.2" y1="44.0" x2="457.2" y2="366.0" stroke="#f5f5f5" stroke-width="1"/>
<text x="457.2" y="418.0" text-anchor="middle" font-size="11" fill="#444" font-family="Helvetica, Arial, sans-serif">0.59</text>
<line x1="581.0" y1="44.0" x2="581.0" y2="366.0" stroke="#f5f5f5" stroke-width="1"/>
<text x="581.0" y="418.0" text-anchor="middle" font-size="11" fill="#444" font-family="Helvetica, Arial, sans-serif">0.84</text>
<line x1="704.8" y1="44.0" x2="704.8" y2="366.0" stroke="#f5f5f5" stroke-width="1"/>
<text x="704.8" y="418.0" text-anchor="middle" font-size="11" fill="#444" font-family="Helvetica, Arial, sans-serif">1.08</text>
<line x1="828.5" y1="44.0" x2="828.5" y2="366.0" stroke="#f5f5f5" stroke-width="1"/>
<text x="828.5" y="418.0" text-anchor="middle" font-size="11" fill="#444" font-family="Helvetica, Arial, sans-serif">1.33</text>
<line x1="952.2" y1="44.0" x2="952.2" y2="366.0" stroke="#f5f5f5" stroke-width="1"/>
<text x="952.2" y="418.0" text-anchor="middle" font-size="11" fill="#444" font-family="Helvetica, Arial, sans-serif">1.57</text>
<line x1="1076.0" y1="44.0" x2="1076.0" y2="366.0" stroke="#f5f5f5" stroke-width="1"/>
<text x="1076.0" y="418.0" text-anchor="middle" font-size="11" fill="#444" font-family="Helvetica, Arial, sans-serif">1.82</text>
<text x="581.0" y="386.0" text-anchor="middle" font-size="15" fill="#222" font-family="Helvetica, Arial, sans-serif">time since request submit (s)</text>
</svg>