<svg xmlns="http://www.w3.org/2000/svg" width="1100" height="420" viewBox="0 0 1100 420">
<rect width="1100" height="420" fill="white"/>
<text x="86" y="26" font-size="22" font-weight="700" font-family="Helvetica, Arial, sans-serif">tb_session_11_turn_002_reuse  phase=reuse  turn=2  prompt=25088  peak_tx=12.08 GiB/s  peak_rx=42.88 GiB/s</text>
<line x1="86" y1="366.0" x2="1076" y2="366.0" stroke="#ececec" stroke-width="1"/>
<text x="76" y="370.0" text-anchor="end" font-size="12" fill="#444" font-family="Helvetica, Arial, sans-serif">0.0</text>
<line x1="86" y1="301.6" x2="1076" y2="301.6" stroke="#ececec" stroke-width="1"/>
<text x="76" y="305.6" text-anchor="end" font-size="12" fill="#444" font-family="Helvetica, Arial, sans-serif">9.4</text>
<line x1="86" y1="237.2" x2="1076" y2="237.2" stroke="#ececec" stroke-width="1"/>
<text x="76" y="241.2" text-anchor="end" font-size="12" fill="#444" font-family="Helvetica, Arial, sans-serif">18.9</text>
<line x1="86" y1="172.8" x2="1076" y2="172.8" stroke="#ececec" stroke-width="1"/>
<text x="76" y="176.8" text-anchor="end" font-size="12" fill="#444" font-family="Helvetica, Arial, sans-serif">28.3</text>
<line x1="86" y1="108.4" x2="1076" y2="108.4" stroke="#ececec" stroke-width="1"/>
<text x="76" y="112.4" text-anchor="end" font-size="12" fill="#444" font-family="Helvetica, Arial, sans-serif">37.7</text>
<line x1="86" y1="44.0" x2="1076" y2="44.0" stroke="#ececec" stroke-width="1"/>
<text x="76" y="48.0" text-anchor="end" font-size="12" fill="#444" font-family="Helvetica, Arial, sans-serif">47.2</text>
<line x1="86" y1="366.0" x2="1076" y2="366.0" stroke="#222" stroke-width="1.4"/>
<line x1="86" y1="44.0" x2="86" y2="366.0" stroke="#222" stroke-width="1.4"/>
<rect x="101.0" y="44.0" width="814.0" height="322.0" fill="#F58518" opacity="0.08"/>
<path d="M 86.0 366.0 L 91.2 366.0 L 96.2 366.0 L 101.3 366.0 L 106.3 366.0 L 111.4 366.0 L 116.4 366.0 L 121.5 366.0 L 126.7 366.0 L 131.7 366.0 L 136.8 366.0 L 141.8 366.0 L 146.9 366.0 L 151.9 366.0 L 157.1 344.1 L 162.4 354.9 L 167.7 344.5 L 173.1 366.0 L 178.6 366.0 L 183.8 356.9 L 189.0 344.3 L 194.4 337.8 L 201.0 361.2 L 206.2 366.0 L 211.8 339.6 L 216.9 366.0 L 221.9 366.0 L 227.0 366.0 L 232.2 366.0 L 237.2 366.0 L 242.3 366.0 L 247.6 366.0 L 252.6 366.0 L 257.7 366.0 L 262.7 366.0 L 267.8 366.0 L 272.9 366.0 L 278.0 366.0 L 283.0 366.0 L 288.1 366.0 L 293.1 366.0 L 298.2 366.0 L 303.4 366.0 L 308.4 366.0 L 313.5 366.0 L 318.5 366.0 L 323.6 366.0 L 328.6 366.0 L 333.8 366.0 L 338.9 366.0 L 344.0 344.2 L 349.3 344.1 L 354.9 344.3 L 360.5 366.0 L 365.6 366.0 L 370.6 348.8 L 375.9 336.1 L 382.9 344.3 L 388.3 366.0 L 393.5 366.0 L 398.5 345.2 L 404.4 343.9 L 409.8 344.3 L 415.2 366.0 L 420.3 366.0 L 425.5 348.8 L 430.8 344.2 L 436.2 343.5 L 441.7 360.1 L 446.8 366.0 L 452.0 356.4 L 457.3 344.4 L 463.1 344.0 L 468.6 356.3 L 473.8 366.0 L 478.9 361.4 L 484.2 343.6 L 490.2 344.3 L 495.5 350.8 L 500.6 366.0 L 505.7 366.0 L 512.4 343.7 L 518.8 341.3 L 525.1 366.0 L 530.2 366.0 L 535.3 347.2 L 540.6 344.2 L 546.1 344.1 L 552.0 366.0 L 557.2 366.0 L 562.2 366.0 L 567.3 366.0 L 572.6 366.0 L 577.8 366.0 L 582.8 366.0 L 587.9 366.0 L 593.0 283.5 L 598.1 366.0 L 603.1 366.0 L 608.5 366.0 L 613.6 366.0 L 618.7 366.0 L 623.7 366.0 L 628.9 366.0 L 633.9 361.8 L 639.7 342.7 L 645.7 344.2 L 651.3 357.2 L 656.7 366.0 L 661.7 357.7 L 667.4 343.9 L 673.0 344.2 L 678.4 362.8 L 684.5 366.0 L 689.5 366.0 L 694.7 366.0 L 699.7 365.9 L 705.3 365.9 L 710.3 365.9 L 715.5 365.9 L 720.5 365.9 L 725.7 365.9 L 730.8 365.9 L 735.8 365.9 L 741.2 365.9 L 746.4 365.9 L 751.5 365.9 L 756.6 365.9 L 761.7 365.9 L 766.9 366.0 L 771.9 366.0 L 777.1 366.0 L 782.2 366.0 L 787.3 366.0 L 792.4 366.0 L 797.4 366.0 L 802.5 366.0 L 807.5 366.0 L 812.9 366.0 L 818.0 366.0 L 823.0 366.0 L 828.1 366.0 L 833.1 366.0 L 838.2 366.0 L 843.2 366.0 L 848.4 366.0 L 853.5 366.0 L 858.6 366.0 L 863.7 366.0 L 868.7 366.0 L 873.8 366.0 L 878.8 366.0 L 884.0 366.0 L 889.1 365.9 L 894.2 366.0 L 899.4 366.0 L 904.5 366.0 L 909.5 366.0 L 914.6 366.0 L 919.6 366.0 L 924.8 366.0 L 929.8 366.0 L 934.9 366.0 L 940.0 366.0 L 945.5 366.0 L 951.4 366.0 L 956.6 344.4 L 961.8 344.2 L 968.0 344.3 L 973.5 366.0 L 978.7 366.0 L 983.9 352.8 L 988.9 366.0 L 994.0 366.0 L 999.0 366.0 L 1004.1 366.0 L 1009.1 366.0 L 1014.2 366.0 L 1019.3 366.0 L 1024.4 366.0 L 1029.6 366.0 L 1034.6 366.0 L 1039.7 366.0 L 1044.7 366.0 L 1050.6 366.0 L 1055.8 366.0 L 1060.8 366.0 L 1065.9 366.0 L 1070.9 366.0 L 1076.0 366.0" fill="none" stroke="#4C78A8" stroke-width="2.8" stroke-linejoin="round" stroke-linecap="round"/>
<path d="M 86.0 366.0 L 91.2 366.0 L 96.2 366.0 L 101.3 366.0 L 106.3 366.0 L 111.4 366.0 L 116.4 366.0 L 121.5 365.9 L 126.7 365.9 L 131.7 366.0 L 136.8 366.0 L 141.8 366.0 L 146.9 366.0 L 151.9 209.9 L 157.1 252.1 L 162.4 175.2 L 167.7 169.0 L 173.1 366.0 L 178.6 366.0 L 183.8 177.7 L 189.0 178.7 L 194.4 172.6 L 201.0 365.9 L 206.2 365.9 L 211.8 366.0 L 216.9 366.0 L 221.9 366.0 L 227.0 366.0 L 232.2 366.0 L 237.2 366.0 L 242.3 366.0 L 247.6 365.9 L 252.6 365.9 L 257.7 366.0 L 262.7 366.0 L 267.8 366.0 L 272.9 366.0 L 278.0 366.0 L 283.0 366.0 L 288.1 366.0 L 293.1 366.0 L 298.2 366.0 L 303.4 366.0 L 308.4 366.0 L 313.5 366.0 L 318.5 366.0 L 323.6 366.0 L 328.6 365.9 L 333.8 366.0 L 338.9 358.7 L 344.0 176.6 L 349.3 169.5 L 354.9 191.5 L 360.5 366.0 L 365.6 366.0 L 370.6 177.0 L 375.9 177.4 L 382.9 226.8 L 388.3 366.0 L 393.5 366.0 L 398.5 173.3 L 404.4 177.0 L 409.8 172.9 L 415.2 366.0 L 420.3 366.0 L 425.5 177.5 L 430.8 175.8 L 436.2 175.8 L 441.7 366.0 L 446.8 366.0 L 452.0 175.2 L 457.3 151.3 L 463.1 176.5 L 468.6 366.0 L 473.8 366.0 L 478.9 175.2 L 484.2 172.2 L 490.2 177.5 L 495.5 366.0 L 500.6 366.0 L 505.7 73.3 L 512.4 177.3 L 518.8 202.6 L 525.1 366.0 L 530.2 366.0 L 535.3 177.3 L 540.6 161.0 L 546.1 178.4 L 552.0 365.9 L 557.2 365.9 L 562.2 365.9 L 567.3 365.9 L 572.6 365.9 L 577.8 365.9 L 582.8 365.9 L 587.9 365.9 L 593.0 366.0 L 598.1 366.0 L 603.1 366.0 L 608.5 366.0 L 613.6 366.0 L 618.7 366.0 L 623.7 366.0 L 628.9 366.0 L 633.9 147.9 L 639.7 172.5 L 645.7 174.4 L 651.3 366.0 L 656.7 366.0 L 661.7 150.1 L 667.4 177.1 L 673.0 168.0 L 678.4 365.9 L 684.5 365.9 L 689.5 365.9 L 694.7 365.7 L 699.7 365.7 L 705.3 365.8 L 710.3 365.8 L 715.5 365.8 L 720.5 365.8 L 725.7 365.8 L 730.8 365.8 L 735.8 365.8 L 741.2 365.8 L 746.4 365.8 L 751.5 365.8 L 756.6 365.8 L 761.7 365.9 L 766.9 366.0 L 771.9 366.0 L 777.1 366.0 L 782.2 366.0 L 787.3 366.0 L 792.4 366.0 L 797.4 366.0 L 802.5 366.0 L 807.5 366.0 L 812.9 366.0 L 818.0 366.0 L 823.0 366.0 L 828.1 366.0 L 833.1 366.0 L 838.2 366.0 L 843.2 366.0 L 848.4 366.0 L 853.5 366.0 L 858.6 366.0 L 863.7 366.0 L 868.7 366.0 L 873.8 366.0 L 878.8 366.0 L 884.0 366.0 L 889.1 366.0 L 894.2 366.0 L 899.4 366.0 L 904.5 366.0 L 909.5 366.0 L 914.6 366.0 L 919.6 366.0 L 924.8 366.0 L 929.8 366.0 L 934.9 366.0 L 940.0 365.9 L 945.5 366.0 L 951.4 359.6 L 956.6 175.3 L 961.8 121.2 L 968.0 219.6 L 973.5 366.0 L 978.7 366.0 L 983.9 366.0 L 988.9 366.0 L 994.0 366.0 L 999.0 366.0 L 1004.1 366.0 L 1009.1 366.0 L 1014.2 365.9 L 1019.3 366.0 L 1024.4 366.0 L 1029.6 366.0 L 1034.6 366.0 L 1039.7 366.0 L 1044.7 366.0 L 1050.6 366.0 L 1055.8 366.0 L 1060.8 366.0 L 1065.9 366.0 L 1070.9 366.0 L 1076.0 366.0" fill="none" stroke="#F58518" stroke-width="2.8" stroke-linejoin="round" stroke-linecap="round"/>
<line x1="101.0" y1="44.0" x2="101.0" y2="366.0" stroke="#666" stroke-dasharray="4 4" stroke-width="1.2"/>
<text x="101.0" y="402.0" text-anchor="middle" font-size="12" fill="#444" font-family="Helvetica, Arial, sans-serif">submit</text>
<line x1="915.0" y1="44.0" x2="915.0" y2="366.0" stroke="#888" stroke-dasharray="4 4" stroke-width="1.2"/>
<text x="915.0" y="402.0" text-anchor="middle" font-size="12" fill="#444" font-family="Helvetica, Arial, sans-serif">metrics</text>
<line x1="86.0" y1="44.0" x2="86.0" y2="366.0" stroke="#f5f5f5" stroke-width="1"/>
<text x="86.0" y="418.0" text-anchor="middle" font-size="11" fill="#444" font-family="Helvetica, Arial, sans-serif">-0.12</text>
<line x1="209.8" y1="44.0" x2="209.8" y2="366.0" stroke="#f5f5f5" stroke-width="1"/>
<text x="209.8" y="418.0" text-anchor="middle" font-size="11" fill="#444" font-family="Helvetica, Arial, sans-serif">0.90</text>
<line x1="333.5" y1="44.0" x2="333.5" y2="366.0" stroke="#f5f5f5" stroke-width="1"/>
<text x="333.5" y="418.0" text-anchor="middle" font-size="11" fill="#444" font-family="Helvetica, Arial, sans-serif">1.93</text>
<line x1="457.2" y1="44.0" x2="457.2" y2="366.0" stroke="#f5f5f5" stroke-width="1"/>
<text x="457.2" y="418.0" text-anchor="middle" font-size="11" fill="#444" font-family="Helvetica, Arial, sans-serif">2.96</text>
<line x1="581.0" y1="44.0" x2="581.0" y2="366.0" stroke="#f5f5f5" stroke-width="1"/>
<text x="581.0" y="418.0" text-anchor="middle" font-size="11" fill="#444" font-family="Helvetica, Arial, sans-serif">3.99</text>
<line x1="704.8" y1="44.0" x2="704.8" y2="366.0" stroke="#f5f5f5" stroke-width="1"/>
<text x="704.8" y="418.0" text-anchor="middle" font-size="11" fill="#444" font-family="Helvetica, Arial, sans-serif">5.02</text>
<line x1="828.5" y1="44.0" x2="828.5" y2="366.0" stroke="#f5f5f5" stroke-width="1"/>
<text x="828.5" y="418.0" text-anchor="middle" font-size="11" fill="#444" font-family="Helvetica, Arial, sans-serif">6.05</text>
<line x1="952.2" y1="44.0" x2="952.2" y2="366.0" stroke="#f5f5f5" stroke-width="1"/>
<text x="952.2" y="418.0" text-anchor="middle" font-size="11" fill="#444" font-family="Helvetica, Arial, sans-serif">7.08</text>
<line x1="1076.0" y1="44.0" x2="1076.0" y2="366.0" stroke="#f5f5f5" stroke-width="1"/>
<text x="1076.0" y="418.0" text-anchor="middle" font-size="11" fill="#444" font-family="Helvetica, Arial, sans-serif">8.11</text>
<text x="581.0" y="386.0" text-anchor="middle" font-size="15" fill="#222" font-family="Helvetica, Arial, sans-serif">time since request submit (s)</text>
</svg>