<svg xmlns="http://www.w3.org/2000/svg" width="1100" height="420" viewBox="0 0 1100 420">
<rect width="1100" height="420" fill="white"/>
<text x="86" y="26" font-size="22" font-weight="700" font-family="Helvetica, Arial, sans-serif">tb_session_07_turn_000_seed  phase=seed  turn=0  prompt=24576  peak_tx=3.31 GiB/s  peak_rx=39.15 GiB/s</text>
<line x1="86" y1="366.0" x2="1076" y2="366.0" stroke="#ececec" stroke-width="1"/>
<text x="76" y="370.0" text-anchor="end" font-size="12" fill="#444" font-family="Helvetica, Arial, sans-serif">0.0</text>
<line x1="86" y1="301.6" x2="1076" y2="301.6" stroke="#ececec" stroke-width="1"/>
<text x="76" y="305.6" text-anchor="end" font-size="12" fill="#444" font-family="Helvetica, Arial, sans-serif">8.6</text>
<line x1="86" y1="237.2" x2="1076" y2="237.2" stroke="#ececec" stroke-width="1"/>
<text x="76" y="241.2" text-anchor="end" font-size="12" fill="#444" font-family="Helvetica, Arial, sans-serif">17.2</text>
<line x1="86" y1="172.8" x2="1076" y2="172.8" stroke="#ececec" stroke-width="1"/>
<text x="76" y="176.8" text-anchor="end" font-size="12" fill="#444" font-family="Helvetica, Arial, sans-serif">25.8</text>
<line x1="86" y1="108.4" x2="1076" y2="108.4" stroke="#ececec" stroke-width="1"/>
<text x="76" y="112.4" text-anchor="end" font-size="12" fill="#444" font-family="Helvetica, Arial, sans-serif">34.5</text>
<line x1="86" y1="44.0" x2="1076" y2="44.0" stroke="#ececec" stroke-width="1"/>
<text x="76" y="48.0" text-anchor="end" font-size="12" fill="#444" font-family="Helvetica, Arial, sans-serif">43.1</text>
<line x1="86" y1="366.0" x2="1076" y2="366.0" stroke="#222" stroke-width="1.4"/>
<line x1="86" y1="44.0" x2="86" y2="366.0" stroke="#222" stroke-width="1.4"/>
<rect x="130.9" y="44.0" width="551.8" height="322.0" fill="#4C78A8" opacity="0.08"/>
<path d="M 86.0 366.0 L 98.6 366.0 L 111.2 366.0 L 123.7 366.0 L 136.3 366.0 L 149.2 366.0 L 161.8 366.0 L 174.4 366.0 L 186.9 366.0 L 199.8 366.0 L 212.4 342.4 L 226.5 341.3 L 245.1 351.0 L 260.0 365.9 L 272.9 365.9 L 285.5 365.9 L 298.4 365.9 L 311.6 366.0 L 324.1 366.0 L 336.7 366.0 L 349.3 366.0 L 361.9 366.0 L 374.8 366.0 L 387.3 366.0 L 399.9 366.0 L 412.5 366.0 L 425.7 366.0 L 438.3 366.0 L 450.8 366.0 L 463.4 366.0 L 476.0 366.0 L 488.6 366.0 L 501.2 366.0 L 513.8 366.0 L 526.3 366.0 L 539.2 366.0 L 551.8 366.0 L 564.4 366.0 L 577.0 366.0 L 589.5 366.0 L 602.4 366.0 L 615.0 366.0 L 627.6 366.0 L 640.2 366.0 L 652.7 366.0 L 665.3 366.0 L 678.2 366.0 L 690.8 366.0 L 703.4 366.0 L 715.9 366.0 L 728.5 366.0 L 741.1 366.0 L 753.7 366.0 L 766.3 355.0 L 779.7 342.0 L 794.4 342.1 L 807.9 362.2 L 822.0 365.9 L 834.6 365.9 L 847.4 365.9 L 860.3 365.9 L 873.2 366.0 L 886.4 366.0 L 899.3 366.0 L 911.8 366.0 L 924.4 366.0 L 937.0 366.0 L 949.6 366.0 L 962.2 366.0 L 974.8 366.0 L 987.6 366.0 L 1000.2 366.0 L 1012.8 366.0 L 1025.4 366.0 L 1038.0 366.0 L 1050.5 366.0 L 1063.1 366.0 L 1076.0 366.0" fill="none" stroke="#4C78A8" stroke-width="2.8" stroke-linejoin="round" stroke-linecap="round"/>
<path d="M 86.0 366.0 L 98.6 366.0 L 111.2 366.0 L 123.7 366.0 L 136.3 366.0 L 149.2 366.0 L 161.8 366.0 L 174.4 365.9 L 186.9 366.0 L 199.8 325.9 L 212.4 139.0 L 226.5 73.3 L 245.1 365.8 L 260.0 365.8 L 272.9 365.8 L 285.5 365.8 L 298.4 365.8 L 311.6 366.0 L 324.1 366.0 L 336.7 366.0 L 349.3 366.0 L 361.9 366.0 L 374.8 366.0 L 387.3 366.0 L 399.9 366.0 L 412.5 366.0 L 425.7 366.0 L 438.3 366.0 L 450.8 366.0 L 463.4 366.0 L 476.0 366.0 L 488.6 366.0 L 501.2 366.0 L 513.8 366.0 L 526.3 366.0 L 539.2 365.9 L 551.8 365.9 L 564.4 366.0 L 577.0 366.0 L 589.5 366.0 L 602.4 366.0 L 615.0 366.0 L 627.6 366.0 L 640.2 366.0 L 652.7 366.0 L 665.3 366.0 L 678.2 366.0 L 690.8 366.0 L 703.4 366.0 L 715.9 366.0 L 728.5 366.0 L 741.1 366.0 L 753.7 366.0 L 766.3 152.3 L 779.7 156.2 L 794.4 159.1 L 807.9 365.8 L 822.0 365.8 L 834.6 365.8 L 847.4 365.8 L 860.3 365.8 L 873.2 366.0 L 886.4 366.0 L 899.3 366.0 L 911.8 366.0 L 924.4 366.0 L 937.0 366.0 L 949.6 366.0 L 962.2 366.0 L 974.8 366.0 L 987.6 366.0 L 1000.2 366.0 L 1012.8 366.0 L 1025.4 366.0 L 1038.0 366.0 L 1050.5 366.0 L 1063.1 366.0 L 1076.0 366.0" fill="none" stroke="#F58518" stroke-width="2.8" stroke-linejoin="round" stroke-linecap="round"/>
<line x1="130.9" y1="44.0" x2="130.9" y2="366.0" stroke="#666" stroke-dasharray="4 4" stroke-width="1.2"/>
<text x="130.9" y="402.0" text-anchor="middle" font-size="12" fill="#444" font-family="Helvetica, Arial, sans-serif">submit</text>
<line x1="682.7" y1="44.0" x2="682.7" y2="366.0" stroke="#888" stroke-dasharray="4 4" stroke-width="1.2"/>
<text x="682.7" y="402.0" text-anchor="middle" font-size="12" fill="#444" font-family="Helvetica, Arial, sans-serif">metrics</text>
<line x1="86.0" y1="44.0" x2="86.0" y2="366.0" stroke="#f5f5f5" stroke-width="1"/>
<text x="86.0" y="418.0" text-anchor="middle" font-size="11" fill="#444" font-family="Helvetica, Arial, sans-serif">-0.15</text>
<line x1="209.8" y1="44.0" x2="209.8" y2="366.0" stroke="#f5f5f5" stroke-width="1"/>
<text x="209.8" y="418.0" text-anchor="middle" font-size="11" fill="#444" font-family="Helvetica, Arial, sans-serif">0.26</text>
<line x1="333.5" y1="44.0" x2="333.5" y2="366.0" stroke="#f5f5f5" stroke-width="1"/>
<text x="333.5" y="418.0" text-anchor="middle" font-size="11" fill="#444" font-family="Helvetica, Arial, sans-serif">0.68</text>
<line x1="457.2" y1="44.0" x2="457.2" y2="366.0" stroke="#f5f5f5" stroke-width="1"/>
<text x="457.2" y="418.0" text-anchor="middle" font-size="11" fill="#444" font-family="Helvetica, Arial, sans-serif">1.09</text>
<line x1="581.0" y1="44.0" x2="581.0" y2="366.0" stroke="#f5f5f5" stroke-width="1"/>
<text x="581.0" y="418.0" text-anchor="middle" font-size="11" fill="#444" font-family="Helvetica, Arial, sans-serif">1.50</text>
<line x1="704.8" y1="44.0" x2="704.8" y2="366.0" stroke="#f5f5f5" stroke-width="1"/>
<text x="704.8" y="418.0" text-anchor="middle" font-size="11" fill="#444" font-family="Helvetica, Arial, sans-serif">1.92</text>
<line x1="828.5" y1="44.0" x2="828.5" y2="366.0" stroke="#f5f5f5" stroke-width="1"/>
<text x="828.5" y="418.0" text-anchor="middle" font-size="11" fill="#444" font-family="Helvetica, Arial, sans-serif">2.33</text>
<line x1="952.2" y1="44.0" x2="952.2" y2="366.0" stroke="#f5f5f5" stroke-width="1"/>
<text x="952.2" y="418.0" text-anchor="middle" font-size="11" fill="#444" font-family="Helvetica, Arial, sans-serif">2.74</text>
<line x1="1076.0" y1="44.0" x2="1076.0" y2="366.0" stroke="#f5f5f5" stroke-width="1"/>
<text x="1076.0" y="418.0" text-anchor="middle" font-size="11" fill="#444" font-family="Helvetica, Arial, sans-serif">3.15</text>
<text x="581.0" y="386.0" text-anchor="middle" font-size="15" fill="#222" font-family="Helvetica, Arial, sans-serif">time since request submit (s)</text>
</svg>