<svg xmlns="http://www.w3.org/2000/svg" width="1100" height="420" viewBox="0 0 1100 420">
<rect width="1100" height="420" fill="white"/>
<text x="86" y="26" font-size="22" font-weight="700" font-family="Helvetica, Arial, sans-serif">tb_session_02_turn_005_reuse  phase=reuse  turn=5  prompt=25856  peak_tx=4.30 GiB/s  peak_rx=34.60 GiB/s</text>
<line x1="86" y1="366.0" x2="1076" y2="366.0" stroke="#ececec" stroke-width="1"/>
<text x="76" y="370.0" text-anchor="end" font-size="12" fill="#444" font-family="Helvetica, Arial, sans-serif">0.0</text>
<line x1="86" y1="301.6" x2="1076" y2="301.6" stroke="#ececec" stroke-width="1"/>
<text x="76" y="305.6" text-anchor="end" font-size="12" fill="#444" font-family="Helvetica, Arial, sans-serif">7.6</text>
<line x1="86" y1="237.2" x2="1076" y2="237.2" stroke="#ececec" stroke-width="1"/>
<text x="76" y="241.2" text-anchor="end" font-size="12" fill="#444" font-family="Helvetica, Arial, sans-serif">15.2</text>
<line x1="86" y1="172.8" x2="1076" y2="172.8" stroke="#ececec" stroke-width="1"/>
<text x="76" y="176.8" text-anchor="end" font-size="12" fill="#444" font-family="Helvetica, Arial, sans-serif">22.8</text>
<line x1="86" y1="108.4" x2="1076" y2="108.4" stroke="#ececec" stroke-width="1"/>
<text x="76" y="112.4" text-anchor="end" font-size="12" fill="#444" font-family="Helvetica, Arial, sans-serif">30.5</text>
<line x1="86" y1="44.0" x2="1076" y2="44.0" stroke="#ececec" stroke-width="1"/>
<text x="76" y="48.0" text-anchor="end" font-size="12" fill="#444" font-family="Helvetica, Arial, sans-serif">38.1</text>
<line x1="86" y1="366.0" x2="1076" y2="366.0" stroke="#222" stroke-width="1.4"/>
<line x1="86" y1="44.0" x2="86" y2="366.0" stroke="#222" stroke-width="1.4"/>
<rect x="103.6" y="44.0" width="817.2" height="322.0" fill="#F58518" opacity="0.08"/>
<path d="M 86.0 366.0 L 91.0 366.0 L 95.9 366.0 L 100.9 366.0 L 105.9 366.0 L 110.9 366.0 L 115.8 366.0 L 120.8 366.0 L 125.8 366.0 L 131.0 366.0 L 136.1 366.0 L 141.1 339.1 L 146.4 339.2 L 151.7 339.2 L 156.9 359.9 L 162.0 366.0 L 167.1 349.7 L 172.1 366.0 L 177.1 366.0 L 182.0 366.0 L 187.0 366.0 L 192.0 366.0 L 197.1 366.0 L 202.1 366.0 L 207.1 366.0 L 212.2 366.0 L 217.2 366.0 L 222.2 366.0 L 227.2 366.0 L 232.1 366.0 L 237.1 366.0 L 242.1 366.0 L 247.1 366.0 L 252.1 366.0 L 257.1 366.0 L 262.1 366.0 L 267.1 366.0 L 272.2 366.0 L 277.1 366.0 L 282.1 366.0 L 287.2 339.4 L 292.5 339.3 L 298.0 338.9 L 303.5 365.9 L 308.5 365.9 L 313.6 342.7 L 318.7 336.9 L 324.7 339.0 L 330.1 361.4 L 335.2 366.0 L 340.1 355.2 L 345.6 338.8 L 351.1 339.4 L 356.9 355.0 L 362.3 366.0 L 367.2 362.1 L 372.5 339.0 L 377.7 334.5 L 383.5 339.4 L 388.6 366.0 L 393.5 366.0 L 398.6 339.1 L 404.4 338.8 L 410.1 339.0 L 415.3 366.0 L 420.4 366.0 L 425.5 329.7 L 432.9 339.0 L 438.2 337.3 L 443.5 366.0 L 448.5 366.0 L 453.6 339.3 L 458.8 339.2 L 464.6 339.3 L 470.2 366.0 L 475.2 366.0 L 480.2 366.0 L 485.2 366.0 L 490.3 366.0 L 495.3 366.0 L 500.5 366.0 L 505.4 353.2 L 510.5 366.0 L 515.5 366.0 L 520.5 366.0 L 525.5 366.0 L 530.4 366.0 L 535.5 366.0 L 540.5 366.0 L 545.6 366.0 L 550.6 366.0 L 555.5 365.9 L 560.5 365.9 L 565.5 366.0 L 570.6 366.0 L 575.6 366.0 L 580.5 338.8 L 585.9 339.0 L 591.2 339.0 L 596.8 365.5 L 601.8 366.0 L 606.8 351.5 L 612.0 339.0 L 617.8 339.1 L 623.3 352.4 L 628.5 366.0 L 633.6 362.7 L 638.7 334.4 L 645.1 339.2 L 650.3 344.5 L 655.4 366.0 L 660.5 366.0 L 665.7 338.9 L 671.0 339.0 L 676.9 337.4 L 682.6 365.9 L 688.3 366.0 L 693.4 366.0 L 698.5 365.9 L 703.4 366.0 L 708.4 365.9 L 713.5 365.9 L 718.6 365.9 L 723.6 365.9 L 728.7 365.9 L 733.6 365.9 L 738.7 365.9 L 743.7 365.9 L 748.8 365.9 L 753.8 365.9 L 759.1 365.9 L 764.2 365.9 L 769.3 365.9 L 774.3 366.0 L 779.2 366.0 L 784.3 366.0 L 789.3 366.0 L 794.4 366.0 L 799.4 366.0 L 804.3 366.0 L 809.4 366.0 L 814.4 366.0 L 819.4 366.0 L 824.4 366.0 L 829.4 366.0 L 834.5 366.0 L 839.5 366.0 L 844.5 366.0 L 849.5 366.0 L 854.4 366.0 L 859.4 366.0 L 864.4 366.0 L 869.4 366.0 L 874.3 366.0 L 879.4 366.0 L 884.4 366.0 L 889.5 366.0 L 894.5 366.0 L 899.4 366.0 L 904.4 366.0 L 909.4 366.0 L 914.4 366.0 L 919.3 366.0 L 924.4 366.0 L 929.4 366.0 L 934.5 366.0 L 939.5 366.0 L 944.4 366.0 L 949.4 366.0 L 954.4 366.0 L 959.4 340.9 L 964.7 339.2 L 969.9 336.2 L 975.6 365.9 L 980.6 365.9 L 985.6 365.9 L 990.6 365.9 L 995.8 365.9 L 1001.0 366.0 L 1006.1 366.0 L 1011.1 366.0 L 1016.1 366.0 L 1021.1 366.0 L 1026.0 366.0 L 1031.1 366.0 L 1036.1 366.0 L 1041.1 366.0 L 1046.0 366.0 L 1051.0 365.9 L 1056.1 365.9 L 1061.1 366.0 L 1066.1 366.0 L 1071.0 366.0 L 1076.0 366.0" fill="none" stroke="#4C78A8" stroke-width="2.8" stroke-linejoin="round" stroke-linecap="round"/>
<path d="M 86.0 366.0 L 91.0 366.0 L 95.9 366.0 L 100.9 366.0 L 105.9 366.0 L 110.9 366.0 L 115.8 366.0 L 120.8 366.0 L 125.8 365.9 L 131.0 366.0 L 136.1 366.0 L 141.1 128.1 L 146.4 131.1 L 151.7 128.3 L 156.9 365.9 L 162.0 366.0 L 167.1 366.0 L 172.1 366.0 L 177.1 365.9 L 182.0 365.9 L 187.0 366.0 L 192.0 366.0 L 197.1 366.0 L 202.1 366.0 L 207.1 366.0 L 212.2 366.0 L 217.2 366.0 L 222.2 366.0 L 227.2 366.0 L 232.1 366.0 L 237.1 366.0 L 242.1 366.0 L 247.1 366.0 L 252.1 366.0 L 257.1 366.0 L 262.1 366.0 L 267.1 366.0 L 272.2 366.0 L 277.1 366.0 L 282.1 288.7 L 287.2 128.4 L 292.5 107.3 L 298.0 185.4 L 303.5 366.0 L 308.5 366.0 L 313.6 129.8 L 318.7 125.9 L 324.7 129.6 L 330.1 366.0 L 335.2 366.0 L 340.1 111.6 L 345.6 130.6 L 351.1 73.6 L 356.9 366.0 L 362.3 366.0 L 367.2 130.8 L 372.5 131.9 L 377.7 128.7 L 383.5 365.9 L 388.6 366.0 L 393.5 239.0 L 398.6 79.9 L 404.4 130.7 L 410.1 261.9 L 415.3 366.0 L 420.4 323.8 L 425.5 130.9 L 432.9 129.5 L 438.2 315.0 L 443.5 366.0 L 448.5 283.9 L 453.6 130.5 L 458.8 88.1 L 464.6 230.6 L 470.2 365.9 L 475.2 365.9 L 480.2 365.9 L 485.2 365.9 L 490.3 365.9 L 495.3 365.9 L 500.5 365.9 L 505.4 365.5 L 510.5 366.0 L 515.5 366.0 L 520.5 366.0 L 525.5 366.0 L 530.4 366.0 L 535.5 366.0 L 540.5 366.0 L 545.6 366.0 L 550.6 366.0 L 555.5 366.0 L 560.5 366.0 L 565.5 365.9 L 570.6 366.0 L 575.6 356.4 L 580.5 129.9 L 585.9 132.1 L 591.2 131.0 L 596.8 366.0 L 601.8 366.0 L 606.8 132.1 L 612.0 82.0 L 617.8 129.9 L 623.3 366.0 L 628.5 366.0 L 633.6 131.9 L 638.7 126.0 L 645.1 128.8 L 650.3 366.0 L 655.4 366.0 L 660.5 170.8 L 665.7 131.3 L 671.0 73.3 L 676.9 365.4 L 682.6 365.8 L 688.3 365.9 L 693.4 365.9 L 698.5 365.9 L 703.4 365.6 L 708.4 365.7 L 713.5 365.7 L 718.6 365.7 L 723.6 365.7 L 728.7 365.7 L 733.6 365.8 L 738.7 365.8 L 743.7 365.8 L 748.8 365.8 L 753.8 365.7 L 759.1 365.7 L 764.2 365.7 L 769.3 365.8 L 774.3 366.0 L 779.2 366.0 L 784.3 366.0 L 789.3 366.0 L 794.4 366.0 L 799.4 366.0 L 804.3 365.9 L 809.4 366.0 L 814.4 366.0 L 819.4 366.0 L 824.4 366.0 L 829.4 366.0 L 834.5 366.0 L 839.5 366.0 L 844.5 366.0 L 849.5 366.0 L 854.4 366.0 L 859.4 366.0 L 864.4 366.0 L 869.4 366.0 L 874.3 366.0 L 879.4 366.0 L 884.4 366.0 L 889.5 366.0 L 894.5 366.0 L 899.4 366.0 L 904.4 366.0 L 909.4 366.0 L 914.4 366.0 L 919.3 366.0 L 924.4 365.9 L 929.4 365.9 L 934.5 366.0 L 939.5 366.0 L 944.4 365.9 L 949.4 366.0 L 954.4 366.0 L 959.4 129.7 L 964.7 131.5 L 969.9 126.6 L 975.6 365.8 L 980.6 365.8 L 985.6 365.8 L 990.6 365.8 L 995.8 365.8 L 1001.0 366.0 L 1006.1 366.0 L 1011.1 366.0 L 1016.1 366.0 L 1021.1 366.0 L 1026.0 366.0 L 1031.1 366.0 L 1036.1 366.0 L 1041.1 366.0 L 1046.0 366.0 L 1051.0 366.0 L 1056.1 366.0 L 1061.1 366.0 L 1066.1 366.0 L 1071.0 366.0 L 1076.0 366.0" fill="none" stroke="#F58518" stroke-width="2.8" stroke-linejoin="round" stroke-linecap="round"/>
<line x1="103.6" y1="44.0" x2="103.6" y2="366.0" stroke="#666" stroke-dasharray="4 4" stroke-width="1.2"/>
<text x="103.6" y="402.0" text-anchor="middle" font-size="12" fill="#444" font-family="Helvetica, Arial, sans-serif">submit</text>
<line x1="920.9" y1="44.0" x2="920.9" y2="366.0" stroke="#888" stroke-dasharray="4 4" stroke-width="1.2"/>
<text x="920.9" y="402.0" text-anchor="middle" font-size="12" fill="#444" font-family="Helvetica, Arial, sans-serif">metrics</text>
<line x1="86.0" y1="44.0" x2="86.0" y2="366.0" stroke="#f5f5f5" stroke-width="1"/>
<text x="86.0" y="418.0" text-anchor="middle" font-size="11" fill="#444" font-family="Helvetica, Arial, sans-serif">-0.15</text>
<line x1="209.8" y1="44.0" x2="209.8" y2="366.0" stroke="#f5f5f5" stroke-width="1"/>
<text x="209.8" y="418.0" text-anchor="middle" font-size="11" fill="#444" font-family="Helvetica, Arial, sans-serif">0.90</text>
<line x1="333.5" y1="44.0" x2="333.5" y2="366.0" stroke="#f5f5f5" stroke-width="1"/>
<text x="333.5" y="418.0" text-anchor="middle" font-size="11" fill="#444" font-family="Helvetica, Arial, sans-serif">1.94</text>
<line x1="457.2" y1="44.0" x2="457.2" y2="366.0" stroke="#f5f5f5" stroke-width="1"/>
<text x="457.2" y="418.0" text-anchor="middle" font-size="11" fill="#444" font-family="Helvetica, Arial, sans-serif">2.99</text>
<line x1="581.0" y1="44.0" x2="581.0" y2="366.0" stroke="#f5f5f5" stroke-width="1"/>
<text x="581.0" y="418.0" text-anchor="middle" font-size="11" fill="#444" font-family="Helvetica, Arial, sans-serif">4.03</text>
<line x1="704.8" y1="44.0" x2="704.8" y2="366.0" stroke="#f5f5f5" stroke-width="1"/>
<text x="704.8" y="418.0" text-anchor="middle" font-size="11" fill="#444" font-family="Helvetica, Arial, sans-serif">5.08</text>
<line x1="828.5" y1="44.0" x2="828.5" y2="366.0" stroke="#f5f5f5" stroke-width="1"/>
<text x="828.5" y="418.0" text-anchor="middle" font-size="11" fill="#444" font-family="Helvetica, Arial, sans-serif">6.12</text>
<line x1="952.2" y1="44.0" x2="952.2" y2="366.0" stroke="#f5f5f5" stroke-width="1"/>
<text x="952.2" y="418.0" text-anchor="middle" font-size="11" fill="#444" font-family="Helvetica, Arial, sans-serif">7.17</text>
<line x1="1076.0" y1="44.0" x2="1076.0" y2="366.0" stroke="#f5f5f5" stroke-width="1"/>
<text x="1076.0" y="418.0" text-anchor="middle" font-size="11" fill="#444" font-family="Helvetica, Arial, sans-serif">8.21</text>
<text x="581.0" y="386.0" text-anchor="middle" font-size="15" fill="#222" font-family="Helvetica, Arial, sans-serif">time since request submit (s)</text>
</svg>