<svg xmlns="http://www.w3.org/2000/svg" width="1100" height="420" viewBox="0 0 1100 420">
<rect width="1100" height="420" fill="white"/>
<text x="86" y="26" font-size="22" font-weight="700" font-family="Helvetica, Arial, sans-serif">tb_session_03_turn_001_reuse  phase=reuse  turn=1  prompt=24832  peak_tx=15.47 GiB/s  peak_rx=33.73 GiB/s</text>
<line x1="86" y1="366.0" x2="1076" y2="366.0" stroke="#ececec" stroke-width="1"/>
<text x="76" y="370.0" text-anchor="end" font-size="12" fill="#444" font-family="Helvetica, Arial, sans-serif">0.0</text>
<line x1="86" y1="301.6" x2="1076" y2="301.6" stroke="#ececec" stroke-width="1"/>
<text x="76" y="305.6" text-anchor="end" font-size="12" fill="#444" font-family="Helvetica, Arial, sans-serif">7.4</text>
<line x1="86" y1="237.2" x2="1076" y2="237.2" stroke="#ececec" stroke-width="1"/>
<text x="76" y="241.2" text-anchor="end" font-size="12" fill="#444" font-family="Helvetica, Arial, sans-serif">14.8</text>
<line x1="86" y1="172.8" x2="1076" y2="172.8" stroke="#ececec" stroke-width="1"/>
<text x="76" y="176.8" text-anchor="end" font-size="12" fill="#444" font-family="Helvetica, Arial, sans-serif">22.3</text>
<line x1="86" y1="108.4" x2="1076" y2="108.4" stroke="#ececec" stroke-width="1"/>
<text x="76" y="112.4" text-anchor="end" font-size="12" fill="#444" font-family="Helvetica, Arial, sans-serif">29.7</text>
<line x1="86" y1="44.0" x2="1076" y2="44.0" stroke="#ececec" stroke-width="1"/>
<text x="76" y="48.0" text-anchor="end" font-size="12" fill="#444" font-family="Helvetica, Arial, sans-serif">37.1</text>
<line x1="86" y1="366.0" x2="1076" y2="366.0" stroke="#222" stroke-width="1.4"/>
<line x1="86" y1="44.0" x2="86" y2="366.0" stroke="#222" stroke-width="1.4"/>
<rect x="95.6" y="44.0" width="880.2" height="322.0" fill="#F58518" opacity="0.08"/>
<path d="M 86.0 366.0 L 89.2 366.0 L 92.4 366.0 L 95.6 366.0 L 98.8 366.0 L 102.1 366.0 L 105.3 366.0 L 108.5 366.0 L 111.7 366.0 L 114.9 366.0 L 118.1 366.0 L 121.4 366.0 L 124.6 338.3 L 128.0 337.3 L 132.1 340.7 L 135.4 366.0 L 138.8 366.0 L 142.0 366.0 L 145.3 365.9 L 148.6 365.9 L 151.9 366.0 L 155.1 340.9 L 158.3 366.0 L 161.8 366.0 L 165.0 366.0 L 168.2 366.0 L 171.5 366.0 L 174.7 366.0 L 178.5 366.0 L 181.7 366.0 L 185.0 366.0 L 188.3 366.0 L 191.5 231.9 L 194.8 366.0 L 198.0 366.0 L 201.3 366.0 L 204.5 366.0 L 208.0 366.0 L 211.2 292.1 L 214.4 366.0 L 217.6 366.0 L 220.8 366.0 L 224.1 365.9 L 227.3 365.9 L 230.7 231.9 L 234.0 366.0 L 237.2 366.0 L 240.5 366.0 L 243.7 366.0 L 247.0 366.0 L 250.2 366.0 L 253.8 366.0 L 257.1 366.0 L 260.3 366.0 L 263.6 366.0 L 266.8 366.0 L 270.0 366.0 L 273.3 338.0 L 276.6 366.0 L 279.8 366.0 L 283.1 366.0 L 286.3 366.0 L 289.5 366.0 L 292.8 366.0 L 296.0 366.0 L 299.4 366.0 L 302.6 366.0 L 305.8 365.9 L 309.1 365.9 L 312.3 366.0 L 315.5 366.0 L 318.8 366.0 L 322.2 234.6 L 325.4 366.0 L 328.6 366.0 L 331.9 366.0 L 335.1 366.0 L 338.4 366.0 L 341.6 366.0 L 345.1 366.0 L 348.3 231.9 L 351.5 366.0 L 354.8 366.0 L 358.0 366.0 L 361.2 366.0 L 364.4 366.0 L 368.0 366.0 L 371.2 366.0 L 374.4 366.0 L 377.6 366.0 L 380.8 366.0 L 384.1 332.4 L 387.3 365.9 L 390.9 366.0 L 394.1 366.0 L 397.4 366.0 L 400.6 363.5 L 403.8 366.0 L 407.1 366.0 L 410.3 366.0 L 413.7 366.0 L 417.0 366.0 L 420.2 267.3 L 423.4 366.0 L 426.6 366.0 L 429.9 366.0 L 433.1 366.0 L 436.6 366.0 L 439.9 350.5 L 443.1 366.0 L 446.3 366.0 L 449.6 366.0 L 452.8 366.0 L 456.0 366.0 L 459.5 345.2 L 462.7 365.9 L 466.0 365.9 L 469.2 365.9 L 472.4 366.0 L 475.7 366.0 L 478.9 231.7 L 485.1 366.0 L 488.3 366.0 L 491.7 366.0 L 494.9 366.0 L 498.1 366.0 L 501.3 231.9 L 504.5 366.0 L 507.8 366.0 L 511.0 366.0 L 514.4 366.0 L 517.6 366.0 L 520.8 366.0 L 524.1 231.9 L 527.3 366.0 L 530.5 366.0 L 533.7 366.0 L 537.0 366.0 L 540.2 366.0 L 543.5 365.9 L 546.8 351.5 L 550.0 366.0 L 553.2 366.0 L 556.5 366.0 L 559.7 366.0 L 562.9 366.0 L 566.3 366.0 L 569.5 366.0 L 572.8 231.9 L 576.0 366.0 L 579.2 366.0 L 582.5 366.0 L 585.7 366.0 L 589.2 366.0 L 592.5 366.0 L 595.8 366.0 L 599.0 231.9 L 602.3 358.3 L 609.3 366.0 L 612.5 366.0 L 615.8 366.0 L 619.0 366.0 L 622.2 366.0 L 625.5 310.8 L 628.9 365.9 L 632.1 366.0 L 635.3 366.0 L 638.5 366.0 L 641.8 339.0 L 645.0 366.0 L 648.3 366.0 L 651.6 366.0 L 654.9 366.0 L 658.1 235.9 L 661.3 366.0 L 664.5 366.0 L 667.7 366.0 L 671.0 366.0 L 674.3 366.0 L 677.5 366.0 L 680.9 366.0 L 684.1 366.0 L 687.4 366.0 L 690.6 366.0 L 693.8 292.1 L 697.2 366.0 L 700.4 366.0 L 703.6 365.9 L 706.8 365.9 L 710.1 366.0 L 713.3 342.1 L 716.6 366.0 L 719.8 366.0 L 723.0 366.0 L 726.7 366.0 L 729.9 366.0 L 733.2 366.0 L 736.4 364.2 L 739.6 366.0 L 743.0 366.0 L 746.3 366.0 L 749.5 366.0 L 752.7 366.0 L 755.9 346.0 L 759.1 366.0 L 762.4 366.0 L 765.6 366.0 L 768.8 366.0 L 772.3 366.0 L 775.5 366.0 L 778.7 361.9 L 782.0 365.9 L 785.2 365.9 L 788.5 365.9 L 791.8 366.0 L 795.1 366.0 L 798.3 366.0 L 801.6 366.0 L 804.8 285.2 L 808.1 366.0 L 811.3 366.0 L 814.5 366.0 L 817.9 366.0 L 821.2 366.0 L 824.4 366.0 L 827.6 366.0 L 830.9 366.0 L 834.1 366.0 L 837.3 366.0 L 840.7 366.0 L 844.0 366.0 L 847.2 366.0 L 850.4 366.0 L 853.7 366.0 L 856.9 335.6 L 860.1 366.0 L 863.6 366.0 L 866.9 365.9 L 870.1 365.9 L 873.4 365.9 L 876.6 365.9 L 879.9 365.9 L 883.1 366.0 L 886.4 366.0 L 889.6 366.0 L 892.9 366.0 L 896.1 366.0 L 899.3 366.0 L 902.5 366.0 L 905.7 366.0 L 908.9 366.0 L 912.1 366.0 L 915.5 366.0 L 918.7 366.0 L 921.9 366.0 L 925.1 366.0 L 928.3 366.0 L 931.5 366.0 L 934.7 366.0 L 938.0 366.0 L 941.2 366.0 L 944.4 365.9 L 947.6 366.0 L 950.8 366.0 L 954.0 366.0 L 957.2 366.0 L 960.4 366.0 L 963.6 366.0 L 966.8 366.0 L 970.2 366.0 L 973.4 366.0 L 976.6 366.0 L 979.8 366.0 L 983.0 366.0 L 986.2 366.0 L 989.5 366.0 L 992.7 366.0 L 995.9 366.0 L 999.2 366.0 L 1002.4 347.9 L 1005.6 335.2 L 1009.6 338.2 L 1013.0 362.4 L 1016.3 349.2 L 1019.5 366.0 L 1022.8 366.0 L 1026.0 366.0 L 1029.2 366.0 L 1032.4 366.0 L 1035.6 366.0 L 1038.9 366.0 L 1042.1 366.0 L 1045.3 366.0 L 1048.5 366.0 L 1051.7 342.0 L 1055.1 338.0 L 1058.5 332.9 L 1062.5 366.0 L 1065.7 366.0 L 1068.9 346.6 L 1072.3 338.4 L 1076.0 338.3" fill="none" stroke="#4C78A8" stroke-width="2.8" stroke-linejoin="round" stroke-linecap="round"/>
<path d="M 86.0 366.0 L 89.2 366.0 L 92.4 366.0 L 95.6 366.0 L 98.8 366.0 L 102.1 366.0 L 105.3 366.0 L 108.5 366.0 L 111.7 366.0 L 114.9 366.0 L 118.1 366.0 L 121.4 193.5 L 124.6 123.0 L 128.0 120.4 L 132.1 365.9 L 135.4 365.9 L 138.8 154.1 L 142.0 365.9 L 145.3 365.9 L 148.6 365.9 L 151.9 365.9 L 155.1 365.9 L 158.3 365.9 L 161.8 365.9 L 165.0 365.9 L 168.2 365.9 L 171.5 366.0 L 174.7 365.9 L 178.5 365.9 L 181.7 365.9 L 185.0 365.9 L 188.3 365.9 L 191.5 365.9 L 194.8 365.9 L 198.0 365.9 L 201.3 365.9 L 204.5 365.9 L 208.0 365.9 L 211.2 365.9 L 214.4 365.9 L 217.6 365.9 L 220.8 365.9 L 224.1 365.9 L 227.3 365.9 L 230.7 365.9 L 234.0 365.9 L 237.2 365.9 L 240.5 365.9 L 243.7 365.9 L 247.0 365.9 L 250.2 365.9 L 253.8 365.9 L 257.1 365.9 L 260.3 365.9 L 263.6 365.9 L 266.8 365.9 L 270.0 365.9 L 273.3 365.9 L 276.6 365.9 L 279.8 365.9 L 283.1 365.9 L 286.3 365.9 L 289.5 365.9 L 292.8 365.9 L 296.0 365.9 L 299.4 365.9 L 302.6 365.9 L 305.8 365.9 L 309.1 365.9 L 312.3 365.9 L 315.5 365.9 L 318.8 365.9 L 322.2 365.9 L 325.4 365.9 L 328.6 365.9 L 331.9 366.0 L 335.1 365.9 L 338.4 365.9 L 341.6 365.9 L 345.1 365.9 L 348.3 365.9 L 351.5 365.9 L 354.8 365.9 L 358.0 365.9 L 361.2 365.9 L 364.4 365.9 L 368.0 365.9 L 371.2 365.9 L 374.4 365.9 L 377.6 365.9 L 380.8 365.9 L 384.1 365.9 L 387.3 365.9 L 390.9 365.9 L 394.1 365.9 L 397.4 365.9 L 400.6 365.9 L 403.8 365.9 L 407.1 365.9 L 410.3 365.9 L 413.7 365.9 L 417.0 365.9 L 420.2 365.9 L 423.4 365.9 L 426.6 365.9 L 429.9 365.9 L 433.1 365.9 L 436.6 365.9 L 439.9 365.9 L 443.1 365.9 L 446.3 365.9 L 449.6 365.9 L 452.8 365.9 L 456.0 365.9 L 459.5 365.9 L 462.7 365.9 L 466.0 365.9 L 469.2 365.9 L 472.4 365.9 L 475.7 365.9 L 478.9 365.9 L 485.1 365.9 L 488.3 365.9 L 491.7 365.9 L 494.9 365.9 L 498.1 365.9 L 501.3 365.9 L 504.5 365.9 L 507.8 365.9 L 511.0 365.9 L 514.4 365.9 L 517.6 365.9 L 520.8 365.9 L 524.1 365.9 L 527.3 365.9 L 530.5 365.9 L 533.7 365.9 L 537.0 365.9 L 540.2 365.9 L 543.5 365.9 L 546.8 365.9 L 550.0 365.9 L 553.2 365.9 L 556.5 365.9 L 559.7 365.9 L 562.9 365.9 L 566.3 365.9 L 569.5 365.9 L 572.8 365.9 L 576.0 365.9 L 579.2 365.9 L 582.5 365.9 L 585.7 365.9 L 589.2 365.9 L 592.5 365.9 L 595.8 365.9 L 599.0 366.0 L 602.3 365.9 L 609.3 365.9 L 612.5 366.0 L 615.8 365.9 L 619.0 365.9 L 622.2 365.8 L 625.5 365.9 L 628.9 365.9 L 632.1 365.9 L 635.3 365.9 L 638.5 365.9 L 641.8 365.9 L 645.0 365.9 L 648.3 365.9 L 651.6 365.9 L 654.9 365.9 L 658.1 365.9 L 661.3 365.9 L 664.5 365.9 L 667.7 365.9 L 671.0 365.9 L 674.3 365.9 L 677.5 365.9 L 680.9 365.9 L 684.1 365.9 L 687.4 365.9 L 690.6 365.9 L 693.8 365.9 L 697.2 365.9 L 700.4 365.9 L 703.6 365.9 L 706.8 365.9 L 710.1 365.9 L 713.3 365.9 L 716.6 365.9 L 719.8 365.9 L 723.0 365.9 L 726.7 365.9 L 729.9 365.9 L 733.2 365.9 L 736.4 365.9 L 739.6 365.9 L 743.0 365.9 L 746.3 365.9 L 749.5 365.9 L 752.7 365.9 L 755.9 365.9 L 759.1 365.9 L 762.4 365.9 L 765.6 365.9 L 768.8 365.9 L 772.3 365.9 L 775.5 365.9 L 778.7 365.9 L 782.0 365.9 L 785.2 365.9 L 788.5 365.9 L 791.8 365.9 L 795.1 365.9 L 798.3 365.9 L 801.6 365.9 L 804.8 365.9 L 808.1 365.9 L 811.3 365.9 L 814.5 365.9 L 817.9 365.9 L 821.2 365.9 L 824.4 365.9 L 827.6 365.9 L 830.9 365.9 L 834.1 365.9 L 837.3 365.9 L 840.7 365.9 L 844.0 365.9 L 847.2 365.9 L 850.4 366.0 L 853.7 365.9 L 856.9 365.9 L 860.1 365.9 L 863.6 365.5 L 866.9 365.8 L 870.1 365.8 L 873.4 365.8 L 876.6 365.8 L 879.9 365.9 L 883.1 366.0 L 886.4 366.0 L 889.6 366.0 L 892.9 366.0 L 896.1 366.0 L 899.3 366.0 L 902.5 366.0 L 905.7 366.0 L 908.9 366.0 L 912.1 366.0 L 915.5 366.0 L 918.7 366.0 L 921.9 366.0 L 925.1 366.0 L 928.3 366.0 L 931.5 366.0 L 934.7 366.0 L 938.0 366.0 L 941.2 366.0 L 944.4 366.0 L 947.6 366.0 L 950.8 366.0 L 954.0 366.0 L 957.2 366.0 L 960.4 366.0 L 963.6 366.0 L 966.8 366.0 L 970.2 366.0 L 973.4 366.0 L 976.6 366.0 L 979.8 366.0 L 983.0 366.0 L 986.2 366.0 L 989.5 366.0 L 992.7 365.9 L 995.9 366.0 L 999.2 366.0 L 1002.4 123.7 L 1005.6 124.6 L 1009.6 124.9 L 1013.0 365.9 L 1016.3 366.0 L 1019.5 366.0 L 1022.8 365.9 L 1026.0 366.0 L 1029.2 366.0 L 1032.4 366.0 L 1035.6 366.0 L 1038.9 366.0 L 1042.1 365.9 L 1045.3 366.0 L 1048.5 366.0 L 1051.7 125.9 L 1055.1 126.0 L 1058.5 121.4 L 1062.5 366.0 L 1065.7 366.0 L 1068.9 125.2 L 1072.3 73.3 L 1076.0 125.0" fill="none" stroke="#F58518" stroke-width="2.8" stroke-linejoin="round" stroke-linecap="round"/>
<line x1="95.6" y1="44.0" x2="95.6" y2="366.0" stroke="#666" stroke-dasharray="4 4" stroke-width="1.2"/>
<text x="95.6" y="402.0" text-anchor="middle" font-size="12" fill="#444" font-family="Helvetica, Arial, sans-serif">submit</text>
<line x1="975.8" y1="44.0" x2="975.8" y2="366.0" stroke="#888" stroke-dasharray="4 4" stroke-width="1.2"/>
<text x="975.8" y="402.0" text-anchor="middle" font-size="12" fill="#444" font-family="Helvetica, Arial, sans-serif">metrics</text>
<line x1="86.0" y1="44.0" x2="86.0" y2="366.0" stroke="#f5f5f5" stroke-width="1"/>
<text x="86.0" y="418.0" text-anchor="middle" font-size="11" fill="#444" font-family="Helvetica, Arial, sans-serif">-0.13</text>
<line x1="209.8" y1="44.0" x2="209.8" y2="366.0" stroke="#f5f5f5" stroke-width="1"/>
<text x="209.8" y="418.0" text-anchor="middle" font-size="11" fill="#444" font-family="Helvetica, Arial, sans-serif">1.50</text>
<line x1="333.5" y1="44.0" x2="333.5" y2="366.0" stroke="#f5f5f5" stroke-width="1"/>
<text x="333.5" y="418.0" text-anchor="middle" font-size="11" fill="#444" font-family="Helvetica, Arial, sans-serif">3.12</text>
<line x1="457.2" y1="44.0" x2="457.2" y2="366.0" stroke="#f5f5f5" stroke-width="1"/>
<text x="457.2" y="418.0" text-anchor="middle" font-size="11" fill="#444" font-family="Helvetica, Arial, sans-serif">4.74</text>
<line x1="581.0" y1="44.0" x2="581.0" y2="366.0" stroke="#f5f5f5" stroke-width="1"/>
<text x="581.0" y="418.0" text-anchor="middle" font-size="11" fill="#444" font-family="Helvetica, Arial, sans-serif">6.37</text>
<line x1="704.8" y1="44.0" x2="704.8" y2="366.0" stroke="#f5f5f5" stroke-width="1"/>
<text x="704.8" y="418.0" text-anchor="middle" font-size="11" fill="#444" font-family="Helvetica, Arial, sans-serif">7.99</text>
<line x1="828.5" y1="44.0" x2="828.5" y2="366.0" stroke="#f5f5f5" stroke-width="1"/>
<text x="828.5" y="418.0" text-anchor="middle" font-size="11" fill="#444" font-family="Helvetica, Arial, sans-serif">9.62</text>
<line x1="952.2" y1="44.0" x2="952.2" y2="366.0" stroke="#f5f5f5" stroke-width="1"/>
<text x="952.2" y="418.0" text-anchor="middle" font-size="11" fill="#444" font-family="Helvetica, Arial, sans-serif">11.24</text>
<line x1="1076.0" y1="44.0" x2="1076.0" y2="366.0" stroke="#f5f5f5" stroke-width="1"/>
<text x="1076.0" y="418.0" text-anchor="middle" font-size="11" fill="#444" font-family="Helvetica, Arial, sans-serif">12.86</text>
<text x="581.0" y="386.0" text-anchor="middle" font-size="15" fill="#222" font-family="Helvetica, Arial, sans-serif">time since request submit (s)</text>
</svg>