<svg xmlns="http://www.w3.org/2000/svg" width="1100" height="420" viewBox="0 0 1100 420">
<rect width="1100" height="420" fill="white"/>
<text x="86" y="26" font-size="22" font-weight="700" font-family="Helvetica, Arial, sans-serif">tb_session_02_turn_000_seed  phase=seed  turn=0  prompt=24576  peak_tx=3.24 GiB/s  peak_rx=28.32 GiB/s</text>
<line x1="86" y1="366.0" x2="1076" y2="366.0" stroke="#ececec" stroke-width="1"/>
<text x="76" y="370.0" text-anchor="end" font-size="12" fill="#444" font-family="Helvetica, Arial, sans-serif">0.0</text>
<line x1="86" y1="301.6" x2="1076" y2="301.6" stroke="#ececec" stroke-width="1"/>
<text x="76" y="305.6" text-anchor="end" font-size="12" fill="#444" font-family="Helvetica, Arial, sans-serif">6.2</text>
<line x1="86" y1="237.2" x2="1076" y2="237.2" stroke="#ececec" stroke-width="1"/>
<text x="76" y="241.2" text-anchor="end" font-size="12" fill="#444" font-family="Helvetica, Arial, sans-serif">12.5</text>
<line x1="86" y1="172.8" x2="1076" y2="172.8" stroke="#ececec" stroke-width="1"/>
<text x="76" y="176.8" text-anchor="end" font-size="12" fill="#444" font-family="Helvetica, Arial, sans-serif">18.7</text>
<line x1="86" y1="108.4" x2="1076" y2="108.4" stroke="#ececec" stroke-width="1"/>
<text x="76" y="112.4" text-anchor="end" font-size="12" fill="#444" font-family="Helvetica, Arial, sans-serif">24.9</text>
<line x1="86" y1="44.0" x2="1076" y2="44.0" stroke="#ececec" stroke-width="1"/>
<text x="76" y="48.0" text-anchor="end" font-size="12" fill="#444" font-family="Helvetica, Arial, sans-serif">31.2</text>
<line x1="86" y1="366.0" x2="1076" y2="366.0" stroke="#222" stroke-width="1.4"/>
<line x1="86" y1="44.0" x2="86" y2="366.0" stroke="#222" stroke-width="1.4"/>
<rect x="119.9" y="44.0" width="555.7" height="322.0" fill="#4C78A8" opacity="0.08"/>
<path d="M 86.0 366.0 L 98.6 366.0 L 111.2 366.0 L 124.1 366.0 L 136.7 366.0 L 149.3 366.0 L 162.2 366.0 L 174.8 366.0 L 187.4 366.0 L 200.0 333.1 L 213.5 332.9 L 227.0 333.3 L 240.2 365.9 L 253.3 365.9 L 265.9 365.9 L 278.8 365.9 L 291.4 365.9 L 304.3 366.0 L 318.1 366.0 L 330.7 366.0 L 343.3 366.0 L 355.9 366.0 L 368.5 366.0 L 381.1 366.0 L 393.7 366.0 L 406.3 366.0 L 419.2 366.0 L 431.8 365.9 L 444.7 365.9 L 457.3 365.9 L 469.9 366.0 L 482.5 366.0 L 495.1 366.0 L 508.0 366.0 L 520.6 366.0 L 533.2 366.0 L 546.1 366.0 L 559.0 366.0 L 571.6 366.0 L 584.1 366.0 L 596.7 366.0 L 609.6 366.0 L 622.5 366.0 L 635.4 366.0 L 648.3 366.0 L 661.2 366.0 L 674.1 366.0 L 686.7 366.0 L 699.3 366.0 L 712.2 366.0 L 724.8 366.0 L 738.0 366.0 L 750.9 366.0 L 764.1 366.0 L 777.0 333.6 L 791.1 332.5 L 805.8 336.4 L 819.0 365.9 L 831.9 365.9 L 844.8 365.9 L 858.6 365.9 L 871.5 365.9 L 884.4 366.0 L 897.3 366.0 L 909.9 366.0 L 922.7 366.0 L 935.3 366.0 L 947.9 366.0 L 960.8 366.0 L 973.4 366.0 L 986.3 366.0 L 998.9 366.0 L 1011.5 366.0 L 1024.4 366.0 L 1037.6 366.0 L 1050.2 366.0 L 1063.1 365.9 L 1076.0 365.9" fill="none" stroke="#4C78A8" stroke-width="2.8" stroke-linejoin="round" stroke-linecap="round"/>
<path d="M 86.0 366.0 L 98.6 366.0 L 111.2 366.0 L 124.1 365.9 L 136.7 366.0 L 149.3 366.0 L 162.2 365.9 L 174.8 366.0 L 187.4 366.0 L 200.0 80.0 L 213.5 73.3 L 227.0 77.1 L 240.2 365.7 L 253.3 365.7 L 265.9 365.7 L 278.8 365.7 L 291.4 365.7 L 304.3 366.0 L 318.1 366.0 L 330.7 366.0 L 343.3 366.0 L 355.9 366.0 L 368.5 366.0 L 381.1 366.0 L 393.7 366.0 L 406.3 366.0 L 419.2 366.0 L 431.8 366.0 L 444.7 366.0 L 457.3 366.0 L 469.9 366.0 L 482.5 366.0 L 495.1 366.0 L 508.0 366.0 L 520.6 366.0 L 533.2 366.0 L 546.1 366.0 L 559.0 366.0 L 571.6 366.0 L 584.1 366.0 L 596.7 366.0 L 609.6 366.0 L 622.5 366.0 L 635.4 366.0 L 648.3 366.0 L 661.2 366.0 L 674.1 366.0 L 686.7 366.0 L 699.3 366.0 L 712.2 366.0 L 724.8 366.0 L 738.0 366.0 L 750.9 365.9 L 764.1 115.3 L 777.0 77.3 L 791.1 76.8 L 805.8 365.7 L 819.0 365.7 L 831.9 365.7 L 844.8 365.7 L 858.6 365.7 L 871.5 366.0 L 884.4 366.0 L 897.3 366.0 L 909.9 366.0 L 922.7 366.0 L 935.3 366.0 L 947.9 366.0 L 960.8 366.0 L 973.4 366.0 L 986.3 366.0 L 998.9 366.0 L 1011.5 366.0 L 1024.4 366.0 L 1037.6 366.0 L 1050.2 366.0 L 1063.1 366.0 L 1076.0 366.0" fill="none" stroke="#F58518" stroke-width="2.8" stroke-linejoin="round" stroke-linecap="round"/>
<line x1="119.9" y1="44.0" x2="119.9" y2="366.0" stroke="#666" stroke-dasharray="4 4" stroke-width="1.2"/>
<text x="119.9" y="402.0" text-anchor="middle" font-size="12" fill="#444" font-family="Helvetica, Arial, sans-serif">submit</text>
<line x1="675.6" y1="44.0" x2="675.6" y2="366.0" stroke="#888" stroke-dasharray="4 4" stroke-width="1.2"/>
<text x="675.6" y="402.0" text-anchor="middle" font-size="12" fill="#444" font-family="Helvetica, Arial, sans-serif">metrics</text>
<line x1="86.0" y1="44.0" x2="86.0" y2="366.0" stroke="#f5f5f5" stroke-width="1"/>
<text x="86.0" y="418.0" text-anchor="middle" font-size="11" fill="#444" font-family="Helvetica, Arial, sans-serif">-0.11</text>
<line x1="209.8" y1="44.0" x2="209.8" y2="366.0" stroke="#f5f5f5" stroke-width="1"/>
<text x="209.8" y="418.0" text-anchor="middle" font-size="11" fill="#444" font-family="Helvetica, Arial, sans-serif">0.30</text>
<line x1="333.5" y1="44.0" x2="333.5" y2="366.0" stroke="#f5f5f5" stroke-width="1"/>
<text x="333.5" y="418.0" text-anchor="middle" font-size="11" fill="#444" font-family="Helvetica, Arial, sans-serif">0.71</text>
<line x1="457.2" y1="44.0" x2="457.2" y2="366.0" stroke="#f5f5f5" stroke-width="1"/>
<text x="457.2" y="418.0" text-anchor="middle" font-size="11" fill="#444" font-family="Helvetica, Arial, sans-serif">1.12</text>
<line x1="581.0" y1="44.0" x2="581.0" y2="366.0" stroke="#f5f5f5" stroke-width="1"/>
<text x="581.0" y="418.0" text-anchor="middle" font-size="11" fill="#444" font-family="Helvetica, Arial, sans-serif">1.54</text>
<line x1="704.8" y1="44.0" x2="704.8" y2="366.0" stroke="#f5f5f5" stroke-width="1"/>
<text x="704.8" y="418.0" text-anchor="middle" font-size="11" fill="#444" font-family="Helvetica, Arial, sans-serif">1.95</text>
<line x1="828.5" y1="44.0" x2="828.5" y2="366.0" stroke="#f5f5f5" stroke-width="1"/>
<text x="828.5" y="418.0" text-anchor="middle" font-size="11" fill="#444" font-family="Helvetica, Arial, sans-serif">2.36</text>
<line x1="952.2" y1="44.0" x2="952.2" y2="366.0" stroke="#f5f5f5" stroke-width="1"/>
<text x="952.2" y="418.0" text-anchor="middle" font-size="11" fill="#444" font-family="Helvetica, Arial, sans-serif">2.78</text>
<line x1="1076.0" y1="44.0" x2="1076.0" y2="366.0" stroke="#f5f5f5" stroke-width="1"/>
<text x="1076.0" y="418.0" text-anchor="middle" font-size="11" fill="#444" font-family="Helvetica, Arial, sans-serif">3.19</text>
<text x="581.0" y="386.0" text-anchor="middle" font-size="15" fill="#222" font-family="Helvetica, Arial, sans-serif">time since request submit (s)</text>
</svg>