<svg xmlns="http://www.w3.org/2000/svg" width="1100" height="420" viewBox="0 0 1100 420">
<rect width="1100" height="420" fill="white"/>
<text x="86" y="26" font-size="22" font-weight="700" font-family="Helvetica, Arial, sans-serif">tb_session_01_turn_000_seed  phase=seed  turn=0  prompt=24576  peak_tx=3.65 GiB/s  peak_rx=28.32 GiB/s</text>
<line x1="86" y1="366.0" x2="1076" y2="366.0" stroke="#ececec" stroke-width="1"/>
<text x="76" y="370.0" text-anchor="end" font-size="12" fill="#444" font-family="Helvetica, Arial, sans-serif">0.0</text>
<line x1="86" y1="301.6" x2="1076" y2="301.6" stroke="#ececec" stroke-width="1"/>
<text x="76" y="305.6" text-anchor="end" font-size="12" fill="#444" font-family="Helvetica, Arial, sans-serif">6.2</text>
<line x1="86" y1="237.2" x2="1076" y2="237.2" stroke="#ececec" stroke-width="1"/>
<text x="76" y="241.2" text-anchor="end" font-size="12" fill="#444" font-family="Helvetica, Arial, sans-serif">12.5</text>
<line x1="86" y1="172.8" x2="1076" y2="172.8" stroke="#ececec" stroke-width="1"/>
<text x="76" y="176.8" text-anchor="end" font-size="12" fill="#444" font-family="Helvetica, Arial, sans-serif">18.7</text>
<line x1="86" y1="108.4" x2="1076" y2="108.4" stroke="#ececec" stroke-width="1"/>
<text x="76" y="112.4" text-anchor="end" font-size="12" fill="#444" font-family="Helvetica, Arial, sans-serif">24.9</text>
<line x1="86" y1="44.0" x2="1076" y2="44.0" stroke="#ececec" stroke-width="1"/>
<text x="76" y="48.0" text-anchor="end" font-size="12" fill="#444" font-family="Helvetica, Arial, sans-serif">31.2</text>
<line x1="86" y1="366.0" x2="1076" y2="366.0" stroke="#222" stroke-width="1.4"/>
<line x1="86" y1="44.0" x2="86" y2="366.0" stroke="#222" stroke-width="1.4"/>
<rect x="118.9" y="44.0" width="559.4" height="322.0" fill="#4C78A8" opacity="0.08"/>
<path d="M 86.0 366.0 L 98.7 366.0 L 111.3 366.0 L 124.3 366.0 L 137.0 366.0 L 149.7 366.0 L 162.3 366.0 L 175.0 366.0 L 187.7 366.0 L 200.4 345.0 L 213.6 328.3 L 229.3 333.0 L 242.6 363.0 L 255.6 365.9 L 268.6 365.9 L 282.1 365.9 L 294.8 365.9 L 307.8 366.0 L 320.4 366.0 L 333.1 366.0 L 345.8 366.0 L 358.5 366.0 L 371.7 365.9 L 384.4 365.9 L 397.1 366.0 L 410.1 366.0 L 422.7 366.0 L 435.4 366.0 L 448.1 366.0 L 460.8 366.0 L 473.4 366.0 L 486.4 366.0 L 499.1 366.0 L 511.8 366.0 L 524.4 366.0 L 537.1 366.0 L 549.8 366.0 L 562.7 366.0 L 575.4 366.0 L 588.1 366.0 L 600.8 366.0 L 613.4 366.0 L 626.1 366.0 L 638.8 366.0 L 651.5 366.0 L 664.1 366.0 L 676.8 366.0 L 689.8 366.0 L 702.4 366.0 L 715.1 366.0 L 728.1 366.0 L 740.8 366.0 L 753.4 366.0 L 766.1 333.1 L 779.7 332.9 L 793.3 333.3 L 806.5 365.9 L 819.8 365.9 L 832.5 365.9 L 845.5 365.9 L 858.1 365.9 L 871.1 366.0 L 885.0 366.0 L 897.7 366.0 L 910.3 366.0 L 923.0 366.0 L 935.7 366.0 L 948.4 366.0 L 961.0 366.0 L 973.7 366.0 L 986.7 366.0 L 999.4 365.9 L 1012.3 365.9 L 1025.0 365.9 L 1037.7 366.0 L 1050.4 366.0 L 1063.0 366.0 L 1076.0 366.0" fill="none" stroke="#4C78A8" stroke-width="2.8" stroke-linejoin="round" stroke-linecap="round"/>
<path d="M 86.0 366.0 L 98.7 366.0 L 111.3 366.0 L 124.3 366.0 L 137.0 366.0 L 149.7 366.0 L 162.3 366.0 L 175.0 366.0 L 187.7 366.0 L 200.4 77.9 L 213.6 76.7 L 229.3 80.1 L 242.6 365.7 L 255.6 365.7 L 268.6 365.7 L 282.1 365.7 L 294.8 365.7 L 307.8 366.0 L 320.4 366.0 L 333.1 366.0 L 345.8 366.0 L 358.5 366.0 L 371.7 366.0 L 384.4 366.0 L 397.1 366.0 L 410.1 366.0 L 422.7 366.0 L 435.4 366.0 L 448.1 366.0 L 460.8 366.0 L 473.4 366.0 L 486.4 366.0 L 499.1 366.0 L 511.8 366.0 L 524.4 366.0 L 537.1 366.0 L 549.8 366.0 L 562.7 366.0 L 575.4 366.0 L 588.1 366.0 L 600.8 366.0 L 613.4 366.0 L 626.1 366.0 L 638.8 366.0 L 651.5 366.0 L 664.1 366.0 L 676.8 366.0 L 689.8 365.9 L 702.4 366.0 L 715.1 366.0 L 728.1 365.9 L 740.8 366.0 L 753.4 366.0 L 766.1 80.0 L 779.7 73.3 L 793.3 77.1 L 806.5 365.7 L 819.8 365.7 L 832.5 365.7 L 845.5 365.7 L 858.1 365.7 L 871.1 366.0 L 885.0 366.0 L 897.7 366.0 L 910.3 366.0 L 923.0 366.0 L 935.7 366.0 L 948.4 366.0 L 961.0 366.0 L 973.7 366.0 L 986.7 366.0 L 999.4 366.0 L 1012.3 366.0 L 1025.0 366.0 L 1037.7 366.0 L 1050.4 366.0 L 1063.0 366.0 L 1076.0 366.0" fill="none" stroke="#F58518" stroke-width="2.8" stroke-linejoin="round" stroke-linecap="round"/>
<line x1="118.9" y1="44.0" x2="118.9" y2="366.0" stroke="#666" stroke-dasharray="4 4" stroke-width="1.2"/>
<text x="118.9" y="402.0" text-anchor="middle" font-size="12" fill="#444" font-family="Helvetica, Arial, sans-serif">submit</text>
<line x1="678.3" y1="44.0" x2="678.3" y2="366.0" stroke="#888" stroke-dasharray="4 4" stroke-width="1.2"/>
<text x="678.3" y="402.0" text-anchor="middle" font-size="12" fill="#444" font-family="Helvetica, Arial, sans-serif">metrics</text>
<line x1="86.0" y1="44.0" x2="86.0" y2="366.0" stroke="#f5f5f5" stroke-width="1"/>
<text x="86.0" y="418.0" text-anchor="middle" font-size="11" fill="#444" font-family="Helvetica, Arial, sans-serif">-0.11</text>
<line x1="209.8" y1="44.0" x2="209.8" y2="366.0" stroke="#f5f5f5" stroke-width="1"/>
<text x="209.8" y="418.0" text-anchor="middle" font-size="11" fill="#444" font-family="Helvetica, Arial, sans-serif">0.30</text>
<line x1="333.5" y1="44.0" x2="333.5" y2="366.0" stroke="#f5f5f5" stroke-width="1"/>
<text x="333.5" y="418.0" text-anchor="middle" font-size="11" fill="#444" font-family="Helvetica, Arial, sans-serif">0.71</text>
<line x1="457.2" y1="44.0" x2="457.2" y2="366.0" stroke="#f5f5f5" stroke-width="1"/>
<text x="457.2" y="418.0" text-anchor="middle" font-size="11" fill="#444" font-family="Helvetica, Arial, sans-serif">1.12</text>
<line x1="581.0" y1="44.0" x2="581.0" y2="366.0" stroke="#f5f5f5" stroke-width="1"/>
<text x="581.0" y="418.0" text-anchor="middle" font-size="11" fill="#444" font-family="Helvetica, Arial, sans-serif">1.53</text>
<line x1="704.8" y1="44.0" x2="704.8" y2="366.0" stroke="#f5f5f5" stroke-width="1"/>
<text x="704.8" y="418.0" text-anchor="middle" font-size="11" fill="#444" font-family="Helvetica, Arial, sans-serif">1.94</text>
<line x1="828.5" y1="44.0" x2="828.5" y2="366.0" stroke="#f5f5f5" stroke-width="1"/>
<text x="828.5" y="418.0" text-anchor="middle" font-size="11" fill="#444" font-family="Helvetica, Arial, sans-serif">2.35</text>
<line x1="952.2" y1="44.0" x2="952.2" y2="366.0" stroke="#f5f5f5" stroke-width="1"/>
<text x="952.2" y="418.0" text-anchor="middle" font-size="11" fill="#444" font-family="Helvetica, Arial, sans-serif">2.76</text>
<line x1="1076.0" y1="44.0" x2="1076.0" y2="366.0" stroke="#f5f5f5" stroke-width="1"/>
<text x="1076.0" y="418.0" text-anchor="middle" font-size="11" fill="#444" font-family="Helvetica, Arial, sans-serif">3.17</text>
<text x="581.0" y="386.0" text-anchor="middle" font-size="15" fill="#222" font-family="Helvetica, Arial, sans-serif">time since request submit (s)</text>
</svg>