<svg xmlns="http://www.w3.org/2000/svg" width="1100" height="420" viewBox="0 0 1100 420">
<rect width="1100" height="420" fill="white"/>
<text x="86" y="26" font-size="22" font-weight="700" font-family="Helvetica, Arial, sans-serif">tb_session_00_turn_000_seed  phase=seed  turn=0  prompt=24576  peak_tx=15.46 GiB/s  peak_rx=28.30 GiB/s</text>
<line x1="86" y1="366.0" x2="1076" y2="366.0" stroke="#ececec" stroke-width="1"/>
<text x="76" y="370.0" text-anchor="end" font-size="12" fill="#444" font-family="Helvetica, Arial, sans-serif">0.0</text>
<line x1="86" y1="301.6" x2="1076" y2="301.6" stroke="#ececec" stroke-width="1"/>
<text x="76" y="305.6" text-anchor="end" font-size="12" fill="#444" font-family="Helvetica, Arial, sans-serif">6.2</text>
<line x1="86" y1="237.2" x2="1076" y2="237.2" stroke="#ececec" stroke-width="1"/>
<text x="76" y="241.2" text-anchor="end" font-size="12" fill="#444" font-family="Helvetica, Arial, sans-serif">12.4</text>
<line x1="86" y1="172.8" x2="1076" y2="172.8" stroke="#ececec" stroke-width="1"/>
<text x="76" y="176.8" text-anchor="end" font-size="12" fill="#444" font-family="Helvetica, Arial, sans-serif">18.7</text>
<line x1="86" y1="108.4" x2="1076" y2="108.4" stroke="#ececec" stroke-width="1"/>
<text x="76" y="112.4" text-anchor="end" font-size="12" fill="#444" font-family="Helvetica, Arial, sans-serif">24.9</text>
<line x1="86" y1="44.0" x2="1076" y2="44.0" stroke="#ececec" stroke-width="1"/>
<text x="76" y="48.0" text-anchor="end" font-size="12" fill="#444" font-family="Helvetica, Arial, sans-serif">31.1</text>
<line x1="86" y1="366.0" x2="1076" y2="366.0" stroke="#222" stroke-width="1.4"/>
<line x1="86" y1="44.0" x2="86" y2="366.0" stroke="#222" stroke-width="1.4"/>
<rect x="107.2" y="44.0" width="752.3" height="322.0" fill="#4C78A8" opacity="0.08"/>
<path d="M 86.0 366.0 L 92.9 366.0 L 100.1 366.0 L 107.1 365.9 L 114.0 365.9 L 120.9 366.0 L 127.9 366.0 L 135.0 366.0 L 142.1 366.0 L 149.8 351.2 L 156.9 366.0 L 164.0 366.0 L 171.0 366.0 L 178.1 206.2 L 185.3 366.0 L 192.3 365.7 L 208.4 366.0 L 215.8 366.0 L 222.8 366.0 L 229.9 366.0 L 237.0 366.0 L 244.2 362.6 L 251.5 366.0 L 258.5 366.0 L 265.4 366.0 L 272.4 366.0 L 279.4 365.9 L 286.3 254.6 L 293.4 366.0 L 300.6 366.0 L 307.6 366.0 L 314.6 366.0 L 321.5 366.0 L 328.6 366.0 L 335.5 366.0 L 342.4 366.0 L 349.5 366.0 L 356.4 366.0 L 363.5 366.0 L 370.5 293.2 L 377.5 366.0 L 384.5 366.0 L 391.4 366.0 L 398.3 366.0 L 405.4 366.0 L 413.1 249.1 L 420.1 366.0 L 427.1 366.0 L 434.0 366.0 L 441.1 366.0 L 448.0 366.0 L 454.9 365.9 L 463.0 206.1 L 470.1 366.0 L 477.0 366.0 L 484.0 366.0 L 491.1 366.0 L 498.3 366.0 L 505.3 366.0 L 512.3 266.1 L 519.2 366.0 L 526.1 366.0 L 533.2 366.0 L 540.1 366.0 L 547.5 366.0 L 554.4 366.0 L 561.3 366.0 L 568.4 301.2 L 576.0 366.0 L 582.9 366.0 L 590.1 366.0 L 597.2 366.0 L 604.1 366.0 L 611.2 366.0 L 618.1 366.0 L 625.0 305.2 L 632.2 365.8 L 639.5 365.9 L 646.7 365.9 L 653.8 365.9 L 660.7 366.0 L 667.8 366.0 L 674.7 366.0 L 681.6 366.0 L 688.7 366.0 L 695.6 366.0 L 702.5 366.0 L 709.4 366.0 L 716.4 366.0 L 723.4 366.0 L 730.3 366.0 L 737.2 366.0 L 744.1 366.0 L 751.0 366.0 L 758.1 366.0 L 765.0 366.0 L 771.9 366.0 L 778.8 366.0 L 785.7 366.0 L 792.8 366.0 L 799.7 366.0 L 806.6 366.0 L 813.5 366.0 L 820.4 366.0 L 827.3 366.0 L 834.4 366.0 L 841.3 366.0 L 848.2 366.0 L 855.1 366.0 L 862.0 366.0 L 868.9 366.0 L 876.0 366.0 L 882.9 366.0 L 889.8 366.0 L 896.7 366.0 L 903.6 366.0 L 910.5 366.0 L 917.6 366.0 L 924.5 333.0 L 931.9 331.7 L 940.8 335.9 L 947.9 365.9 L 955.3 366.0 L 962.2 366.0 L 969.3 365.9 L 976.3 365.9 L 983.4 366.0 L 990.3 336.1 L 997.4 366.0 L 1004.9 366.0 L 1011.9 366.0 L 1018.8 366.0 L 1025.8 366.0 L 1032.7 366.0 L 1041.0 366.0 L 1047.9 366.0 L 1054.9 366.0 L 1062.0 366.0 L 1068.9 206.2 L 1076.0 366.0" fill="none" stroke="#4C78A8" stroke-width="2.8" stroke-linejoin="round" stroke-linecap="round"/>
<path d="M 86.0 366.0 L 92.9 366.0 L 100.1 366.0 L 107.1 366.0 L 114.0 366.0 L 120.9 365.9 L 127.9 365.9 L 135.0 365.9 L 142.1 366.0 L 149.8 365.9 L 156.9 365.9 L 164.0 365.9 L 171.0 365.9 L 178.1 365.9 L 185.3 365.9 L 192.3 365.9 L 208.4 365.9 L 215.8 365.9 L 222.8 365.9 L 229.9 365.9 L 237.0 365.9 L 244.2 365.9 L 251.5 365.9 L 258.5 365.9 L 265.4 365.9 L 272.4 365.9 L 279.4 365.9 L 286.3 365.9 L 293.4 365.9 L 300.6 365.9 L 307.6 365.9 L 314.6 365.9 L 321.5 365.9 L 328.6 365.9 L 335.5 365.9 L 342.4 365.9 L 349.5 365.9 L 356.4 365.9 L 363.5 365.9 L 370.5 365.9 L 377.5 365.9 L 384.5 365.9 L 391.4 365.9 L 398.3 365.9 L 405.4 365.9 L 413.1 365.9 L 420.1 365.9 L 427.1 365.9 L 434.0 365.9 L 441.1 365.9 L 448.0 365.9 L 454.9 365.8 L 463.0 365.9 L 470.1 365.9 L 477.0 365.9 L 484.0 365.9 L 491.1 365.9 L 498.3 365.9 L 505.3 365.9 L 512.3 365.9 L 519.2 365.9 L 526.1 365.9 L 533.2 365.9 L 540.1 365.9 L 547.5 365.9 L 554.4 365.9 L 561.3 365.9 L 568.4 365.9 L 576.0 365.9 L 582.9 365.9 L 590.1 365.9 L 597.2 365.9 L 604.1 365.9 L 611.2 365.9 L 618.1 365.9 L 625.0 365.7 L 632.2 365.7 L 639.5 365.7 L 646.7 365.7 L 653.8 365.8 L 660.7 366.0 L 667.8 366.0 L 674.7 366.0 L 681.6 366.0 L 688.7 366.0 L 695.6 366.0 L 702.5 366.0 L 709.4 366.0 L 716.4 366.0 L 723.4 366.0 L 730.3 366.0 L 737.2 366.0 L 744.1 366.0 L 751.0 366.0 L 758.1 366.0 L 765.0 366.0 L 771.9 366.0 L 778.8 366.0 L 785.7 366.0 L 792.8 365.9 L 799.7 365.9 L 806.6 366.0 L 813.5 366.0 L 820.4 366.0 L 827.3 366.0 L 834.4 366.0 L 841.3 366.0 L 848.2 366.0 L 855.1 366.0 L 862.0 366.0 L 868.9 366.0 L 876.0 366.0 L 882.9 366.0 L 889.8 366.0 L 896.7 366.0 L 903.6 366.0 L 910.5 366.0 L 917.6 160.3 L 924.5 76.3 L 931.9 73.3 L 940.8 365.8 L 947.9 365.8 L 955.3 113.5 L 962.2 365.9 L 969.3 365.9 L 976.3 365.9 L 983.4 365.9 L 990.3 365.9 L 997.4 365.9 L 1004.9 365.9 L 1011.9 365.9 L 1018.8 365.9 L 1025.8 365.9 L 1032.7 365.9 L 1041.0 365.9 L 1047.9 365.9 L 1054.9 365.9 L 1062.0 365.9 L 1068.9 365.9 L 1076.0 365.9" fill="none" stroke="#F58518" stroke-width="2.8" stroke-linejoin="round" stroke-linecap="round"/>
<line x1="107.2" y1="44.0" x2="107.2" y2="366.0" stroke="#666" stroke-dasharray="4 4" stroke-width="1.2"/>
<text x="107.2" y="402.0" text-anchor="middle" font-size="12" fill="#444" font-family="Helvetica, Arial, sans-serif">submit</text>
<line x1="859.5" y1="44.0" x2="859.5" y2="366.0" stroke="#888" stroke-dasharray="4 4" stroke-width="1.2"/>
<text x="859.5" y="402.0" text-anchor="middle" font-size="12" fill="#444" font-family="Helvetica, Arial, sans-serif">metrics</text>
<line x1="86.0" y1="44.0" x2="86.0" y2="366.0" stroke="#f5f5f5" stroke-width="1"/>
<text x="86.0" y="418.0" text-anchor="middle" font-size="11" fill="#444" font-family="Helvetica, Arial, sans-serif">-0.13</text>
<line x1="209.8" y1="44.0" x2="209.8" y2="366.0" stroke="#f5f5f5" stroke-width="1"/>
<text x="209.8" y="418.0" text-anchor="middle" font-size="11" fill="#444" font-family="Helvetica, Arial, sans-serif">0.62</text>
<line x1="333.5" y1="44.0" x2="333.5" y2="366.0" stroke="#f5f5f5" stroke-width="1"/>
<text x="333.5" y="418.0" text-anchor="middle" font-size="11" fill="#444" font-family="Helvetica, Arial, sans-serif">1.38</text>
<line x1="457.3" y1="44.0" x2="457.3" y2="366.0" stroke="#f5f5f5" stroke-width="1"/>
<text x="457.3" y="418.0" text-anchor="middle" font-size="11" fill="#444" font-family="Helvetica, Arial, sans-serif">2.13</text>
<line x1="581.0" y1="44.0" x2="581.0" y2="366.0" stroke="#f5f5f5" stroke-width="1"/>
<text x="581.0" y="418.0" text-anchor="middle" font-size="11" fill="#444" font-family="Helvetica, Arial, sans-serif">2.88</text>
<line x1="704.8" y1="44.0" x2="704.8" y2="366.0" stroke="#f5f5f5" stroke-width="1"/>
<text x="704.8" y="418.0" text-anchor="middle" font-size="11" fill="#444" font-family="Helvetica, Arial, sans-serif">3.63</text>
<line x1="828.5" y1="44.0" x2="828.5" y2="366.0" stroke="#f5f5f5" stroke-width="1"/>
<text x="828.5" y="418.0" text-anchor="middle" font-size="11" fill="#444" font-family="Helvetica, Arial, sans-serif">4.39</text>
<line x1="952.2" y1="44.0" x2="952.2" y2="366.0" stroke="#f5f5f5" stroke-width="1"/>
<text x="952.2" y="418.0" text-anchor="middle" font-size="11" fill="#444" font-family="Helvetica, Arial, sans-serif">5.14</text>
<line x1="1076.0" y1="44.0" x2="1076.0" y2="366.0" stroke="#f5f5f5" stroke-width="1"/>
<text x="1076.0" y="418.0" text-anchor="middle" font-size="11" fill="#444" font-family="Helvetica, Arial, sans-serif">5.89</text>
<text x="581.0" y="386.0" text-anchor="middle" font-size="15" fill="#222" font-family="Helvetica, Arial, sans-serif">time since request submit (s)</text>
</svg>