<svg xmlns="http://www.w3.org/2000/svg" width="1100" height="420" viewBox="0 0 1100 420">
<rect width="1100" height="420" fill="white"/>
<text x="86" y="26" font-size="22" font-weight="700" font-family="Helvetica, Arial, sans-serif">tb_session_03_turn_000_seed  phase=seed  turn=0  prompt=24576  peak_tx=3.24 GiB/s  peak_rx=27.98 GiB/s</text>
<line x1="86" y1="366.0" x2="1076" y2="366.0" stroke="#ececec" stroke-width="1"/>
<text x="76" y="370.0" text-anchor="end" font-size="12" fill="#444" font-family="Helvetica, Arial, sans-serif">0.0</text>
<line x1="86" y1="301.6" x2="1076" y2="301.6" stroke="#ececec" stroke-width="1"/>
<text x="76" y="305.6" text-anchor="end" font-size="12" fill="#444" font-family="Helvetica, Arial, sans-serif">6.2</text>
<line x1="86" y1="237.2" x2="1076" y2="237.2" stroke="#ececec" stroke-width="1"/>
<text x="76" y="241.2" text-anchor="end" font-size="12" fill="#444" font-family="Helvetica, Arial, sans-serif">12.3</text>
<line x1="86" y1="172.8" x2="1076" y2="172.8" stroke="#ececec" stroke-width="1"/>
<text x="76" y="176.8" text-anchor="end" font-size="12" fill="#444" font-family="Helvetica, Arial, sans-serif">18.5</text>
<line x1="86" y1="108.4" x2="1076" y2="108.4" stroke="#ececec" stroke-width="1"/>
<text x="76" y="112.4" text-anchor="end" font-size="12" fill="#444" font-family="Helvetica, Arial, sans-serif">24.6</text>
<line x1="86" y1="44.0" x2="1076" y2="44.0" stroke="#ececec" stroke-width="1"/>
<text x="76" y="48.0" text-anchor="end" font-size="12" fill="#444" font-family="Helvetica, Arial, sans-serif">30.8</text>
<line x1="86" y1="366.0" x2="1076" y2="366.0" stroke="#222" stroke-width="1.4"/>
<line x1="86" y1="44.0" x2="86" y2="366.0" stroke="#222" stroke-width="1.4"/>
<rect x="150.0" y="44.0" width="948.0" height="322.0" fill="#4C78A8" opacity="0.08"/>
<path d="M 86.0 366.0 L 108.0 366.0 L 130.0 366.0 L 151.6 366.0 L 173.1 366.0 L 195.1 366.0 L 216.6 366.0 L 239.1 366.0 L 261.2 366.0 L 283.7 366.0 L 305.7 333.2 L 329.8 332.1 L 354.9 336.1 L 377.4 365.9 L 399.4 365.9 L 421.5 365.9 L 445.0 365.9 L 467.0 365.9 L 489.1 366.0 L 511.1 366.0 L 532.6 366.0 L 554.6 366.0 L 576.1 366.0 L 597.6 366.0 L 619.7 366.0 L 641.2 366.0 L 663.2 366.0 L 684.7 366.0 L 706.2 366.0 L 728.2 366.0 L 750.8 366.0 L 772.3 366.0 L 794.3 365.9 L 816.3 365.9 L 838.4 365.9 L 859.9 366.0 L 881.4 366.0 L 903.4 366.0 L 924.9 366.0 L 946.9 366.0 L 968.4 366.0 L 990.0 366.0 L 1011.5 366.0 L 1033.0 366.0 L 1054.5 366.0 L 1076.0 366.0" fill="none" stroke="#4C78A8" stroke-width="2.8" stroke-linejoin="round" stroke-linecap="round"/>
<path d="M 86.0 366.0 L 108.0 366.0 L 130.0 366.0 L 151.6 366.0 L 173.1 366.0 L 195.1 366.0 L 216.6 366.0 L 239.1 366.0 L 261.2 365.9 L 283.7 112.3 L 305.7 73.8 L 329.8 73.3 L 354.9 365.7 L 377.4 365.7 L 399.4 365.7 L 421.5 365.7 L 445.0 365.7 L 467.0 366.0 L 489.1 366.0 L 511.1 366.0 L 532.6 366.0 L 554.6 366.0 L 576.1 366.0 L 597.6 366.0 L 619.7 366.0 L 641.2 366.0 L 663.2 366.0 L 684.7 366.0 L 706.2 366.0 L 728.2 366.0 L 750.8 366.0 L 772.3 366.0 L 794.3 366.0 L 816.3 366.0 L 838.4 366.0 L 859.9 366.0 L 881.4 366.0 L 903.4 366.0 L 924.9 366.0 L 946.9 366.0 L 968.4 366.0 L 990.0 366.0 L 1011.5 366.0 L 1033.0 366.0 L 1054.5 366.0 L 1076.0 366.0" fill="none" stroke="#F58518" stroke-width="2.8" stroke-linejoin="round" stroke-linecap="round"/>
<line x1="150.0" y1="44.0" x2="150.0" y2="366.0" stroke="#666" stroke-dasharray="4 4" stroke-width="1.2"/>
<text x="150.0" y="402.0" text-anchor="middle" font-size="12" fill="#444" font-family="Helvetica, Arial, sans-serif">submit</text>
<line x1="1098.0" y1="44.0" x2="1098.0" y2="366.0" stroke="#888" stroke-dasharray="4 4" stroke-width="1.2"/>
<text x="1098.0" y="402.0" text-anchor="middle" font-size="12" fill="#444" font-family="Helvetica, Arial, sans-serif">metrics</text>
<line x1="86.0" y1="44.0" x2="86.0" y2="366.0" stroke="#f5f5f5" stroke-width="1"/>
<text x="86.0" y="418.0" text-anchor="middle" font-size="11" fill="#444" font-family="Helvetica, Arial, sans-serif">-0.12</text>
<line x1="209.8" y1="44.0" x2="209.8" y2="366.0" stroke="#f5f5f5" stroke-width="1"/>
<text x="209.8" y="418.0" text-anchor="middle" font-size="11" fill="#444" font-family="Helvetica, Arial, sans-serif">0.12</text>
<line x1="333.5" y1="44.0" x2="333.5" y2="366.0" stroke="#f5f5f5" stroke-width="1"/>
<text x="333.5" y="418.0" text-anchor="middle" font-size="11" fill="#444" font-family="Helvetica, Arial, sans-serif">0.36</text>
<line x1="457.2" y1="44.0" x2="457.2" y2="366.0" stroke="#f5f5f5" stroke-width="1"/>
<text x="457.2" y="418.0" text-anchor="middle" font-size="11" fill="#444" font-family="Helvetica, Arial, sans-serif">0.60</text>
<line x1="581.0" y1="44.0" x2="581.0" y2="366.0" stroke="#f5f5f5" stroke-width="1"/>
<text x="581.0" y="418.0" text-anchor="middle" font-size="11" fill="#444" font-family="Helvetica, Arial, sans-serif">0.84</text>
<line x1="704.8" y1="44.0" x2="704.8" y2="366.0" stroke="#f5f5f5" stroke-width="1"/>
<text x="704.8" y="418.0" text-anchor="middle" font-size="11" fill="#444" font-family="Helvetica, Arial, sans-serif">1.08</text>
<line x1="828.5" y1="44.0" x2="828.5" y2="366.0" stroke="#f5f5f5" stroke-width="1"/>
<text x="828.5" y="418.0" text-anchor="middle" font-size="11" fill="#444" font-family="Helvetica, Arial, sans-serif">1.32</text>
<line x1="952.2" y1="44.0" x2="952.2" y2="366.0" stroke="#f5f5f5" stroke-width="1"/>
<text x="952.2" y="418.0" text-anchor="middle" font-size="11" fill="#444" font-family="Helvetica, Arial, sans-serif">1.57</text>
<line x1="1076.0" y1="44.0" x2="1076.0" y2="366.0" stroke="#f5f5f5" stroke-width="1"/>
<text x="1076.0" y="418.0" text-anchor="middle" font-size="11" fill="#444" font-family="Helvetica, Arial, sans-serif">1.81</text>
<text x="581.0" y="386.0" text-anchor="middle" font-size="15" fill="#222" font-family="Helvetica, Arial, sans-serif">time since request submit (s)</text>
</svg>