<svg xmlns="http://www.w3.org/2000/svg" width="1100" height="420" viewBox="0 0 1100 420">
<rect width="1100" height="420" fill="white"/>
<text x="86" y="26" font-size="24" font-weight="700" font-family="Helvetica, Arial, sans-serif">PCIe RX Timeline: pd_external_prefix_terminalbench_qwen3_8b_s4</text>
<line x1="86" y1="366.0" x2="1076" y2="366.0" stroke="#ececec" stroke-width="1"/>
<text x="76" y="370.0" text-anchor="end" font-size="12" fill="#444" font-family="Helvetica, Arial, sans-serif">0.0</text>
<line x1="86" y1="301.6" x2="1076" y2="301.6" stroke="#ececec" stroke-width="1"/>
<text x="76" y="305.6" text-anchor="end" font-size="12" fill="#444" font-family="Helvetica, Arial, sans-serif">8.6</text>
<line x1="86" y1="237.2" x2="1076" y2="237.2" stroke="#ececec" stroke-width="1"/>
<text x="76" y="241.2" text-anchor="end" font-size="12" fill="#444" font-family="Helvetica, Arial, sans-serif">17.1</text>
<line x1="86" y1="172.8" x2="1076" y2="172.8" stroke="#ececec" stroke-width="1"/>
<text x="76" y="176.8" text-anchor="end" font-size="12" fill="#444" font-family="Helvetica, Arial, sans-serif">25.7</text>
<line x1="86" y1="108.4" x2="1076" y2="108.4" stroke="#ececec" stroke-width="1"/>
<text x="76" y="112.4" text-anchor="end" font-size="12" fill="#444" font-family="Helvetica, Arial, sans-serif">34.3</text>
<line x1="86" y1="44.0" x2="1076" y2="44.0" stroke="#ececec" stroke-width="1"/>
<text x="76" y="48.0" text-anchor="end" font-size="12" fill="#444" font-family="Helvetica, Arial, sans-serif">42.8</text>
<line x1="86" y1="366.0" x2="1076" y2="366.0" stroke="#222" stroke-width="1.4"/>
<line x1="86" y1="44.0" x2="86" y2="366.0" stroke="#222" stroke-width="1.4"/>
<text x="24" y="205.0" text-anchor="middle" font-size="15" fill="#222" font-family="Helvetica, Arial, sans-serif" transform="rotate(-90 24,205.0)">RX GiB/s</text>
<rect x="86.0" y="44.0" width="129.0" height="322.0" fill="#4C78A8" opacity="0.08"/>
<rect x="215.3" y="44.0" width="325.8" height="322.0" fill="#F58518" opacity="0.08"/>
<rect x="215.3" y="44.0" width="325.8" height="322.0" fill="#F58518" opacity="0.08"/>
<rect x="215.4" y="44.0" width="325.7" height="322.0" fill="#F58518" opacity="0.08"/>
<rect x="215.4" y="44.0" width="325.7" height="322.0" fill="#F58518" opacity="0.08"/>
<rect x="541.7" y="44.0" width="91.5" height="322.0" fill="#F58518" opacity="0.08"/>
<rect x="541.7" y="44.0" width="91.5" height="322.0" fill="#F58518" opacity="0.08"/>
<rect x="541.8" y="44.0" width="91.4" height="322.0" fill="#F58518" opacity="0.08"/>
<rect x="541.8" y="44.0" width="91.4" height="322.0" fill="#F58518" opacity="0.08"/>
<rect x="633.9" y="44.0" width="95.1" height="322.0" fill="#F58518" opacity="0.08"/>
<rect x="633.9" y="44.0" width="95.1" height="322.0" fill="#F58518" opacity="0.08"/>
<rect x="634.0" y="44.0" width="95.0" height="322.0" fill="#F58518" opacity="0.08"/>
<rect x="634.0" y="44.0" width="95.0" height="322.0" fill="#F58518" opacity="0.08"/>
<rect x="729.7" y="44.0" width="95.2" height="322.0" fill="#F58518" opacity="0.08"/>
<rect x="729.7" y="44.0" width="95.1" height="322.0" fill="#F58518" opacity="0.08"/>
<rect x="729.8" y="44.0" width="95.1" height="322.0" fill="#F58518" opacity="0.08"/>
<rect x="729.8" y="44.0" width="95.1" height="322.0" fill="#F58518" opacity="0.08"/>
<rect x="825.6" y="44.0" width="92.5" height="322.0" fill="#F58518" opacity="0.08"/>
<rect x="825.7" y="44.0" width="92.5" height="322.0" fill="#F58518" opacity="0.08"/>
<rect x="825.7" y="44.0" width="92.5" height="322.0" fill="#F58518" opacity="0.08"/>
<rect x="825.7" y="44.0" width="92.4" height="322.0" fill="#F58518" opacity="0.08"/>
<rect x="918.8" y="44.0" width="52.3" height="322.0" fill="#4C78A8" opacity="0.08"/>
<rect x="971.8" y="44.0" width="52.3" height="322.0" fill="#4C78A8" opacity="0.08"/>
<rect x="1025.0" y="44.0" width="52.2" height="322.0" fill="#4C78A8" opacity="0.08"/>
<path d="M 87.2 366.0 L 88.3 365.9 L 89.6 365.9 L 90.8 365.9 L 92.0 366.0 L 93.3 365.9 L 94.5 365.9 L 95.7 365.9 L 96.9 365.9 L 98.2 365.9 L 99.4 365.9 L 100.6 365.9 L 103.3 366.0 L 104.6 365.9 L 105.8 365.9 L 107.0 365.9 L 108.3 365.9 L 109.5 366.0 L 110.7 365.9 L 111.9 365.9 L 113.1 365.9 L 114.3 365.9 L 115.5 365.9 L 116.7 365.9 L 117.9 365.9 L 119.2 365.9 L 120.4 365.9 L 121.6 365.9 L 122.8 365.9 L 124.0 365.9 L 125.1 365.9 L 126.3 365.9 L 127.5 365.9 L 128.7 365.9 L 129.9 365.9 L 131.2 365.9 L 132.3 365.9 L 133.6 365.9 L 134.7 365.9 L 135.9 365.9 L 137.1 365.9 L 138.5 365.9 L 139.6 366.0 L 140.9 365.9 L 142.0 366.0 L 143.3 365.9 L 144.4 365.9 L 145.6 365.9 L 147.0 365.9 L 148.2 365.9 L 149.4 366.0 L 150.6 365.9 L 151.8 365.9 L 153.1 366.0 L 154.3 366.0 L 155.5 365.9 L 156.7 366.0 L 157.8 366.0 L 159.1 366.0 L 160.2 366.0 L 161.5 366.0 L 162.7 366.0 L 163.9 365.9 L 165.1 365.9 L 166.4 366.0 L 167.6 366.0 L 168.8 366.0 L 170.0 366.0 L 171.2 366.0 L 172.4 366.0 L 173.6 365.9 L 174.8 365.8 L 176.0 365.8 L 177.3 365.8 L 178.5 365.8 L 179.7 365.9 L 180.9 366.0 L 182.1 366.0 L 183.3 366.0 L 184.5 366.0 L 185.7 366.0 L 186.9 366.0 L 188.1 366.0 L 189.3 366.0 L 190.5 366.0 L 191.7 366.0 L 192.8 366.0 L 194.0 366.0 L 195.2 366.0 L 196.4 366.0 L 197.6 366.0 L 198.8 366.0 L 200.0 366.0 L 201.2 366.0 L 202.3 366.0 L 203.6 366.0 L 204.7 365.9 L 205.9 366.0 L 207.1 366.0 L 208.3 366.0 L 209.5 366.0 L 210.7 366.0 L 211.9 366.0 L 213.1 366.0 L 214.2 366.0 L 215.4 366.0 L 216.6 366.0 L 217.8 366.0 L 219.0 366.0 L 220.2 366.0 L 221.4 366.0 L 222.6 366.0 L 223.8 366.0 L 225.0 216.5 L 226.2 155.5 L 227.4 153.2 L 228.9 365.9 L 230.2 365.9 L 231.4 182.5 L 232.6 365.9 L 233.8 365.9 L 235.0 365.9 L 236.2 365.9 L 237.4 365.9 L 238.6 365.9 L 239.9 365.9 L 241.1 365.9 L 242.3 365.9 L 243.5 366.0 L 244.7 365.9 L 246.1 365.9 L 247.3 365.9 L 248.5 365.9 L 249.7 365.9 L 250.9 365.9 L 252.1 365.9 L 253.3 365.9 L 254.5 365.9 L 255.7 365.9 L 257.0 365.9 L 258.2 365.9 L 259.4 365.9 L 260.6 365.9 L 261.8 365.9 L 263.0 365.9 L 264.2 365.9 L 265.4 365.9 L 266.7 365.9 L 267.8 365.9 L 269.1 365.9 L 270.2 365.9 L 271.4 365.9 L 272.6 365.9 L 274.0 365.9 L 275.2 365.9 L 276.4 365.9 L 277.6 365.9 L 278.8 365.9 L 280.0 365.9 L 281.2 365.9 L 282.4 365.9 L 283.6 365.9 L 284.8 365.9 L 286.0 365.9 L 287.2 365.9 L 288.4 366.0 L 289.6 365.9 L 290.9 365.9 L 292.0 365.9 L 293.2 365.9 L 294.4 365.9 L 295.6 365.9 L 296.8 365.9 L 298.0 365.9 L 299.3 365.9 L 300.5 365.9 L 301.7 366.0 L 302.9 366.0 L 304.1 365.9 L 305.3 366.0 L 306.5 365.9 L 307.7 366.0 L 308.9 365.9 L 310.1 365.9 L 311.3 365.9 L 312.5 365.9 L 313.7 365.9 L 314.9 366.0 L 316.2 365.9 L 317.4 365.9 L 318.6 365.9 L 319.8 365.9 L 321.0 365.9 L 322.2 365.9 L 323.4 365.9 L 324.7 365.9 L 325.9 365.9 L 327.1 365.9 L 328.3 365.9 L 329.5 365.9 L 330.7 365.9 L 331.9 365.9 L 333.1 365.9 L 334.3 365.9 L 335.5 365.9 L 336.7 365.9 L 337.9 365.9 L 339.1 365.9 L 340.3 365.9 L 341.6 365.9 L 342.8 365.9 L 344.0 365.9 L 345.2 365.9 L 346.4 365.9 L 347.6 365.9 L 348.8 365.9 L 350.1 365.9 L 351.3 365.9 L 352.5 365.9 L 353.7 365.9 L 354.9 365.9 L 356.1 365.9 L 357.2 365.9 L 359.6 365.9 L 360.7 365.9 L 362.0 365.9 L 363.2 365.9 L 364.4 365.9 L 365.6 365.9 L 366.8 365.9 L 368.0 365.9 L 369.2 365.9 L 370.4 365.9 L 371.6 365.9 L 372.8 365.9 L 374.0 365.9 L 375.2 365.9 L 376.4 365.9 L 377.6 365.9 L 378.8 365.9 L 380.0 366.0 L 381.2 365.9 L 382.4 365.9 L 383.6 365.9 L 384.7 365.9 L 386.0 366.0 L 387.1 366.0 L 388.4 365.9 L 389.6 366.0 L 390.8 365.9 L 392.0 365.9 L 393.2 365.9 L 394.4 366.0 L 395.6 366.0 L 396.8 366.0 L 398.1 366.0 L 399.3 365.9 L 400.5 366.0 L 401.7 366.0 L 402.9 365.9 L 405.5 366.0 L 406.7 366.0 L 407.9 365.9 L 409.1 366.0 L 410.3 365.9 L 411.5 365.9 L 412.8 365.9 L 413.9 365.9 L 415.2 365.9 L 416.3 366.0 L 417.5 365.9 L 418.7 365.9 L 419.9 365.9 L 421.2 365.9 L 422.4 365.9 L 423.6 365.9 L 424.7 365.9 L 426.0 365.9 L 427.1 365.9 L 428.4 365.9 L 429.6 366.0 L 430.8 365.9 L 432.0 365.9 L 433.2 365.9 L 434.4 365.9 L 435.6 365.9 L 436.8 365.9 L 438.0 365.9 L 439.2 365.9 L 440.4 365.9 L 441.6 365.9 L 442.8 365.9 L 444.0 365.9 L 445.2 365.9 L 446.4 365.9 L 447.6 365.9 L 449.0 365.9 L 450.2 365.9 L 451.4 365.9 L 452.6 365.9 L 453.7 365.9 L 455.0 365.9 L 456.2 365.9 L 457.4 365.9 L 458.6 365.9 L 459.8 365.9 L 461.0 365.9 L 462.2 365.9 L 463.4 365.9 L 464.5 365.9 L 465.8 365.9 L 467.0 365.9 L 468.2 365.9 L 469.4 365.9 L 470.6 365.9 L 471.8 365.9 L 473.0 366.0 L 474.3 366.0 L 475.5 366.0 L 476.7 365.9 L 477.9 366.0 L 479.1 365.9 L 480.3 366.0 L 481.4 366.0 L 482.7 366.0 L 483.9 366.0 L 485.1 365.9 L 486.3 365.9 L 487.5 365.9 L 488.7 366.0 L 489.9 365.9 L 491.1 366.0 L 492.4 366.0 L 493.5 365.9 L 494.7 366.0 L 495.9 365.9 L 497.1 365.9 L 498.3 365.9 L 499.6 365.6 L 500.8 365.8 L 502.0 365.8 L 503.2 365.8 L 504.4 365.8 L 505.6 365.9 L 506.8 366.0 L 508.1 366.0 L 509.2 366.0 L 510.5 366.0 L 511.6 366.0 L 512.8 366.0 L 514.0 366.0 L 515.2 366.0 L 516.4 366.0 L 517.6 366.0 L 518.8 366.0 L 520.0 366.0 L 521.2 366.0 L 522.4 366.0 L 523.5 366.0 L 524.7 366.0 L 525.9 366.0 L 527.1 366.0 L 528.3 366.0 L 529.5 366.0 L 530.7 366.0 L 531.9 366.0 L 533.1 366.0 L 534.3 366.0 L 535.4 366.0 L 536.6 366.0 L 537.8 366.0 L 539.1 366.0 L 540.2 366.0 L 541.4 366.0 L 542.6 366.0 L 543.8 366.0 L 545.0 366.0 L 546.2 366.0 L 547.4 365.9 L 548.6 366.0 L 549.8 366.0 L 551.0 156.1 L 552.2 156.9 L 553.6 157.1 L 554.9 365.9 L 556.1 366.0 L 557.3 366.0 L 558.5 365.9 L 559.7 366.0 L 560.9 366.0 L 562.1 366.0 L 563.3 366.0 L 564.5 366.0 L 565.7 365.9 L 566.8 366.0 L 568.0 366.0 L 569.2 158.0 L 570.5 158.1 L 571.7 154.1 L 573.2 366.0 L 574.4 366.0 L 575.6 157.4 L 576.8 112.4 L 578.2 157.2 L 579.5 366.0 L 580.8 366.0 L 582.0 158.0 L 583.2 154.1 L 584.7 155.7 L 585.9 365.9 L 587.1 365.9 L 588.3 365.8 L 589.5 365.7 L 590.7 365.8 L 591.9 365.8 L 593.1 365.8 L 594.3 365.8 L 595.6 365.8 L 596.8 365.8 L 598.0 366.0 L 599.2 366.0 L 600.4 366.0 L 601.6 366.0 L 602.8 366.0 L 604.0 366.0 L 605.2 366.0 L 606.4 366.0 L 607.5 366.0 L 608.7 366.0 L 609.9 366.0 L 611.1 366.0 L 612.3 366.0 L 613.5 366.0 L 614.7 366.0 L 615.9 366.0 L 617.0 366.0 L 618.3 366.0 L 619.4 366.0 L 620.6 366.0 L 621.8 366.0 L 623.0 366.0 L 624.2 366.0 L 625.4 366.0 L 626.6 366.0 L 627.8 366.0 L 628.9 366.0 L 630.1 366.0 L 631.3 366.0 L 632.5 366.0 L 633.7 366.0 L 635.0 366.0 L 636.1 366.0 L 637.3 366.0 L 638.5 366.0 L 639.7 366.0 L 640.9 366.0 L 642.1 366.0 L 643.3 366.0 L 644.5 200.6 L 645.7 155.3 L 647.1 138.8 L 648.4 365.9 L 649.7 365.9 L 650.9 365.9 L 652.1 366.0 L 653.3 366.0 L 654.5 366.0 L 655.7 366.0 L 656.9 366.0 L 658.1 366.0 L 659.2 366.0 L 660.5 366.0 L 661.6 366.0 L 662.8 366.0 L 664.0 183.3 L 665.2 155.9 L 666.5 157.3 L 667.7 365.9 L 669.1 366.0 L 670.4 251.0 L 671.6 156.1 L 672.8 132.6 L 674.1 272.5 L 675.4 366.0 L 676.6 327.2 L 677.9 157.0 L 679.1 154.3 L 680.5 197.9 L 681.7 365.9 L 682.9 365.9 L 684.1 365.9 L 685.3 365.8 L 686.5 365.8 L 687.7 365.8 L 688.9 365.8 L 690.1 365.8 L 691.5 365.8 L 692.7 365.8 L 693.8 366.0 L 695.0 366.0 L 696.2 366.0 L 697.4 366.0 L 698.6 366.0 L 699.9 366.0 L 701.1 366.0 L 702.3 366.0 L 703.4 366.0 L 704.6 366.0 L 705.8 366.0 L 707.0 366.0 L 708.2 366.0 L 709.4 366.0 L 710.6 366.0 L 711.8 366.0 L 712.9 366.0 L 714.1 366.0 L 715.3 366.0 L 716.5 366.0 L 717.7 366.0 L 718.9 366.0 L 720.1 366.0 L 721.3 366.0 L 722.4 366.0 L 723.6 366.0 L 724.8 366.0 L 726.0 366.0 L 727.2 366.0 L 728.4 366.0 L 729.6 366.0 L 730.8 366.0 L 732.0 366.0 L 733.1 366.0 L 734.3 366.0 L 735.5 366.0 L 736.7 366.0 L 737.9 365.9 L 739.1 366.0 L 740.3 366.0 L 741.5 156.9 L 742.7 156.7 L 744.0 155.8 L 745.2 365.9 L 746.5 365.9 L 747.7 366.0 L 748.8 366.0 L 750.0 366.0 L 751.2 366.0 L 752.4 366.0 L 753.6 366.0 L 754.8 366.0 L 756.0 366.0 L 757.2 366.0 L 758.4 366.0 L 759.6 198.2 L 760.8 154.3 L 762.2 156.6 L 763.5 366.0 L 764.8 366.0 L 766.0 235.1 L 767.2 157.9 L 768.6 137.0 L 769.9 314.0 L 771.2 366.0 L 772.4 352.0 L 773.6 158.0 L 774.9 152.0 L 776.4 212.0 L 777.6 365.9 L 778.9 365.9 L 780.1 365.9 L 781.3 365.8 L 782.5 365.8 L 783.7 365.8 L 784.9 365.8 L 786.1 365.8 L 787.3 365.8 L 788.5 365.8 L 789.7 366.0 L 790.9 366.0 L 792.1 366.0 L 793.3 366.0 L 794.5 366.0 L 795.8 366.0 L 796.9 366.0 L 798.1 366.0 L 799.3 366.0 L 800.5 366.0 L 801.7 366.0 L 802.9 366.0 L 804.1 366.0 L 805.3 366.0 L 806.5 366.0 L 807.7 366.0 L 808.8 366.0 L 810.0 366.0 L 811.2 366.0 L 812.4 366.0 L 813.6 366.0 L 814.8 366.0 L 816.0 366.0 L 817.2 366.0 L 818.4 366.0 L 819.6 366.0 L 820.7 366.0 L 821.9 366.0 L 823.1 366.0 L 824.3 365.9 L 825.5 366.0 L 826.7 366.0 L 827.9 366.0 L 829.1 366.0 L 830.3 366.0 L 831.5 365.9 L 832.6 366.0 L 833.8 298.1 L 835.0 156.7 L 836.3 143.2 L 837.6 218.9 L 839.0 365.9 L 840.2 366.0 L 841.4 366.0 L 842.5 366.0 L 843.8 366.0 L 845.0 366.0 L 846.2 366.0 L 847.3 366.0 L 848.5 366.0 L 849.7 366.0 L 850.9 366.0 L 852.1 366.0 L 853.3 73.3 L 854.9 158.5 L 856.3 159.5 L 857.6 366.0 L 858.8 366.0 L 859.9 156.3 L 861.2 156.0 L 862.5 154.1 L 863.8 366.0 L 865.0 366.0 L 866.3 157.7 L 867.5 142.7 L 868.8 154.7 L 870.2 365.9 L 871.4 365.9 L 872.6 365.9 L 873.8 365.7 L 875.0 365.8 L 876.2 365.8 L 877.4 365.8 L 878.6 365.8 L 879.9 365.8 L 881.1 365.8 L 882.3 365.9 L 883.5 366.0 L 884.7 366.0 L 885.9 366.0 L 887.1 366.0 L 888.3 366.0 L 889.5 366.0 L 890.7 366.0 L 891.8 366.0 L 893.0 366.0 L 894.2 366.0 L 895.4 366.0 L 896.6 366.0 L 897.8 366.0 L 899.0 366.0 L 900.2 366.0 L 901.4 366.0 L 902.6 366.0 L 903.8 366.0 L 904.9 366.0 L 906.1 366.0 L 907.3 366.0 L 908.6 366.0 L 909.8 366.0 L 911.0 366.0 L 912.2 366.0 L 913.4 365.9 L 914.6 366.0 L 915.7 366.0 L 916.9 366.0 L 918.1 366.0 L 919.3 366.0 L 920.5 366.0 L 921.7 366.0 L 922.9 366.0 L 924.1 366.0 L 925.2 366.0 L 926.4 156.4 L 927.7 155.5 L 929.1 158.0 L 930.4 365.8 L 931.6 365.8 L 932.8 365.8 L 934.1 365.8 L 935.3 365.8 L 936.5 366.0 L 937.7 366.0 L 938.8 366.0 L 940.0 366.0 L 941.2 366.0 L 942.4 366.0 L 943.6 366.0 L 944.8 366.0 L 946.0 366.0 L 947.2 366.0 L 948.4 366.0 L 949.6 366.0 L 950.8 366.0 L 952.0 366.0 L 953.2 366.0 L 954.4 366.0 L 955.5 366.0 L 956.7 366.0 L 957.9 366.0 L 959.1 366.0 L 960.3 366.0 L 961.5 366.0 L 962.7 366.0 L 963.9 366.0 L 965.0 366.0 L 966.2 366.0 L 967.4 366.0 L 968.6 366.0 L 969.8 366.0 L 971.0 366.0 L 972.2 365.9 L 973.4 366.0 L 974.5 366.0 L 975.8 365.9 L 976.9 366.0 L 978.1 366.0 L 979.3 158.0 L 980.6 153.1 L 981.9 155.9 L 983.1 365.8 L 984.3 365.8 L 985.5 365.8 L 986.7 365.8 L 987.9 365.8 L 989.1 366.0 L 990.4 366.0 L 991.6 366.0 L 992.8 366.0 L 994.0 366.0 L 995.2 366.0 L 996.3 366.0 L 997.5 366.0 L 998.7 366.0 L 999.9 366.0 L 1001.1 366.0 L 1002.3 366.0 L 1003.5 366.0 L 1004.7 366.0 L 1005.9 366.0 L 1007.1 366.0 L 1008.3 366.0 L 1009.5 366.0 L 1010.6 366.0 L 1011.9 366.0 L 1013.1 366.0 L 1014.3 366.0 L 1015.4 366.0 L 1016.6 366.0 L 1017.8 366.0 L 1019.1 366.0 L 1020.3 366.0 L 1021.5 366.0 L 1022.7 366.0 L 1023.9 366.0 L 1025.1 366.0 L 1026.3 366.0 L 1027.5 366.0 L 1028.7 366.0 L 1029.9 366.0 L 1031.1 366.0 L 1032.4 183.6 L 1033.6 156.0 L 1034.9 155.6 L 1036.3 365.8 L 1037.5 365.8 L 1038.7 365.8 L 1040.0 365.8 L 1041.3 365.8 L 1042.5 366.0 L 1043.7 366.0 L 1044.9 366.0 L 1046.1 366.0 L 1047.3 366.0 L 1048.5 366.0 L 1049.7 366.0 L 1050.9 366.0 L 1052.1 366.0 L 1053.3 366.0 L 1054.5 366.0 L 1055.6 366.0 L 1056.8 366.0 L 1058.1 366.0 L 1059.3 366.0 L 1060.5 366.0 L 1061.7 366.0 L 1062.9 366.0 L 1064.1 366.0 L 1065.3 366.0 L 1066.5 366.0 L 1067.7 366.0 L 1068.9 366.0 L 1070.1 366.0 L 1071.3 366.0 L 1072.4 366.0 L 1073.6 366.0 L 1074.8 366.0 L 1076.0 366.0" fill="none" stroke="#F58518" stroke-width="2.8" stroke-linejoin="round" stroke-linecap="round"/>
<line x1="86.0" y1="44.0" x2="86.0" y2="366.0" stroke="#f2f2f2" stroke-width="1"/>
<text x="86.0" y="402" text-anchor="middle" font-size="12" fill="#444" font-family="Helvetica, Arial, sans-serif">0.0</text>
<line x1="251.0" y1="44.0" x2="251.0" y2="366.0" stroke="#f2f2f2" stroke-width="1"/>
<text x="251.0" y="402" text-anchor="middle" font-size="12" fill="#444" font-family="Helvetica, Arial, sans-serif">5.9</text>
<line x1="416.0" y1="44.0" x2="416.0" y2="366.0" stroke="#f2f2f2" stroke-width="1"/>
<text x="416.0" y="402" text-anchor="middle" font-size="12" fill="#444" font-family="Helvetica, Arial, sans-serif">11.7</text>
<line x1="581.0" y1="44.0" x2="581.0" y2="366.0" stroke="#f2f2f2" stroke-width="1"/>
<text x="581.0" y="402" text-anchor="middle" font-size="12" fill="#444" font-family="Helvetica, Arial, sans-serif">17.6</text>
<line x1="746.0" y1="44.0" x2="746.0" y2="366.0" stroke="#f2f2f2" stroke-width="1"/>
<text x="746.0" y="402" text-anchor="middle" font-size="12" fill="#444" font-family="Helvetica, Arial, sans-serif">23.4</text>
<line x1="911.0" y1="44.0" x2="911.0" y2="366.0" stroke="#f2f2f2" stroke-width="1"/>
<text x="911.0" y="402" text-anchor="middle" font-size="12" fill="#444" font-family="Helvetica, Arial, sans-serif">29.2</text>
<line x1="1076.0" y1="44.0" x2="1076.0" y2="366.0" stroke="#f2f2f2" stroke-width="1"/>
<text x="1076.0" y="402" text-anchor="middle" font-size="12" fill="#444" font-family="Helvetica, Arial, sans-serif">35.1</text>
<text x="581.0" y="418" text-anchor="middle" font-size="16" fill="#222" font-family="Helvetica, Arial, sans-serif">time since first request submit (s)</text>
</svg>