<svg xmlns="http://www.w3.org/2000/svg" width="1100" height="820" viewBox="0 0 1100 820">
<rect width="1100" height="820" fill="white"/>
<text x="86" y="26" font-size="24" font-weight="700" font-family="Helvetica, Arial, sans-serif">PCIe Timeline: pd_external_prefix_terminalbench_qwen3_8b_s4</text>
<line x1="86" y1="248.0" x2="1076" y2="248.0" stroke="#ececec" stroke-width="1"/>
<text x="76" y="252.0" text-anchor="end" font-size="12" fill="#444" font-family="Helvetica, Arial, sans-serif">0.0</text>
<line x1="86" y1="212.0" x2="1076" y2="212.0" stroke="#ececec" stroke-width="1"/>
<text x="76" y="216.0" text-anchor="end" font-size="12" fill="#444" font-family="Helvetica, Arial, sans-serif">8.9</text>
<line x1="86" y1="176.0" x2="1076" y2="176.0" stroke="#ececec" stroke-width="1"/>
<text x="76" y="180.0" text-anchor="end" font-size="12" fill="#444" font-family="Helvetica, Arial, sans-serif">17.8</text>
<line x1="86" y1="140.0" x2="1076" y2="140.0" stroke="#ececec" stroke-width="1"/>
<text x="76" y="144.0" text-anchor="end" font-size="12" fill="#444" font-family="Helvetica, Arial, sans-serif">26.8</text>
<line x1="86" y1="104.0" x2="1076" y2="104.0" stroke="#ececec" stroke-width="1"/>
<text x="76" y="108.0" text-anchor="end" font-size="12" fill="#444" font-family="Helvetica, Arial, sans-serif">35.7</text>
<line x1="86" y1="68.0" x2="1076" y2="68.0" stroke="#ececec" stroke-width="1"/>
<text x="76" y="72.0" text-anchor="end" font-size="12" fill="#444" font-family="Helvetica, Arial, sans-serif">44.6</text>
<line x1="86" y1="248.0" x2="1076" y2="248.0" stroke="#222" stroke-width="1.4"/>
<line x1="86" y1="68.0" x2="86" y2="248.0" stroke="#222" stroke-width="1.4"/>
<text x="24" y="158.0" text-anchor="middle" font-size="15" fill="#222" font-family="Helvetica, Arial, sans-serif" transform="rotate(-90 24,158.0)">Total GiB/s</text>
<rect x="86.0" y="68.0" width="129.0" height="180.0" fill="#4C78A8" opacity="0.08"/>
<rect x="215.3" y="68.0" width="325.8" height="180.0" fill="#F58518" opacity="0.08"/>
<rect x="215.3" y="68.0" width="325.8" height="180.0" fill="#F58518" opacity="0.08"/>
<rect x="215.4" y="68.0" width="325.7" height="180.0" fill="#F58518" opacity="0.08"/>
<rect x="215.4" y="68.0" width="325.7" height="180.0" fill="#F58518" opacity="0.08"/>
<rect x="541.7" y="68.0" width="91.5" height="180.0" fill="#F58518" opacity="0.08"/>
<rect x="541.7" y="68.0" width="91.5" height="180.0" fill="#F58518" opacity="0.08"/>
<rect x="541.8" y="68.0" width="91.4" height="180.0" fill="#F58518" opacity="0.08"/>
<rect x="541.8" y="68.0" width="91.4" height="180.0" fill="#F58518" opacity="0.08"/>
<rect x="633.9" y="68.0" width="95.1" height="180.0" fill="#F58518" opacity="0.08"/>
<rect x="633.9" y="68.0" width="95.1" height="180.0" fill="#F58518" opacity="0.08"/>
<rect x="634.0" y="68.0" width="95.0" height="180.0" fill="#F58518" opacity="0.08"/>
<rect x="634.0" y="68.0" width="95.0" height="180.0" fill="#F58518" opacity="0.08"/>
<rect x="729.7" y="68.0" width="95.2" height="180.0" fill="#F58518" opacity="0.08"/>
<rect x="729.7" y="68.0" width="95.1" height="180.0" fill="#F58518" opacity="0.08"/>
<rect x="729.8" y="68.0" width="95.1" height="180.0" fill="#F58518" opacity="0.08"/>
<rect x="729.8" y="68.0" width="95.1" height="180.0" fill="#F58518" opacity="0.08"/>
<rect x="825.6" y="68.0" width="92.5" height="180.0" fill="#F58518" opacity="0.08"/>
<rect x="825.7" y="68.0" width="92.5" height="180.0" fill="#F58518" opacity="0.08"/>
<rect x="825.7" y="68.0" width="92.5" height="180.0" fill="#F58518" opacity="0.08"/>
<rect x="825.7" y="68.0" width="92.4" height="180.0" fill="#F58518" opacity="0.08"/>
<rect x="918.8" y="68.0" width="52.3" height="180.0" fill="#4C78A8" opacity="0.08"/>
<rect x="971.8" y="68.0" width="52.3" height="180.0" fill="#4C78A8" opacity="0.08"/>
<rect x="1025.0" y="68.0" width="52.2" height="180.0" fill="#4C78A8" opacity="0.08"/>
<path d="M 87.2 247.9 L 88.3 247.9 L 89.6 247.9 L 90.8 247.9 L 92.0 248.0 L 93.3 242.2 L 94.5 248.0 L 95.7 248.0 L 96.9 248.0 L 98.2 185.6 L 99.4 248.0 L 100.6 247.8 L 103.3 248.0 L 104.6 248.0 L 105.8 248.0 L 107.0 248.0 L 108.3 248.0 L 109.5 246.7 L 110.7 248.0 L 111.9 248.0 L 113.1 248.0 L 114.3 248.0 L 115.5 247.9 L 116.7 204.5 L 117.9 248.0 L 119.2 248.0 L 120.4 248.0 L 121.6 248.0 L 122.8 248.0 L 124.0 248.0 L 125.1 248.0 L 126.3 248.0 L 127.5 248.0 L 128.7 248.0 L 129.9 247.9 L 131.2 219.6 L 132.3 248.0 L 133.6 248.0 L 134.7 248.0 L 135.9 248.0 L 137.1 248.0 L 138.5 202.4 L 139.6 248.0 L 140.9 248.0 L 142.0 248.0 L 143.3 248.0 L 144.4 247.9 L 145.6 247.9 L 147.0 185.6 L 148.2 248.0 L 149.4 248.0 L 150.6 248.0 L 151.8 248.0 L 153.1 248.0 L 154.3 248.0 L 155.5 209.0 L 156.7 248.0 L 157.8 248.0 L 159.1 248.0 L 160.2 248.0 L 161.5 248.0 L 162.7 248.0 L 163.9 247.9 L 165.1 222.7 L 166.4 248.0 L 167.6 248.0 L 168.8 248.0 L 170.0 248.0 L 171.2 248.0 L 172.4 248.0 L 173.6 247.9 L 174.8 224.2 L 176.0 247.8 L 177.3 247.9 L 178.5 247.9 L 179.7 247.9 L 180.9 248.0 L 182.1 248.0 L 183.3 248.0 L 184.5 248.0 L 185.7 248.0 L 186.9 248.0 L 188.1 248.0 L 189.3 248.0 L 190.5 248.0 L 191.7 248.0 L 192.8 248.0 L 194.0 248.0 L 195.2 248.0 L 196.4 248.0 L 197.6 248.0 L 198.8 248.0 L 200.0 248.0 L 201.2 248.0 L 202.3 248.0 L 203.6 248.0 L 204.7 247.9 L 205.9 248.0 L 207.1 248.0 L 208.3 248.0 L 209.5 248.0 L 210.7 248.0 L 211.9 248.0 L 213.1 248.0 L 214.2 248.0 L 215.4 248.0 L 216.6 248.0 L 217.8 248.0 L 219.0 248.0 L 220.2 248.0 L 221.4 248.0 L 222.6 248.0 L 223.8 248.0 L 225.0 167.8 L 226.2 122.2 L 227.4 120.5 L 228.9 236.2 L 230.2 247.9 L 231.4 149.5 L 232.6 248.0 L 233.8 247.9 L 235.0 247.9 L 236.2 248.0 L 237.4 236.3 L 238.6 248.0 L 239.9 248.0 L 241.1 248.0 L 242.3 248.0 L 243.5 248.0 L 244.7 247.9 L 246.1 248.0 L 247.3 247.9 L 248.5 248.0 L 249.7 248.0 L 250.9 185.6 L 252.1 248.0 L 253.3 248.0 L 254.5 248.0 L 255.7 248.0 L 257.0 247.9 L 258.2 213.6 L 259.4 248.0 L 260.6 248.0 L 261.8 248.0 L 263.0 247.9 L 264.2 247.9 L 265.4 185.6 L 266.7 248.0 L 267.8 248.0 L 269.1 248.0 L 270.2 248.0 L 271.4 248.0 L 272.6 248.0 L 274.0 248.0 L 275.2 248.0 L 276.4 248.0 L 277.6 248.0 L 278.8 248.0 L 280.0 248.0 L 281.2 235.0 L 282.4 248.0 L 283.6 248.0 L 284.8 248.0 L 286.0 248.0 L 287.2 248.0 L 288.4 248.0 L 289.6 247.9 L 290.9 248.0 L 292.0 247.9 L 293.2 247.9 L 294.4 247.9 L 295.6 248.0 L 296.8 248.0 L 298.0 248.0 L 299.3 186.9 L 300.5 248.0 L 301.7 248.0 L 302.9 248.0 L 304.1 248.0 L 305.3 248.0 L 306.5 248.0 L 307.7 248.0 L 308.9 185.6 L 310.1 248.0 L 311.3 248.0 L 312.5 248.0 L 313.7 248.0 L 314.9 248.0 L 316.2 247.9 L 317.4 247.9 L 318.6 248.0 L 319.8 248.0 L 321.0 248.0 L 322.2 232.3 L 323.4 247.9 L 324.7 248.0 L 325.9 248.0 L 327.1 248.0 L 328.3 246.8 L 329.5 248.0 L 330.7 248.0 L 331.9 248.0 L 333.1 248.0 L 334.3 248.0 L 335.5 202.1 L 336.7 247.9 L 337.9 247.9 L 339.1 248.0 L 340.3 247.9 L 341.6 248.0 L 342.8 240.8 L 344.0 248.0 L 345.2 248.0 L 346.4 248.0 L 347.6 248.0 L 348.8 248.0 L 350.1 238.3 L 351.3 247.9 L 352.5 247.9 L 353.7 247.9 L 354.9 248.0 L 356.1 248.0 L 357.2 185.6 L 359.6 248.0 L 360.7 248.0 L 362.0 248.0 L 363.2 248.0 L 364.4 248.0 L 365.6 185.6 L 366.8 248.0 L 368.0 248.0 L 369.2 248.0 L 370.4 248.0 L 371.6 248.0 L 372.8 248.0 L 374.0 185.6 L 375.2 248.0 L 376.4 248.0 L 377.6 248.0 L 378.8 248.0 L 380.0 248.0 L 381.2 247.9 L 382.4 241.2 L 383.6 248.0 L 384.7 248.0 L 386.0 248.0 L 387.1 248.0 L 388.4 248.0 L 389.6 248.0 L 390.8 248.0 L 392.0 185.6 L 393.2 248.0 L 394.4 248.0 L 395.6 248.0 L 396.8 248.0 L 398.1 248.0 L 399.3 248.0 L 400.5 248.0 L 401.7 185.7 L 402.9 244.4 L 405.5 248.0 L 406.7 248.0 L 407.9 248.0 L 409.1 248.0 L 410.3 247.9 L 411.5 222.3 L 412.8 247.9 L 413.9 247.9 L 415.2 248.0 L 416.3 248.0 L 417.5 235.4 L 418.7 248.0 L 419.9 248.0 L 421.2 248.0 L 422.4 248.0 L 423.6 187.5 L 424.7 248.0 L 426.0 248.0 L 427.1 248.0 L 428.4 248.0 L 429.6 248.0 L 430.8 248.0 L 432.0 248.0 L 433.2 248.0 L 434.4 248.0 L 435.6 248.0 L 436.8 213.6 L 438.0 248.0 L 439.2 247.9 L 440.4 247.9 L 441.6 247.9 L 442.8 248.0 L 444.0 236.8 L 445.2 248.0 L 446.4 248.0 L 447.6 247.9 L 449.0 248.0 L 450.2 248.0 L 451.4 248.0 L 452.6 247.1 L 453.7 248.0 L 455.0 248.0 L 456.2 248.0 L 457.4 248.0 L 458.6 248.0 L 459.8 238.7 L 461.0 248.0 L 462.2 248.0 L 463.4 248.0 L 464.5 248.0 L 465.8 248.0 L 467.0 248.0 L 468.2 246.0 L 469.4 247.9 L 470.6 247.9 L 471.8 247.9 L 473.0 248.0 L 474.3 248.0 L 475.5 248.0 L 476.7 247.9 L 477.9 210.4 L 479.1 248.0 L 480.3 248.0 L 481.4 248.0 L 482.7 248.0 L 483.9 248.0 L 485.1 248.0 L 486.3 247.9 L 487.5 248.0 L 488.7 248.0 L 489.9 248.0 L 491.1 248.0 L 492.4 248.0 L 493.5 248.0 L 494.7 248.0 L 495.9 247.9 L 497.1 233.8 L 498.3 247.9 L 499.6 247.8 L 500.8 247.9 L 502.0 247.9 L 503.2 247.9 L 504.4 247.9 L 505.6 247.9 L 506.8 248.0 L 508.1 248.0 L 509.2 248.0 L 510.5 248.0 L 511.6 248.0 L 512.8 248.0 L 514.0 248.0 L 515.2 248.0 L 516.4 248.0 L 517.6 248.0 L 518.8 248.0 L 520.0 248.0 L 521.2 248.0 L 522.4 248.0 L 523.5 248.0 L 524.7 248.0 L 525.9 248.0 L 527.1 248.0 L 528.3 248.0 L 529.5 247.9 L 530.7 248.0 L 531.9 248.0 L 533.1 248.0 L 534.3 248.0 L 535.4 248.0 L 536.6 248.0 L 537.8 248.0 L 539.1 248.0 L 540.2 248.0 L 541.4 248.0 L 542.6 248.0 L 543.8 248.0 L 545.0 248.0 L 546.2 248.0 L 547.4 248.0 L 548.6 248.0 L 549.8 248.0 L 551.0 126.9 L 552.2 121.5 L 553.6 123.0 L 554.9 246.3 L 556.1 240.2 L 557.3 248.0 L 558.5 248.0 L 559.7 248.0 L 560.9 248.0 L 562.1 248.0 L 563.3 248.0 L 564.5 248.0 L 565.7 247.9 L 566.8 248.0 L 568.0 248.0 L 569.2 125.2 L 570.5 123.5 L 571.7 118.9 L 573.2 248.0 L 574.4 248.0 L 575.6 127.0 L 576.8 99.1 L 578.2 123.1 L 579.5 246.7 L 580.8 248.0 L 582.0 128.2 L 583.2 119.7 L 584.7 122.4 L 585.9 245.7 L 587.1 247.9 L 588.3 247.9 L 589.5 232.2 L 590.7 247.9 L 591.9 247.9 L 593.1 247.9 L 594.3 247.9 L 595.6 247.9 L 596.8 247.9 L 598.0 248.0 L 599.2 248.0 L 600.4 248.0 L 601.6 248.0 L 602.8 248.0 L 604.0 248.0 L 605.2 248.0 L 606.4 248.0 L 607.5 248.0 L 608.7 248.0 L 609.9 248.0 L 611.1 248.0 L 612.3 248.0 L 613.5 248.0 L 614.7 248.0 L 615.9 248.0 L 617.0 248.0 L 618.3 247.9 L 619.4 248.0 L 620.6 248.0 L 621.8 248.0 L 623.0 248.0 L 624.2 248.0 L 625.4 248.0 L 626.6 248.0 L 627.8 248.0 L 628.9 248.0 L 630.1 248.0 L 631.3 248.0 L 632.5 248.0 L 633.7 248.0 L 635.0 248.0 L 636.1 248.0 L 637.3 248.0 L 638.5 248.0 L 639.7 248.0 L 640.9 248.0 L 642.1 248.0 L 643.3 248.0 L 644.5 159.3 L 645.7 121.7 L 647.1 113.3 L 648.4 236.0 L 649.7 247.9 L 650.9 247.9 L 652.1 248.0 L 653.3 248.0 L 654.5 248.0 L 655.7 248.0 L 656.9 248.0 L 658.1 248.0 L 659.2 248.0 L 660.5 248.0 L 661.6 248.0 L 662.8 248.0 L 664.0 150.0 L 665.2 122.4 L 666.5 123.2 L 667.7 233.0 L 669.1 248.0 L 670.4 186.3 L 671.6 122.5 L 672.8 110.0 L 674.1 184.7 L 675.4 248.0 L 676.6 227.2 L 677.9 123.0 L 679.1 121.1 L 680.5 145.0 L 681.7 247.9 L 682.9 247.9 L 684.1 247.9 L 685.3 224.5 L 686.5 247.9 L 687.7 247.9 L 688.9 247.9 L 690.1 247.9 L 691.5 247.9 L 692.7 247.9 L 693.8 248.0 L 695.0 248.0 L 696.2 248.0 L 697.4 248.0 L 698.6 248.0 L 699.9 248.0 L 701.1 248.0 L 702.3 248.0 L 703.4 248.0 L 704.6 248.0 L 705.8 248.0 L 707.0 247.9 L 708.2 248.0 L 709.4 248.0 L 710.6 248.0 L 711.8 248.0 L 712.9 248.0 L 714.1 248.0 L 715.3 248.0 L 716.5 248.0 L 717.7 248.0 L 718.9 248.0 L 720.1 248.0 L 721.3 248.0 L 722.4 248.0 L 723.6 248.0 L 724.8 248.0 L 726.0 248.0 L 727.2 248.0 L 728.4 248.0 L 729.6 248.0 L 730.8 248.0 L 732.0 248.0 L 733.1 248.0 L 734.3 248.0 L 735.5 248.0 L 736.7 248.0 L 737.9 247.9 L 739.1 248.0 L 740.3 248.0 L 741.5 125.4 L 742.7 123.0 L 744.0 121.8 L 745.2 242.7 L 746.5 247.9 L 747.7 248.0 L 748.8 248.0 L 750.0 248.0 L 751.2 248.0 L 752.4 248.0 L 753.6 248.0 L 754.8 248.0 L 756.0 248.0 L 757.2 248.0 L 758.4 248.0 L 759.6 158.0 L 760.8 117.2 L 762.2 122.8 L 763.5 233.6 L 764.8 248.0 L 766.0 177.7 L 767.2 123.4 L 768.6 112.4 L 769.9 207.1 L 771.2 248.0 L 772.4 240.5 L 773.6 123.7 L 774.9 117.1 L 776.4 152.5 L 777.6 247.9 L 778.9 247.9 L 780.1 247.9 L 781.3 224.5 L 782.5 247.9 L 783.7 247.9 L 784.9 247.9 L 786.1 247.9 L 787.3 247.9 L 788.5 247.9 L 789.7 248.0 L 790.9 248.0 L 792.1 248.0 L 793.3 248.0 L 794.5 248.0 L 795.8 248.0 L 796.9 248.0 L 798.1 248.0 L 799.3 248.0 L 800.5 248.0 L 801.7 248.0 L 802.9 248.0 L 804.1 248.0 L 805.3 248.0 L 806.5 248.0 L 807.7 248.0 L 808.8 248.0 L 810.0 248.0 L 811.2 248.0 L 812.4 248.0 L 813.6 248.0 L 814.8 248.0 L 816.0 248.0 L 817.2 248.0 L 818.4 248.0 L 819.6 248.0 L 820.7 248.0 L 821.9 248.0 L 823.1 248.0 L 824.3 248.0 L 825.5 248.0 L 826.7 248.0 L 827.9 248.0 L 829.1 248.0 L 830.3 248.0 L 831.5 248.0 L 832.6 248.0 L 833.8 211.6 L 835.0 122.9 L 836.3 115.8 L 837.6 156.1 L 839.0 247.9 L 840.2 240.2 L 841.4 248.0 L 842.5 248.0 L 843.8 248.0 L 845.0 248.0 L 846.2 248.0 L 847.3 248.0 L 848.5 248.0 L 849.7 248.0 L 850.9 248.0 L 852.1 248.0 L 853.3 84.4 L 854.9 123.8 L 856.3 124.1 L 857.6 248.0 L 858.8 248.0 L 859.9 127.1 L 861.2 122.4 L 862.5 120.0 L 863.8 241.1 L 865.0 248.0 L 866.3 134.2 L 867.5 115.3 L 868.8 121.8 L 870.2 235.2 L 871.4 247.9 L 872.6 247.9 L 873.8 247.8 L 875.0 247.9 L 876.2 247.9 L 877.4 247.9 L 878.6 247.9 L 879.9 247.9 L 881.1 247.9 L 882.3 247.9 L 883.5 248.0 L 884.7 247.9 L 885.9 248.0 L 887.1 248.0 L 888.3 248.0 L 889.5 248.0 L 890.7 248.0 L 891.8 248.0 L 893.0 248.0 L 894.2 248.0 L 895.4 248.0 L 896.6 248.0 L 897.8 248.0 L 899.0 248.0 L 900.2 248.0 L 901.4 248.0 L 902.6 248.0 L 903.8 248.0 L 904.9 248.0 L 906.1 248.0 L 907.3 248.0 L 908.6 248.0 L 909.8 248.0 L 911.0 248.0 L 912.2 248.0 L 913.4 248.0 L 914.6 248.0 L 915.7 248.0 L 916.9 248.0 L 918.1 248.0 L 919.3 248.0 L 920.5 248.0 L 921.7 248.0 L 922.9 248.0 L 924.1 248.0 L 925.2 248.0 L 926.4 127.4 L 927.7 120.4 L 929.1 123.5 L 930.4 246.7 L 931.6 247.9 L 932.8 247.9 L 934.1 247.9 L 935.3 247.9 L 936.5 248.0 L 937.7 248.0 L 938.8 248.0 L 940.0 248.0 L 941.2 248.0 L 942.4 248.0 L 943.6 247.9 L 944.8 248.0 L 946.0 248.0 L 947.2 248.0 L 948.4 248.0 L 949.6 248.0 L 950.8 248.0 L 952.0 248.0 L 953.2 248.0 L 954.4 248.0 L 955.5 248.0 L 956.7 248.0 L 957.9 248.0 L 959.1 248.0 L 960.3 248.0 L 961.5 248.0 L 962.7 248.0 L 963.9 248.0 L 965.0 248.0 L 966.2 248.0 L 967.4 248.0 L 968.6 248.0 L 969.8 248.0 L 971.0 248.0 L 972.2 248.0 L 973.4 248.0 L 974.5 248.0 L 975.8 248.0 L 976.9 248.0 L 978.1 248.0 L 979.3 123.6 L 980.6 120.8 L 981.9 122.5 L 983.1 247.8 L 984.3 247.9 L 985.5 247.9 L 986.7 247.9 L 987.9 247.9 L 989.1 248.0 L 990.4 248.0 L 991.6 248.0 L 992.8 248.0 L 994.0 248.0 L 995.2 248.0 L 996.3 248.0 L 997.5 248.0 L 998.7 248.0 L 999.9 248.0 L 1001.1 248.0 L 1002.3 248.0 L 1003.5 248.0 L 1004.7 248.0 L 1005.9 248.0 L 1007.1 248.0 L 1008.3 248.0 L 1009.5 248.0 L 1010.6 248.0 L 1011.9 248.0 L 1013.1 248.0 L 1014.3 248.0 L 1015.4 248.0 L 1016.6 248.0 L 1017.8 248.0 L 1019.1 248.0 L 1020.3 248.0 L 1021.5 248.0 L 1022.7 248.0 L 1023.9 248.0 L 1025.1 248.0 L 1026.3 248.0 L 1027.5 248.0 L 1028.7 248.0 L 1029.9 248.0 L 1031.1 248.0 L 1032.4 150.2 L 1033.6 122.7 L 1034.9 122.1 L 1036.3 236.3 L 1037.5 247.9 L 1038.7 247.9 L 1040.0 247.8 L 1041.3 247.9 L 1042.5 248.0 L 1043.7 248.0 L 1044.9 248.0 L 1046.1 248.0 L 1047.3 248.0 L 1048.5 248.0 L 1049.7 248.0 L 1050.9 248.0 L 1052.1 248.0 L 1053.3 248.0 L 1054.5 248.0 L 1055.6 248.0 L 1056.8 248.0 L 1058.1 248.0 L 1059.3 248.0 L 1060.5 248.0 L 1061.7 248.0 L 1062.9 248.0 L 1064.1 248.0 L 1065.3 248.0 L 1066.5 248.0 L 1067.7 248.0 L 1068.9 248.0 L 1070.1 248.0 L 1071.3 248.0 L 1072.4 248.0 L 1073.6 248.0 L 1074.8 248.0 L 1076.0 248.0" fill="none" stroke="#54A24B" stroke-width="2.8" stroke-linejoin="round" stroke-linecap="round"/>
<line x1="86" y1="460.0" x2="1076" y2="460.0" stroke="#ececec" stroke-width="1"/>
<text x="76" y="464.0" text-anchor="end" font-size="12" fill="#444" font-family="Helvetica, Arial, sans-serif">0.0</text>
<line x1="86" y1="424.0" x2="1076" y2="424.0" stroke="#ececec" stroke-width="1"/>
<text x="76" y="428.0" text-anchor="end" font-size="12" fill="#444" font-family="Helvetica, Arial, sans-serif">3.4</text>
<line x1="86" y1="388.0" x2="1076" y2="388.0" stroke="#ececec" stroke-width="1"/>
<text x="76" y="392.0" text-anchor="end" font-size="12" fill="#444" font-family="Helvetica, Arial, sans-serif">6.8</text>
<line x1="86" y1="352.0" x2="1076" y2="352.0" stroke="#ececec" stroke-width="1"/>
<text x="76" y="356.0" text-anchor="end" font-size="12" fill="#444" font-family="Helvetica, Arial, sans-serif">10.2</text>
<line x1="86" y1="316.0" x2="1076" y2="316.0" stroke="#ececec" stroke-width="1"/>
<text x="76" y="320.0" text-anchor="end" font-size="12" fill="#444" font-family="Helvetica, Arial, sans-serif">13.6</text>
<line x1="86" y1="280.0" x2="1076" y2="280.0" stroke="#ececec" stroke-width="1"/>
<text x="76" y="284.0" text-anchor="end" font-size="12" fill="#444" font-family="Helvetica, Arial, sans-serif">17.0</text>
<line x1="86" y1="460.0" x2="1076" y2="460.0" stroke="#222" stroke-width="1.4"/>
<line x1="86" y1="280.0" x2="86" y2="460.0" stroke="#222" stroke-width="1.4"/>
<text x="24" y="370.0" text-anchor="middle" font-size="15" fill="#222" font-family="Helvetica, Arial, sans-serif" transform="rotate(-90 24,370.0)">TX GiB/s</text>
<rect x="86.0" y="280.0" width="129.0" height="180.0" fill="#4C78A8" opacity="0.08"/>
<rect x="215.3" y="280.0" width="325.8" height="180.0" fill="#F58518" opacity="0.08"/>
<rect x="215.3" y="280.0" width="325.8" height="180.0" fill="#F58518" opacity="0.08"/>
<rect x="215.4" y="280.0" width="325.7" height="180.0" fill="#F58518" opacity="0.08"/>
<rect x="215.4" y="280.0" width="325.7" height="180.0" fill="#F58518" opacity="0.08"/>
<rect x="541.7" y="280.0" width="91.5" height="180.0" fill="#F58518" opacity="0.08"/>
<rect x="541.7" y="280.0" width="91.5" height="180.0" fill="#F58518" opacity="0.08"/>
<rect x="541.8" y="280.0" width="91.4" height="180.0" fill="#F58518" opacity="0.08"/>
<rect x="541.8" y="280.0" width="91.4" height="180.0" fill="#F58518" opacity="0.08"/>
<rect x="633.9" y="280.0" width="95.1" height="180.0" fill="#F58518" opacity="0.08"/>
<rect x="633.9" y="280.0" width="95.1" height="180.0" fill="#F58518" opacity="0.08"/>
<rect x="634.0" y="280.0" width="95.0" height="180.0" fill="#F58518" opacity="0.08"/>
<rect x="634.0" y="280.0" width="95.0" height="180.0" fill="#F58518" opacity="0.08"/>
<rect x="729.7" y="280.0" width="95.2" height="180.0" fill="#F58518" opacity="0.08"/>
<rect x="729.7" y="280.0" width="95.1" height="180.0" fill="#F58518" opacity="0.08"/>
<rect x="729.8" y="280.0" width="95.1" height="180.0" fill="#F58518" opacity="0.08"/>
<rect x="729.8" y="280.0" width="95.1" height="180.0" fill="#F58518" opacity="0.08"/>
<rect x="825.6" y="280.0" width="92.5" height="180.0" fill="#F58518" opacity="0.08"/>
<rect x="825.7" y="280.0" width="92.5" height="180.0" fill="#F58518" opacity="0.08"/>
<rect x="825.7" y="280.0" width="92.5" height="180.0" fill="#F58518" opacity="0.08"/>
<rect x="825.7" y="280.0" width="92.4" height="180.0" fill="#F58518" opacity="0.08"/>
<rect x="918.8" y="280.0" width="52.3" height="180.0" fill="#4C78A8" opacity="0.08"/>
<rect x="971.8" y="280.0" width="52.3" height="180.0" fill="#4C78A8" opacity="0.08"/>
<rect x="1025.0" y="280.0" width="52.2" height="180.0" fill="#4C78A8" opacity="0.08"/>
<path d="M 87.2 459.9 L 88.3 460.0 L 89.6 460.0 L 90.8 460.0 L 92.0 460.0 L 93.3 444.9 L 94.5 460.0 L 95.7 460.0 L 96.9 460.0 L 98.2 296.6 L 99.4 460.0 L 100.6 459.7 L 103.3 460.0 L 104.6 460.0 L 105.8 460.0 L 107.0 460.0 L 108.3 460.0 L 109.5 456.6 L 110.7 460.0 L 111.9 460.0 L 113.1 460.0 L 114.3 460.0 L 115.5 459.9 L 116.7 346.1 L 117.9 460.0 L 119.2 460.0 L 120.4 460.0 L 121.6 460.0 L 122.8 460.0 L 124.0 460.0 L 125.1 460.0 L 126.3 460.0 L 127.5 460.0 L 128.7 460.0 L 129.9 460.0 L 131.2 385.6 L 132.3 460.0 L 133.6 460.0 L 134.7 460.0 L 135.9 460.0 L 137.1 460.0 L 138.5 340.5 L 139.6 460.0 L 140.9 460.0 L 142.0 460.0 L 143.3 460.0 L 144.4 460.0 L 145.6 459.9 L 147.0 296.5 L 148.2 460.0 L 149.4 460.0 L 150.6 460.0 L 151.8 460.0 L 153.1 460.0 L 154.3 460.0 L 155.5 357.8 L 156.7 460.0 L 157.8 460.0 L 159.1 460.0 L 160.2 460.0 L 161.5 460.0 L 162.7 460.0 L 163.9 460.0 L 165.1 393.7 L 166.4 460.0 L 167.6 460.0 L 168.8 460.0 L 170.0 460.0 L 171.2 460.0 L 172.4 460.0 L 173.6 460.0 L 174.8 397.8 L 176.0 459.8 L 177.3 459.9 L 178.5 459.9 L 179.7 459.9 L 180.9 460.0 L 182.1 460.0 L 183.3 460.0 L 184.5 460.0 L 185.7 460.0 L 186.9 460.0 L 188.1 460.0 L 189.3 460.0 L 190.5 460.0 L 191.7 460.0 L 192.8 460.0 L 194.0 460.0 L 195.2 460.0 L 196.4 460.0 L 197.6 460.0 L 198.8 460.0 L 200.0 460.0 L 201.2 460.0 L 202.3 460.0 L 203.6 460.0 L 204.7 460.0 L 205.9 460.0 L 207.1 460.0 L 208.3 460.0 L 209.5 460.0 L 210.7 460.0 L 211.9 460.0 L 213.1 460.0 L 214.2 460.0 L 215.4 460.0 L 216.6 460.0 L 217.8 460.0 L 219.0 460.0 L 220.2 460.0 L 221.4 460.0 L 222.6 460.0 L 223.8 460.0 L 225.0 460.0 L 226.2 426.3 L 227.4 425.0 L 228.9 429.2 L 230.2 459.9 L 231.4 460.0 L 232.6 460.0 L 233.8 459.9 L 235.0 459.9 L 236.2 460.0 L 237.4 429.5 L 238.6 460.0 L 239.9 460.0 L 241.1 460.0 L 242.3 460.0 L 243.5 460.0 L 244.7 460.0 L 246.1 460.0 L 247.3 460.0 L 248.5 460.0 L 249.7 460.0 L 250.9 296.6 L 252.1 460.0 L 253.3 460.0 L 254.5 460.0 L 255.7 460.0 L 257.0 460.0 L 258.2 370.0 L 259.4 460.0 L 260.6 460.0 L 261.8 460.0 L 263.0 459.9 L 264.2 459.8 L 265.4 296.6 L 266.7 460.0 L 267.8 460.0 L 269.1 460.0 L 270.2 460.0 L 271.4 460.0 L 272.6 459.9 L 274.0 460.0 L 275.2 460.0 L 276.4 460.0 L 277.6 460.0 L 278.8 460.0 L 280.0 460.0 L 281.2 425.9 L 282.4 460.0 L 283.6 460.0 L 284.8 460.0 L 286.0 460.0 L 287.2 460.0 L 288.4 460.0 L 289.6 460.0 L 290.9 460.0 L 292.0 460.0 L 293.2 459.9 L 294.4 459.9 L 295.6 460.0 L 296.8 460.0 L 298.0 460.0 L 299.3 299.9 L 300.5 460.0 L 301.7 460.0 L 302.9 460.0 L 304.1 460.0 L 305.3 460.0 L 306.5 460.0 L 307.7 460.0 L 308.9 296.6 L 310.1 460.0 L 311.3 460.0 L 312.5 460.0 L 313.7 460.0 L 314.9 460.0 L 316.2 460.0 L 317.4 460.0 L 318.6 460.0 L 319.8 460.0 L 321.0 460.0 L 322.2 419.1 L 323.4 459.8 L 324.7 460.0 L 325.9 460.0 L 327.1 460.0 L 328.3 457.0 L 329.5 460.0 L 330.7 460.0 L 331.9 460.0 L 333.1 460.0 L 334.3 460.0 L 335.5 339.7 L 336.7 460.0 L 337.9 460.0 L 339.1 460.0 L 340.3 460.0 L 341.6 460.0 L 342.8 441.1 L 344.0 460.0 L 345.2 460.0 L 346.4 460.0 L 347.6 460.0 L 348.8 460.0 L 350.1 434.7 L 351.3 459.9 L 352.5 459.9 L 353.7 459.9 L 354.9 460.0 L 356.1 460.0 L 357.2 296.4 L 359.6 460.0 L 360.7 460.0 L 362.0 460.0 L 363.2 460.0 L 364.4 460.0 L 365.6 296.6 L 366.8 460.0 L 368.0 460.0 L 369.2 460.0 L 370.4 460.0 L 371.6 460.0 L 372.8 460.0 L 374.0 296.6 L 375.2 460.0 L 376.4 460.0 L 377.6 460.0 L 378.8 460.0 L 380.0 460.0 L 381.2 459.9 L 382.4 442.3 L 383.6 460.0 L 384.7 460.0 L 386.0 460.0 L 387.1 460.0 L 388.4 460.0 L 389.6 460.0 L 390.8 460.0 L 392.0 296.6 L 393.2 460.0 L 394.4 460.0 L 395.6 460.0 L 396.8 460.0 L 398.1 460.0 L 399.3 460.0 L 400.5 460.0 L 401.7 296.6 L 402.9 450.6 L 405.5 460.0 L 406.7 460.0 L 407.9 460.0 L 409.1 460.0 L 410.3 459.9 L 411.5 392.7 L 412.8 459.9 L 413.9 460.0 L 415.2 460.0 L 416.3 460.0 L 417.5 427.1 L 418.7 460.0 L 419.9 460.0 L 421.2 460.0 L 422.4 460.0 L 423.6 301.5 L 424.7 460.0 L 426.0 460.0 L 427.1 460.0 L 428.4 460.0 L 429.6 460.0 L 430.8 460.0 L 432.0 460.0 L 433.2 460.0 L 434.4 460.0 L 435.6 460.0 L 436.8 369.9 L 438.0 460.0 L 439.2 460.0 L 440.4 459.9 L 441.6 459.9 L 442.8 460.0 L 444.0 430.8 L 445.2 460.0 L 446.4 460.0 L 447.6 459.9 L 449.0 460.0 L 450.2 460.0 L 451.4 460.0 L 452.6 457.8 L 453.7 460.0 L 455.0 460.0 L 456.2 460.0 L 457.4 460.0 L 458.6 460.0 L 459.8 435.7 L 461.0 460.0 L 462.2 460.0 L 463.4 460.0 L 464.5 460.0 L 465.8 460.0 L 467.0 460.0 L 468.2 455.0 L 469.4 459.9 L 470.6 459.8 L 471.8 459.9 L 473.0 460.0 L 474.3 460.0 L 475.5 460.0 L 476.7 460.0 L 477.9 361.5 L 479.1 460.0 L 480.3 460.0 L 481.4 460.0 L 482.7 460.0 L 483.9 460.0 L 485.1 460.0 L 486.3 460.0 L 487.5 460.0 L 488.7 460.0 L 489.9 460.0 L 491.1 460.0 L 492.4 460.0 L 493.5 460.0 L 494.7 460.0 L 495.9 460.0 L 497.1 422.9 L 498.3 460.0 L 499.6 459.9 L 500.8 459.9 L 502.0 459.9 L 503.2 459.9 L 504.4 459.9 L 505.6 459.9 L 506.8 460.0 L 508.1 460.0 L 509.2 460.0 L 510.5 460.0 L 511.6 460.0 L 512.8 460.0 L 514.0 460.0 L 515.2 460.0 L 516.4 460.0 L 517.6 460.0 L 518.8 460.0 L 520.0 460.0 L 521.2 460.0 L 522.4 460.0 L 523.5 460.0 L 524.7 460.0 L 525.9 460.0 L 527.1 460.0 L 528.3 460.0 L 529.5 459.9 L 530.7 460.0 L 531.9 460.0 L 533.1 460.0 L 534.3 460.0 L 535.4 460.0 L 536.6 460.0 L 537.8 460.0 L 539.1 460.0 L 540.2 460.0 L 541.4 460.0 L 542.6 460.0 L 543.8 460.0 L 545.0 460.0 L 546.2 460.0 L 547.4 460.0 L 548.6 460.0 L 549.8 460.0 L 551.0 437.9 L 552.2 422.5 L 553.6 426.2 L 554.9 455.6 L 556.1 439.5 L 557.3 460.0 L 558.5 460.0 L 559.7 460.0 L 560.9 460.0 L 562.1 460.0 L 563.3 460.0 L 564.5 460.0 L 565.7 460.0 L 566.8 460.0 L 568.0 460.0 L 569.2 430.7 L 570.5 425.9 L 571.7 419.6 L 573.2 460.0 L 574.4 460.0 L 575.6 436.3 L 576.8 426.4 L 578.2 426.2 L 579.5 456.5 L 580.8 460.0 L 582.0 438.6 L 583.2 421.6 L 584.7 426.6 L 585.9 454.1 L 587.1 460.0 L 588.3 459.9 L 589.5 419.0 L 590.7 459.9 L 591.9 459.9 L 593.1 459.9 L 594.3 459.9 L 595.6 459.9 L 596.8 459.9 L 598.0 459.9 L 599.2 460.0 L 600.4 460.0 L 601.6 460.0 L 602.8 460.0 L 604.0 460.0 L 605.2 460.0 L 606.4 460.0 L 607.5 460.0 L 608.7 460.0 L 609.9 460.0 L 611.1 460.0 L 612.3 460.0 L 613.5 460.0 L 614.7 460.0 L 615.9 460.0 L 617.0 459.9 L 618.3 459.9 L 619.4 460.0 L 620.6 460.0 L 621.8 460.0 L 623.0 460.0 L 624.2 460.0 L 625.4 460.0 L 626.6 460.0 L 627.8 460.0 L 628.9 460.0 L 630.1 460.0 L 631.3 460.0 L 632.5 460.0 L 633.7 460.0 L 635.0 460.0 L 636.1 460.0 L 637.3 460.0 L 638.5 460.0 L 639.7 460.0 L 640.9 460.0 L 642.1 460.0 L 643.3 460.0 L 644.5 460.0 L 645.7 425.2 L 647.1 426.4 L 648.4 428.8 L 649.7 460.0 L 650.9 460.0 L 652.1 460.0 L 653.3 460.0 L 654.5 460.0 L 655.7 460.0 L 656.9 460.0 L 658.1 460.0 L 659.2 460.0 L 660.5 460.0 L 661.6 460.0 L 662.8 460.0 L 664.0 460.0 L 665.2 426.2 L 666.5 426.5 L 667.7 420.8 L 669.1 460.0 L 670.4 460.0 L 671.6 426.2 L 672.8 426.6 L 674.1 425.7 L 675.4 460.0 L 676.6 460.0 L 677.9 426.3 L 679.1 425.2 L 680.5 426.3 L 681.7 460.0 L 682.9 460.0 L 684.1 460.0 L 685.3 398.6 L 686.5 459.9 L 687.7 459.9 L 688.9 459.9 L 690.1 459.9 L 691.5 459.9 L 692.7 459.9 L 693.8 460.0 L 695.0 460.0 L 696.2 460.0 L 697.4 460.0 L 698.6 460.0 L 699.9 460.0 L 701.1 460.0 L 702.3 460.0 L 703.4 460.0 L 704.6 460.0 L 705.8 459.9 L 707.0 459.9 L 708.2 460.0 L 709.4 460.0 L 710.6 460.0 L 711.8 460.0 L 712.9 460.0 L 714.1 460.0 L 715.3 460.0 L 716.5 460.0 L 717.7 460.0 L 718.9 460.0 L 720.1 460.0 L 721.3 460.0 L 722.4 460.0 L 723.6 460.0 L 724.8 460.0 L 726.0 460.0 L 727.2 460.0 L 728.4 460.0 L 729.6 460.0 L 730.8 460.0 L 732.0 460.0 L 733.1 460.0 L 734.3 460.0 L 735.5 460.0 L 736.7 459.9 L 737.9 460.0 L 739.1 460.0 L 740.3 460.0 L 741.5 432.8 L 742.7 426.7 L 744.0 424.7 L 745.2 446.2 L 746.5 459.9 L 747.7 460.0 L 748.8 460.0 L 750.0 460.0 L 751.2 460.0 L 752.4 460.0 L 753.6 460.0 L 754.8 460.0 L 756.0 460.0 L 757.2 460.0 L 758.4 460.0 L 759.6 460.0 L 760.8 414.8 L 762.2 426.4 L 763.5 422.1 L 764.8 459.9 L 766.0 459.9 L 767.2 426.1 L 768.6 426.6 L 769.9 425.9 L 771.2 460.0 L 772.4 460.0 L 773.6 426.6 L 774.9 417.9 L 776.4 426.3 L 777.6 459.9 L 778.9 460.0 L 780.1 460.0 L 781.3 398.6 L 782.5 459.9 L 783.7 459.9 L 784.9 459.9 L 786.1 459.9 L 787.3 459.9 L 788.5 459.9 L 789.7 459.9 L 790.9 460.0 L 792.1 460.0 L 793.3 460.0 L 794.5 460.0 L 795.8 459.9 L 796.9 460.0 L 798.1 460.0 L 799.3 460.0 L 800.5 460.0 L 801.7 460.0 L 802.9 460.0 L 804.1 460.0 L 805.3 460.0 L 806.5 460.0 L 807.7 460.0 L 808.8 460.0 L 810.0 460.0 L 811.2 460.0 L 812.4 460.0 L 813.6 460.0 L 814.8 460.0 L 816.0 460.0 L 817.2 460.0 L 818.4 460.0 L 819.6 460.0 L 820.7 460.0 L 821.9 460.0 L 823.1 460.0 L 824.3 460.0 L 825.5 460.0 L 826.7 460.0 L 827.9 460.0 L 829.1 460.0 L 830.3 460.0 L 831.5 460.0 L 832.6 460.0 L 833.8 460.0 L 835.0 426.6 L 836.3 426.7 L 837.6 425.9 L 839.0 459.9 L 840.2 439.5 L 841.4 460.0 L 842.5 460.0 L 843.8 460.0 L 845.0 460.0 L 846.2 460.0 L 847.3 460.0 L 848.5 460.0 L 849.7 460.0 L 850.9 460.0 L 852.1 460.0 L 853.3 442.7 L 854.9 426.1 L 856.3 425.8 L 857.6 460.0 L 858.8 460.0 L 859.9 438.0 L 861.2 426.1 L 862.5 422.5 L 863.8 441.8 L 865.0 460.0 L 866.3 454.6 L 867.5 426.3 L 868.8 426.2 L 870.2 426.7 L 871.4 459.9 L 872.6 460.0 L 873.8 459.9 L 875.0 459.9 L 876.2 459.9 L 877.4 459.9 L 878.6 459.9 L 879.9 459.9 L 881.1 459.9 L 882.3 459.9 L 883.5 459.9 L 884.7 459.9 L 885.9 460.0 L 887.1 460.0 L 888.3 460.0 L 889.5 460.0 L 890.7 460.0 L 891.8 460.0 L 893.0 460.0 L 894.2 460.0 L 895.4 460.0 L 896.6 460.0 L 897.8 460.0 L 899.0 460.0 L 900.2 460.0 L 901.4 460.0 L 902.6 460.0 L 903.8 460.0 L 904.9 460.0 L 906.1 460.0 L 907.3 460.0 L 908.6 460.0 L 909.8 460.0 L 911.0 460.0 L 912.2 460.0 L 913.4 460.0 L 914.6 460.0 L 915.7 460.0 L 916.9 460.0 L 918.1 460.0 L 919.3 460.0 L 920.5 460.0 L 921.7 460.0 L 922.9 460.0 L 924.1 460.0 L 925.2 460.0 L 926.4 438.5 L 927.7 421.4 L 929.1 426.2 L 930.4 456.9 L 931.6 459.9 L 932.8 459.9 L 934.1 459.9 L 935.3 459.9 L 936.5 460.0 L 937.7 460.0 L 938.8 460.0 L 940.0 460.0 L 941.2 460.0 L 942.4 459.9 L 943.6 459.9 L 944.8 460.0 L 946.0 460.0 L 947.2 460.0 L 948.4 460.0 L 949.6 460.0 L 950.8 460.0 L 952.0 460.0 L 953.2 460.0 L 954.4 460.0 L 955.5 460.0 L 956.7 460.0 L 957.9 460.0 L 959.1 460.0 L 960.3 460.0 L 961.5 460.0 L 962.7 460.0 L 963.9 460.0 L 965.0 460.0 L 966.2 460.0 L 967.4 460.0 L 968.6 460.0 L 969.8 460.0 L 971.0 460.0 L 972.2 460.0 L 973.4 460.0 L 974.5 460.0 L 975.8 460.0 L 976.9 460.0 L 978.1 460.0 L 979.3 426.4 L 980.6 426.1 L 981.9 426.5 L 983.1 459.9 L 984.3 459.9 L 985.5 459.9 L 986.7 459.9 L 987.9 459.9 L 989.1 460.0 L 990.4 460.0 L 991.6 460.0 L 992.8 460.0 L 994.0 460.0 L 995.2 460.0 L 996.3 460.0 L 997.5 460.0 L 998.7 460.0 L 999.9 460.0 L 1001.1 459.9 L 1002.3 459.9 L 1003.5 459.9 L 1004.7 460.0 L 1005.9 460.0 L 1007.1 460.0 L 1008.3 460.0 L 1009.5 460.0 L 1010.6 460.0 L 1011.9 460.0 L 1013.1 460.0 L 1014.3 460.0 L 1015.4 460.0 L 1016.6 460.0 L 1017.8 460.0 L 1019.1 460.0 L 1020.3 460.0 L 1021.5 460.0 L 1022.7 460.0 L 1023.9 460.0 L 1025.1 460.0 L 1026.3 460.0 L 1027.5 460.0 L 1028.7 460.0 L 1029.9 460.0 L 1031.1 460.0 L 1032.4 460.0 L 1033.6 426.9 L 1034.9 425.8 L 1036.3 429.7 L 1037.5 459.9 L 1038.7 459.9 L 1040.0 459.9 L 1041.3 459.9 L 1042.5 459.9 L 1043.7 460.0 L 1044.9 460.0 L 1046.1 460.0 L 1047.3 460.0 L 1048.5 460.0 L 1049.7 460.0 L 1050.9 460.0 L 1052.1 460.0 L 1053.3 460.0 L 1054.5 460.0 L 1055.6 460.0 L 1056.8 460.0 L 1058.1 460.0 L 1059.3 460.0 L 1060.5 459.9 L 1061.7 459.9 L 1062.9 459.9 L 1064.1 460.0 L 1065.3 460.0 L 1066.5 460.0 L 1067.7 460.0 L 1068.9 460.0 L 1070.1 460.0 L 1071.3 460.0 L 1072.4 460.0 L 1073.6 460.0 L 1074.8 460.0 L 1076.0 460.0" fill="none" stroke="#4C78A8" stroke-width="2.8" stroke-linejoin="round" stroke-linecap="round"/>
<line x1="86" y1="672.0" x2="1076" y2="672.0" stroke="#ececec" stroke-width="1"/>
<text x="76" y="676.0" text-anchor="end" font-size="12" fill="#444" font-family="Helvetica, Arial, sans-serif">0.0</text>
<line x1="86" y1="636.0" x2="1076" y2="636.0" stroke="#ececec" stroke-width="1"/>
<text x="76" y="640.0" text-anchor="end" font-size="12" fill="#444" font-family="Helvetica, Arial, sans-serif">8.6</text>
<line x1="86" y1="600.0" x2="1076" y2="600.0" stroke="#ececec" stroke-width="1"/>
<text x="76" y="604.0" text-anchor="end" font-size="12" fill="#444" font-family="Helvetica, Arial, sans-serif">17.1</text>
<line x1="86" y1="564.0" x2="1076" y2="564.0" stroke="#ececec" stroke-width="1"/>
<text x="76" y="568.0" text-anchor="end" font-size="12" fill="#444" font-family="Helvetica, Arial, sans-serif">25.7</text>
<line x1="86" y1="528.0" x2="1076" y2="528.0" stroke="#ececec" stroke-width="1"/>
<text x="76" y="532.0" text-anchor="end" font-size="12" fill="#444" font-family="Helvetica, Arial, sans-serif">34.3</text>
<line x1="86" y1="492.0" x2="1076" y2="492.0" stroke="#ececec" stroke-width="1"/>
<text x="76" y="496.0" text-anchor="end" font-size="12" fill="#444" font-family="Helvetica, Arial, sans-serif">42.8</text>
<line x1="86" y1="672.0" x2="1076" y2="672.0" stroke="#222" stroke-width="1.4"/>
<line x1="86" y1="492.0" x2="86" y2="672.0" stroke="#222" stroke-width="1.4"/>
<text x="24" y="582.0" text-anchor="middle" font-size="15" fill="#222" font-family="Helvetica, Arial, sans-serif" transform="rotate(-90 24,582.0)">RX GiB/s</text>
<rect x="86.0" y="492.0" width="129.0" height="180.0" fill="#4C78A8" opacity="0.08"/>
<rect x="215.3" y="492.0" width="325.8" height="180.0" fill="#F58518" opacity="0.08"/>
<rect x="215.3" y="492.0" width="325.8" height="180.0" fill="#F58518" opacity="0.08"/>
<rect x="215.4" y="492.0" width="325.7" height="180.0" fill="#F58518" opacity="0.08"/>
<rect x="215.4" y="492.0" width="325.7" height="180.0" fill="#F58518" opacity="0.08"/>
<rect x="541.7" y="492.0" width="91.5" height="180.0" fill="#F58518" opacity="0.08"/>
<rect x="541.7" y="492.0" width="91.5" height="180.0" fill="#F58518" opacity="0.08"/>
<rect x="541.8" y="492.0" width="91.4" height="180.0" fill="#F58518" opacity="0.08"/>
<rect x="541.8" y="492.0" width="91.4" height="180.0" fill="#F58518" opacity="0.08"/>
<rect x="633.9" y="492.0" width="95.1" height="180.0" fill="#F58518" opacity="0.08"/>
<rect x="633.9" y="492.0" width="95.1" height="180.0" fill="#F58518" opacity="0.08"/>
<rect x="634.0" y="492.0" width="95.0" height="180.0" fill="#F58518" opacity="0.08"/>
<rect x="634.0" y="492.0" width="95.0" height="180.0" fill="#F58518" opacity="0.08"/>
<rect x="729.7" y="492.0" width="95.2" height="180.0" fill="#F58518" opacity="0.08"/>
<rect x="729.7" y="492.0" width="95.1" height="180.0" fill="#F58518" opacity="0.08"/>
<rect x="729.8" y="492.0" width="95.1" height="180.0" fill="#F58518" opacity="0.08"/>
<rect x="729.8" y="492.0" width="95.1" height="180.0" fill="#F58518" opacity="0.08"/>
<rect x="825.6" y="492.0" width="92.5" height="180.0" fill="#F58518" opacity="0.08"/>
<rect x="825.7" y="492.0" width="92.5" height="180.0" fill="#F58518" opacity="0.08"/>
<rect x="825.7" y="492.0" width="92.5" height="180.0" fill="#F58518" opacity="0.08"/>
<rect x="825.7" y="492.0" width="92.4" height="180.0" fill="#F58518" opacity="0.08"/>
<rect x="918.8" y="492.0" width="52.3" height="180.0" fill="#4C78A8" opacity="0.08"/>
<rect x="971.8" y="492.0" width="52.3" height="180.0" fill="#4C78A8" opacity="0.08"/>
<rect x="1025.0" y="492.0" width="52.2" height="180.0" fill="#4C78A8" opacity="0.08"/>
<path d="M 87.2 672.0 L 88.3 672.0 L 89.6 672.0 L 90.8 672.0 L 92.0 672.0 L 93.3 672.0 L 94.5 672.0 L 95.7 672.0 L 96.9 672.0 L 98.2 671.9 L 99.4 672.0 L 100.6 672.0 L 103.3 672.0 L 104.6 672.0 L 105.8 672.0 L 107.0 672.0 L 108.3 672.0 L 109.5 672.0 L 110.7 672.0 L 111.9 672.0 L 113.1 672.0 L 114.3 672.0 L 115.5 671.9 L 116.7 671.9 L 117.9 672.0 L 119.2 672.0 L 120.4 672.0 L 121.6 672.0 L 122.8 672.0 L 124.0 672.0 L 125.1 672.0 L 126.3 672.0 L 127.5 672.0 L 128.7 672.0 L 129.9 672.0 L 131.2 672.0 L 132.3 672.0 L 133.6 672.0 L 134.7 672.0 L 135.9 672.0 L 137.1 672.0 L 138.5 672.0 L 139.6 672.0 L 140.9 672.0 L 142.0 672.0 L 143.3 672.0 L 144.4 672.0 L 145.6 671.9 L 147.0 672.0 L 148.2 672.0 L 149.4 672.0 L 150.6 672.0 L 151.8 672.0 L 153.1 672.0 L 154.3 672.0 L 155.5 672.0 L 156.7 672.0 L 157.8 672.0 L 159.1 672.0 L 160.2 672.0 L 161.5 672.0 L 162.7 672.0 L 163.9 671.9 L 165.1 672.0 L 166.4 672.0 L 167.6 672.0 L 168.8 672.0 L 170.0 672.0 L 171.2 672.0 L 172.4 672.0 L 173.6 671.9 L 174.8 671.9 L 176.0 671.9 L 177.3 671.9 L 178.5 671.9 L 179.7 671.9 L 180.9 672.0 L 182.1 672.0 L 183.3 672.0 L 184.5 672.0 L 185.7 672.0 L 186.9 672.0 L 188.1 672.0 L 189.3 672.0 L 190.5 672.0 L 191.7 672.0 L 192.8 672.0 L 194.0 672.0 L 195.2 672.0 L 196.4 672.0 L 197.6 672.0 L 198.8 672.0 L 200.0 672.0 L 201.2 672.0 L 202.3 672.0 L 203.6 672.0 L 204.7 672.0 L 205.9 672.0 L 207.1 672.0 L 208.3 672.0 L 209.5 672.0 L 210.7 672.0 L 211.9 672.0 L 213.1 672.0 L 214.2 672.0 L 215.4 672.0 L 216.6 672.0 L 217.8 672.0 L 219.0 672.0 L 220.2 672.0 L 221.4 672.0 L 222.6 672.0 L 223.8 672.0 L 225.0 588.4 L 226.2 554.3 L 227.4 553.1 L 228.9 671.9 L 230.2 671.9 L 231.4 569.4 L 232.6 672.0 L 233.8 672.0 L 235.0 671.9 L 236.2 672.0 L 237.4 672.0 L 238.6 672.0 L 239.9 672.0 L 241.1 672.0 L 242.3 672.0 L 243.5 672.0 L 244.7 672.0 L 246.1 672.0 L 247.3 672.0 L 248.5 672.0 L 249.7 672.0 L 250.9 672.0 L 252.1 672.0 L 253.3 672.0 L 254.5 672.0 L 255.7 672.0 L 257.0 672.0 L 258.2 672.0 L 259.4 672.0 L 260.6 672.0 L 261.8 672.0 L 263.0 672.0 L 264.2 672.0 L 265.4 672.0 L 266.7 672.0 L 267.8 672.0 L 269.1 672.0 L 270.2 672.0 L 271.4 672.0 L 272.6 672.0 L 274.0 672.0 L 275.2 672.0 L 276.4 672.0 L 277.6 672.0 L 278.8 672.0 L 280.0 672.0 L 281.2 672.0 L 282.4 672.0 L 283.6 672.0 L 284.8 672.0 L 286.0 672.0 L 287.2 672.0 L 288.4 672.0 L 289.6 672.0 L 290.9 672.0 L 292.0 671.9 L 293.2 671.9 L 294.4 672.0 L 295.6 672.0 L 296.8 672.0 L 298.0 672.0 L 299.3 672.0 L 300.5 672.0 L 301.7 672.0 L 302.9 672.0 L 304.1 672.0 L 305.3 672.0 L 306.5 672.0 L 307.7 672.0 L 308.9 672.0 L 310.1 672.0 L 311.3 672.0 L 312.5 672.0 L 313.7 672.0 L 314.9 672.0 L 316.2 671.9 L 317.4 672.0 L 318.6 672.0 L 319.8 672.0 L 321.0 672.0 L 322.2 671.9 L 323.4 671.9 L 324.7 672.0 L 325.9 672.0 L 327.1 672.0 L 328.3 672.0 L 329.5 672.0 L 330.7 672.0 L 331.9 672.0 L 333.1 672.0 L 334.3 672.0 L 335.5 672.0 L 336.7 672.0 L 337.9 672.0 L 339.1 672.0 L 340.3 672.0 L 341.6 672.0 L 342.8 672.0 L 344.0 672.0 L 345.2 672.0 L 346.4 672.0 L 347.6 672.0 L 348.8 672.0 L 350.1 672.0 L 351.3 672.0 L 352.5 671.9 L 353.7 672.0 L 354.9 672.0 L 356.1 672.0 L 357.2 672.0 L 359.6 672.0 L 360.7 672.0 L 362.0 672.0 L 363.2 672.0 L 364.4 672.0 L 365.6 672.0 L 366.8 672.0 L 368.0 672.0 L 369.2 672.0 L 370.4 672.0 L 371.6 672.0 L 372.8 672.0 L 374.0 672.0 L 375.2 672.0 L 376.4 672.0 L 377.6 672.0 L 378.8 672.0 L 380.0 672.0 L 381.2 672.0 L 382.4 671.9 L 383.6 672.0 L 384.7 672.0 L 386.0 672.0 L 387.1 672.0 L 388.4 672.0 L 389.6 672.0 L 390.8 672.0 L 392.0 672.0 L 393.2 672.0 L 394.4 672.0 L 395.6 672.0 L 396.8 672.0 L 398.1 672.0 L 399.3 672.0 L 400.5 672.0 L 401.7 672.0 L 402.9 672.0 L 405.5 672.0 L 406.7 672.0 L 407.9 672.0 L 409.1 672.0 L 410.3 671.9 L 411.5 671.9 L 412.8 672.0 L 413.9 672.0 L 415.2 672.0 L 416.3 672.0 L 417.5 672.0 L 418.7 672.0 L 419.9 672.0 L 421.2 672.0 L 422.4 672.0 L 423.6 672.0 L 424.7 672.0 L 426.0 672.0 L 427.1 672.0 L 428.4 672.0 L 429.6 672.0 L 430.8 672.0 L 432.0 672.0 L 433.2 672.0 L 434.4 672.0 L 435.6 672.0 L 436.8 672.0 L 438.0 672.0 L 439.2 672.0 L 440.4 671.9 L 441.6 671.9 L 442.8 672.0 L 444.0 672.0 L 445.2 672.0 L 446.4 672.0 L 447.6 672.0 L 449.0 672.0 L 450.2 672.0 L 451.4 672.0 L 452.6 672.0 L 453.7 672.0 L 455.0 672.0 L 456.2 672.0 L 457.4 672.0 L 458.6 672.0 L 459.8 672.0 L 461.0 672.0 L 462.2 672.0 L 463.4 672.0 L 464.5 672.0 L 465.8 672.0 L 467.0 672.0 L 468.2 672.0 L 469.4 672.0 L 470.6 672.0 L 471.8 672.0 L 473.0 672.0 L 474.3 672.0 L 475.5 672.0 L 476.7 671.9 L 477.9 672.0 L 479.1 672.0 L 480.3 672.0 L 481.4 672.0 L 482.7 672.0 L 483.9 672.0 L 485.1 672.0 L 486.3 672.0 L 487.5 672.0 L 488.7 672.0 L 489.9 672.0 L 491.1 672.0 L 492.4 672.0 L 493.5 672.0 L 494.7 672.0 L 495.9 671.9 L 497.1 671.9 L 498.3 671.9 L 499.6 671.8 L 500.8 671.9 L 502.0 671.9 L 503.2 671.9 L 504.4 671.9 L 505.6 671.9 L 506.8 672.0 L 508.1 672.0 L 509.2 672.0 L 510.5 672.0 L 511.6 672.0 L 512.8 672.0 L 514.0 672.0 L 515.2 672.0 L 516.4 672.0 L 517.6 672.0 L 518.8 672.0 L 520.0 672.0 L 521.2 672.0 L 522.4 672.0 L 523.5 672.0 L 524.7 672.0 L 525.9 672.0 L 527.1 672.0 L 528.3 672.0 L 529.5 672.0 L 530.7 672.0 L 531.9 672.0 L 533.1 672.0 L 534.3 672.0 L 535.4 672.0 L 536.6 672.0 L 537.8 672.0 L 539.1 672.0 L 540.2 672.0 L 541.4 672.0 L 542.6 672.0 L 543.8 672.0 L 545.0 672.0 L 546.2 672.0 L 547.4 672.0 L 548.6 672.0 L 549.8 672.0 L 551.0 554.7 L 552.2 555.1 L 553.6 555.2 L 554.9 671.9 L 556.1 672.0 L 557.3 672.0 L 558.5 672.0 L 559.7 672.0 L 560.9 672.0 L 562.1 672.0 L 563.3 672.0 L 564.5 672.0 L 565.7 671.9 L 566.8 672.0 L 568.0 672.0 L 569.2 555.7 L 570.5 555.8 L 571.7 553.6 L 573.2 672.0 L 574.4 672.0 L 575.6 555.4 L 576.8 530.2 L 578.2 555.3 L 579.5 672.0 L 580.8 672.0 L 582.0 555.7 L 583.2 553.6 L 584.7 554.5 L 585.9 671.9 L 587.1 671.9 L 588.3 671.9 L 589.5 671.8 L 590.7 671.9 L 591.9 671.9 L 593.1 671.9 L 594.3 671.9 L 595.6 671.9 L 596.8 671.9 L 598.0 672.0 L 599.2 672.0 L 600.4 672.0 L 601.6 672.0 L 602.8 672.0 L 604.0 672.0 L 605.2 672.0 L 606.4 672.0 L 607.5 672.0 L 608.7 672.0 L 609.9 672.0 L 611.1 672.0 L 612.3 672.0 L 613.5 672.0 L 614.7 672.0 L 615.9 672.0 L 617.0 672.0 L 618.3 672.0 L 619.4 672.0 L 620.6 672.0 L 621.8 672.0 L 623.0 672.0 L 624.2 672.0 L 625.4 672.0 L 626.6 672.0 L 627.8 672.0 L 628.9 672.0 L 630.1 672.0 L 631.3 672.0 L 632.5 672.0 L 633.7 672.0 L 635.0 672.0 L 636.1 672.0 L 637.3 672.0 L 638.5 672.0 L 639.7 672.0 L 640.9 672.0 L 642.1 672.0 L 643.3 672.0 L 644.5 579.5 L 645.7 554.2 L 647.1 545.0 L 648.4 671.9 L 649.7 672.0 L 650.9 671.9 L 652.1 672.0 L 653.3 672.0 L 654.5 672.0 L 655.7 672.0 L 656.9 672.0 L 658.1 672.0 L 659.2 672.0 L 660.5 672.0 L 661.6 672.0 L 662.8 672.0 L 664.0 569.9 L 665.2 554.6 L 666.5 555.3 L 667.7 672.0 L 669.1 672.0 L 670.4 607.7 L 671.6 554.7 L 672.8 541.5 L 674.1 619.7 L 675.4 672.0 L 676.6 650.3 L 677.9 555.2 L 679.1 553.6 L 680.5 578.1 L 681.7 671.9 L 682.9 671.9 L 684.1 671.9 L 685.3 671.9 L 686.5 671.9 L 687.7 671.9 L 688.9 671.9 L 690.1 671.9 L 691.5 671.9 L 692.7 671.9 L 693.8 672.0 L 695.0 672.0 L 696.2 672.0 L 697.4 672.0 L 698.6 672.0 L 699.9 672.0 L 701.1 672.0 L 702.3 672.0 L 703.4 672.0 L 704.6 672.0 L 705.8 672.0 L 707.0 672.0 L 708.2 672.0 L 709.4 672.0 L 710.6 672.0 L 711.8 672.0 L 712.9 672.0 L 714.1 672.0 L 715.3 672.0 L 716.5 672.0 L 717.7 672.0 L 718.9 672.0 L 720.1 672.0 L 721.3 672.0 L 722.4 672.0 L 723.6 672.0 L 724.8 672.0 L 726.0 672.0 L 727.2 672.0 L 728.4 672.0 L 729.6 672.0 L 730.8 672.0 L 732.0 672.0 L 733.1 672.0 L 734.3 672.0 L 735.5 672.0 L 736.7 672.0 L 737.9 672.0 L 739.1 672.0 L 740.3 672.0 L 741.5 555.1 L 742.7 555.0 L 744.0 554.5 L 745.2 671.9 L 746.5 671.9 L 747.7 672.0 L 748.8 672.0 L 750.0 672.0 L 751.2 672.0 L 752.4 672.0 L 753.6 672.0 L 754.8 672.0 L 756.0 672.0 L 757.2 672.0 L 758.4 672.0 L 759.6 578.2 L 760.8 553.7 L 762.2 554.9 L 763.5 672.0 L 764.8 672.0 L 766.0 598.8 L 767.2 555.6 L 768.6 544.0 L 769.9 643.0 L 771.2 672.0 L 772.4 664.2 L 773.6 555.7 L 774.9 552.4 L 776.4 585.9 L 777.6 671.9 L 778.9 671.9 L 780.1 671.9 L 781.3 671.9 L 782.5 671.9 L 783.7 671.9 L 784.9 671.9 L 786.1 671.9 L 787.3 671.9 L 788.5 671.9 L 789.7 672.0 L 790.9 672.0 L 792.1 672.0 L 793.3 672.0 L 794.5 672.0 L 795.8 672.0 L 796.9 672.0 L 798.1 672.0 L 799.3 672.0 L 800.5 672.0 L 801.7 672.0 L 802.9 672.0 L 804.1 672.0 L 805.3 672.0 L 806.5 672.0 L 807.7 672.0 L 808.8 672.0 L 810.0 672.0 L 811.2 672.0 L 812.4 672.0 L 813.6 672.0 L 814.8 672.0 L 816.0 672.0 L 817.2 672.0 L 818.4 672.0 L 819.6 672.0 L 820.7 672.0 L 821.9 672.0 L 823.1 672.0 L 824.3 672.0 L 825.5 672.0 L 826.7 672.0 L 827.9 672.0 L 829.1 672.0 L 830.3 672.0 L 831.5 672.0 L 832.6 672.0 L 833.8 634.1 L 835.0 555.0 L 836.3 547.4 L 837.6 589.8 L 839.0 671.9 L 840.2 672.0 L 841.4 672.0 L 842.5 672.0 L 843.8 672.0 L 845.0 672.0 L 846.2 672.0 L 847.3 672.0 L 848.5 672.0 L 849.7 672.0 L 850.9 672.0 L 852.1 672.0 L 853.3 508.4 L 854.9 556.0 L 856.3 556.5 L 857.6 672.0 L 858.8 672.0 L 859.9 554.8 L 861.2 554.6 L 862.5 553.5 L 863.8 672.0 L 865.0 672.0 L 866.3 555.6 L 867.5 547.2 L 868.8 553.9 L 870.2 671.9 L 871.4 671.9 L 872.6 671.9 L 873.8 671.8 L 875.0 671.9 L 876.2 671.9 L 877.4 671.9 L 878.6 671.9 L 879.9 671.9 L 881.1 671.9 L 882.3 671.9 L 883.5 672.0 L 884.7 672.0 L 885.9 672.0 L 887.1 672.0 L 888.3 672.0 L 889.5 672.0 L 890.7 672.0 L 891.8 672.0 L 893.0 672.0 L 894.2 672.0 L 895.4 672.0 L 896.6 672.0 L 897.8 672.0 L 899.0 672.0 L 900.2 672.0 L 901.4 672.0 L 902.6 672.0 L 903.8 672.0 L 904.9 672.0 L 906.1 672.0 L 907.3 672.0 L 908.6 672.0 L 909.8 672.0 L 911.0 672.0 L 912.2 672.0 L 913.4 672.0 L 914.6 672.0 L 915.7 672.0 L 916.9 672.0 L 918.1 672.0 L 919.3 672.0 L 920.5 672.0 L 921.7 672.0 L 922.9 672.0 L 924.1 672.0 L 925.2 672.0 L 926.4 554.9 L 927.7 554.3 L 929.1 555.7 L 930.4 671.9 L 931.6 671.9 L 932.8 671.9 L 934.1 671.9 L 935.3 671.9 L 936.5 672.0 L 937.7 672.0 L 938.8 672.0 L 940.0 672.0 L 941.2 672.0 L 942.4 672.0 L 943.6 672.0 L 944.8 672.0 L 946.0 672.0 L 947.2 672.0 L 948.4 672.0 L 949.6 672.0 L 950.8 672.0 L 952.0 672.0 L 953.2 672.0 L 954.4 672.0 L 955.5 672.0 L 956.7 672.0 L 957.9 672.0 L 959.1 672.0 L 960.3 672.0 L 961.5 672.0 L 962.7 672.0 L 963.9 672.0 L 965.0 672.0 L 966.2 672.0 L 967.4 672.0 L 968.6 672.0 L 969.8 672.0 L 971.0 672.0 L 972.2 672.0 L 973.4 672.0 L 974.5 672.0 L 975.8 672.0 L 976.9 672.0 L 978.1 672.0 L 979.3 555.7 L 980.6 553.0 L 981.9 554.5 L 983.1 671.9 L 984.3 671.9 L 985.5 671.9 L 986.7 671.9 L 987.9 671.9 L 989.1 672.0 L 990.4 672.0 L 991.6 672.0 L 992.8 672.0 L 994.0 672.0 L 995.2 672.0 L 996.3 672.0 L 997.5 672.0 L 998.7 672.0 L 999.9 672.0 L 1001.1 672.0 L 1002.3 672.0 L 1003.5 672.0 L 1004.7 672.0 L 1005.9 672.0 L 1007.1 672.0 L 1008.3 672.0 L 1009.5 672.0 L 1010.6 672.0 L 1011.9 672.0 L 1013.1 672.0 L 1014.3 672.0 L 1015.4 672.0 L 1016.6 672.0 L 1017.8 672.0 L 1019.1 672.0 L 1020.3 672.0 L 1021.5 672.0 L 1022.7 672.0 L 1023.9 672.0 L 1025.1 672.0 L 1026.3 672.0 L 1027.5 672.0 L 1028.7 672.0 L 1029.9 672.0 L 1031.1 672.0 L 1032.4 570.1 L 1033.6 554.6 L 1034.9 554.4 L 1036.3 671.9 L 1037.5 671.9 L 1038.7 671.9 L 1040.0 671.9 L 1041.3 671.9 L 1042.5 672.0 L 1043.7 672.0 L 1044.9 672.0 L 1046.1 672.0 L 1047.3 672.0 L 1048.5 672.0 L 1049.7 672.0 L 1050.9 672.0 L 1052.1 672.0 L 1053.3 672.0 L 1054.5 672.0 L 1055.6 672.0 L 1056.8 672.0 L 1058.1 672.0 L 1059.3 672.0 L 1060.5 672.0 L 1061.7 672.0 L 1062.9 672.0 L 1064.1 672.0 L 1065.3 672.0 L 1066.5 672.0 L 1067.7 672.0 L 1068.9 672.0 L 1070.1 672.0 L 1071.3 672.0 L 1072.4 672.0 L 1073.6 672.0 L 1074.8 672.0 L 1076.0 672.0" fill="none" stroke="#F58518" stroke-width="2.8" stroke-linejoin="round" stroke-linecap="round"/>
<line x1="86.0" y1="68.0" x2="86.0" y2="672.0" stroke="#f2f2f2" stroke-width="1"/>
<text x="86.0" y="802" text-anchor="middle" font-size="12" fill="#444" font-family="Helvetica, Arial, sans-serif">0.0</text>
<line x1="251.0" y1="68.0" x2="251.0" y2="672.0" stroke="#f2f2f2" stroke-width="1"/>
<text x="251.0" y="802" text-anchor="middle" font-size="12" fill="#444" font-family="Helvetica, Arial, sans-serif">5.9</text>
<line x1="416.0" y1="68.0" x2="416.0" y2="672.0" stroke="#f2f2f2" stroke-width="1"/>
<text x="416.0" y="802" text-anchor="middle" font-size="12" fill="#444" font-family="Helvetica, Arial, sans-serif">11.7</text>
<line x1="581.0" y1="68.0" x2="581.0" y2="672.0" stroke="#f2f2f2" stroke-width="1"/>
<text x="581.0" y="802" text-anchor="middle" font-size="12" fill="#444" font-family="Helvetica, Arial, sans-serif">17.6</text>
<line x1="746.0" y1="68.0" x2="746.0" y2="672.0" stroke="#f2f2f2" stroke-width="1"/>
<text x="746.0" y="802" text-anchor="middle" font-size="12" fill="#444" font-family="Helvetica, Arial, sans-serif">23.4</text>
<line x1="911.0" y1="68.0" x2="911.0" y2="672.0" stroke="#f2f2f2" stroke-width="1"/>
<text x="911.0" y="802" text-anchor="middle" font-size="12" fill="#444" font-family="Helvetica, Arial, sans-serif">29.2</text>
<line x1="1076.0" y1="68.0" x2="1076.0" y2="672.0" stroke="#f2f2f2" stroke-width="1"/>
<text x="1076.0" y="802" text-anchor="middle" font-size="12" fill="#444" font-family="Helvetica, Arial, sans-serif">35.1</text>
<text x="581.0" y="818" text-anchor="middle" font-size="16" fill="#222" font-family="Helvetica, Arial, sans-serif">time since first request submit (s)</text>
<rect x="850" y="44" width="220" height="70" rx="8" fill="#fff" stroke="#ddd"/>
<rect x="862" y="58" width="16" height="12" fill="#4C78A8" opacity="0.35"/>
<text x="890" y="68" font-size="13" fill="#333" font-family="Helvetica, Arial, sans-serif">seed</text>
<rect x="862" y="80" width="16" height="12" fill="#F58518" opacity="0.35"/>
<text x="890" y="90" font-size="13" fill="#333" font-family="Helvetica, Arial, sans-serif">reuse</text>
</svg>