<svg xmlns="http://www.w3.org/2000/svg" width="1100" height="420" viewBox="0 0 1100 420">
<rect width="1100" height="420" fill="white"/>
<text x="86" y="26" font-size="22" font-weight="700" font-family="Helvetica, Arial, sans-serif">tb_session_05_turn_001_reuse  phase=reuse  turn=1  prompt=24832  peak_tx=15.46 GiB/s  peak_rx=31.90 GiB/s</text>
<text x="86" y="46" font-size="13" fill="#444" font-family="Helvetica, Arial, sans-serif">response_window=20.590s, response_tx=24.717 GiB, response_rx=5.541 GiB, metrics_tx=41.777 GiB, metrics_rx=5.678 GiB</text>
<line x1="86" y1="366.0" x2="1076" y2="366.0" stroke="#ececec" stroke-width="1"/>
<text x="76" y="370.0" text-anchor="end" font-size="12" fill="#444" font-family="Helvetica, Arial, sans-serif">0.0</text>
<line x1="86" y1="305.2" x2="1076" y2="305.2" stroke="#ececec" stroke-width="1"/>
<text x="76" y="309.2" text-anchor="end" font-size="12" fill="#444" font-family="Helvetica, Arial, sans-serif">7.0</text>
<line x1="86" y1="244.4" x2="1076" y2="244.4" stroke="#ececec" stroke-width="1"/>
<text x="76" y="248.4" text-anchor="end" font-size="12" fill="#444" font-family="Helvetica, Arial, sans-serif">14.0</text>
<line x1="86" y1="183.6" x2="1076" y2="183.6" stroke="#ececec" stroke-width="1"/>
<text x="76" y="187.6" text-anchor="end" font-size="12" fill="#444" font-family="Helvetica, Arial, sans-serif">21.1</text>
<line x1="86" y1="122.8" x2="1076" y2="122.8" stroke="#ececec" stroke-width="1"/>
<text x="76" y="126.8" text-anchor="end" font-size="12" fill="#444" font-family="Helvetica, Arial, sans-serif">28.1</text>
<line x1="86" y1="62.0" x2="1076" y2="62.0" stroke="#ececec" stroke-width="1"/>
<text x="76" y="66.0" text-anchor="end" font-size="12" fill="#444" font-family="Helvetica, Arial, sans-serif">35.1</text>
<line x1="86" y1="366.0" x2="1076" y2="366.0" stroke="#222" stroke-width="1.4"/>
<line x1="86" y1="62.0" x2="86" y2="366.0" stroke="#222" stroke-width="1.4"/>
<rect x="92.6" y="62.0" width="982.7" height="304.0" fill="#F58518" opacity="0.08"/>
<path d="M 86.0 366.0 L 88.0 366.0 L 90.0 366.0 L 92.0 365.9 L 94.1 365.9 L 96.1 366.0 L 98.1 366.0 L 100.1 366.0 L 102.1 366.0 L 104.1 366.0 L 106.1 366.0 L 108.1 366.0 L 110.1 338.6 L 112.3 338.2 L 114.6 338.2 L 116.7 366.0 L 118.7 349.2 L 120.7 347.4 L 122.8 366.0 L 124.8 366.0 L 126.8 366.0 L 128.9 366.0 L 130.9 348.0 L 133.0 366.0 L 135.1 366.0 L 137.1 366.0 L 139.1 366.0 L 141.1 293.1 L 143.1 366.0 L 145.2 366.0 L 147.4 366.0 L 149.5 366.0 L 151.6 232.1 L 153.7 366.0 L 155.7 366.0 L 157.8 366.0 L 159.9 366.0 L 161.9 366.0 L 163.9 252.8 L 165.9 366.0 L 167.9 366.0 L 170.0 366.0 L 172.1 366.0 L 174.1 366.0 L 176.2 232.1 L 178.2 366.0 L 180.2 366.0 L 182.2 366.0 L 184.3 366.0 L 186.4 366.0 L 188.5 359.1 L 190.5 366.0 L 192.5 365.9 L 194.5 365.9 L 196.5 366.0 L 198.5 366.0 L 200.6 366.0 L 202.6 307.2 L 204.6 366.0 L 206.7 366.0 L 208.7 366.0 L 210.7 366.0 L 212.8 366.0 L 214.8 366.0 L 216.8 366.0 L 218.9 366.0 L 220.9 366.0 L 222.9 366.0 L 225.0 366.0 L 227.0 366.0 L 229.0 366.0 L 231.0 366.0 L 233.0 274.8 L 235.2 366.0 L 237.3 366.0 L 239.3 366.0 L 241.3 366.0 L 243.3 366.0 L 245.4 366.0 L 247.5 366.0 L 249.6 366.0 L 251.6 366.0 L 253.7 366.0 L 255.7 366.0 L 257.7 366.0 L 259.7 366.0 L 261.9 366.0 L 263.9 366.0 L 265.9 366.0 L 268.0 366.0 L 270.0 366.0 L 272.0 366.0 L 274.0 261.7 L 276.1 366.0 L 278.1 366.0 L 280.1 366.0 L 282.2 366.0 L 284.2 265.6 L 286.3 366.0 L 288.3 366.0 L 290.3 365.9 L 292.5 365.9 L 294.5 365.9 L 296.5 366.0 L 298.5 366.0 L 300.6 366.0 L 302.6 366.0 L 304.6 366.0 L 306.6 267.9 L 308.7 366.0 L 310.7 366.0 L 312.8 366.0 L 314.8 366.0 L 316.8 366.0 L 318.8 292.7 L 320.9 366.0 L 322.9 366.0 L 325.0 366.0 L 327.1 366.0 L 329.1 366.0 L 331.1 366.0 L 333.1 365.9 L 335.6 366.0 L 337.7 366.0 L 339.7 366.0 L 341.7 365.9 L 343.7 365.9 L 345.7 232.1 L 348.0 366.0 L 350.1 366.0 L 352.1 366.0 L 354.1 366.0 L 356.1 366.0 L 358.3 366.0 L 360.3 357.1 L 362.3 366.0 L 364.4 366.0 L 366.4 366.0 L 368.4 366.0 L 370.4 366.0 L 372.6 366.0 L 374.6 280.4 L 376.6 366.0 L 378.7 366.0 L 380.7 366.0 L 382.8 366.0 L 384.8 366.0 L 386.9 366.0 L 389.0 338.2 L 392.6 365.9 L 394.7 365.9 L 396.8 366.0 L 398.8 366.0 L 400.8 366.0 L 402.8 366.0 L 404.8 366.0 L 406.9 366.0 L 408.9 366.0 L 411.0 366.0 L 413.0 366.0 L 415.0 366.0 L 417.0 366.0 L 419.0 366.0 L 421.0 366.0 L 423.0 323.4 L 425.2 362.1 L 427.3 366.0 L 429.3 366.0 L 431.3 366.0 L 433.3 366.0 L 435.3 366.0 L 437.3 339.2 L 439.4 366.0 L 441.4 366.0 L 443.5 366.0 L 445.5 366.0 L 447.5 299.1 L 449.5 366.0 L 451.5 366.0 L 453.6 366.0 L 455.6 366.0 L 457.6 366.0 L 459.6 272.1 L 461.6 366.0 L 463.6 366.0 L 465.6 366.0 L 467.7 366.0 L 469.7 366.0 L 471.7 315.8 L 473.7 366.0 L 475.7 366.0 L 477.7 366.0 L 479.7 366.0 L 481.7 366.0 L 483.7 366.0 L 485.7 319.6 L 487.7 366.0 L 489.8 366.0 L 491.9 365.9 L 494.0 365.9 L 496.0 366.0 L 498.0 359.8 L 500.0 366.0 L 502.0 366.0 L 504.0 366.0 L 506.0 366.0 L 508.0 366.0 L 510.0 366.0 L 512.1 366.0 L 514.1 366.0 L 516.1 366.0 L 518.1 366.0 L 520.2 366.0 L 522.2 366.0 L 524.2 366.0 L 526.2 366.0 L 528.2 250.6 L 530.3 366.0 L 532.3 366.0 L 534.3 366.0 L 536.3 366.0 L 538.3 366.0 L 540.3 366.0 L 542.3 365.9 L 544.6 365.9 L 546.6 366.0 L 548.6 366.0 L 550.7 366.0 L 552.7 366.0 L 554.7 366.0 L 556.8 366.0 L 558.9 366.0 L 560.9 366.0 L 562.9 354.3 L 565.0 366.0 L 567.0 366.0 L 569.0 366.0 L 571.1 366.0 L 573.2 366.0 L 575.2 238.8 L 577.2 366.0 L 579.2 366.0 L 581.3 366.0 L 583.3 366.0 L 585.3 366.0 L 587.4 366.0 L 589.5 366.0 L 591.5 366.0 L 593.6 366.0 L 595.6 366.0 L 597.6 294.2 L 599.6 366.0 L 601.8 366.0 L 603.8 366.0 L 605.8 366.0 L 607.8 366.0 L 609.9 315.1 L 611.9 366.0 L 613.9 366.0 L 616.0 366.0 L 618.0 366.0 L 620.0 366.0 L 622.0 366.0 L 624.0 316.2 L 626.1 366.0 L 628.1 366.0 L 630.2 366.0 L 632.2 366.0 L 634.3 366.0 L 636.3 366.0 L 638.3 366.0 L 640.4 366.0 L 642.4 365.9 L 644.4 365.9 L 646.4 366.0 L 648.6 366.0 L 650.7 332.5 L 652.7 366.0 L 654.7 366.0 L 656.7 366.0 L 658.8 366.0 L 660.8 366.0 L 662.8 366.0 L 664.9 366.0 L 667.0 366.0 L 669.0 366.0 L 671.0 366.0 L 673.0 366.0 L 675.0 366.0 L 677.1 366.0 L 679.2 366.0 L 681.2 232.1 L 683.4 366.0 L 685.4 366.0 L 687.4 366.0 L 689.4 366.0 L 691.5 366.0 L 693.5 366.0 L 695.5 366.0 L 697.6 232.1 L 699.6 358.6 L 701.6 366.0 L 703.7 366.0 L 705.8 366.0 L 707.8 366.0 L 709.8 366.0 L 711.9 366.0 L 713.9 283.1 L 715.9 366.0 L 717.9 366.0 L 720.0 366.0 L 722.0 366.0 L 724.0 235.0 L 726.1 366.0 L 728.1 366.0 L 730.1 366.0 L 732.1 366.0 L 734.1 314.3 L 736.4 366.0 L 738.4 366.0 L 740.4 366.0 L 742.5 365.9 L 744.5 365.9 L 746.5 237.9 L 748.6 366.0 L 750.8 366.0 L 752.9 366.0 L 754.9 366.0 L 756.9 366.0 L 758.9 313.2 L 760.9 366.0 L 763.0 366.0 L 765.1 366.0 L 767.1 366.0 L 769.1 366.0 L 771.1 232.1 L 773.2 366.0 L 775.2 366.0 L 777.2 366.0 L 779.3 366.0 L 781.3 366.0 L 783.4 319.5 L 785.4 366.0 L 787.4 366.0 L 789.4 366.0 L 791.4 366.0 L 793.6 365.9 L 795.7 366.0 L 797.7 232.8 L 799.7 366.0 L 801.7 366.0 L 803.7 366.0 L 805.7 366.0 L 807.8 366.0 L 809.8 366.0 L 811.9 232.1 L 813.9 366.0 L 815.9 366.0 L 818.0 366.0 L 820.0 366.0 L 822.0 366.0 L 824.0 366.0 L 826.1 344.0 L 828.1 366.0 L 830.2 366.0 L 832.2 366.0 L 834.2 366.0 L 836.2 366.0 L 838.2 366.0 L 840.4 366.0 L 842.4 232.1 L 844.5 365.9 L 846.6 366.0 L 848.6 366.0 L 850.6 366.0 L 852.6 365.9 L 856.0 366.0 L 858.0 366.0 L 860.0 362.3 L 862.1 366.0 L 864.2 366.0 L 866.3 366.0 L 868.3 366.0 L 870.3 366.0 L 872.3 270.0 L 874.3 366.0 L 876.4 366.0 L 878.4 366.0 L 880.4 366.0 L 882.4 248.9 L 884.5 366.0 L 886.5 366.0 L 888.5 366.0 L 890.5 366.0 L 892.5 365.9 L 894.6 365.9 L 896.7 366.0 L 898.7 366.0 L 900.8 366.0 L 902.8 366.0 L 904.8 232.1 L 906.8 366.0 L 908.8 366.0 L 910.9 366.0 L 912.9 366.0 L 915.0 366.0 L 917.0 274.9 L 919.0 366.0 L 921.0 366.0 L 923.0 366.0 L 925.1 366.0 L 927.1 366.0 L 929.2 232.1 L 931.3 366.0 L 933.3 366.0 L 935.3 366.0 L 937.3 366.0 L 939.3 365.9 L 942.8 250.9 L 944.8 365.9 L 946.9 366.0 L 948.9 366.0 L 950.9 366.0 L 952.9 366.0 L 955.1 366.0 L 957.1 360.7 L 959.1 366.0 L 961.2 366.0 L 963.2 366.0 L 965.2 366.0 L 967.2 366.0 L 969.3 366.0 L 971.4 314.2 L 973.4 366.0 L 975.4 366.0 L 977.4 366.0 L 979.5 366.0 L 981.5 366.0 L 983.6 366.0 L 985.6 274.2 L 987.7 366.0 L 989.7 366.0 L 991.7 366.0 L 993.7 366.0 L 995.9 366.0 L 998.0 366.0 L 1000.0 366.0 L 1002.0 234.9 L 1004.0 366.0 L 1006.1 366.0 L 1008.1 366.0 L 1010.1 366.0 L 1012.2 366.0 L 1014.2 366.0 L 1016.2 366.0 L 1018.3 232.2 L 1020.3 366.0 L 1022.4 366.0 L 1024.4 366.0 L 1026.5 366.0 L 1028.6 366.0 L 1030.6 269.5 L 1032.6 366.0 L 1034.6 366.0 L 1036.6 366.0 L 1038.6 366.0 L 1040.9 323.9 L 1042.9 366.0 L 1045.2 366.0 L 1047.3 366.0 L 1049.3 366.0 L 1051.5 275.0 L 1053.5 366.0 L 1055.6 366.0 L 1057.7 366.0 L 1059.7 366.0 L 1061.7 362.1 L 1063.8 366.0 L 1065.9 366.0 L 1067.9 366.0 L 1069.9 366.0 L 1072.0 366.0 L 1074.0 253.7 L 1076.0 366.0" fill="none" stroke="#4C78A8" stroke-width="2.8" stroke-linejoin="round" stroke-linecap="round"/>
<path d="M 86.0 366.0 L 88.0 366.0 L 90.0 366.0 L 92.0 366.0 L 94.1 366.0 L 96.1 366.0 L 98.1 366.0 L 100.1 366.0 L 102.1 366.0 L 104.1 365.9 L 106.1 366.0 L 108.1 318.3 L 110.1 121.5 L 112.3 89.6 L 114.6 204.6 L 116.7 365.8 L 118.7 366.0 L 120.7 365.9 L 122.8 365.9 L 124.8 365.9 L 126.8 365.9 L 128.9 365.9 L 130.9 365.9 L 133.0 365.9 L 135.1 365.9 L 137.1 365.9 L 139.1 365.9 L 141.1 365.8 L 143.1 365.8 L 145.2 365.9 L 147.4 365.9 L 149.5 365.9 L 151.6 365.9 L 153.7 365.9 L 155.7 365.9 L 157.8 365.9 L 159.9 365.9 L 161.9 365.9 L 163.9 365.9 L 165.9 365.9 L 167.9 365.9 L 170.0 365.9 L 172.1 365.9 L 174.1 365.9 L 176.2 365.9 L 178.2 365.9 L 180.2 365.9 L 182.2 365.9 L 184.3 365.9 L 186.4 365.9 L 188.5 365.9 L 190.5 365.9 L 192.5 365.9 L 194.5 365.9 L 196.5 365.9 L 198.5 365.9 L 200.6 365.9 L 202.6 365.9 L 204.6 365.9 L 206.7 365.9 L 208.7 365.9 L 210.7 365.9 L 212.8 365.9 L 214.8 365.9 L 216.8 365.9 L 218.9 365.9 L 220.9 365.9 L 222.9 365.9 L 225.0 365.9 L 227.0 365.9 L 229.0 365.9 L 231.0 365.9 L 233.0 365.9 L 235.2 366.0 L 237.3 365.9 L 239.3 365.9 L 241.3 365.8 L 243.3 365.9 L 245.4 365.9 L 247.5 365.9 L 249.6 365.9 L 251.6 365.9 L 253.7 365.9 L 255.7 365.9 L 257.7 365.9 L 259.7 365.9 L 261.9 365.9 L 263.9 365.9 L 265.9 365.9 L 268.0 365.9 L 270.0 365.9 L 272.0 365.9 L 274.0 365.9 L 276.1 365.9 L 278.1 365.9 L 280.1 365.9 L 282.2 365.9 L 284.2 365.9 L 286.3 365.9 L 288.3 365.9 L 290.3 365.9 L 292.5 365.9 L 294.5 365.9 L 296.5 365.9 L 298.5 365.9 L 300.6 365.9 L 302.6 365.9 L 304.6 365.9 L 306.6 365.9 L 308.7 365.9 L 310.7 365.9 L 312.8 365.9 L 314.8 365.9 L 316.8 365.9 L 318.8 365.9 L 320.9 365.9 L 322.9 365.9 L 325.0 365.9 L 327.1 365.9 L 329.1 365.9 L 331.1 365.9 L 333.1 365.9 L 335.6 365.9 L 337.7 365.9 L 339.7 365.9 L 341.7 365.9 L 343.7 365.9 L 345.7 365.9 L 348.0 365.9 L 350.1 365.9 L 352.1 365.9 L 354.1 365.9 L 356.1 365.9 L 358.3 365.9 L 360.3 365.9 L 362.3 365.9 L 364.4 365.9 L 366.4 365.9 L 368.4 365.9 L 370.4 365.9 L 372.6 365.9 L 374.6 365.9 L 376.6 365.9 L 378.7 365.9 L 380.7 365.9 L 382.8 365.9 L 384.8 365.9 L 386.9 365.9 L 389.0 365.8 L 392.6 365.9 L 394.7 365.9 L 396.8 365.9 L 398.8 365.9 L 400.8 365.9 L 402.8 365.9 L 404.8 365.9 L 406.9 365.9 L 408.9 365.9 L 411.0 365.9 L 413.0 365.9 L 415.0 365.9 L 417.0 365.9 L 419.0 365.9 L 421.0 365.9 L 423.0 366.0 L 425.2 163.9 L 427.3 365.9 L 429.3 365.9 L 431.3 365.9 L 433.3 365.9 L 435.3 365.9 L 437.3 365.9 L 439.4 365.9 L 441.4 365.9 L 443.5 365.8 L 445.5 365.9 L 447.5 365.9 L 449.5 365.9 L 451.5 365.9 L 453.6 365.9 L 455.6 365.9 L 457.6 365.9 L 459.6 365.9 L 461.6 365.9 L 463.6 365.9 L 465.6 365.9 L 467.7 365.9 L 469.7 365.9 L 471.7 365.9 L 473.7 365.9 L 475.7 365.9 L 477.7 365.9 L 479.7 365.9 L 481.7 365.9 L 483.7 365.9 L 485.7 365.9 L 487.7 365.9 L 489.8 365.9 L 491.9 365.9 L 494.0 365.9 L 496.0 365.9 L 498.0 365.9 L 500.0 365.9 L 502.0 365.9 L 504.0 365.9 L 506.0 365.9 L 508.0 365.9 L 510.0 365.9 L 512.1 365.9 L 514.1 365.9 L 516.1 365.9 L 518.1 365.9 L 520.2 365.9 L 522.2 365.9 L 524.2 365.9 L 526.2 365.9 L 528.2 365.9 L 530.3 365.9 L 532.3 365.9 L 534.3 365.9 L 536.3 365.9 L 538.3 365.9 L 540.3 365.9 L 542.3 365.9 L 544.6 365.9 L 546.6 365.9 L 548.6 365.9 L 550.7 365.9 L 552.7 365.9 L 554.7 365.9 L 556.8 365.9 L 558.9 365.9 L 560.9 366.0 L 562.9 264.2 L 565.0 365.9 L 567.0 365.9 L 569.0 365.9 L 571.1 365.9 L 573.2 365.9 L 575.2 365.9 L 577.2 365.9 L 579.2 365.9 L 581.3 365.9 L 583.3 365.9 L 585.3 365.9 L 587.4 365.9 L 589.5 365.9 L 591.5 365.9 L 593.6 365.8 L 595.6 365.9 L 597.6 365.9 L 599.6 365.9 L 601.8 365.9 L 603.8 365.9 L 605.8 365.9 L 607.8 365.9 L 609.9 365.9 L 611.9 365.9 L 613.9 365.9 L 616.0 365.9 L 618.0 365.9 L 620.0 365.9 L 622.0 365.9 L 624.0 365.9 L 626.1 365.9 L 628.1 365.9 L 630.2 365.9 L 632.2 365.9 L 634.3 365.9 L 636.3 365.9 L 638.3 365.9 L 640.4 365.9 L 642.4 365.9 L 644.4 365.9 L 646.4 365.9 L 648.6 365.9 L 650.7 365.9 L 652.7 365.9 L 654.7 365.9 L 656.7 365.9 L 658.8 365.9 L 660.8 365.9 L 662.8 365.9 L 664.9 365.9 L 667.0 365.9 L 669.0 365.9 L 671.0 365.9 L 673.0 365.9 L 675.0 365.9 L 677.1 365.9 L 679.2 365.9 L 681.2 365.9 L 683.4 365.9 L 685.4 365.9 L 687.4 365.9 L 689.4 365.9 L 691.5 365.9 L 693.5 365.8 L 695.5 365.9 L 697.6 366.0 L 699.6 365.9 L 701.6 365.9 L 703.7 365.9 L 705.8 366.0 L 707.8 366.0 L 709.8 366.0 L 711.9 366.0 L 713.9 365.9 L 715.9 365.9 L 717.9 365.9 L 720.0 365.9 L 722.0 365.9 L 724.0 365.9 L 726.1 365.9 L 728.1 365.9 L 730.1 365.9 L 732.1 365.9 L 734.1 365.9 L 736.4 365.9 L 738.4 365.9 L 740.4 365.9 L 742.5 365.9 L 744.5 365.9 L 746.5 365.9 L 748.6 365.9 L 750.8 365.9 L 752.9 365.9 L 754.9 365.9 L 756.9 365.9 L 758.9 365.9 L 760.9 365.9 L 763.0 365.9 L 765.1 365.9 L 767.1 365.9 L 769.1 365.9 L 771.1 365.9 L 773.2 365.9 L 775.2 365.9 L 777.2 365.9 L 779.3 365.9 L 781.3 365.9 L 783.4 365.9 L 785.4 365.9 L 787.4 365.9 L 789.4 365.9 L 791.4 365.9 L 793.6 365.9 L 795.7 365.9 L 797.7 365.9 L 799.7 365.9 L 801.7 365.9 L 803.7 365.9 L 805.7 365.9 L 807.8 365.9 L 809.8 365.9 L 811.9 365.9 L 813.9 365.9 L 815.9 365.9 L 818.0 365.9 L 820.0 365.9 L 822.0 365.9 L 824.0 365.9 L 826.1 365.9 L 828.1 365.9 L 830.2 365.9 L 832.2 365.9 L 834.2 365.9 L 836.2 365.9 L 838.2 365.9 L 840.4 365.9 L 842.4 365.9 L 844.5 365.9 L 846.6 365.9 L 848.6 365.9 L 850.6 365.9 L 852.6 365.9 L 856.0 365.9 L 858.0 366.0 L 860.0 365.9 L 862.1 365.9 L 864.2 365.9 L 866.3 365.9 L 868.3 365.9 L 870.3 365.9 L 872.3 365.9 L 874.3 365.9 L 876.4 365.9 L 878.4 365.9 L 880.4 365.9 L 882.4 365.9 L 884.5 365.9 L 886.5 365.9 L 888.5 365.9 L 890.5 365.9 L 892.5 365.9 L 894.6 365.9 L 896.7 365.9 L 898.7 365.9 L 900.8 365.9 L 902.8 365.9 L 904.8 365.9 L 906.8 365.9 L 908.8 365.9 L 910.9 365.9 L 912.9 365.9 L 915.0 365.9 L 917.0 365.9 L 919.0 365.9 L 921.0 365.9 L 923.0 365.9 L 925.1 365.9 L 927.1 365.9 L 929.2 365.9 L 931.3 365.9 L 933.3 365.9 L 935.3 365.9 L 937.3 365.9 L 939.3 365.9 L 942.8 365.9 L 944.8 365.9 L 946.9 365.9 L 948.9 365.9 L 950.9 365.9 L 952.9 365.9 L 955.1 365.9 L 957.1 365.9 L 959.1 365.9 L 961.2 365.9 L 963.2 365.9 L 965.2 365.9 L 967.2 365.9 L 969.3 365.9 L 971.4 365.9 L 973.4 365.9 L 975.4 365.9 L 977.4 365.9 L 979.5 365.9 L 981.5 365.9 L 983.6 365.9 L 985.6 365.9 L 987.7 365.9 L 989.7 365.9 L 991.7 365.9 L 993.7 365.9 L 995.9 365.9 L 998.0 365.9 L 1000.0 365.9 L 1002.0 365.9 L 1004.0 365.9 L 1006.1 365.9 L 1008.1 365.9 L 1010.1 365.9 L 1012.2 365.9 L 1014.2 365.9 L 1016.2 366.0 L 1018.3 365.9 L 1020.3 365.9 L 1022.4 365.9 L 1024.4 365.9 L 1026.5 365.9 L 1028.6 365.9 L 1030.6 365.9 L 1032.6 365.9 L 1034.6 365.9 L 1036.6 365.9 L 1038.6 365.9 L 1040.9 365.9 L 1042.9 365.9 L 1045.2 365.9 L 1047.3 365.9 L 1049.3 365.9 L 1051.5 365.9 L 1053.5 365.9 L 1055.6 365.9 L 1057.7 365.9 L 1059.7 365.9 L 1061.7 365.9 L 1063.8 365.9 L 1065.9 365.9 L 1067.9 365.9 L 1069.9 365.9 L 1072.0 365.9 L 1074.0 365.9 L 1076.0 365.9" fill="none" stroke="#F58518" stroke-width="2.8" stroke-linejoin="round" stroke-linecap="round"/>
<line x1="92.6" y1="62.0" x2="92.6" y2="366.0" stroke="#666" stroke-dasharray="4 4" stroke-width="1.2"/>
<text x="92.6" y="402.0" text-anchor="middle" font-size="12" fill="#444" font-family="Helvetica, Arial, sans-serif">submit</text>
<line x1="1075.3" y1="62.0" x2="1075.3" y2="366.0" stroke="#888" stroke-dasharray="4 4" stroke-width="1.2"/>
<text x="1075.3" y="402.0" text-anchor="middle" font-size="12" fill="#444" font-family="Helvetica, Arial, sans-serif">finish</text>
<line x1="86.0" y1="62.0" x2="86.0" y2="366.0" stroke="#f5f5f5" stroke-width="1"/>
<text x="86.0" y="418.0" text-anchor="middle" font-size="11" fill="#444" font-family="Helvetica, Arial, sans-serif">-0.14</text>
<line x1="209.8" y1="62.0" x2="209.8" y2="366.0" stroke="#f5f5f5" stroke-width="1"/>
<text x="209.8" y="418.0" text-anchor="middle" font-size="11" fill="#444" font-family="Helvetica, Arial, sans-serif">2.45</text>
<line x1="333.5" y1="62.0" x2="333.5" y2="366.0" stroke="#f5f5f5" stroke-width="1"/>
<text x="333.5" y="418.0" text-anchor="middle" font-size="11" fill="#444" font-family="Helvetica, Arial, sans-serif">5.05</text>
<line x1="457.2" y1="62.0" x2="457.2" y2="366.0" stroke="#f5f5f5" stroke-width="1"/>
<text x="457.2" y="418.0" text-anchor="middle" font-size="11" fill="#444" font-family="Helvetica, Arial, sans-serif">7.64</text>
<line x1="581.0" y1="62.0" x2="581.0" y2="366.0" stroke="#f5f5f5" stroke-width="1"/>
<text x="581.0" y="418.0" text-anchor="middle" font-size="11" fill="#444" font-family="Helvetica, Arial, sans-serif">10.23</text>
<line x1="704.8" y1="62.0" x2="704.8" y2="366.0" stroke="#f5f5f5" stroke-width="1"/>
<text x="704.8" y="418.0" text-anchor="middle" font-size="11" fill="#444" font-family="Helvetica, Arial, sans-serif">12.83</text>
<line x1="828.5" y1="62.0" x2="828.5" y2="366.0" stroke="#f5f5f5" stroke-width="1"/>
<text x="828.5" y="418.0" text-anchor="middle" font-size="11" fill="#444" font-family="Helvetica, Arial, sans-serif">15.42</text>
<line x1="952.2" y1="62.0" x2="952.2" y2="366.0" stroke="#f5f5f5" stroke-width="1"/>
<text x="952.2" y="418.0" text-anchor="middle" font-size="11" fill="#444" font-family="Helvetica, Arial, sans-serif">18.01</text>
<line x1="1076.0" y1="62.0" x2="1076.0" y2="366.0" stroke="#f5f5f5" stroke-width="1"/>
<text x="1076.0" y="418.0" text-anchor="middle" font-size="11" fill="#444" font-family="Helvetica, Arial, sans-serif">20.61</text>
<text x="581.0" y="386.0" text-anchor="middle" font-size="15" fill="#222" font-family="Helvetica, Arial, sans-serif">time since request submit (s)</text>
</svg>