<svg xmlns="http://www.w3.org/2000/svg" width="1100" height="420" viewBox="0 0 1100 420">
<rect width="1100" height="420" fill="white"/>
<text x="86" y="26" font-size="22" font-weight="700" font-family="Helvetica, Arial, sans-serif">tb_session_11_turn_001_reuse  phase=reuse  turn=1  prompt=24832  peak_tx=15.46 GiB/s  peak_rx=31.90 GiB/s</text>
<text x="86" y="46" font-size="13" fill="#444" font-family="Helvetica, Arial, sans-serif">response_window=36.287s, response_tx=41.776 GiB, response_rx=5.677 GiB, metrics_tx=41.777 GiB, metrics_rx=5.678 GiB</text>
<line x1="86" y1="366.0" x2="1076" y2="366.0" stroke="#ececec" stroke-width="1"/>
<text x="76" y="370.0" text-anchor="end" font-size="12" fill="#444" font-family="Helvetica, Arial, sans-serif">0.0</text>
<line x1="86" y1="305.2" x2="1076" y2="305.2" stroke="#ececec" stroke-width="1"/>
<text x="76" y="309.2" text-anchor="end" font-size="12" fill="#444" font-family="Helvetica, Arial, sans-serif">7.0</text>
<line x1="86" y1="244.4" x2="1076" y2="244.4" stroke="#ececec" stroke-width="1"/>
<text x="76" y="248.4" text-anchor="end" font-size="12" fill="#444" font-family="Helvetica, Arial, sans-serif">14.0</text>
<line x1="86" y1="183.6" x2="1076" y2="183.6" stroke="#ececec" stroke-width="1"/>
<text x="76" y="187.6" text-anchor="end" font-size="12" fill="#444" font-family="Helvetica, Arial, sans-serif">21.1</text>
<line x1="86" y1="122.8" x2="1076" y2="122.8" stroke="#ececec" stroke-width="1"/>
<text x="76" y="126.8" text-anchor="end" font-size="12" fill="#444" font-family="Helvetica, Arial, sans-serif">28.1</text>
<line x1="86" y1="62.0" x2="1076" y2="62.0" stroke="#ececec" stroke-width="1"/>
<text x="76" y="66.0" text-anchor="end" font-size="12" fill="#444" font-family="Helvetica, Arial, sans-serif">35.1</text>
<line x1="86" y1="366.0" x2="1076" y2="366.0" stroke="#222" stroke-width="1.4"/>
<line x1="86" y1="62.0" x2="86" y2="366.0" stroke="#222" stroke-width="1.4"/>
<rect x="89.9" y="62.0" width="985.4" height="304.0" fill="#F58518" opacity="0.08"/>
<path d="M 86.0 366.0 L 87.1 366.0 L 88.3 366.0 L 89.4 365.9 L 90.6 365.9 L 91.7 366.0 L 92.9 366.0 L 94.0 366.0 L 95.2 366.0 L 96.3 366.0 L 97.4 366.0 L 98.6 366.0 L 99.7 338.6 L 101.0 338.2 L 102.3 338.2 L 103.5 366.0 L 104.6 349.2 L 105.8 347.4 L 106.9 366.0 L 108.1 366.0 L 109.2 366.0 L 110.4 366.0 L 111.5 348.0 L 112.7 366.0 L 113.9 366.0 L 115.1 366.0 L 116.2 366.0 L 117.4 293.1 L 118.5 366.0 L 119.7 366.0 L 120.9 366.0 L 122.1 366.0 L 123.3 232.1 L 124.5 366.0 L 125.6 366.0 L 126.9 366.0 L 128.0 366.0 L 129.2 366.0 L 130.3 252.8 L 131.5 366.0 L 132.6 366.0 L 133.8 366.0 L 135.0 366.0 L 136.2 366.0 L 137.3 232.1 L 138.4 366.0 L 139.6 366.0 L 140.7 366.0 L 141.9 366.0 L 143.1 366.0 L 144.3 359.1 L 145.4 366.0 L 146.6 365.9 L 147.7 365.9 L 148.9 366.0 L 150.0 366.0 L 151.2 366.0 L 152.3 307.2 L 153.5 366.0 L 154.7 366.0 L 155.8 366.0 L 157.0 366.0 L 158.1 366.0 L 159.3 366.0 L 160.4 366.0 L 161.6 366.0 L 162.8 366.0 L 163.9 366.0 L 165.1 366.0 L 166.2 366.0 L 167.4 366.0 L 168.5 366.0 L 169.7 274.8 L 170.9 366.0 L 172.1 366.0 L 173.2 366.0 L 174.4 366.0 L 175.5 366.0 L 176.7 366.0 L 177.9 366.0 L 179.1 366.0 L 180.2 366.0 L 181.4 366.0 L 182.6 366.0 L 183.7 366.0 L 184.8 366.0 L 186.1 366.0 L 187.2 366.0 L 188.4 366.0 L 189.5 366.0 L 190.7 366.0 L 191.8 366.0 L 193.0 261.7 L 194.2 366.0 L 195.3 366.0 L 196.5 366.0 L 197.6 366.0 L 198.8 265.6 L 199.9 366.0 L 201.1 366.0 L 202.2 365.9 L 203.5 365.9 L 204.6 365.9 L 205.8 366.0 L 206.9 366.0 L 208.1 366.0 L 209.2 366.0 L 210.4 366.0 L 211.5 267.9 L 212.7 366.0 L 213.9 366.0 L 215.0 366.0 L 216.2 366.0 L 217.3 366.0 L 218.5 292.7 L 219.6 366.0 L 220.8 366.0 L 222.0 366.0 L 223.2 366.0 L 224.3 366.0 L 225.4 366.0 L 226.6 365.9 L 228.0 366.0 L 229.2 366.0 L 230.3 366.0 L 231.5 365.9 L 232.6 365.9 L 233.8 232.1 L 235.1 366.0 L 236.2 366.0 L 237.4 366.0 L 238.6 366.0 L 239.7 366.0 L 240.9 366.0 L 242.1 357.1 L 243.2 366.0 L 244.4 366.0 L 245.5 366.0 L 246.7 366.0 L 247.8 366.0 L 249.1 366.0 L 250.2 280.4 L 251.4 366.0 L 252.5 366.0 L 253.7 366.0 L 254.8 366.0 L 256.0 366.0 L 257.2 366.0 L 258.4 338.2 L 260.4 365.9 L 261.7 365.9 L 262.9 366.0 L 264.0 366.0 L 265.1 366.0 L 266.3 366.0 L 267.4 366.0 L 268.6 366.0 L 269.7 366.0 L 270.9 366.0 L 272.0 366.0 L 273.2 366.0 L 274.3 366.0 L 275.5 366.0 L 276.6 366.0 L 277.7 323.4 L 279.0 362.1 L 280.2 366.0 L 281.3 366.0 L 282.5 366.0 L 283.6 366.0 L 284.7 366.0 L 285.9 339.2 L 287.1 366.0 L 288.2 366.0 L 289.4 366.0 L 290.6 366.0 L 291.7 299.1 L 292.8 366.0 L 294.0 366.0 L 295.1 366.0 L 296.3 366.0 L 297.4 366.0 L 298.6 272.1 L 299.7 366.0 L 300.8 366.0 L 302.0 366.0 L 303.2 366.0 L 304.3 366.0 L 305.4 315.8 L 306.6 366.0 L 307.7 366.0 L 308.9 366.0 L 310.0 366.0 L 311.2 366.0 L 312.3 366.0 L 313.4 319.6 L 314.6 366.0 L 315.7 366.0 L 317.0 365.9 L 318.1 365.9 L 319.3 366.0 L 320.4 359.8 L 321.5 366.0 L 322.7 366.0 L 323.8 366.0 L 325.0 366.0 L 326.1 366.0 L 327.3 366.0 L 328.4 366.0 L 329.6 366.0 L 330.7 366.0 L 331.9 366.0 L 333.0 366.0 L 334.2 366.0 L 335.3 366.0 L 336.5 366.0 L 337.6 250.6 L 338.8 366.0 L 339.9 366.0 L 341.1 366.0 L 342.2 366.0 L 343.4 366.0 L 344.5 366.0 L 345.7 365.9 L 346.9 365.9 L 348.1 366.0 L 349.2 366.0 L 350.4 366.0 L 351.5 366.0 L 352.7 366.0 L 353.9 366.0 L 355.0 366.0 L 356.2 366.0 L 357.4 354.3 L 358.6 366.0 L 359.7 366.0 L 360.8 366.0 L 362.0 366.0 L 363.2 366.0 L 364.3 238.8 L 365.5 366.0 L 366.6 366.0 L 367.8 366.0 L 369.0 366.0 L 370.1 366.0 L 371.3 366.0 L 372.5 366.0 L 373.6 366.0 L 374.8 366.0 L 375.9 366.0 L 377.1 294.2 L 378.2 366.0 L 379.5 366.0 L 380.6 366.0 L 381.8 366.0 L 382.9 366.0 L 384.1 315.1 L 385.2 366.0 L 386.4 366.0 L 387.6 366.0 L 388.7 366.0 L 389.9 366.0 L 391.0 366.0 L 392.1 316.2 L 393.3 366.0 L 394.4 366.0 L 395.6 366.0 L 396.8 366.0 L 398.0 366.0 L 399.1 366.0 L 400.3 366.0 L 401.4 366.0 L 402.6 365.9 L 403.7 365.9 L 404.9 366.0 L 406.1 366.0 L 407.3 332.5 L 408.4 366.0 L 409.6 366.0 L 410.7 366.0 L 411.9 366.0 L 413.0 366.0 L 414.2 366.0 L 415.4 366.0 L 416.6 366.0 L 417.7 366.0 L 418.8 366.0 L 420.0 366.0 L 421.1 366.0 L 422.3 366.0 L 423.5 366.0 L 424.6 232.1 L 425.9 366.0 L 427.0 366.0 L 428.2 366.0 L 429.3 366.0 L 430.5 366.0 L 431.7 366.0 L 432.8 366.0 L 434.0 232.1 L 435.1 358.6 L 436.3 366.0 L 437.4 366.0 L 438.6 366.0 L 439.8 366.0 L 440.9 366.0 L 442.1 366.0 L 443.2 283.1 L 444.4 366.0 L 445.6 366.0 L 446.7 366.0 L 447.9 366.0 L 449.0 235.0 L 450.2 366.0 L 451.3 366.0 L 452.5 366.0 L 453.6 366.0 L 454.8 314.3 L 456.1 366.0 L 457.2 366.0 L 458.4 366.0 L 459.5 365.9 L 460.7 365.9 L 461.8 237.9 L 463.0 366.0 L 464.3 366.0 L 465.4 366.0 L 466.6 366.0 L 467.7 366.0 L 468.9 313.2 L 470.0 366.0 L 471.2 366.0 L 472.4 366.0 L 473.5 366.0 L 474.7 366.0 L 475.8 232.1 L 477.0 366.0 L 478.1 366.0 L 479.3 366.0 L 480.5 366.0 L 481.6 366.0 L 482.8 319.5 L 483.9 366.0 L 485.1 366.0 L 486.2 366.0 L 487.4 366.0 L 488.6 365.9 L 489.8 366.0 L 490.9 232.8 L 492.1 366.0 L 493.2 366.0 L 494.4 366.0 L 495.5 366.0 L 496.7 366.0 L 497.9 366.0 L 499.0 232.1 L 500.2 366.0 L 501.3 366.0 L 502.5 366.0 L 503.6 366.0 L 504.8 366.0 L 505.9 366.0 L 507.1 344.0 L 508.3 366.0 L 509.4 366.0 L 510.6 366.0 L 511.7 366.0 L 512.9 366.0 L 514.0 366.0 L 515.2 366.0 L 516.4 232.1 L 517.6 365.9 L 518.8 366.0 L 519.9 366.0 L 521.0 366.0 L 522.2 365.9 L 524.1 366.0 L 525.3 366.0 L 526.4 362.3 L 527.6 366.0 L 528.8 366.0 L 529.9 366.0 L 531.1 366.0 L 532.3 366.0 L 533.4 270.0 L 534.5 366.0 L 535.7 366.0 L 536.8 366.0 L 538.0 366.0 L 539.2 248.9 L 540.3 366.0 L 541.5 366.0 L 542.6 366.0 L 543.8 366.0 L 544.9 365.9 L 546.1 365.9 L 547.2 366.0 L 548.4 366.0 L 549.6 366.0 L 550.7 366.0 L 551.9 232.1 L 553.0 366.0 L 554.2 366.0 L 555.3 366.0 L 556.5 366.0 L 557.7 366.0 L 558.8 274.9 L 560.0 366.0 L 561.1 366.0 L 562.3 366.0 L 563.4 366.0 L 564.6 366.0 L 565.7 232.1 L 566.9 366.0 L 568.1 366.0 L 569.2 366.0 L 570.4 366.0 L 571.5 365.9 L 573.5 250.9 L 574.6 365.9 L 575.8 366.0 L 577.0 366.0 L 578.1 366.0 L 579.3 366.0 L 580.5 366.0 L 581.7 360.7 L 582.8 366.0 L 584.0 366.0 L 585.1 366.0 L 586.3 366.0 L 587.4 366.0 L 588.6 366.0 L 589.8 314.2 L 590.9 366.0 L 592.1 366.0 L 593.2 366.0 L 594.4 366.0 L 595.5 366.0 L 596.7 366.0 L 597.9 274.2 L 599.0 366.0 L 600.2 366.0 L 601.3 366.0 L 602.5 366.0 L 603.7 366.0 L 604.9 366.0 L 606.0 366.0 L 607.2 234.9 L 608.3 366.0 L 609.5 366.0 L 610.7 366.0 L 611.8 366.0 L 613.0 366.0 L 614.1 366.0 L 615.3 366.0 L 616.5 232.2 L 617.6 366.0 L 618.8 366.0 L 619.9 366.0 L 621.1 366.0 L 622.3 366.0 L 623.4 269.5 L 624.6 366.0 L 625.8 366.0 L 626.9 366.0 L 628.0 366.0 L 629.3 323.9 L 630.5 366.0 L 631.8 366.0 L 632.9 366.0 L 634.1 366.0 L 635.3 275.0 L 636.5 366.0 L 637.7 366.0 L 638.9 366.0 L 640.0 366.0 L 641.2 362.1 L 642.3 366.0 L 643.5 366.0 L 644.7 366.0 L 645.8 366.0 L 647.0 366.0 L 648.2 253.7 L 649.3 366.0 L 650.5 366.0 L 651.6 366.0 L 652.8 366.0 L 653.9 366.0 L 655.1 316.6 L 656.2 366.0 L 657.4 366.0 L 658.5 365.9 L 659.7 365.9 L 660.9 366.0 L 662.0 366.0 L 663.2 315.4 L 664.3 366.0 L 665.5 366.0 L 666.6 366.0 L 667.8 366.0 L 669.0 366.0 L 670.1 366.0 L 671.3 366.0 L 672.4 366.0 L 673.6 366.0 L 674.7 366.0 L 675.9 366.0 L 677.0 366.0 L 678.2 366.0 L 679.3 360.5 L 680.5 366.0 L 681.6 366.0 L 682.8 366.0 L 683.9 366.0 L 685.1 366.0 L 686.3 366.0 L 687.5 232.1 L 688.7 365.9 L 689.9 366.0 L 691.1 366.0 L 692.3 366.0 L 693.4 366.0 L 694.6 366.0 L 695.7 366.0 L 696.9 357.6 L 698.1 366.0 L 699.2 366.0 L 700.4 366.0 L 701.5 366.0 L 702.7 366.0 L 703.8 366.0 L 705.0 366.0 L 706.2 290.6 L 707.3 358.5 L 708.5 366.0 L 709.6 366.0 L 710.8 366.0 L 712.0 366.0 L 713.1 366.0 L 714.2 232.1 L 715.4 365.9 L 716.6 366.0 L 717.8 366.0 L 719.0 366.0 L 720.1 232.1 L 721.3 366.0 L 722.4 366.0 L 723.6 366.0 L 724.8 366.0 L 725.9 366.0 L 727.0 366.0 L 728.2 366.0 L 729.3 366.0 L 730.5 366.0 L 731.7 366.0 L 732.8 290.1 L 734.0 366.0 L 735.2 366.0 L 736.3 366.0 L 737.5 366.0 L 738.6 366.0 L 739.8 250.9 L 740.9 366.0 L 742.1 366.0 L 743.2 366.0 L 744.4 365.9 L 745.6 365.9 L 746.8 353.8 L 747.9 366.0 L 749.1 366.0 L 750.2 366.0 L 751.4 366.0 L 752.5 366.0 L 753.7 366.0 L 754.9 232.1 L 756.0 366.0 L 757.2 366.0 L 758.3 366.0 L 759.5 366.0 L 760.6 366.0 L 761.8 366.0 L 763.0 236.0 L 764.1 366.0 L 765.3 366.0 L 766.4 366.0 L 767.6 366.0 L 768.7 366.0 L 769.9 366.0 L 771.1 264.0 L 772.2 366.0 L 773.4 366.0 L 774.5 366.0 L 775.7 366.0 L 776.8 366.0 L 778.0 366.0 L 779.2 366.0 L 780.3 314.8 L 781.5 366.0 L 782.6 366.0 L 783.8 366.0 L 785.0 366.0 L 786.1 366.0 L 787.3 366.0 L 788.4 366.0 L 789.7 366.0 L 790.8 366.0 L 792.0 366.0 L 793.1 366.0 L 794.2 366.0 L 795.4 366.0 L 796.6 366.0 L 797.7 366.0 L 798.9 302.1 L 800.0 360.9 L 801.2 365.9 L 802.4 365.8 L 803.5 366.0 L 804.7 366.0 L 805.9 366.0 L 807.0 366.0 L 808.2 366.0 L 809.3 366.0 L 810.5 366.0 L 811.7 316.2 L 812.8 366.0 L 814.0 366.0 L 815.1 366.0 L 816.2 366.0 L 817.4 316.3 L 818.5 366.0 L 819.7 366.0 L 820.9 366.0 L 822.1 366.0 L 823.2 366.0 L 824.4 234.7 L 825.6 366.0 L 826.7 366.0 L 827.9 366.0 L 829.0 366.0 L 830.3 366.0 L 831.4 232.1 L 832.6 366.0 L 833.7 366.0 L 834.9 366.0 L 836.0 366.0 L 837.2 366.0 L 838.4 324.5 L 839.6 366.0 L 840.7 366.0 L 841.8 366.0 L 843.0 366.0 L 844.2 366.0 L 845.3 366.0 L 846.6 252.0 L 847.8 366.0 L 848.9 366.0 L 850.1 366.0 L 851.2 366.0 L 852.4 366.0 L 853.5 366.0 L 854.8 303.0 L 856.0 366.0 L 857.1 366.0 L 858.3 365.9 L 859.4 365.8 L 860.6 366.0 L 861.8 366.0 L 862.9 244.9 L 864.1 366.0 L 865.2 366.0 L 866.4 366.0 L 867.5 366.0 L 868.7 366.0 L 869.8 366.0 L 871.0 366.0 L 872.2 276.4 L 873.3 366.0 L 874.5 366.0 L 875.6 366.0 L 876.8 366.0 L 877.9 366.0 L 879.2 366.0 L 880.3 366.0 L 881.5 290.4 L 882.6 358.5 L 883.8 366.0 L 884.9 366.0 L 886.1 366.0 L 887.3 366.0 L 888.4 366.0 L 889.6 366.0 L 890.7 232.1 L 891.9 366.0 L 893.0 366.0 L 894.2 366.0 L 895.4 366.0 L 896.6 232.1 L 897.8 366.0 L 898.9 366.0 L 900.1 366.0 L 901.2 366.0 L 902.4 299.9 L 903.7 366.0 L 904.8 366.0 L 906.0 366.0 L 907.1 366.0 L 908.3 366.0 L 909.4 306.3 L 910.6 366.0 L 911.8 366.0 L 912.9 366.0 L 914.1 366.0 L 915.2 365.9 L 916.4 315.6 L 917.5 366.0 L 918.7 366.0 L 919.9 366.0 L 921.1 366.0 L 922.2 366.0 L 923.4 234.4 L 924.5 366.0 L 925.6 366.0 L 926.8 366.0 L 928.0 366.0 L 929.2 366.0 L 930.3 366.0 L 931.5 366.0 L 932.7 366.0 L 933.8 366.0 L 934.9 366.0 L 936.2 366.0 L 937.3 366.0 L 938.5 314.3 L 939.6 366.0 L 940.8 366.0 L 941.9 366.0 L 943.1 366.0 L 944.3 366.0 L 945.5 366.0 L 946.6 340.1 L 947.8 366.0 L 948.9 365.7 L 951.5 366.0 L 952.6 366.0 L 953.8 366.0 L 954.9 366.0 L 956.1 366.0 L 957.2 366.0 L 958.4 366.0 L 959.5 366.0 L 960.7 366.0 L 961.8 366.0 L 963.0 366.0 L 964.1 366.0 L 965.3 366.0 L 966.4 366.0 L 967.6 366.0 L 968.8 366.0 L 969.9 366.0 L 971.1 366.0 L 972.2 365.9 L 973.4 365.8 L 974.6 346.4 L 975.7 366.0 L 976.9 366.0 L 978.1 366.0 L 979.2 366.0 L 980.4 366.0 L 981.5 366.0 L 982.6 366.0 L 983.8 366.0 L 985.1 366.0 L 986.2 366.0 L 987.3 366.0 L 988.5 366.0 L 989.6 366.0 L 990.8 366.0 L 992.0 366.0 L 993.2 313.3 L 994.3 366.0 L 995.5 366.0 L 996.7 366.0 L 997.8 366.0 L 999.0 366.0 L 1000.1 365.9 L 1001.5 366.0 L 1002.7 366.0 L 1003.8 366.0 L 1005.0 366.0 L 1006.1 232.1 L 1007.3 366.0 L 1008.4 366.0 L 1009.6 366.0 L 1010.7 366.0 L 1011.9 366.0 L 1013.0 271.1 L 1014.2 366.0 L 1015.3 366.0 L 1016.5 366.0 L 1017.7 366.0 L 1018.8 366.0 L 1020.0 366.0 L 1021.1 352.9 L 1022.5 366.0 L 1023.7 366.0 L 1024.8 366.0 L 1026.0 366.0 L 1027.1 366.0 L 1028.3 325.2 L 1029.4 365.9 L 1030.6 365.9 L 1031.8 366.0 L 1033.0 366.0 L 1034.1 366.0 L 1035.3 366.0 L 1036.4 366.0 L 1037.6 366.0 L 1038.7 366.0 L 1039.9 366.0 L 1041.1 366.0 L 1042.2 366.0 L 1043.4 366.0 L 1044.5 366.0 L 1045.6 252.0 L 1046.8 366.0 L 1047.9 366.0 L 1049.1 366.0 L 1050.3 366.0 L 1051.5 366.0 L 1052.6 366.0 L 1053.8 366.0 L 1054.9 334.7 L 1056.0 366.0 L 1057.2 366.0 L 1058.5 366.0 L 1059.6 366.0 L 1060.8 366.0 L 1061.9 366.0 L 1063.1 366.0 L 1064.2 302.4 L 1065.4 366.0 L 1066.7 366.0 L 1067.8 366.0 L 1069.0 299.0 L 1070.1 365.9 L 1071.3 365.9 L 1072.4 365.9 L 1073.6 365.9 L 1074.9 366.0 L 1076.0 366.0" fill="none" stroke="#4C78A8" stroke-width="2.8" stroke-linejoin="round" stroke-linecap="round"/>
<path d="M 86.0 366.0 L 87.1 366.0 L 88.3 366.0 L 89.4 366.0 L 90.6 366.0 L 91.7 366.0 L 92.9 366.0 L 94.0 366.0 L 95.2 366.0 L 96.3 365.9 L 97.4 366.0 L 98.6 318.3 L 99.7 121.5 L 101.0 89.6 L 102.3 204.6 L 103.5 365.8 L 104.6 366.0 L 105.8 365.9 L 106.9 365.9 L 108.1 365.9 L 109.2 365.9 L 110.4 365.9 L 111.5 365.9 L 112.7 365.9 L 113.9 365.9 L 115.1 365.9 L 116.2 365.9 L 117.4 365.8 L 118.5 365.8 L 119.7 365.9 L 120.9 365.9 L 122.1 365.9 L 123.3 365.9 L 124.5 365.9 L 125.6 365.9 L 126.9 365.9 L 128.0 365.9 L 129.2 365.9 L 130.3 365.9 L 131.5 365.9 L 132.6 365.9 L 133.8 365.9 L 135.0 365.9 L 136.2 365.9 L 137.3 365.9 L 138.4 365.9 L 139.6 365.9 L 140.7 365.9 L 141.9 365.9 L 143.1 365.9 L 144.3 365.9 L 145.4 365.9 L 146.6 365.9 L 147.7 365.9 L 148.9 365.9 L 150.0 365.9 L 151.2 365.9 L 152.3 365.9 L 153.5 365.9 L 154.7 365.9 L 155.8 365.9 L 157.0 365.9 L 158.1 365.9 L 159.3 365.9 L 160.4 365.9 L 161.6 365.9 L 162.8 365.9 L 163.9 365.9 L 165.1 365.9 L 166.2 365.9 L 167.4 365.9 L 168.5 365.9 L 169.7 365.9 L 170.9 366.0 L 172.1 365.9 L 173.2 365.9 L 174.4 365.8 L 175.5 365.9 L 176.7 365.9 L 177.9 365.9 L 179.1 365.9 L 180.2 365.9 L 181.4 365.9 L 182.6 365.9 L 183.7 365.9 L 184.8 365.9 L 186.1 365.9 L 187.2 365.9 L 188.4 365.9 L 189.5 365.9 L 190.7 365.9 L 191.8 365.9 L 193.0 365.9 L 194.2 365.9 L 195.3 365.9 L 196.5 365.9 L 197.6 365.9 L 198.8 365.9 L 199.9 365.9 L 201.1 365.9 L 202.2 365.9 L 203.5 365.9 L 204.6 365.9 L 205.8 365.9 L 206.9 365.9 L 208.1 365.9 L 209.2 365.9 L 210.4 365.9 L 211.5 365.9 L 212.7 365.9 L 213.9 365.9 L 215.0 365.9 L 216.2 365.9 L 217.3 365.9 L 218.5 365.9 L 219.6 365.9 L 220.8 365.9 L 222.0 365.9 L 223.2 365.9 L 224.3 365.9 L 225.4 365.9 L 226.6 365.9 L 228.0 365.9 L 229.2 365.9 L 230.3 365.9 L 231.5 365.9 L 232.6 365.9 L 233.8 365.9 L 235.1 365.9 L 236.2 365.9 L 237.4 365.9 L 238.6 365.9 L 239.7 365.9 L 240.9 365.9 L 242.1 365.9 L 243.2 365.9 L 244.4 365.9 L 245.5 365.9 L 246.7 365.9 L 247.8 365.9 L 249.1 365.9 L 250.2 365.9 L 251.4 365.9 L 252.5 365.9 L 253.7 365.9 L 254.8 365.9 L 256.0 365.9 L 257.2 365.9 L 258.4 365.8 L 260.4 365.9 L 261.7 365.9 L 262.9 365.9 L 264.0 365.9 L 265.1 365.9 L 266.3 365.9 L 267.4 365.9 L 268.6 365.9 L 269.7 365.9 L 270.9 365.9 L 272.0 365.9 L 273.2 365.9 L 274.3 365.9 L 275.5 365.9 L 276.6 365.9 L 277.7 366.0 L 279.0 163.9 L 280.2 365.9 L 281.3 365.9 L 282.5 365.9 L 283.6 365.9 L 284.7 365.9 L 285.9 365.9 L 287.1 365.9 L 288.2 365.9 L 289.4 365.8 L 290.6 365.9 L 291.7 365.9 L 292.8 365.9 L 294.0 365.9 L 295.1 365.9 L 296.3 365.9 L 297.4 365.9 L 298.6 365.9 L 299.7 365.9 L 300.8 365.9 L 302.0 365.9 L 303.2 365.9 L 304.3 365.9 L 305.4 365.9 L 306.6 365.9 L 307.7 365.9 L 308.9 365.9 L 310.0 365.9 L 311.2 365.9 L 312.3 365.9 L 313.4 365.9 L 314.6 365.9 L 315.7 365.9 L 317.0 365.9 L 318.1 365.9 L 319.3 365.9 L 320.4 365.9 L 321.5 365.9 L 322.7 365.9 L 323.8 365.9 L 325.0 365.9 L 326.1 365.9 L 327.3 365.9 L 328.4 365.9 L 329.6 365.9 L 330.7 365.9 L 331.9 365.9 L 333.0 365.9 L 334.2 365.9 L 335.3 365.9 L 336.5 365.9 L 337.6 365.9 L 338.8 365.9 L 339.9 365.9 L 341.1 365.9 L 342.2 365.9 L 343.4 365.9 L 344.5 365.9 L 345.7 365.9 L 346.9 365.9 L 348.1 365.9 L 349.2 365.9 L 350.4 365.9 L 351.5 365.9 L 352.7 365.9 L 353.9 365.9 L 355.0 365.9 L 356.2 366.0 L 357.4 264.2 L 358.6 365.9 L 359.7 365.9 L 360.8 365.9 L 362.0 365.9 L 363.2 365.9 L 364.3 365.9 L 365.5 365.9 L 366.6 365.9 L 367.8 365.9 L 369.0 365.9 L 370.1 365.9 L 371.3 365.9 L 372.5 365.9 L 373.6 365.9 L 374.8 365.8 L 375.9 365.9 L 377.1 365.9 L 378.2 365.9 L 379.5 365.9 L 380.6 365.9 L 381.8 365.9 L 382.9 365.9 L 384.1 365.9 L 385.2 365.9 L 386.4 365.9 L 387.6 365.9 L 388.7 365.9 L 389.9 365.9 L 391.0 365.9 L 392.1 365.9 L 393.3 365.9 L 394.4 365.9 L 395.6 365.9 L 396.8 365.9 L 398.0 365.9 L 399.1 365.9 L 400.3 365.9 L 401.4 365.9 L 402.6 365.9 L 403.7 365.9 L 404.9 365.9 L 406.1 365.9 L 407.3 365.9 L 408.4 365.9 L 409.6 365.9 L 410.7 365.9 L 411.9 365.9 L 413.0 365.9 L 414.2 365.9 L 415.4 365.9 L 416.6 365.9 L 417.7 365.9 L 418.8 365.9 L 420.0 365.9 L 421.1 365.9 L 422.3 365.9 L 423.5 365.9 L 424.6 365.9 L 425.9 365.9 L 427.0 365.9 L 428.2 365.9 L 429.3 365.9 L 430.5 365.9 L 431.7 365.8 L 432.8 365.9 L 434.0 366.0 L 435.1 365.9 L 436.3 365.9 L 437.4 365.9 L 438.6 366.0 L 439.8 366.0 L 440.9 366.0 L 442.1 366.0 L 443.2 365.9 L 444.4 365.9 L 445.6 365.9 L 446.7 365.9 L 447.9 365.9 L 449.0 365.9 L 450.2 365.9 L 451.3 365.9 L 452.5 365.9 L 453.6 365.9 L 454.8 365.9 L 456.1 365.9 L 457.2 365.9 L 458.4 365.9 L 459.5 365.9 L 460.7 365.9 L 461.8 365.9 L 463.0 365.9 L 464.3 365.9 L 465.4 365.9 L 466.6 365.9 L 467.7 365.9 L 468.9 365.9 L 470.0 365.9 L 471.2 365.9 L 472.4 365.9 L 473.5 365.9 L 474.7 365.9 L 475.8 365.9 L 477.0 365.9 L 478.1 365.9 L 479.3 365.9 L 480.5 365.9 L 481.6 365.9 L 482.8 365.9 L 483.9 365.9 L 485.1 365.9 L 486.2 365.9 L 487.4 365.9 L 488.6 365.9 L 489.8 365.9 L 490.9 365.9 L 492.1 365.9 L 493.2 365.9 L 494.4 365.9 L 495.5 365.9 L 496.7 365.9 L 497.9 365.9 L 499.0 365.9 L 500.2 365.9 L 501.3 365.9 L 502.5 365.9 L 503.6 365.9 L 504.8 365.9 L 505.9 365.9 L 507.1 365.9 L 508.3 365.9 L 509.4 365.9 L 510.6 365.9 L 511.7 365.9 L 512.9 365.9 L 514.0 365.9 L 515.2 365.9 L 516.4 365.9 L 517.6 365.9 L 518.8 365.9 L 519.9 365.9 L 521.0 365.9 L 522.2 365.9 L 524.1 365.9 L 525.3 366.0 L 526.4 365.9 L 527.6 365.9 L 528.8 365.9 L 529.9 365.9 L 531.1 365.9 L 532.3 365.9 L 533.4 365.9 L 534.5 365.9 L 535.7 365.9 L 536.8 365.9 L 538.0 365.9 L 539.2 365.9 L 540.3 365.9 L 541.5 365.9 L 542.6 365.9 L 543.8 365.9 L 544.9 365.9 L 546.1 365.9 L 547.2 365.9 L 548.4 365.9 L 549.6 365.9 L 550.7 365.9 L 551.9 365.9 L 553.0 365.9 L 554.2 365.9 L 555.3 365.9 L 556.5 365.9 L 557.7 365.9 L 558.8 365.9 L 560.0 365.9 L 561.1 365.9 L 562.3 365.9 L 563.4 365.9 L 564.6 365.9 L 565.7 365.9 L 566.9 365.9 L 568.1 365.9 L 569.2 365.9 L 570.4 365.9 L 571.5 365.9 L 573.5 365.9 L 574.6 365.9 L 575.8 365.9 L 577.0 365.9 L 578.1 365.9 L 579.3 365.9 L 580.5 365.9 L 581.7 365.9 L 582.8 365.9 L 584.0 365.9 L 585.1 365.9 L 586.3 365.9 L 587.4 365.9 L 588.6 365.9 L 589.8 365.9 L 590.9 365.9 L 592.1 365.9 L 593.2 365.9 L 594.4 365.9 L 595.5 365.9 L 596.7 365.9 L 597.9 365.9 L 599.0 365.9 L 600.2 365.9 L 601.3 365.9 L 602.5 365.9 L 603.7 365.9 L 604.9 365.9 L 606.0 365.9 L 607.2 365.9 L 608.3 365.9 L 609.5 365.9 L 610.7 365.9 L 611.8 365.9 L 613.0 365.9 L 614.1 365.9 L 615.3 366.0 L 616.5 365.9 L 617.6 365.9 L 618.8 365.9 L 619.9 365.9 L 621.1 365.9 L 622.3 365.9 L 623.4 365.9 L 624.6 365.9 L 625.8 365.9 L 626.9 365.9 L 628.0 365.9 L 629.3 365.9 L 630.5 365.9 L 631.8 365.9 L 632.9 365.9 L 634.1 365.9 L 635.3 365.9 L 636.5 365.9 L 637.7 365.9 L 638.9 365.9 L 640.0 365.9 L 641.2 365.9 L 642.3 365.9 L 643.5 365.9 L 644.7 365.9 L 645.8 365.9 L 647.0 365.9 L 648.2 365.9 L 649.3 365.9 L 650.5 365.9 L 651.6 365.9 L 652.8 365.9 L 653.9 365.9 L 655.1 365.9 L 656.2 365.9 L 657.4 365.9 L 658.5 365.9 L 659.7 365.9 L 660.9 365.9 L 662.0 365.9 L 663.2 365.9 L 664.3 365.9 L 665.5 365.9 L 666.6 365.9 L 667.8 365.9 L 669.0 365.9 L 670.1 365.9 L 671.3 365.9 L 672.4 365.9 L 673.6 365.9 L 674.7 365.9 L 675.9 365.9 L 677.0 365.9 L 678.2 365.9 L 679.3 365.9 L 680.5 365.9 L 681.6 365.9 L 682.8 365.9 L 683.9 365.9 L 685.1 365.9 L 686.3 365.9 L 687.5 365.9 L 688.7 365.9 L 689.9 365.9 L 691.1 365.9 L 692.3 365.9 L 693.4 365.9 L 694.6 365.9 L 695.7 365.9 L 696.9 365.9 L 698.1 365.9 L 699.2 365.9 L 700.4 365.9 L 701.5 365.9 L 702.7 365.9 L 703.8 365.9 L 705.0 365.9 L 706.2 366.0 L 707.3 365.9 L 708.5 365.9 L 709.6 365.9 L 710.8 365.9 L 712.0 365.9 L 713.1 365.9 L 714.2 365.9 L 715.4 365.9 L 716.6 365.9 L 717.8 365.9 L 719.0 365.9 L 720.1 365.9 L 721.3 365.9 L 722.4 365.9 L 723.6 365.9 L 724.8 365.9 L 725.9 365.9 L 727.0 365.9 L 728.2 365.9 L 729.3 365.9 L 730.5 365.9 L 731.7 365.9 L 732.8 365.9 L 734.0 365.9 L 735.2 365.9 L 736.3 365.9 L 737.5 365.9 L 738.6 365.9 L 739.8 365.9 L 740.9 365.9 L 742.1 365.9 L 743.2 365.9 L 744.4 365.9 L 745.6 365.9 L 746.8 365.9 L 747.9 365.9 L 749.1 365.9 L 750.2 365.9 L 751.4 365.9 L 752.5 365.9 L 753.7 365.9 L 754.9 365.9 L 756.0 365.9 L 757.2 365.9 L 758.3 365.9 L 759.5 365.9 L 760.6 365.9 L 761.8 365.9 L 763.0 365.9 L 764.1 365.9 L 765.3 365.9 L 766.4 365.9 L 767.6 365.9 L 768.7 365.9 L 769.9 365.9 L 771.1 365.9 L 772.2 365.9 L 773.4 365.8 L 774.5 365.9 L 775.7 365.9 L 776.8 365.9 L 778.0 365.9 L 779.2 365.9 L 780.3 365.9 L 781.5 365.9 L 782.6 365.9 L 783.8 365.9 L 785.0 365.9 L 786.1 365.9 L 787.3 365.9 L 788.4 365.9 L 789.7 365.9 L 790.8 365.9 L 792.0 365.9 L 793.1 365.9 L 794.2 365.9 L 795.4 365.9 L 796.6 365.9 L 797.7 365.9 L 798.9 366.0 L 800.0 365.9 L 801.2 365.9 L 802.4 365.9 L 803.5 365.9 L 804.7 365.9 L 805.9 365.9 L 807.0 365.9 L 808.2 365.9 L 809.3 365.9 L 810.5 365.9 L 811.7 365.9 L 812.8 365.9 L 814.0 365.9 L 815.1 365.9 L 816.2 365.9 L 817.4 365.9 L 818.5 365.9 L 819.7 365.9 L 820.9 365.9 L 822.1 365.9 L 823.2 365.9 L 824.4 365.9 L 825.6 365.9 L 826.7 365.9 L 827.9 365.9 L 829.0 365.9 L 830.3 365.8 L 831.4 365.9 L 832.6 365.9 L 833.7 365.9 L 834.9 365.9 L 836.0 365.9 L 837.2 365.9 L 838.4 365.9 L 839.6 365.9 L 840.7 365.9 L 841.8 365.9 L 843.0 365.9 L 844.2 365.9 L 845.3 365.9 L 846.6 365.9 L 847.8 365.9 L 848.9 365.9 L 850.1 365.9 L 851.2 365.9 L 852.4 365.9 L 853.5 365.9 L 854.8 365.9 L 856.0 365.9 L 857.1 365.9 L 858.3 365.9 L 859.4 365.9 L 860.6 365.9 L 861.8 365.9 L 862.9 365.9 L 864.1 365.9 L 865.2 365.9 L 866.4 365.9 L 867.5 365.9 L 868.7 365.9 L 869.8 365.9 L 871.0 365.9 L 872.2 365.9 L 873.3 365.9 L 874.5 365.9 L 875.6 365.9 L 876.8 365.9 L 877.9 365.9 L 879.2 365.9 L 880.3 365.9 L 881.5 366.0 L 882.6 365.9 L 883.8 365.9 L 884.9 365.9 L 886.1 365.9 L 887.3 365.8 L 888.4 366.0 L 889.6 366.0 L 890.7 365.9 L 891.9 365.9 L 893.0 365.9 L 894.2 365.9 L 895.4 365.9 L 896.6 365.9 L 897.8 365.9 L 898.9 365.9 L 900.1 365.9 L 901.2 365.9 L 902.4 365.9 L 903.7 365.9 L 904.8 365.9 L 906.0 365.9 L 907.1 365.9 L 908.3 365.9 L 909.4 365.9 L 910.6 365.9 L 911.8 365.9 L 912.9 365.9 L 914.1 365.9 L 915.2 365.9 L 916.4 365.9 L 917.5 365.9 L 918.7 365.9 L 919.9 365.9 L 921.1 365.9 L 922.2 365.9 L 923.4 365.9 L 924.5 365.9 L 925.6 365.9 L 926.8 365.9 L 928.0 365.9 L 929.2 365.9 L 930.3 365.9 L 931.5 365.9 L 932.7 365.9 L 933.8 365.9 L 934.9 365.9 L 936.2 365.9 L 937.3 365.9 L 938.5 365.9 L 939.6 365.9 L 940.8 365.9 L 941.9 365.9 L 943.1 365.9 L 944.3 365.8 L 945.5 365.9 L 946.6 365.9 L 947.8 365.9 L 948.9 365.9 L 951.5 365.9 L 952.6 365.9 L 953.8 365.9 L 954.9 365.9 L 956.1 365.9 L 957.2 365.9 L 958.4 365.9 L 959.5 365.9 L 960.7 365.9 L 961.8 365.9 L 963.0 365.9 L 964.1 365.9 L 965.3 365.9 L 966.4 365.9 L 967.6 365.9 L 968.8 365.9 L 969.9 365.9 L 971.1 365.9 L 972.2 365.9 L 973.4 365.9 L 974.6 365.9 L 975.7 365.9 L 976.9 365.9 L 978.1 365.9 L 979.2 365.9 L 980.4 365.9 L 981.5 365.9 L 982.6 365.9 L 983.8 365.9 L 985.1 365.9 L 986.2 365.9 L 987.3 365.9 L 988.5 365.9 L 989.6 365.9 L 990.8 365.9 L 992.0 365.9 L 993.2 365.9 L 994.3 365.9 L 995.5 365.9 L 996.7 365.9 L 997.8 365.9 L 999.0 365.9 L 1000.1 365.9 L 1001.5 365.8 L 1002.7 365.9 L 1003.8 365.9 L 1005.0 365.9 L 1006.1 365.9 L 1007.3 365.9 L 1008.4 365.9 L 1009.6 365.9 L 1010.7 365.9 L 1011.9 365.9 L 1013.0 365.9 L 1014.2 365.9 L 1015.3 365.9 L 1016.5 365.9 L 1017.7 365.9 L 1018.8 365.9 L 1020.0 365.9 L 1021.1 365.9 L 1022.5 365.9 L 1023.7 365.9 L 1024.8 365.9 L 1026.0 365.9 L 1027.1 365.9 L 1028.3 365.9 L 1029.4 365.9 L 1030.6 365.9 L 1031.8 365.9 L 1033.0 365.9 L 1034.1 365.9 L 1035.3 365.9 L 1036.4 365.9 L 1037.6 365.9 L 1038.7 365.9 L 1039.9 365.9 L 1041.1 365.9 L 1042.2 365.9 L 1043.4 365.9 L 1044.5 365.9 L 1045.6 365.9 L 1046.8 365.9 L 1047.9 365.9 L 1049.1 365.9 L 1050.3 365.9 L 1051.5 365.9 L 1052.6 365.9 L 1053.8 365.9 L 1054.9 365.9 L 1056.0 365.9 L 1057.2 365.9 L 1058.5 365.8 L 1059.6 365.9 L 1060.8 365.9 L 1061.9 365.9 L 1063.1 365.9 L 1064.2 365.9 L 1065.4 365.9 L 1066.7 365.9 L 1067.8 365.9 L 1069.0 365.8 L 1070.1 365.8 L 1071.3 365.8 L 1072.4 365.8 L 1073.6 365.8 L 1074.9 366.0 L 1076.0 366.0" fill="none" stroke="#F58518" stroke-width="2.8" stroke-linejoin="round" stroke-linecap="round"/>
<line x1="89.9" y1="62.0" x2="89.9" y2="366.0" stroke="#666" stroke-dasharray="4 4" stroke-width="1.2"/>
<text x="89.9" y="402.0" text-anchor="middle" font-size="12" fill="#444" font-family="Helvetica, Arial, sans-serif">submit</text>
<line x1="1075.3" y1="62.0" x2="1075.3" y2="366.0" stroke="#888" stroke-dasharray="4 4" stroke-width="1.2"/>
<text x="1075.3" y="402.0" text-anchor="middle" font-size="12" fill="#444" font-family="Helvetica, Arial, sans-serif">finish</text>
<line x1="86.0" y1="62.0" x2="86.0" y2="366.0" stroke="#f5f5f5" stroke-width="1"/>
<text x="86.0" y="418.0" text-anchor="middle" font-size="11" fill="#444" font-family="Helvetica, Arial, sans-serif">-0.14</text>
<line x1="209.8" y1="62.0" x2="209.8" y2="366.0" stroke="#f5f5f5" stroke-width="1"/>
<text x="209.8" y="418.0" text-anchor="middle" font-size="11" fill="#444" font-family="Helvetica, Arial, sans-serif">4.41</text>
<line x1="333.5" y1="62.0" x2="333.5" y2="366.0" stroke="#f5f5f5" stroke-width="1"/>
<text x="333.5" y="418.0" text-anchor="middle" font-size="11" fill="#444" font-family="Helvetica, Arial, sans-serif">8.97</text>
<line x1="457.2" y1="62.0" x2="457.2" y2="366.0" stroke="#f5f5f5" stroke-width="1"/>
<text x="457.2" y="418.0" text-anchor="middle" font-size="11" fill="#444" font-family="Helvetica, Arial, sans-serif">13.53</text>
<line x1="581.0" y1="62.0" x2="581.0" y2="366.0" stroke="#f5f5f5" stroke-width="1"/>
<text x="581.0" y="418.0" text-anchor="middle" font-size="11" fill="#444" font-family="Helvetica, Arial, sans-serif">18.08</text>
<line x1="704.8" y1="62.0" x2="704.8" y2="366.0" stroke="#f5f5f5" stroke-width="1"/>
<text x="704.8" y="418.0" text-anchor="middle" font-size="11" fill="#444" font-family="Helvetica, Arial, sans-serif">22.64</text>
<line x1="828.5" y1="62.0" x2="828.5" y2="366.0" stroke="#f5f5f5" stroke-width="1"/>
<text x="828.5" y="418.0" text-anchor="middle" font-size="11" fill="#444" font-family="Helvetica, Arial, sans-serif">27.20</text>
<line x1="952.2" y1="62.0" x2="952.2" y2="366.0" stroke="#f5f5f5" stroke-width="1"/>
<text x="952.2" y="418.0" text-anchor="middle" font-size="11" fill="#444" font-family="Helvetica, Arial, sans-serif">31.76</text>
<line x1="1076.0" y1="62.0" x2="1076.0" y2="366.0" stroke="#f5f5f5" stroke-width="1"/>
<text x="1076.0" y="418.0" text-anchor="middle" font-size="11" fill="#444" font-family="Helvetica, Arial, sans-serif">36.31</text>
<text x="581.0" y="386.0" text-anchor="middle" font-size="15" fill="#222" font-family="Helvetica, Arial, sans-serif">time since request submit (s)</text>
</svg>