<svg xmlns="http://www.w3.org/2000/svg" width="1100" height="420" viewBox="0 0 1100 420">
<rect width="1100" height="420" fill="white"/>
<text x="86" y="26" font-size="22" font-weight="700" font-family="Helvetica, Arial, sans-serif">tb_session_04_turn_001_reuse  phase=reuse  turn=1  prompt=24832  peak_tx=15.46 GiB/s  peak_rx=31.90 GiB/s</text>
<text x="86" y="46" font-size="13" fill="#444" font-family="Helvetica, Arial, sans-serif">response_window=17.289s, response_tx=19.748 GiB, response_rx=5.513 GiB, metrics_tx=41.777 GiB, metrics_rx=5.678 GiB</text>
<line x1="86" y1="366.0" x2="1076" y2="366.0" stroke="#ececec" stroke-width="1"/>
<text x="76" y="370.0" text-anchor="end" font-size="12" fill="#444" font-family="Helvetica, Arial, sans-serif">0.0</text>
<line x1="86" y1="305.2" x2="1076" y2="305.2" stroke="#ececec" stroke-width="1"/>
<text x="76" y="309.2" text-anchor="end" font-size="12" fill="#444" font-family="Helvetica, Arial, sans-serif">7.0</text>
<line x1="86" y1="244.4" x2="1076" y2="244.4" stroke="#ececec" stroke-width="1"/>
<text x="76" y="248.4" text-anchor="end" font-size="12" fill="#444" font-family="Helvetica, Arial, sans-serif">14.0</text>
<line x1="86" y1="183.6" x2="1076" y2="183.6" stroke="#ececec" stroke-width="1"/>
<text x="76" y="187.6" text-anchor="end" font-size="12" fill="#444" font-family="Helvetica, Arial, sans-serif">21.1</text>
<line x1="86" y1="122.8" x2="1076" y2="122.8" stroke="#ececec" stroke-width="1"/>
<text x="76" y="126.8" text-anchor="end" font-size="12" fill="#444" font-family="Helvetica, Arial, sans-serif">28.1</text>
<line x1="86" y1="62.0" x2="1076" y2="62.0" stroke="#ececec" stroke-width="1"/>
<text x="76" y="66.0" text-anchor="end" font-size="12" fill="#444" font-family="Helvetica, Arial, sans-serif">35.1</text>
<line x1="86" y1="366.0" x2="1076" y2="366.0" stroke="#222" stroke-width="1.4"/>
<line x1="86" y1="62.0" x2="86" y2="366.0" stroke="#222" stroke-width="1.4"/>
<rect x="93.8" y="62.0" width="980.6" height="304.0" fill="#F58518" opacity="0.08"/>
<path d="M 86.0 366.0 L 88.4 366.0 L 90.8 366.0 L 93.1 365.9 L 95.6 365.9 L 98.0 366.0 L 100.3 366.0 L 102.7 366.0 L 105.1 366.0 L 107.5 366.0 L 109.9 366.0 L 112.3 366.0 L 114.7 338.6 L 117.3 338.2 L 120.0 338.2 L 122.5 366.0 L 124.9 349.2 L 127.3 347.4 L 129.7 366.0 L 132.1 366.0 L 134.5 366.0 L 136.9 366.0 L 139.3 348.0 L 141.9 366.0 L 144.3 366.0 L 146.7 366.0 L 149.1 366.0 L 151.5 293.1 L 153.9 366.0 L 156.3 366.0 L 159.0 366.0 L 161.4 366.0 L 164.0 232.1 L 166.4 366.0 L 168.8 366.0 L 171.4 366.0 L 173.8 366.0 L 176.2 366.0 L 178.6 252.8 L 181.0 366.0 L 183.4 366.0 L 185.8 366.0 L 188.3 366.0 L 190.8 366.0 L 193.1 232.1 L 195.5 366.0 L 198.0 366.0 L 200.3 366.0 L 202.8 366.0 L 205.3 366.0 L 207.8 359.1 L 210.2 366.0 L 212.5 365.9 L 215.0 365.9 L 217.4 366.0 L 219.7 366.0 L 222.2 366.0 L 224.6 307.2 L 227.0 366.0 L 229.4 366.0 L 231.8 366.0 L 234.2 366.0 L 236.6 366.0 L 239.0 366.0 L 241.4 366.0 L 243.9 366.0 L 246.3 366.0 L 248.7 366.0 L 251.2 366.0 L 253.5 366.0 L 255.9 366.0 L 258.4 366.0 L 260.7 274.8 L 263.4 366.0 L 265.8 366.0 L 268.2 366.0 L 270.6 366.0 L 273.0 366.0 L 275.4 366.0 L 277.9 366.0 L 280.4 366.0 L 282.8 366.0 L 285.2 366.0 L 287.7 366.0 L 290.1 366.0 L 292.5 366.0 L 295.0 366.0 L 297.4 366.0 L 299.8 366.0 L 302.3 366.0 L 304.6 366.0 L 307.0 366.0 L 309.5 261.7 L 311.9 366.0 L 314.3 366.0 L 316.7 366.0 L 319.2 366.0 L 321.5 265.6 L 324.0 366.0 L 326.4 366.0 L 328.7 365.9 L 331.4 365.9 L 333.7 365.9 L 336.2 366.0 L 338.6 366.0 L 341.0 366.0 L 343.4 366.0 L 345.8 366.0 L 348.2 267.9 L 350.6 366.0 L 353.1 366.0 L 355.5 366.0 L 357.9 366.0 L 360.3 366.0 L 362.7 292.7 L 365.1 366.0 L 367.5 366.0 L 370.0 366.0 L 372.5 366.0 L 374.9 366.0 L 377.2 366.0 L 379.7 365.9 L 382.7 366.0 L 385.1 366.0 L 387.5 366.0 L 389.9 365.9 L 392.3 365.9 L 394.7 232.1 L 397.3 366.0 L 399.8 366.0 L 402.2 366.0 L 404.6 366.0 L 407.0 366.0 L 409.6 366.0 L 412.0 357.1 L 414.4 366.0 L 416.8 366.0 L 419.2 366.0 L 421.7 366.0 L 424.0 366.0 L 426.6 366.0 L 429.0 280.4 L 431.4 366.0 L 433.8 366.0 L 436.2 366.0 L 438.7 366.0 L 441.1 366.0 L 443.6 366.0 L 446.0 338.2 L 450.4 365.9 L 452.9 365.9 L 455.4 366.0 L 457.8 366.0 L 460.2 366.0 L 462.5 366.0 L 464.9 366.0 L 467.4 366.0 L 469.7 366.0 L 472.2 366.0 L 474.6 366.0 L 477.0 366.0 L 479.3 366.0 L 481.7 366.0 L 484.1 366.0 L 486.5 323.4 L 489.1 362.1 L 491.6 366.0 L 494.0 366.0 L 496.3 366.0 L 498.7 366.0 L 501.1 366.0 L 503.5 339.2 L 506.0 366.0 L 508.4 366.0 L 510.8 366.0 L 513.3 366.0 L 515.6 299.1 L 518.0 366.0 L 520.4 366.0 L 522.8 366.0 L 525.2 366.0 L 527.6 366.0 L 530.0 272.1 L 532.4 366.0 L 534.7 366.0 L 537.2 366.0 L 539.6 366.0 L 542.0 366.0 L 544.3 315.8 L 546.8 366.0 L 549.2 366.0 L 551.5 366.0 L 553.9 366.0 L 556.3 366.0 L 558.7 366.0 L 561.1 319.6 L 563.4 366.0 L 565.8 366.0 L 568.4 365.9 L 570.8 365.9 L 573.2 366.0 L 575.6 359.8 L 578.0 366.0 L 580.3 366.0 L 582.7 366.0 L 585.1 366.0 L 587.6 366.0 L 589.9 366.0 L 592.4 366.0 L 594.8 366.0 L 597.2 366.0 L 599.6 366.0 L 602.0 366.0 L 604.3 366.0 L 606.7 366.0 L 609.2 366.0 L 611.5 250.6 L 614.0 366.0 L 616.4 366.0 L 618.8 366.0 L 621.2 366.0 L 623.6 366.0 L 625.9 366.0 L 628.3 365.9 L 631.0 365.9 L 633.4 366.0 L 635.8 366.0 L 638.3 366.0 L 640.6 366.0 L 643.0 366.0 L 645.5 366.0 L 648.0 366.0 L 650.4 366.0 L 652.8 354.3 L 655.3 366.0 L 657.7 366.0 L 660.0 366.0 L 662.5 366.0 L 665.0 366.0 L 667.4 238.8 L 669.8 366.0 L 672.2 366.0 L 674.6 366.0 L 677.0 366.0 L 679.4 366.0 L 681.9 366.0 L 684.4 366.0 L 686.7 366.0 L 689.2 366.0 L 691.6 366.0 L 694.0 294.2 L 696.4 366.0 L 698.9 366.0 L 701.4 366.0 L 703.8 366.0 L 706.1 366.0 L 708.6 315.1 L 711.0 366.0 L 713.4 366.0 L 715.8 366.0 L 718.2 366.0 L 720.7 366.0 L 723.0 366.0 L 725.4 316.2 L 727.9 366.0 L 730.3 366.0 L 732.7 366.0 L 735.1 366.0 L 737.6 366.0 L 740.0 366.0 L 742.4 366.0 L 744.8 366.0 L 747.2 365.9 L 749.6 365.9 L 752.0 366.0 L 754.6 366.0 L 757.1 332.5 L 759.5 366.0 L 761.9 366.0 L 764.3 366.0 L 766.7 366.0 L 769.1 366.0 L 771.5 366.0 L 774.0 366.0 L 776.4 366.0 L 778.8 366.0 L 781.2 366.0 L 783.6 366.0 L 786.0 366.0 L 788.5 366.0 L 790.9 366.0 L 793.3 232.1 L 795.9 366.0 L 798.3 366.0 L 800.8 366.0 L 803.1 366.0 L 805.6 366.0 L 808.0 366.0 L 810.4 366.0 L 812.8 232.1 L 815.2 358.6 L 817.6 366.0 L 820.0 366.0 L 822.5 366.0 L 825.0 366.0 L 827.4 366.0 L 829.8 366.0 L 832.2 283.1 L 834.6 366.0 L 837.0 366.0 L 839.4 366.0 L 841.9 366.0 L 844.3 235.0 L 846.7 366.0 L 849.1 366.0 L 851.5 366.0 L 853.9 366.0 L 856.3 314.3 L 858.9 366.0 L 861.4 366.0 L 863.8 366.0 L 866.1 365.9 L 868.6 365.9 L 871.0 237.9 L 873.5 366.0 L 876.1 366.0 L 878.5 366.0 L 880.9 366.0 L 883.3 366.0 L 885.7 313.2 L 888.1 366.0 L 890.6 366.0 L 893.0 366.0 L 895.5 366.0 L 897.9 366.0 L 900.2 232.1 L 902.7 366.0 L 905.1 366.0 L 907.5 366.0 L 909.9 366.0 L 912.3 366.0 L 914.8 319.5 L 917.1 366.0 L 919.6 366.0 L 922.0 366.0 L 924.3 366.0 L 926.9 365.9 L 929.4 366.0 L 931.8 232.8 L 934.2 366.0 L 936.6 366.0 L 939.0 366.0 L 941.4 366.0 L 943.8 366.0 L 946.2 366.0 L 948.7 232.1 L 951.1 366.0 L 953.5 366.0 L 955.9 366.0 L 958.3 366.0 L 960.7 366.0 L 963.1 366.0 L 965.6 344.0 L 968.0 366.0 L 970.4 366.0 L 972.8 366.0 L 975.2 366.0 L 977.6 366.0 L 980.0 366.0 L 982.5 366.0 L 984.9 232.1 L 987.4 365.9 L 989.9 366.0 L 992.3 366.0 L 994.7 366.0 L 997.0 365.9 L 1001.1 366.0 L 1003.5 366.0 L 1005.9 362.3 L 1008.3 366.0 L 1010.9 366.0 L 1013.3 366.0 L 1015.7 366.0 L 1018.1 366.0 L 1020.5 270.0 L 1022.9 366.0 L 1025.3 366.0 L 1027.7 366.0 L 1030.1 366.0 L 1032.5 248.9 L 1034.9 366.0 L 1037.3 366.0 L 1039.8 366.0 L 1042.1 366.0 L 1044.5 365.9 L 1047.0 365.9 L 1049.4 366.0 L 1051.8 366.0 L 1054.3 366.0 L 1056.7 366.0 L 1059.1 232.1 L 1061.5 366.0 L 1063.9 366.0 L 1066.3 366.0 L 1068.7 366.0 L 1071.2 366.0 L 1073.6 274.9 L 1076.0 366.0" fill="none" stroke="#4C78A8" stroke-width="2.8" stroke-linejoin="round" stroke-linecap="round"/>
<path d="M 86.0 366.0 L 88.4 366.0 L 90.8 366.0 L 93.1 366.0 L 95.6 366.0 L 98.0 366.0 L 100.3 366.0 L 102.7 366.0 L 105.1 366.0 L 107.5 365.9 L 109.9 366.0 L 112.3 318.3 L 114.7 121.5 L 117.3 89.6 L 120.0 204.6 L 122.5 365.8 L 124.9 366.0 L 127.3 365.9 L 129.7 365.9 L 132.1 365.9 L 134.5 365.9 L 136.9 365.9 L 139.3 365.9 L 141.9 365.9 L 144.3 365.9 L 146.7 365.9 L 149.1 365.9 L 151.5 365.8 L 153.9 365.8 L 156.3 365.9 L 159.0 365.9 L 161.4 365.9 L 164.0 365.9 L 166.4 365.9 L 168.8 365.9 L 171.4 365.9 L 173.8 365.9 L 176.2 365.9 L 178.6 365.9 L 181.0 365.9 L 183.4 365.9 L 185.8 365.9 L 188.3 365.9 L 190.8 365.9 L 193.1 365.9 L 195.5 365.9 L 198.0 365.9 L 200.3 365.9 L 202.8 365.9 L 205.3 365.9 L 207.8 365.9 L 210.2 365.9 L 212.5 365.9 L 215.0 365.9 L 217.4 365.9 L 219.7 365.9 L 222.2 365.9 L 224.6 365.9 L 227.0 365.9 L 229.4 365.9 L 231.8 365.9 L 234.2 365.9 L 236.6 365.9 L 239.0 365.9 L 241.4 365.9 L 243.9 365.9 L 246.3 365.9 L 248.7 365.9 L 251.2 365.9 L 253.5 365.9 L 255.9 365.9 L 258.4 365.9 L 260.7 365.9 L 263.4 366.0 L 265.8 365.9 L 268.2 365.9 L 270.6 365.8 L 273.0 365.9 L 275.4 365.9 L 277.9 365.9 L 280.4 365.9 L 282.8 365.9 L 285.2 365.9 L 287.7 365.9 L 290.1 365.9 L 292.5 365.9 L 295.0 365.9 L 297.4 365.9 L 299.8 365.9 L 302.3 365.9 L 304.6 365.9 L 307.0 365.9 L 309.5 365.9 L 311.9 365.9 L 314.3 365.9 L 316.7 365.9 L 319.2 365.9 L 321.5 365.9 L 324.0 365.9 L 326.4 365.9 L 328.7 365.9 L 331.4 365.9 L 333.7 365.9 L 336.2 365.9 L 338.6 365.9 L 341.0 365.9 L 343.4 365.9 L 345.8 365.9 L 348.2 365.9 L 350.6 365.9 L 353.1 365.9 L 355.5 365.9 L 357.9 365.9 L 360.3 365.9 L 362.7 365.9 L 365.1 365.9 L 367.5 365.9 L 370.0 365.9 L 372.5 365.9 L 374.9 365.9 L 377.2 365.9 L 379.7 365.9 L 382.7 365.9 L 385.1 365.9 L 387.5 365.9 L 389.9 365.9 L 392.3 365.9 L 394.7 365.9 L 397.3 365.9 L 399.8 365.9 L 402.2 365.9 L 404.6 365.9 L 407.0 365.9 L 409.6 365.9 L 412.0 365.9 L 414.4 365.9 L 416.8 365.9 L 419.2 365.9 L 421.7 365.9 L 424.0 365.9 L 426.6 365.9 L 429.0 365.9 L 431.4 365.9 L 433.8 365.9 L 436.2 365.9 L 438.7 365.9 L 441.1 365.9 L 443.6 365.9 L 446.0 365.8 L 450.4 365.9 L 452.9 365.9 L 455.4 365.9 L 457.8 365.9 L 460.2 365.9 L 462.5 365.9 L 464.9 365.9 L 467.4 365.9 L 469.7 365.9 L 472.2 365.9 L 474.6 365.9 L 477.0 365.9 L 479.3 365.9 L 481.7 365.9 L 484.1 365.9 L 486.5 366.0 L 489.1 163.9 L 491.6 365.9 L 494.0 365.9 L 496.3 365.9 L 498.7 365.9 L 501.1 365.9 L 503.5 365.9 L 506.0 365.9 L 508.4 365.9 L 510.8 365.8 L 513.3 365.9 L 515.6 365.9 L 518.0 365.9 L 520.4 365.9 L 522.8 365.9 L 525.2 365.9 L 527.6 365.9 L 530.0 365.9 L 532.4 365.9 L 534.7 365.9 L 537.2 365.9 L 539.6 365.9 L 542.0 365.9 L 544.3 365.9 L 546.8 365.9 L 549.2 365.9 L 551.5 365.9 L 553.9 365.9 L 556.3 365.9 L 558.7 365.9 L 561.1 365.9 L 563.4 365.9 L 565.8 365.9 L 568.4 365.9 L 570.8 365.9 L 573.2 365.9 L 575.6 365.9 L 578.0 365.9 L 580.3 365.9 L 582.7 365.9 L 585.1 365.9 L 587.6 365.9 L 589.9 365.9 L 592.4 365.9 L 594.8 365.9 L 597.2 365.9 L 599.6 365.9 L 602.0 365.9 L 604.3 365.9 L 606.7 365.9 L 609.2 365.9 L 611.5 365.9 L 614.0 365.9 L 616.4 365.9 L 618.8 365.9 L 621.2 365.9 L 623.6 365.9 L 625.9 365.9 L 628.3 365.9 L 631.0 365.9 L 633.4 365.9 L 635.8 365.9 L 638.3 365.9 L 640.6 365.9 L 643.0 365.9 L 645.5 365.9 L 648.0 365.9 L 650.4 366.0 L 652.8 264.2 L 655.3 365.9 L 657.7 365.9 L 660.0 365.9 L 662.5 365.9 L 665.0 365.9 L 667.4 365.9 L 669.8 365.9 L 672.2 365.9 L 674.6 365.9 L 677.0 365.9 L 679.4 365.9 L 681.9 365.9 L 684.4 365.9 L 686.7 365.9 L 689.2 365.8 L 691.6 365.9 L 694.0 365.9 L 696.4 365.9 L 698.9 365.9 L 701.4 365.9 L 703.8 365.9 L 706.1 365.9 L 708.6 365.9 L 711.0 365.9 L 713.4 365.9 L 715.8 365.9 L 718.2 365.9 L 720.7 365.9 L 723.0 365.9 L 725.4 365.9 L 727.9 365.9 L 730.3 365.9 L 732.7 365.9 L 735.1 365.9 L 737.6 365.9 L 740.0 365.9 L 742.4 365.9 L 744.8 365.9 L 747.2 365.9 L 749.6 365.9 L 752.0 365.9 L 754.6 365.9 L 757.1 365.9 L 759.5 365.9 L 761.9 365.9 L 764.3 365.9 L 766.7 365.9 L 769.1 365.9 L 771.5 365.9 L 774.0 365.9 L 776.4 365.9 L 778.8 365.9 L 781.2 365.9 L 783.6 365.9 L 786.0 365.9 L 788.5 365.9 L 790.9 365.9 L 793.3 365.9 L 795.9 365.9 L 798.3 365.9 L 800.8 365.9 L 803.1 365.9 L 805.6 365.9 L 808.0 365.8 L 810.4 365.9 L 812.8 366.0 L 815.2 365.9 L 817.6 365.9 L 820.0 365.9 L 822.5 366.0 L 825.0 366.0 L 827.4 366.0 L 829.8 366.0 L 832.2 365.9 L 834.6 365.9 L 837.0 365.9 L 839.4 365.9 L 841.9 365.9 L 844.3 365.9 L 846.7 365.9 L 849.1 365.9 L 851.5 365.9 L 853.9 365.9 L 856.3 365.9 L 858.9 365.9 L 861.4 365.9 L 863.8 365.9 L 866.1 365.9 L 868.6 365.9 L 871.0 365.9 L 873.5 365.9 L 876.1 365.9 L 878.5 365.9 L 880.9 365.9 L 883.3 365.9 L 885.7 365.9 L 888.1 365.9 L 890.6 365.9 L 893.0 365.9 L 895.5 365.9 L 897.9 365.9 L 900.2 365.9 L 902.7 365.9 L 905.1 365.9 L 907.5 365.9 L 909.9 365.9 L 912.3 365.9 L 914.8 365.9 L 917.1 365.9 L 919.6 365.9 L 922.0 365.9 L 924.3 365.9 L 926.9 365.9 L 929.4 365.9 L 931.8 365.9 L 934.2 365.9 L 936.6 365.9 L 939.0 365.9 L 941.4 365.9 L 943.8 365.9 L 946.2 365.9 L 948.7 365.9 L 951.1 365.9 L 953.5 365.9 L 955.9 365.9 L 958.3 365.9 L 960.7 365.9 L 963.1 365.9 L 965.6 365.9 L 968.0 365.9 L 970.4 365.9 L 972.8 365.9 L 975.2 365.9 L 977.6 365.9 L 980.0 365.9 L 982.5 365.9 L 984.9 365.9 L 987.4 365.9 L 989.9 365.9 L 992.3 365.9 L 994.7 365.9 L 997.0 365.9 L 1001.1 365.9 L 1003.5 366.0 L 1005.9 365.9 L 1008.3 365.9 L 1010.9 365.9 L 1013.3 365.9 L 1015.7 365.9 L 1018.1 365.9 L 1020.5 365.9 L 1022.9 365.9 L 1025.3 365.9 L 1027.7 365.9 L 1030.1 365.9 L 1032.5 365.9 L 1034.9 365.9 L 1037.3 365.9 L 1039.8 365.9 L 1042.1 365.9 L 1044.5 365.9 L 1047.0 365.9 L 1049.4 365.9 L 1051.8 365.9 L 1054.3 365.9 L 1056.7 365.9 L 1059.1 365.9 L 1061.5 365.9 L 1063.9 365.9 L 1066.3 365.9 L 1068.7 365.9 L 1071.2 365.9 L 1073.6 365.9 L 1076.0 365.9" fill="none" stroke="#F58518" stroke-width="2.8" stroke-linejoin="round" stroke-linecap="round"/>
<line x1="93.8" y1="62.0" x2="93.8" y2="366.0" stroke="#666" stroke-dasharray="4 4" stroke-width="1.2"/>
<text x="93.8" y="402.0" text-anchor="middle" font-size="12" fill="#444" font-family="Helvetica, Arial, sans-serif">submit</text>
<line x1="1074.4" y1="62.0" x2="1074.4" y2="366.0" stroke="#888" stroke-dasharray="4 4" stroke-width="1.2"/>
<text x="1074.4" y="402.0" text-anchor="middle" font-size="12" fill="#444" font-family="Helvetica, Arial, sans-serif">finish</text>
<line x1="86.0" y1="62.0" x2="86.0" y2="366.0" stroke="#f5f5f5" stroke-width="1"/>
<text x="86.0" y="418.0" text-anchor="middle" font-size="11" fill="#444" font-family="Helvetica, Arial, sans-serif">-0.14</text>
<line x1="209.8" y1="62.0" x2="209.8" y2="366.0" stroke="#f5f5f5" stroke-width="1"/>
<text x="209.8" y="418.0" text-anchor="middle" font-size="11" fill="#444" font-family="Helvetica, Arial, sans-serif">2.04</text>
<line x1="333.5" y1="62.0" x2="333.5" y2="366.0" stroke="#f5f5f5" stroke-width="1"/>
<text x="333.5" y="418.0" text-anchor="middle" font-size="11" fill="#444" font-family="Helvetica, Arial, sans-serif">4.23</text>
<line x1="457.2" y1="62.0" x2="457.2" y2="366.0" stroke="#f5f5f5" stroke-width="1"/>
<text x="457.2" y="418.0" text-anchor="middle" font-size="11" fill="#444" font-family="Helvetica, Arial, sans-serif">6.41</text>
<line x1="581.0" y1="62.0" x2="581.0" y2="366.0" stroke="#f5f5f5" stroke-width="1"/>
<text x="581.0" y="418.0" text-anchor="middle" font-size="11" fill="#444" font-family="Helvetica, Arial, sans-serif">8.59</text>
<line x1="704.8" y1="62.0" x2="704.8" y2="366.0" stroke="#f5f5f5" stroke-width="1"/>
<text x="704.8" y="418.0" text-anchor="middle" font-size="11" fill="#444" font-family="Helvetica, Arial, sans-serif">10.77</text>
<line x1="828.5" y1="62.0" x2="828.5" y2="366.0" stroke="#f5f5f5" stroke-width="1"/>
<text x="828.5" y="418.0" text-anchor="middle" font-size="11" fill="#444" font-family="Helvetica, Arial, sans-serif">12.95</text>
<line x1="952.2" y1="62.0" x2="952.2" y2="366.0" stroke="#f5f5f5" stroke-width="1"/>
<text x="952.2" y="418.0" text-anchor="middle" font-size="11" fill="#444" font-family="Helvetica, Arial, sans-serif">15.14</text>
<line x1="1076.0" y1="62.0" x2="1076.0" y2="366.0" stroke="#f5f5f5" stroke-width="1"/>
<text x="1076.0" y="418.0" text-anchor="middle" font-size="11" fill="#444" font-family="Helvetica, Arial, sans-serif">17.32</text>
<text x="581.0" y="386.0" text-anchor="middle" font-size="15" fill="#222" font-family="Helvetica, Arial, sans-serif">time since request submit (s)</text>
</svg>