<svg xmlns="http://www.w3.org/2000/svg" width="1100" height="420" viewBox="0 0 1100 420">
<rect width="1100" height="420" fill="white"/>
<text x="86" y="26" font-size="22" font-weight="700" font-family="Helvetica, Arial, sans-serif">tb_session_02_turn_001_reuse  phase=reuse  turn=1  prompt=24832  peak_tx=15.45 GiB/s  peak_rx=31.90 GiB/s</text>
<text x="86" y="46" font-size="13" fill="#444" font-family="Helvetica, Arial, sans-serif">response_window=11.733s, response_tx=10.974 GiB, response_rx=5.468 GiB, metrics_tx=41.777 GiB, metrics_rx=5.678 GiB</text>
<line x1="86" y1="366.0" x2="1076" y2="366.0" stroke="#ececec" stroke-width="1"/>
<text x="76" y="370.0" text-anchor="end" font-size="12" fill="#444" font-family="Helvetica, Arial, sans-serif">0.0</text>
<line x1="86" y1="305.2" x2="1076" y2="305.2" stroke="#ececec" stroke-width="1"/>
<text x="76" y="309.2" text-anchor="end" font-size="12" fill="#444" font-family="Helvetica, Arial, sans-serif">7.0</text>
<line x1="86" y1="244.4" x2="1076" y2="244.4" stroke="#ececec" stroke-width="1"/>
<text x="76" y="248.4" text-anchor="end" font-size="12" fill="#444" font-family="Helvetica, Arial, sans-serif">14.0</text>
<line x1="86" y1="183.6" x2="1076" y2="183.6" stroke="#ececec" stroke-width="1"/>
<text x="76" y="187.6" text-anchor="end" font-size="12" fill="#444" font-family="Helvetica, Arial, sans-serif">21.1</text>
<line x1="86" y1="122.8" x2="1076" y2="122.8" stroke="#ececec" stroke-width="1"/>
<text x="76" y="126.8" text-anchor="end" font-size="12" fill="#444" font-family="Helvetica, Arial, sans-serif">28.1</text>
<line x1="86" y1="62.0" x2="1076" y2="62.0" stroke="#ececec" stroke-width="1"/>
<text x="76" y="66.0" text-anchor="end" font-size="12" fill="#444" font-family="Helvetica, Arial, sans-serif">35.1</text>
<line x1="86" y1="366.0" x2="1076" y2="366.0" stroke="#222" stroke-width="1.4"/>
<line x1="86" y1="62.0" x2="86" y2="366.0" stroke="#222" stroke-width="1.4"/>
<rect x="97.1" y="62.0" width="974.7" height="304.0" fill="#F58518" opacity="0.08"/>
<path d="M 86.0 366.0 L 89.5 366.0 L 93.0 366.0 L 96.5 365.9 L 100.0 365.9 L 103.5 366.0 L 107.0 366.0 L 110.5 366.0 L 114.0 366.0 L 117.5 366.0 L 121.0 366.0 L 124.5 366.0 L 128.0 338.6 L 131.8 338.2 L 135.8 338.2 L 139.4 366.0 L 143.0 349.2 L 146.5 347.4 L 150.1 366.0 L 153.5 366.0 L 157.0 366.0 L 160.6 366.0 L 164.1 348.0 L 167.8 366.0 L 171.4 366.0 L 174.9 366.0 L 178.5 366.0 L 182.0 293.1 L 185.4 366.0 L 189.0 366.0 L 192.9 366.0 L 196.5 366.0 L 200.2 232.1 L 203.8 366.0 L 207.3 366.0 L 211.0 366.0 L 214.6 366.0 L 218.1 366.0 L 221.6 252.8 L 225.1 366.0 L 228.6 366.0 L 232.2 366.0 L 235.9 366.0 L 239.4 366.0 L 242.9 232.1 L 246.4 366.0 L 250.0 366.0 L 253.5 366.0 L 257.1 366.0 L 260.8 366.0 L 264.4 359.1 L 267.9 366.0 L 271.3 365.9 L 274.9 365.9 L 278.4 366.0 L 281.9 366.0 L 285.5 366.0 L 289.0 307.2 L 292.5 366.0 L 296.1 366.0 L 299.6 366.0 L 303.1 366.0 L 306.6 366.0 L 310.1 366.0 L 313.6 366.0 L 317.3 366.0 L 320.9 366.0 L 324.3 366.0 L 327.9 366.0 L 331.4 366.0 L 334.9 366.0 L 338.5 366.0 L 342.0 274.8 L 345.8 366.0 L 349.3 366.0 L 352.8 366.0 L 356.3 366.0 L 359.9 366.0 L 363.4 366.0 L 367.0 366.0 L 370.8 366.0 L 374.3 366.0 L 377.8 366.0 L 381.4 366.0 L 384.9 366.0 L 388.4 366.0 L 392.1 366.0 L 395.7 366.0 L 399.2 366.0 L 402.8 366.0 L 406.3 366.0 L 409.7 366.0 L 413.3 261.7 L 416.9 366.0 L 420.5 366.0 L 423.9 366.0 L 427.5 366.0 L 431.0 265.6 L 434.6 366.0 L 438.1 366.0 L 441.6 365.9 L 445.4 365.9 L 448.9 365.9 L 452.4 366.0 L 455.9 366.0 L 459.5 366.0 L 463.0 366.0 L 466.5 366.0 L 470.1 267.9 L 473.6 366.0 L 477.2 366.0 L 480.8 366.0 L 484.3 366.0 L 487.7 366.0 L 491.2 292.7 L 494.8 366.0 L 498.4 366.0 L 502.0 366.0 L 505.6 366.0 L 509.1 366.0 L 512.6 366.0 L 516.2 365.9 L 520.6 366.0 L 524.1 366.0 L 527.5 366.0 L 531.1 365.9 L 534.6 365.9 L 538.1 232.1 L 542.0 366.0 L 545.7 366.0 L 549.1 366.0 L 552.7 366.0 L 556.2 366.0 L 559.9 366.0 L 563.5 357.1 L 567.0 366.0 L 570.6 366.0 L 574.1 366.0 L 577.6 366.0 L 581.1 366.0 L 584.9 366.0 L 588.4 280.4 L 591.9 366.0 L 595.5 366.0 L 599.0 366.0 L 602.6 366.0 L 606.0 366.0 L 609.8 366.0 L 613.4 338.2 L 619.7 365.9 L 623.4 365.9 L 627.1 366.0 L 630.6 366.0 L 634.0 366.0 L 637.5 366.0 L 641.0 366.0 L 644.6 366.0 L 648.1 366.0 L 651.7 366.0 L 655.1 366.0 L 658.6 366.0 L 662.1 366.0 L 665.6 366.0 L 669.1 366.0 L 672.6 323.4 L 676.5 362.1 L 680.1 366.0 L 683.6 366.0 L 687.0 366.0 L 690.5 366.0 L 694.0 366.0 L 697.5 339.2 L 701.2 366.0 L 704.7 366.0 L 708.2 366.0 L 711.8 366.0 L 715.3 299.1 L 718.8 366.0 L 722.3 366.0 L 725.8 366.0 L 729.3 366.0 L 732.8 366.0 L 736.3 272.1 L 739.8 366.0 L 743.3 366.0 L 746.9 366.0 L 750.3 366.0 L 753.8 366.0 L 757.3 315.8 L 760.9 366.0 L 764.4 366.0 L 767.9 366.0 L 771.4 366.0 L 774.9 366.0 L 778.3 366.0 L 781.8 319.6 L 785.3 366.0 L 788.8 366.0 L 792.6 365.9 L 796.1 365.9 L 799.6 366.0 L 803.1 359.8 L 806.6 366.0 L 810.1 366.0 L 813.6 366.0 L 817.1 366.0 L 820.6 366.0 L 824.1 366.0 L 827.7 366.0 L 831.2 366.0 L 834.8 366.0 L 838.2 366.0 L 841.7 366.0 L 845.2 366.0 L 848.7 366.0 L 852.3 366.0 L 855.8 250.6 L 859.3 366.0 L 862.9 366.0 L 866.4 366.0 L 869.9 366.0 L 873.4 366.0 L 876.9 366.0 L 880.4 365.9 L 884.3 365.9 L 887.8 366.0 L 891.3 366.0 L 894.9 366.0 L 898.4 366.0 L 901.9 366.0 L 905.4 366.0 L 909.1 366.0 L 912.7 366.0 L 916.2 354.3 L 919.8 366.0 L 923.3 366.0 L 926.8 366.0 L 930.4 366.0 L 934.0 366.0 L 937.5 238.8 L 941.1 366.0 L 944.6 366.0 L 948.1 366.0 L 951.6 366.0 L 955.1 366.0 L 958.9 366.0 L 962.4 366.0 L 965.9 366.0 L 969.5 366.0 L 973.0 366.0 L 976.5 294.2 L 980.0 366.0 L 983.8 366.0 L 987.4 366.0 L 990.8 366.0 L 994.3 366.0 L 997.9 315.1 L 1001.4 366.0 L 1005.0 366.0 L 1008.5 366.0 L 1012.0 366.0 L 1015.6 366.0 L 1019.1 366.0 L 1022.6 316.2 L 1026.2 366.0 L 1029.6 366.0 L 1033.2 366.0 L 1036.7 366.0 L 1040.4 366.0 L 1043.9 366.0 L 1047.4 366.0 L 1051.0 366.0 L 1054.5 365.9 L 1058.0 365.9 L 1061.5 366.0 L 1065.4 366.0 L 1068.9 332.5 L 1072.4 366.0 L 1076.0 366.0" fill="none" stroke="#4C78A8" stroke-width="2.8" stroke-linejoin="round" stroke-linecap="round"/>
<path d="M 86.0 366.0 L 89.5 366.0 L 93.0 366.0 L 96.5 366.0 L 100.0 366.0 L 103.5 366.0 L 107.0 366.0 L 110.5 366.0 L 114.0 366.0 L 117.5 365.9 L 121.0 366.0 L 124.5 318.3 L 128.0 121.5 L 131.8 89.6 L 135.8 204.6 L 139.4 365.8 L 143.0 366.0 L 146.5 365.9 L 150.1 365.9 L 153.5 365.9 L 157.0 365.9 L 160.6 365.9 L 164.1 365.9 L 167.8 365.9 L 171.4 365.9 L 174.9 365.9 L 178.5 365.9 L 182.0 365.8 L 185.4 365.8 L 189.0 365.9 L 192.9 365.9 L 196.5 365.9 L 200.2 365.9 L 203.8 365.9 L 207.3 365.9 L 211.0 365.9 L 214.6 365.9 L 218.1 365.9 L 221.6 365.9 L 225.1 365.9 L 228.6 365.9 L 232.2 365.9 L 235.9 365.9 L 239.4 365.9 L 242.9 365.9 L 246.4 365.9 L 250.0 365.9 L 253.5 365.9 L 257.1 365.9 L 260.8 365.9 L 264.4 365.9 L 267.9 365.9 L 271.3 365.9 L 274.9 365.9 L 278.4 365.9 L 281.9 365.9 L 285.5 365.9 L 289.0 365.9 L 292.5 365.9 L 296.1 365.9 L 299.6 365.9 L 303.1 365.9 L 306.6 365.9 L 310.1 365.9 L 313.6 365.9 L 317.3 365.9 L 320.9 365.9 L 324.3 365.9 L 327.9 365.9 L 331.4 365.9 L 334.9 365.9 L 338.5 365.9 L 342.0 365.9 L 345.8 366.0 L 349.3 365.9 L 352.8 365.9 L 356.3 365.8 L 359.9 365.9 L 363.4 365.9 L 367.0 365.9 L 370.8 365.9 L 374.3 365.9 L 377.8 365.9 L 381.4 365.9 L 384.9 365.9 L 388.4 365.9 L 392.1 365.9 L 395.7 365.9 L 399.2 365.9 L 402.8 365.9 L 406.3 365.9 L 409.7 365.9 L 413.3 365.9 L 416.9 365.9 L 420.5 365.9 L 423.9 365.9 L 427.5 365.9 L 431.0 365.9 L 434.6 365.9 L 438.1 365.9 L 441.6 365.9 L 445.4 365.9 L 448.9 365.9 L 452.4 365.9 L 455.9 365.9 L 459.5 365.9 L 463.0 365.9 L 466.5 365.9 L 470.1 365.9 L 473.6 365.9 L 477.2 365.9 L 480.8 365.9 L 484.3 365.9 L 487.7 365.9 L 491.2 365.9 L 494.8 365.9 L 498.4 365.9 L 502.0 365.9 L 505.6 365.9 L 509.1 365.9 L 512.6 365.9 L 516.2 365.9 L 520.6 365.9 L 524.1 365.9 L 527.5 365.9 L 531.1 365.9 L 534.6 365.9 L 538.1 365.9 L 542.0 365.9 L 545.7 365.9 L 549.1 365.9 L 552.7 365.9 L 556.2 365.9 L 559.9 365.9 L 563.5 365.9 L 567.0 365.9 L 570.6 365.9 L 574.1 365.9 L 577.6 365.9 L 581.1 365.9 L 584.9 365.9 L 588.4 365.9 L 591.9 365.9 L 595.5 365.9 L 599.0 365.9 L 602.6 365.9 L 606.0 365.9 L 609.8 365.9 L 613.4 365.8 L 619.7 365.9 L 623.4 365.9 L 627.1 365.9 L 630.6 365.9 L 634.0 365.9 L 637.5 365.9 L 641.0 365.9 L 644.6 365.9 L 648.1 365.9 L 651.7 365.9 L 655.1 365.9 L 658.6 365.9 L 662.1 365.9 L 665.6 365.9 L 669.1 365.9 L 672.6 366.0 L 676.5 163.9 L 680.1 365.9 L 683.6 365.9 L 687.0 365.9 L 690.5 365.9 L 694.0 365.9 L 697.5 365.9 L 701.2 365.9 L 704.7 365.9 L 708.2 365.8 L 711.8 365.9 L 715.3 365.9 L 718.8 365.9 L 722.3 365.9 L 725.8 365.9 L 729.3 365.9 L 732.8 365.9 L 736.3 365.9 L 739.8 365.9 L 743.3 365.9 L 746.9 365.9 L 750.3 365.9 L 753.8 365.9 L 757.3 365.9 L 760.9 365.9 L 764.4 365.9 L 767.9 365.9 L 771.4 365.9 L 774.9 365.9 L 778.3 365.9 L 781.8 365.9 L 785.3 365.9 L 788.8 365.9 L 792.6 365.9 L 796.1 365.9 L 799.6 365.9 L 803.1 365.9 L 806.6 365.9 L 810.1 365.9 L 813.6 365.9 L 817.1 365.9 L 820.6 365.9 L 824.1 365.9 L 827.7 365.9 L 831.2 365.9 L 834.8 365.9 L 838.2 365.9 L 841.7 365.9 L 845.2 365.9 L 848.7 365.9 L 852.3 365.9 L 855.8 365.9 L 859.3 365.9 L 862.9 365.9 L 866.4 365.9 L 869.9 365.9 L 873.4 365.9 L 876.9 365.9 L 880.4 365.9 L 884.3 365.9 L 887.8 365.9 L 891.3 365.9 L 894.9 365.9 L 898.4 365.9 L 901.9 365.9 L 905.4 365.9 L 909.1 365.9 L 912.7 366.0 L 916.2 264.2 L 919.8 365.9 L 923.3 365.9 L 926.8 365.9 L 930.4 365.9 L 934.0 365.9 L 937.5 365.9 L 941.1 365.9 L 944.6 365.9 L 948.1 365.9 L 951.6 365.9 L 955.1 365.9 L 958.9 365.9 L 962.4 365.9 L 965.9 365.9 L 969.5 365.8 L 973.0 365.9 L 976.5 365.9 L 980.0 365.9 L 983.8 365.9 L 987.4 365.9 L 990.8 365.9 L 994.3 365.9 L 997.9 365.9 L 1001.4 365.9 L 1005.0 365.9 L 1008.5 365.9 L 1012.0 365.9 L 1015.6 365.9 L 1019.1 365.9 L 1022.6 365.9 L 1026.2 365.9 L 1029.6 365.9 L 1033.2 365.9 L 1036.7 365.9 L 1040.4 365.9 L 1043.9 365.9 L 1047.4 365.9 L 1051.0 365.9 L 1054.5 365.9 L 1058.0 365.9 L 1061.5 365.9 L 1065.4 365.9 L 1068.9 365.9 L 1072.4 365.9 L 1076.0 365.9" fill="none" stroke="#F58518" stroke-width="2.8" stroke-linejoin="round" stroke-linecap="round"/>
<line x1="97.1" y1="62.0" x2="97.1" y2="366.0" stroke="#666" stroke-dasharray="4 4" stroke-width="1.2"/>
<text x="97.1" y="402.0" text-anchor="middle" font-size="12" fill="#444" font-family="Helvetica, Arial, sans-serif">submit</text>
<line x1="1071.8" y1="62.0" x2="1071.8" y2="366.0" stroke="#888" stroke-dasharray="4 4" stroke-width="1.2"/>
<text x="1071.8" y="402.0" text-anchor="middle" font-size="12" fill="#444" font-family="Helvetica, Arial, sans-serif">finish</text>
<line x1="86.0" y1="62.0" x2="86.0" y2="366.0" stroke="#f5f5f5" stroke-width="1"/>
<text x="86.0" y="418.0" text-anchor="middle" font-size="11" fill="#444" font-family="Helvetica, Arial, sans-serif">-0.13</text>
<line x1="209.8" y1="62.0" x2="209.8" y2="366.0" stroke="#f5f5f5" stroke-width="1"/>
<text x="209.8" y="418.0" text-anchor="middle" font-size="11" fill="#444" font-family="Helvetica, Arial, sans-serif">1.36</text>
<line x1="333.5" y1="62.0" x2="333.5" y2="366.0" stroke="#f5f5f5" stroke-width="1"/>
<text x="333.5" y="418.0" text-anchor="middle" font-size="11" fill="#444" font-family="Helvetica, Arial, sans-serif">2.85</text>
<line x1="457.2" y1="62.0" x2="457.2" y2="366.0" stroke="#f5f5f5" stroke-width="1"/>
<text x="457.2" y="418.0" text-anchor="middle" font-size="11" fill="#444" font-family="Helvetica, Arial, sans-serif">4.33</text>
<line x1="581.0" y1="62.0" x2="581.0" y2="366.0" stroke="#f5f5f5" stroke-width="1"/>
<text x="581.0" y="418.0" text-anchor="middle" font-size="11" fill="#444" font-family="Helvetica, Arial, sans-serif">5.82</text>
<line x1="704.8" y1="62.0" x2="704.8" y2="366.0" stroke="#f5f5f5" stroke-width="1"/>
<text x="704.8" y="418.0" text-anchor="middle" font-size="11" fill="#444" font-family="Helvetica, Arial, sans-serif">7.31</text>
<line x1="828.5" y1="62.0" x2="828.5" y2="366.0" stroke="#f5f5f5" stroke-width="1"/>
<text x="828.5" y="418.0" text-anchor="middle" font-size="11" fill="#444" font-family="Helvetica, Arial, sans-serif">8.80</text>
<line x1="952.2" y1="62.0" x2="952.2" y2="366.0" stroke="#f5f5f5" stroke-width="1"/>
<text x="952.2" y="418.0" text-anchor="middle" font-size="11" fill="#444" font-family="Helvetica, Arial, sans-serif">10.29</text>
<line x1="1076.0" y1="62.0" x2="1076.0" y2="366.0" stroke="#f5f5f5" stroke-width="1"/>
<text x="1076.0" y="418.0" text-anchor="middle" font-size="11" fill="#444" font-family="Helvetica, Arial, sans-serif">11.78</text>
<text x="581.0" y="386.0" text-anchor="middle" font-size="15" fill="#222" font-family="Helvetica, Arial, sans-serif">time since request submit (s)</text>
</svg>