<svg xmlns="http://www.w3.org/2000/svg" width="1100" height="420" viewBox="0 0 1100 420">
<rect width="1100" height="420" fill="white"/>
<text x="86" y="26" font-size="22" font-weight="700" font-family="Helvetica, Arial, sans-serif">tb_session_08_turn_001_reuse  phase=reuse  turn=1  prompt=24832  peak_tx=15.46 GiB/s  peak_rx=31.90 GiB/s</text>
<text x="86" y="46" font-size="13" fill="#444" font-family="Helvetica, Arial, sans-serif">response_window=36.126s, response_tx=41.775 GiB, response_rx=5.673 GiB, metrics_tx=41.777 GiB, metrics_rx=5.678 GiB</text>
<line x1="86" y1="366.0" x2="1076" y2="366.0" stroke="#ececec" stroke-width="1"/>
<text x="76" y="370.0" text-anchor="end" font-size="12" fill="#444" font-family="Helvetica, Arial, sans-serif">0.0</text>
<line x1="86" y1="305.2" x2="1076" y2="305.2" stroke="#ececec" stroke-width="1"/>
<text x="76" y="309.2" text-anchor="end" font-size="12" fill="#444" font-family="Helvetica, Arial, sans-serif">7.0</text>
<line x1="86" y1="244.4" x2="1076" y2="244.4" stroke="#ececec" stroke-width="1"/>
<text x="76" y="248.4" text-anchor="end" font-size="12" fill="#444" font-family="Helvetica, Arial, sans-serif">14.0</text>
<line x1="86" y1="183.6" x2="1076" y2="183.6" stroke="#ececec" stroke-width="1"/>
<text x="76" y="187.6" text-anchor="end" font-size="12" fill="#444" font-family="Helvetica, Arial, sans-serif">21.1</text>
<line x1="86" y1="122.8" x2="1076" y2="122.8" stroke="#ececec" stroke-width="1"/>
<text x="76" y="126.8" text-anchor="end" font-size="12" fill="#444" font-family="Helvetica, Arial, sans-serif">28.1</text>
<line x1="86" y1="62.0" x2="1076" y2="62.0" stroke="#ececec" stroke-width="1"/>
<text x="76" y="66.0" text-anchor="end" font-size="12" fill="#444" font-family="Helvetica, Arial, sans-serif">35.1</text>
<line x1="86" y1="366.0" x2="1076" y2="366.0" stroke="#222" stroke-width="1.4"/>
<line x1="86" y1="62.0" x2="86" y2="366.0" stroke="#222" stroke-width="1.4"/>
<rect x="89.9" y="62.0" width="985.7" height="304.0" fill="#F58518" opacity="0.08"/>
<path d="M 86.0 366.0 L 87.1 366.0 L 88.3 366.0 L 89.4 365.9 L 90.6 365.9 L 91.8 366.0 L 92.9 366.0 L 94.0 366.0 L 95.2 366.0 L 96.3 366.0 L 97.5 366.0 L 98.6 366.0 L 99.8 338.6 L 101.0 338.2 L 102.3 338.2 L 103.5 366.0 L 104.7 349.2 L 105.9 347.4 L 107.0 366.0 L 108.2 366.0 L 109.3 366.0 L 110.5 366.0 L 111.6 348.0 L 112.9 366.0 L 114.0 366.0 L 115.2 366.0 L 116.4 366.0 L 117.5 293.1 L 118.7 366.0 L 119.8 366.0 L 121.1 366.0 L 122.3 366.0 L 123.5 232.1 L 124.7 366.0 L 125.8 366.0 L 127.1 366.0 L 128.2 366.0 L 129.4 366.0 L 130.5 252.8 L 131.7 366.0 L 132.8 366.0 L 134.0 366.0 L 135.2 366.0 L 136.4 366.0 L 137.5 232.1 L 138.7 366.0 L 139.9 366.0 L 141.0 366.0 L 142.2 366.0 L 143.4 366.0 L 144.6 359.1 L 145.7 366.0 L 146.9 365.9 L 148.0 365.9 L 149.2 366.0 L 150.3 366.0 L 151.5 366.0 L 152.7 307.2 L 153.8 366.0 L 155.0 366.0 L 156.1 366.0 L 157.3 366.0 L 158.5 366.0 L 159.6 366.0 L 160.8 366.0 L 162.0 366.0 L 163.1 366.0 L 164.3 366.0 L 165.5 366.0 L 166.6 366.0 L 167.7 366.0 L 168.9 366.0 L 170.1 274.8 L 171.3 366.0 L 172.5 366.0 L 173.6 366.0 L 174.8 366.0 L 176.0 366.0 L 177.1 366.0 L 178.3 366.0 L 179.5 366.0 L 180.7 366.0 L 181.9 366.0 L 183.0 366.0 L 184.2 366.0 L 185.3 366.0 L 186.5 366.0 L 187.7 366.0 L 188.9 366.0 L 190.0 366.0 L 191.2 366.0 L 192.3 366.0 L 193.5 261.7 L 194.7 366.0 L 195.8 366.0 L 197.0 366.0 L 198.2 366.0 L 199.3 265.6 L 200.5 366.0 L 201.6 366.0 L 202.8 365.9 L 204.0 365.9 L 205.2 365.9 L 206.4 366.0 L 207.5 366.0 L 208.7 366.0 L 209.8 366.0 L 211.0 366.0 L 212.1 267.9 L 213.3 366.0 L 214.5 366.0 L 215.7 366.0 L 216.8 366.0 L 217.9 366.0 L 219.1 292.7 L 220.3 366.0 L 221.4 366.0 L 222.6 366.0 L 223.8 366.0 L 225.0 366.0 L 226.1 366.0 L 227.3 365.9 L 228.7 366.0 L 229.9 366.0 L 231.0 366.0 L 232.2 365.9 L 233.3 365.9 L 234.5 232.1 L 235.8 366.0 L 237.0 366.0 L 238.1 366.0 L 239.3 366.0 L 240.4 366.0 L 241.7 366.0 L 242.8 357.1 L 244.0 366.0 L 245.2 366.0 L 246.3 366.0 L 247.5 366.0 L 248.6 366.0 L 249.9 366.0 L 251.0 280.4 L 252.2 366.0 L 253.3 366.0 L 254.5 366.0 L 255.7 366.0 L 256.8 366.0 L 258.0 366.0 L 259.2 338.2 L 261.3 365.9 L 262.5 365.9 L 263.7 366.0 L 264.9 366.0 L 266.0 366.0 L 267.1 366.0 L 268.3 366.0 L 269.5 366.0 L 270.6 366.0 L 271.8 366.0 L 272.9 366.0 L 274.1 366.0 L 275.2 366.0 L 276.4 366.0 L 277.5 366.0 L 278.7 323.4 L 279.9 362.1 L 281.1 366.0 L 282.3 366.0 L 283.4 366.0 L 284.6 366.0 L 285.7 366.0 L 286.8 339.2 L 288.0 366.0 L 289.2 366.0 L 290.4 366.0 L 291.5 366.0 L 292.7 299.1 L 293.8 366.0 L 295.0 366.0 L 296.1 366.0 L 297.3 366.0 L 298.4 366.0 L 299.6 272.1 L 300.7 366.0 L 301.9 366.0 L 303.1 366.0 L 304.2 366.0 L 305.3 366.0 L 306.5 315.8 L 307.7 366.0 L 308.8 366.0 L 310.0 366.0 L 311.1 366.0 L 312.2 366.0 L 313.4 366.0 L 314.5 319.6 L 315.7 366.0 L 316.8 366.0 L 318.1 365.9 L 319.2 365.9 L 320.4 366.0 L 321.5 359.8 L 322.7 366.0 L 323.8 366.0 L 325.0 366.0 L 326.1 366.0 L 327.3 366.0 L 328.4 366.0 L 329.6 366.0 L 330.7 366.0 L 331.9 366.0 L 333.1 366.0 L 334.2 366.0 L 335.4 366.0 L 336.5 366.0 L 337.7 366.0 L 338.8 250.6 L 340.0 366.0 L 341.2 366.0 L 342.3 366.0 L 343.5 366.0 L 344.6 366.0 L 345.8 366.0 L 346.9 365.9 L 348.2 365.9 L 349.4 366.0 L 350.5 366.0 L 351.7 366.0 L 352.8 366.0 L 354.0 366.0 L 355.1 366.0 L 356.3 366.0 L 357.5 366.0 L 358.7 354.3 L 359.9 366.0 L 361.0 366.0 L 362.1 366.0 L 363.3 366.0 L 364.5 366.0 L 365.7 238.8 L 366.8 366.0 L 368.0 366.0 L 369.2 366.0 L 370.3 366.0 L 371.5 366.0 L 372.7 366.0 L 373.9 366.0 L 375.0 366.0 L 376.2 366.0 L 377.3 366.0 L 378.5 294.2 L 379.6 366.0 L 380.9 366.0 L 382.0 366.0 L 383.2 366.0 L 384.3 366.0 L 385.5 315.1 L 386.7 366.0 L 387.8 366.0 L 389.0 366.0 L 390.1 366.0 L 391.3 366.0 L 392.5 366.0 L 393.6 316.2 L 394.8 366.0 L 395.9 366.0 L 397.1 366.0 L 398.2 366.0 L 399.4 366.0 L 400.6 366.0 L 401.8 366.0 L 402.9 366.0 L 404.1 365.9 L 405.2 365.9 L 406.4 366.0 L 407.7 366.0 L 408.8 332.5 L 410.0 366.0 L 411.2 366.0 L 412.3 366.0 L 413.5 366.0 L 414.6 366.0 L 415.8 366.0 L 417.0 366.0 L 418.1 366.0 L 419.3 366.0 L 420.4 366.0 L 421.6 366.0 L 422.7 366.0 L 423.9 366.0 L 425.1 366.0 L 426.3 232.1 L 427.5 366.0 L 428.7 366.0 L 429.8 366.0 L 431.0 366.0 L 432.2 366.0 L 433.3 366.0 L 434.5 366.0 L 435.7 232.1 L 436.8 358.6 L 437.9 366.0 L 439.1 366.0 L 440.3 366.0 L 441.5 366.0 L 442.6 366.0 L 443.8 366.0 L 445.0 283.1 L 446.1 366.0 L 447.3 366.0 L 448.5 366.0 L 449.6 366.0 L 450.8 235.0 L 451.9 366.0 L 453.1 366.0 L 454.2 366.0 L 455.4 366.0 L 456.6 314.3 L 457.8 366.0 L 459.0 366.0 L 460.2 366.0 L 461.3 365.9 L 462.5 365.9 L 463.6 237.9 L 464.8 366.0 L 466.1 366.0 L 467.2 366.0 L 468.4 366.0 L 469.5 366.0 L 470.7 313.2 L 471.9 366.0 L 473.1 366.0 L 474.2 366.0 L 475.4 366.0 L 476.6 366.0 L 477.7 232.1 L 478.9 366.0 L 480.0 366.0 L 481.2 366.0 L 482.4 366.0 L 483.5 366.0 L 484.7 319.5 L 485.8 366.0 L 487.0 366.0 L 488.1 366.0 L 489.3 366.0 L 490.6 365.9 L 491.7 366.0 L 492.9 232.8 L 494.0 366.0 L 495.2 366.0 L 496.3 366.0 L 497.5 366.0 L 498.7 366.0 L 499.8 366.0 L 501.0 232.1 L 502.1 366.0 L 503.3 366.0 L 504.5 366.0 L 505.6 366.0 L 506.8 366.0 L 507.9 366.0 L 509.1 344.0 L 510.3 366.0 L 511.5 366.0 L 512.6 366.0 L 513.7 366.0 L 514.9 366.0 L 516.1 366.0 L 517.3 366.0 L 518.4 232.1 L 519.6 365.9 L 520.8 366.0 L 522.0 366.0 L 523.1 366.0 L 524.3 365.9 L 526.2 366.0 L 527.4 366.0 L 528.5 362.3 L 529.7 366.0 L 530.9 366.0 L 532.1 366.0 L 533.2 366.0 L 534.4 366.0 L 535.5 270.0 L 536.7 366.0 L 537.9 366.0 L 539.0 366.0 L 540.2 366.0 L 541.3 248.9 L 542.5 366.0 L 543.6 366.0 L 544.8 366.0 L 546.0 366.0 L 547.1 365.9 L 548.3 365.9 L 549.5 366.0 L 550.6 366.0 L 551.8 366.0 L 553.0 366.0 L 554.1 232.1 L 555.3 366.0 L 556.4 366.0 L 557.6 366.0 L 558.8 366.0 L 559.9 366.0 L 561.1 274.9 L 562.3 366.0 L 563.4 366.0 L 564.5 366.0 L 565.7 366.0 L 566.9 366.0 L 568.0 232.1 L 569.2 366.0 L 570.4 366.0 L 571.6 366.0 L 572.7 366.0 L 573.9 365.9 L 575.8 250.9 L 577.0 365.9 L 578.2 366.0 L 579.3 366.0 L 580.5 366.0 L 581.6 366.0 L 582.9 366.0 L 584.0 360.7 L 585.2 366.0 L 586.3 366.0 L 587.5 366.0 L 588.7 366.0 L 589.8 366.0 L 591.0 366.0 L 592.2 314.2 L 593.3 366.0 L 594.5 366.0 L 595.7 366.0 L 596.8 366.0 L 597.9 366.0 L 599.2 366.0 L 600.3 274.2 L 601.5 366.0 L 602.6 366.0 L 603.8 366.0 L 605.0 366.0 L 606.2 366.0 L 607.4 366.0 L 608.5 366.0 L 609.7 234.9 L 610.8 366.0 L 612.0 366.0 L 613.2 366.0 L 614.3 366.0 L 615.5 366.0 L 616.7 366.0 L 617.8 366.0 L 619.0 232.2 L 620.2 366.0 L 621.3 366.0 L 622.5 366.0 L 623.7 366.0 L 624.9 366.0 L 626.0 269.5 L 627.2 366.0 L 628.3 366.0 L 629.5 366.0 L 630.6 366.0 L 631.9 323.9 L 633.1 366.0 L 634.4 366.0 L 635.6 366.0 L 636.7 366.0 L 638.0 275.0 L 639.1 366.0 L 640.3 366.0 L 641.5 366.0 L 642.7 366.0 L 643.8 362.1 L 645.0 366.0 L 646.2 366.0 L 647.4 366.0 L 648.5 366.0 L 649.7 366.0 L 650.8 253.7 L 652.0 366.0 L 653.2 366.0 L 654.3 366.0 L 655.5 366.0 L 656.7 366.0 L 657.8 316.6 L 659.0 366.0 L 660.1 366.0 L 661.3 365.9 L 662.5 365.9 L 663.6 366.0 L 664.8 366.0 L 665.9 315.4 L 667.1 366.0 L 668.3 366.0 L 669.4 366.0 L 670.6 366.0 L 671.7 366.0 L 672.9 366.0 L 674.1 366.0 L 675.2 366.0 L 676.4 366.0 L 677.5 366.0 L 678.7 366.0 L 679.9 366.0 L 681.0 366.0 L 682.2 360.5 L 683.3 366.0 L 684.5 366.0 L 685.7 366.0 L 686.8 366.0 L 688.0 366.0 L 689.2 366.0 L 690.4 232.1 L 691.6 365.9 L 692.8 366.0 L 694.0 366.0 L 695.2 366.0 L 696.3 366.0 L 697.5 366.0 L 698.7 366.0 L 699.8 357.6 L 701.0 366.0 L 702.1 366.0 L 703.3 366.0 L 704.5 366.0 L 705.7 366.0 L 706.8 366.0 L 708.0 366.0 L 709.1 290.6 L 710.3 358.5 L 711.4 366.0 L 712.6 366.0 L 713.8 366.0 L 715.0 366.0 L 716.1 366.0 L 717.3 232.1 L 718.4 365.9 L 719.6 366.0 L 720.8 366.0 L 722.0 366.0 L 723.2 232.1 L 724.3 366.0 L 725.5 366.0 L 726.6 366.0 L 727.8 366.0 L 729.0 366.0 L 730.1 366.0 L 731.3 366.0 L 732.4 366.0 L 733.6 366.0 L 734.7 366.0 L 735.9 290.1 L 737.1 366.0 L 738.3 366.0 L 739.4 366.0 L 740.6 366.0 L 741.8 366.0 L 742.9 250.9 L 744.1 366.0 L 745.2 366.0 L 746.4 366.0 L 747.5 365.9 L 748.7 365.9 L 749.9 353.8 L 751.1 366.0 L 752.3 366.0 L 753.4 366.0 L 754.6 366.0 L 755.7 366.0 L 756.9 366.0 L 758.1 232.1 L 759.2 366.0 L 760.4 366.0 L 761.5 366.0 L 762.7 366.0 L 763.9 366.0 L 765.0 366.0 L 766.2 236.0 L 767.4 366.0 L 768.5 366.0 L 769.7 366.0 L 770.8 366.0 L 772.0 366.0 L 773.2 366.0 L 774.3 264.0 L 775.5 366.0 L 776.7 366.0 L 777.8 366.0 L 779.0 366.0 L 780.1 366.0 L 781.3 366.0 L 782.5 366.0 L 783.6 314.8 L 784.8 366.0 L 786.0 366.0 L 787.2 366.0 L 788.3 366.0 L 789.5 366.0 L 790.7 366.0 L 791.8 366.0 L 793.0 366.0 L 794.2 366.0 L 795.3 366.0 L 796.5 366.0 L 797.6 366.0 L 798.8 366.0 L 800.0 366.0 L 801.2 366.0 L 802.3 302.1 L 803.5 360.9 L 804.7 365.9 L 805.8 365.8 L 806.9 366.0 L 808.1 366.0 L 809.3 366.0 L 810.5 366.0 L 811.7 366.0 L 812.8 366.0 L 814.0 366.0 L 815.1 316.2 L 816.3 366.0 L 817.4 366.0 L 818.6 366.0 L 819.7 366.0 L 820.9 316.3 L 822.1 366.0 L 823.2 366.0 L 824.4 366.0 L 825.6 366.0 L 826.8 366.0 L 828.0 234.7 L 829.1 366.0 L 830.2 366.0 L 831.4 366.0 L 832.6 366.0 L 833.8 366.0 L 835.0 232.1 L 836.2 366.0 L 837.3 366.0 L 838.5 366.0 L 839.6 366.0 L 840.8 366.0 L 842.0 324.5 L 843.2 366.0 L 844.3 366.0 L 845.5 366.0 L 846.6 366.0 L 847.8 366.0 L 848.9 366.0 L 850.3 252.0 L 851.4 366.0 L 852.6 366.0 L 853.8 366.0 L 854.9 366.0 L 856.1 366.0 L 857.2 366.0 L 858.5 303.0 L 859.7 366.0 L 860.8 366.0 L 862.0 365.9 L 863.2 365.8 L 864.3 366.0 L 865.5 366.0 L 866.6 244.9 L 867.8 366.0 L 869.0 366.0 L 870.1 366.0 L 871.3 366.0 L 872.4 366.0 L 873.6 366.0 L 874.8 366.0 L 875.9 276.4 L 877.1 366.0 L 878.3 366.0 L 879.4 366.0 L 880.6 366.0 L 881.7 366.0 L 883.0 366.0 L 884.1 366.0 L 885.3 290.4 L 886.4 358.5 L 887.6 366.0 L 888.7 366.0 L 889.9 366.0 L 891.1 366.0 L 892.3 366.0 L 893.4 366.0 L 894.6 232.1 L 895.8 366.0 L 896.9 366.0 L 898.0 366.0 L 899.3 366.0 L 900.5 232.1 L 901.7 366.0 L 902.8 366.0 L 904.0 366.0 L 905.1 366.0 L 906.3 299.9 L 907.6 366.0 L 908.7 366.0 L 909.9 366.0 L 911.1 366.0 L 912.2 366.0 L 913.4 306.3 L 914.5 366.0 L 915.7 366.0 L 916.9 366.0 L 918.0 366.0 L 919.2 365.9 L 920.4 315.6 L 921.5 366.0 L 922.7 366.0 L 923.9 366.0 L 925.1 366.0 L 926.2 366.0 L 927.4 234.4 L 928.5 366.0 L 929.7 366.0 L 930.8 366.0 L 932.1 366.0 L 933.2 366.0 L 934.4 366.0 L 935.5 366.0 L 936.7 366.0 L 937.9 366.0 L 939.0 366.0 L 940.2 366.0 L 941.4 366.0 L 942.6 314.3 L 943.7 366.0 L 944.9 366.0 L 946.0 366.0 L 947.2 366.0 L 948.4 366.0 L 949.6 366.0 L 950.7 340.1 L 951.9 366.0 L 953.1 365.7 L 955.6 366.0 L 956.8 366.0 L 957.9 366.0 L 959.1 366.0 L 960.2 366.0 L 961.4 366.0 L 962.5 366.0 L 963.7 366.0 L 964.9 366.0 L 966.0 366.0 L 967.2 366.0 L 968.3 366.0 L 969.5 366.0 L 970.7 366.0 L 971.8 366.0 L 973.0 366.0 L 974.2 366.0 L 975.3 366.0 L 976.5 365.9 L 977.6 365.8 L 978.8 346.4 L 980.0 366.0 L 981.2 366.0 L 982.3 366.0 L 983.5 366.0 L 984.7 366.0 L 985.8 366.0 L 986.9 366.0 L 988.1 366.0 L 989.4 366.0 L 990.5 366.0 L 991.7 366.0 L 992.8 366.0 L 994.0 366.0 L 995.2 366.0 L 996.3 366.0 L 997.6 313.3 L 998.7 366.0 L 999.9 366.0 L 1001.0 366.0 L 1002.2 366.0 L 1003.3 366.0 L 1004.5 365.9 L 1005.9 366.0 L 1007.1 366.0 L 1008.2 366.0 L 1009.4 366.0 L 1010.5 232.1 L 1011.7 366.0 L 1012.8 366.0 L 1014.0 366.0 L 1015.2 366.0 L 1016.3 366.0 L 1017.5 271.1 L 1018.6 366.0 L 1019.8 366.0 L 1020.9 366.0 L 1022.1 366.0 L 1023.3 366.0 L 1024.5 366.0 L 1025.6 352.9 L 1026.9 366.0 L 1028.2 366.0 L 1029.3 366.0 L 1030.5 366.0 L 1031.6 366.0 L 1032.8 325.2 L 1034.0 365.9 L 1035.1 365.9 L 1036.4 366.0 L 1037.5 366.0 L 1038.6 366.0 L 1039.8 366.0 L 1041.0 366.0 L 1042.1 366.0 L 1043.3 366.0 L 1044.5 366.0 L 1045.6 366.0 L 1046.8 366.0 L 1048.0 366.0 L 1049.1 366.0 L 1050.2 252.0 L 1051.4 366.0 L 1052.6 366.0 L 1053.7 366.0 L 1054.9 366.0 L 1056.1 366.0 L 1057.2 366.0 L 1058.4 366.0 L 1059.5 334.7 L 1060.7 366.0 L 1061.9 366.0 L 1063.1 366.0 L 1064.3 366.0 L 1065.4 366.0 L 1066.6 366.0 L 1067.8 366.0 L 1068.9 302.4 L 1070.1 366.0 L 1071.4 366.0 L 1072.5 366.0 L 1073.7 299.0 L 1074.9 365.9 L 1076.0 365.9" fill="none" stroke="#4C78A8" stroke-width="2.8" stroke-linejoin="round" stroke-linecap="round"/>
<path d="M 86.0 366.0 L 87.1 366.0 L 88.3 366.0 L 89.4 366.0 L 90.6 366.0 L 91.8 366.0 L 92.9 366.0 L 94.0 366.0 L 95.2 366.0 L 96.3 365.9 L 97.5 366.0 L 98.6 318.3 L 99.8 121.5 L 101.0 89.6 L 102.3 204.6 L 103.5 365.8 L 104.7 366.0 L 105.9 365.9 L 107.0 365.9 L 108.2 365.9 L 109.3 365.9 L 110.5 365.9 L 111.6 365.9 L 112.9 365.9 L 114.0 365.9 L 115.2 365.9 L 116.4 365.9 L 117.5 365.8 L 118.7 365.8 L 119.8 365.9 L 121.1 365.9 L 122.3 365.9 L 123.5 365.9 L 124.7 365.9 L 125.8 365.9 L 127.1 365.9 L 128.2 365.9 L 129.4 365.9 L 130.5 365.9 L 131.7 365.9 L 132.8 365.9 L 134.0 365.9 L 135.2 365.9 L 136.4 365.9 L 137.5 365.9 L 138.7 365.9 L 139.9 365.9 L 141.0 365.9 L 142.2 365.9 L 143.4 365.9 L 144.6 365.9 L 145.7 365.9 L 146.9 365.9 L 148.0 365.9 L 149.2 365.9 L 150.3 365.9 L 151.5 365.9 L 152.7 365.9 L 153.8 365.9 L 155.0 365.9 L 156.1 365.9 L 157.3 365.9 L 158.5 365.9 L 159.6 365.9 L 160.8 365.9 L 162.0 365.9 L 163.1 365.9 L 164.3 365.9 L 165.5 365.9 L 166.6 365.9 L 167.7 365.9 L 168.9 365.9 L 170.1 365.9 L 171.3 366.0 L 172.5 365.9 L 173.6 365.9 L 174.8 365.8 L 176.0 365.9 L 177.1 365.9 L 178.3 365.9 L 179.5 365.9 L 180.7 365.9 L 181.9 365.9 L 183.0 365.9 L 184.2 365.9 L 185.3 365.9 L 186.5 365.9 L 187.7 365.9 L 188.9 365.9 L 190.0 365.9 L 191.2 365.9 L 192.3 365.9 L 193.5 365.9 L 194.7 365.9 L 195.8 365.9 L 197.0 365.9 L 198.2 365.9 L 199.3 365.9 L 200.5 365.9 L 201.6 365.9 L 202.8 365.9 L 204.0 365.9 L 205.2 365.9 L 206.4 365.9 L 207.5 365.9 L 208.7 365.9 L 209.8 365.9 L 211.0 365.9 L 212.1 365.9 L 213.3 365.9 L 214.5 365.9 L 215.7 365.9 L 216.8 365.9 L 217.9 365.9 L 219.1 365.9 L 220.3 365.9 L 221.4 365.9 L 222.6 365.9 L 223.8 365.9 L 225.0 365.9 L 226.1 365.9 L 227.3 365.9 L 228.7 365.9 L 229.9 365.9 L 231.0 365.9 L 232.2 365.9 L 233.3 365.9 L 234.5 365.9 L 235.8 365.9 L 237.0 365.9 L 238.1 365.9 L 239.3 365.9 L 240.4 365.9 L 241.7 365.9 L 242.8 365.9 L 244.0 365.9 L 245.2 365.9 L 246.3 365.9 L 247.5 365.9 L 248.6 365.9 L 249.9 365.9 L 251.0 365.9 L 252.2 365.9 L 253.3 365.9 L 254.5 365.9 L 255.7 365.9 L 256.8 365.9 L 258.0 365.9 L 259.2 365.8 L 261.3 365.9 L 262.5 365.9 L 263.7 365.9 L 264.9 365.9 L 266.0 365.9 L 267.1 365.9 L 268.3 365.9 L 269.5 365.9 L 270.6 365.9 L 271.8 365.9 L 272.9 365.9 L 274.1 365.9 L 275.2 365.9 L 276.4 365.9 L 277.5 365.9 L 278.7 366.0 L 279.9 163.9 L 281.1 365.9 L 282.3 365.9 L 283.4 365.9 L 284.6 365.9 L 285.7 365.9 L 286.8 365.9 L 288.0 365.9 L 289.2 365.9 L 290.4 365.8 L 291.5 365.9 L 292.7 365.9 L 293.8 365.9 L 295.0 365.9 L 296.1 365.9 L 297.3 365.9 L 298.4 365.9 L 299.6 365.9 L 300.7 365.9 L 301.9 365.9 L 303.1 365.9 L 304.2 365.9 L 305.3 365.9 L 306.5 365.9 L 307.7 365.9 L 308.8 365.9 L 310.0 365.9 L 311.1 365.9 L 312.2 365.9 L 313.4 365.9 L 314.5 365.9 L 315.7 365.9 L 316.8 365.9 L 318.1 365.9 L 319.2 365.9 L 320.4 365.9 L 321.5 365.9 L 322.7 365.9 L 323.8 365.9 L 325.0 365.9 L 326.1 365.9 L 327.3 365.9 L 328.4 365.9 L 329.6 365.9 L 330.7 365.9 L 331.9 365.9 L 333.1 365.9 L 334.2 365.9 L 335.4 365.9 L 336.5 365.9 L 337.7 365.9 L 338.8 365.9 L 340.0 365.9 L 341.2 365.9 L 342.3 365.9 L 343.5 365.9 L 344.6 365.9 L 345.8 365.9 L 346.9 365.9 L 348.2 365.9 L 349.4 365.9 L 350.5 365.9 L 351.7 365.9 L 352.8 365.9 L 354.0 365.9 L 355.1 365.9 L 356.3 365.9 L 357.5 366.0 L 358.7 264.2 L 359.9 365.9 L 361.0 365.9 L 362.1 365.9 L 363.3 365.9 L 364.5 365.9 L 365.7 365.9 L 366.8 365.9 L 368.0 365.9 L 369.2 365.9 L 370.3 365.9 L 371.5 365.9 L 372.7 365.9 L 373.9 365.9 L 375.0 365.9 L 376.2 365.8 L 377.3 365.9 L 378.5 365.9 L 379.6 365.9 L 380.9 365.9 L 382.0 365.9 L 383.2 365.9 L 384.3 365.9 L 385.5 365.9 L 386.7 365.9 L 387.8 365.9 L 389.0 365.9 L 390.1 365.9 L 391.3 365.9 L 392.5 365.9 L 393.6 365.9 L 394.8 365.9 L 395.9 365.9 L 397.1 365.9 L 398.2 365.9 L 399.4 365.9 L 400.6 365.9 L 401.8 365.9 L 402.9 365.9 L 404.1 365.9 L 405.2 365.9 L 406.4 365.9 L 407.7 365.9 L 408.8 365.9 L 410.0 365.9 L 411.2 365.9 L 412.3 365.9 L 413.5 365.9 L 414.6 365.9 L 415.8 365.9 L 417.0 365.9 L 418.1 365.9 L 419.3 365.9 L 420.4 365.9 L 421.6 365.9 L 422.7 365.9 L 423.9 365.9 L 425.1 365.9 L 426.3 365.9 L 427.5 365.9 L 428.7 365.9 L 429.8 365.9 L 431.0 365.9 L 432.2 365.9 L 433.3 365.8 L 434.5 365.9 L 435.7 366.0 L 436.8 365.9 L 437.9 365.9 L 439.1 365.9 L 440.3 366.0 L 441.5 366.0 L 442.6 366.0 L 443.8 366.0 L 445.0 365.9 L 446.1 365.9 L 447.3 365.9 L 448.5 365.9 L 449.6 365.9 L 450.8 365.9 L 451.9 365.9 L 453.1 365.9 L 454.2 365.9 L 455.4 365.9 L 456.6 365.9 L 457.8 365.9 L 459.0 365.9 L 460.2 365.9 L 461.3 365.9 L 462.5 365.9 L 463.6 365.9 L 464.8 365.9 L 466.1 365.9 L 467.2 365.9 L 468.4 365.9 L 469.5 365.9 L 470.7 365.9 L 471.9 365.9 L 473.1 365.9 L 474.2 365.9 L 475.4 365.9 L 476.6 365.9 L 477.7 365.9 L 478.9 365.9 L 480.0 365.9 L 481.2 365.9 L 482.4 365.9 L 483.5 365.9 L 484.7 365.9 L 485.8 365.9 L 487.0 365.9 L 488.1 365.9 L 489.3 365.9 L 490.6 365.9 L 491.7 365.9 L 492.9 365.9 L 494.0 365.9 L 495.2 365.9 L 496.3 365.9 L 497.5 365.9 L 498.7 365.9 L 499.8 365.9 L 501.0 365.9 L 502.1 365.9 L 503.3 365.9 L 504.5 365.9 L 505.6 365.9 L 506.8 365.9 L 507.9 365.9 L 509.1 365.9 L 510.3 365.9 L 511.5 365.9 L 512.6 365.9 L 513.7 365.9 L 514.9 365.9 L 516.1 365.9 L 517.3 365.9 L 518.4 365.9 L 519.6 365.9 L 520.8 365.9 L 522.0 365.9 L 523.1 365.9 L 524.3 365.9 L 526.2 365.9 L 527.4 366.0 L 528.5 365.9 L 529.7 365.9 L 530.9 365.9 L 532.1 365.9 L 533.2 365.9 L 534.4 365.9 L 535.5 365.9 L 536.7 365.9 L 537.9 365.9 L 539.0 365.9 L 540.2 365.9 L 541.3 365.9 L 542.5 365.9 L 543.6 365.9 L 544.8 365.9 L 546.0 365.9 L 547.1 365.9 L 548.3 365.9 L 549.5 365.9 L 550.6 365.9 L 551.8 365.9 L 553.0 365.9 L 554.1 365.9 L 555.3 365.9 L 556.4 365.9 L 557.6 365.9 L 558.8 365.9 L 559.9 365.9 L 561.1 365.9 L 562.3 365.9 L 563.4 365.9 L 564.5 365.9 L 565.7 365.9 L 566.9 365.9 L 568.0 365.9 L 569.2 365.9 L 570.4 365.9 L 571.6 365.9 L 572.7 365.9 L 573.9 365.9 L 575.8 365.9 L 577.0 365.9 L 578.2 365.9 L 579.3 365.9 L 580.5 365.9 L 581.6 365.9 L 582.9 365.9 L 584.0 365.9 L 585.2 365.9 L 586.3 365.9 L 587.5 365.9 L 588.7 365.9 L 589.8 365.9 L 591.0 365.9 L 592.2 365.9 L 593.3 365.9 L 594.5 365.9 L 595.7 365.9 L 596.8 365.9 L 597.9 365.9 L 599.2 365.9 L 600.3 365.9 L 601.5 365.9 L 602.6 365.9 L 603.8 365.9 L 605.0 365.9 L 606.2 365.9 L 607.4 365.9 L 608.5 365.9 L 609.7 365.9 L 610.8 365.9 L 612.0 365.9 L 613.2 365.9 L 614.3 365.9 L 615.5 365.9 L 616.7 365.9 L 617.8 366.0 L 619.0 365.9 L 620.2 365.9 L 621.3 365.9 L 622.5 365.9 L 623.7 365.9 L 624.9 365.9 L 626.0 365.9 L 627.2 365.9 L 628.3 365.9 L 629.5 365.9 L 630.6 365.9 L 631.9 365.9 L 633.1 365.9 L 634.4 365.9 L 635.6 365.9 L 636.7 365.9 L 638.0 365.9 L 639.1 365.9 L 640.3 365.9 L 641.5 365.9 L 642.7 365.9 L 643.8 365.9 L 645.0 365.9 L 646.2 365.9 L 647.4 365.9 L 648.5 365.9 L 649.7 365.9 L 650.8 365.9 L 652.0 365.9 L 653.2 365.9 L 654.3 365.9 L 655.5 365.9 L 656.7 365.9 L 657.8 365.9 L 659.0 365.9 L 660.1 365.9 L 661.3 365.9 L 662.5 365.9 L 663.6 365.9 L 664.8 365.9 L 665.9 365.9 L 667.1 365.9 L 668.3 365.9 L 669.4 365.9 L 670.6 365.9 L 671.7 365.9 L 672.9 365.9 L 674.1 365.9 L 675.2 365.9 L 676.4 365.9 L 677.5 365.9 L 678.7 365.9 L 679.9 365.9 L 681.0 365.9 L 682.2 365.9 L 683.3 365.9 L 684.5 365.9 L 685.7 365.9 L 686.8 365.9 L 688.0 365.9 L 689.2 365.9 L 690.4 365.9 L 691.6 365.9 L 692.8 365.9 L 694.0 365.9 L 695.2 365.9 L 696.3 365.9 L 697.5 365.9 L 698.7 365.9 L 699.8 365.9 L 701.0 365.9 L 702.1 365.9 L 703.3 365.9 L 704.5 365.9 L 705.7 365.9 L 706.8 365.9 L 708.0 365.9 L 709.1 366.0 L 710.3 365.9 L 711.4 365.9 L 712.6 365.9 L 713.8 365.9 L 715.0 365.9 L 716.1 365.9 L 717.3 365.9 L 718.4 365.9 L 719.6 365.9 L 720.8 365.9 L 722.0 365.9 L 723.2 365.9 L 724.3 365.9 L 725.5 365.9 L 726.6 365.9 L 727.8 365.9 L 729.0 365.9 L 730.1 365.9 L 731.3 365.9 L 732.4 365.9 L 733.6 365.9 L 734.7 365.9 L 735.9 365.9 L 737.1 365.9 L 738.3 365.9 L 739.4 365.9 L 740.6 365.9 L 741.8 365.9 L 742.9 365.9 L 744.1 365.9 L 745.2 365.9 L 746.4 365.9 L 747.5 365.9 L 748.7 365.9 L 749.9 365.9 L 751.1 365.9 L 752.3 365.9 L 753.4 365.9 L 754.6 365.9 L 755.7 365.9 L 756.9 365.9 L 758.1 365.9 L 759.2 365.9 L 760.4 365.9 L 761.5 365.9 L 762.7 365.9 L 763.9 365.9 L 765.0 365.9 L 766.2 365.9 L 767.4 365.9 L 768.5 365.9 L 769.7 365.9 L 770.8 365.9 L 772.0 365.9 L 773.2 365.9 L 774.3 365.9 L 775.5 365.9 L 776.7 365.8 L 777.8 365.9 L 779.0 365.9 L 780.1 365.9 L 781.3 365.9 L 782.5 365.9 L 783.6 365.9 L 784.8 365.9 L 786.0 365.9 L 787.2 365.9 L 788.3 365.9 L 789.5 365.9 L 790.7 365.9 L 791.8 365.9 L 793.0 365.9 L 794.2 365.9 L 795.3 365.9 L 796.5 365.9 L 797.6 365.9 L 798.8 365.9 L 800.0 365.9 L 801.2 365.9 L 802.3 366.0 L 803.5 365.9 L 804.7 365.9 L 805.8 365.9 L 806.9 365.9 L 808.1 365.9 L 809.3 365.9 L 810.5 365.9 L 811.7 365.9 L 812.8 365.9 L 814.0 365.9 L 815.1 365.9 L 816.3 365.9 L 817.4 365.9 L 818.6 365.9 L 819.7 365.9 L 820.9 365.9 L 822.1 365.9 L 823.2 365.9 L 824.4 365.9 L 825.6 365.9 L 826.8 365.9 L 828.0 365.9 L 829.1 365.9 L 830.2 365.9 L 831.4 365.9 L 832.6 365.9 L 833.8 365.8 L 835.0 365.9 L 836.2 365.9 L 837.3 365.9 L 838.5 365.9 L 839.6 365.9 L 840.8 365.9 L 842.0 365.9 L 843.2 365.9 L 844.3 365.9 L 845.5 365.9 L 846.6 365.9 L 847.8 365.9 L 848.9 365.9 L 850.3 365.9 L 851.4 365.9 L 852.6 365.9 L 853.8 365.9 L 854.9 365.9 L 856.1 365.9 L 857.2 365.9 L 858.5 365.9 L 859.7 365.9 L 860.8 365.9 L 862.0 365.9 L 863.2 365.9 L 864.3 365.9 L 865.5 365.9 L 866.6 365.9 L 867.8 365.9 L 869.0 365.9 L 870.1 365.9 L 871.3 365.9 L 872.4 365.9 L 873.6 365.9 L 874.8 365.9 L 875.9 365.9 L 877.1 365.9 L 878.3 365.9 L 879.4 365.9 L 880.6 365.9 L 881.7 365.9 L 883.0 365.9 L 884.1 365.9 L 885.3 366.0 L 886.4 365.9 L 887.6 365.9 L 888.7 365.9 L 889.9 365.9 L 891.1 365.8 L 892.3 366.0 L 893.4 366.0 L 894.6 365.9 L 895.8 365.9 L 896.9 365.9 L 898.0 365.9 L 899.3 365.9 L 900.5 365.9 L 901.7 365.9 L 902.8 365.9 L 904.0 365.9 L 905.1 365.9 L 906.3 365.9 L 907.6 365.9 L 908.7 365.9 L 909.9 365.9 L 911.1 365.9 L 912.2 365.9 L 913.4 365.9 L 914.5 365.9 L 915.7 365.9 L 916.9 365.9 L 918.0 365.9 L 919.2 365.9 L 920.4 365.9 L 921.5 365.9 L 922.7 365.9 L 923.9 365.9 L 925.1 365.9 L 926.2 365.9 L 927.4 365.9 L 928.5 365.9 L 929.7 365.9 L 930.8 365.9 L 932.1 365.9 L 933.2 365.9 L 934.4 365.9 L 935.5 365.9 L 936.7 365.9 L 937.9 365.9 L 939.0 365.9 L 940.2 365.9 L 941.4 365.9 L 942.6 365.9 L 943.7 365.9 L 944.9 365.9 L 946.0 365.9 L 947.2 365.9 L 948.4 365.8 L 949.6 365.9 L 950.7 365.9 L 951.9 365.9 L 953.1 365.9 L 955.6 365.9 L 956.8 365.9 L 957.9 365.9 L 959.1 365.9 L 960.2 365.9 L 961.4 365.9 L 962.5 365.9 L 963.7 365.9 L 964.9 365.9 L 966.0 365.9 L 967.2 365.9 L 968.3 365.9 L 969.5 365.9 L 970.7 365.9 L 971.8 365.9 L 973.0 365.9 L 974.2 365.9 L 975.3 365.9 L 976.5 365.9 L 977.6 365.9 L 978.8 365.9 L 980.0 365.9 L 981.2 365.9 L 982.3 365.9 L 983.5 365.9 L 984.7 365.9 L 985.8 365.9 L 986.9 365.9 L 988.1 365.9 L 989.4 365.9 L 990.5 365.9 L 991.7 365.9 L 992.8 365.9 L 994.0 365.9 L 995.2 365.9 L 996.3 365.9 L 997.6 365.9 L 998.7 365.9 L 999.9 365.9 L 1001.0 365.9 L 1002.2 365.9 L 1003.3 365.9 L 1004.5 365.9 L 1005.9 365.8 L 1007.1 365.9 L 1008.2 365.9 L 1009.4 365.9 L 1010.5 365.9 L 1011.7 365.9 L 1012.8 365.9 L 1014.0 365.9 L 1015.2 365.9 L 1016.3 365.9 L 1017.5 365.9 L 1018.6 365.9 L 1019.8 365.9 L 1020.9 365.9 L 1022.1 365.9 L 1023.3 365.9 L 1024.5 365.9 L 1025.6 365.9 L 1026.9 365.9 L 1028.2 365.9 L 1029.3 365.9 L 1030.5 365.9 L 1031.6 365.9 L 1032.8 365.9 L 1034.0 365.9 L 1035.1 365.9 L 1036.4 365.9 L 1037.5 365.9 L 1038.6 365.9 L 1039.8 365.9 L 1041.0 365.9 L 1042.1 365.9 L 1043.3 365.9 L 1044.5 365.9 L 1045.6 365.9 L 1046.8 365.9 L 1048.0 365.9 L 1049.1 365.9 L 1050.2 365.9 L 1051.4 365.9 L 1052.6 365.9 L 1053.7 365.9 L 1054.9 365.9 L 1056.1 365.9 L 1057.2 365.9 L 1058.4 365.9 L 1059.5 365.9 L 1060.7 365.9 L 1061.9 365.9 L 1063.1 365.8 L 1064.3 365.9 L 1065.4 365.9 L 1066.6 365.9 L 1067.8 365.9 L 1068.9 365.9 L 1070.1 365.9 L 1071.4 365.9 L 1072.5 365.9 L 1073.7 365.8 L 1074.9 365.8 L 1076.0 365.8" fill="none" stroke="#F58518" stroke-width="2.8" stroke-linejoin="round" stroke-linecap="round"/>
<line x1="89.9" y1="62.0" x2="89.9" y2="366.0" stroke="#666" stroke-dasharray="4 4" stroke-width="1.2"/>
<text x="89.9" y="402.0" text-anchor="middle" font-size="12" fill="#444" font-family="Helvetica, Arial, sans-serif">submit</text>
<line x1="1075.6" y1="62.0" x2="1075.6" y2="366.0" stroke="#888" stroke-dasharray="4 4" stroke-width="1.2"/>
<text x="1075.6" y="402.0" text-anchor="middle" font-size="12" fill="#444" font-family="Helvetica, Arial, sans-serif">finish</text>
<line x1="86.0" y1="62.0" x2="86.0" y2="366.0" stroke="#f5f5f5" stroke-width="1"/>
<text x="86.0" y="418.0" text-anchor="middle" font-size="11" fill="#444" font-family="Helvetica, Arial, sans-serif">-0.14</text>
<line x1="209.8" y1="62.0" x2="209.8" y2="366.0" stroke="#f5f5f5" stroke-width="1"/>
<text x="209.8" y="418.0" text-anchor="middle" font-size="11" fill="#444" font-family="Helvetica, Arial, sans-serif">4.39</text>
<line x1="333.5" y1="62.0" x2="333.5" y2="366.0" stroke="#f5f5f5" stroke-width="1"/>
<text x="333.5" y="418.0" text-anchor="middle" font-size="11" fill="#444" font-family="Helvetica, Arial, sans-serif">8.93</text>
<line x1="457.2" y1="62.0" x2="457.2" y2="366.0" stroke="#f5f5f5" stroke-width="1"/>
<text x="457.2" y="418.0" text-anchor="middle" font-size="11" fill="#444" font-family="Helvetica, Arial, sans-serif">13.46</text>
<line x1="581.0" y1="62.0" x2="581.0" y2="366.0" stroke="#f5f5f5" stroke-width="1"/>
<text x="581.0" y="418.0" text-anchor="middle" font-size="11" fill="#444" font-family="Helvetica, Arial, sans-serif">18.00</text>
<line x1="704.8" y1="62.0" x2="704.8" y2="366.0" stroke="#f5f5f5" stroke-width="1"/>
<text x="704.8" y="418.0" text-anchor="middle" font-size="11" fill="#444" font-family="Helvetica, Arial, sans-serif">22.53</text>
<line x1="828.5" y1="62.0" x2="828.5" y2="366.0" stroke="#f5f5f5" stroke-width="1"/>
<text x="828.5" y="418.0" text-anchor="middle" font-size="11" fill="#444" font-family="Helvetica, Arial, sans-serif">27.07</text>
<line x1="952.2" y1="62.0" x2="952.2" y2="366.0" stroke="#f5f5f5" stroke-width="1"/>
<text x="952.2" y="418.0" text-anchor="middle" font-size="11" fill="#444" font-family="Helvetica, Arial, sans-serif">31.61</text>
<line x1="1076.0" y1="62.0" x2="1076.0" y2="366.0" stroke="#f5f5f5" stroke-width="1"/>
<text x="1076.0" y="418.0" text-anchor="middle" font-size="11" fill="#444" font-family="Helvetica, Arial, sans-serif">36.14</text>
<text x="581.0" y="386.0" text-anchor="middle" font-size="15" fill="#222" font-family="Helvetica, Arial, sans-serif">time since request submit (s)</text>
</svg>