<svg xmlns="http://www.w3.org/2000/svg" width="1100" height="420" viewBox="0 0 1100 420">
<rect width="1100" height="420" fill="white"/>
<text x="86" y="26" font-size="22" font-weight="700" font-family="Helvetica, Arial, sans-serif">tb_session_07_turn_001_reuse  phase=reuse  turn=1  prompt=24832  peak_tx=15.46 GiB/s  peak_rx=31.90 GiB/s</text>
<text x="86" y="46" font-size="13" fill="#444" font-family="Helvetica, Arial, sans-serif">response_window=27.331s, response_tx=32.893 GiB, response_rx=5.598 GiB, metrics_tx=41.777 GiB, metrics_rx=5.678 GiB</text>
<line x1="86" y1="366.0" x2="1076" y2="366.0" stroke="#ececec" stroke-width="1"/>
<text x="76" y="370.0" text-anchor="end" font-size="12" fill="#444" font-family="Helvetica, Arial, sans-serif">0.0</text>
<line x1="86" y1="305.2" x2="1076" y2="305.2" stroke="#ececec" stroke-width="1"/>
<text x="76" y="309.2" text-anchor="end" font-size="12" fill="#444" font-family="Helvetica, Arial, sans-serif">7.0</text>
<line x1="86" y1="244.4" x2="1076" y2="244.4" stroke="#ececec" stroke-width="1"/>
<text x="76" y="248.4" text-anchor="end" font-size="12" fill="#444" font-family="Helvetica, Arial, sans-serif">14.0</text>
<line x1="86" y1="183.6" x2="1076" y2="183.6" stroke="#ececec" stroke-width="1"/>
<text x="76" y="187.6" text-anchor="end" font-size="12" fill="#444" font-family="Helvetica, Arial, sans-serif">21.1</text>
<line x1="86" y1="122.8" x2="1076" y2="122.8" stroke="#ececec" stroke-width="1"/>
<text x="76" y="126.8" text-anchor="end" font-size="12" fill="#444" font-family="Helvetica, Arial, sans-serif">28.1</text>
<line x1="86" y1="62.0" x2="1076" y2="62.0" stroke="#ececec" stroke-width="1"/>
<text x="76" y="66.0" text-anchor="end" font-size="12" fill="#444" font-family="Helvetica, Arial, sans-serif">35.1</text>
<line x1="86" y1="366.0" x2="1076" y2="366.0" stroke="#222" stroke-width="1.4"/>
<line x1="86" y1="62.0" x2="86" y2="366.0" stroke="#222" stroke-width="1.4"/>
<rect x="91.1" y="62.0" width="984.1" height="304.0" fill="#F58518" opacity="0.08"/>
<path d="M 86.0 366.0 L 87.5 366.0 L 89.0 366.0 L 90.5 365.9 L 92.1 365.9 L 93.6 366.0 L 95.1 366.0 L 96.6 366.0 L 98.1 366.0 L 99.6 366.0 L 101.2 366.0 L 102.7 366.0 L 104.2 338.6 L 105.8 338.2 L 107.6 338.2 L 109.2 366.0 L 110.7 349.2 L 112.2 347.4 L 113.8 366.0 L 115.3 366.0 L 116.8 366.0 L 118.3 366.0 L 119.8 348.0 L 121.5 366.0 L 123.0 366.0 L 124.5 366.0 L 126.1 366.0 L 127.6 293.1 L 129.1 366.0 L 130.6 366.0 L 132.3 366.0 L 133.9 366.0 L 135.5 232.1 L 137.1 366.0 L 138.6 366.0 L 140.2 366.0 L 141.7 366.0 L 143.3 366.0 L 144.8 252.8 L 146.3 366.0 L 147.8 366.0 L 149.4 366.0 L 151.0 366.0 L 152.5 366.0 L 154.0 232.1 L 155.5 366.0 L 157.1 366.0 L 158.6 366.0 L 160.1 366.0 L 161.8 366.0 L 163.3 359.1 L 164.8 366.0 L 166.3 365.9 L 167.9 365.9 L 169.4 366.0 L 170.9 366.0 L 172.5 366.0 L 174.0 307.2 L 175.5 366.0 L 177.1 366.0 L 178.6 366.0 L 180.1 366.0 L 181.6 366.0 L 183.1 366.0 L 184.7 366.0 L 186.2 366.0 L 187.8 366.0 L 189.3 366.0 L 190.9 366.0 L 192.4 366.0 L 193.9 366.0 L 195.4 366.0 L 196.9 274.8 L 198.6 366.0 L 200.1 366.0 L 201.7 366.0 L 203.2 366.0 L 204.7 366.0 L 206.2 366.0 L 207.8 366.0 L 209.4 366.0 L 210.9 366.0 L 212.5 366.0 L 214.0 366.0 L 215.6 366.0 L 217.1 366.0 L 218.7 366.0 L 220.2 366.0 L 221.7 366.0 L 223.3 366.0 L 224.8 366.0 L 226.3 366.0 L 227.9 261.7 L 229.4 366.0 L 231.0 366.0 L 232.5 366.0 L 234.0 366.0 L 235.5 265.6 L 237.1 366.0 L 238.6 366.0 L 240.1 365.9 L 241.8 365.9 L 243.3 365.9 L 244.8 366.0 L 246.3 366.0 L 247.9 366.0 L 249.4 366.0 L 250.9 366.0 L 252.5 267.9 L 254.0 366.0 L 255.6 366.0 L 257.1 366.0 L 258.6 366.0 L 260.1 366.0 L 261.6 292.7 L 263.2 366.0 L 264.7 366.0 L 266.3 366.0 L 267.9 366.0 L 269.4 366.0 L 270.9 366.0 L 272.4 365.9 L 274.4 366.0 L 275.9 366.0 L 277.4 366.0 L 278.9 365.9 L 280.4 365.9 L 282.0 232.1 L 283.6 366.0 L 285.2 366.0 L 286.7 366.0 L 288.3 366.0 L 289.8 366.0 L 291.4 366.0 L 293.0 357.1 L 294.5 366.0 L 296.0 366.0 L 297.5 366.0 L 299.1 366.0 L 300.6 366.0 L 302.3 366.0 L 303.8 280.4 L 305.3 366.0 L 306.8 366.0 L 308.3 366.0 L 309.9 366.0 L 311.4 366.0 L 313.0 366.0 L 314.6 338.2 L 317.3 365.9 L 318.9 365.9 L 320.5 366.0 L 322.0 366.0 L 323.5 366.0 L 325.1 366.0 L 326.6 366.0 L 328.1 366.0 L 329.6 366.0 L 331.2 366.0 L 332.7 366.0 L 334.2 366.0 L 335.7 366.0 L 337.2 366.0 L 338.7 366.0 L 340.3 323.4 L 341.9 362.1 L 343.5 366.0 L 345.0 366.0 L 346.5 366.0 L 348.0 366.0 L 349.5 366.0 L 351.1 339.2 L 352.6 366.0 L 354.2 366.0 L 355.7 366.0 L 357.2 366.0 L 358.8 299.1 L 360.3 366.0 L 361.8 366.0 L 363.3 366.0 L 364.8 366.0 L 366.4 366.0 L 367.9 272.1 L 369.4 366.0 L 370.9 366.0 L 372.4 366.0 L 374.0 366.0 L 375.5 366.0 L 377.0 315.8 L 378.5 366.0 L 380.0 366.0 L 381.6 366.0 L 383.1 366.0 L 384.6 366.0 L 386.1 366.0 L 387.6 319.6 L 389.1 366.0 L 390.6 366.0 L 392.3 365.9 L 393.8 365.9 L 395.3 366.0 L 396.8 359.8 L 398.3 366.0 L 399.8 366.0 L 401.4 366.0 L 402.9 366.0 L 404.4 366.0 L 405.9 366.0 L 407.5 366.0 L 409.0 366.0 L 410.5 366.0 L 412.1 366.0 L 413.6 366.0 L 415.1 366.0 L 416.6 366.0 L 418.1 366.0 L 419.6 250.6 L 421.2 366.0 L 422.7 366.0 L 424.3 366.0 L 425.8 366.0 L 427.3 366.0 L 428.8 366.0 L 430.3 365.9 L 432.0 365.9 L 433.5 366.0 L 435.1 366.0 L 436.6 366.0 L 438.1 366.0 L 439.6 366.0 L 441.2 366.0 L 442.8 366.0 L 444.3 366.0 L 445.8 354.3 L 447.4 366.0 L 448.9 366.0 L 450.4 366.0 L 452.0 366.0 L 453.6 366.0 L 455.1 238.8 L 456.6 366.0 L 458.1 366.0 L 459.7 366.0 L 461.2 366.0 L 462.7 366.0 L 464.3 366.0 L 465.9 366.0 L 467.4 366.0 L 468.9 366.0 L 470.5 366.0 L 472.0 294.2 L 473.5 366.0 L 475.1 366.0 L 476.7 366.0 L 478.2 366.0 L 479.7 366.0 L 481.3 315.1 L 482.8 366.0 L 484.3 366.0 L 485.9 366.0 L 487.4 366.0 L 488.9 366.0 L 490.4 366.0 L 492.0 316.2 L 493.5 366.0 L 495.0 366.0 L 496.6 366.0 L 498.1 366.0 L 499.7 366.0 L 501.2 366.0 L 502.7 366.0 L 504.3 366.0 L 505.8 365.9 L 507.3 365.9 L 508.8 366.0 L 510.5 366.0 L 512.0 332.5 L 513.6 366.0 L 515.1 366.0 L 516.6 366.0 L 518.2 366.0 L 519.7 366.0 L 521.2 366.0 L 522.8 366.0 L 524.3 366.0 L 525.8 366.0 L 527.3 366.0 L 528.9 366.0 L 530.4 366.0 L 532.0 366.0 L 533.5 366.0 L 535.1 232.1 L 536.7 366.0 L 538.2 366.0 L 539.8 366.0 L 541.3 366.0 L 542.8 366.0 L 544.4 366.0 L 545.9 366.0 L 547.4 232.1 L 549.0 358.6 L 550.5 366.0 L 552.0 366.0 L 553.6 366.0 L 555.1 366.0 L 556.7 366.0 L 558.2 366.0 L 559.7 283.1 L 561.2 366.0 L 562.8 366.0 L 564.3 366.0 L 565.9 366.0 L 567.4 235.0 L 568.9 366.0 L 570.4 366.0 L 572.0 366.0 L 573.5 366.0 L 575.0 314.3 L 576.7 366.0 L 578.3 366.0 L 579.8 366.0 L 581.3 365.9 L 582.8 365.9 L 584.3 237.9 L 585.9 366.0 L 587.6 366.0 L 589.1 366.0 L 590.7 366.0 L 592.2 366.0 L 593.7 313.2 L 595.2 366.0 L 596.8 366.0 L 598.4 366.0 L 599.9 366.0 L 601.4 366.0 L 602.9 232.1 L 604.5 366.0 L 606.0 366.0 L 607.5 366.0 L 609.1 366.0 L 610.6 366.0 L 612.1 319.5 L 613.7 366.0 L 615.2 366.0 L 616.7 366.0 L 618.2 366.0 L 619.9 365.9 L 621.4 366.0 L 622.9 232.8 L 624.5 366.0 L 626.0 366.0 L 627.5 366.0 L 629.0 366.0 L 630.6 366.0 L 632.1 366.0 L 633.7 232.1 L 635.2 366.0 L 636.7 366.0 L 638.3 366.0 L 639.8 366.0 L 641.3 366.0 L 642.8 366.0 L 644.4 344.0 L 645.9 366.0 L 647.5 366.0 L 649.0 366.0 L 650.5 366.0 L 652.0 366.0 L 653.6 366.0 L 655.2 366.0 L 656.7 232.1 L 658.3 365.9 L 659.9 366.0 L 661.4 366.0 L 662.9 366.0 L 664.4 365.9 L 667.0 366.0 L 668.5 366.0 L 670.0 362.3 L 671.5 366.0 L 673.2 366.0 L 674.7 366.0 L 676.2 366.0 L 677.8 366.0 L 679.3 270.0 L 680.8 366.0 L 682.3 366.0 L 683.8 366.0 L 685.4 366.0 L 686.9 248.9 L 688.4 366.0 L 690.0 366.0 L 691.5 366.0 L 693.0 366.0 L 694.5 365.9 L 696.1 365.9 L 697.6 366.0 L 699.2 366.0 L 700.7 366.0 L 702.2 366.0 L 703.8 232.1 L 705.3 366.0 L 706.8 366.0 L 708.4 366.0 L 709.9 366.0 L 711.5 366.0 L 713.0 274.9 L 714.5 366.0 L 716.0 366.0 L 717.5 366.0 L 719.1 366.0 L 720.6 366.0 L 722.2 232.1 L 723.7 366.0 L 725.2 366.0 L 726.8 366.0 L 728.3 366.0 L 729.8 365.9 L 732.4 250.9 L 733.9 365.9 L 735.5 366.0 L 737.0 366.0 L 738.5 366.0 L 740.1 366.0 L 741.7 366.0 L 743.3 360.7 L 744.8 366.0 L 746.3 366.0 L 747.8 366.0 L 749.4 366.0 L 750.9 366.0 L 752.5 366.0 L 754.0 314.2 L 755.5 366.0 L 757.0 366.0 L 758.6 366.0 L 760.1 366.0 L 761.6 366.0 L 763.2 366.0 L 764.7 274.2 L 766.3 366.0 L 767.8 366.0 L 769.4 366.0 L 770.9 366.0 L 772.5 366.0 L 774.1 366.0 L 775.6 366.0 L 777.1 234.9 L 778.6 366.0 L 780.2 366.0 L 781.7 366.0 L 783.2 366.0 L 784.8 366.0 L 786.3 366.0 L 787.9 366.0 L 789.4 232.2 L 790.9 366.0 L 792.5 366.0 L 794.0 366.0 L 795.6 366.0 L 797.2 366.0 L 798.7 269.5 L 800.2 366.0 L 801.7 366.0 L 803.2 366.0 L 804.8 366.0 L 806.5 323.9 L 808.0 366.0 L 809.7 366.0 L 811.3 366.0 L 812.8 366.0 L 814.4 275.0 L 816.0 366.0 L 817.6 366.0 L 819.1 366.0 L 820.6 366.0 L 822.2 362.1 L 823.7 366.0 L 825.3 366.0 L 826.9 366.0 L 828.4 366.0 L 829.9 366.0 L 831.4 253.7 L 832.9 366.0 L 834.5 366.0 L 836.0 366.0 L 837.6 366.0 L 839.1 366.0 L 840.6 316.6 L 842.1 366.0 L 843.7 366.0 L 845.2 365.9 L 846.8 365.9 L 848.3 366.0 L 849.8 366.0 L 851.3 315.4 L 852.9 366.0 L 854.4 366.0 L 855.9 366.0 L 857.5 366.0 L 859.0 366.0 L 860.6 366.0 L 862.1 366.0 L 863.6 366.0 L 865.1 366.0 L 866.7 366.0 L 868.2 366.0 L 869.7 366.0 L 871.2 366.0 L 872.8 360.5 L 874.3 366.0 L 875.8 366.0 L 877.4 366.0 L 878.9 366.0 L 880.4 366.0 L 882.0 366.0 L 883.6 232.1 L 885.2 365.9 L 886.9 366.0 L 888.4 366.0 L 889.9 366.0 L 891.4 366.0 L 893.0 366.0 L 894.5 366.0 L 896.1 357.6 L 897.6 366.0 L 899.1 366.0 L 900.7 366.0 L 902.2 366.0 L 903.8 366.0 L 905.3 366.0 L 906.8 366.0 L 908.3 290.6 L 909.9 358.5 L 911.4 366.0 L 912.9 366.0 L 914.5 366.0 L 916.1 366.0 L 917.6 366.0 L 919.1 232.1 L 920.6 365.9 L 922.2 366.0 L 923.8 366.0 L 925.4 366.0 L 926.9 232.1 L 928.4 366.0 L 930.0 366.0 L 931.5 366.0 L 933.0 366.0 L 934.5 366.0 L 936.0 366.0 L 937.6 366.0 L 939.1 366.0 L 940.6 366.0 L 942.2 366.0 L 943.7 290.1 L 945.2 366.0 L 946.8 366.0 L 948.4 366.0 L 949.9 366.0 L 951.4 366.0 L 952.9 250.9 L 954.5 366.0 L 956.0 366.0 L 957.5 366.0 L 959.0 365.9 L 960.6 365.9 L 962.2 353.8 L 963.7 366.0 L 965.3 366.0 L 966.8 366.0 L 968.3 366.0 L 969.8 366.0 L 971.4 366.0 L 972.9 232.1 L 974.5 366.0 L 976.0 366.0 L 977.5 366.0 L 979.1 366.0 L 980.6 366.0 L 982.1 366.0 L 983.7 236.0 L 985.2 366.0 L 986.7 366.0 L 988.2 366.0 L 989.8 366.0 L 991.3 366.0 L 992.9 366.0 L 994.4 264.0 L 995.9 366.0 L 997.5 366.0 L 999.0 366.0 L 1000.5 366.0 L 1002.0 366.0 L 1003.6 366.0 L 1005.2 366.0 L 1006.7 314.8 L 1008.3 366.0 L 1009.8 366.0 L 1011.3 366.0 L 1012.8 366.0 L 1014.4 366.0 L 1015.9 366.0 L 1017.5 366.0 L 1019.1 366.0 L 1020.6 366.0 L 1022.1 366.0 L 1023.6 366.0 L 1025.2 366.0 L 1026.7 366.0 L 1028.3 366.0 L 1029.8 366.0 L 1031.3 302.1 L 1032.8 360.9 L 1034.4 365.9 L 1035.9 365.8 L 1037.4 366.0 L 1039.0 366.0 L 1040.6 366.0 L 1042.1 366.0 L 1043.7 366.0 L 1045.2 366.0 L 1046.7 366.0 L 1048.2 316.2 L 1049.8 366.0 L 1051.3 366.0 L 1052.8 366.0 L 1054.3 366.0 L 1055.9 316.3 L 1057.4 366.0 L 1058.9 366.0 L 1060.5 366.0 L 1062.1 366.0 L 1063.6 366.0 L 1065.2 234.7 L 1066.7 366.0 L 1068.2 366.0 L 1069.7 366.0 L 1071.2 366.0 L 1072.9 366.0 L 1074.4 232.1 L 1076.0 366.0" fill="none" stroke="#4C78A8" stroke-width="2.8" stroke-linejoin="round" stroke-linecap="round"/>
<path d="M 86.0 366.0 L 87.5 366.0 L 89.0 366.0 L 90.5 366.0 L 92.1 366.0 L 93.6 366.0 L 95.1 366.0 L 96.6 366.0 L 98.1 366.0 L 99.6 365.9 L 101.2 366.0 L 102.7 318.3 L 104.2 121.5 L 105.8 89.6 L 107.6 204.6 L 109.2 365.8 L 110.7 366.0 L 112.2 365.9 L 113.8 365.9 L 115.3 365.9 L 116.8 365.9 L 118.3 365.9 L 119.8 365.9 L 121.5 365.9 L 123.0 365.9 L 124.5 365.9 L 126.1 365.9 L 127.6 365.8 L 129.1 365.8 L 130.6 365.9 L 132.3 365.9 L 133.9 365.9 L 135.5 365.9 L 137.1 365.9 L 138.6 365.9 L 140.2 365.9 L 141.7 365.9 L 143.3 365.9 L 144.8 365.9 L 146.3 365.9 L 147.8 365.9 L 149.4 365.9 L 151.0 365.9 L 152.5 365.9 L 154.0 365.9 L 155.5 365.9 L 157.1 365.9 L 158.6 365.9 L 160.1 365.9 L 161.8 365.9 L 163.3 365.9 L 164.8 365.9 L 166.3 365.9 L 167.9 365.9 L 169.4 365.9 L 170.9 365.9 L 172.5 365.9 L 174.0 365.9 L 175.5 365.9 L 177.1 365.9 L 178.6 365.9 L 180.1 365.9 L 181.6 365.9 L 183.1 365.9 L 184.7 365.9 L 186.2 365.9 L 187.8 365.9 L 189.3 365.9 L 190.9 365.9 L 192.4 365.9 L 193.9 365.9 L 195.4 365.9 L 196.9 365.9 L 198.6 366.0 L 200.1 365.9 L 201.7 365.9 L 203.2 365.8 L 204.7 365.9 L 206.2 365.9 L 207.8 365.9 L 209.4 365.9 L 210.9 365.9 L 212.5 365.9 L 214.0 365.9 L 215.6 365.9 L 217.1 365.9 L 218.7 365.9 L 220.2 365.9 L 221.7 365.9 L 223.3 365.9 L 224.8 365.9 L 226.3 365.9 L 227.9 365.9 L 229.4 365.9 L 231.0 365.9 L 232.5 365.9 L 234.0 365.9 L 235.5 365.9 L 237.1 365.9 L 238.6 365.9 L 240.1 365.9 L 241.8 365.9 L 243.3 365.9 L 244.8 365.9 L 246.3 365.9 L 247.9 365.9 L 249.4 365.9 L 250.9 365.9 L 252.5 365.9 L 254.0 365.9 L 255.6 365.9 L 257.1 365.9 L 258.6 365.9 L 260.1 365.9 L 261.6 365.9 L 263.2 365.9 L 264.7 365.9 L 266.3 365.9 L 267.9 365.9 L 269.4 365.9 L 270.9 365.9 L 272.4 365.9 L 274.4 365.9 L 275.9 365.9 L 277.4 365.9 L 278.9 365.9 L 280.4 365.9 L 282.0 365.9 L 283.6 365.9 L 285.2 365.9 L 286.7 365.9 L 288.3 365.9 L 289.8 365.9 L 291.4 365.9 L 293.0 365.9 L 294.5 365.9 L 296.0 365.9 L 297.5 365.9 L 299.1 365.9 L 300.6 365.9 L 302.3 365.9 L 303.8 365.9 L 305.3 365.9 L 306.8 365.9 L 308.3 365.9 L 309.9 365.9 L 311.4 365.9 L 313.0 365.9 L 314.6 365.8 L 317.3 365.9 L 318.9 365.9 L 320.5 365.9 L 322.0 365.9 L 323.5 365.9 L 325.1 365.9 L 326.6 365.9 L 328.1 365.9 L 329.6 365.9 L 331.2 365.9 L 332.7 365.9 L 334.2 365.9 L 335.7 365.9 L 337.2 365.9 L 338.7 365.9 L 340.3 366.0 L 341.9 163.9 L 343.5 365.9 L 345.0 365.9 L 346.5 365.9 L 348.0 365.9 L 349.5 365.9 L 351.1 365.9 L 352.6 365.9 L 354.2 365.9 L 355.7 365.8 L 357.2 365.9 L 358.8 365.9 L 360.3 365.9 L 361.8 365.9 L 363.3 365.9 L 364.8 365.9 L 366.4 365.9 L 367.9 365.9 L 369.4 365.9 L 370.9 365.9 L 372.4 365.9 L 374.0 365.9 L 375.5 365.9 L 377.0 365.9 L 378.5 365.9 L 380.0 365.9 L 381.6 365.9 L 383.1 365.9 L 384.6 365.9 L 386.1 365.9 L 387.6 365.9 L 389.1 365.9 L 390.6 365.9 L 392.3 365.9 L 393.8 365.9 L 395.3 365.9 L 396.8 365.9 L 398.3 365.9 L 399.8 365.9 L 401.4 365.9 L 402.9 365.9 L 404.4 365.9 L 405.9 365.9 L 407.5 365.9 L 409.0 365.9 L 410.5 365.9 L 412.1 365.9 L 413.6 365.9 L 415.1 365.9 L 416.6 365.9 L 418.1 365.9 L 419.6 365.9 L 421.2 365.9 L 422.7 365.9 L 424.3 365.9 L 425.8 365.9 L 427.3 365.9 L 428.8 365.9 L 430.3 365.9 L 432.0 365.9 L 433.5 365.9 L 435.1 365.9 L 436.6 365.9 L 438.1 365.9 L 439.6 365.9 L 441.2 365.9 L 442.8 365.9 L 444.3 366.0 L 445.8 264.2 L 447.4 365.9 L 448.9 365.9 L 450.4 365.9 L 452.0 365.9 L 453.6 365.9 L 455.1 365.9 L 456.6 365.9 L 458.1 365.9 L 459.7 365.9 L 461.2 365.9 L 462.7 365.9 L 464.3 365.9 L 465.9 365.9 L 467.4 365.9 L 468.9 365.8 L 470.5 365.9 L 472.0 365.9 L 473.5 365.9 L 475.1 365.9 L 476.7 365.9 L 478.2 365.9 L 479.7 365.9 L 481.3 365.9 L 482.8 365.9 L 484.3 365.9 L 485.9 365.9 L 487.4 365.9 L 488.9 365.9 L 490.4 365.9 L 492.0 365.9 L 493.5 365.9 L 495.0 365.9 L 496.6 365.9 L 498.1 365.9 L 499.7 365.9 L 501.2 365.9 L 502.7 365.9 L 504.3 365.9 L 505.8 365.9 L 507.3 365.9 L 508.8 365.9 L 510.5 365.9 L 512.0 365.9 L 513.6 365.9 L 515.1 365.9 L 516.6 365.9 L 518.2 365.9 L 519.7 365.9 L 521.2 365.9 L 522.8 365.9 L 524.3 365.9 L 525.8 365.9 L 527.3 365.9 L 528.9 365.9 L 530.4 365.9 L 532.0 365.9 L 533.5 365.9 L 535.1 365.9 L 536.7 365.9 L 538.2 365.9 L 539.8 365.9 L 541.3 365.9 L 542.8 365.9 L 544.4 365.8 L 545.9 365.9 L 547.4 366.0 L 549.0 365.9 L 550.5 365.9 L 552.0 365.9 L 553.6 366.0 L 555.1 366.0 L 556.7 366.0 L 558.2 366.0 L 559.7 365.9 L 561.2 365.9 L 562.8 365.9 L 564.3 365.9 L 565.9 365.9 L 567.4 365.9 L 568.9 365.9 L 570.4 365.9 L 572.0 365.9 L 573.5 365.9 L 575.0 365.9 L 576.7 365.9 L 578.3 365.9 L 579.8 365.9 L 581.3 365.9 L 582.8 365.9 L 584.3 365.9 L 585.9 365.9 L 587.6 365.9 L 589.1 365.9 L 590.7 365.9 L 592.2 365.9 L 593.7 365.9 L 595.2 365.9 L 596.8 365.9 L 598.4 365.9 L 599.9 365.9 L 601.4 365.9 L 602.9 365.9 L 604.5 365.9 L 606.0 365.9 L 607.5 365.9 L 609.1 365.9 L 610.6 365.9 L 612.1 365.9 L 613.7 365.9 L 615.2 365.9 L 616.7 365.9 L 618.2 365.9 L 619.9 365.9 L 621.4 365.9 L 622.9 365.9 L 624.5 365.9 L 626.0 365.9 L 627.5 365.9 L 629.0 365.9 L 630.6 365.9 L 632.1 365.9 L 633.7 365.9 L 635.2 365.9 L 636.7 365.9 L 638.3 365.9 L 639.8 365.9 L 641.3 365.9 L 642.8 365.9 L 644.4 365.9 L 645.9 365.9 L 647.5 365.9 L 649.0 365.9 L 650.5 365.9 L 652.0 365.9 L 653.6 365.9 L 655.2 365.9 L 656.7 365.9 L 658.3 365.9 L 659.9 365.9 L 661.4 365.9 L 662.9 365.9 L 664.4 365.9 L 667.0 365.9 L 668.5 366.0 L 670.0 365.9 L 671.5 365.9 L 673.2 365.9 L 674.7 365.9 L 676.2 365.9 L 677.8 365.9 L 679.3 365.9 L 680.8 365.9 L 682.3 365.9 L 683.8 365.9 L 685.4 365.9 L 686.9 365.9 L 688.4 365.9 L 690.0 365.9 L 691.5 365.9 L 693.0 365.9 L 694.5 365.9 L 696.1 365.9 L 697.6 365.9 L 699.2 365.9 L 700.7 365.9 L 702.2 365.9 L 703.8 365.9 L 705.3 365.9 L 706.8 365.9 L 708.4 365.9 L 709.9 365.9 L 711.5 365.9 L 713.0 365.9 L 714.5 365.9 L 716.0 365.9 L 717.5 365.9 L 719.1 365.9 L 720.6 365.9 L 722.2 365.9 L 723.7 365.9 L 725.2 365.9 L 726.8 365.9 L 728.3 365.9 L 729.8 365.9 L 732.4 365.9 L 733.9 365.9 L 735.5 365.9 L 737.0 365.9 L 738.5 365.9 L 740.1 365.9 L 741.7 365.9 L 743.3 365.9 L 744.8 365.9 L 746.3 365.9 L 747.8 365.9 L 749.4 365.9 L 750.9 365.9 L 752.5 365.9 L 754.0 365.9 L 755.5 365.9 L 757.0 365.9 L 758.6 365.9 L 760.1 365.9 L 761.6 365.9 L 763.2 365.9 L 764.7 365.9 L 766.3 365.9 L 767.8 365.9 L 769.4 365.9 L 770.9 365.9 L 772.5 365.9 L 774.1 365.9 L 775.6 365.9 L 777.1 365.9 L 778.6 365.9 L 780.2 365.9 L 781.7 365.9 L 783.2 365.9 L 784.8 365.9 L 786.3 365.9 L 787.9 366.0 L 789.4 365.9 L 790.9 365.9 L 792.5 365.9 L 794.0 365.9 L 795.6 365.9 L 797.2 365.9 L 798.7 365.9 L 800.2 365.9 L 801.7 365.9 L 803.2 365.9 L 804.8 365.9 L 806.5 365.9 L 808.0 365.9 L 809.7 365.9 L 811.3 365.9 L 812.8 365.9 L 814.4 365.9 L 816.0 365.9 L 817.6 365.9 L 819.1 365.9 L 820.6 365.9 L 822.2 365.9 L 823.7 365.9 L 825.3 365.9 L 826.9 365.9 L 828.4 365.9 L 829.9 365.9 L 831.4 365.9 L 832.9 365.9 L 834.5 365.9 L 836.0 365.9 L 837.6 365.9 L 839.1 365.9 L 840.6 365.9 L 842.1 365.9 L 843.7 365.9 L 845.2 365.9 L 846.8 365.9 L 848.3 365.9 L 849.8 365.9 L 851.3 365.9 L 852.9 365.9 L 854.4 365.9 L 855.9 365.9 L 857.5 365.9 L 859.0 365.9 L 860.6 365.9 L 862.1 365.9 L 863.6 365.9 L 865.1 365.9 L 866.7 365.9 L 868.2 365.9 L 869.7 365.9 L 871.2 365.9 L 872.8 365.9 L 874.3 365.9 L 875.8 365.9 L 877.4 365.9 L 878.9 365.9 L 880.4 365.9 L 882.0 365.9 L 883.6 365.9 L 885.2 365.9 L 886.9 365.9 L 888.4 365.9 L 889.9 365.9 L 891.4 365.9 L 893.0 365.9 L 894.5 365.9 L 896.1 365.9 L 897.6 365.9 L 899.1 365.9 L 900.7 365.9 L 902.2 365.9 L 903.8 365.9 L 905.3 365.9 L 906.8 365.9 L 908.3 366.0 L 909.9 365.9 L 911.4 365.9 L 912.9 365.9 L 914.5 365.9 L 916.1 365.9 L 917.6 365.9 L 919.1 365.9 L 920.6 365.9 L 922.2 365.9 L 923.8 365.9 L 925.4 365.9 L 926.9 365.9 L 928.4 365.9 L 930.0 365.9 L 931.5 365.9 L 933.0 365.9 L 934.5 365.9 L 936.0 365.9 L 937.6 365.9 L 939.1 365.9 L 940.6 365.9 L 942.2 365.9 L 943.7 365.9 L 945.2 365.9 L 946.8 365.9 L 948.4 365.9 L 949.9 365.9 L 951.4 365.9 L 952.9 365.9 L 954.5 365.9 L 956.0 365.9 L 957.5 365.9 L 959.0 365.9 L 960.6 365.9 L 962.2 365.9 L 963.7 365.9 L 965.3 365.9 L 966.8 365.9 L 968.3 365.9 L 969.8 365.9 L 971.4 365.9 L 972.9 365.9 L 974.5 365.9 L 976.0 365.9 L 977.5 365.9 L 979.1 365.9 L 980.6 365.9 L 982.1 365.9 L 983.7 365.9 L 985.2 365.9 L 986.7 365.9 L 988.2 365.9 L 989.8 365.9 L 991.3 365.9 L 992.9 365.9 L 994.4 365.9 L 995.9 365.9 L 997.5 365.8 L 999.0 365.9 L 1000.5 365.9 L 1002.0 365.9 L 1003.6 365.9 L 1005.2 365.9 L 1006.7 365.9 L 1008.3 365.9 L 1009.8 365.9 L 1011.3 365.9 L 1012.8 365.9 L 1014.4 365.9 L 1015.9 365.9 L 1017.5 365.9 L 1019.1 365.9 L 1020.6 365.9 L 1022.1 365.9 L 1023.6 365.9 L 1025.2 365.9 L 1026.7 365.9 L 1028.3 365.9 L 1029.8 365.9 L 1031.3 366.0 L 1032.8 365.9 L 1034.4 365.9 L 1035.9 365.9 L 1037.4 365.9 L 1039.0 365.9 L 1040.6 365.9 L 1042.1 365.9 L 1043.7 365.9 L 1045.2 365.9 L 1046.7 365.9 L 1048.2 365.9 L 1049.8 365.9 L 1051.3 365.9 L 1052.8 365.9 L 1054.3 365.9 L 1055.9 365.9 L 1057.4 365.9 L 1058.9 365.9 L 1060.5 365.9 L 1062.1 365.9 L 1063.6 365.9 L 1065.2 365.9 L 1066.7 365.9 L 1068.2 365.9 L 1069.7 365.9 L 1071.2 365.9 L 1072.9 365.8 L 1074.4 365.9 L 1076.0 365.9" fill="none" stroke="#F58518" stroke-width="2.8" stroke-linejoin="round" stroke-linecap="round"/>
<line x1="91.1" y1="62.0" x2="91.1" y2="366.0" stroke="#666" stroke-dasharray="4 4" stroke-width="1.2"/>
<text x="91.1" y="402.0" text-anchor="middle" font-size="12" fill="#444" font-family="Helvetica, Arial, sans-serif">submit</text>
<line x1="1075.2" y1="62.0" x2="1075.2" y2="366.0" stroke="#888" stroke-dasharray="4 4" stroke-width="1.2"/>
<text x="1075.2" y="402.0" text-anchor="middle" font-size="12" fill="#444" font-family="Helvetica, Arial, sans-serif">finish</text>
<line x1="86.0" y1="62.0" x2="86.0" y2="366.0" stroke="#f5f5f5" stroke-width="1"/>
<text x="86.0" y="418.0" text-anchor="middle" font-size="11" fill="#444" font-family="Helvetica, Arial, sans-serif">-0.14</text>
<line x1="209.8" y1="62.0" x2="209.8" y2="366.0" stroke="#f5f5f5" stroke-width="1"/>
<text x="209.8" y="418.0" text-anchor="middle" font-size="11" fill="#444" font-family="Helvetica, Arial, sans-serif">3.29</text>
<line x1="333.5" y1="62.0" x2="333.5" y2="366.0" stroke="#f5f5f5" stroke-width="1"/>
<text x="333.5" y="418.0" text-anchor="middle" font-size="11" fill="#444" font-family="Helvetica, Arial, sans-serif">6.73</text>
<line x1="457.2" y1="62.0" x2="457.2" y2="366.0" stroke="#f5f5f5" stroke-width="1"/>
<text x="457.2" y="418.0" text-anchor="middle" font-size="11" fill="#444" font-family="Helvetica, Arial, sans-serif">10.17</text>
<line x1="581.0" y1="62.0" x2="581.0" y2="366.0" stroke="#f5f5f5" stroke-width="1"/>
<text x="581.0" y="418.0" text-anchor="middle" font-size="11" fill="#444" font-family="Helvetica, Arial, sans-serif">13.61</text>
<line x1="704.8" y1="62.0" x2="704.8" y2="366.0" stroke="#f5f5f5" stroke-width="1"/>
<text x="704.8" y="418.0" text-anchor="middle" font-size="11" fill="#444" font-family="Helvetica, Arial, sans-serif">17.04</text>
<line x1="828.5" y1="62.0" x2="828.5" y2="366.0" stroke="#f5f5f5" stroke-width="1"/>
<text x="828.5" y="418.0" text-anchor="middle" font-size="11" fill="#444" font-family="Helvetica, Arial, sans-serif">20.48</text>
<line x1="952.2" y1="62.0" x2="952.2" y2="366.0" stroke="#f5f5f5" stroke-width="1"/>
<text x="952.2" y="418.0" text-anchor="middle" font-size="11" fill="#444" font-family="Helvetica, Arial, sans-serif">23.92</text>
<line x1="1076.0" y1="62.0" x2="1076.0" y2="366.0" stroke="#f5f5f5" stroke-width="1"/>
<text x="1076.0" y="418.0" text-anchor="middle" font-size="11" fill="#444" font-family="Helvetica, Arial, sans-serif">27.35</text>
<text x="581.0" y="386.0" text-anchor="middle" font-size="15" fill="#222" font-family="Helvetica, Arial, sans-serif">time since request submit (s)</text>
</svg>