<svg xmlns="http://www.w3.org/2000/svg" width="1100" height="420" viewBox="0 0 1100 420">
<rect width="1100" height="420" fill="white"/>
<text x="86" y="26" font-size="22" font-weight="700" font-family="Helvetica, Arial, sans-serif">tb_session_02_turn_005_reuse  phase=reuse  turn=5  prompt=25856  peak_tx=4.30 GiB/s  peak_rx=34.60 GiB/s</text>
<text x="86" y="46" font-size="13" fill="#444" font-family="Helvetica, Arial, sans-serif">response_window=5.652s, response_tx=5.695 GiB, response_rx=47.611 GiB, metrics_tx=5.696 GiB, metrics_rx=47.612 GiB</text>
<line x1="86" y1="366.0" x2="1076" y2="366.0" stroke="#ececec" stroke-width="1"/>
<text x="76" y="370.0" text-anchor="end" font-size="12" fill="#444" font-family="Helvetica, Arial, sans-serif">0.0</text>
<line x1="86" y1="305.2" x2="1076" y2="305.2" stroke="#ececec" stroke-width="1"/>
<text x="76" y="309.2" text-anchor="end" font-size="12" fill="#444" font-family="Helvetica, Arial, sans-serif">7.6</text>
<line x1="86" y1="244.4" x2="1076" y2="244.4" stroke="#ececec" stroke-width="1"/>
<text x="76" y="248.4" text-anchor="end" font-size="12" fill="#444" font-family="Helvetica, Arial, sans-serif">15.2</text>
<line x1="86" y1="183.6" x2="1076" y2="183.6" stroke="#ececec" stroke-width="1"/>
<text x="76" y="187.6" text-anchor="end" font-size="12" fill="#444" font-family="Helvetica, Arial, sans-serif">22.8</text>
<line x1="86" y1="122.8" x2="1076" y2="122.8" stroke="#ececec" stroke-width="1"/>
<text x="76" y="126.8" text-anchor="end" font-size="12" fill="#444" font-family="Helvetica, Arial, sans-serif">30.5</text>
<line x1="86" y1="62.0" x2="1076" y2="62.0" stroke="#ececec" stroke-width="1"/>
<text x="76" y="66.0" text-anchor="end" font-size="12" fill="#444" font-family="Helvetica, Arial, sans-serif">38.1</text>
<line x1="86" y1="366.0" x2="1076" y2="366.0" stroke="#222" stroke-width="1.4"/>
<line x1="86" y1="62.0" x2="86" y2="366.0" stroke="#222" stroke-width="1.4"/>
<rect x="111.4" y="62.0" width="962.7" height="304.0" fill="#F58518" opacity="0.08"/>
<path d="M 86.0 366.0 L 93.2 366.0 L 100.3 366.0 L 107.5 366.0 L 114.6 366.0 L 121.8 366.0 L 128.9 366.0 L 136.1 366.0 L 143.2 366.0 L 150.7 366.0 L 158.1 366.0 L 165.2 340.6 L 172.9 340.7 L 180.5 340.7 L 188.0 360.3 L 195.4 366.0 L 202.7 350.6 L 209.8 366.0 L 217.0 366.0 L 224.1 366.0 L 231.3 366.0 L 238.5 366.0 L 245.8 366.0 L 252.9 366.0 L 260.3 366.0 L 267.6 366.0 L 274.7 366.0 L 281.9 366.0 L 289.0 366.0 L 296.2 366.0 L 303.4 366.0 L 310.5 366.0 L 317.7 366.0 L 325.0 366.0 L 332.1 366.0 L 339.3 366.0 L 346.4 366.0 L 353.8 366.0 L 360.9 366.0 L 368.1 366.0 L 375.4 340.9 L 383.1 340.8 L 390.9 340.4 L 398.9 365.9 L 406.1 365.9 L 413.4 344.0 L 420.7 338.5 L 429.4 340.6 L 437.1 361.7 L 444.4 366.0 L 451.5 355.8 L 459.4 340.4 L 467.4 340.8 L 475.7 355.7 L 483.4 366.0 L 490.6 362.3 L 498.0 340.5 L 505.5 336.2 L 513.9 340.9 L 521.2 366.0 L 528.4 366.0 L 535.7 340.6 L 544.0 340.3 L 552.2 340.5 L 559.7 366.0 L 567.0 366.0 L 574.4 331.7 L 584.9 340.5 L 592.6 338.9 L 600.2 366.0 L 607.4 366.0 L 614.7 340.8 L 622.2 340.7 L 630.6 340.8 L 638.6 366.0 L 645.9 366.0 L 653.1 366.0 L 660.2 366.0 L 667.5 366.0 L 674.7 366.0 L 682.2 366.0 L 689.3 353.9 L 696.7 366.0 L 703.8 366.0 L 711.0 366.0 L 718.1 366.0 L 725.3 366.0 L 732.6 366.0 L 739.8 366.0 L 747.1 366.0 L 754.2 366.0 L 761.4 365.9 L 768.5 365.9 L 775.7 366.0 L 783.0 366.0 L 790.2 366.0 L 797.3 340.3 L 805.0 340.5 L 812.7 340.5 L 820.7 365.5 L 828.0 366.0 L 835.1 352.3 L 842.6 340.5 L 851.0 340.6 L 858.8 353.1 L 866.3 366.0 L 873.6 362.9 L 881.0 336.2 L 890.2 340.7 L 897.7 345.7 L 905.0 366.0 L 912.3 366.0 L 919.8 340.4 L 927.5 340.5 L 936.0 339.0 L 944.2 365.9 L 952.3 366.0 L 959.7 366.0 L 967.0 366.0 L 974.1 366.0 L 981.3 365.9 L 988.6 365.9 L 995.9 365.9 L 1003.1 365.9 L 1010.4 365.9 L 1017.6 365.9 L 1024.9 365.9 L 1032.1 365.9 L 1039.4 365.9 L 1046.5 365.9 L 1054.2 365.9 L 1061.5 365.9 L 1068.8 365.9 L 1076.0 366.0" fill="none" stroke="#4C78A8" stroke-width="2.8" stroke-linejoin="round" stroke-linecap="round"/>
<path d="M 86.0 366.0 L 93.2 366.0 L 100.3 366.0 L 107.5 366.0 L 114.6 366.0 L 121.8 366.0 L 128.9 366.0 L 136.1 366.0 L 143.2 365.9 L 150.7 366.0 L 158.1 366.0 L 165.2 141.4 L 172.9 144.2 L 180.5 141.6 L 188.0 365.9 L 195.4 366.0 L 202.7 366.0 L 209.8 366.0 L 217.0 365.9 L 224.1 365.9 L 231.3 366.0 L 238.5 366.0 L 245.8 366.0 L 252.9 366.0 L 260.3 366.0 L 267.6 366.0 L 274.7 366.0 L 281.9 366.0 L 289.0 366.0 L 296.2 366.0 L 303.4 366.0 L 310.5 366.0 L 317.7 366.0 L 325.0 366.0 L 332.1 366.0 L 339.3 366.0 L 346.4 366.0 L 353.8 366.0 L 360.9 366.0 L 368.1 293.0 L 375.4 141.7 L 383.1 121.8 L 390.9 195.5 L 398.9 366.0 L 406.1 366.0 L 413.4 143.0 L 420.7 139.3 L 429.4 142.8 L 437.1 366.0 L 444.4 366.0 L 451.5 125.9 L 459.4 143.8 L 467.4 89.9 L 475.7 366.0 L 483.4 366.0 L 490.6 143.9 L 498.0 144.9 L 505.5 142.0 L 513.9 365.9 L 521.2 366.0 L 528.4 246.1 L 535.7 95.9 L 544.0 143.8 L 552.2 267.7 L 559.7 366.0 L 567.0 326.2 L 574.4 144.0 L 584.9 142.7 L 592.6 317.9 L 600.2 366.0 L 607.4 288.5 L 614.7 143.7 L 622.2 103.6 L 630.6 238.2 L 638.6 365.9 L 645.9 365.9 L 653.1 365.9 L 660.2 365.9 L 667.5 365.9 L 674.7 365.9 L 682.2 365.9 L 689.3 365.5 L 696.7 366.0 L 703.8 366.0 L 711.0 366.0 L 718.1 366.0 L 725.3 366.0 L 732.6 366.0 L 739.8 366.0 L 747.1 366.0 L 754.2 366.0 L 761.4 366.0 L 768.5 366.0 L 775.7 365.9 L 783.0 366.0 L 790.2 357.0 L 797.3 143.1 L 805.0 145.2 L 812.7 144.1 L 820.7 366.0 L 828.0 366.0 L 835.1 145.2 L 842.6 97.9 L 851.0 143.1 L 858.8 366.0 L 866.3 366.0 L 873.6 145.0 L 881.0 139.5 L 890.2 142.1 L 897.7 366.0 L 905.0 366.0 L 912.3 181.7 L 919.8 144.4 L 927.5 89.6 L 936.0 365.5 L 944.2 365.8 L 952.3 365.9 L 959.7 365.9 L 967.0 365.9 L 974.1 365.6 L 981.3 365.7 L 988.6 365.7 L 995.9 365.7 L 1003.1 365.7 L 1010.4 365.7 L 1017.6 365.8 L 1024.9 365.8 L 1032.1 365.8 L 1039.4 365.8 L 1046.5 365.7 L 1054.2 365.7 L 1061.5 365.7 L 1068.8 365.8 L 1076.0 366.0" fill="none" stroke="#F58518" stroke-width="2.8" stroke-linejoin="round" stroke-linecap="round"/>
<line x1="111.4" y1="62.0" x2="111.4" y2="366.0" stroke="#666" stroke-dasharray="4 4" stroke-width="1.2"/>
<text x="111.4" y="402.0" text-anchor="middle" font-size="12" fill="#444" font-family="Helvetica, Arial, sans-serif">submit</text>
<line x1="1074.1" y1="62.0" x2="1074.1" y2="366.0" stroke="#888" stroke-dasharray="4 4" stroke-width="1.2"/>
<text x="1074.1" y="402.0" text-anchor="middle" font-size="12" fill="#444" font-family="Helvetica, Arial, sans-serif">finish</text>
<line x1="86.0" y1="62.0" x2="86.0" y2="366.0" stroke="#f5f5f5" stroke-width="1"/>
<text x="86.0" y="418.0" text-anchor="middle" font-size="11" fill="#444" font-family="Helvetica, Arial, sans-serif">-0.15</text>
<line x1="209.8" y1="62.0" x2="209.8" y2="366.0" stroke="#f5f5f5" stroke-width="1"/>
<text x="209.8" y="418.0" text-anchor="middle" font-size="11" fill="#444" font-family="Helvetica, Arial, sans-serif">0.58</text>
<line x1="333.5" y1="62.0" x2="333.5" y2="366.0" stroke="#f5f5f5" stroke-width="1"/>
<text x="333.5" y="418.0" text-anchor="middle" font-size="11" fill="#444" font-family="Helvetica, Arial, sans-serif">1.30</text>
<line x1="457.2" y1="62.0" x2="457.2" y2="366.0" stroke="#f5f5f5" stroke-width="1"/>
<text x="457.2" y="418.0" text-anchor="middle" font-size="11" fill="#444" font-family="Helvetica, Arial, sans-serif">2.03</text>
<line x1="581.0" y1="62.0" x2="581.0" y2="366.0" stroke="#f5f5f5" stroke-width="1"/>
<text x="581.0" y="418.0" text-anchor="middle" font-size="11" fill="#444" font-family="Helvetica, Arial, sans-serif">2.76</text>
<line x1="704.8" y1="62.0" x2="704.8" y2="366.0" stroke="#f5f5f5" stroke-width="1"/>
<text x="704.8" y="418.0" text-anchor="middle" font-size="11" fill="#444" font-family="Helvetica, Arial, sans-serif">3.48</text>
<line x1="828.5" y1="62.0" x2="828.5" y2="366.0" stroke="#f5f5f5" stroke-width="1"/>
<text x="828.5" y="418.0" text-anchor="middle" font-size="11" fill="#444" font-family="Helvetica, Arial, sans-serif">4.21</text>
<line x1="952.3" y1="62.0" x2="952.3" y2="366.0" stroke="#f5f5f5" stroke-width="1"/>
<text x="952.3" y="418.0" text-anchor="middle" font-size="11" fill="#444" font-family="Helvetica, Arial, sans-serif">4.94</text>
<line x1="1076.0" y1="62.0" x2="1076.0" y2="366.0" stroke="#f5f5f5" stroke-width="1"/>
<text x="1076.0" y="418.0" text-anchor="middle" font-size="11" fill="#444" font-family="Helvetica, Arial, sans-serif">5.66</text>
<text x="581.0" y="386.0" text-anchor="middle" font-size="15" fill="#222" font-family="Helvetica, Arial, sans-serif">time since request submit (s)</text>
</svg>