<svg xmlns="http://www.w3.org/2000/svg" width="1100" height="420" viewBox="0 0 1100 420">
<rect width="1100" height="420" fill="white"/>
<text x="86" y="26" font-size="22" font-weight="700" font-family="Helvetica, Arial, sans-serif">tb_session_06_turn_001_reuse  phase=reuse  turn=1  prompt=24832  peak_tx=15.46 GiB/s  peak_rx=31.90 GiB/s</text>
<text x="86" y="46" font-size="13" fill="#444" font-family="Helvetica, Arial, sans-serif">response_window=30.713s, response_tx=38.271 GiB, response_rx=5.626 GiB, metrics_tx=41.777 GiB, metrics_rx=5.678 GiB</text>
<line x1="86" y1="366.0" x2="1076" y2="366.0" stroke="#ececec" stroke-width="1"/>
<text x="76" y="370.0" text-anchor="end" font-size="12" fill="#444" font-family="Helvetica, Arial, sans-serif">0.0</text>
<line x1="86" y1="305.2" x2="1076" y2="305.2" stroke="#ececec" stroke-width="1"/>
<text x="76" y="309.2" text-anchor="end" font-size="12" fill="#444" font-family="Helvetica, Arial, sans-serif">7.0</text>
<line x1="86" y1="244.4" x2="1076" y2="244.4" stroke="#ececec" stroke-width="1"/>
<text x="76" y="248.4" text-anchor="end" font-size="12" fill="#444" font-family="Helvetica, Arial, sans-serif">14.0</text>
<line x1="86" y1="183.6" x2="1076" y2="183.6" stroke="#ececec" stroke-width="1"/>
<text x="76" y="187.6" text-anchor="end" font-size="12" fill="#444" font-family="Helvetica, Arial, sans-serif">21.1</text>
<line x1="86" y1="122.8" x2="1076" y2="122.8" stroke="#ececec" stroke-width="1"/>
<text x="76" y="126.8" text-anchor="end" font-size="12" fill="#444" font-family="Helvetica, Arial, sans-serif">28.1</text>
<line x1="86" y1="62.0" x2="1076" y2="62.0" stroke="#ececec" stroke-width="1"/>
<text x="76" y="66.0" text-anchor="end" font-size="12" fill="#444" font-family="Helvetica, Arial, sans-serif">35.1</text>
<line x1="86" y1="366.0" x2="1076" y2="366.0" stroke="#222" stroke-width="1.4"/>
<line x1="86" y1="62.0" x2="86" y2="366.0" stroke="#222" stroke-width="1.4"/>
<rect x="90.5" y="62.0" width="984.7" height="304.0" fill="#F58518" opacity="0.08"/>
<path d="M 86.0 366.0 L 87.3 366.0 L 88.7 366.0 L 90.0 365.9 L 91.4 365.9 L 92.8 366.0 L 94.1 366.0 L 95.5 366.0 L 96.8 366.0 L 98.2 366.0 L 99.5 366.0 L 100.8 366.0 L 102.2 338.6 L 103.7 338.2 L 105.2 338.2 L 106.6 366.0 L 108.0 349.2 L 109.3 347.4 L 110.7 366.0 L 112.1 366.0 L 113.4 366.0 L 114.8 366.0 L 116.1 348.0 L 117.6 366.0 L 119.0 366.0 L 120.3 366.0 L 121.7 366.0 L 123.0 293.1 L 124.4 366.0 L 125.8 366.0 L 127.3 366.0 L 128.6 366.0 L 130.1 232.1 L 131.5 366.0 L 132.8 366.0 L 134.3 366.0 L 135.6 366.0 L 137.0 366.0 L 138.3 252.8 L 139.7 366.0 L 141.0 366.0 L 142.4 366.0 L 143.8 366.0 L 145.2 366.0 L 146.6 232.1 L 147.9 366.0 L 149.3 366.0 L 150.6 366.0 L 152.0 366.0 L 153.5 366.0 L 154.8 359.1 L 156.2 366.0 L 157.5 365.9 L 158.9 365.9 L 160.3 366.0 L 161.6 366.0 L 163.0 366.0 L 164.3 307.2 L 165.7 366.0 L 167.1 366.0 L 168.4 366.0 L 169.8 366.0 L 171.2 366.0 L 172.5 366.0 L 173.8 366.0 L 175.3 366.0 L 176.6 366.0 L 178.0 366.0 L 179.4 366.0 L 180.7 366.0 L 182.1 366.0 L 183.4 366.0 L 184.8 274.8 L 186.3 366.0 L 187.6 366.0 L 189.0 366.0 L 190.3 366.0 L 191.7 366.0 L 193.1 366.0 L 194.5 366.0 L 195.9 366.0 L 197.3 366.0 L 198.6 366.0 L 200.0 366.0 L 201.4 366.0 L 202.7 366.0 L 204.1 366.0 L 205.5 366.0 L 206.9 366.0 L 208.2 366.0 L 209.6 366.0 L 210.9 366.0 L 212.3 261.7 L 213.7 366.0 L 215.1 366.0 L 216.4 366.0 L 217.8 366.0 L 219.1 265.6 L 220.5 366.0 L 221.9 366.0 L 223.2 365.9 L 224.7 365.9 L 226.0 365.9 L 227.4 366.0 L 228.8 366.0 L 230.1 366.0 L 231.5 366.0 L 232.8 366.0 L 234.2 267.9 L 235.6 366.0 L 237.0 366.0 L 238.4 366.0 L 239.7 366.0 L 241.0 366.0 L 242.4 292.7 L 243.8 366.0 L 245.1 366.0 L 246.6 366.0 L 247.9 366.0 L 249.3 366.0 L 250.6 366.0 L 252.0 365.9 L 253.7 366.0 L 255.1 366.0 L 256.4 366.0 L 257.8 365.9 L 259.1 365.9 L 260.5 232.1 L 262.0 366.0 L 263.4 366.0 L 264.7 366.0 L 266.1 366.0 L 267.5 366.0 L 268.9 366.0 L 270.3 357.1 L 271.6 366.0 L 273.0 366.0 L 274.4 366.0 L 275.7 366.0 L 277.1 366.0 L 278.6 366.0 L 279.9 280.4 L 281.2 366.0 L 282.6 366.0 L 284.0 366.0 L 285.4 366.0 L 286.7 366.0 L 288.1 366.0 L 289.5 338.2 L 292.0 365.9 L 293.4 365.9 L 294.8 366.0 L 296.2 366.0 L 297.5 366.0 L 298.9 366.0 L 300.2 366.0 L 301.6 366.0 L 302.9 366.0 L 304.3 366.0 L 305.6 366.0 L 307.0 366.0 L 308.3 366.0 L 309.7 366.0 L 311.0 366.0 L 312.4 323.4 L 313.9 362.1 L 315.3 366.0 L 316.6 366.0 L 318.0 366.0 L 319.3 366.0 L 320.7 366.0 L 322.0 339.2 L 323.4 366.0 L 324.8 366.0 L 326.1 366.0 L 327.5 366.0 L 328.9 299.1 L 330.2 366.0 L 331.6 366.0 L 332.9 366.0 L 334.3 366.0 L 335.6 366.0 L 337.0 272.1 L 338.3 366.0 L 339.7 366.0 L 341.0 366.0 L 342.4 366.0 L 343.7 366.0 L 345.1 315.8 L 346.5 366.0 L 347.8 366.0 L 349.2 366.0 L 350.5 366.0 L 351.8 366.0 L 353.2 366.0 L 354.5 319.6 L 355.9 366.0 L 357.2 366.0 L 358.7 365.9 L 360.1 365.9 L 361.4 366.0 L 362.7 359.8 L 364.1 366.0 L 365.4 366.0 L 366.8 366.0 L 368.1 366.0 L 369.5 366.0 L 370.9 366.0 L 372.2 366.0 L 373.6 366.0 L 375.0 366.0 L 376.3 366.0 L 377.7 366.0 L 379.0 366.0 L 380.3 366.0 L 381.7 366.0 L 383.1 250.6 L 384.5 366.0 L 385.8 366.0 L 387.2 366.0 L 388.5 366.0 L 389.9 366.0 L 391.2 366.0 L 392.6 365.9 L 394.1 365.9 L 395.4 366.0 L 396.8 366.0 L 398.2 366.0 L 399.5 366.0 L 400.9 366.0 L 402.2 366.0 L 403.7 366.0 L 405.0 366.0 L 406.4 354.3 L 407.8 366.0 L 409.1 366.0 L 410.5 366.0 L 411.9 366.0 L 413.3 366.0 L 414.6 238.8 L 416.0 366.0 L 417.3 366.0 L 418.7 366.0 L 420.1 366.0 L 421.4 366.0 L 422.9 366.0 L 424.2 366.0 L 425.6 366.0 L 427.0 366.0 L 428.3 366.0 L 429.7 294.2 L 431.0 366.0 L 432.5 366.0 L 433.9 366.0 L 435.2 366.0 L 436.6 366.0 L 437.9 315.1 L 439.3 366.0 L 440.7 366.0 L 442.0 366.0 L 443.4 366.0 L 444.8 366.0 L 446.1 366.0 L 447.5 316.2 L 448.8 366.0 L 450.2 366.0 L 451.6 366.0 L 452.9 366.0 L 454.3 366.0 L 455.7 366.0 L 457.0 366.0 L 458.4 366.0 L 459.8 365.9 L 461.1 365.9 L 462.5 366.0 L 464.0 366.0 L 465.3 332.5 L 466.7 366.0 L 468.1 366.0 L 469.4 366.0 L 470.8 366.0 L 472.1 366.0 L 473.5 366.0 L 474.9 366.0 L 476.3 366.0 L 477.6 366.0 L 479.0 366.0 L 480.3 366.0 L 481.7 366.0 L 483.1 366.0 L 484.5 366.0 L 485.8 232.1 L 487.3 366.0 L 488.6 366.0 L 490.0 366.0 L 491.4 366.0 L 492.8 366.0 L 494.1 366.0 L 495.5 366.0 L 496.9 232.1 L 498.2 358.6 L 499.5 366.0 L 500.9 366.0 L 502.3 366.0 L 503.7 366.0 L 505.1 366.0 L 506.4 366.0 L 507.8 283.1 L 509.1 366.0 L 510.5 366.0 L 511.9 366.0 L 513.3 366.0 L 514.6 235.0 L 516.0 366.0 L 517.3 366.0 L 518.7 366.0 L 520.1 366.0 L 521.4 314.3 L 522.9 366.0 L 524.3 366.0 L 525.6 366.0 L 527.0 365.9 L 528.4 365.9 L 529.7 237.9 L 531.1 366.0 L 532.6 366.0 L 534.0 366.0 L 535.3 366.0 L 536.7 366.0 L 538.1 313.2 L 539.4 366.0 L 540.8 366.0 L 542.2 366.0 L 543.6 366.0 L 544.9 366.0 L 546.3 232.1 L 547.6 366.0 L 549.0 366.0 L 550.4 366.0 L 551.7 366.0 L 553.1 366.0 L 554.5 319.5 L 555.8 366.0 L 557.2 366.0 L 558.5 366.0 L 559.9 366.0 L 561.4 365.9 L 562.7 366.0 L 564.1 232.8 L 565.4 366.0 L 566.8 366.0 L 568.2 366.0 L 569.5 366.0 L 570.9 366.0 L 572.3 366.0 L 573.6 232.1 L 575.0 366.0 L 576.4 366.0 L 577.7 366.0 L 579.1 366.0 L 580.4 366.0 L 581.8 366.0 L 583.2 344.0 L 584.5 366.0 L 585.9 366.0 L 587.3 366.0 L 588.6 366.0 L 590.0 366.0 L 591.3 366.0 L 592.8 366.0 L 594.1 232.1 L 595.5 365.9 L 597.0 366.0 L 598.3 366.0 L 599.6 366.0 L 601.0 365.9 L 603.3 366.0 L 604.6 366.0 L 606.0 362.3 L 607.3 366.0 L 608.8 366.0 L 610.2 366.0 L 611.5 366.0 L 612.9 366.0 L 614.2 270.0 L 615.6 366.0 L 617.0 366.0 L 618.3 366.0 L 619.6 366.0 L 621.0 248.9 L 622.4 366.0 L 623.8 366.0 L 625.1 366.0 L 626.5 366.0 L 627.8 365.9 L 629.2 365.9 L 630.6 366.0 L 632.0 366.0 L 633.3 366.0 L 634.7 366.0 L 636.1 232.1 L 637.4 366.0 L 638.8 366.0 L 640.1 366.0 L 641.5 366.0 L 642.9 366.0 L 644.2 274.9 L 645.6 366.0 L 647.0 366.0 L 648.3 366.0 L 649.7 366.0 L 651.1 366.0 L 652.4 232.1 L 653.8 366.0 L 655.2 366.0 L 656.6 366.0 L 657.9 366.0 L 659.2 365.9 L 661.6 250.9 L 662.9 365.9 L 664.3 366.0 L 665.7 366.0 L 667.0 366.0 L 668.4 366.0 L 669.9 366.0 L 671.2 360.7 L 672.5 366.0 L 673.9 366.0 L 675.3 366.0 L 676.7 366.0 L 678.0 366.0 L 679.4 366.0 L 680.8 314.2 L 682.1 366.0 L 683.5 366.0 L 684.9 366.0 L 686.2 366.0 L 687.6 366.0 L 689.0 366.0 L 690.3 274.2 L 691.7 366.0 L 693.1 366.0 L 694.4 366.0 L 695.8 366.0 L 697.2 366.0 L 698.6 366.0 L 700.0 366.0 L 701.4 234.9 L 702.7 366.0 L 704.1 366.0 L 705.4 366.0 L 706.8 366.0 L 708.2 366.0 L 709.5 366.0 L 710.9 366.0 L 712.3 232.2 L 713.7 366.0 L 715.0 366.0 L 716.4 366.0 L 717.8 366.0 L 719.2 366.0 L 720.5 269.5 L 721.9 366.0 L 723.3 366.0 L 724.6 366.0 L 726.0 366.0 L 727.5 323.9 L 728.8 366.0 L 730.4 366.0 L 731.8 366.0 L 733.1 366.0 L 734.6 275.0 L 736.0 366.0 L 737.4 366.0 L 738.8 366.0 L 740.1 366.0 L 741.5 362.1 L 742.9 366.0 L 744.3 366.0 L 745.6 366.0 L 747.0 366.0 L 748.4 366.0 L 749.7 253.7 L 751.1 366.0 L 752.4 366.0 L 753.8 366.0 L 755.2 366.0 L 756.5 366.0 L 757.9 316.6 L 759.2 366.0 L 760.6 366.0 L 762.0 365.9 L 763.4 365.9 L 764.7 366.0 L 766.1 366.0 L 767.4 315.4 L 768.8 366.0 L 770.2 366.0 L 771.5 366.0 L 772.9 366.0 L 774.3 366.0 L 775.7 366.0 L 777.0 366.0 L 778.3 366.0 L 779.7 366.0 L 781.1 366.0 L 782.5 366.0 L 783.8 366.0 L 785.1 366.0 L 786.5 360.5 L 787.9 366.0 L 789.2 366.0 L 790.6 366.0 L 792.0 366.0 L 793.3 366.0 L 794.8 366.0 L 796.1 232.1 L 797.6 365.9 L 799.1 366.0 L 800.4 366.0 L 801.8 366.0 L 803.1 366.0 L 804.5 366.0 L 805.9 366.0 L 807.3 357.6 L 808.6 366.0 L 810.0 366.0 L 811.4 366.0 L 812.8 366.0 L 814.1 366.0 L 815.5 366.0 L 816.9 366.0 L 818.2 290.6 L 819.6 358.5 L 820.9 366.0 L 822.3 366.0 L 823.7 366.0 L 825.1 366.0 L 826.4 366.0 L 827.8 232.1 L 829.1 365.9 L 830.5 366.0 L 832.0 366.0 L 833.4 366.0 L 834.7 232.1 L 836.1 366.0 L 837.4 366.0 L 838.8 366.0 L 840.2 366.0 L 841.5 366.0 L 842.9 366.0 L 844.2 366.0 L 845.6 366.0 L 847.0 366.0 L 848.3 366.0 L 849.7 290.1 L 851.0 366.0 L 852.5 366.0 L 853.8 366.0 L 855.2 366.0 L 856.5 366.0 L 857.9 250.9 L 859.3 366.0 L 860.6 366.0 L 862.0 366.0 L 863.3 365.9 L 864.8 365.9 L 866.2 353.8 L 867.5 366.0 L 868.9 366.0 L 870.2 366.0 L 871.6 366.0 L 873.0 366.0 L 874.4 366.0 L 875.7 232.1 L 877.1 366.0 L 878.4 366.0 L 879.8 366.0 L 881.2 366.0 L 882.5 366.0 L 883.9 366.0 L 885.3 236.0 L 886.6 366.0 L 888.0 366.0 L 889.3 366.0 L 890.7 366.0 L 892.1 366.0 L 893.4 366.0 L 894.8 264.0 L 896.2 366.0 L 897.6 366.0 L 898.9 366.0 L 900.3 366.0 L 901.6 366.0 L 903.0 366.0 L 904.4 366.0 L 905.8 314.8 L 907.2 366.0 L 908.5 366.0 L 909.9 366.0 L 911.2 366.0 L 912.6 366.0 L 914.0 366.0 L 915.3 366.0 L 916.8 366.0 L 918.1 366.0 L 919.5 366.0 L 920.9 366.0 L 922.2 366.0 L 923.6 366.0 L 925.0 366.0 L 926.3 366.0 L 927.7 302.1 L 929.0 360.9 L 930.4 365.9 L 931.8 365.8 L 933.1 366.0 L 934.5 366.0 L 936.0 366.0 L 937.3 366.0 L 938.7 366.0 L 940.0 366.0 L 941.4 366.0 L 942.8 316.2 L 944.1 366.0 L 945.5 366.0 L 946.8 366.0 L 948.2 366.0 L 949.6 316.3 L 950.9 366.0 L 952.3 366.0 L 953.7 366.0 L 955.1 366.0 L 956.4 366.0 L 957.8 234.7 L 959.2 366.0 L 960.5 366.0 L 961.9 366.0 L 963.2 366.0 L 964.7 366.0 L 966.1 232.1 L 967.5 366.0 L 968.8 366.0 L 970.2 366.0 L 971.5 366.0 L 972.9 366.0 L 974.3 324.5 L 975.7 366.0 L 977.1 366.0 L 978.4 366.0 L 979.8 366.0 L 981.1 366.0 L 982.5 366.0 L 984.1 252.0 L 985.4 366.0 L 986.8 366.0 L 988.2 366.0 L 989.5 366.0 L 990.8 366.0 L 992.2 366.0 L 993.7 303.0 L 995.1 366.0 L 996.5 366.0 L 997.8 365.9 L 999.2 365.8 L 1000.6 366.0 L 1001.9 366.0 L 1003.3 244.9 L 1004.6 366.0 L 1006.0 366.0 L 1007.4 366.0 L 1008.7 366.0 L 1010.1 366.0 L 1011.4 366.0 L 1012.8 366.0 L 1014.2 276.4 L 1015.6 366.0 L 1016.9 366.0 L 1018.3 366.0 L 1019.6 366.0 L 1021.0 366.0 L 1022.5 366.0 L 1023.8 366.0 L 1025.2 290.4 L 1026.5 358.5 L 1027.9 366.0 L 1029.3 366.0 L 1030.6 366.0 L 1032.0 366.0 L 1033.4 366.0 L 1034.8 366.0 L 1036.1 232.1 L 1037.5 366.0 L 1038.8 366.0 L 1040.2 366.0 L 1041.7 366.0 L 1043.1 232.1 L 1044.4 366.0 L 1045.8 366.0 L 1047.1 366.0 L 1048.5 366.0 L 1049.9 299.9 L 1051.4 366.0 L 1052.8 366.0 L 1054.1 366.0 L 1055.5 366.0 L 1056.8 366.0 L 1058.2 306.3 L 1059.6 366.0 L 1061.0 366.0 L 1062.3 366.0 L 1063.7 366.0 L 1065.1 365.9 L 1066.4 315.6 L 1067.8 366.0 L 1069.1 366.0 L 1070.6 366.0 L 1071.9 366.0 L 1073.3 366.0 L 1074.7 234.4 L 1076.0 366.0" fill="none" stroke="#4C78A8" stroke-width="2.8" stroke-linejoin="round" stroke-linecap="round"/>
<path d="M 86.0 366.0 L 87.3 366.0 L 88.7 366.0 L 90.0 366.0 L 91.4 366.0 L 92.8 366.0 L 94.1 366.0 L 95.5 366.0 L 96.8 366.0 L 98.2 365.9 L 99.5 366.0 L 100.8 318.3 L 102.2 121.5 L 103.7 89.6 L 105.2 204.6 L 106.6 365.8 L 108.0 366.0 L 109.3 365.9 L 110.7 365.9 L 112.1 365.9 L 113.4 365.9 L 114.8 365.9 L 116.1 365.9 L 117.6 365.9 L 119.0 365.9 L 120.3 365.9 L 121.7 365.9 L 123.0 365.8 L 124.4 365.8 L 125.8 365.9 L 127.3 365.9 L 128.6 365.9 L 130.1 365.9 L 131.5 365.9 L 132.8 365.9 L 134.3 365.9 L 135.6 365.9 L 137.0 365.9 L 138.3 365.9 L 139.7 365.9 L 141.0 365.9 L 142.4 365.9 L 143.8 365.9 L 145.2 365.9 L 146.6 365.9 L 147.9 365.9 L 149.3 365.9 L 150.6 365.9 L 152.0 365.9 L 153.5 365.9 L 154.8 365.9 L 156.2 365.9 L 157.5 365.9 L 158.9 365.9 L 160.3 365.9 L 161.6 365.9 L 163.0 365.9 L 164.3 365.9 L 165.7 365.9 L 167.1 365.9 L 168.4 365.9 L 169.8 365.9 L 171.2 365.9 L 172.5 365.9 L 173.8 365.9 L 175.3 365.9 L 176.6 365.9 L 178.0 365.9 L 179.4 365.9 L 180.7 365.9 L 182.1 365.9 L 183.4 365.9 L 184.8 365.9 L 186.3 366.0 L 187.6 365.9 L 189.0 365.9 L 190.3 365.8 L 191.7 365.9 L 193.1 365.9 L 194.5 365.9 L 195.9 365.9 L 197.3 365.9 L 198.6 365.9 L 200.0 365.9 L 201.4 365.9 L 202.7 365.9 L 204.1 365.9 L 205.5 365.9 L 206.9 365.9 L 208.2 365.9 L 209.6 365.9 L 210.9 365.9 L 212.3 365.9 L 213.7 365.9 L 215.1 365.9 L 216.4 365.9 L 217.8 365.9 L 219.1 365.9 L 220.5 365.9 L 221.9 365.9 L 223.2 365.9 L 224.7 365.9 L 226.0 365.9 L 227.4 365.9 L 228.8 365.9 L 230.1 365.9 L 231.5 365.9 L 232.8 365.9 L 234.2 365.9 L 235.6 365.9 L 237.0 365.9 L 238.4 365.9 L 239.7 365.9 L 241.0 365.9 L 242.4 365.9 L 243.8 365.9 L 245.1 365.9 L 246.6 365.9 L 247.9 365.9 L 249.3 365.9 L 250.6 365.9 L 252.0 365.9 L 253.7 365.9 L 255.1 365.9 L 256.4 365.9 L 257.8 365.9 L 259.1 365.9 L 260.5 365.9 L 262.0 365.9 L 263.4 365.9 L 264.7 365.9 L 266.1 365.9 L 267.5 365.9 L 268.9 365.9 L 270.3 365.9 L 271.6 365.9 L 273.0 365.9 L 274.4 365.9 L 275.7 365.9 L 277.1 365.9 L 278.6 365.9 L 279.9 365.9 L 281.2 365.9 L 282.6 365.9 L 284.0 365.9 L 285.4 365.9 L 286.7 365.9 L 288.1 365.9 L 289.5 365.8 L 292.0 365.9 L 293.4 365.9 L 294.8 365.9 L 296.2 365.9 L 297.5 365.9 L 298.9 365.9 L 300.2 365.9 L 301.6 365.9 L 302.9 365.9 L 304.3 365.9 L 305.6 365.9 L 307.0 365.9 L 308.3 365.9 L 309.7 365.9 L 311.0 365.9 L 312.4 366.0 L 313.9 163.9 L 315.3 365.9 L 316.6 365.9 L 318.0 365.9 L 319.3 365.9 L 320.7 365.9 L 322.0 365.9 L 323.4 365.9 L 324.8 365.9 L 326.1 365.8 L 327.5 365.9 L 328.9 365.9 L 330.2 365.9 L 331.6 365.9 L 332.9 365.9 L 334.3 365.9 L 335.6 365.9 L 337.0 365.9 L 338.3 365.9 L 339.7 365.9 L 341.0 365.9 L 342.4 365.9 L 343.7 365.9 L 345.1 365.9 L 346.5 365.9 L 347.8 365.9 L 349.2 365.9 L 350.5 365.9 L 351.8 365.9 L 353.2 365.9 L 354.5 365.9 L 355.9 365.9 L 357.2 365.9 L 358.7 365.9 L 360.1 365.9 L 361.4 365.9 L 362.7 365.9 L 364.1 365.9 L 365.4 365.9 L 366.8 365.9 L 368.1 365.9 L 369.5 365.9 L 370.9 365.9 L 372.2 365.9 L 373.6 365.9 L 375.0 365.9 L 376.3 365.9 L 377.7 365.9 L 379.0 365.9 L 380.3 365.9 L 381.7 365.9 L 383.1 365.9 L 384.5 365.9 L 385.8 365.9 L 387.2 365.9 L 388.5 365.9 L 389.9 365.9 L 391.2 365.9 L 392.6 365.9 L 394.1 365.9 L 395.4 365.9 L 396.8 365.9 L 398.2 365.9 L 399.5 365.9 L 400.9 365.9 L 402.2 365.9 L 403.7 365.9 L 405.0 366.0 L 406.4 264.2 L 407.8 365.9 L 409.1 365.9 L 410.5 365.9 L 411.9 365.9 L 413.3 365.9 L 414.6 365.9 L 416.0 365.9 L 417.3 365.9 L 418.7 365.9 L 420.1 365.9 L 421.4 365.9 L 422.9 365.9 L 424.2 365.9 L 425.6 365.9 L 427.0 365.8 L 428.3 365.9 L 429.7 365.9 L 431.0 365.9 L 432.5 365.9 L 433.9 365.9 L 435.2 365.9 L 436.6 365.9 L 437.9 365.9 L 439.3 365.9 L 440.7 365.9 L 442.0 365.9 L 443.4 365.9 L 444.8 365.9 L 446.1 365.9 L 447.5 365.9 L 448.8 365.9 L 450.2 365.9 L 451.6 365.9 L 452.9 365.9 L 454.3 365.9 L 455.7 365.9 L 457.0 365.9 L 458.4 365.9 L 459.8 365.9 L 461.1 365.9 L 462.5 365.9 L 464.0 365.9 L 465.3 365.9 L 466.7 365.9 L 468.1 365.9 L 469.4 365.9 L 470.8 365.9 L 472.1 365.9 L 473.5 365.9 L 474.9 365.9 L 476.3 365.9 L 477.6 365.9 L 479.0 365.9 L 480.3 365.9 L 481.7 365.9 L 483.1 365.9 L 484.5 365.9 L 485.8 365.9 L 487.3 365.9 L 488.6 365.9 L 490.0 365.9 L 491.4 365.9 L 492.8 365.9 L 494.1 365.8 L 495.5 365.9 L 496.9 366.0 L 498.2 365.9 L 499.5 365.9 L 500.9 365.9 L 502.3 366.0 L 503.7 366.0 L 505.1 366.0 L 506.4 366.0 L 507.8 365.9 L 509.1 365.9 L 510.5 365.9 L 511.9 365.9 L 513.3 365.9 L 514.6 365.9 L 516.0 365.9 L 517.3 365.9 L 518.7 365.9 L 520.1 365.9 L 521.4 365.9 L 522.9 365.9 L 524.3 365.9 L 525.6 365.9 L 527.0 365.9 L 528.4 365.9 L 529.7 365.9 L 531.1 365.9 L 532.6 365.9 L 534.0 365.9 L 535.3 365.9 L 536.7 365.9 L 538.1 365.9 L 539.4 365.9 L 540.8 365.9 L 542.2 365.9 L 543.6 365.9 L 544.9 365.9 L 546.3 365.9 L 547.6 365.9 L 549.0 365.9 L 550.4 365.9 L 551.7 365.9 L 553.1 365.9 L 554.5 365.9 L 555.8 365.9 L 557.2 365.9 L 558.5 365.9 L 559.9 365.9 L 561.4 365.9 L 562.7 365.9 L 564.1 365.9 L 565.4 365.9 L 566.8 365.9 L 568.2 365.9 L 569.5 365.9 L 570.9 365.9 L 572.3 365.9 L 573.6 365.9 L 575.0 365.9 L 576.4 365.9 L 577.7 365.9 L 579.1 365.9 L 580.4 365.9 L 581.8 365.9 L 583.2 365.9 L 584.5 365.9 L 585.9 365.9 L 587.3 365.9 L 588.6 365.9 L 590.0 365.9 L 591.3 365.9 L 592.8 365.9 L 594.1 365.9 L 595.5 365.9 L 597.0 365.9 L 598.3 365.9 L 599.6 365.9 L 601.0 365.9 L 603.3 365.9 L 604.6 366.0 L 606.0 365.9 L 607.3 365.9 L 608.8 365.9 L 610.2 365.9 L 611.5 365.9 L 612.9 365.9 L 614.2 365.9 L 615.6 365.9 L 617.0 365.9 L 618.3 365.9 L 619.6 365.9 L 621.0 365.9 L 622.4 365.9 L 623.8 365.9 L 625.1 365.9 L 626.5 365.9 L 627.8 365.9 L 629.2 365.9 L 630.6 365.9 L 632.0 365.9 L 633.3 365.9 L 634.7 365.9 L 636.1 365.9 L 637.4 365.9 L 638.8 365.9 L 640.1 365.9 L 641.5 365.9 L 642.9 365.9 L 644.2 365.9 L 645.6 365.9 L 647.0 365.9 L 648.3 365.9 L 649.7 365.9 L 651.1 365.9 L 652.4 365.9 L 653.8 365.9 L 655.2 365.9 L 656.6 365.9 L 657.9 365.9 L 659.2 365.9 L 661.6 365.9 L 662.9 365.9 L 664.3 365.9 L 665.7 365.9 L 667.0 365.9 L 668.4 365.9 L 669.9 365.9 L 671.2 365.9 L 672.5 365.9 L 673.9 365.9 L 675.3 365.9 L 676.7 365.9 L 678.0 365.9 L 679.4 365.9 L 680.8 365.9 L 682.1 365.9 L 683.5 365.9 L 684.9 365.9 L 686.2 365.9 L 687.6 365.9 L 689.0 365.9 L 690.3 365.9 L 691.7 365.9 L 693.1 365.9 L 694.4 365.9 L 695.8 365.9 L 697.2 365.9 L 698.6 365.9 L 700.0 365.9 L 701.4 365.9 L 702.7 365.9 L 704.1 365.9 L 705.4 365.9 L 706.8 365.9 L 708.2 365.9 L 709.5 365.9 L 710.9 366.0 L 712.3 365.9 L 713.7 365.9 L 715.0 365.9 L 716.4 365.9 L 717.8 365.9 L 719.2 365.9 L 720.5 365.9 L 721.9 365.9 L 723.3 365.9 L 724.6 365.9 L 726.0 365.9 L 727.5 365.9 L 728.8 365.9 L 730.4 365.9 L 731.8 365.9 L 733.1 365.9 L 734.6 365.9 L 736.0 365.9 L 737.4 365.9 L 738.8 365.9 L 740.1 365.9 L 741.5 365.9 L 742.9 365.9 L 744.3 365.9 L 745.6 365.9 L 747.0 365.9 L 748.4 365.9 L 749.7 365.9 L 751.1 365.9 L 752.4 365.9 L 753.8 365.9 L 755.2 365.9 L 756.5 365.9 L 757.9 365.9 L 759.2 365.9 L 760.6 365.9 L 762.0 365.9 L 763.4 365.9 L 764.7 365.9 L 766.1 365.9 L 767.4 365.9 L 768.8 365.9 L 770.2 365.9 L 771.5 365.9 L 772.9 365.9 L 774.3 365.9 L 775.7 365.9 L 777.0 365.9 L 778.3 365.9 L 779.7 365.9 L 781.1 365.9 L 782.5 365.9 L 783.8 365.9 L 785.1 365.9 L 786.5 365.9 L 787.9 365.9 L 789.2 365.9 L 790.6 365.9 L 792.0 365.9 L 793.3 365.9 L 794.8 365.9 L 796.1 365.9 L 797.6 365.9 L 799.1 365.9 L 800.4 365.9 L 801.8 365.9 L 803.1 365.9 L 804.5 365.9 L 805.9 365.9 L 807.3 365.9 L 808.6 365.9 L 810.0 365.9 L 811.4 365.9 L 812.8 365.9 L 814.1 365.9 L 815.5 365.9 L 816.9 365.9 L 818.2 366.0 L 819.6 365.9 L 820.9 365.9 L 822.3 365.9 L 823.7 365.9 L 825.1 365.9 L 826.4 365.9 L 827.8 365.9 L 829.1 365.9 L 830.5 365.9 L 832.0 365.9 L 833.4 365.9 L 834.7 365.9 L 836.1 365.9 L 837.4 365.9 L 838.8 365.9 L 840.2 365.9 L 841.5 365.9 L 842.9 365.9 L 844.2 365.9 L 845.6 365.9 L 847.0 365.9 L 848.3 365.9 L 849.7 365.9 L 851.0 365.9 L 852.5 365.9 L 853.8 365.9 L 855.2 365.9 L 856.5 365.9 L 857.9 365.9 L 859.3 365.9 L 860.6 365.9 L 862.0 365.9 L 863.3 365.9 L 864.8 365.9 L 866.2 365.9 L 867.5 365.9 L 868.9 365.9 L 870.2 365.9 L 871.6 365.9 L 873.0 365.9 L 874.4 365.9 L 875.7 365.9 L 877.1 365.9 L 878.4 365.9 L 879.8 365.9 L 881.2 365.9 L 882.5 365.9 L 883.9 365.9 L 885.3 365.9 L 886.6 365.9 L 888.0 365.9 L 889.3 365.9 L 890.7 365.9 L 892.1 365.9 L 893.4 365.9 L 894.8 365.9 L 896.2 365.9 L 897.6 365.8 L 898.9 365.9 L 900.3 365.9 L 901.6 365.9 L 903.0 365.9 L 904.4 365.9 L 905.8 365.9 L 907.2 365.9 L 908.5 365.9 L 909.9 365.9 L 911.2 365.9 L 912.6 365.9 L 914.0 365.9 L 915.3 365.9 L 916.8 365.9 L 918.1 365.9 L 919.5 365.9 L 920.9 365.9 L 922.2 365.9 L 923.6 365.9 L 925.0 365.9 L 926.3 365.9 L 927.7 366.0 L 929.0 365.9 L 930.4 365.9 L 931.8 365.9 L 933.1 365.9 L 934.5 365.9 L 936.0 365.9 L 937.3 365.9 L 938.7 365.9 L 940.0 365.9 L 941.4 365.9 L 942.8 365.9 L 944.1 365.9 L 945.5 365.9 L 946.8 365.9 L 948.2 365.9 L 949.6 365.9 L 950.9 365.9 L 952.3 365.9 L 953.7 365.9 L 955.1 365.9 L 956.4 365.9 L 957.8 365.9 L 959.2 365.9 L 960.5 365.9 L 961.9 365.9 L 963.2 365.9 L 964.7 365.8 L 966.1 365.9 L 967.5 365.9 L 968.8 365.9 L 970.2 365.9 L 971.5 365.9 L 972.9 365.9 L 974.3 365.9 L 975.7 365.9 L 977.1 365.9 L 978.4 365.9 L 979.8 365.9 L 981.1 365.9 L 982.5 365.9 L 984.1 365.9 L 985.4 365.9 L 986.8 365.9 L 988.2 365.9 L 989.5 365.9 L 990.8 365.9 L 992.2 365.9 L 993.7 365.9 L 995.1 365.9 L 996.5 365.9 L 997.8 365.9 L 999.2 365.9 L 1000.6 365.9 L 1001.9 365.9 L 1003.3 365.9 L 1004.6 365.9 L 1006.0 365.9 L 1007.4 365.9 L 1008.7 365.9 L 1010.1 365.9 L 1011.4 365.9 L 1012.8 365.9 L 1014.2 365.9 L 1015.6 365.9 L 1016.9 365.9 L 1018.3 365.9 L 1019.6 365.9 L 1021.0 365.9 L 1022.5 365.9 L 1023.8 365.9 L 1025.2 366.0 L 1026.5 365.9 L 1027.9 365.9 L 1029.3 365.9 L 1030.6 365.9 L 1032.0 365.8 L 1033.4 366.0 L 1034.8 366.0 L 1036.1 365.9 L 1037.5 365.9 L 1038.8 365.9 L 1040.2 365.9 L 1041.7 365.9 L 1043.1 365.9 L 1044.4 365.9 L 1045.8 365.9 L 1047.1 365.9 L 1048.5 365.9 L 1049.9 365.9 L 1051.4 365.9 L 1052.8 365.9 L 1054.1 365.9 L 1055.5 365.9 L 1056.8 365.9 L 1058.2 365.9 L 1059.6 365.9 L 1061.0 365.9 L 1062.3 365.9 L 1063.7 365.9 L 1065.1 365.9 L 1066.4 365.9 L 1067.8 365.9 L 1069.1 365.9 L 1070.6 365.9 L 1071.9 365.9 L 1073.3 365.9 L 1074.7 365.9 L 1076.0 365.9" fill="none" stroke="#F58518" stroke-width="2.8" stroke-linejoin="round" stroke-linecap="round"/>
<line x1="90.5" y1="62.0" x2="90.5" y2="366.0" stroke="#666" stroke-dasharray="4 4" stroke-width="1.2"/>
<text x="90.5" y="402.0" text-anchor="middle" font-size="12" fill="#444" font-family="Helvetica, Arial, sans-serif">submit</text>
<line x1="1075.2" y1="62.0" x2="1075.2" y2="366.0" stroke="#888" stroke-dasharray="4 4" stroke-width="1.2"/>
<text x="1075.2" y="402.0" text-anchor="middle" font-size="12" fill="#444" font-family="Helvetica, Arial, sans-serif">finish</text>
<line x1="86.0" y1="62.0" x2="86.0" y2="366.0" stroke="#f5f5f5" stroke-width="1"/>
<text x="86.0" y="418.0" text-anchor="middle" font-size="11" fill="#444" font-family="Helvetica, Arial, sans-serif">-0.14</text>
<line x1="209.8" y1="62.0" x2="209.8" y2="366.0" stroke="#f5f5f5" stroke-width="1"/>
<text x="209.8" y="418.0" text-anchor="middle" font-size="11" fill="#444" font-family="Helvetica, Arial, sans-serif">3.72</text>
<line x1="333.5" y1="62.0" x2="333.5" y2="366.0" stroke="#f5f5f5" stroke-width="1"/>
<text x="333.5" y="418.0" text-anchor="middle" font-size="11" fill="#444" font-family="Helvetica, Arial, sans-serif">7.58</text>
<line x1="457.3" y1="62.0" x2="457.3" y2="366.0" stroke="#f5f5f5" stroke-width="1"/>
<text x="457.3" y="418.0" text-anchor="middle" font-size="11" fill="#444" font-family="Helvetica, Arial, sans-serif">11.44</text>
<line x1="581.0" y1="62.0" x2="581.0" y2="366.0" stroke="#f5f5f5" stroke-width="1"/>
<text x="581.0" y="418.0" text-anchor="middle" font-size="11" fill="#444" font-family="Helvetica, Arial, sans-serif">15.30</text>
<line x1="704.8" y1="62.0" x2="704.8" y2="366.0" stroke="#f5f5f5" stroke-width="1"/>
<text x="704.8" y="418.0" text-anchor="middle" font-size="11" fill="#444" font-family="Helvetica, Arial, sans-serif">19.16</text>
<line x1="828.5" y1="62.0" x2="828.5" y2="366.0" stroke="#f5f5f5" stroke-width="1"/>
<text x="828.5" y="418.0" text-anchor="middle" font-size="11" fill="#444" font-family="Helvetica, Arial, sans-serif">23.02</text>
<line x1="952.2" y1="62.0" x2="952.2" y2="366.0" stroke="#f5f5f5" stroke-width="1"/>
<text x="952.2" y="418.0" text-anchor="middle" font-size="11" fill="#444" font-family="Helvetica, Arial, sans-serif">26.88</text>
<line x1="1076.0" y1="62.0" x2="1076.0" y2="366.0" stroke="#f5f5f5" stroke-width="1"/>
<text x="1076.0" y="418.0" text-anchor="middle" font-size="11" fill="#444" font-family="Helvetica, Arial, sans-serif">30.74</text>
<text x="581.0" y="386.0" text-anchor="middle" font-size="15" fill="#222" font-family="Helvetica, Arial, sans-serif">time since request submit (s)</text>
</svg>