<svg xmlns="http://www.w3.org/2000/svg" width="1100" height="420" viewBox="0 0 1100 420">
<rect width="1100" height="420" fill="white"/>
<text x="86" y="26" font-size="22" font-weight="700" font-family="Helvetica, Arial, sans-serif">tb_session_01_turn_001_reuse  phase=reuse  turn=1  prompt=24832  peak_tx=15.45 GiB/s  peak_rx=31.90 GiB/s</text>
<text x="86" y="46" font-size="13" fill="#444" font-family="Helvetica, Arial, sans-serif">response_window=7.982s, response_tx=8.436 GiB, response_rx=4.927 GiB, metrics_tx=41.777 GiB, metrics_rx=5.678 GiB</text>
<line x1="86" y1="366.0" x2="1076" y2="366.0" stroke="#ececec" stroke-width="1"/>
<text x="76" y="370.0" text-anchor="end" font-size="12" fill="#444" font-family="Helvetica, Arial, sans-serif">0.0</text>
<line x1="86" y1="305.2" x2="1076" y2="305.2" stroke="#ececec" stroke-width="1"/>
<text x="76" y="309.2" text-anchor="end" font-size="12" fill="#444" font-family="Helvetica, Arial, sans-serif">7.0</text>
<line x1="86" y1="244.4" x2="1076" y2="244.4" stroke="#ececec" stroke-width="1"/>
<text x="76" y="248.4" text-anchor="end" font-size="12" fill="#444" font-family="Helvetica, Arial, sans-serif">14.0</text>
<line x1="86" y1="183.6" x2="1076" y2="183.6" stroke="#ececec" stroke-width="1"/>
<text x="76" y="187.6" text-anchor="end" font-size="12" fill="#444" font-family="Helvetica, Arial, sans-serif">21.1</text>
<line x1="86" y1="122.8" x2="1076" y2="122.8" stroke="#ececec" stroke-width="1"/>
<text x="76" y="126.8" text-anchor="end" font-size="12" fill="#444" font-family="Helvetica, Arial, sans-serif">28.1</text>
<line x1="86" y1="62.0" x2="1076" y2="62.0" stroke="#ececec" stroke-width="1"/>
<text x="76" y="66.0" text-anchor="end" font-size="12" fill="#444" font-family="Helvetica, Arial, sans-serif">35.1</text>
<line x1="86" y1="366.0" x2="1076" y2="366.0" stroke="#222" stroke-width="1.4"/>
<line x1="86" y1="62.0" x2="86" y2="366.0" stroke="#222" stroke-width="1.4"/>
<rect x="102.2" y="62.0" width="972.7" height="304.0" fill="#F58518" opacity="0.08"/>
<path d="M 86.0 366.0 L 91.1 366.0 L 96.2 366.0 L 101.4 365.9 L 106.6 365.9 L 111.7 366.0 L 116.8 366.0 L 121.9 366.0 L 127.1 366.0 L 132.2 366.0 L 137.3 366.0 L 142.4 366.0 L 147.7 338.6 L 153.1 338.2 L 159.0 338.2 L 164.4 366.0 L 169.6 349.2 L 174.7 347.4 L 180.0 366.0 L 185.1 366.0 L 190.2 366.0 L 195.4 366.0 L 200.5 348.0 L 206.0 366.0 L 211.3 366.0 L 216.4 366.0 L 221.6 366.0 L 226.7 293.1 L 231.9 366.0 L 237.1 366.0 L 242.8 366.0 L 248.1 366.0 L 253.6 232.1 L 258.8 366.0 L 263.9 366.0 L 269.4 366.0 L 274.6 366.0 L 279.8 366.0 L 284.9 252.8 L 290.1 366.0 L 295.2 366.0 L 300.5 366.0 L 305.8 366.0 L 311.1 366.0 L 316.2 232.1 L 321.3 366.0 L 326.6 366.0 L 331.7 366.0 L 336.9 366.0 L 342.4 366.0 L 347.6 359.1 L 352.8 366.0 L 357.9 365.9 L 363.1 365.9 L 368.2 366.0 L 373.3 366.0 L 378.6 366.0 L 383.7 307.2 L 388.9 366.0 L 394.2 366.0 L 399.3 366.0 L 404.4 366.0 L 409.7 366.0 L 414.8 366.0 L 419.9 366.0 L 425.3 366.0 L 430.5 366.0 L 435.6 366.0 L 440.9 366.0 L 446.0 366.0 L 451.1 366.0 L 456.3 366.0 L 461.5 274.8 L 467.1 366.0 L 472.3 366.0 L 477.4 366.0 L 482.5 366.0 L 487.8 366.0 L 492.9 366.0 L 498.3 366.0 L 503.7 366.0 L 508.9 366.0 L 514.1 366.0 L 519.3 366.0 L 524.5 366.0 L 529.6 366.0 L 535.1 366.0 L 540.3 366.0 L 545.4 366.0 L 550.7 366.0 L 555.8 366.0 L 560.9 366.0 L 566.1 261.7 L 571.4 366.0 L 576.6 366.0 L 581.7 366.0 L 587.0 366.0 L 592.1 265.6 L 597.3 366.0 L 602.4 366.0 L 607.6 365.9 L 613.2 365.9 L 618.3 365.9 L 623.5 366.0 L 628.6 366.0 L 633.9 366.0 L 639.0 366.0 L 644.1 366.0 L 649.4 267.9 L 654.6 366.0 L 659.8 366.0 L 665.1 366.0 L 670.2 366.0 L 675.3 366.0 L 680.4 292.7 L 685.7 366.0 L 690.9 366.0 L 696.3 366.0 L 701.5 366.0 L 706.6 366.0 L 711.8 366.0 L 717.0 365.9 L 723.5 366.0 L 728.6 366.0 L 733.7 366.0 L 738.9 365.9 L 744.1 365.9 L 749.2 232.1 L 754.9 366.0 L 760.3 366.0 L 765.4 366.0 L 770.6 366.0 L 775.7 366.0 L 781.2 366.0 L 786.5 357.1 L 791.6 366.0 L 796.8 366.0 L 801.9 366.0 L 807.2 366.0 L 812.3 366.0 L 817.9 366.0 L 823.0 280.4 L 828.1 366.0 L 833.4 366.0 L 838.5 366.0 L 843.7 366.0 L 848.9 366.0 L 854.3 366.0 L 859.6 338.2 L 868.8 365.9 L 874.3 365.9 L 879.7 366.0 L 884.8 366.0 L 889.9 366.0 L 895.0 366.0 L 900.2 366.0 L 905.4 366.0 L 910.5 366.0 L 915.8 366.0 L 920.9 366.0 L 926.0 366.0 L 931.1 366.0 L 936.2 366.0 L 941.3 366.0 L 946.5 323.4 L 952.2 362.1 L 957.4 366.0 L 962.5 366.0 L 967.7 366.0 L 972.8 366.0 L 977.9 366.0 L 983.0 339.2 L 988.4 366.0 L 993.5 366.0 L 998.7 366.0 L 1004.0 366.0 L 1009.1 299.1 L 1014.2 366.0 L 1019.3 366.0 L 1024.6 366.0 L 1029.7 366.0 L 1034.8 366.0 L 1039.9 272.1 L 1045.0 366.0 L 1050.2 366.0 L 1055.4 366.0 L 1060.5 366.0 L 1065.6 366.0 L 1070.8 315.8 L 1076.0 366.0" fill="none" stroke="#4C78A8" stroke-width="2.8" stroke-linejoin="round" stroke-linecap="round"/>
<path d="M 86.0 366.0 L 91.1 366.0 L 96.2 366.0 L 101.4 366.0 L 106.6 366.0 L 111.7 366.0 L 116.8 366.0 L 121.9 366.0 L 127.1 366.0 L 132.2 365.9 L 137.3 366.0 L 142.4 318.3 L 147.7 121.5 L 153.1 89.6 L 159.0 204.6 L 164.4 365.8 L 169.6 366.0 L 174.7 365.9 L 180.0 365.9 L 185.1 365.9 L 190.2 365.9 L 195.4 365.9 L 200.5 365.9 L 206.0 365.9 L 211.3 365.9 L 216.4 365.9 L 221.6 365.9 L 226.7 365.8 L 231.9 365.8 L 237.1 365.9 L 242.8 365.9 L 248.1 365.9 L 253.6 365.9 L 258.8 365.9 L 263.9 365.9 L 269.4 365.9 L 274.6 365.9 L 279.8 365.9 L 284.9 365.9 L 290.1 365.9 L 295.2 365.9 L 300.5 365.9 L 305.8 365.9 L 311.1 365.9 L 316.2 365.9 L 321.3 365.9 L 326.6 365.9 L 331.7 365.9 L 336.9 365.9 L 342.4 365.9 L 347.6 365.9 L 352.8 365.9 L 357.9 365.9 L 363.1 365.9 L 368.2 365.9 L 373.3 365.9 L 378.6 365.9 L 383.7 365.9 L 388.9 365.9 L 394.2 365.9 L 399.3 365.9 L 404.4 365.9 L 409.7 365.9 L 414.8 365.9 L 419.9 365.9 L 425.3 365.9 L 430.5 365.9 L 435.6 365.9 L 440.9 365.9 L 446.0 365.9 L 451.1 365.9 L 456.3 365.9 L 461.5 365.9 L 467.1 366.0 L 472.3 365.9 L 477.4 365.9 L 482.5 365.8 L 487.8 365.9 L 492.9 365.9 L 498.3 365.9 L 503.7 365.9 L 508.9 365.9 L 514.1 365.9 L 519.3 365.9 L 524.5 365.9 L 529.6 365.9 L 535.1 365.9 L 540.3 365.9 L 545.4 365.9 L 550.7 365.9 L 555.8 365.9 L 560.9 365.9 L 566.1 365.9 L 571.4 365.9 L 576.6 365.9 L 581.7 365.9 L 587.0 365.9 L 592.1 365.9 L 597.3 365.9 L 602.4 365.9 L 607.6 365.9 L 613.2 365.9 L 618.3 365.9 L 623.5 365.9 L 628.6 365.9 L 633.9 365.9 L 639.0 365.9 L 644.1 365.9 L 649.4 365.9 L 654.6 365.9 L 659.8 365.9 L 665.1 365.9 L 670.2 365.9 L 675.3 365.9 L 680.4 365.9 L 685.7 365.9 L 690.9 365.9 L 696.3 365.9 L 701.5 365.9 L 706.6 365.9 L 711.8 365.9 L 717.0 365.9 L 723.5 365.9 L 728.6 365.9 L 733.7 365.9 L 738.9 365.9 L 744.1 365.9 L 749.2 365.9 L 754.9 365.9 L 760.3 365.9 L 765.4 365.9 L 770.6 365.9 L 775.7 365.9 L 781.2 365.9 L 786.5 365.9 L 791.6 365.9 L 796.8 365.9 L 801.9 365.9 L 807.2 365.9 L 812.3 365.9 L 817.9 365.9 L 823.0 365.9 L 828.1 365.9 L 833.4 365.9 L 838.5 365.9 L 843.7 365.9 L 848.9 365.9 L 854.3 365.9 L 859.6 365.8 L 868.8 365.9 L 874.3 365.9 L 879.7 365.9 L 884.8 365.9 L 889.9 365.9 L 895.0 365.9 L 900.2 365.9 L 905.4 365.9 L 910.5 365.9 L 915.8 365.9 L 920.9 365.9 L 926.0 365.9 L 931.1 365.9 L 936.2 365.9 L 941.3 365.9 L 946.5 366.0 L 952.2 163.9 L 957.4 365.9 L 962.5 365.9 L 967.7 365.9 L 972.8 365.9 L 977.9 365.9 L 983.0 365.9 L 988.4 365.9 L 993.5 365.9 L 998.7 365.8 L 1004.0 365.9 L 1009.1 365.9 L 1014.2 365.9 L 1019.3 365.9 L 1024.6 365.9 L 1029.7 365.9 L 1034.8 365.9 L 1039.9 365.9 L 1045.0 365.9 L 1050.2 365.9 L 1055.4 365.9 L 1060.5 365.9 L 1065.6 365.9 L 1070.8 365.9 L 1076.0 365.9" fill="none" stroke="#F58518" stroke-width="2.8" stroke-linejoin="round" stroke-linecap="round"/>
<line x1="102.2" y1="62.0" x2="102.2" y2="366.0" stroke="#666" stroke-dasharray="4 4" stroke-width="1.2"/>
<text x="102.2" y="402.0" text-anchor="middle" font-size="12" fill="#444" font-family="Helvetica, Arial, sans-serif">submit</text>
<line x1="1074.9" y1="62.0" x2="1074.9" y2="366.0" stroke="#888" stroke-dasharray="4 4" stroke-width="1.2"/>
<text x="1074.9" y="402.0" text-anchor="middle" font-size="12" fill="#444" font-family="Helvetica, Arial, sans-serif">finish</text>
<line x1="86.0" y1="62.0" x2="86.0" y2="366.0" stroke="#f5f5f5" stroke-width="1"/>
<text x="86.0" y="418.0" text-anchor="middle" font-size="11" fill="#444" font-family="Helvetica, Arial, sans-serif">-0.13</text>
<line x1="209.8" y1="62.0" x2="209.8" y2="366.0" stroke="#f5f5f5" stroke-width="1"/>
<text x="209.8" y="418.0" text-anchor="middle" font-size="11" fill="#444" font-family="Helvetica, Arial, sans-serif">0.88</text>
<line x1="333.5" y1="62.0" x2="333.5" y2="366.0" stroke="#f5f5f5" stroke-width="1"/>
<text x="333.5" y="418.0" text-anchor="middle" font-size="11" fill="#444" font-family="Helvetica, Arial, sans-serif">1.90</text>
<line x1="457.2" y1="62.0" x2="457.2" y2="366.0" stroke="#f5f5f5" stroke-width="1"/>
<text x="457.2" y="418.0" text-anchor="middle" font-size="11" fill="#444" font-family="Helvetica, Arial, sans-serif">2.91</text>
<line x1="581.0" y1="62.0" x2="581.0" y2="366.0" stroke="#f5f5f5" stroke-width="1"/>
<text x="581.0" y="418.0" text-anchor="middle" font-size="11" fill="#444" font-family="Helvetica, Arial, sans-serif">3.93</text>
<line x1="704.8" y1="62.0" x2="704.8" y2="366.0" stroke="#f5f5f5" stroke-width="1"/>
<text x="704.8" y="418.0" text-anchor="middle" font-size="11" fill="#444" font-family="Helvetica, Arial, sans-serif">4.94</text>
<line x1="828.5" y1="62.0" x2="828.5" y2="366.0" stroke="#f5f5f5" stroke-width="1"/>
<text x="828.5" y="418.0" text-anchor="middle" font-size="11" fill="#444" font-family="Helvetica, Arial, sans-serif">5.96</text>
<line x1="952.2" y1="62.0" x2="952.2" y2="366.0" stroke="#f5f5f5" stroke-width="1"/>
<text x="952.2" y="418.0" text-anchor="middle" font-size="11" fill="#444" font-family="Helvetica, Arial, sans-serif">6.98</text>
<line x1="1076.0" y1="62.0" x2="1076.0" y2="366.0" stroke="#f5f5f5" stroke-width="1"/>
<text x="1076.0" y="418.0" text-anchor="middle" font-size="11" fill="#444" font-family="Helvetica, Arial, sans-serif">7.99</text>
<text x="581.0" y="386.0" text-anchor="middle" font-size="15" fill="#222" font-family="Helvetica, Arial, sans-serif">time since request submit (s)</text>
</svg>