<svg xmlns="http://www.w3.org/2000/svg" width="1100" height="420" viewBox="0 0 1100 420">
<rect width="1100" height="420" fill="white"/>
<text x="86" y="26" font-size="22" font-weight="700" font-family="Helvetica, Arial, sans-serif">tb_session_07_turn_002_reuse  phase=reuse  turn=2  prompt=25088  peak_tx=12.08 GiB/s  peak_rx=42.88 GiB/s</text>
<text x="86" y="46" font-size="13" fill="#444" font-family="Helvetica, Arial, sans-serif">response_window=5.515s, response_tx=5.750 GiB, response_rx=48.691 GiB, metrics_tx=5.751 GiB, metrics_rx=48.691 GiB</text>
<line x1="86" y1="366.0" x2="1076" y2="366.0" stroke="#ececec" stroke-width="1"/>
<text x="76" y="370.0" text-anchor="end" font-size="12" fill="#444" font-family="Helvetica, Arial, sans-serif">0.0</text>
<line x1="86" y1="305.2" x2="1076" y2="305.2" stroke="#ececec" stroke-width="1"/>
<text x="76" y="309.2" text-anchor="end" font-size="12" fill="#444" font-family="Helvetica, Arial, sans-serif">9.4</text>
<line x1="86" y1="244.4" x2="1076" y2="244.4" stroke="#ececec" stroke-width="1"/>
<text x="76" y="248.4" text-anchor="end" font-size="12" fill="#444" font-family="Helvetica, Arial, sans-serif">18.9</text>
<line x1="86" y1="183.6" x2="1076" y2="183.6" stroke="#ececec" stroke-width="1"/>
<text x="76" y="187.6" text-anchor="end" font-size="12" fill="#444" font-family="Helvetica, Arial, sans-serif">28.3</text>
<line x1="86" y1="122.8" x2="1076" y2="122.8" stroke="#ececec" stroke-width="1"/>
<text x="76" y="126.8" text-anchor="end" font-size="12" fill="#444" font-family="Helvetica, Arial, sans-serif">37.7</text>
<line x1="86" y1="62.0" x2="1076" y2="62.0" stroke="#ececec" stroke-width="1"/>
<text x="76" y="66.0" text-anchor="end" font-size="12" fill="#444" font-family="Helvetica, Arial, sans-serif">47.2</text>
<line x1="86" y1="366.0" x2="1076" y2="366.0" stroke="#222" stroke-width="1.4"/>
<line x1="86" y1="62.0" x2="86" y2="366.0" stroke="#222" stroke-width="1.4"/>
<rect x="107.2" y="62.0" width="964.6" height="304.0" fill="#F58518" opacity="0.08"/>
<path d="M 86.0 366.0 L 93.5 366.0 L 100.9 366.0 L 108.2 366.0 L 115.6 366.0 L 122.9 366.0 L 130.3 366.0 L 137.6 366.0 L 145.1 366.0 L 152.5 366.0 L 159.8 366.0 L 167.2 366.0 L 174.5 366.0 L 181.9 366.0 L 189.4 345.4 L 197.1 355.5 L 204.8 345.7 L 212.6 366.0 L 220.7 366.0 L 228.2 357.4 L 235.7 345.5 L 243.6 339.3 L 253.2 361.4 L 260.7 366.0 L 269.0 341.1 L 276.3 366.0 L 283.7 366.0 L 291.0 366.0 L 298.5 366.0 L 305.9 366.0 L 313.2 366.0 L 320.9 366.0 L 328.3 366.0 L 335.6 366.0 L 342.9 366.0 L 350.3 366.0 L 357.8 366.0 L 365.2 366.0 L 372.5 366.0 L 379.9 366.0 L 387.2 366.0 L 394.5 366.0 L 402.1 366.0 L 409.4 366.0 L 416.8 366.0 L 424.1 366.0 L 431.5 366.0 L 438.8 366.0 L 446.3 366.0 L 453.7 366.0 L 461.2 345.4 L 468.9 345.3 L 476.9 345.5 L 485.1 366.0 L 492.5 366.0 L 499.8 349.7 L 507.5 337.7 L 517.7 345.5 L 525.6 366.0 L 533.1 366.0 L 540.4 346.4 L 549.0 345.2 L 556.9 345.6 L 564.7 366.0 L 572.1 366.0 L 579.6 349.7 L 587.3 345.4 L 595.2 344.8 L 603.2 360.4 L 610.6 366.0 L 618.3 356.9 L 626.0 345.6 L 634.3 345.2 L 642.4 356.8 L 649.9 366.0 L 657.3 361.6 L 665.0 344.8 L 673.7 345.5 L 681.4 351.6 L 688.9 366.0 L 696.3 366.0 L 706.1 345.0 L 715.3 342.6 L 724.4 366.0 L 731.9 366.0 L 739.3 348.3 L 747.0 345.5 L 755.0 345.4 L 763.6 366.0 L 771.1 366.0 L 778.5 366.0 L 785.8 366.0 L 793.5 366.0 L 801.0 366.0 L 808.4 366.0 L 815.7 366.0 L 823.3 288.1 L 830.6 366.0 L 837.9 366.0 L 845.8 366.0 L 853.2 366.0 L 860.5 366.0 L 867.9 366.0 L 875.4 366.0 L 882.7 362.0 L 891.1 344.0 L 899.9 345.4 L 907.9 357.7 L 915.8 366.0 L 923.1 358.2 L 931.3 345.2 L 939.6 345.4 L 947.4 363.0 L 956.2 366.0 L 963.5 366.0 L 971.1 366.0 L 978.4 365.9 L 986.4 365.9 L 993.8 365.9 L 1001.3 365.9 L 1008.7 365.9 L 1016.2 365.9 L 1023.5 365.9 L 1030.9 365.9 L 1038.7 365.9 L 1046.3 365.9 L 1053.6 365.9 L 1061.1 365.9 L 1068.5 365.9 L 1076.0 366.0" fill="none" stroke="#4C78A8" stroke-width="2.8" stroke-linejoin="round" stroke-linecap="round"/>
<path d="M 86.0 366.0 L 93.5 366.0 L 100.9 366.0 L 108.2 366.0 L 115.6 366.0 L 122.9 366.0 L 130.3 366.0 L 137.6 365.9 L 145.1 365.9 L 152.5 366.0 L 159.8 366.0 L 167.2 366.0 L 174.5 366.0 L 181.9 218.7 L 189.4 258.5 L 197.1 185.9 L 204.8 180.0 L 212.6 366.0 L 220.7 366.0 L 228.2 188.3 L 235.7 189.2 L 243.6 183.4 L 253.2 365.9 L 260.7 365.9 L 269.0 366.0 L 276.3 366.0 L 283.7 366.0 L 291.0 366.0 L 298.5 366.0 L 305.9 366.0 L 313.2 366.0 L 320.9 366.0 L 328.3 365.9 L 335.6 366.0 L 342.9 366.0 L 350.3 366.0 L 357.8 366.0 L 365.2 366.0 L 372.5 366.0 L 379.9 366.0 L 387.2 366.0 L 394.5 366.0 L 402.1 366.0 L 409.4 366.0 L 416.8 366.0 L 424.1 366.0 L 431.5 366.0 L 438.8 365.9 L 446.3 366.0 L 453.7 359.1 L 461.2 187.2 L 468.9 180.5 L 476.9 201.2 L 485.1 366.0 L 492.5 366.0 L 499.8 187.5 L 507.5 187.9 L 517.7 234.6 L 525.6 366.0 L 533.1 366.0 L 540.4 184.1 L 549.0 187.6 L 556.9 183.7 L 564.7 366.0 L 572.1 366.0 L 579.6 188.1 L 587.3 186.4 L 595.2 186.5 L 603.2 366.0 L 610.6 366.0 L 618.3 185.8 L 626.0 163.3 L 634.3 187.0 L 642.4 366.0 L 649.9 366.0 L 657.3 185.8 L 665.0 183.0 L 673.7 188.1 L 681.4 366.0 L 688.9 366.0 L 696.3 89.6 L 706.1 187.9 L 715.3 211.8 L 724.4 366.0 L 731.9 366.0 L 739.3 187.8 L 747.0 172.4 L 755.0 188.9 L 763.6 365.9 L 771.1 365.9 L 778.5 365.9 L 785.8 365.9 L 793.5 365.9 L 801.0 365.9 L 808.4 365.9 L 815.7 365.9 L 823.3 366.0 L 830.6 366.0 L 837.9 366.0 L 845.8 366.0 L 853.2 366.0 L 860.5 366.0 L 867.9 366.0 L 875.4 366.0 L 882.7 160.1 L 891.1 183.4 L 899.9 185.1 L 907.9 366.0 L 915.8 366.0 L 923.1 162.2 L 931.3 187.7 L 939.6 179.0 L 947.4 365.9 L 956.2 365.9 L 963.5 365.9 L 971.1 365.7 L 978.4 365.8 L 986.4 365.8 L 993.8 365.8 L 1001.3 365.8 L 1008.7 365.8 L 1016.2 365.8 L 1023.5 365.8 L 1030.9 365.8 L 1038.7 365.8 L 1046.3 365.8 L 1053.6 365.8 L 1061.1 365.8 L 1068.5 365.9 L 1076.0 366.0" fill="none" stroke="#F58518" stroke-width="2.8" stroke-linejoin="round" stroke-linecap="round"/>
<line x1="107.2" y1="62.0" x2="107.2" y2="366.0" stroke="#666" stroke-dasharray="4 4" stroke-width="1.2"/>
<text x="107.2" y="402.0" text-anchor="middle" font-size="12" fill="#444" font-family="Helvetica, Arial, sans-serif">submit</text>
<line x1="1071.8" y1="62.0" x2="1071.8" y2="366.0" stroke="#888" stroke-dasharray="4 4" stroke-width="1.2"/>
<text x="1071.8" y="402.0" text-anchor="middle" font-size="12" fill="#444" font-family="Helvetica, Arial, sans-serif">finish</text>
<line x1="86.0" y1="62.0" x2="86.0" y2="366.0" stroke="#f5f5f5" stroke-width="1"/>
<text x="86.0" y="418.0" text-anchor="middle" font-size="11" fill="#444" font-family="Helvetica, Arial, sans-serif">-0.12</text>
<line x1="209.8" y1="62.0" x2="209.8" y2="366.0" stroke="#f5f5f5" stroke-width="1"/>
<text x="209.8" y="418.0" text-anchor="middle" font-size="11" fill="#444" font-family="Helvetica, Arial, sans-serif">0.59</text>
<line x1="333.5" y1="62.0" x2="333.5" y2="366.0" stroke="#f5f5f5" stroke-width="1"/>
<text x="333.5" y="418.0" text-anchor="middle" font-size="11" fill="#444" font-family="Helvetica, Arial, sans-serif">1.29</text>
<line x1="457.2" y1="62.0" x2="457.2" y2="366.0" stroke="#f5f5f5" stroke-width="1"/>
<text x="457.2" y="418.0" text-anchor="middle" font-size="11" fill="#444" font-family="Helvetica, Arial, sans-serif">2.00</text>
<line x1="581.0" y1="62.0" x2="581.0" y2="366.0" stroke="#f5f5f5" stroke-width="1"/>
<text x="581.0" y="418.0" text-anchor="middle" font-size="11" fill="#444" font-family="Helvetica, Arial, sans-serif">2.71</text>
<line x1="704.8" y1="62.0" x2="704.8" y2="366.0" stroke="#f5f5f5" stroke-width="1"/>
<text x="704.8" y="418.0" text-anchor="middle" font-size="11" fill="#444" font-family="Helvetica, Arial, sans-serif">3.42</text>
<line x1="828.5" y1="62.0" x2="828.5" y2="366.0" stroke="#f5f5f5" stroke-width="1"/>
<text x="828.5" y="418.0" text-anchor="middle" font-size="11" fill="#444" font-family="Helvetica, Arial, sans-serif">4.12</text>
<line x1="952.3" y1="62.0" x2="952.3" y2="366.0" stroke="#f5f5f5" stroke-width="1"/>
<text x="952.3" y="418.0" text-anchor="middle" font-size="11" fill="#444" font-family="Helvetica, Arial, sans-serif">4.83</text>
<line x1="1076.0" y1="62.0" x2="1076.0" y2="366.0" stroke="#f5f5f5" stroke-width="1"/>
<text x="1076.0" y="418.0" text-anchor="middle" font-size="11" fill="#444" font-family="Helvetica, Arial, sans-serif">5.54</text>
<text x="581.0" y="386.0" text-anchor="middle" font-size="15" fill="#222" font-family="Helvetica, Arial, sans-serif">time since request submit (s)</text>
</svg>