<svg xmlns="http://www.w3.org/2000/svg" width="1100" height="420" viewBox="0 0 1100 420">
<rect width="1100" height="420" fill="white"/>
<text x="86" y="26" font-size="22" font-weight="700" font-family="Helvetica, Arial, sans-serif">tb_session_03_turn_001_reuse  phase=reuse  turn=1  prompt=24832  peak_tx=15.45 GiB/s  peak_rx=31.90 GiB/s</text>
<text x="86" y="46" font-size="13" fill="#444" font-family="Helvetica, Arial, sans-serif">response_window=14.509s, response_tx=15.489 GiB, response_rx=5.490 GiB, metrics_tx=41.777 GiB, metrics_rx=5.678 GiB</text>
<line x1="86" y1="366.0" x2="1076" y2="366.0" stroke="#ececec" stroke-width="1"/>
<text x="76" y="370.0" text-anchor="end" font-size="12" fill="#444" font-family="Helvetica, Arial, sans-serif">0.0</text>
<line x1="86" y1="305.2" x2="1076" y2="305.2" stroke="#ececec" stroke-width="1"/>
<text x="76" y="309.2" text-anchor="end" font-size="12" fill="#444" font-family="Helvetica, Arial, sans-serif">7.0</text>
<line x1="86" y1="244.4" x2="1076" y2="244.4" stroke="#ececec" stroke-width="1"/>
<text x="76" y="248.4" text-anchor="end" font-size="12" fill="#444" font-family="Helvetica, Arial, sans-serif">14.0</text>
<line x1="86" y1="183.6" x2="1076" y2="183.6" stroke="#ececec" stroke-width="1"/>
<text x="76" y="187.6" text-anchor="end" font-size="12" fill="#444" font-family="Helvetica, Arial, sans-serif">21.1</text>
<line x1="86" y1="122.8" x2="1076" y2="122.8" stroke="#ececec" stroke-width="1"/>
<text x="76" y="126.8" text-anchor="end" font-size="12" fill="#444" font-family="Helvetica, Arial, sans-serif">28.1</text>
<line x1="86" y1="62.0" x2="1076" y2="62.0" stroke="#ececec" stroke-width="1"/>
<text x="76" y="66.0" text-anchor="end" font-size="12" fill="#444" font-family="Helvetica, Arial, sans-serif">35.1</text>
<line x1="86" y1="366.0" x2="1076" y2="366.0" stroke="#222" stroke-width="1.4"/>
<line x1="86" y1="62.0" x2="86" y2="366.0" stroke="#222" stroke-width="1.4"/>
<rect x="95.2" y="62.0" width="980.2" height="304.0" fill="#F58518" opacity="0.08"/>
<path d="M 86.0 366.0 L 88.8 366.0 L 91.7 366.0 L 94.5 365.9 L 97.4 365.9 L 100.3 366.0 L 103.1 366.0 L 105.9 366.0 L 108.8 366.0 L 111.6 366.0 L 114.4 366.0 L 117.3 366.0 L 120.2 338.6 L 123.2 338.2 L 126.5 338.2 L 129.4 366.0 L 132.3 349.2 L 135.2 347.4 L 138.1 366.0 L 140.9 366.0 L 143.8 366.0 L 146.7 366.0 L 149.5 348.0 L 152.5 366.0 L 155.4 366.0 L 158.3 366.0 L 161.2 366.0 L 164.0 293.1 L 166.9 366.0 L 169.8 366.0 L 172.9 366.0 L 175.9 366.0 L 178.9 232.1 L 181.8 366.0 L 184.6 366.0 L 187.7 366.0 L 190.6 366.0 L 193.4 366.0 L 196.3 252.8 L 199.2 366.0 L 202.0 366.0 L 204.9 366.0 L 207.9 366.0 L 210.8 366.0 L 213.6 232.1 L 216.5 366.0 L 219.4 366.0 L 222.2 366.0 L 225.1 366.0 L 228.1 366.0 L 231.0 359.1 L 233.9 366.0 L 236.7 365.9 L 239.6 365.9 L 242.5 366.0 L 245.3 366.0 L 248.2 366.0 L 251.0 307.2 L 254.0 366.0 L 256.9 366.0 L 259.7 366.0 L 262.5 366.0 L 265.4 366.0 L 268.3 366.0 L 271.1 366.0 L 274.1 366.0 L 277.0 366.0 L 279.8 366.0 L 282.7 366.0 L 285.6 366.0 L 288.4 366.0 L 291.3 366.0 L 294.1 274.8 L 297.3 366.0 L 300.2 366.0 L 303.0 366.0 L 305.8 366.0 L 308.7 366.0 L 311.6 366.0 L 314.5 366.0 L 317.6 366.0 L 320.4 366.0 L 323.3 366.0 L 326.2 366.0 L 329.1 366.0 L 331.9 366.0 L 335.0 366.0 L 337.9 366.0 L 340.7 366.0 L 343.6 366.0 L 346.4 366.0 L 349.3 366.0 L 352.2 261.7 L 355.1 366.0 L 358.0 366.0 L 360.8 366.0 L 363.7 366.0 L 366.6 265.6 L 369.5 366.0 L 372.3 366.0 L 375.1 365.9 L 378.3 365.9 L 381.1 365.9 L 384.0 366.0 L 386.8 366.0 L 389.7 366.0 L 392.6 366.0 L 395.4 366.0 L 398.3 267.9 L 401.2 366.0 L 404.1 366.0 L 407.0 366.0 L 409.9 366.0 L 412.7 366.0 L 415.5 292.7 L 418.5 366.0 L 421.4 366.0 L 424.3 366.0 L 427.2 366.0 L 430.1 366.0 L 432.9 366.0 L 435.8 365.9 L 439.4 366.0 L 442.2 366.0 L 445.1 366.0 L 448.0 365.9 L 450.8 365.9 L 453.7 232.1 L 456.8 366.0 L 459.8 366.0 L 462.6 366.0 L 465.5 366.0 L 468.4 366.0 L 471.4 366.0 L 474.3 357.1 L 477.2 366.0 L 480.1 366.0 L 482.9 366.0 L 485.8 366.0 L 488.6 366.0 L 491.8 366.0 L 494.6 280.4 L 497.4 366.0 L 500.3 366.0 L 503.2 366.0 L 506.1 366.0 L 508.9 366.0 L 512.0 366.0 L 514.9 338.2 L 520.0 365.9 L 523.0 365.9 L 526.0 366.0 L 528.8 366.0 L 531.7 366.0 L 534.5 366.0 L 537.4 366.0 L 540.3 366.0 L 543.1 366.0 L 546.0 366.0 L 548.8 366.0 L 551.7 366.0 L 554.5 366.0 L 557.4 366.0 L 560.2 366.0 L 563.0 323.4 L 566.2 362.1 L 569.1 366.0 L 571.9 366.0 L 574.8 366.0 L 577.6 366.0 L 580.5 366.0 L 583.3 339.2 L 586.3 366.0 L 589.1 366.0 L 592.0 366.0 L 594.9 366.0 L 597.8 299.1 L 600.6 366.0 L 603.4 366.0 L 606.3 366.0 L 609.2 366.0 L 612.0 366.0 L 614.8 272.1 L 617.7 366.0 L 620.5 366.0 L 623.4 366.0 L 626.3 366.0 L 629.1 366.0 L 631.9 315.8 L 634.8 366.0 L 637.7 366.0 L 640.5 366.0 L 643.4 366.0 L 646.2 366.0 L 649.0 366.0 L 651.9 319.6 L 654.7 366.0 L 657.5 366.0 L 660.7 365.9 L 663.5 365.9 L 666.3 366.0 L 669.2 359.8 L 672.0 366.0 L 674.8 366.0 L 677.7 366.0 L 680.5 366.0 L 683.4 366.0 L 686.3 366.0 L 689.2 366.0 L 692.0 366.0 L 694.9 366.0 L 697.7 366.0 L 700.6 366.0 L 703.4 366.0 L 706.3 366.0 L 709.2 366.0 L 712.0 250.6 L 714.9 366.0 L 717.8 366.0 L 720.6 366.0 L 723.5 366.0 L 726.3 366.0 L 729.2 366.0 L 732.0 365.9 L 735.2 365.9 L 738.1 366.0 L 740.9 366.0 L 743.8 366.0 L 746.7 366.0 L 749.5 366.0 L 752.4 366.0 L 755.4 366.0 L 758.3 366.0 L 761.1 354.3 L 764.1 366.0 L 766.9 366.0 L 769.8 366.0 L 772.7 366.0 L 775.6 366.0 L 778.5 238.8 L 781.4 366.0 L 784.2 366.0 L 787.1 366.0 L 790.0 366.0 L 792.8 366.0 L 795.8 366.0 L 798.7 366.0 L 801.6 366.0 L 804.5 366.0 L 807.3 366.0 L 810.2 294.2 L 813.1 366.0 L 816.1 366.0 L 819.0 366.0 L 821.8 366.0 L 824.7 366.0 L 827.6 315.1 L 830.4 366.0 L 833.3 366.0 L 836.2 366.0 L 839.1 366.0 L 842.0 366.0 L 844.8 366.0 L 847.7 316.2 L 850.6 366.0 L 853.4 366.0 L 856.3 366.0 L 859.1 366.0 L 862.1 366.0 L 865.0 366.0 L 867.9 366.0 L 870.8 366.0 L 873.6 365.9 L 876.4 365.9 L 879.3 366.0 L 882.4 366.0 L 885.4 332.5 L 888.2 366.0 L 891.1 366.0 L 893.9 366.0 L 896.8 366.0 L 899.7 366.0 L 902.6 366.0 L 905.5 366.0 L 908.4 366.0 L 911.2 366.0 L 914.1 366.0 L 917.0 366.0 L 919.8 366.0 L 922.8 366.0 L 925.7 366.0 L 928.5 232.1 L 931.6 366.0 L 934.5 366.0 L 937.4 366.0 L 940.2 366.0 L 943.1 366.0 L 946.0 366.0 L 948.9 366.0 L 951.8 232.1 L 954.6 358.6 L 957.4 366.0 L 960.3 366.0 L 963.3 366.0 L 966.2 366.0 L 969.1 366.0 L 972.0 366.0 L 974.8 283.1 L 977.6 366.0 L 980.5 366.0 L 983.4 366.0 L 986.4 366.0 L 989.2 235.0 L 992.1 366.0 L 994.9 366.0 L 997.8 366.0 L 1000.7 366.0 L 1003.5 314.3 L 1006.7 366.0 L 1009.6 366.0 L 1012.4 366.0 L 1015.3 365.9 L 1018.2 365.9 L 1021.0 237.9 L 1024.0 366.0 L 1027.1 366.0 L 1030.0 366.0 L 1032.8 366.0 L 1035.7 366.0 L 1038.6 313.2 L 1041.4 366.0 L 1044.4 366.0 L 1047.3 366.0 L 1050.2 366.0 L 1053.0 366.0 L 1055.9 232.1 L 1058.8 366.0 L 1061.6 366.0 L 1064.5 366.0 L 1067.4 366.0 L 1070.3 366.0 L 1073.2 319.5 L 1076.0 366.0" fill="none" stroke="#4C78A8" stroke-width="2.8" stroke-linejoin="round" stroke-linecap="round"/>
<path d="M 86.0 366.0 L 88.8 366.0 L 91.7 366.0 L 94.5 366.0 L 97.4 366.0 L 100.3 366.0 L 103.1 366.0 L 105.9 366.0 L 108.8 366.0 L 111.6 365.9 L 114.4 366.0 L 117.3 318.3 L 120.2 121.5 L 123.2 89.6 L 126.5 204.6 L 129.4 365.8 L 132.3 366.0 L 135.2 365.9 L 138.1 365.9 L 140.9 365.9 L 143.8 365.9 L 146.7 365.9 L 149.5 365.9 L 152.5 365.9 L 155.4 365.9 L 158.3 365.9 L 161.2 365.9 L 164.0 365.8 L 166.9 365.8 L 169.8 365.9 L 172.9 365.9 L 175.9 365.9 L 178.9 365.9 L 181.8 365.9 L 184.6 365.9 L 187.7 365.9 L 190.6 365.9 L 193.4 365.9 L 196.3 365.9 L 199.2 365.9 L 202.0 365.9 L 204.9 365.9 L 207.9 365.9 L 210.8 365.9 L 213.6 365.9 L 216.5 365.9 L 219.4 365.9 L 222.2 365.9 L 225.1 365.9 L 228.1 365.9 L 231.0 365.9 L 233.9 365.9 L 236.7 365.9 L 239.6 365.9 L 242.5 365.9 L 245.3 365.9 L 248.2 365.9 L 251.0 365.9 L 254.0 365.9 L 256.9 365.9 L 259.7 365.9 L 262.5 365.9 L 265.4 365.9 L 268.3 365.9 L 271.1 365.9 L 274.1 365.9 L 277.0 365.9 L 279.8 365.9 L 282.7 365.9 L 285.6 365.9 L 288.4 365.9 L 291.3 365.9 L 294.1 365.9 L 297.3 366.0 L 300.2 365.9 L 303.0 365.9 L 305.8 365.8 L 308.7 365.9 L 311.6 365.9 L 314.5 365.9 L 317.6 365.9 L 320.4 365.9 L 323.3 365.9 L 326.2 365.9 L 329.1 365.9 L 331.9 365.9 L 335.0 365.9 L 337.9 365.9 L 340.7 365.9 L 343.6 365.9 L 346.4 365.9 L 349.3 365.9 L 352.2 365.9 L 355.1 365.9 L 358.0 365.9 L 360.8 365.9 L 363.7 365.9 L 366.6 365.9 L 369.5 365.9 L 372.3 365.9 L 375.1 365.9 L 378.3 365.9 L 381.1 365.9 L 384.0 365.9 L 386.8 365.9 L 389.7 365.9 L 392.6 365.9 L 395.4 365.9 L 398.3 365.9 L 401.2 365.9 L 404.1 365.9 L 407.0 365.9 L 409.9 365.9 L 412.7 365.9 L 415.5 365.9 L 418.5 365.9 L 421.4 365.9 L 424.3 365.9 L 427.2 365.9 L 430.1 365.9 L 432.9 365.9 L 435.8 365.9 L 439.4 365.9 L 442.2 365.9 L 445.1 365.9 L 448.0 365.9 L 450.8 365.9 L 453.7 365.9 L 456.8 365.9 L 459.8 365.9 L 462.6 365.9 L 465.5 365.9 L 468.4 365.9 L 471.4 365.9 L 474.3 365.9 L 477.2 365.9 L 480.1 365.9 L 482.9 365.9 L 485.8 365.9 L 488.6 365.9 L 491.8 365.9 L 494.6 365.9 L 497.4 365.9 L 500.3 365.9 L 503.2 365.9 L 506.1 365.9 L 508.9 365.9 L 512.0 365.9 L 514.9 365.8 L 520.0 365.9 L 523.0 365.9 L 526.0 365.9 L 528.8 365.9 L 531.7 365.9 L 534.5 365.9 L 537.4 365.9 L 540.3 365.9 L 543.1 365.9 L 546.0 365.9 L 548.8 365.9 L 551.7 365.9 L 554.5 365.9 L 557.4 365.9 L 560.2 365.9 L 563.0 366.0 L 566.2 163.9 L 569.1 365.9 L 571.9 365.9 L 574.8 365.9 L 577.6 365.9 L 580.5 365.9 L 583.3 365.9 L 586.3 365.9 L 589.1 365.9 L 592.0 365.8 L 594.9 365.9 L 597.8 365.9 L 600.6 365.9 L 603.4 365.9 L 606.3 365.9 L 609.2 365.9 L 612.0 365.9 L 614.8 365.9 L 617.7 365.9 L 620.5 365.9 L 623.4 365.9 L 626.3 365.9 L 629.1 365.9 L 631.9 365.9 L 634.8 365.9 L 637.7 365.9 L 640.5 365.9 L 643.4 365.9 L 646.2 365.9 L 649.0 365.9 L 651.9 365.9 L 654.7 365.9 L 657.5 365.9 L 660.7 365.9 L 663.5 365.9 L 666.3 365.9 L 669.2 365.9 L 672.0 365.9 L 674.8 365.9 L 677.7 365.9 L 680.5 365.9 L 683.4 365.9 L 686.3 365.9 L 689.2 365.9 L 692.0 365.9 L 694.9 365.9 L 697.7 365.9 L 700.6 365.9 L 703.4 365.9 L 706.3 365.9 L 709.2 365.9 L 712.0 365.9 L 714.9 365.9 L 717.8 365.9 L 720.6 365.9 L 723.5 365.9 L 726.3 365.9 L 729.2 365.9 L 732.0 365.9 L 735.2 365.9 L 738.1 365.9 L 740.9 365.9 L 743.8 365.9 L 746.7 365.9 L 749.5 365.9 L 752.4 365.9 L 755.4 365.9 L 758.3 366.0 L 761.1 264.2 L 764.1 365.9 L 766.9 365.9 L 769.8 365.9 L 772.7 365.9 L 775.6 365.9 L 778.5 365.9 L 781.4 365.9 L 784.2 365.9 L 787.1 365.9 L 790.0 365.9 L 792.8 365.9 L 795.8 365.9 L 798.7 365.9 L 801.6 365.9 L 804.5 365.8 L 807.3 365.9 L 810.2 365.9 L 813.1 365.9 L 816.1 365.9 L 819.0 365.9 L 821.8 365.9 L 824.7 365.9 L 827.6 365.9 L 830.4 365.9 L 833.3 365.9 L 836.2 365.9 L 839.1 365.9 L 842.0 365.9 L 844.8 365.9 L 847.7 365.9 L 850.6 365.9 L 853.4 365.9 L 856.3 365.9 L 859.1 365.9 L 862.1 365.9 L 865.0 365.9 L 867.9 365.9 L 870.8 365.9 L 873.6 365.9 L 876.4 365.9 L 879.3 365.9 L 882.4 365.9 L 885.4 365.9 L 888.2 365.9 L 891.1 365.9 L 893.9 365.9 L 896.8 365.9 L 899.7 365.9 L 902.6 365.9 L 905.5 365.9 L 908.4 365.9 L 911.2 365.9 L 914.1 365.9 L 917.0 365.9 L 919.8 365.9 L 922.8 365.9 L 925.7 365.9 L 928.5 365.9 L 931.6 365.9 L 934.5 365.9 L 937.4 365.9 L 940.2 365.9 L 943.1 365.9 L 946.0 365.8 L 948.9 365.9 L 951.8 366.0 L 954.6 365.9 L 957.4 365.9 L 960.3 365.9 L 963.3 366.0 L 966.2 366.0 L 969.1 366.0 L 972.0 366.0 L 974.8 365.9 L 977.6 365.9 L 980.5 365.9 L 983.4 365.9 L 986.4 365.9 L 989.2 365.9 L 992.1 365.9 L 994.9 365.9 L 997.8 365.9 L 1000.7 365.9 L 1003.5 365.9 L 1006.7 365.9 L 1009.6 365.9 L 1012.4 365.9 L 1015.3 365.9 L 1018.2 365.9 L 1021.0 365.9 L 1024.0 365.9 L 1027.1 365.9 L 1030.0 365.9 L 1032.8 365.9 L 1035.7 365.9 L 1038.6 365.9 L 1041.4 365.9 L 1044.4 365.9 L 1047.3 365.9 L 1050.2 365.9 L 1053.0 365.9 L 1055.9 365.9 L 1058.8 365.9 L 1061.6 365.9 L 1064.5 365.9 L 1067.4 365.9 L 1070.3 365.9 L 1073.2 365.9 L 1076.0 365.9" fill="none" stroke="#F58518" stroke-width="2.8" stroke-linejoin="round" stroke-linecap="round"/>
<line x1="95.2" y1="62.0" x2="95.2" y2="366.0" stroke="#666" stroke-dasharray="4 4" stroke-width="1.2"/>
<text x="95.2" y="402.0" text-anchor="middle" font-size="12" fill="#444" font-family="Helvetica, Arial, sans-serif">submit</text>
<line x1="1075.4" y1="62.0" x2="1075.4" y2="366.0" stroke="#888" stroke-dasharray="4 4" stroke-width="1.2"/>
<text x="1075.4" y="402.0" text-anchor="middle" font-size="12" fill="#444" font-family="Helvetica, Arial, sans-serif">finish</text>
<line x1="86.0" y1="62.0" x2="86.0" y2="366.0" stroke="#f5f5f5" stroke-width="1"/>
<text x="86.0" y="418.0" text-anchor="middle" font-size="11" fill="#444" font-family="Helvetica, Arial, sans-serif">-0.14</text>
<line x1="209.8" y1="62.0" x2="209.8" y2="366.0" stroke="#f5f5f5" stroke-width="1"/>
<text x="209.8" y="418.0" text-anchor="middle" font-size="11" fill="#444" font-family="Helvetica, Arial, sans-serif">1.70</text>
<line x1="333.5" y1="62.0" x2="333.5" y2="366.0" stroke="#f5f5f5" stroke-width="1"/>
<text x="333.5" y="418.0" text-anchor="middle" font-size="11" fill="#444" font-family="Helvetica, Arial, sans-serif">3.53</text>
<line x1="457.3" y1="62.0" x2="457.3" y2="366.0" stroke="#f5f5f5" stroke-width="1"/>
<text x="457.3" y="418.0" text-anchor="middle" font-size="11" fill="#444" font-family="Helvetica, Arial, sans-serif">5.36</text>
<line x1="581.0" y1="62.0" x2="581.0" y2="366.0" stroke="#f5f5f5" stroke-width="1"/>
<text x="581.0" y="418.0" text-anchor="middle" font-size="11" fill="#444" font-family="Helvetica, Arial, sans-serif">7.19</text>
<line x1="704.8" y1="62.0" x2="704.8" y2="366.0" stroke="#f5f5f5" stroke-width="1"/>
<text x="704.8" y="418.0" text-anchor="middle" font-size="11" fill="#444" font-family="Helvetica, Arial, sans-serif">9.02</text>
<line x1="828.5" y1="62.0" x2="828.5" y2="366.0" stroke="#f5f5f5" stroke-width="1"/>
<text x="828.5" y="418.0" text-anchor="middle" font-size="11" fill="#444" font-family="Helvetica, Arial, sans-serif">10.85</text>
<line x1="952.2" y1="62.0" x2="952.2" y2="366.0" stroke="#f5f5f5" stroke-width="1"/>
<text x="952.2" y="418.0" text-anchor="middle" font-size="11" fill="#444" font-family="Helvetica, Arial, sans-serif">12.69</text>
<line x1="1076.0" y1="62.0" x2="1076.0" y2="366.0" stroke="#f5f5f5" stroke-width="1"/>
<text x="1076.0" y="418.0" text-anchor="middle" font-size="11" fill="#444" font-family="Helvetica, Arial, sans-serif">14.52</text>
<text x="581.0" y="386.0" text-anchor="middle" font-size="15" fill="#222" font-family="Helvetica, Arial, sans-serif">time since request submit (s)</text>
</svg>