<svg xmlns="http://www.w3.org/2000/svg" width="1100" height="420" viewBox="0 0 1100 420">
<rect width="1100" height="420" fill="white"/>
<text x="86" y="26" font-size="22" font-weight="700" font-family="Helvetica, Arial, sans-serif">tb_session_09_turn_001_reuse  phase=reuse  turn=1  prompt=24832  peak_tx=15.46 GiB/s  peak_rx=31.90 GiB/s</text>
<text x="86" y="46" font-size="13" fill="#444" font-family="Helvetica, Arial, sans-serif">response_window=23.959s, response_tx=28.640 GiB, response_rx=5.569 GiB, metrics_tx=41.777 GiB, metrics_rx=5.678 GiB</text>
<line x1="86" y1="366.0" x2="1076" y2="366.0" stroke="#ececec" stroke-width="1"/>
<text x="76" y="370.0" text-anchor="end" font-size="12" fill="#444" font-family="Helvetica, Arial, sans-serif">0.0</text>
<line x1="86" y1="305.2" x2="1076" y2="305.2" stroke="#ececec" stroke-width="1"/>
<text x="76" y="309.2" text-anchor="end" font-size="12" fill="#444" font-family="Helvetica, Arial, sans-serif">7.0</text>
<line x1="86" y1="244.4" x2="1076" y2="244.4" stroke="#ececec" stroke-width="1"/>
<text x="76" y="248.4" text-anchor="end" font-size="12" fill="#444" font-family="Helvetica, Arial, sans-serif">14.0</text>
<line x1="86" y1="183.6" x2="1076" y2="183.6" stroke="#ececec" stroke-width="1"/>
<text x="76" y="187.6" text-anchor="end" font-size="12" fill="#444" font-family="Helvetica, Arial, sans-serif">21.1</text>
<line x1="86" y1="122.8" x2="1076" y2="122.8" stroke="#ececec" stroke-width="1"/>
<text x="76" y="126.8" text-anchor="end" font-size="12" fill="#444" font-family="Helvetica, Arial, sans-serif">28.1</text>
<line x1="86" y1="62.0" x2="1076" y2="62.0" stroke="#ececec" stroke-width="1"/>
<text x="76" y="66.0" text-anchor="end" font-size="12" fill="#444" font-family="Helvetica, Arial, sans-serif">35.1</text>
<line x1="86" y1="366.0" x2="1076" y2="366.0" stroke="#222" stroke-width="1.4"/>
<line x1="86" y1="62.0" x2="86" y2="366.0" stroke="#222" stroke-width="1.4"/>
<rect x="91.9" y="62.0" width="983.4" height="304.0" fill="#F58518" opacity="0.08"/>
<path d="M 86.0 366.0 L 87.7 366.0 L 89.4 366.0 L 91.2 365.9 L 92.9 365.9 L 94.7 366.0 L 96.4 366.0 L 98.1 366.0 L 99.8 366.0 L 101.6 366.0 L 103.3 366.0 L 105.0 366.0 L 106.8 338.6 L 108.6 338.2 L 110.6 338.2 L 112.4 366.0 L 114.2 349.2 L 115.9 347.4 L 117.6 366.0 L 119.4 366.0 L 121.1 366.0 L 122.9 366.0 L 124.6 348.0 L 126.4 366.0 L 128.2 366.0 L 129.9 366.0 L 131.7 366.0 L 133.4 293.1 L 135.1 366.0 L 136.9 366.0 L 138.8 366.0 L 140.6 366.0 L 142.4 232.1 L 144.2 366.0 L 145.9 366.0 L 147.8 366.0 L 149.5 366.0 L 151.3 366.0 L 153.0 252.8 L 154.8 366.0 L 156.5 366.0 L 158.2 366.0 L 160.0 366.0 L 161.8 366.0 L 163.5 232.1 L 165.3 366.0 L 167.0 366.0 L 168.7 366.0 L 170.5 366.0 L 172.4 366.0 L 174.1 359.1 L 175.9 366.0 L 177.6 365.9 L 179.3 365.9 L 181.1 366.0 L 182.8 366.0 L 184.6 366.0 L 186.3 307.2 L 188.0 366.0 L 189.8 366.0 L 191.5 366.0 L 193.3 366.0 L 195.0 366.0 L 196.7 366.0 L 198.5 366.0 L 200.3 366.0 L 202.0 366.0 L 203.8 366.0 L 205.5 366.0 L 207.3 366.0 L 209.0 366.0 L 210.7 366.0 L 212.5 274.8 L 214.4 366.0 L 216.1 366.0 L 217.8 366.0 L 219.6 366.0 L 221.3 366.0 L 223.1 366.0 L 224.9 366.0 L 226.7 366.0 L 228.4 366.0 L 230.2 366.0 L 232.0 366.0 L 233.7 366.0 L 235.4 366.0 L 237.3 366.0 L 239.0 366.0 L 240.7 366.0 L 242.5 366.0 L 244.2 366.0 L 246.0 366.0 L 247.7 261.7 L 249.5 366.0 L 251.3 366.0 L 253.0 366.0 L 254.7 366.0 L 256.5 265.6 L 258.2 366.0 L 260.0 366.0 L 261.7 365.9 L 263.6 365.9 L 265.3 365.9 L 267.1 366.0 L 268.8 366.0 L 270.5 366.0 L 272.3 366.0 L 274.0 366.0 L 275.8 267.9 L 277.5 366.0 L 279.3 366.0 L 281.1 366.0 L 282.8 366.0 L 284.5 366.0 L 286.2 292.7 L 288.0 366.0 L 289.8 366.0 L 291.6 366.0 L 293.3 366.0 L 295.0 366.0 L 296.8 366.0 L 298.5 365.9 L 300.7 366.0 L 302.4 366.0 L 304.2 366.0 L 305.9 365.9 L 307.7 365.9 L 309.4 232.1 L 311.3 366.0 L 313.1 366.0 L 314.8 366.0 L 316.6 366.0 L 318.3 366.0 L 320.2 366.0 L 321.9 357.1 L 323.7 366.0 L 325.4 366.0 L 327.1 366.0 L 328.9 366.0 L 330.6 366.0 L 332.5 366.0 L 334.2 280.4 L 336.0 366.0 L 337.7 366.0 L 339.5 366.0 L 341.2 366.0 L 343.0 366.0 L 344.8 366.0 L 346.6 338.2 L 349.7 365.9 L 351.5 365.9 L 353.3 366.0 L 355.1 366.0 L 356.8 366.0 L 358.5 366.0 L 360.2 366.0 L 362.0 366.0 L 363.7 366.0 L 365.5 366.0 L 367.2 366.0 L 368.9 366.0 L 370.7 366.0 L 372.4 366.0 L 374.1 366.0 L 375.8 323.4 L 377.8 362.1 L 379.5 366.0 L 381.2 366.0 L 383.0 366.0 L 384.7 366.0 L 386.4 366.0 L 388.1 339.2 L 389.9 366.0 L 391.7 366.0 L 393.4 366.0 L 395.2 366.0 L 396.9 299.1 L 398.7 366.0 L 400.4 366.0 L 402.1 366.0 L 403.9 366.0 L 405.6 366.0 L 407.3 272.1 L 409.0 366.0 L 410.8 366.0 L 412.5 366.0 L 414.2 366.0 L 416.0 366.0 L 417.7 315.8 L 419.5 366.0 L 421.2 366.0 L 422.9 366.0 L 424.6 366.0 L 426.4 366.0 L 428.1 366.0 L 429.8 319.6 L 431.5 366.0 L 433.3 366.0 L 435.1 365.9 L 436.9 365.9 L 438.6 366.0 L 440.3 359.8 L 442.0 366.0 L 443.8 366.0 L 445.5 366.0 L 447.2 366.0 L 449.0 366.0 L 450.7 366.0 L 452.5 366.0 L 454.2 366.0 L 456.0 366.0 L 457.7 366.0 L 459.4 366.0 L 461.1 366.0 L 462.8 366.0 L 464.6 366.0 L 466.3 250.6 L 468.1 366.0 L 469.9 366.0 L 471.6 366.0 L 473.3 366.0 L 475.0 366.0 L 476.8 366.0 L 478.5 365.9 L 480.4 365.9 L 482.2 366.0 L 483.9 366.0 L 485.7 366.0 L 487.4 366.0 L 489.1 366.0 L 490.9 366.0 L 492.7 366.0 L 494.5 366.0 L 496.2 354.3 L 498.0 366.0 L 499.7 366.0 L 501.4 366.0 L 503.2 366.0 L 505.0 366.0 L 506.7 238.8 L 508.5 366.0 L 510.2 366.0 L 512.0 366.0 L 513.7 366.0 L 515.4 366.0 L 517.3 366.0 L 519.0 366.0 L 520.8 366.0 L 522.5 366.0 L 524.3 366.0 L 526.0 294.2 L 527.7 366.0 L 529.6 366.0 L 531.4 366.0 L 533.1 366.0 L 534.8 366.0 L 536.6 315.1 L 538.3 366.0 L 540.1 366.0 L 541.8 366.0 L 543.5 366.0 L 545.3 366.0 L 547.0 366.0 L 548.8 316.2 L 550.5 366.0 L 552.2 366.0 L 554.0 366.0 L 555.7 366.0 L 557.5 366.0 L 559.3 366.0 L 561.0 366.0 L 562.8 366.0 L 564.5 365.9 L 566.2 365.9 L 568.0 366.0 L 569.9 366.0 L 571.7 332.5 L 573.4 366.0 L 575.2 366.0 L 576.9 366.0 L 578.6 366.0 L 580.4 366.0 L 582.1 366.0 L 583.9 366.0 L 585.7 366.0 L 587.4 366.0 L 589.1 366.0 L 590.9 366.0 L 592.6 366.0 L 594.4 366.0 L 596.2 366.0 L 597.9 232.1 L 599.8 366.0 L 601.5 366.0 L 603.3 366.0 L 605.0 366.0 L 606.8 366.0 L 608.5 366.0 L 610.2 366.0 L 612.0 232.1 L 613.7 358.6 L 615.5 366.0 L 617.2 366.0 L 619.0 366.0 L 620.8 366.0 L 622.5 366.0 L 624.3 366.0 L 626.0 283.1 L 627.7 366.0 L 629.5 366.0 L 631.3 366.0 L 633.0 366.0 L 634.8 235.0 L 636.5 366.0 L 638.2 366.0 L 640.0 366.0 L 641.7 366.0 L 643.5 314.3 L 645.4 366.0 L 647.1 366.0 L 648.9 366.0 L 650.6 365.9 L 652.4 365.9 L 654.1 237.9 L 655.9 366.0 L 657.8 366.0 L 659.5 366.0 L 661.3 366.0 L 663.0 366.0 L 664.8 313.2 L 666.5 366.0 L 668.3 366.0 L 670.1 366.0 L 671.8 366.0 L 673.5 366.0 L 675.3 232.1 L 677.0 366.0 L 678.8 366.0 L 680.5 366.0 L 682.3 366.0 L 684.0 366.0 L 685.8 319.5 L 687.5 366.0 L 689.3 366.0 L 691.0 366.0 L 692.7 366.0 L 694.6 365.9 L 696.4 366.0 L 698.1 232.8 L 699.8 366.0 L 701.6 366.0 L 703.3 366.0 L 705.0 366.0 L 706.8 366.0 L 708.6 366.0 L 710.3 232.1 L 712.0 366.0 L 713.8 366.0 L 715.5 366.0 L 717.3 366.0 L 719.0 366.0 L 720.7 366.0 L 722.5 344.0 L 724.3 366.0 L 726.0 366.0 L 727.8 366.0 L 729.5 366.0 L 731.3 366.0 L 733.0 366.0 L 734.8 366.0 L 736.5 232.1 L 738.4 365.9 L 740.2 366.0 L 741.9 366.0 L 743.6 366.0 L 745.3 365.9 L 748.2 366.0 L 750.0 366.0 L 751.7 362.3 L 753.5 366.0 L 755.3 366.0 L 757.1 366.0 L 758.8 366.0 L 760.6 366.0 L 762.3 270.0 L 764.0 366.0 L 765.8 366.0 L 767.5 366.0 L 769.2 366.0 L 771.0 248.9 L 772.7 366.0 L 774.5 366.0 L 776.2 366.0 L 778.0 366.0 L 779.7 365.9 L 781.5 365.9 L 783.2 366.0 L 785.0 366.0 L 786.7 366.0 L 788.5 366.0 L 790.2 232.1 L 792.0 366.0 L 793.7 366.0 L 795.4 366.0 L 797.2 366.0 L 799.0 366.0 L 800.7 274.9 L 802.5 366.0 L 804.2 366.0 L 805.9 366.0 L 807.7 366.0 L 809.4 366.0 L 811.2 232.1 L 813.0 366.0 L 814.7 366.0 L 816.5 366.0 L 818.2 366.0 L 819.9 365.9 L 822.9 250.9 L 824.6 365.9 L 826.4 366.0 L 828.1 366.0 L 829.8 366.0 L 831.6 366.0 L 833.5 366.0 L 835.2 360.7 L 836.9 366.0 L 838.7 366.0 L 840.4 366.0 L 842.2 366.0 L 843.9 366.0 L 845.7 366.0 L 847.5 314.2 L 849.2 366.0 L 850.9 366.0 L 852.7 366.0 L 854.4 366.0 L 856.2 366.0 L 858.0 366.0 L 859.7 274.2 L 861.5 366.0 L 863.2 366.0 L 865.0 366.0 L 866.7 366.0 L 868.6 366.0 L 870.4 366.0 L 872.1 366.0 L 873.8 234.9 L 875.6 366.0 L 877.3 366.0 L 879.1 366.0 L 880.8 366.0 L 882.6 366.0 L 884.3 366.0 L 886.1 366.0 L 887.8 232.2 L 889.6 366.0 L 891.3 366.0 L 893.1 366.0 L 894.9 366.0 L 896.7 366.0 L 898.4 269.5 L 900.1 366.0 L 901.9 366.0 L 903.6 366.0 L 905.3 366.0 L 907.3 323.9 L 909.0 366.0 L 911.0 366.0 L 912.8 366.0 L 914.5 366.0 L 916.4 275.0 L 918.1 366.0 L 919.9 366.0 L 921.7 366.0 L 923.4 366.0 L 925.2 362.1 L 927.0 366.0 L 928.8 366.0 L 930.5 366.0 L 932.3 366.0 L 934.0 366.0 L 935.7 253.7 L 937.5 366.0 L 939.2 366.0 L 941.0 366.0 L 942.7 366.0 L 944.5 366.0 L 946.2 316.6 L 947.9 366.0 L 949.7 366.0 L 951.4 365.9 L 953.2 365.9 L 955.0 366.0 L 956.7 366.0 L 958.4 315.4 L 960.2 366.0 L 961.9 366.0 L 963.7 366.0 L 965.4 366.0 L 967.2 366.0 L 969.0 366.0 L 970.7 366.0 L 972.4 366.0 L 974.2 366.0 L 975.9 366.0 L 977.7 366.0 L 979.4 366.0 L 981.1 366.0 L 982.9 360.5 L 984.6 366.0 L 986.4 366.0 L 988.1 366.0 L 989.8 366.0 L 991.6 366.0 L 993.4 366.0 L 995.2 232.1 L 997.1 365.9 L 998.9 366.0 L 1000.6 366.0 L 1002.4 366.0 L 1004.1 366.0 L 1005.9 366.0 L 1007.7 366.0 L 1009.4 357.6 L 1011.2 366.0 L 1012.9 366.0 L 1014.7 366.0 L 1016.4 366.0 L 1018.2 366.0 L 1019.9 366.0 L 1021.7 366.0 L 1023.4 290.6 L 1025.2 358.5 L 1026.9 366.0 L 1028.6 366.0 L 1030.5 366.0 L 1032.2 366.0 L 1033.9 366.0 L 1035.7 232.1 L 1037.4 365.9 L 1039.2 366.0 L 1041.0 366.0 L 1042.8 366.0 L 1044.6 232.1 L 1046.3 366.0 L 1048.0 366.0 L 1049.8 366.0 L 1051.5 366.0 L 1053.3 366.0 L 1055.0 366.0 L 1056.7 366.0 L 1058.5 366.0 L 1060.2 366.0 L 1062.0 366.0 L 1063.7 290.1 L 1065.5 366.0 L 1067.3 366.0 L 1069.0 366.0 L 1070.8 366.0 L 1072.5 366.0 L 1074.2 250.9 L 1076.0 366.0" fill="none" stroke="#4C78A8" stroke-width="2.8" stroke-linejoin="round" stroke-linecap="round"/>
<path d="M 86.0 366.0 L 87.7 366.0 L 89.4 366.0 L 91.2 366.0 L 92.9 366.0 L 94.7 366.0 L 96.4 366.0 L 98.1 366.0 L 99.8 366.0 L 101.6 365.9 L 103.3 366.0 L 105.0 318.3 L 106.8 121.5 L 108.6 89.6 L 110.6 204.6 L 112.4 365.8 L 114.2 366.0 L 115.9 365.9 L 117.6 365.9 L 119.4 365.9 L 121.1 365.9 L 122.9 365.9 L 124.6 365.9 L 126.4 365.9 L 128.2 365.9 L 129.9 365.9 L 131.7 365.9 L 133.4 365.8 L 135.1 365.8 L 136.9 365.9 L 138.8 365.9 L 140.6 365.9 L 142.4 365.9 L 144.2 365.9 L 145.9 365.9 L 147.8 365.9 L 149.5 365.9 L 151.3 365.9 L 153.0 365.9 L 154.8 365.9 L 156.5 365.9 L 158.2 365.9 L 160.0 365.9 L 161.8 365.9 L 163.5 365.9 L 165.3 365.9 L 167.0 365.9 L 168.7 365.9 L 170.5 365.9 L 172.4 365.9 L 174.1 365.9 L 175.9 365.9 L 177.6 365.9 L 179.3 365.9 L 181.1 365.9 L 182.8 365.9 L 184.6 365.9 L 186.3 365.9 L 188.0 365.9 L 189.8 365.9 L 191.5 365.9 L 193.3 365.9 L 195.0 365.9 L 196.7 365.9 L 198.5 365.9 L 200.3 365.9 L 202.0 365.9 L 203.8 365.9 L 205.5 365.9 L 207.3 365.9 L 209.0 365.9 L 210.7 365.9 L 212.5 365.9 L 214.4 366.0 L 216.1 365.9 L 217.8 365.9 L 219.6 365.8 L 221.3 365.9 L 223.1 365.9 L 224.9 365.9 L 226.7 365.9 L 228.4 365.9 L 230.2 365.9 L 232.0 365.9 L 233.7 365.9 L 235.4 365.9 L 237.3 365.9 L 239.0 365.9 L 240.7 365.9 L 242.5 365.9 L 244.2 365.9 L 246.0 365.9 L 247.7 365.9 L 249.5 365.9 L 251.3 365.9 L 253.0 365.9 L 254.7 365.9 L 256.5 365.9 L 258.2 365.9 L 260.0 365.9 L 261.7 365.9 L 263.6 365.9 L 265.3 365.9 L 267.1 365.9 L 268.8 365.9 L 270.5 365.9 L 272.3 365.9 L 274.0 365.9 L 275.8 365.9 L 277.5 365.9 L 279.3 365.9 L 281.1 365.9 L 282.8 365.9 L 284.5 365.9 L 286.2 365.9 L 288.0 365.9 L 289.8 365.9 L 291.6 365.9 L 293.3 365.9 L 295.0 365.9 L 296.8 365.9 L 298.5 365.9 L 300.7 365.9 L 302.4 365.9 L 304.2 365.9 L 305.9 365.9 L 307.7 365.9 L 309.4 365.9 L 311.3 365.9 L 313.1 365.9 L 314.8 365.9 L 316.6 365.9 L 318.3 365.9 L 320.2 365.9 L 321.9 365.9 L 323.7 365.9 L 325.4 365.9 L 327.1 365.9 L 328.9 365.9 L 330.6 365.9 L 332.5 365.9 L 334.2 365.9 L 336.0 365.9 L 337.7 365.9 L 339.5 365.9 L 341.2 365.9 L 343.0 365.9 L 344.8 365.9 L 346.6 365.8 L 349.7 365.9 L 351.5 365.9 L 353.3 365.9 L 355.1 365.9 L 356.8 365.9 L 358.5 365.9 L 360.2 365.9 L 362.0 365.9 L 363.7 365.9 L 365.5 365.9 L 367.2 365.9 L 368.9 365.9 L 370.7 365.9 L 372.4 365.9 L 374.1 365.9 L 375.8 366.0 L 377.8 163.9 L 379.5 365.9 L 381.2 365.9 L 383.0 365.9 L 384.7 365.9 L 386.4 365.9 L 388.1 365.9 L 389.9 365.9 L 391.7 365.9 L 393.4 365.8 L 395.2 365.9 L 396.9 365.9 L 398.7 365.9 L 400.4 365.9 L 402.1 365.9 L 403.9 365.9 L 405.6 365.9 L 407.3 365.9 L 409.0 365.9 L 410.8 365.9 L 412.5 365.9 L 414.2 365.9 L 416.0 365.9 L 417.7 365.9 L 419.5 365.9 L 421.2 365.9 L 422.9 365.9 L 424.6 365.9 L 426.4 365.9 L 428.1 365.9 L 429.8 365.9 L 431.5 365.9 L 433.3 365.9 L 435.1 365.9 L 436.9 365.9 L 438.6 365.9 L 440.3 365.9 L 442.0 365.9 L 443.8 365.9 L 445.5 365.9 L 447.2 365.9 L 449.0 365.9 L 450.7 365.9 L 452.5 365.9 L 454.2 365.9 L 456.0 365.9 L 457.7 365.9 L 459.4 365.9 L 461.1 365.9 L 462.8 365.9 L 464.6 365.9 L 466.3 365.9 L 468.1 365.9 L 469.9 365.9 L 471.6 365.9 L 473.3 365.9 L 475.0 365.9 L 476.8 365.9 L 478.5 365.9 L 480.4 365.9 L 482.2 365.9 L 483.9 365.9 L 485.7 365.9 L 487.4 365.9 L 489.1 365.9 L 490.9 365.9 L 492.7 365.9 L 494.5 366.0 L 496.2 264.2 L 498.0 365.9 L 499.7 365.9 L 501.4 365.9 L 503.2 365.9 L 505.0 365.9 L 506.7 365.9 L 508.5 365.9 L 510.2 365.9 L 512.0 365.9 L 513.7 365.9 L 515.4 365.9 L 517.3 365.9 L 519.0 365.9 L 520.8 365.9 L 522.5 365.8 L 524.3 365.9 L 526.0 365.9 L 527.7 365.9 L 529.6 365.9 L 531.4 365.9 L 533.1 365.9 L 534.8 365.9 L 536.6 365.9 L 538.3 365.9 L 540.1 365.9 L 541.8 365.9 L 543.5 365.9 L 545.3 365.9 L 547.0 365.9 L 548.8 365.9 L 550.5 365.9 L 552.2 365.9 L 554.0 365.9 L 555.7 365.9 L 557.5 365.9 L 559.3 365.9 L 561.0 365.9 L 562.8 365.9 L 564.5 365.9 L 566.2 365.9 L 568.0 365.9 L 569.9 365.9 L 571.7 365.9 L 573.4 365.9 L 575.2 365.9 L 576.9 365.9 L 578.6 365.9 L 580.4 365.9 L 582.1 365.9 L 583.9 365.9 L 585.7 365.9 L 587.4 365.9 L 589.1 365.9 L 590.9 365.9 L 592.6 365.9 L 594.4 365.9 L 596.2 365.9 L 597.9 365.9 L 599.8 365.9 L 601.5 365.9 L 603.3 365.9 L 605.0 365.9 L 606.8 365.9 L 608.5 365.8 L 610.2 365.9 L 612.0 366.0 L 613.7 365.9 L 615.5 365.9 L 617.2 365.9 L 619.0 366.0 L 620.8 366.0 L 622.5 366.0 L 624.3 366.0 L 626.0 365.9 L 627.7 365.9 L 629.5 365.9 L 631.3 365.9 L 633.0 365.9 L 634.8 365.9 L 636.5 365.9 L 638.2 365.9 L 640.0 365.9 L 641.7 365.9 L 643.5 365.9 L 645.4 365.9 L 647.1 365.9 L 648.9 365.9 L 650.6 365.9 L 652.4 365.9 L 654.1 365.9 L 655.9 365.9 L 657.8 365.9 L 659.5 365.9 L 661.3 365.9 L 663.0 365.9 L 664.8 365.9 L 666.5 365.9 L 668.3 365.9 L 670.1 365.9 L 671.8 365.9 L 673.5 365.9 L 675.3 365.9 L 677.0 365.9 L 678.8 365.9 L 680.5 365.9 L 682.3 365.9 L 684.0 365.9 L 685.8 365.9 L 687.5 365.9 L 689.3 365.9 L 691.0 365.9 L 692.7 365.9 L 694.6 365.9 L 696.4 365.9 L 698.1 365.9 L 699.8 365.9 L 701.6 365.9 L 703.3 365.9 L 705.0 365.9 L 706.8 365.9 L 708.6 365.9 L 710.3 365.9 L 712.0 365.9 L 713.8 365.9 L 715.5 365.9 L 717.3 365.9 L 719.0 365.9 L 720.7 365.9 L 722.5 365.9 L 724.3 365.9 L 726.0 365.9 L 727.8 365.9 L 729.5 365.9 L 731.3 365.9 L 733.0 365.9 L 734.8 365.9 L 736.5 365.9 L 738.4 365.9 L 740.2 365.9 L 741.9 365.9 L 743.6 365.9 L 745.3 365.9 L 748.2 365.9 L 750.0 366.0 L 751.7 365.9 L 753.5 365.9 L 755.3 365.9 L 757.1 365.9 L 758.8 365.9 L 760.6 365.9 L 762.3 365.9 L 764.0 365.9 L 765.8 365.9 L 767.5 365.9 L 769.2 365.9 L 771.0 365.9 L 772.7 365.9 L 774.5 365.9 L 776.2 365.9 L 778.0 365.9 L 779.7 365.9 L 781.5 365.9 L 783.2 365.9 L 785.0 365.9 L 786.7 365.9 L 788.5 365.9 L 790.2 365.9 L 792.0 365.9 L 793.7 365.9 L 795.4 365.9 L 797.2 365.9 L 799.0 365.9 L 800.7 365.9 L 802.5 365.9 L 804.2 365.9 L 805.9 365.9 L 807.7 365.9 L 809.4 365.9 L 811.2 365.9 L 813.0 365.9 L 814.7 365.9 L 816.5 365.9 L 818.2 365.9 L 819.9 365.9 L 822.9 365.9 L 824.6 365.9 L 826.4 365.9 L 828.1 365.9 L 829.8 365.9 L 831.6 365.9 L 833.5 365.9 L 835.2 365.9 L 836.9 365.9 L 838.7 365.9 L 840.4 365.9 L 842.2 365.9 L 843.9 365.9 L 845.7 365.9 L 847.5 365.9 L 849.2 365.9 L 850.9 365.9 L 852.7 365.9 L 854.4 365.9 L 856.2 365.9 L 858.0 365.9 L 859.7 365.9 L 861.5 365.9 L 863.2 365.9 L 865.0 365.9 L 866.7 365.9 L 868.6 365.9 L 870.4 365.9 L 872.1 365.9 L 873.8 365.9 L 875.6 365.9 L 877.3 365.9 L 879.1 365.9 L 880.8 365.9 L 882.6 365.9 L 884.3 365.9 L 886.1 366.0 L 887.8 365.9 L 889.6 365.9 L 891.3 365.9 L 893.1 365.9 L 894.9 365.9 L 896.7 365.9 L 898.4 365.9 L 900.1 365.9 L 901.9 365.9 L 903.6 365.9 L 905.3 365.9 L 907.3 365.9 L 909.0 365.9 L 911.0 365.9 L 912.8 365.9 L 914.5 365.9 L 916.4 365.9 L 918.1 365.9 L 919.9 365.9 L 921.7 365.9 L 923.4 365.9 L 925.2 365.9 L 927.0 365.9 L 928.8 365.9 L 930.5 365.9 L 932.3 365.9 L 934.0 365.9 L 935.7 365.9 L 937.5 365.9 L 939.2 365.9 L 941.0 365.9 L 942.7 365.9 L 944.5 365.9 L 946.2 365.9 L 947.9 365.9 L 949.7 365.9 L 951.4 365.9 L 953.2 365.9 L 955.0 365.9 L 956.7 365.9 L 958.4 365.9 L 960.2 365.9 L 961.9 365.9 L 963.7 365.9 L 965.4 365.9 L 967.2 365.9 L 969.0 365.9 L 970.7 365.9 L 972.4 365.9 L 974.2 365.9 L 975.9 365.9 L 977.7 365.9 L 979.4 365.9 L 981.1 365.9 L 982.9 365.9 L 984.6 365.9 L 986.4 365.9 L 988.1 365.9 L 989.8 365.9 L 991.6 365.9 L 993.4 365.9 L 995.2 365.9 L 997.1 365.9 L 998.9 365.9 L 1000.6 365.9 L 1002.4 365.9 L 1004.1 365.9 L 1005.9 365.9 L 1007.7 365.9 L 1009.4 365.9 L 1011.2 365.9 L 1012.9 365.9 L 1014.7 365.9 L 1016.4 365.9 L 1018.2 365.9 L 1019.9 365.9 L 1021.7 365.9 L 1023.4 366.0 L 1025.2 365.9 L 1026.9 365.9 L 1028.6 365.9 L 1030.5 365.9 L 1032.2 365.9 L 1033.9 365.9 L 1035.7 365.9 L 1037.4 365.9 L 1039.2 365.9 L 1041.0 365.9 L 1042.8 365.9 L 1044.6 365.9 L 1046.3 365.9 L 1048.0 365.9 L 1049.8 365.9 L 1051.5 365.9 L 1053.3 365.9 L 1055.0 365.9 L 1056.7 365.9 L 1058.5 365.9 L 1060.2 365.9 L 1062.0 365.9 L 1063.7 365.9 L 1065.5 365.9 L 1067.3 365.9 L 1069.0 365.9 L 1070.8 365.9 L 1072.5 365.9 L 1074.2 365.9 L 1076.0 365.9" fill="none" stroke="#F58518" stroke-width="2.8" stroke-linejoin="round" stroke-linecap="round"/>
<line x1="91.9" y1="62.0" x2="91.9" y2="366.0" stroke="#666" stroke-dasharray="4 4" stroke-width="1.2"/>
<text x="91.9" y="402.0" text-anchor="middle" font-size="12" fill="#444" font-family="Helvetica, Arial, sans-serif">submit</text>
<line x1="1075.3" y1="62.0" x2="1075.3" y2="366.0" stroke="#888" stroke-dasharray="4 4" stroke-width="1.2"/>
<text x="1075.3" y="402.0" text-anchor="middle" font-size="12" fill="#444" font-family="Helvetica, Arial, sans-serif">finish</text>
<line x1="86.0" y1="62.0" x2="86.0" y2="366.0" stroke="#f5f5f5" stroke-width="1"/>
<text x="86.0" y="418.0" text-anchor="middle" font-size="11" fill="#444" font-family="Helvetica, Arial, sans-serif">-0.14</text>
<line x1="209.8" y1="62.0" x2="209.8" y2="366.0" stroke="#f5f5f5" stroke-width="1"/>
<text x="209.8" y="418.0" text-anchor="middle" font-size="11" fill="#444" font-family="Helvetica, Arial, sans-serif">2.87</text>
<line x1="333.5" y1="62.0" x2="333.5" y2="366.0" stroke="#f5f5f5" stroke-width="1"/>
<text x="333.5" y="418.0" text-anchor="middle" font-size="11" fill="#444" font-family="Helvetica, Arial, sans-serif">5.89</text>
<line x1="457.2" y1="62.0" x2="457.2" y2="366.0" stroke="#f5f5f5" stroke-width="1"/>
<text x="457.2" y="418.0" text-anchor="middle" font-size="11" fill="#444" font-family="Helvetica, Arial, sans-serif">8.90</text>
<line x1="581.0" y1="62.0" x2="581.0" y2="366.0" stroke="#f5f5f5" stroke-width="1"/>
<text x="581.0" y="418.0" text-anchor="middle" font-size="11" fill="#444" font-family="Helvetica, Arial, sans-serif">11.92</text>
<line x1="704.8" y1="62.0" x2="704.8" y2="366.0" stroke="#f5f5f5" stroke-width="1"/>
<text x="704.8" y="418.0" text-anchor="middle" font-size="11" fill="#444" font-family="Helvetica, Arial, sans-serif">14.93</text>
<line x1="828.5" y1="62.0" x2="828.5" y2="366.0" stroke="#f5f5f5" stroke-width="1"/>
<text x="828.5" y="418.0" text-anchor="middle" font-size="11" fill="#444" font-family="Helvetica, Arial, sans-serif">17.95</text>
<line x1="952.2" y1="62.0" x2="952.2" y2="366.0" stroke="#f5f5f5" stroke-width="1"/>
<text x="952.2" y="418.0" text-anchor="middle" font-size="11" fill="#444" font-family="Helvetica, Arial, sans-serif">20.96</text>
<line x1="1076.0" y1="62.0" x2="1076.0" y2="366.0" stroke="#f5f5f5" stroke-width="1"/>
<text x="1076.0" y="418.0" text-anchor="middle" font-size="11" fill="#444" font-family="Helvetica, Arial, sans-serif">23.98</text>
<text x="581.0" y="386.0" text-anchor="middle" font-size="15" fill="#222" font-family="Helvetica, Arial, sans-serif">time since request submit (s)</text>
</svg>