<svg xmlns="http://www.w3.org/2000/svg" width="1100" height="420" viewBox="0 0 1100 420">
<rect width="1100" height="420" fill="white"/>
<text x="86" y="26" font-size="22" font-weight="700" font-family="Helvetica, Arial, sans-serif">tb_session_10_turn_001_reuse  phase=reuse  turn=1  prompt=24832  peak_tx=15.46 GiB/s  peak_rx=31.90 GiB/s</text>
<text x="86" y="46" font-size="13" fill="#444" font-family="Helvetica, Arial, sans-serif">response_window=33.764s, response_tx=39.681 GiB, response_rx=5.652 GiB, metrics_tx=41.777 GiB, metrics_rx=5.678 GiB</text>
<line x1="86" y1="366.0" x2="1076" y2="366.0" stroke="#ececec" stroke-width="1"/>
<text x="76" y="370.0" text-anchor="end" font-size="12" fill="#444" font-family="Helvetica, Arial, sans-serif">0.0</text>
<line x1="86" y1="305.2" x2="1076" y2="305.2" stroke="#ececec" stroke-width="1"/>
<text x="76" y="309.2" text-anchor="end" font-size="12" fill="#444" font-family="Helvetica, Arial, sans-serif">7.0</text>
<line x1="86" y1="244.4" x2="1076" y2="244.4" stroke="#ececec" stroke-width="1"/>
<text x="76" y="248.4" text-anchor="end" font-size="12" fill="#444" font-family="Helvetica, Arial, sans-serif">14.0</text>
<line x1="86" y1="183.6" x2="1076" y2="183.6" stroke="#ececec" stroke-width="1"/>
<text x="76" y="187.6" text-anchor="end" font-size="12" fill="#444" font-family="Helvetica, Arial, sans-serif">21.1</text>
<line x1="86" y1="122.8" x2="1076" y2="122.8" stroke="#ececec" stroke-width="1"/>
<text x="76" y="126.8" text-anchor="end" font-size="12" fill="#444" font-family="Helvetica, Arial, sans-serif">28.1</text>
<line x1="86" y1="62.0" x2="1076" y2="62.0" stroke="#ececec" stroke-width="1"/>
<text x="76" y="66.0" text-anchor="end" font-size="12" fill="#444" font-family="Helvetica, Arial, sans-serif">35.1</text>
<line x1="86" y1="366.0" x2="1076" y2="366.0" stroke="#222" stroke-width="1.4"/>
<line x1="86" y1="62.0" x2="86" y2="366.0" stroke="#222" stroke-width="1.4"/>
<rect x="90.2" y="62.0" width="985.2" height="304.0" fill="#F58518" opacity="0.08"/>
<path d="M 86.0 366.0 L 87.2 366.0 L 88.5 366.0 L 89.7 365.9 L 90.9 365.9 L 92.2 366.0 L 93.4 366.0 L 94.6 366.0 L 95.8 366.0 L 97.1 366.0 L 98.3 366.0 L 99.5 366.0 L 100.8 338.6 L 102.1 338.2 L 103.5 338.2 L 104.8 366.0 L 106.0 349.2 L 107.2 347.4 L 108.5 366.0 L 109.7 366.0 L 110.9 366.0 L 112.2 366.0 L 113.4 348.0 L 114.7 366.0 L 116.0 366.0 L 117.2 366.0 L 118.5 366.0 L 119.7 293.1 L 120.9 366.0 L 122.2 366.0 L 123.6 366.0 L 124.8 366.0 L 126.1 232.1 L 127.4 366.0 L 128.6 366.0 L 129.9 366.0 L 131.2 366.0 L 132.4 366.0 L 133.6 252.8 L 134.9 366.0 L 136.1 366.0 L 137.4 366.0 L 138.6 366.0 L 139.9 366.0 L 141.1 232.1 L 142.3 366.0 L 143.6 366.0 L 144.8 366.0 L 146.1 366.0 L 147.4 366.0 L 148.7 359.1 L 149.9 366.0 L 151.1 365.9 L 152.4 365.9 L 153.6 366.0 L 154.8 366.0 L 156.1 366.0 L 157.3 307.2 L 158.5 366.0 L 159.8 366.0 L 161.0 366.0 L 162.2 366.0 L 163.5 366.0 L 164.7 366.0 L 166.0 366.0 L 167.2 366.0 L 168.5 366.0 L 169.7 366.0 L 171.0 366.0 L 172.2 366.0 L 173.4 366.0 L 174.7 366.0 L 175.9 274.8 L 177.2 366.0 L 178.5 366.0 L 179.7 366.0 L 181.0 366.0 L 182.2 366.0 L 183.4 366.0 L 184.7 366.0 L 186.0 366.0 L 187.3 366.0 L 188.5 366.0 L 189.8 366.0 L 191.0 366.0 L 192.2 366.0 L 193.5 366.0 L 194.8 366.0 L 196.0 366.0 L 197.3 366.0 L 198.5 366.0 L 199.7 366.0 L 201.0 261.7 L 202.2 366.0 L 203.5 366.0 L 204.7 366.0 L 206.0 366.0 L 207.2 265.6 L 208.4 366.0 L 209.7 366.0 L 210.9 365.9 L 212.2 365.9 L 213.5 365.9 L 214.7 366.0 L 215.9 366.0 L 217.2 366.0 L 218.4 366.0 L 219.6 366.0 L 220.9 267.9 L 222.2 366.0 L 223.4 366.0 L 224.7 366.0 L 225.9 366.0 L 227.1 366.0 L 228.3 292.7 L 229.6 366.0 L 230.9 366.0 L 232.1 366.0 L 233.4 366.0 L 234.6 366.0 L 235.8 366.0 L 237.1 365.9 L 238.6 366.0 L 239.9 366.0 L 241.1 366.0 L 242.3 365.9 L 243.6 365.9 L 244.8 232.1 L 246.2 366.0 L 247.5 366.0 L 248.7 366.0 L 249.9 366.0 L 251.2 366.0 L 252.5 366.0 L 253.7 357.1 L 255.0 366.0 L 256.2 366.0 L 257.4 366.0 L 258.7 366.0 L 259.9 366.0 L 261.3 366.0 L 262.5 280.4 L 263.7 366.0 L 265.0 366.0 L 266.2 366.0 L 267.4 366.0 L 268.7 366.0 L 270.0 366.0 L 271.2 338.2 L 273.5 365.9 L 274.8 365.9 L 276.1 366.0 L 277.3 366.0 L 278.5 366.0 L 279.7 366.0 L 281.0 366.0 L 282.2 366.0 L 283.4 366.0 L 284.7 366.0 L 285.9 366.0 L 287.1 366.0 L 288.4 366.0 L 289.6 366.0 L 290.8 366.0 L 292.0 323.4 L 293.4 362.1 L 294.7 366.0 L 295.9 366.0 L 297.1 366.0 L 298.3 366.0 L 299.6 366.0 L 300.8 339.2 L 302.1 366.0 L 303.3 366.0 L 304.6 366.0 L 305.8 366.0 L 307.0 299.1 L 308.3 366.0 L 309.5 366.0 L 310.7 366.0 L 312.0 366.0 L 313.2 366.0 L 314.4 272.1 L 315.6 366.0 L 316.9 366.0 L 318.1 366.0 L 319.4 366.0 L 320.6 366.0 L 321.8 315.8 L 323.1 366.0 L 324.3 366.0 L 325.5 366.0 L 326.7 366.0 L 328.0 366.0 L 329.2 366.0 L 330.4 319.6 L 331.6 366.0 L 332.9 366.0 L 334.2 365.9 L 335.4 365.9 L 336.7 366.0 L 337.9 359.8 L 339.1 366.0 L 340.3 366.0 L 341.6 366.0 L 342.8 366.0 L 344.0 366.0 L 345.3 366.0 L 346.5 366.0 L 347.7 366.0 L 349.0 366.0 L 350.2 366.0 L 351.5 366.0 L 352.7 366.0 L 353.9 366.0 L 355.2 366.0 L 356.4 250.6 L 357.6 366.0 L 358.9 366.0 L 360.1 366.0 L 361.3 366.0 L 362.6 366.0 L 363.8 366.0 L 365.0 365.9 L 366.4 365.9 L 367.6 366.0 L 368.9 366.0 L 370.1 366.0 L 371.4 366.0 L 372.6 366.0 L 373.8 366.0 L 375.1 366.0 L 376.4 366.0 L 377.6 354.3 L 378.9 366.0 L 380.1 366.0 L 381.3 366.0 L 382.6 366.0 L 383.9 366.0 L 385.1 238.8 L 386.4 366.0 L 387.6 366.0 L 388.8 366.0 L 390.1 366.0 L 391.3 366.0 L 392.6 366.0 L 393.9 366.0 L 395.1 366.0 L 396.3 366.0 L 397.6 366.0 L 398.8 294.2 L 400.0 366.0 L 401.4 366.0 L 402.6 366.0 L 403.8 366.0 L 405.1 366.0 L 406.3 315.1 L 407.5 366.0 L 408.8 366.0 L 410.0 366.0 L 411.3 366.0 L 412.5 366.0 L 413.8 366.0 L 415.0 316.2 L 416.2 366.0 L 417.5 366.0 L 418.7 366.0 L 419.9 366.0 L 421.2 366.0 L 422.5 366.0 L 423.7 366.0 L 425.0 366.0 L 426.2 365.9 L 427.4 365.9 L 428.7 366.0 L 430.0 366.0 L 431.3 332.5 L 432.5 366.0 L 433.7 366.0 L 435.0 366.0 L 436.2 366.0 L 437.4 366.0 L 438.7 366.0 L 440.0 366.0 L 441.2 366.0 L 442.4 366.0 L 443.7 366.0 L 444.9 366.0 L 446.1 366.0 L 447.4 366.0 L 448.7 366.0 L 449.9 232.1 L 451.2 366.0 L 452.5 366.0 L 453.7 366.0 L 455.0 366.0 L 456.2 366.0 L 457.5 366.0 L 458.7 366.0 L 459.9 232.1 L 461.2 358.6 L 462.4 366.0 L 463.7 366.0 L 464.9 366.0 L 466.2 366.0 L 467.4 366.0 L 468.7 366.0 L 469.9 283.1 L 471.1 366.0 L 472.4 366.0 L 473.6 366.0 L 474.9 366.0 L 476.1 235.0 L 477.4 366.0 L 478.6 366.0 L 479.8 366.0 L 481.1 366.0 L 482.3 314.3 L 483.7 366.0 L 484.9 366.0 L 486.1 366.0 L 487.4 365.9 L 488.6 365.9 L 489.9 237.9 L 491.1 366.0 L 492.5 366.0 L 493.7 366.0 L 495.0 366.0 L 496.2 366.0 L 497.4 313.2 L 498.7 366.0 L 500.0 366.0 L 501.2 366.0 L 502.5 366.0 L 503.7 366.0 L 504.9 232.1 L 506.2 366.0 L 507.4 366.0 L 508.6 366.0 L 509.9 366.0 L 511.1 366.0 L 512.4 319.5 L 513.6 366.0 L 514.9 366.0 L 516.1 366.0 L 517.3 366.0 L 518.7 365.9 L 519.9 366.0 L 521.1 232.8 L 522.4 366.0 L 523.6 366.0 L 524.8 366.0 L 526.1 366.0 L 527.4 366.0 L 528.6 366.0 L 529.8 232.1 L 531.1 366.0 L 532.3 366.0 L 533.5 366.0 L 534.8 366.0 L 536.0 366.0 L 537.2 366.0 L 538.5 344.0 L 539.8 366.0 L 541.0 366.0 L 542.2 366.0 L 543.5 366.0 L 544.7 366.0 L 545.9 366.0 L 547.3 366.0 L 548.5 232.1 L 549.8 365.9 L 551.0 366.0 L 552.3 366.0 L 553.5 366.0 L 554.7 365.9 L 556.8 366.0 L 558.0 366.0 L 559.3 362.3 L 560.5 366.0 L 561.8 366.0 L 563.1 366.0 L 564.3 366.0 L 565.5 366.0 L 566.8 270.0 L 568.0 366.0 L 569.3 366.0 L 570.5 366.0 L 571.7 366.0 L 573.0 248.9 L 574.2 366.0 L 575.4 366.0 L 576.7 366.0 L 577.9 366.0 L 579.1 365.9 L 580.4 365.9 L 581.7 366.0 L 582.9 366.0 L 584.2 366.0 L 585.4 366.0 L 586.6 232.1 L 587.9 366.0 L 589.1 366.0 L 590.4 366.0 L 591.6 366.0 L 592.9 366.0 L 594.1 274.9 L 595.3 366.0 L 596.6 366.0 L 597.8 366.0 L 599.0 366.0 L 600.3 366.0 L 601.5 232.1 L 602.8 366.0 L 604.0 366.0 L 605.3 366.0 L 606.5 366.0 L 607.7 365.9 L 609.8 250.9 L 611.1 365.9 L 612.4 366.0 L 613.6 366.0 L 614.8 366.0 L 616.1 366.0 L 617.4 366.0 L 618.6 360.7 L 619.9 366.0 L 621.1 366.0 L 622.3 366.0 L 623.6 366.0 L 624.8 366.0 L 626.1 366.0 L 627.4 314.2 L 628.6 366.0 L 629.8 366.0 L 631.1 366.0 L 632.3 366.0 L 633.5 366.0 L 634.8 366.0 L 636.0 274.2 L 637.3 366.0 L 638.5 366.0 L 639.8 366.0 L 641.0 366.0 L 642.3 366.0 L 643.6 366.0 L 644.8 366.0 L 646.1 234.9 L 647.3 366.0 L 648.6 366.0 L 649.8 366.0 L 651.0 366.0 L 652.3 366.0 L 653.5 366.0 L 654.8 366.0 L 656.0 232.2 L 657.3 366.0 L 658.5 366.0 L 659.7 366.0 L 661.1 366.0 L 662.3 366.0 L 663.5 269.5 L 664.8 366.0 L 666.0 366.0 L 667.2 366.0 L 668.5 366.0 L 669.9 323.9 L 671.1 366.0 L 672.5 366.0 L 673.7 366.0 L 675.0 366.0 L 676.3 275.0 L 677.6 366.0 L 678.9 366.0 L 680.1 366.0 L 681.3 366.0 L 682.6 362.1 L 683.8 366.0 L 685.1 366.0 L 686.4 366.0 L 687.6 366.0 L 688.9 366.0 L 690.1 253.7 L 691.3 366.0 L 692.6 366.0 L 693.8 366.0 L 695.1 366.0 L 696.3 366.0 L 697.5 316.6 L 698.8 366.0 L 700.0 366.0 L 701.2 365.9 L 702.5 365.9 L 703.7 366.0 L 705.0 366.0 L 706.2 315.4 L 707.5 366.0 L 708.7 366.0 L 709.9 366.0 L 711.2 366.0 L 712.4 366.0 L 713.7 366.0 L 714.9 366.0 L 716.1 366.0 L 717.4 366.0 L 718.6 366.0 L 719.9 366.0 L 721.1 366.0 L 722.3 366.0 L 723.6 360.5 L 724.8 366.0 L 726.1 366.0 L 727.3 366.0 L 728.6 366.0 L 729.8 366.0 L 731.1 366.0 L 732.3 232.1 L 733.7 365.9 L 735.0 366.0 L 736.2 366.0 L 737.5 366.0 L 738.7 366.0 L 740.0 366.0 L 741.2 366.0 L 742.5 357.6 L 743.7 366.0 L 744.9 366.0 L 746.2 366.0 L 747.5 366.0 L 748.7 366.0 L 749.9 366.0 L 751.2 366.0 L 752.4 290.6 L 753.7 358.5 L 754.9 366.0 L 756.1 366.0 L 757.4 366.0 L 758.7 366.0 L 759.9 366.0 L 761.1 232.1 L 762.4 365.9 L 763.6 366.0 L 764.9 366.0 L 766.2 366.0 L 767.4 232.1 L 768.7 366.0 L 769.9 366.0 L 771.2 366.0 L 772.4 366.0 L 773.6 366.0 L 774.9 366.0 L 776.1 366.0 L 777.3 366.0 L 778.6 366.0 L 779.8 366.0 L 781.0 290.1 L 782.3 366.0 L 783.6 366.0 L 784.8 366.0 L 786.1 366.0 L 787.3 366.0 L 788.5 250.9 L 789.8 366.0 L 791.0 366.0 L 792.3 366.0 L 793.5 365.9 L 794.8 365.9 L 796.1 353.8 L 797.3 366.0 L 798.6 366.0 L 799.8 366.0 L 801.0 366.0 L 802.3 366.0 L 803.5 366.0 L 804.8 232.1 L 806.0 366.0 L 807.2 366.0 L 808.5 366.0 L 809.7 366.0 L 811.0 366.0 L 812.2 366.0 L 813.5 236.0 L 814.7 366.0 L 815.9 366.0 L 817.2 366.0 L 818.4 366.0 L 819.7 366.0 L 820.9 366.0 L 822.2 264.0 L 823.4 366.0 L 824.6 366.0 L 825.9 366.0 L 827.1 366.0 L 828.3 366.0 L 829.6 366.0 L 830.9 366.0 L 832.1 314.8 L 833.4 366.0 L 834.6 366.0 L 835.9 366.0 L 837.1 366.0 L 838.3 366.0 L 839.6 366.0 L 840.8 366.0 L 842.1 366.0 L 843.4 366.0 L 844.6 366.0 L 845.9 366.0 L 847.1 366.0 L 848.4 366.0 L 849.6 366.0 L 850.8 366.0 L 852.1 302.1 L 853.3 360.9 L 854.6 365.9 L 855.8 365.8 L 857.0 366.0 L 858.3 366.0 L 859.6 366.0 L 860.8 366.0 L 862.1 366.0 L 863.3 366.0 L 864.5 366.0 L 865.8 316.2 L 867.0 366.0 L 868.3 366.0 L 869.5 366.0 L 870.7 366.0 L 872.0 316.3 L 873.2 366.0 L 874.5 366.0 L 875.7 366.0 L 877.0 366.0 L 878.2 366.0 L 879.5 234.7 L 880.7 366.0 L 882.0 366.0 L 883.2 366.0 L 884.4 366.0 L 885.8 366.0 L 887.0 232.1 L 888.3 366.0 L 889.5 366.0 L 890.7 366.0 L 892.0 366.0 L 893.2 366.0 L 894.5 324.5 L 895.8 366.0 L 897.0 366.0 L 898.2 366.0 L 899.5 366.0 L 900.7 366.0 L 901.9 366.0 L 903.4 252.0 L 904.6 366.0 L 905.8 366.0 L 907.1 366.0 L 908.3 366.0 L 909.6 366.0 L 910.8 366.0 L 912.2 303.0 L 913.4 366.0 L 914.7 366.0 L 915.9 365.9 L 917.1 365.8 L 918.4 366.0 L 919.7 366.0 L 920.9 244.9 L 922.1 366.0 L 923.4 366.0 L 924.6 366.0 L 925.8 366.0 L 927.1 366.0 L 928.3 366.0 L 929.6 366.0 L 930.8 276.4 L 932.1 366.0 L 933.3 366.0 L 934.5 366.0 L 935.8 366.0 L 937.0 366.0 L 938.3 366.0 L 939.6 366.0 L 940.8 290.4 L 942.0 358.5 L 943.3 366.0 L 944.5 366.0 L 945.7 366.0 L 947.1 366.0 L 948.3 366.0 L 949.5 366.0 L 950.8 232.1 L 952.0 366.0 L 953.2 366.0 L 954.5 366.0 L 955.8 366.0 L 957.1 232.1 L 958.3 366.0 L 959.5 366.0 L 960.8 366.0 L 962.0 366.0 L 963.3 299.9 L 964.7 366.0 L 965.9 366.0 L 967.2 366.0 L 968.4 366.0 L 969.6 366.0 L 970.9 306.3 L 972.1 366.0 L 973.4 366.0 L 974.6 366.0 L 975.9 366.0 L 977.1 365.9 L 978.3 315.6 L 979.6 366.0 L 980.8 366.0 L 982.1 366.0 L 983.4 366.0 L 984.6 366.0 L 985.8 234.4 L 987.1 366.0 L 988.3 366.0 L 989.5 366.0 L 990.9 366.0 L 992.1 366.0 L 993.3 366.0 L 994.6 366.0 L 995.8 366.0 L 997.0 366.0 L 998.3 366.0 L 999.6 366.0 L 1000.8 366.0 L 1002.1 314.3 L 1003.3 366.0 L 1004.5 366.0 L 1005.8 366.0 L 1007.0 366.0 L 1008.3 366.0 L 1009.6 366.0 L 1010.8 340.1 L 1012.1 366.0 L 1013.3 365.7 L 1016.0 366.0 L 1017.3 366.0 L 1018.5 366.0 L 1019.7 366.0 L 1021.0 366.0 L 1022.2 366.0 L 1023.4 366.0 L 1024.7 366.0 L 1025.9 366.0 L 1027.2 366.0 L 1028.4 366.0 L 1029.6 366.0 L 1030.9 366.0 L 1032.1 366.0 L 1033.4 366.0 L 1034.7 366.0 L 1035.9 366.0 L 1037.1 366.0 L 1038.4 365.9 L 1039.6 365.8 L 1040.8 346.4 L 1042.1 366.0 L 1043.3 366.0 L 1044.6 366.0 L 1045.8 366.0 L 1047.1 366.0 L 1048.3 366.0 L 1049.5 366.0 L 1050.8 366.0 L 1052.1 366.0 L 1053.4 366.0 L 1054.6 366.0 L 1055.8 366.0 L 1057.1 366.0 L 1058.3 366.0 L 1059.5 366.0 L 1060.9 313.3 L 1062.1 366.0 L 1063.4 366.0 L 1064.6 366.0 L 1065.8 366.0 L 1067.1 366.0 L 1068.3 365.9 L 1069.8 366.0 L 1071.0 366.0 L 1072.3 366.0 L 1073.5 366.0 L 1074.7 232.1 L 1076.0 366.0" fill="none" stroke="#4C78A8" stroke-width="2.8" stroke-linejoin="round" stroke-linecap="round"/>
<path d="M 86.0 366.0 L 87.2 366.0 L 88.5 366.0 L 89.7 366.0 L 90.9 366.0 L 92.2 366.0 L 93.4 366.0 L 94.6 366.0 L 95.8 366.0 L 97.1 365.9 L 98.3 366.0 L 99.5 318.3 L 100.8 121.5 L 102.1 89.6 L 103.5 204.6 L 104.8 365.8 L 106.0 366.0 L 107.2 365.9 L 108.5 365.9 L 109.7 365.9 L 110.9 365.9 L 112.2 365.9 L 113.4 365.9 L 114.7 365.9 L 116.0 365.9 L 117.2 365.9 L 118.5 365.9 L 119.7 365.8 L 120.9 365.8 L 122.2 365.9 L 123.6 365.9 L 124.8 365.9 L 126.1 365.9 L 127.4 365.9 L 128.6 365.9 L 129.9 365.9 L 131.2 365.9 L 132.4 365.9 L 133.6 365.9 L 134.9 365.9 L 136.1 365.9 L 137.4 365.9 L 138.6 365.9 L 139.9 365.9 L 141.1 365.9 L 142.3 365.9 L 143.6 365.9 L 144.8 365.9 L 146.1 365.9 L 147.4 365.9 L 148.7 365.9 L 149.9 365.9 L 151.1 365.9 L 152.4 365.9 L 153.6 365.9 L 154.8 365.9 L 156.1 365.9 L 157.3 365.9 L 158.5 365.9 L 159.8 365.9 L 161.0 365.9 L 162.2 365.9 L 163.5 365.9 L 164.7 365.9 L 166.0 365.9 L 167.2 365.9 L 168.5 365.9 L 169.7 365.9 L 171.0 365.9 L 172.2 365.9 L 173.4 365.9 L 174.7 365.9 L 175.9 365.9 L 177.2 366.0 L 178.5 365.9 L 179.7 365.9 L 181.0 365.8 L 182.2 365.9 L 183.4 365.9 L 184.7 365.9 L 186.0 365.9 L 187.3 365.9 L 188.5 365.9 L 189.8 365.9 L 191.0 365.9 L 192.2 365.9 L 193.5 365.9 L 194.8 365.9 L 196.0 365.9 L 197.3 365.9 L 198.5 365.9 L 199.7 365.9 L 201.0 365.9 L 202.2 365.9 L 203.5 365.9 L 204.7 365.9 L 206.0 365.9 L 207.2 365.9 L 208.4 365.9 L 209.7 365.9 L 210.9 365.9 L 212.2 365.9 L 213.5 365.9 L 214.7 365.9 L 215.9 365.9 L 217.2 365.9 L 218.4 365.9 L 219.6 365.9 L 220.9 365.9 L 222.2 365.9 L 223.4 365.9 L 224.7 365.9 L 225.9 365.9 L 227.1 365.9 L 228.3 365.9 L 229.6 365.9 L 230.9 365.9 L 232.1 365.9 L 233.4 365.9 L 234.6 365.9 L 235.8 365.9 L 237.1 365.9 L 238.6 365.9 L 239.9 365.9 L 241.1 365.9 L 242.3 365.9 L 243.6 365.9 L 244.8 365.9 L 246.2 365.9 L 247.5 365.9 L 248.7 365.9 L 249.9 365.9 L 251.2 365.9 L 252.5 365.9 L 253.7 365.9 L 255.0 365.9 L 256.2 365.9 L 257.4 365.9 L 258.7 365.9 L 259.9 365.9 L 261.3 365.9 L 262.5 365.9 L 263.7 365.9 L 265.0 365.9 L 266.2 365.9 L 267.4 365.9 L 268.7 365.9 L 270.0 365.9 L 271.2 365.8 L 273.5 365.9 L 274.8 365.9 L 276.1 365.9 L 277.3 365.9 L 278.5 365.9 L 279.7 365.9 L 281.0 365.9 L 282.2 365.9 L 283.4 365.9 L 284.7 365.9 L 285.9 365.9 L 287.1 365.9 L 288.4 365.9 L 289.6 365.9 L 290.8 365.9 L 292.0 366.0 L 293.4 163.9 L 294.7 365.9 L 295.9 365.9 L 297.1 365.9 L 298.3 365.9 L 299.6 365.9 L 300.8 365.9 L 302.1 365.9 L 303.3 365.9 L 304.6 365.8 L 305.8 365.9 L 307.0 365.9 L 308.3 365.9 L 309.5 365.9 L 310.7 365.9 L 312.0 365.9 L 313.2 365.9 L 314.4 365.9 L 315.6 365.9 L 316.9 365.9 L 318.1 365.9 L 319.4 365.9 L 320.6 365.9 L 321.8 365.9 L 323.1 365.9 L 324.3 365.9 L 325.5 365.9 L 326.7 365.9 L 328.0 365.9 L 329.2 365.9 L 330.4 365.9 L 331.6 365.9 L 332.9 365.9 L 334.2 365.9 L 335.4 365.9 L 336.7 365.9 L 337.9 365.9 L 339.1 365.9 L 340.3 365.9 L 341.6 365.9 L 342.8 365.9 L 344.0 365.9 L 345.3 365.9 L 346.5 365.9 L 347.7 365.9 L 349.0 365.9 L 350.2 365.9 L 351.5 365.9 L 352.7 365.9 L 353.9 365.9 L 355.2 365.9 L 356.4 365.9 L 357.6 365.9 L 358.9 365.9 L 360.1 365.9 L 361.3 365.9 L 362.6 365.9 L 363.8 365.9 L 365.0 365.9 L 366.4 365.9 L 367.6 365.9 L 368.9 365.9 L 370.1 365.9 L 371.4 365.9 L 372.6 365.9 L 373.8 365.9 L 375.1 365.9 L 376.4 366.0 L 377.6 264.2 L 378.9 365.9 L 380.1 365.9 L 381.3 365.9 L 382.6 365.9 L 383.9 365.9 L 385.1 365.9 L 386.4 365.9 L 387.6 365.9 L 388.8 365.9 L 390.1 365.9 L 391.3 365.9 L 392.6 365.9 L 393.9 365.9 L 395.1 365.9 L 396.3 365.8 L 397.6 365.9 L 398.8 365.9 L 400.0 365.9 L 401.4 365.9 L 402.6 365.9 L 403.8 365.9 L 405.1 365.9 L 406.3 365.9 L 407.5 365.9 L 408.8 365.9 L 410.0 365.9 L 411.3 365.9 L 412.5 365.9 L 413.8 365.9 L 415.0 365.9 L 416.2 365.9 L 417.5 365.9 L 418.7 365.9 L 419.9 365.9 L 421.2 365.9 L 422.5 365.9 L 423.7 365.9 L 425.0 365.9 L 426.2 365.9 L 427.4 365.9 L 428.7 365.9 L 430.0 365.9 L 431.3 365.9 L 432.5 365.9 L 433.7 365.9 L 435.0 365.9 L 436.2 365.9 L 437.4 365.9 L 438.7 365.9 L 440.0 365.9 L 441.2 365.9 L 442.4 365.9 L 443.7 365.9 L 444.9 365.9 L 446.1 365.9 L 447.4 365.9 L 448.7 365.9 L 449.9 365.9 L 451.2 365.9 L 452.5 365.9 L 453.7 365.9 L 455.0 365.9 L 456.2 365.9 L 457.5 365.8 L 458.7 365.9 L 459.9 366.0 L 461.2 365.9 L 462.4 365.9 L 463.7 365.9 L 464.9 366.0 L 466.2 366.0 L 467.4 366.0 L 468.7 366.0 L 469.9 365.9 L 471.1 365.9 L 472.4 365.9 L 473.6 365.9 L 474.9 365.9 L 476.1 365.9 L 477.4 365.9 L 478.6 365.9 L 479.8 365.9 L 481.1 365.9 L 482.3 365.9 L 483.7 365.9 L 484.9 365.9 L 486.1 365.9 L 487.4 365.9 L 488.6 365.9 L 489.9 365.9 L 491.1 365.9 L 492.5 365.9 L 493.7 365.9 L 495.0 365.9 L 496.2 365.9 L 497.4 365.9 L 498.7 365.9 L 500.0 365.9 L 501.2 365.9 L 502.5 365.9 L 503.7 365.9 L 504.9 365.9 L 506.2 365.9 L 507.4 365.9 L 508.6 365.9 L 509.9 365.9 L 511.1 365.9 L 512.4 365.9 L 513.6 365.9 L 514.9 365.9 L 516.1 365.9 L 517.3 365.9 L 518.7 365.9 L 519.9 365.9 L 521.1 365.9 L 522.4 365.9 L 523.6 365.9 L 524.8 365.9 L 526.1 365.9 L 527.4 365.9 L 528.6 365.9 L 529.8 365.9 L 531.1 365.9 L 532.3 365.9 L 533.5 365.9 L 534.8 365.9 L 536.0 365.9 L 537.2 365.9 L 538.5 365.9 L 539.8 365.9 L 541.0 365.9 L 542.2 365.9 L 543.5 365.9 L 544.7 365.9 L 545.9 365.9 L 547.3 365.9 L 548.5 365.9 L 549.8 365.9 L 551.0 365.9 L 552.3 365.9 L 553.5 365.9 L 554.7 365.9 L 556.8 365.9 L 558.0 366.0 L 559.3 365.9 L 560.5 365.9 L 561.8 365.9 L 563.1 365.9 L 564.3 365.9 L 565.5 365.9 L 566.8 365.9 L 568.0 365.9 L 569.3 365.9 L 570.5 365.9 L 571.7 365.9 L 573.0 365.9 L 574.2 365.9 L 575.4 365.9 L 576.7 365.9 L 577.9 365.9 L 579.1 365.9 L 580.4 365.9 L 581.7 365.9 L 582.9 365.9 L 584.2 365.9 L 585.4 365.9 L 586.6 365.9 L 587.9 365.9 L 589.1 365.9 L 590.4 365.9 L 591.6 365.9 L 592.9 365.9 L 594.1 365.9 L 595.3 365.9 L 596.6 365.9 L 597.8 365.9 L 599.0 365.9 L 600.3 365.9 L 601.5 365.9 L 602.8 365.9 L 604.0 365.9 L 605.3 365.9 L 606.5 365.9 L 607.7 365.9 L 609.8 365.9 L 611.1 365.9 L 612.4 365.9 L 613.6 365.9 L 614.8 365.9 L 616.1 365.9 L 617.4 365.9 L 618.6 365.9 L 619.9 365.9 L 621.1 365.9 L 622.3 365.9 L 623.6 365.9 L 624.8 365.9 L 626.1 365.9 L 627.4 365.9 L 628.6 365.9 L 629.8 365.9 L 631.1 365.9 L 632.3 365.9 L 633.5 365.9 L 634.8 365.9 L 636.0 365.9 L 637.3 365.9 L 638.5 365.9 L 639.8 365.9 L 641.0 365.9 L 642.3 365.9 L 643.6 365.9 L 644.8 365.9 L 646.1 365.9 L 647.3 365.9 L 648.6 365.9 L 649.8 365.9 L 651.0 365.9 L 652.3 365.9 L 653.5 365.9 L 654.8 366.0 L 656.0 365.9 L 657.3 365.9 L 658.5 365.9 L 659.7 365.9 L 661.1 365.9 L 662.3 365.9 L 663.5 365.9 L 664.8 365.9 L 666.0 365.9 L 667.2 365.9 L 668.5 365.9 L 669.9 365.9 L 671.1 365.9 L 672.5 365.9 L 673.7 365.9 L 675.0 365.9 L 676.3 365.9 L 677.6 365.9 L 678.9 365.9 L 680.1 365.9 L 681.3 365.9 L 682.6 365.9 L 683.8 365.9 L 685.1 365.9 L 686.4 365.9 L 687.6 365.9 L 688.9 365.9 L 690.1 365.9 L 691.3 365.9 L 692.6 365.9 L 693.8 365.9 L 695.1 365.9 L 696.3 365.9 L 697.5 365.9 L 698.8 365.9 L 700.0 365.9 L 701.2 365.9 L 702.5 365.9 L 703.7 365.9 L 705.0 365.9 L 706.2 365.9 L 707.5 365.9 L 708.7 365.9 L 709.9 365.9 L 711.2 365.9 L 712.4 365.9 L 713.7 365.9 L 714.9 365.9 L 716.1 365.9 L 717.4 365.9 L 718.6 365.9 L 719.9 365.9 L 721.1 365.9 L 722.3 365.9 L 723.6 365.9 L 724.8 365.9 L 726.1 365.9 L 727.3 365.9 L 728.6 365.9 L 729.8 365.9 L 731.1 365.9 L 732.3 365.9 L 733.7 365.9 L 735.0 365.9 L 736.2 365.9 L 737.5 365.9 L 738.7 365.9 L 740.0 365.9 L 741.2 365.9 L 742.5 365.9 L 743.7 365.9 L 744.9 365.9 L 746.2 365.9 L 747.5 365.9 L 748.7 365.9 L 749.9 365.9 L 751.2 365.9 L 752.4 366.0 L 753.7 365.9 L 754.9 365.9 L 756.1 365.9 L 757.4 365.9 L 758.7 365.9 L 759.9 365.9 L 761.1 365.9 L 762.4 365.9 L 763.6 365.9 L 764.9 365.9 L 766.2 365.9 L 767.4 365.9 L 768.7 365.9 L 769.9 365.9 L 771.2 365.9 L 772.4 365.9 L 773.6 365.9 L 774.9 365.9 L 776.1 365.9 L 777.3 365.9 L 778.6 365.9 L 779.8 365.9 L 781.0 365.9 L 782.3 365.9 L 783.6 365.9 L 784.8 365.9 L 786.1 365.9 L 787.3 365.9 L 788.5 365.9 L 789.8 365.9 L 791.0 365.9 L 792.3 365.9 L 793.5 365.9 L 794.8 365.9 L 796.1 365.9 L 797.3 365.9 L 798.6 365.9 L 799.8 365.9 L 801.0 365.9 L 802.3 365.9 L 803.5 365.9 L 804.8 365.9 L 806.0 365.9 L 807.2 365.9 L 808.5 365.9 L 809.7 365.9 L 811.0 365.9 L 812.2 365.9 L 813.5 365.9 L 814.7 365.9 L 815.9 365.9 L 817.2 365.9 L 818.4 365.9 L 819.7 365.9 L 820.9 365.9 L 822.2 365.9 L 823.4 365.9 L 824.6 365.8 L 825.9 365.9 L 827.1 365.9 L 828.3 365.9 L 829.6 365.9 L 830.9 365.9 L 832.1 365.9 L 833.4 365.9 L 834.6 365.9 L 835.9 365.9 L 837.1 365.9 L 838.3 365.9 L 839.6 365.9 L 840.8 365.9 L 842.1 365.9 L 843.4 365.9 L 844.6 365.9 L 845.9 365.9 L 847.1 365.9 L 848.4 365.9 L 849.6 365.9 L 850.8 365.9 L 852.1 366.0 L 853.3 365.9 L 854.6 365.9 L 855.8 365.9 L 857.0 365.9 L 858.3 365.9 L 859.6 365.9 L 860.8 365.9 L 862.1 365.9 L 863.3 365.9 L 864.5 365.9 L 865.8 365.9 L 867.0 365.9 L 868.3 365.9 L 869.5 365.9 L 870.7 365.9 L 872.0 365.9 L 873.2 365.9 L 874.5 365.9 L 875.7 365.9 L 877.0 365.9 L 878.2 365.9 L 879.5 365.9 L 880.7 365.9 L 882.0 365.9 L 883.2 365.9 L 884.4 365.9 L 885.8 365.8 L 887.0 365.9 L 888.3 365.9 L 889.5 365.9 L 890.7 365.9 L 892.0 365.9 L 893.2 365.9 L 894.5 365.9 L 895.8 365.9 L 897.0 365.9 L 898.2 365.9 L 899.5 365.9 L 900.7 365.9 L 901.9 365.9 L 903.4 365.9 L 904.6 365.9 L 905.8 365.9 L 907.1 365.9 L 908.3 365.9 L 909.6 365.9 L 910.8 365.9 L 912.2 365.9 L 913.4 365.9 L 914.7 365.9 L 915.9 365.9 L 917.1 365.9 L 918.4 365.9 L 919.7 365.9 L 920.9 365.9 L 922.1 365.9 L 923.4 365.9 L 924.6 365.9 L 925.8 365.9 L 927.1 365.9 L 928.3 365.9 L 929.6 365.9 L 930.8 365.9 L 932.1 365.9 L 933.3 365.9 L 934.5 365.9 L 935.8 365.9 L 937.0 365.9 L 938.3 365.9 L 939.6 365.9 L 940.8 366.0 L 942.0 365.9 L 943.3 365.9 L 944.5 365.9 L 945.7 365.9 L 947.1 365.8 L 948.3 366.0 L 949.5 366.0 L 950.8 365.9 L 952.0 365.9 L 953.2 365.9 L 954.5 365.9 L 955.8 365.9 L 957.1 365.9 L 958.3 365.9 L 959.5 365.9 L 960.8 365.9 L 962.0 365.9 L 963.3 365.9 L 964.7 365.9 L 965.9 365.9 L 967.2 365.9 L 968.4 365.9 L 969.6 365.9 L 970.9 365.9 L 972.1 365.9 L 973.4 365.9 L 974.6 365.9 L 975.9 365.9 L 977.1 365.9 L 978.3 365.9 L 979.6 365.9 L 980.8 365.9 L 982.1 365.9 L 983.4 365.9 L 984.6 365.9 L 985.8 365.9 L 987.1 365.9 L 988.3 365.9 L 989.5 365.9 L 990.9 365.9 L 992.1 365.9 L 993.3 365.9 L 994.6 365.9 L 995.8 365.9 L 997.0 365.9 L 998.3 365.9 L 999.6 365.9 L 1000.8 365.9 L 1002.1 365.9 L 1003.3 365.9 L 1004.5 365.9 L 1005.8 365.9 L 1007.0 365.9 L 1008.3 365.8 L 1009.6 365.9 L 1010.8 365.9 L 1012.1 365.9 L 1013.3 365.9 L 1016.0 365.9 L 1017.3 365.9 L 1018.5 365.9 L 1019.7 365.9 L 1021.0 365.9 L 1022.2 365.9 L 1023.4 365.9 L 1024.7 365.9 L 1025.9 365.9 L 1027.2 365.9 L 1028.4 365.9 L 1029.6 365.9 L 1030.9 365.9 L 1032.1 365.9 L 1033.4 365.9 L 1034.7 365.9 L 1035.9 365.9 L 1037.1 365.9 L 1038.4 365.9 L 1039.6 365.9 L 1040.8 365.9 L 1042.1 365.9 L 1043.3 365.9 L 1044.6 365.9 L 1045.8 365.9 L 1047.1 365.9 L 1048.3 365.9 L 1049.5 365.9 L 1050.8 365.9 L 1052.1 365.9 L 1053.4 365.9 L 1054.6 365.9 L 1055.8 365.9 L 1057.1 365.9 L 1058.3 365.9 L 1059.5 365.9 L 1060.9 365.9 L 1062.1 365.9 L 1063.4 365.9 L 1064.6 365.9 L 1065.8 365.9 L 1067.1 365.9 L 1068.3 365.9 L 1069.8 365.8 L 1071.0 365.9 L 1072.3 365.9 L 1073.5 365.9 L 1074.7 365.9 L 1076.0 365.9" fill="none" stroke="#F58518" stroke-width="2.8" stroke-linejoin="round" stroke-linecap="round"/>
<line x1="90.2" y1="62.0" x2="90.2" y2="366.0" stroke="#666" stroke-dasharray="4 4" stroke-width="1.2"/>
<text x="90.2" y="402.0" text-anchor="middle" font-size="12" fill="#444" font-family="Helvetica, Arial, sans-serif">submit</text>
<line x1="1075.4" y1="62.0" x2="1075.4" y2="366.0" stroke="#888" stroke-dasharray="4 4" stroke-width="1.2"/>
<text x="1075.4" y="402.0" text-anchor="middle" font-size="12" fill="#444" font-family="Helvetica, Arial, sans-serif">finish</text>
<line x1="86.0" y1="62.0" x2="86.0" y2="366.0" stroke="#f5f5f5" stroke-width="1"/>
<text x="86.0" y="418.0" text-anchor="middle" font-size="11" fill="#444" font-family="Helvetica, Arial, sans-serif">-0.14</text>
<line x1="209.8" y1="62.0" x2="209.8" y2="366.0" stroke="#f5f5f5" stroke-width="1"/>
<text x="209.8" y="418.0" text-anchor="middle" font-size="11" fill="#444" font-family="Helvetica, Arial, sans-serif">4.10</text>
<line x1="333.5" y1="62.0" x2="333.5" y2="366.0" stroke="#f5f5f5" stroke-width="1"/>
<text x="333.5" y="418.0" text-anchor="middle" font-size="11" fill="#444" font-family="Helvetica, Arial, sans-serif">8.34</text>
<line x1="457.2" y1="62.0" x2="457.2" y2="366.0" stroke="#f5f5f5" stroke-width="1"/>
<text x="457.2" y="418.0" text-anchor="middle" font-size="11" fill="#444" font-family="Helvetica, Arial, sans-serif">12.58</text>
<line x1="581.0" y1="62.0" x2="581.0" y2="366.0" stroke="#f5f5f5" stroke-width="1"/>
<text x="581.0" y="418.0" text-anchor="middle" font-size="11" fill="#444" font-family="Helvetica, Arial, sans-serif">16.82</text>
<line x1="704.8" y1="62.0" x2="704.8" y2="366.0" stroke="#f5f5f5" stroke-width="1"/>
<text x="704.8" y="418.0" text-anchor="middle" font-size="11" fill="#444" font-family="Helvetica, Arial, sans-serif">21.06</text>
<line x1="828.5" y1="62.0" x2="828.5" y2="366.0" stroke="#f5f5f5" stroke-width="1"/>
<text x="828.5" y="418.0" text-anchor="middle" font-size="11" fill="#444" font-family="Helvetica, Arial, sans-serif">25.30</text>
<line x1="952.2" y1="62.0" x2="952.2" y2="366.0" stroke="#f5f5f5" stroke-width="1"/>
<text x="952.2" y="418.0" text-anchor="middle" font-size="11" fill="#444" font-family="Helvetica, Arial, sans-serif">29.54</text>
<line x1="1076.0" y1="62.0" x2="1076.0" y2="366.0" stroke="#f5f5f5" stroke-width="1"/>
<text x="1076.0" y="418.0" text-anchor="middle" font-size="11" fill="#444" font-family="Helvetica, Arial, sans-serif">33.78</text>
<text x="581.0" y="386.0" text-anchor="middle" font-size="15" fill="#222" font-family="Helvetica, Arial, sans-serif">time since request submit (s)</text>
</svg>