<svg xmlns="http://www.w3.org/2000/svg" width="1100" height="420" viewBox="0 0 1100 420">
<rect width="1100" height="420" fill="white"/>
<text x="86" y="26" font-size="22" font-weight="700" font-family="Helvetica, Arial, sans-serif">tb_session_00_turn_004_reuse  phase=reuse  turn=4  prompt=25600  peak_tx=7.83 GiB/s  peak_rx=38.12 GiB/s</text>
<text x="86" y="46" font-size="13" fill="#444" font-family="Helvetica, Arial, sans-serif">response_window=5.591s, response_tx=6.283 GiB, response_rx=46.148 GiB, metrics_tx=6.289 GiB, metrics_rx=46.148 GiB</text>
<line x1="86" y1="366.0" x2="1076" y2="366.0" stroke="#ececec" stroke-width="1"/>
<text x="76" y="370.0" text-anchor="end" font-size="12" fill="#444" font-family="Helvetica, Arial, sans-serif">0.0</text>
<line x1="86" y1="305.2" x2="1076" y2="305.2" stroke="#ececec" stroke-width="1"/>
<text x="76" y="309.2" text-anchor="end" font-size="12" fill="#444" font-family="Helvetica, Arial, sans-serif">8.4</text>
<line x1="86" y1="244.4" x2="1076" y2="244.4" stroke="#ececec" stroke-width="1"/>
<text x="76" y="248.4" text-anchor="end" font-size="12" fill="#444" font-family="Helvetica, Arial, sans-serif">16.8</text>
<line x1="86" y1="183.6" x2="1076" y2="183.6" stroke="#ececec" stroke-width="1"/>
<text x="76" y="187.6" text-anchor="end" font-size="12" fill="#444" font-family="Helvetica, Arial, sans-serif">25.2</text>
<line x1="86" y1="122.8" x2="1076" y2="122.8" stroke="#ececec" stroke-width="1"/>
<text x="76" y="126.8" text-anchor="end" font-size="12" fill="#444" font-family="Helvetica, Arial, sans-serif">33.5</text>
<line x1="86" y1="62.0" x2="1076" y2="62.0" stroke="#ececec" stroke-width="1"/>
<text x="76" y="66.0" text-anchor="end" font-size="12" fill="#444" font-family="Helvetica, Arial, sans-serif">41.9</text>
<line x1="86" y1="366.0" x2="1076" y2="366.0" stroke="#222" stroke-width="1.4"/>
<line x1="86" y1="62.0" x2="86" y2="366.0" stroke="#222" stroke-width="1.4"/>
<rect x="109.9" y="62.0" width="961.1" height="304.0" fill="#F58518" opacity="0.08"/>
<path d="M 86.0 366.0 L 93.2 366.0 L 100.4 366.0 L 107.7 366.0 L 114.9 366.0 L 122.1 366.0 L 129.5 366.0 L 136.7 366.0 L 143.9 365.9 L 151.2 365.9 L 158.5 366.0 L 165.8 340.2 L 174.5 342.9 L 182.1 337.0 L 190.7 366.0 L 197.9 366.0 L 205.1 352.0 L 212.5 366.0 L 220.1 366.0 L 227.5 366.0 L 234.7 366.0 L 241.9 366.0 L 249.1 366.0 L 256.4 366.0 L 263.7 366.0 L 271.0 366.0 L 278.4 366.0 L 285.6 366.0 L 293.0 366.0 L 300.2 366.0 L 307.4 366.0 L 314.6 366.0 L 321.9 366.0 L 329.1 366.0 L 336.3 366.0 L 343.9 366.0 L 351.1 366.0 L 358.3 366.0 L 365.5 366.0 L 372.9 358.7 L 380.3 343.1 L 388.0 341.2 L 397.3 354.2 L 404.7 366.0 L 411.9 365.2 L 419.5 343.0 L 427.7 342.7 L 435.8 344.5 L 443.4 366.0 L 450.8 366.0 L 458.2 339.6 L 467.1 343.0 L 474.8 339.9 L 483.1 366.0 L 490.3 366.0 L 497.7 343.0 L 505.4 342.8 L 515.9 349.8 L 524.2 366.0 L 531.4 366.0 L 538.6 342.9 L 547.0 342.7 L 555.6 342.8 L 563.2 366.0 L 570.6 366.0 L 577.8 338.0 L 586.9 342.6 L 594.7 342.1 L 603.3 366.0 L 610.5 366.0 L 617.7 342.8 L 625.4 342.7 L 634.0 342.9 L 641.8 366.0 L 649.2 366.0 L 656.9 366.0 L 664.3 366.0 L 671.5 366.0 L 678.9 366.0 L 686.1 366.0 L 693.3 309.2 L 700.7 366.0 L 716.9 366.0 L 724.1 366.0 L 731.3 366.0 L 744.1 366.0 L 751.8 366.0 L 759.0 366.0 L 766.2 366.0 L 773.8 366.0 L 781.0 366.0 L 788.2 366.0 L 795.5 366.0 L 802.8 339.9 L 810.9 342.7 L 818.7 338.7 L 827.4 366.0 L 834.6 366.0 L 842.0 342.9 L 849.6 342.9 L 857.7 342.8 L 865.6 366.0 L 873.0 366.0 L 880.5 343.1 L 888.1 342.7 L 896.5 343.2 L 904.1 366.0 L 911.5 366.0 L 918.7 351.1 L 926.8 342.7 L 934.7 342.8 L 942.6 363.4 L 950.9 366.0 L 958.1 366.0 L 965.5 366.0 L 972.7 365.9 L 980.6 312.4 L 988.0 365.9 L 995.2 365.9 L 1002.6 365.9 L 1010.0 365.9 L 1017.2 365.9 L 1024.6 365.9 L 1032.3 365.9 L 1039.6 365.9 L 1046.9 365.9 L 1054.2 365.8 L 1061.4 365.9 L 1068.8 365.9 L 1076.0 365.7" fill="none" stroke="#4C78A8" stroke-width="2.8" stroke-linejoin="round" stroke-linecap="round"/>
<path d="M 86.0 366.0 L 93.2 366.0 L 100.4 366.0 L 107.7 366.0 L 114.9 366.0 L 122.1 366.0 L 129.5 366.0 L 136.7 366.0 L 143.9 366.0 L 151.2 366.0 L 158.5 214.9 L 165.8 161.9 L 174.5 165.0 L 182.1 365.9 L 190.7 366.0 L 197.9 365.9 L 205.1 366.0 L 212.5 366.0 L 220.1 366.0 L 227.5 366.0 L 234.7 366.0 L 241.9 366.0 L 249.1 366.0 L 256.4 366.0 L 263.7 366.0 L 271.0 366.0 L 278.4 366.0 L 285.6 366.0 L 293.0 366.0 L 300.2 366.0 L 307.4 366.0 L 314.6 366.0 L 321.9 366.0 L 329.1 365.9 L 336.3 366.0 L 343.9 366.0 L 351.1 366.0 L 358.3 366.0 L 365.5 366.0 L 372.9 164.3 L 380.3 162.4 L 388.0 160.1 L 397.3 366.0 L 404.7 366.0 L 411.9 165.5 L 419.5 121.0 L 427.7 166.0 L 435.8 366.0 L 443.4 366.0 L 450.8 222.1 L 458.2 161.5 L 467.1 163.9 L 474.8 365.9 L 483.1 366.0 L 490.3 254.3 L 497.7 156.8 L 505.4 89.6 L 515.9 366.0 L 524.2 366.0 L 531.4 200.9 L 538.6 119.8 L 547.0 162.7 L 555.6 365.9 L 563.2 366.0 L 570.6 246.4 L 577.8 161.9 L 586.9 165.5 L 594.7 365.9 L 603.3 366.0 L 610.5 247.6 L 617.7 167.1 L 625.4 113.7 L 634.0 310.8 L 641.8 365.9 L 649.2 365.9 L 656.9 365.9 L 664.3 365.9 L 671.5 365.9 L 678.9 365.9 L 686.1 365.9 L 693.3 365.8 L 700.7 366.0 L 716.9 366.0 L 724.1 366.0 L 731.3 365.9 L 744.1 366.0 L 751.8 366.0 L 759.0 366.0 L 766.2 366.0 L 773.8 366.0 L 781.0 366.0 L 788.2 366.0 L 795.5 219.3 L 802.8 165.3 L 810.9 165.5 L 818.7 353.5 L 827.4 366.0 L 834.6 263.9 L 842.0 164.5 L 849.6 148.3 L 857.7 254.0 L 865.6 366.0 L 873.0 355.1 L 880.5 162.7 L 888.1 161.5 L 896.5 163.9 L 904.1 366.0 L 911.5 366.0 L 918.7 142.4 L 926.8 164.5 L 934.7 160.2 L 942.6 365.9 L 950.9 365.9 L 958.1 365.9 L 965.5 365.9 L 972.7 365.9 L 980.6 365.8 L 988.0 365.8 L 995.2 365.8 L 1002.6 365.8 L 1010.0 365.8 L 1017.2 365.8 L 1024.6 365.8 L 1032.3 365.8 L 1039.6 365.8 L 1046.9 365.7 L 1054.2 365.8 L 1061.4 365.8 L 1068.8 365.8 L 1076.0 366.0" fill="none" stroke="#F58518" stroke-width="2.8" stroke-linejoin="round" stroke-linecap="round"/>
<line x1="109.9" y1="62.0" x2="109.9" y2="366.0" stroke="#666" stroke-dasharray="4 4" stroke-width="1.2"/>
<text x="109.9" y="402.0" text-anchor="middle" font-size="12" fill="#444" font-family="Helvetica, Arial, sans-serif">submit</text>
<line x1="1071.0" y1="62.0" x2="1071.0" y2="366.0" stroke="#888" stroke-dasharray="4 4" stroke-width="1.2"/>
<text x="1071.0" y="402.0" text-anchor="middle" font-size="12" fill="#444" font-family="Helvetica, Arial, sans-serif">finish</text>
<line x1="86.0" y1="62.0" x2="86.0" y2="366.0" stroke="#f5f5f5" stroke-width="1"/>
<text x="86.0" y="418.0" text-anchor="middle" font-size="11" fill="#444" font-family="Helvetica, Arial, sans-serif">-0.14</text>
<line x1="209.8" y1="62.0" x2="209.8" y2="366.0" stroke="#f5f5f5" stroke-width="1"/>
<text x="209.8" y="418.0" text-anchor="middle" font-size="11" fill="#444" font-family="Helvetica, Arial, sans-serif">0.58</text>
<line x1="333.5" y1="62.0" x2="333.5" y2="366.0" stroke="#f5f5f5" stroke-width="1"/>
<text x="333.5" y="418.0" text-anchor="middle" font-size="11" fill="#444" font-family="Helvetica, Arial, sans-serif">1.30</text>
<line x1="457.2" y1="62.0" x2="457.2" y2="366.0" stroke="#f5f5f5" stroke-width="1"/>
<text x="457.2" y="418.0" text-anchor="middle" font-size="11" fill="#444" font-family="Helvetica, Arial, sans-serif">2.02</text>
<line x1="581.0" y1="62.0" x2="581.0" y2="366.0" stroke="#f5f5f5" stroke-width="1"/>
<text x="581.0" y="418.0" text-anchor="middle" font-size="11" fill="#444" font-family="Helvetica, Arial, sans-serif">2.74</text>
<line x1="704.8" y1="62.0" x2="704.8" y2="366.0" stroke="#f5f5f5" stroke-width="1"/>
<text x="704.8" y="418.0" text-anchor="middle" font-size="11" fill="#444" font-family="Helvetica, Arial, sans-serif">3.46</text>
<line x1="828.5" y1="62.0" x2="828.5" y2="366.0" stroke="#f5f5f5" stroke-width="1"/>
<text x="828.5" y="418.0" text-anchor="middle" font-size="11" fill="#444" font-family="Helvetica, Arial, sans-serif">4.18</text>
<line x1="952.2" y1="62.0" x2="952.2" y2="366.0" stroke="#f5f5f5" stroke-width="1"/>
<text x="952.2" y="418.0" text-anchor="middle" font-size="11" fill="#444" font-family="Helvetica, Arial, sans-serif">4.90</text>
<line x1="1076.0" y1="62.0" x2="1076.0" y2="366.0" stroke="#f5f5f5" stroke-width="1"/>
<text x="1076.0" y="418.0" text-anchor="middle" font-size="11" fill="#444" font-family="Helvetica, Arial, sans-serif">5.62</text>
<text x="581.0" y="386.0" text-anchor="middle" font-size="15" fill="#222" font-family="Helvetica, Arial, sans-serif">time since request submit (s)</text>
</svg>