<svg xmlns="http://www.w3.org/2000/svg" width="1100" height="820" viewBox="0 0 1100 820">
<rect width="1100" height="820" fill="white"/>
<text x="86" y="26" font-size="24" font-weight="700" font-family="Helvetica, Arial, sans-serif">PCIe Timeline: pd_external_prefix_terminalbench_qwen3_8b_s8</text>
<line x1="86" y1="248.0" x2="1076" y2="248.0" stroke="#ececec" stroke-width="1"/>
<text x="76" y="252.0" text-anchor="end" font-size="12" fill="#444" font-family="Helvetica, Arial, sans-serif">0.0</text>
<line x1="86" y1="212.0" x2="1076" y2="212.0" stroke="#ececec" stroke-width="1"/>
<text x="76" y="216.0" text-anchor="end" font-size="12" fill="#444" font-family="Helvetica, Arial, sans-serif">10.3</text>
<line x1="86" y1="176.0" x2="1076" y2="176.0" stroke="#ececec" stroke-width="1"/>
<text x="76" y="180.0" text-anchor="end" font-size="12" fill="#444" font-family="Helvetica, Arial, sans-serif">20.6</text>
<line x1="86" y1="140.0" x2="1076" y2="140.0" stroke="#ececec" stroke-width="1"/>
<text x="76" y="144.0" text-anchor="end" font-size="12" fill="#444" font-family="Helvetica, Arial, sans-serif">30.9</text>
<line x1="86" y1="104.0" x2="1076" y2="104.0" stroke="#ececec" stroke-width="1"/>
<text x="76" y="108.0" text-anchor="end" font-size="12" fill="#444" font-family="Helvetica, Arial, sans-serif">41.2</text>
<line x1="86" y1="68.0" x2="1076" y2="68.0" stroke="#ececec" stroke-width="1"/>
<text x="76" y="72.0" text-anchor="end" font-size="12" fill="#444" font-family="Helvetica, Arial, sans-serif">51.5</text>
<line x1="86" y1="248.0" x2="1076" y2="248.0" stroke="#222" stroke-width="1.4"/>
<line x1="86" y1="68.0" x2="86" y2="248.0" stroke="#222" stroke-width="1.4"/>
<text x="24" y="158.0" text-anchor="middle" font-size="15" fill="#222" font-family="Helvetica, Arial, sans-serif" transform="rotate(-90 24,158.0)">Total GiB/s</text>
<rect x="86.0" y="68.0" width="72.6" height="180.0" fill="#4C78A8" opacity="0.08"/>
<rect x="158.7" y="68.0" width="384.4" height="180.0" fill="#F58518" opacity="0.08"/>
<rect x="158.8" y="68.0" width="384.4" height="180.0" fill="#F58518" opacity="0.08"/>
<rect x="158.8" y="68.0" width="384.3" height="180.0" fill="#F58518" opacity="0.08"/>
<rect x="158.8" y="68.0" width="384.3" height="180.0" fill="#F58518" opacity="0.08"/>
<rect x="158.9" y="68.0" width="384.3" height="180.0" fill="#F58518" opacity="0.08"/>
<rect x="158.9" y="68.0" width="384.2" height="180.0" fill="#F58518" opacity="0.08"/>
<rect x="158.9" y="68.0" width="384.2" height="180.0" fill="#F58518" opacity="0.08"/>
<rect x="158.9" y="68.0" width="384.2" height="180.0" fill="#F58518" opacity="0.08"/>
<rect x="543.4" y="68.0" width="79.9" height="180.0" fill="#F58518" opacity="0.08"/>
<rect x="543.5" y="68.0" width="79.9" height="180.0" fill="#F58518" opacity="0.08"/>
<rect x="543.5" y="68.0" width="79.9" height="180.0" fill="#F58518" opacity="0.08"/>
<rect x="543.5" y="68.0" width="79.8" height="180.0" fill="#F58518" opacity="0.08"/>
<rect x="543.5" y="68.0" width="79.8" height="180.0" fill="#F58518" opacity="0.08"/>
<rect x="543.6" y="68.0" width="79.8" height="180.0" fill="#F58518" opacity="0.08"/>
<rect x="543.6" y="68.0" width="79.8" height="180.0" fill="#F58518" opacity="0.08"/>
<rect x="543.6" y="68.0" width="79.8" height="180.0" fill="#F58518" opacity="0.08"/>
<rect x="623.7" y="68.0" width="79.6" height="180.0" fill="#F58518" opacity="0.08"/>
<rect x="623.7" y="68.0" width="79.5" height="180.0" fill="#F58518" opacity="0.08"/>
<rect x="623.8" y="68.0" width="79.5" height="180.0" fill="#F58518" opacity="0.08"/>
<rect x="623.8" y="68.0" width="79.5" height="180.0" fill="#F58518" opacity="0.08"/>
<rect x="623.8" y="68.0" width="79.5" height="180.0" fill="#F58518" opacity="0.08"/>
<rect x="623.8" y="68.0" width="79.5" height="180.0" fill="#F58518" opacity="0.08"/>
<rect x="623.8" y="68.0" width="79.4" height="180.0" fill="#F58518" opacity="0.08"/>
<rect x="623.9" y="68.0" width="79.4" height="180.0" fill="#F58518" opacity="0.08"/>
<rect x="703.7" y="68.0" width="81.6" height="180.0" fill="#F58518" opacity="0.08"/>
<rect x="703.7" y="68.0" width="81.6" height="180.0" fill="#F58518" opacity="0.08"/>
<rect x="703.7" y="68.0" width="81.6" height="180.0" fill="#F58518" opacity="0.08"/>
<rect x="703.7" y="68.0" width="81.6" height="180.0" fill="#F58518" opacity="0.08"/>
<rect x="703.7" y="68.0" width="81.5" height="180.0" fill="#F58518" opacity="0.08"/>
<rect x="703.8" y="68.0" width="81.5" height="180.0" fill="#F58518" opacity="0.08"/>
<rect x="703.8" y="68.0" width="81.5" height="180.0" fill="#F58518" opacity="0.08"/>
<rect x="703.8" y="68.0" width="81.5" height="180.0" fill="#F58518" opacity="0.08"/>
<rect x="785.7" y="68.0" width="82.5" height="180.0" fill="#F58518" opacity="0.08"/>
<rect x="785.7" y="68.0" width="82.5" height="180.0" fill="#F58518" opacity="0.08"/>
<rect x="785.7" y="68.0" width="82.5" height="180.0" fill="#F58518" opacity="0.08"/>
<rect x="785.7" y="68.0" width="82.4" height="180.0" fill="#F58518" opacity="0.08"/>
<rect x="785.8" y="68.0" width="82.4" height="180.0" fill="#F58518" opacity="0.08"/>
<rect x="785.8" y="68.0" width="82.4" height="180.0" fill="#F58518" opacity="0.08"/>
<rect x="785.8" y="68.0" width="82.4" height="180.0" fill="#F58518" opacity="0.08"/>
<rect x="785.8" y="68.0" width="82.4" height="180.0" fill="#F58518" opacity="0.08"/>
<rect x="868.6" y="68.0" width="29.7" height="180.0" fill="#4C78A8" opacity="0.08"/>
<rect x="898.7" y="68.0" width="29.4" height="180.0" fill="#4C78A8" opacity="0.08"/>
<rect x="928.5" y="68.0" width="29.4" height="180.0" fill="#4C78A8" opacity="0.08"/>
<rect x="958.2" y="68.0" width="29.4" height="180.0" fill="#4C78A8" opacity="0.08"/>
<rect x="988.0" y="68.0" width="29.4" height="180.0" fill="#4C78A8" opacity="0.08"/>
<rect x="1017.8" y="68.0" width="29.4" height="180.0" fill="#4C78A8" opacity="0.08"/>
<rect x="1047.5" y="68.0" width="29.4" height="180.0" fill="#4C78A8" opacity="0.08"/>
<path d="M 86.4 248.0 L 87.1 248.0 L 87.8 247.9 L 88.5 248.0 L 89.2 248.0 L 89.8 202.4 L 90.5 248.0 L 91.2 247.9 L 92.0 248.0 L 92.7 193.9 L 93.4 248.0 L 94.0 248.0 L 94.7 248.0 L 95.4 248.0 L 96.1 231.0 L 96.8 248.0 L 97.4 248.0 L 98.1 248.0 L 98.8 248.0 L 99.5 219.3 L 100.1 248.0 L 100.8 247.9 L 101.5 247.9 L 102.2 247.9 L 102.8 212.9 L 103.5 248.0 L 104.2 248.0 L 104.9 248.0 L 105.6 248.0 L 106.2 248.0 L 106.9 193.9 L 108.1 248.0 L 108.8 248.0 L 109.5 248.0 L 110.2 248.0 L 110.9 247.9 L 111.5 248.0 L 112.2 248.0 L 112.9 247.9 L 113.6 248.0 L 114.3 248.0 L 115.0 247.9 L 115.7 198.4 L 116.3 248.0 L 117.0 248.0 L 117.7 248.0 L 118.3 247.9 L 119.1 247.9 L 119.8 248.0 L 120.5 245.4 L 121.2 248.0 L 121.9 248.0 L 122.5 248.0 L 123.3 248.0 L 123.9 248.0 L 124.6 248.0 L 125.3 193.9 L 125.9 248.0 L 126.6 248.0 L 127.3 248.0 L 128.0 248.0 L 128.6 248.0 L 129.3 248.0 L 130.0 248.0 L 130.7 248.0 L 131.4 248.0 L 132.0 248.0 L 132.7 248.0 L 133.4 248.0 L 134.1 248.0 L 134.7 247.9 L 135.4 247.9 L 136.1 247.9 L 136.8 247.9 L 137.5 247.9 L 138.1 247.9 L 138.8 247.9 L 139.5 248.0 L 140.2 248.0 L 140.9 248.0 L 141.5 248.0 L 142.2 248.0 L 143.3 248.0 L 144.0 248.0 L 144.7 248.0 L 145.4 247.9 L 146.6 248.0 L 147.3 248.0 L 147.9 248.0 L 148.6 248.0 L 149.3 248.0 L 150.0 248.0 L 150.6 248.0 L 151.3 248.0 L 152.0 248.0 L 152.6 248.0 L 153.3 248.0 L 154.0 248.0 L 154.7 248.0 L 155.4 248.0 L 156.0 248.0 L 156.7 248.0 L 157.4 248.0 L 158.0 248.0 L 158.7 248.0 L 159.4 248.0 L 160.1 248.0 L 160.7 248.0 L 161.4 248.0 L 162.1 248.0 L 162.7 150.8 L 163.5 139.2 L 164.2 122.9 L 164.9 238.7 L 165.6 247.9 L 166.3 199.1 L 167.0 248.0 L 167.7 247.9 L 168.3 247.9 L 169.0 247.9 L 169.7 200.7 L 170.4 247.8 L 171.9 248.0 L 172.6 248.0 L 173.3 194.8 L 173.9 248.0 L 174.6 248.0 L 175.3 248.0 L 176.0 248.0 L 176.6 247.3 L 177.4 248.0 L 178.0 248.0 L 178.7 248.0 L 179.4 248.0 L 180.1 248.0 L 180.7 208.1 L 181.4 248.0 L 182.1 248.0 L 182.8 248.0 L 183.5 248.0 L 184.2 248.0 L 184.8 220.2 L 185.5 247.9 L 186.2 247.9 L 187.0 248.0 L 187.6 248.0 L 188.3 248.0 L 189.0 248.0 L 189.7 248.0 L 190.3 248.0 L 191.0 248.0 L 191.7 248.0 L 192.4 248.0 L 193.1 248.0 L 193.7 248.0 L 194.4 248.0 L 195.1 248.0 L 195.8 248.0 L 196.5 248.0 L 197.1 248.0 L 197.8 248.0 L 198.5 247.9 L 199.2 248.0 L 199.9 248.0 L 200.5 248.0 L 201.2 247.9 L 201.9 247.9 L 202.6 247.9 L 203.3 248.0 L 204.0 194.4 L 204.6 248.0 L 205.3 248.0 L 206.0 248.0 L 206.7 248.0 L 207.4 248.0 L 208.0 248.0 L 208.7 247.9 L 209.4 226.2 L 210.0 248.0 L 210.7 248.0 L 211.4 248.0 L 212.1 248.0 L 212.8 248.0 L 213.4 248.0 L 214.1 247.9 L 214.8 241.0 L 215.5 248.0 L 216.1 248.0 L 216.8 248.0 L 217.5 230.7 L 218.2 247.9 L 218.9 247.9 L 219.6 247.9 L 220.2 248.0 L 220.9 238.2 L 221.6 247.9 L 222.4 248.0 L 223.0 248.0 L 223.7 248.0 L 224.4 248.0 L 225.0 248.0 L 225.7 248.0 L 226.4 248.0 L 227.1 247.9 L 227.8 248.0 L 228.5 235.6 L 229.1 247.9 L 229.9 248.0 L 230.6 248.0 L 231.3 248.0 L 231.9 248.0 L 232.6 232.7 L 233.3 248.0 L 234.0 248.0 L 234.6 247.9 L 235.3 247.9 L 236.0 247.9 L 236.7 248.0 L 237.4 248.0 L 238.1 248.0 L 238.8 248.0 L 239.4 248.0 L 240.1 248.0 L 240.8 248.0 L 241.5 211.3 L 242.2 248.0 L 242.8 248.0 L 243.5 248.0 L 244.2 248.0 L 244.9 248.0 L 245.5 248.0 L 246.2 193.9 L 246.9 248.0 L 247.6 248.0 L 248.3 248.0 L 248.9 248.0 L 249.6 248.0 L 250.3 248.0 L 251.0 218.4 L 251.7 247.9 L 252.4 247.9 L 253.1 248.0 L 253.7 248.0 L 254.4 248.0 L 255.1 248.0 L 255.8 247.9 L 256.5 222.3 L 257.2 248.0 L 257.8 248.0 L 258.5 248.0 L 259.2 248.0 L 259.9 248.0 L 260.6 248.0 L 261.3 248.0 L 262.0 248.0 L 262.6 248.0 L 263.3 248.0 L 264.0 248.0 L 264.7 248.0 L 265.4 248.0 L 266.1 248.0 L 266.7 247.9 L 267.4 226.6 L 268.1 162.6 L 268.7 247.7 L 269.5 247.9 L 270.2 248.0 L 270.8 248.0 L 271.5 248.0 L 272.2 230.5 L 272.9 248.0 L 273.5 248.0 L 274.2 248.0 L 274.9 248.0 L 275.6 230.5 L 276.3 248.0 L 276.9 248.0 L 277.6 248.0 L 278.3 248.0 L 279.0 248.0 L 279.7 206.6 L 280.4 248.0 L 281.0 248.0 L 281.7 248.0 L 282.4 248.0 L 283.1 248.0 L 283.7 207.0 L 284.4 248.0 L 285.1 247.9 L 285.8 247.9 L 286.5 248.0 L 287.1 248.0 L 287.8 248.0 L 288.5 248.0 L 289.2 248.0 L 289.8 248.0 L 290.5 248.0 L 291.2 248.0 L 291.9 248.0 L 292.6 225.3 L 293.2 248.0 L 293.9 248.0 L 294.6 248.0 L 295.3 248.0 L 296.0 248.0 L 296.7 248.0 L 297.4 213.0 L 298.0 248.0 L 298.7 248.0 L 299.4 248.0 L 300.2 248.0 L 300.8 248.0 L 301.5 247.9 L 302.2 247.9 L 302.9 247.9 L 303.6 248.0 L 304.3 248.0 L 304.9 248.0 L 305.6 248.0 L 306.3 248.0 L 307.0 248.0 L 307.6 197.8 L 308.4 248.0 L 309.0 248.0 L 309.7 248.0 L 310.4 248.0 L 311.1 248.0 L 311.7 248.0 L 312.4 248.0 L 313.1 195.9 L 313.8 195.5 L 314.6 245.4 L 315.2 248.0 L 315.9 248.0 L 316.6 248.0 L 317.3 248.0 L 318.0 247.9 L 318.6 246.5 L 319.3 247.9 L 320.0 248.0 L 320.7 248.0 L 321.3 248.0 L 322.0 193.9 L 322.7 248.0 L 323.4 248.0 L 324.1 248.0 L 324.7 248.0 L 325.4 248.0 L 326.1 216.3 L 326.8 247.9 L 327.5 248.0 L 328.2 248.0 L 328.9 248.0 L 329.5 248.0 L 330.2 218.9 L 330.9 248.0 L 331.6 248.0 L 332.3 248.0 L 332.9 248.0 L 333.6 248.0 L 334.3 212.0 L 335.0 247.9 L 335.7 247.9 L 336.3 247.9 L 337.0 248.0 L 337.7 248.0 L 338.4 248.0 L 339.1 193.9 L 339.7 248.0 L 340.4 248.0 L 341.1 248.0 L 341.8 248.0 L 342.5 248.0 L 343.2 247.9 L 343.8 210.3 L 344.5 248.0 L 345.2 248.0 L 345.9 248.0 L 346.6 248.0 L 347.2 248.0 L 347.9 248.0 L 348.6 193.9 L 349.3 248.0 L 349.9 248.0 L 350.6 248.0 L 351.4 247.9 L 352.0 247.9 L 352.7 248.0 L 353.4 248.0 L 354.1 248.0 L 354.7 248.0 L 355.4 248.0 L 356.1 248.0 L 356.8 248.0 L 357.5 248.0 L 358.2 248.0 L 358.8 247.9 L 359.5 221.7 L 360.2 248.0 L 360.9 248.0 L 361.6 248.0 L 362.3 248.0 L 363.0 248.0 L 363.6 248.0 L 364.3 247.9 L 365.0 231.7 L 365.8 248.0 L 366.4 248.0 L 367.1 248.0 L 367.8 248.0 L 368.5 247.9 L 369.1 247.9 L 369.8 248.0 L 370.5 248.0 L 371.2 248.0 L 371.9 214.7 L 372.5 248.0 L 373.2 248.0 L 373.9 248.0 L 374.6 248.0 L 375.3 241.4 L 375.9 248.0 L 376.6 248.0 L 377.3 248.0 L 378.0 248.0 L 378.6 248.0 L 379.3 230.7 L 380.0 248.0 L 380.7 248.0 L 381.4 248.0 L 382.0 248.0 L 382.7 248.0 L 383.4 248.0 L 384.1 248.0 L 384.8 247.9 L 385.5 247.9 L 386.2 247.9 L 386.8 248.0 L 387.5 247.9 L 388.2 197.9 L 388.8 248.0 L 389.5 248.0 L 390.2 248.0 L 390.9 248.0 L 391.6 248.0 L 392.3 248.0 L 393.0 248.0 L 393.6 248.0 L 394.4 248.0 L 395.0 248.0 L 395.7 248.0 L 396.4 248.0 L 397.1 248.0 L 397.7 248.0 L 398.4 248.0 L 399.2 248.0 L 399.9 248.0 L 400.5 248.0 L 401.2 248.0 L 401.9 247.9 L 402.5 211.3 L 403.2 248.0 L 403.9 248.0 L 404.6 248.0 L 405.3 248.0 L 406.0 248.0 L 406.6 248.0 L 407.3 247.9 L 408.0 248.0 L 408.7 248.0 L 409.4 248.0 L 410.1 248.0 L 410.7 248.0 L 411.4 248.0 L 412.1 248.0 L 412.8 247.9 L 413.5 221.7 L 414.2 248.0 L 414.8 248.0 L 415.5 248.0 L 416.2 248.0 L 416.8 248.0 L 417.5 247.9 L 418.3 231.1 L 418.9 247.9 L 419.6 247.9 L 420.3 248.0 L 421.0 248.0 L 421.6 218.5 L 422.3 248.0 L 423.1 248.0 L 423.7 248.0 L 424.4 248.0 L 425.1 206.9 L 425.7 248.0 L 426.4 248.0 L 427.1 248.0 L 427.8 248.0 L 428.5 248.0 L 429.2 207.3 L 429.8 248.0 L 430.5 248.0 L 431.2 248.0 L 431.8 248.0 L 432.6 248.0 L 433.3 234.5 L 433.9 248.0 L 434.6 247.9 L 435.3 247.9 L 436.0 247.9 L 436.7 247.9 L 437.4 199.4 L 438.1 248.0 L 438.7 248.0 L 439.4 248.0 L 440.1 248.0 L 440.8 248.0 L 441.4 248.0 L 442.2 248.0 L 442.8 248.0 L 443.5 248.0 L 444.2 248.0 L 444.9 248.0 L 445.5 248.0 L 446.2 243.9 L 446.9 248.0 L 447.6 248.0 L 448.3 248.0 L 448.9 248.0 L 449.6 248.0 L 450.3 248.0 L 451.0 247.9 L 451.7 247.9 L 452.4 247.9 L 453.0 248.0 L 453.7 248.0 L 454.4 248.0 L 455.1 248.0 L 455.7 248.0 L 456.4 207.1 L 457.1 248.0 L 457.8 248.0 L 458.4 248.0 L 459.1 248.0 L 459.8 248.0 L 460.5 248.0 L 461.1 248.0 L 461.8 199.6 L 462.5 248.0 L 463.2 248.0 L 463.9 248.0 L 464.6 248.0 L 465.2 248.0 L 465.9 248.0 L 466.6 248.0 L 467.3 237.2 L 468.0 221.7 L 468.6 247.9 L 469.4 247.9 L 470.0 248.0 L 470.7 248.0 L 471.4 193.9 L 472.1 248.0 L 472.8 248.0 L 473.5 248.0 L 474.2 248.0 L 474.8 201.2 L 475.5 248.0 L 476.2 248.0 L 476.9 248.0 L 477.6 248.0 L 478.3 248.0 L 478.9 244.8 L 479.6 248.0 L 480.3 248.0 L 481.0 248.0 L 481.6 248.0 L 482.3 248.0 L 483.0 248.0 L 483.7 248.0 L 484.4 248.0 L 485.0 247.9 L 485.7 247.9 L 486.5 248.0 L 487.1 248.0 L 487.8 248.0 L 488.5 248.0 L 489.2 248.0 L 489.8 248.0 L 490.5 248.0 L 491.2 221.5 L 491.9 248.0 L 492.5 248.0 L 493.2 248.0 L 493.9 248.0 L 494.6 248.0 L 495.2 248.0 L 495.9 248.0 L 496.6 248.0 L 497.3 248.0 L 498.0 248.0 L 498.7 248.0 L 499.3 248.0 L 500.0 243.0 L 500.7 248.0 L 501.4 247.9 L 502.1 247.9 L 502.8 247.9 L 503.5 248.0 L 504.1 248.0 L 504.8 248.0 L 505.5 248.0 L 506.2 248.0 L 506.9 248.0 L 507.6 248.0 L 508.3 248.0 L 508.9 248.0 L 509.6 248.0 L 510.3 216.3 L 511.0 248.0 L 511.7 248.0 L 512.4 248.0 L 513.0 248.0 L 513.7 248.0 L 514.4 248.0 L 515.1 248.0 L 515.8 217.4 L 516.4 248.0 L 517.1 248.0 L 517.8 247.9 L 518.5 247.9 L 519.1 247.9 L 519.8 217.8 L 520.5 247.9 L 521.2 247.9 L 521.9 247.9 L 522.6 247.9 L 523.2 248.0 L 523.9 248.0 L 524.6 248.0 L 525.3 248.0 L 525.9 248.0 L 526.6 248.0 L 527.3 248.0 L 527.9 248.0 L 528.6 248.0 L 529.3 248.0 L 529.9 248.0 L 530.6 247.9 L 532.2 248.0 L 532.9 248.0 L 533.5 248.0 L 534.2 248.0 L 534.9 248.0 L 535.6 248.0 L 536.2 248.0 L 536.9 248.0 L 537.6 248.0 L 538.3 248.0 L 538.9 248.0 L 539.6 248.0 L 540.3 248.0 L 541.0 248.0 L 541.6 248.0 L 542.3 248.0 L 543.0 248.0 L 543.6 248.0 L 544.3 248.0 L 545.0 248.0 L 545.7 248.0 L 546.4 248.0 L 547.0 248.0 L 547.7 248.0 L 548.4 248.0 L 549.0 248.0 L 549.7 248.0 L 550.4 248.0 L 551.1 195.7 L 551.8 135.6 L 552.5 138.3 L 553.3 240.1 L 554.2 248.0 L 554.8 158.2 L 555.5 140.7 L 556.2 136.5 L 557.1 238.2 L 557.7 247.9 L 558.5 247.9 L 559.1 248.0 L 559.8 248.0 L 560.5 248.0 L 561.1 248.0 L 561.8 248.0 L 562.5 248.0 L 563.2 248.0 L 563.8 248.0 L 564.5 248.0 L 565.2 248.0 L 565.9 248.0 L 566.5 248.0 L 567.2 248.0 L 567.9 248.0 L 568.5 248.0 L 569.2 248.0 L 569.9 248.0 L 570.6 248.0 L 571.2 248.0 L 571.9 142.8 L 572.6 139.6 L 573.4 123.6 L 574.1 245.4 L 574.8 248.0 L 575.5 145.9 L 576.2 140.5 L 576.9 135.6 L 577.7 242.8 L 578.4 248.0 L 579.1 149.0 L 579.8 117.8 L 580.5 140.1 L 581.3 241.4 L 582.0 248.0 L 582.7 195.2 L 583.3 136.1 L 584.1 139.7 L 584.8 234.2 L 585.7 248.0 L 586.3 186.4 L 587.0 140.1 L 587.7 122.5 L 588.5 220.4 L 589.2 248.0 L 589.9 194.6 L 590.6 139.1 L 591.3 137.5 L 592.1 204.6 L 592.8 247.9 L 593.5 247.9 L 594.2 247.9 L 594.9 247.9 L 595.5 247.9 L 596.2 247.8 L 596.9 247.9 L 597.6 247.9 L 598.3 247.9 L 599.0 247.9 L 599.7 247.9 L 600.3 247.9 L 601.0 247.9 L 601.7 247.9 L 602.4 247.8 L 603.1 247.9 L 603.8 248.0 L 604.5 248.0 L 605.1 248.0 L 605.8 248.0 L 606.5 248.0 L 607.2 248.0 L 607.8 248.0 L 608.5 248.0 L 609.2 248.0 L 609.8 248.0 L 610.5 248.0 L 611.2 248.0 L 611.9 248.0 L 612.5 248.0 L 613.2 248.0 L 613.9 248.0 L 614.5 248.0 L 615.2 248.0 L 615.9 248.0 L 616.6 248.0 L 617.2 248.0 L 617.9 248.0 L 618.6 248.0 L 619.3 248.0 L 619.9 248.0 L 620.6 248.0 L 621.3 248.0 L 622.0 248.0 L 622.6 248.0 L 623.3 248.0 L 624.0 248.0 L 624.6 248.0 L 625.3 248.0 L 626.0 248.0 L 626.7 248.0 L 627.3 248.0 L 628.0 221.1 L 628.7 139.6 L 629.4 136.4 L 630.3 198.0 L 631.0 247.9 L 631.7 248.0 L 632.4 248.0 L 633.1 248.0 L 633.7 248.0 L 634.4 248.0 L 635.1 248.0 L 635.8 248.0 L 636.5 248.0 L 637.1 248.0 L 637.8 248.0 L 638.5 248.0 L 639.2 248.0 L 639.8 248.0 L 640.5 248.0 L 641.2 248.0 L 641.8 248.0 L 642.5 248.0 L 643.2 248.0 L 643.9 248.0 L 644.6 248.0 L 645.2 248.0 L 645.9 248.0 L 646.6 173.2 L 647.2 138.3 L 648.0 139.5 L 648.7 235.0 L 649.5 248.0 L 650.1 190.2 L 650.8 138.2 L 651.6 84.4 L 652.5 237.1 L 653.2 248.0 L 653.9 188.3 L 654.5 121.5 L 655.3 138.6 L 656.1 226.2 L 656.8 248.0 L 657.5 198.5 L 658.2 136.8 L 659.0 139.7 L 659.7 224.0 L 660.5 248.0 L 661.2 203.3 L 661.8 139.4 L 662.6 104.4 L 663.4 215.2 L 664.1 248.0 L 664.8 208.8 L 665.5 139.3 L 666.2 139.0 L 667.0 188.2 L 667.7 248.0 L 668.4 240.9 L 669.1 128.6 L 669.9 130.7 L 670.7 186.5 L 671.4 247.9 L 672.1 247.9 L 672.8 247.9 L 673.4 247.9 L 674.1 247.9 L 674.8 247.9 L 675.5 247.9 L 676.1 232.7 L 676.8 247.9 L 677.5 247.9 L 678.2 247.9 L 678.8 247.9 L 679.5 247.9 L 680.2 247.9 L 680.9 247.9 L 681.5 247.9 L 682.2 247.9 L 682.9 247.9 L 683.6 248.0 L 684.3 248.0 L 684.9 248.0 L 685.6 248.0 L 686.3 248.0 L 687.0 248.0 L 687.6 248.0 L 688.3 248.0 L 689.0 248.0 L 689.6 248.0 L 690.3 248.0 L 691.0 248.0 L 691.7 248.0 L 692.3 248.0 L 693.0 248.0 L 693.7 248.0 L 694.4 248.0 L 695.0 248.0 L 695.7 248.0 L 696.4 248.0 L 697.1 248.0 L 697.7 248.0 L 698.4 248.0 L 699.1 248.0 L 699.8 248.0 L 700.4 248.0 L 701.1 248.0 L 701.8 248.0 L 702.5 248.0 L 703.1 248.0 L 703.8 248.0 L 704.5 248.0 L 705.2 248.0 L 705.8 248.0 L 706.5 248.0 L 707.2 248.0 L 707.8 248.0 L 708.5 248.0 L 709.2 248.0 L 709.9 141.6 L 710.5 124.0 L 711.3 139.7 L 712.0 244.4 L 712.7 243.0 L 713.4 248.0 L 714.1 248.0 L 714.7 248.0 L 715.4 248.0 L 716.1 248.0 L 716.7 248.0 L 717.4 248.0 L 718.1 248.0 L 718.8 248.0 L 719.4 248.0 L 720.1 248.0 L 720.8 248.0 L 721.4 248.0 L 722.1 248.0 L 722.8 248.0 L 723.5 248.0 L 724.1 248.0 L 724.8 248.0 L 725.5 248.0 L 726.2 248.0 L 726.8 248.0 L 727.5 248.0 L 728.2 146.8 L 729.0 139.4 L 729.7 137.5 L 730.5 241.2 L 731.1 248.0 L 731.8 198.1 L 732.5 140.2 L 733.2 137.6 L 734.0 183.3 L 734.7 248.0 L 735.3 248.0 L 736.0 95.8 L 736.9 139.9 L 737.7 175.6 L 738.4 248.0 L 739.0 248.0 L 739.7 138.7 L 740.4 140.0 L 741.1 136.2 L 741.9 248.0 L 742.6 248.0 L 743.3 145.5 L 744.0 136.1 L 744.7 139.7 L 745.4 241.7 L 746.1 248.0 L 746.8 152.9 L 747.5 138.1 L 748.3 140.1 L 749.0 236.5 L 749.7 248.0 L 750.4 182.5 L 751.1 140.1 L 751.8 108.6 L 752.6 228.0 L 753.3 247.9 L 754.0 247.9 L 754.7 247.9 L 755.4 247.9 L 756.0 247.9 L 756.7 248.0 L 757.4 247.9 L 758.1 214.1 L 758.8 247.9 L 759.4 247.9 L 760.1 247.9 L 760.8 247.9 L 761.5 247.9 L 762.2 247.9 L 762.8 247.9 L 763.5 247.9 L 764.2 247.9 L 764.9 247.9 L 765.5 248.0 L 766.2 248.0 L 766.9 248.0 L 767.6 248.0 L 768.2 248.0 L 768.9 248.0 L 769.6 248.0 L 770.2 248.0 L 770.9 248.0 L 771.6 248.0 L 772.3 248.0 L 772.9 248.0 L 773.6 248.0 L 774.3 248.0 L 775.0 248.0 L 775.6 248.0 L 776.3 248.0 L 777.0 248.0 L 777.7 248.0 L 778.3 248.0 L 779.0 248.0 L 779.7 248.0 L 780.3 248.0 L 781.0 248.0 L 781.7 248.0 L 782.4 248.0 L 783.1 248.0 L 783.7 248.0 L 784.4 248.0 L 785.1 248.0 L 785.7 248.0 L 786.4 248.0 L 787.1 248.0 L 787.8 248.0 L 788.4 248.0 L 789.1 248.0 L 789.8 248.0 L 790.4 248.0 L 791.1 248.0 L 791.8 248.0 L 792.5 144.0 L 793.1 106.6 L 794.0 141.3 L 794.8 246.9 L 795.5 241.2 L 796.2 248.0 L 796.9 248.0 L 797.6 248.0 L 798.2 248.0 L 798.9 248.0 L 799.6 248.0 L 800.2 248.0 L 800.9 248.0 L 801.6 248.0 L 802.3 248.0 L 802.9 248.0 L 803.6 248.0 L 804.3 248.0 L 804.9 248.0 L 805.6 248.0 L 806.3 248.0 L 806.9 248.0 L 807.6 248.0 L 808.3 248.0 L 809.0 248.0 L 809.6 248.0 L 810.3 248.0 L 811.0 160.2 L 811.7 139.5 L 812.4 124.3 L 813.1 220.4 L 813.9 248.0 L 814.5 207.8 L 815.2 139.1 L 815.9 137.1 L 816.7 158.0 L 817.4 248.0 L 818.1 248.0 L 818.7 126.9 L 819.6 138.3 L 820.4 144.8 L 821.1 248.0 L 821.8 248.0 L 822.4 142.4 L 823.1 139.5 L 823.9 136.6 L 824.7 245.7 L 825.4 248.0 L 826.1 146.8 L 826.8 127.9 L 827.5 140.5 L 828.3 240.5 L 828.9 248.0 L 829.6 164.8 L 830.3 137.1 L 831.1 139.2 L 831.8 230.0 L 832.6 248.0 L 833.2 196.4 L 833.9 139.2 L 834.6 113.0 L 835.4 207.1 L 836.2 247.9 L 836.9 247.9 L 837.6 247.9 L 838.3 247.9 L 838.9 247.9 L 839.6 247.9 L 840.3 247.9 L 841.0 220.8 L 841.6 247.9 L 842.4 247.9 L 843.1 247.9 L 843.7 247.9 L 844.4 247.9 L 845.1 247.9 L 845.8 247.9 L 846.4 247.9 L 847.1 247.9 L 847.8 247.9 L 848.5 248.0 L 849.2 248.0 L 849.8 248.0 L 850.5 248.0 L 851.2 248.0 L 851.9 248.0 L 852.5 248.0 L 853.2 248.0 L 853.9 248.0 L 854.6 248.0 L 855.2 248.0 L 855.9 248.0 L 856.6 248.0 L 857.2 248.0 L 857.9 248.0 L 858.6 248.0 L 859.3 248.0 L 859.9 248.0 L 860.6 248.0 L 861.3 248.0 L 861.9 248.0 L 862.6 248.0 L 863.3 248.0 L 864.0 248.0 L 864.7 248.0 L 865.3 248.0 L 866.0 248.0 L 866.7 248.0 L 867.4 248.0 L 868.0 248.0 L 868.7 248.0 L 869.4 248.0 L 870.0 248.0 L 870.7 248.0 L 871.4 248.0 L 872.1 248.0 L 872.7 190.4 L 873.4 139.9 L 874.1 138.8 L 874.8 210.3 L 875.6 247.9 L 876.3 247.9 L 876.9 247.9 L 877.6 247.9 L 878.3 247.9 L 879.0 248.0 L 879.7 248.0 L 880.4 248.0 L 881.0 248.0 L 881.7 248.0 L 882.4 248.0 L 883.0 248.0 L 883.7 248.0 L 884.4 248.0 L 885.1 248.0 L 885.7 248.0 L 886.4 248.0 L 887.1 248.0 L 887.8 248.0 L 888.4 248.0 L 889.1 248.0 L 889.8 248.0 L 890.4 248.0 L 891.1 248.0 L 891.8 248.0 L 892.5 248.0 L 893.1 248.0 L 893.8 248.0 L 894.5 248.0 L 895.1 248.0 L 895.8 248.0 L 896.5 248.0 L 897.2 248.0 L 897.8 248.0 L 898.5 248.0 L 899.2 248.0 L 899.8 248.0 L 900.5 248.0 L 901.2 248.0 L 901.9 248.0 L 902.5 182.6 L 903.2 108.8 L 904.1 139.7 L 904.9 242.1 L 905.6 247.9 L 906.3 247.9 L 907.0 247.9 L 907.7 247.9 L 908.4 248.0 L 909.0 248.0 L 909.7 248.0 L 910.4 248.0 L 911.1 248.0 L 911.7 248.0 L 912.4 248.0 L 913.1 248.0 L 913.7 248.0 L 914.4 248.0 L 915.1 248.0 L 915.8 248.0 L 916.4 248.0 L 917.1 248.0 L 917.8 248.0 L 918.5 248.0 L 919.1 248.0 L 919.8 248.0 L 920.5 248.0 L 921.1 248.0 L 921.8 248.0 L 922.5 248.0 L 923.2 248.0 L 923.8 248.0 L 924.5 248.0 L 925.2 248.0 L 925.9 248.0 L 926.5 248.0 L 927.2 248.0 L 927.9 248.0 L 928.6 248.0 L 929.3 248.0 L 929.9 248.0 L 930.6 248.0 L 931.3 248.0 L 932.0 248.0 L 932.6 144.0 L 933.3 139.1 L 934.0 139.7 L 934.8 243.9 L 935.5 247.9 L 936.1 247.9 L 936.8 247.8 L 937.5 247.8 L 938.2 248.0 L 938.8 248.0 L 939.6 248.0 L 940.3 248.0 L 940.9 248.0 L 941.6 248.0 L 942.3 248.0 L 942.9 248.0 L 943.6 248.0 L 944.3 248.0 L 945.0 248.0 L 945.6 248.0 L 946.3 248.0 L 947.0 248.0 L 947.7 248.0 L 948.3 248.0 L 949.0 248.0 L 949.7 248.0 L 950.4 248.0 L 951.0 248.0 L 951.7 248.0 L 952.4 248.0 L 953.1 248.0 L 953.7 248.0 L 954.4 248.0 L 955.1 248.0 L 955.7 248.0 L 956.4 248.0 L 957.1 248.0 L 957.8 248.0 L 958.4 248.0 L 959.1 248.0 L 959.8 248.0 L 960.4 248.0 L 961.1 248.0 L 961.8 248.0 L 962.5 139.7 L 963.3 139.1 L 964.0 181.9 L 964.8 247.9 L 965.5 247.9 L 966.2 247.9 L 966.9 247.9 L 967.6 247.9 L 968.3 248.0 L 968.9 248.0 L 969.6 248.0 L 970.3 248.0 L 970.9 248.0 L 971.6 248.0 L 972.3 248.0 L 973.0 248.0 L 973.6 248.0 L 974.3 248.0 L 975.0 248.0 L 975.7 248.0 L 976.3 248.0 L 977.0 248.0 L 977.7 248.0 L 978.3 248.0 L 979.0 248.0 L 979.7 248.0 L 980.3 248.0 L 981.0 248.0 L 981.7 248.0 L 982.4 248.0 L 983.0 248.0 L 983.7 248.0 L 984.4 248.0 L 985.0 248.0 L 985.7 248.0 L 986.4 248.0 L 987.1 248.0 L 987.8 248.0 L 988.4 248.0 L 989.1 248.0 L 989.8 248.0 L 990.4 248.0 L 991.1 248.0 L 991.8 192.7 L 992.5 138.4 L 993.2 138.8 L 993.9 204.5 L 994.7 247.9 L 995.4 247.9 L 996.1 247.9 L 996.7 247.9 L 997.4 247.9 L 998.1 248.0 L 998.8 248.0 L 999.4 248.0 L 1000.1 248.0 L 1000.8 248.0 L 1001.5 248.0 L 1002.1 248.0 L 1002.8 248.0 L 1003.5 248.0 L 1004.1 248.0 L 1004.8 248.0 L 1005.5 248.0 L 1006.2 248.0 L 1006.8 248.0 L 1007.5 248.0 L 1008.2 248.0 L 1008.8 248.0 L 1009.5 248.0 L 1010.2 248.0 L 1010.8 248.0 L 1011.5 248.0 L 1012.2 248.0 L 1012.9 248.0 L 1013.6 248.0 L 1014.2 248.0 L 1014.9 248.0 L 1015.6 248.0 L 1016.2 248.0 L 1016.9 248.0 L 1017.6 248.0 L 1018.3 248.0 L 1018.9 248.0 L 1019.6 248.0 L 1020.3 248.0 L 1021.0 248.0 L 1021.6 171.9 L 1022.3 140.0 L 1023.0 135.0 L 1023.8 236.7 L 1024.5 247.9 L 1025.2 247.9 L 1025.9 247.9 L 1026.6 247.9 L 1027.3 248.0 L 1027.9 248.0 L 1028.6 248.0 L 1029.3 248.0 L 1029.9 248.0 L 1030.6 248.0 L 1031.3 248.0 L 1031.9 248.0 L 1032.6 248.0 L 1033.3 248.0 L 1034.0 248.0 L 1034.6 248.0 L 1035.3 248.0 L 1036.0 248.0 L 1036.6 248.0 L 1037.3 248.0 L 1038.0 248.0 L 1038.7 248.0 L 1039.4 248.0 L 1040.0 248.0 L 1040.7 248.0 L 1041.4 248.0 L 1042.0 248.0 L 1042.8 248.0 L 1043.4 248.0 L 1044.1 248.0 L 1044.8 248.0 L 1045.5 248.0 L 1046.1 248.0 L 1046.8 248.0 L 1047.5 248.0 L 1048.1 248.0 L 1048.8 248.0 L 1049.5 248.0 L 1050.2 248.0 L 1050.9 248.0 L 1051.5 149.0 L 1052.2 139.9 L 1052.9 119.0 L 1053.7 240.9 L 1054.4 247.9 L 1055.1 247.9 L 1055.8 247.9 L 1056.5 247.9 L 1057.2 248.0 L 1057.8 248.0 L 1058.5 248.0 L 1059.2 248.0 L 1059.9 248.0 L 1060.5 248.0 L 1061.2 248.0 L 1061.9 248.0 L 1062.6 248.0 L 1063.2 248.0 L 1063.9 248.0 L 1064.6 248.0 L 1065.3 248.0 L 1065.9 248.0 L 1066.6 248.0 L 1067.3 248.0 L 1067.9 248.0 L 1068.6 248.0 L 1069.3 248.0 L 1069.9 248.0 L 1070.6 248.0 L 1071.3 248.0 L 1072.0 248.0 L 1072.6 248.0 L 1073.3 248.0 L 1074.0 248.0 L 1074.7 248.0 L 1075.3 248.0 L 1076.0 248.0" fill="none" stroke="#54A24B" stroke-width="2.8" stroke-linejoin="round" stroke-linecap="round"/>
<line x1="86" y1="460.0" x2="1076" y2="460.0" stroke="#ececec" stroke-width="1"/>
<text x="76" y="464.0" text-anchor="end" font-size="12" fill="#444" font-family="Helvetica, Arial, sans-serif">0.0</text>
<line x1="86" y1="424.0" x2="1076" y2="424.0" stroke="#ececec" stroke-width="1"/>
<text x="76" y="428.0" text-anchor="end" font-size="12" fill="#444" font-family="Helvetica, Arial, sans-serif">3.4</text>
<line x1="86" y1="388.0" x2="1076" y2="388.0" stroke="#ececec" stroke-width="1"/>
<text x="76" y="392.0" text-anchor="end" font-size="12" fill="#444" font-family="Helvetica, Arial, sans-serif">6.8</text>
<line x1="86" y1="352.0" x2="1076" y2="352.0" stroke="#ececec" stroke-width="1"/>
<text x="76" y="356.0" text-anchor="end" font-size="12" fill="#444" font-family="Helvetica, Arial, sans-serif">10.2</text>
<line x1="86" y1="316.0" x2="1076" y2="316.0" stroke="#ececec" stroke-width="1"/>
<text x="76" y="320.0" text-anchor="end" font-size="12" fill="#444" font-family="Helvetica, Arial, sans-serif">13.6</text>
<line x1="86" y1="280.0" x2="1076" y2="280.0" stroke="#ececec" stroke-width="1"/>
<text x="76" y="284.0" text-anchor="end" font-size="12" fill="#444" font-family="Helvetica, Arial, sans-serif">17.0</text>
<line x1="86" y1="460.0" x2="1076" y2="460.0" stroke="#222" stroke-width="1.4"/>
<line x1="86" y1="280.0" x2="86" y2="460.0" stroke="#222" stroke-width="1.4"/>
<text x="24" y="370.0" text-anchor="middle" font-size="15" fill="#222" font-family="Helvetica, Arial, sans-serif" transform="rotate(-90 24,370.0)">TX GiB/s</text>
<rect x="86.0" y="280.0" width="72.6" height="180.0" fill="#4C78A8" opacity="0.08"/>
<rect x="158.7" y="280.0" width="384.4" height="180.0" fill="#F58518" opacity="0.08"/>
<rect x="158.8" y="280.0" width="384.4" height="180.0" fill="#F58518" opacity="0.08"/>
<rect x="158.8" y="280.0" width="384.3" height="180.0" fill="#F58518" opacity="0.08"/>
<rect x="158.8" y="280.0" width="384.3" height="180.0" fill="#F58518" opacity="0.08"/>
<rect x="158.9" y="280.0" width="384.3" height="180.0" fill="#F58518" opacity="0.08"/>
<rect x="158.9" y="280.0" width="384.2" height="180.0" fill="#F58518" opacity="0.08"/>
<rect x="158.9" y="280.0" width="384.2" height="180.0" fill="#F58518" opacity="0.08"/>
<rect x="158.9" y="280.0" width="384.2" height="180.0" fill="#F58518" opacity="0.08"/>
<rect x="543.4" y="280.0" width="79.9" height="180.0" fill="#F58518" opacity="0.08"/>
<rect x="543.5" y="280.0" width="79.9" height="180.0" fill="#F58518" opacity="0.08"/>
<rect x="543.5" y="280.0" width="79.9" height="180.0" fill="#F58518" opacity="0.08"/>
<rect x="543.5" y="280.0" width="79.8" height="180.0" fill="#F58518" opacity="0.08"/>
<rect x="543.5" y="280.0" width="79.8" height="180.0" fill="#F58518" opacity="0.08"/>
<rect x="543.6" y="280.0" width="79.8" height="180.0" fill="#F58518" opacity="0.08"/>
<rect x="543.6" y="280.0" width="79.8" height="180.0" fill="#F58518" opacity="0.08"/>
<rect x="543.6" y="280.0" width="79.8" height="180.0" fill="#F58518" opacity="0.08"/>
<rect x="623.7" y="280.0" width="79.6" height="180.0" fill="#F58518" opacity="0.08"/>
<rect x="623.7" y="280.0" width="79.5" height="180.0" fill="#F58518" opacity="0.08"/>
<rect x="623.8" y="280.0" width="79.5" height="180.0" fill="#F58518" opacity="0.08"/>
<rect x="623.8" y="280.0" width="79.5" height="180.0" fill="#F58518" opacity="0.08"/>
<rect x="623.8" y="280.0" width="79.5" height="180.0" fill="#F58518" opacity="0.08"/>
<rect x="623.8" y="280.0" width="79.5" height="180.0" fill="#F58518" opacity="0.08"/>
<rect x="623.8" y="280.0" width="79.4" height="180.0" fill="#F58518" opacity="0.08"/>
<rect x="623.9" y="280.0" width="79.4" height="180.0" fill="#F58518" opacity="0.08"/>
<rect x="703.7" y="280.0" width="81.6" height="180.0" fill="#F58518" opacity="0.08"/>
<rect x="703.7" y="280.0" width="81.6" height="180.0" fill="#F58518" opacity="0.08"/>
<rect x="703.7" y="280.0" width="81.6" height="180.0" fill="#F58518" opacity="0.08"/>
<rect x="703.7" y="280.0" width="81.6" height="180.0" fill="#F58518" opacity="0.08"/>
<rect x="703.7" y="280.0" width="81.5" height="180.0" fill="#F58518" opacity="0.08"/>
<rect x="703.8" y="280.0" width="81.5" height="180.0" fill="#F58518" opacity="0.08"/>
<rect x="703.8" y="280.0" width="81.5" height="180.0" fill="#F58518" opacity="0.08"/>
<rect x="703.8" y="280.0" width="81.5" height="180.0" fill="#F58518" opacity="0.08"/>
<rect x="785.7" y="280.0" width="82.5" height="180.0" fill="#F58518" opacity="0.08"/>
<rect x="785.7" y="280.0" width="82.5" height="180.0" fill="#F58518" opacity="0.08"/>
<rect x="785.7" y="280.0" width="82.5" height="180.0" fill="#F58518" opacity="0.08"/>
<rect x="785.7" y="280.0" width="82.4" height="180.0" fill="#F58518" opacity="0.08"/>
<rect x="785.8" y="280.0" width="82.4" height="180.0" fill="#F58518" opacity="0.08"/>
<rect x="785.8" y="280.0" width="82.4" height="180.0" fill="#F58518" opacity="0.08"/>
<rect x="785.8" y="280.0" width="82.4" height="180.0" fill="#F58518" opacity="0.08"/>
<rect x="785.8" y="280.0" width="82.4" height="180.0" fill="#F58518" opacity="0.08"/>
<rect x="868.6" y="280.0" width="29.7" height="180.0" fill="#4C78A8" opacity="0.08"/>
<rect x="898.7" y="280.0" width="29.4" height="180.0" fill="#4C78A8" opacity="0.08"/>
<rect x="928.5" y="280.0" width="29.4" height="180.0" fill="#4C78A8" opacity="0.08"/>
<rect x="958.2" y="280.0" width="29.4" height="180.0" fill="#4C78A8" opacity="0.08"/>
<rect x="988.0" y="280.0" width="29.4" height="180.0" fill="#4C78A8" opacity="0.08"/>
<rect x="1017.8" y="280.0" width="29.4" height="180.0" fill="#4C78A8" opacity="0.08"/>
<rect x="1047.5" y="280.0" width="29.4" height="180.0" fill="#4C78A8" opacity="0.08"/>
<path d="M 86.4 460.0 L 87.1 460.0 L 87.8 459.9 L 88.5 460.0 L 89.2 460.0 L 89.8 322.3 L 90.5 460.0 L 91.2 459.9 L 92.0 460.0 L 92.7 296.5 L 93.4 460.0 L 94.0 460.0 L 94.7 460.0 L 95.4 460.0 L 96.1 408.7 L 96.8 460.0 L 97.4 460.0 L 98.1 460.0 L 98.8 460.0 L 99.5 373.3 L 100.1 460.0 L 100.8 460.0 L 101.5 459.9 L 102.2 459.9 L 102.8 353.9 L 103.5 460.0 L 104.2 460.0 L 104.9 460.0 L 105.6 460.0 L 106.2 460.0 L 106.9 296.4 L 108.1 460.0 L 108.8 460.0 L 109.5 460.0 L 110.2 460.0 L 110.9 460.0 L 111.5 460.0 L 112.2 460.0 L 112.9 460.0 L 113.6 460.0 L 114.3 460.0 L 115.0 460.0 L 115.7 310.2 L 116.3 460.0 L 117.0 460.0 L 117.7 460.0 L 118.3 459.9 L 119.1 459.9 L 119.8 460.0 L 120.5 452.1 L 121.2 460.0 L 121.9 460.0 L 122.5 460.0 L 123.3 460.0 L 123.9 460.0 L 124.6 460.0 L 125.3 296.5 L 125.9 460.0 L 126.6 460.0 L 127.3 460.0 L 128.0 460.0 L 128.6 460.0 L 129.3 460.0 L 130.0 460.0 L 130.7 460.0 L 131.4 460.0 L 132.0 460.0 L 132.7 460.0 L 133.4 460.0 L 134.1 460.0 L 134.7 459.9 L 135.4 459.9 L 136.1 459.8 L 136.8 459.9 L 137.5 459.9 L 138.1 459.9 L 138.8 459.9 L 139.5 460.0 L 140.2 460.0 L 140.9 460.0 L 141.5 460.0 L 142.2 459.9 L 143.3 460.0 L 144.0 460.0 L 144.7 460.0 L 145.4 459.8 L 146.6 460.0 L 147.3 460.0 L 147.9 460.0 L 148.6 460.0 L 149.3 460.0 L 150.0 460.0 L 150.6 460.0 L 151.3 460.0 L 152.0 459.9 L 152.6 460.0 L 153.3 460.0 L 154.0 460.0 L 154.7 460.0 L 155.4 460.0 L 156.0 460.0 L 156.7 460.0 L 157.4 460.0 L 158.0 460.0 L 158.7 460.0 L 159.4 460.0 L 160.1 460.0 L 160.7 460.0 L 161.4 460.0 L 162.1 460.0 L 162.7 458.3 L 163.5 426.2 L 164.2 426.5 L 164.9 432.1 L 165.6 459.9 L 166.3 454.7 L 167.0 460.0 L 167.7 460.0 L 168.3 459.9 L 169.0 459.9 L 169.7 317.0 L 170.4 460.0 L 171.9 460.0 L 172.6 460.0 L 173.3 299.2 L 173.9 460.0 L 174.6 460.0 L 175.3 460.0 L 176.0 460.0 L 176.6 458.1 L 177.4 460.0 L 178.0 460.0 L 178.7 460.0 L 179.4 460.0 L 180.1 460.0 L 180.7 339.4 L 181.4 460.0 L 182.1 460.0 L 182.8 460.0 L 183.5 460.0 L 184.2 460.0 L 184.8 376.2 L 185.5 459.9 L 186.2 459.9 L 187.0 460.0 L 187.6 460.0 L 188.3 460.0 L 189.0 460.0 L 189.7 460.0 L 190.3 460.0 L 191.0 460.0 L 191.7 460.0 L 192.4 460.0 L 193.1 460.0 L 193.7 460.0 L 194.4 460.0 L 195.1 460.0 L 195.8 460.0 L 196.5 460.0 L 197.1 460.0 L 197.8 460.0 L 198.5 460.0 L 199.2 460.0 L 199.9 460.0 L 200.5 460.0 L 201.2 459.9 L 201.9 459.9 L 202.6 460.0 L 203.3 460.0 L 204.0 297.9 L 204.6 460.0 L 205.3 460.0 L 206.0 460.0 L 206.7 460.0 L 207.4 460.0 L 208.0 460.0 L 208.7 460.0 L 209.4 394.0 L 210.0 460.0 L 210.7 460.0 L 211.4 460.0 L 212.1 460.0 L 212.8 460.0 L 213.4 460.0 L 214.1 460.0 L 214.8 438.8 L 215.5 460.0 L 216.1 460.0 L 216.8 460.0 L 217.5 407.7 L 218.2 459.9 L 218.9 459.9 L 219.6 459.9 L 220.2 460.0 L 220.9 430.3 L 221.6 459.9 L 222.4 460.0 L 223.0 460.0 L 223.7 460.0 L 224.4 460.0 L 225.0 460.0 L 225.7 460.0 L 226.4 460.0 L 227.1 460.0 L 227.8 460.0 L 228.5 422.7 L 229.1 460.0 L 229.9 460.0 L 230.6 460.0 L 231.3 460.0 L 231.9 460.0 L 232.6 413.9 L 233.3 460.0 L 234.0 460.0 L 234.6 459.9 L 235.3 459.9 L 236.0 459.9 L 236.7 460.0 L 237.4 460.0 L 238.1 460.0 L 238.8 460.0 L 239.4 460.0 L 240.1 460.0 L 240.8 460.0 L 241.5 349.0 L 242.2 460.0 L 242.8 460.0 L 243.5 460.0 L 244.2 460.0 L 244.9 460.0 L 245.5 460.0 L 246.2 296.5 L 246.9 460.0 L 247.6 460.0 L 248.3 460.0 L 248.9 460.0 L 249.6 460.0 L 250.3 460.0 L 251.0 370.7 L 251.7 459.9 L 252.4 459.9 L 253.1 460.0 L 253.7 460.0 L 254.4 460.0 L 255.1 460.0 L 255.8 460.0 L 256.5 382.2 L 257.2 460.0 L 257.8 460.0 L 258.5 460.0 L 259.2 460.0 L 259.9 460.0 L 260.6 460.0 L 261.3 460.0 L 262.0 460.0 L 262.6 460.0 L 263.3 460.0 L 264.0 460.0 L 264.7 460.0 L 265.4 460.0 L 266.1 460.0 L 266.7 460.0 L 267.4 395.1 L 268.1 459.9 L 268.7 459.1 L 269.5 459.9 L 270.2 460.0 L 270.8 460.0 L 271.5 460.0 L 272.2 407.1 L 272.9 460.0 L 273.5 460.0 L 274.2 460.0 L 274.9 460.0 L 275.6 407.0 L 276.3 460.0 L 276.9 460.0 L 277.6 460.0 L 278.3 460.0 L 279.0 460.0 L 279.7 334.8 L 280.4 460.0 L 281.0 460.0 L 281.7 460.0 L 282.4 460.0 L 283.1 460.0 L 283.7 336.1 L 284.4 460.0 L 285.1 459.9 L 285.8 459.9 L 286.5 460.0 L 287.1 460.0 L 287.8 460.0 L 288.5 460.0 L 289.2 460.0 L 289.8 460.0 L 290.5 460.0 L 291.2 460.0 L 291.9 460.0 L 292.6 391.4 L 293.2 460.0 L 293.9 460.0 L 294.6 460.0 L 295.3 460.0 L 296.0 460.0 L 296.7 460.0 L 297.4 354.4 L 298.0 460.0 L 298.7 460.0 L 299.4 460.0 L 300.2 460.0 L 300.8 460.0 L 301.5 459.9 L 302.2 459.9 L 302.9 459.9 L 303.6 460.0 L 304.3 460.0 L 304.9 460.0 L 305.6 460.0 L 306.3 460.0 L 307.0 460.0 L 307.6 308.3 L 308.4 460.0 L 309.0 460.0 L 309.7 460.0 L 310.4 460.0 L 311.1 460.0 L 311.7 460.0 L 312.4 460.0 L 313.1 302.4 L 313.8 460.0 L 314.6 452.2 L 315.2 460.0 L 315.9 460.0 L 316.6 460.0 L 317.3 460.0 L 318.0 459.9 L 318.6 455.5 L 319.3 460.0 L 320.0 460.0 L 320.7 460.0 L 321.3 460.0 L 322.0 296.5 L 322.7 460.0 L 323.4 460.0 L 324.1 460.0 L 324.7 460.0 L 325.4 460.0 L 326.1 364.2 L 326.8 459.9 L 327.5 460.0 L 328.2 460.0 L 328.9 460.0 L 329.5 460.0 L 330.2 372.0 L 330.9 460.0 L 331.6 460.0 L 332.3 460.0 L 332.9 460.0 L 333.6 460.0 L 334.3 351.1 L 335.0 459.9 L 335.7 459.9 L 336.3 459.9 L 337.0 460.0 L 337.7 460.0 L 338.4 460.0 L 339.1 296.5 L 339.7 460.0 L 340.4 460.0 L 341.1 460.0 L 341.8 460.0 L 342.5 460.0 L 343.2 460.0 L 343.8 346.0 L 344.5 460.0 L 345.2 460.0 L 345.9 460.0 L 346.6 460.0 L 347.2 460.0 L 347.9 460.0 L 348.6 296.5 L 349.3 460.0 L 349.9 460.0 L 350.6 460.0 L 351.4 459.9 L 352.0 459.9 L 352.7 459.9 L 353.4 460.0 L 354.1 460.0 L 354.7 460.0 L 355.4 460.0 L 356.1 460.0 L 356.8 460.0 L 357.5 460.0 L 358.2 460.0 L 358.8 460.0 L 359.5 460.0 L 360.2 460.0 L 360.9 460.0 L 361.6 460.0 L 362.3 460.0 L 363.0 460.0 L 363.6 460.0 L 364.3 460.0 L 365.0 410.9 L 365.8 460.0 L 366.4 460.0 L 367.1 460.0 L 367.8 460.0 L 368.5 459.9 L 369.1 459.9 L 369.8 460.0 L 370.5 460.0 L 371.2 460.0 L 371.9 359.4 L 372.5 460.0 L 373.2 460.0 L 373.9 460.0 L 374.6 460.0 L 375.3 440.1 L 375.9 460.0 L 376.6 460.0 L 377.3 460.0 L 378.0 460.0 L 378.6 460.0 L 379.3 407.8 L 380.0 460.0 L 380.7 460.0 L 381.4 460.0 L 382.0 460.0 L 382.7 460.0 L 383.4 460.0 L 384.1 460.0 L 384.8 459.9 L 385.5 459.9 L 386.2 459.9 L 386.8 460.0 L 387.5 460.0 L 388.2 308.6 L 388.8 460.0 L 389.5 460.0 L 390.2 460.0 L 390.9 460.0 L 391.6 460.0 L 392.3 460.0 L 393.0 460.0 L 393.6 460.0 L 394.4 460.0 L 395.0 460.0 L 395.7 460.0 L 396.4 460.0 L 397.1 460.0 L 397.7 460.0 L 398.4 460.0 L 399.2 460.0 L 399.9 460.0 L 400.5 460.0 L 401.2 460.0 L 401.9 459.9 L 402.5 349.1 L 403.2 460.0 L 403.9 460.0 L 404.6 460.0 L 405.3 460.0 L 406.0 460.0 L 406.6 460.0 L 407.3 460.0 L 408.0 460.0 L 408.7 460.0 L 409.4 460.0 L 410.1 460.0 L 410.7 460.0 L 411.4 460.0 L 412.1 460.0 L 412.8 460.0 L 413.5 460.0 L 414.2 460.0 L 414.8 460.0 L 415.5 460.0 L 416.2 460.0 L 416.8 460.0 L 417.5 460.0 L 418.3 409.2 L 418.9 459.9 L 419.6 459.9 L 420.3 460.0 L 421.0 460.0 L 421.6 370.8 L 422.3 460.0 L 423.1 460.0 L 423.7 460.0 L 424.4 460.0 L 425.1 335.8 L 425.7 460.0 L 426.4 460.0 L 427.1 460.0 L 427.8 460.0 L 428.5 460.0 L 429.2 336.9 L 429.8 460.0 L 430.5 460.0 L 431.2 460.0 L 431.8 460.0 L 432.6 460.0 L 433.3 419.2 L 433.9 460.0 L 434.6 459.9 L 435.3 459.9 L 436.0 459.9 L 436.7 459.9 L 437.4 313.1 L 438.1 460.0 L 438.7 460.0 L 439.4 460.0 L 440.1 460.0 L 440.8 460.0 L 441.4 460.0 L 442.2 460.0 L 442.8 460.0 L 443.5 460.0 L 444.2 460.0 L 444.9 460.0 L 445.5 460.0 L 446.2 447.6 L 446.9 460.0 L 447.6 460.0 L 448.3 460.0 L 448.9 460.0 L 449.6 460.0 L 450.3 460.0 L 451.0 460.0 L 451.7 459.9 L 452.4 459.9 L 453.0 460.0 L 453.7 460.0 L 454.4 460.0 L 455.1 460.0 L 455.7 459.9 L 456.4 336.3 L 457.1 460.0 L 457.8 460.0 L 458.4 460.0 L 459.1 460.0 L 459.8 460.0 L 460.5 460.0 L 461.1 460.0 L 461.8 313.7 L 462.5 460.0 L 463.2 460.0 L 463.9 460.0 L 464.6 460.0 L 465.2 460.0 L 465.9 460.0 L 466.6 460.0 L 467.3 427.4 L 468.0 460.0 L 468.6 459.9 L 469.4 459.9 L 470.0 460.0 L 470.7 460.0 L 471.4 296.5 L 472.1 460.0 L 472.8 460.0 L 473.5 460.0 L 474.2 460.0 L 474.8 318.5 L 475.5 460.0 L 476.2 460.0 L 476.9 460.0 L 477.6 460.0 L 478.3 460.0 L 478.9 450.5 L 479.6 460.0 L 480.3 460.0 L 481.0 460.0 L 481.6 460.0 L 482.3 460.0 L 483.0 460.0 L 483.7 460.0 L 484.4 460.0 L 485.0 459.9 L 485.7 459.9 L 486.5 460.0 L 487.1 460.0 L 487.8 460.0 L 488.5 460.0 L 489.2 460.0 L 489.8 460.0 L 490.5 460.0 L 491.2 380.0 L 491.9 460.0 L 492.5 460.0 L 493.2 460.0 L 493.9 460.0 L 494.6 460.0 L 495.2 460.0 L 495.9 460.0 L 496.6 460.0 L 497.3 460.0 L 498.0 460.0 L 498.7 460.0 L 499.3 460.0 L 500.0 445.0 L 500.7 460.0 L 501.4 459.9 L 502.1 459.9 L 502.8 459.9 L 503.5 460.0 L 504.1 460.0 L 504.8 460.0 L 505.5 460.0 L 506.2 460.0 L 506.9 460.0 L 507.6 460.0 L 508.3 460.0 L 508.9 460.0 L 509.6 460.0 L 510.3 364.1 L 511.0 460.0 L 511.7 460.0 L 512.4 460.0 L 513.0 460.0 L 513.7 460.0 L 514.4 460.0 L 515.1 460.0 L 515.8 367.4 L 516.4 460.0 L 517.1 460.0 L 517.8 460.0 L 518.5 459.9 L 519.1 459.9 L 519.8 369.0 L 520.5 459.9 L 521.2 459.9 L 521.9 459.9 L 522.6 459.9 L 523.2 459.9 L 523.9 460.0 L 524.6 460.0 L 525.3 460.0 L 525.9 460.0 L 526.6 460.0 L 527.3 460.0 L 527.9 460.0 L 528.6 460.0 L 529.3 460.0 L 529.9 460.0 L 530.6 459.7 L 532.2 460.0 L 532.9 460.0 L 533.5 460.0 L 534.2 460.0 L 534.9 460.0 L 535.6 459.9 L 536.2 460.0 L 536.9 460.0 L 537.6 460.0 L 538.3 460.0 L 538.9 460.0 L 539.6 460.0 L 540.3 460.0 L 541.0 460.0 L 541.6 460.0 L 542.3 460.0 L 543.0 460.0 L 543.6 460.0 L 544.3 460.0 L 545.0 460.0 L 545.7 460.0 L 546.4 460.0 L 547.0 460.0 L 547.7 460.0 L 548.4 460.0 L 549.0 460.0 L 549.7 460.0 L 550.4 460.0 L 551.1 460.0 L 551.8 426.4 L 552.5 424.5 L 553.3 436.2 L 554.2 460.0 L 554.8 460.0 L 555.5 426.2 L 556.2 420.1 L 557.1 430.5 L 557.7 459.9 L 558.5 460.0 L 559.1 460.0 L 559.8 460.0 L 560.5 460.0 L 561.1 460.0 L 561.8 460.0 L 562.5 460.0 L 563.2 460.0 L 563.8 460.0 L 564.5 460.0 L 565.2 460.0 L 565.9 460.0 L 566.5 460.0 L 567.2 460.0 L 567.9 460.0 L 568.5 460.0 L 569.2 460.0 L 569.9 460.0 L 570.6 460.0 L 571.2 460.0 L 571.9 443.7 L 572.6 425.2 L 573.4 426.1 L 574.1 452.3 L 574.8 460.0 L 575.5 445.7 L 576.2 426.4 L 576.9 418.7 L 577.7 444.3 L 578.4 460.0 L 579.1 454.3 L 579.8 426.5 L 580.5 425.9 L 581.3 440.2 L 582.0 460.0 L 582.7 460.0 L 583.3 425.8 L 584.1 426.4 L 584.8 418.4 L 585.7 459.9 L 586.3 460.0 L 587.0 426.3 L 587.7 426.2 L 588.5 426.1 L 589.2 460.0 L 589.9 460.0 L 590.6 426.3 L 591.3 425.4 L 592.1 426.3 L 592.8 459.9 L 593.5 460.0 L 594.2 460.0 L 594.9 460.0 L 595.5 460.0 L 596.2 459.9 L 596.9 459.9 L 597.6 459.9 L 598.3 459.9 L 599.0 459.9 L 599.7 459.9 L 600.3 459.9 L 601.0 459.9 L 601.7 459.9 L 602.4 459.8 L 603.1 459.9 L 603.8 460.0 L 604.5 460.0 L 605.1 460.0 L 605.8 460.0 L 606.5 460.0 L 607.2 460.0 L 607.8 460.0 L 608.5 460.0 L 609.2 460.0 L 609.8 460.0 L 610.5 460.0 L 611.2 460.0 L 611.9 460.0 L 612.5 460.0 L 613.2 460.0 L 613.9 460.0 L 614.5 460.0 L 615.2 460.0 L 615.9 460.0 L 616.6 460.0 L 617.2 460.0 L 617.9 460.0 L 618.6 460.0 L 619.3 459.9 L 619.9 459.9 L 620.6 460.0 L 621.3 460.0 L 622.0 460.0 L 622.6 460.0 L 623.3 460.0 L 624.0 460.0 L 624.6 460.0 L 625.3 460.0 L 626.0 460.0 L 626.7 460.0 L 627.3 460.0 L 628.0 460.0 L 628.7 426.4 L 629.4 420.0 L 630.3 426.2 L 631.0 459.9 L 631.7 460.0 L 632.4 460.0 L 633.1 460.0 L 633.7 460.0 L 634.4 460.0 L 635.1 460.0 L 635.8 460.0 L 636.5 460.0 L 637.1 460.0 L 637.8 460.0 L 638.5 460.0 L 639.2 460.0 L 639.8 460.0 L 640.5 460.0 L 641.2 460.0 L 641.8 460.0 L 642.5 460.0 L 643.2 460.0 L 643.9 460.0 L 644.6 460.0 L 645.2 460.0 L 645.9 460.0 L 646.6 460.0 L 647.2 426.1 L 648.0 426.1 L 648.7 420.7 L 649.5 460.0 L 650.1 460.0 L 650.8 426.5 L 651.6 426.4 L 652.5 427.3 L 653.2 460.0 L 653.9 460.0 L 654.5 426.6 L 655.3 425.3 L 656.1 426.3 L 656.8 460.0 L 657.5 460.0 L 658.2 421.8 L 659.0 426.3 L 659.7 417.8 L 660.5 460.0 L 661.2 460.0 L 661.8 426.5 L 662.6 426.4 L 663.4 425.9 L 664.1 460.0 L 664.8 460.0 L 665.5 426.6 L 666.2 424.4 L 667.0 426.7 L 667.7 460.0 L 668.4 460.0 L 669.1 426.4 L 669.9 425.9 L 670.7 426.5 L 671.4 460.0 L 672.1 460.0 L 672.8 460.0 L 673.4 460.0 L 674.1 460.0 L 674.8 460.0 L 675.5 460.0 L 676.1 414.4 L 676.8 459.9 L 677.5 459.9 L 678.2 459.9 L 678.8 459.9 L 679.5 459.9 L 680.2 459.9 L 680.9 459.9 L 681.5 459.9 L 682.2 459.9 L 682.9 459.9 L 683.6 459.9 L 684.3 460.0 L 684.9 460.0 L 685.6 460.0 L 686.3 460.0 L 687.0 460.0 L 687.6 460.0 L 688.3 460.0 L 689.0 460.0 L 689.6 460.0 L 690.3 460.0 L 691.0 460.0 L 691.7 460.0 L 692.3 460.0 L 693.0 460.0 L 693.7 460.0 L 694.4 460.0 L 695.0 460.0 L 695.7 460.0 L 696.4 460.0 L 697.1 460.0 L 697.7 460.0 L 698.4 460.0 L 699.1 460.0 L 699.8 460.0 L 700.4 460.0 L 701.1 460.0 L 701.8 460.0 L 702.5 460.0 L 703.1 460.0 L 703.8 460.0 L 704.5 460.0 L 705.2 460.0 L 705.8 460.0 L 706.5 460.0 L 707.2 460.0 L 707.8 460.0 L 708.5 460.0 L 709.2 460.0 L 709.9 433.9 L 710.5 426.5 L 711.3 426.2 L 712.0 449.4 L 712.7 445.0 L 713.4 460.0 L 714.1 460.0 L 714.7 460.0 L 715.4 460.0 L 716.1 460.0 L 716.7 460.0 L 717.4 460.0 L 718.1 460.0 L 718.8 460.0 L 719.4 459.9 L 720.1 459.9 L 720.8 460.0 L 721.4 460.0 L 722.1 460.0 L 722.8 460.0 L 723.5 460.0 L 724.1 460.0 L 724.8 460.0 L 725.5 460.0 L 726.2 460.0 L 726.8 460.0 L 727.5 460.0 L 728.2 449.5 L 729.0 426.5 L 729.7 426.1 L 730.5 439.6 L 731.1 460.0 L 731.8 460.0 L 732.5 426.3 L 733.2 420.3 L 734.0 426.3 L 734.7 460.0 L 735.3 460.0 L 736.0 426.1 L 736.9 425.2 L 737.7 426.5 L 738.4 460.0 L 739.0 460.0 L 739.7 426.6 L 740.4 426.2 L 741.1 421.4 L 741.9 460.0 L 742.6 460.0 L 743.3 441.9 L 744.0 426.4 L 744.7 425.7 L 745.4 441.1 L 746.1 460.0 L 746.8 460.0 L 747.5 423.2 L 748.3 426.2 L 749.0 425.3 L 749.7 460.0 L 750.4 460.0 L 751.1 426.5 L 751.8 426.4 L 752.6 426.5 L 753.3 459.9 L 754.0 459.9 L 754.7 460.0 L 755.4 459.9 L 756.0 460.0 L 756.7 460.0 L 757.4 460.0 L 758.1 357.8 L 758.8 459.9 L 759.4 459.9 L 760.1 459.9 L 760.8 459.9 L 761.5 459.9 L 762.2 459.9 L 762.8 459.9 L 763.5 459.9 L 764.2 459.9 L 764.9 459.9 L 765.5 460.0 L 766.2 460.0 L 766.9 460.0 L 767.6 460.0 L 768.2 460.0 L 768.9 460.0 L 769.6 459.9 L 770.2 459.9 L 770.9 460.0 L 771.6 460.0 L 772.3 460.0 L 772.9 460.0 L 773.6 460.0 L 774.3 460.0 L 775.0 460.0 L 775.6 460.0 L 776.3 460.0 L 777.0 460.0 L 777.7 460.0 L 778.3 460.0 L 779.0 460.0 L 779.7 460.0 L 780.3 460.0 L 781.0 460.0 L 781.7 460.0 L 782.4 460.0 L 783.1 460.0 L 783.7 460.0 L 784.4 460.0 L 785.1 460.0 L 785.7 460.0 L 786.4 460.0 L 787.1 460.0 L 787.8 460.0 L 788.4 460.0 L 789.1 460.0 L 789.8 460.0 L 790.4 460.0 L 791.1 460.0 L 791.8 460.0 L 792.5 437.3 L 793.1 426.3 L 794.0 426.0 L 794.8 457.0 L 795.5 439.5 L 796.2 460.0 L 796.9 460.0 L 797.6 460.0 L 798.2 460.0 L 798.9 460.0 L 799.6 460.0 L 800.2 460.0 L 800.9 460.0 L 801.6 460.0 L 802.3 460.0 L 802.9 459.9 L 803.6 459.9 L 804.3 460.0 L 804.9 460.0 L 805.6 460.0 L 806.3 460.0 L 806.9 460.0 L 807.6 460.0 L 808.3 460.0 L 809.0 460.0 L 809.6 460.0 L 810.3 460.0 L 811.0 460.0 L 811.7 426.5 L 812.4 426.5 L 813.1 426.0 L 813.9 460.0 L 814.5 460.0 L 815.2 426.3 L 815.9 424.6 L 816.7 426.4 L 817.4 460.0 L 818.1 460.0 L 818.7 430.5 L 819.6 424.1 L 820.4 426.2 L 821.1 460.0 L 821.8 460.0 L 822.4 434.2 L 823.1 426.5 L 823.9 421.6 L 824.7 453.1 L 825.4 460.0 L 826.1 446.4 L 826.8 426.0 L 827.5 426.2 L 828.3 437.5 L 828.9 460.0 L 829.6 460.0 L 830.3 422.3 L 831.1 426.1 L 831.8 422.8 L 832.6 460.0 L 833.2 460.0 L 833.9 426.6 L 834.6 426.3 L 835.4 425.4 L 836.2 459.9 L 836.9 459.9 L 837.6 459.9 L 838.3 459.9 L 838.9 460.0 L 839.6 460.0 L 840.3 460.0 L 841.0 378.2 L 841.6 459.9 L 842.4 459.9 L 843.1 459.9 L 843.7 459.9 L 844.4 459.9 L 845.1 459.9 L 845.8 459.9 L 846.4 459.9 L 847.1 459.9 L 847.8 459.9 L 848.5 460.0 L 849.2 460.0 L 849.8 460.0 L 850.5 460.0 L 851.2 460.0 L 851.9 460.0 L 852.5 460.0 L 853.2 459.9 L 853.9 460.0 L 854.6 460.0 L 855.2 460.0 L 855.9 460.0 L 856.6 460.0 L 857.2 460.0 L 857.9 460.0 L 858.6 460.0 L 859.3 460.0 L 859.9 460.0 L 860.6 460.0 L 861.3 460.0 L 861.9 460.0 L 862.6 460.0 L 863.3 460.0 L 864.0 460.0 L 864.7 460.0 L 865.3 460.0 L 866.0 460.0 L 866.7 460.0 L 867.4 460.0 L 868.0 460.0 L 868.7 460.0 L 869.4 460.0 L 870.0 460.0 L 870.7 460.0 L 871.4 460.0 L 872.1 460.0 L 872.7 460.0 L 873.4 426.2 L 874.1 426.6 L 874.8 425.6 L 875.6 459.9 L 876.3 459.9 L 876.9 459.9 L 877.6 459.9 L 878.3 459.9 L 879.0 460.0 L 879.7 460.0 L 880.4 460.0 L 881.0 460.0 L 881.7 460.0 L 882.4 460.0 L 883.0 460.0 L 883.7 460.0 L 884.4 460.0 L 885.1 460.0 L 885.7 460.0 L 886.4 459.9 L 887.1 460.0 L 887.8 460.0 L 888.4 460.0 L 889.1 460.0 L 889.8 460.0 L 890.4 460.0 L 891.1 460.0 L 891.8 460.0 L 892.5 460.0 L 893.1 460.0 L 893.8 460.0 L 894.5 460.0 L 895.1 460.0 L 895.8 460.0 L 896.5 460.0 L 897.2 460.0 L 897.8 460.0 L 898.5 460.0 L 899.2 460.0 L 899.8 460.0 L 900.5 460.0 L 901.2 460.0 L 901.9 460.0 L 902.5 460.0 L 903.2 426.5 L 904.1 426.1 L 904.9 442.5 L 905.6 459.9 L 906.3 459.9 L 907.0 459.9 L 907.7 459.9 L 908.4 459.9 L 909.0 460.0 L 909.7 460.0 L 910.4 460.0 L 911.1 460.0 L 911.7 460.0 L 912.4 460.0 L 913.1 460.0 L 913.7 460.0 L 914.4 460.0 L 915.1 460.0 L 915.8 460.0 L 916.4 460.0 L 917.1 460.0 L 917.8 460.0 L 918.5 460.0 L 919.1 460.0 L 919.8 460.0 L 920.5 460.0 L 921.1 459.9 L 921.8 460.0 L 922.5 460.0 L 923.2 460.0 L 923.8 460.0 L 924.5 460.0 L 925.2 460.0 L 925.9 460.0 L 926.5 460.0 L 927.2 460.0 L 927.9 460.0 L 928.6 460.0 L 929.3 460.0 L 929.9 460.0 L 930.6 460.0 L 931.3 460.0 L 932.0 460.0 L 932.6 438.6 L 933.3 426.1 L 934.0 425.3 L 934.8 447.8 L 935.5 459.9 L 936.1 459.9 L 936.8 459.9 L 937.5 459.8 L 938.2 460.0 L 938.8 460.0 L 939.6 460.0 L 940.3 460.0 L 940.9 460.0 L 941.6 460.0 L 942.3 460.0 L 942.9 460.0 L 943.6 460.0 L 944.3 460.0 L 945.0 460.0 L 945.6 460.0 L 946.3 460.0 L 947.0 460.0 L 947.7 460.0 L 948.3 460.0 L 949.0 460.0 L 949.7 460.0 L 950.4 460.0 L 951.0 460.0 L 951.7 460.0 L 952.4 460.0 L 953.1 459.9 L 953.7 460.0 L 954.4 460.0 L 955.1 460.0 L 955.7 460.0 L 956.4 460.0 L 957.1 460.0 L 957.8 460.0 L 958.4 460.0 L 959.1 460.0 L 959.8 460.0 L 960.4 460.0 L 961.1 460.0 L 961.8 460.0 L 962.5 430.6 L 963.3 426.2 L 964.0 423.2 L 964.8 459.9 L 965.5 459.9 L 966.2 459.9 L 966.9 459.9 L 967.6 459.9 L 968.3 460.0 L 968.9 460.0 L 969.6 460.0 L 970.3 460.0 L 970.9 460.0 L 971.6 460.0 L 972.3 460.0 L 973.0 460.0 L 973.6 460.0 L 974.3 460.0 L 975.0 460.0 L 975.7 460.0 L 976.3 460.0 L 977.0 460.0 L 977.7 460.0 L 978.3 460.0 L 979.0 460.0 L 979.7 460.0 L 980.3 460.0 L 981.0 460.0 L 981.7 460.0 L 982.4 460.0 L 983.0 460.0 L 983.7 460.0 L 984.4 460.0 L 985.0 460.0 L 985.7 460.0 L 986.4 459.9 L 987.1 460.0 L 987.8 460.0 L 988.4 460.0 L 989.1 460.0 L 989.8 460.0 L 990.4 460.0 L 991.1 460.0 L 991.8 460.0 L 992.5 426.0 L 993.2 426.0 L 993.9 426.2 L 994.7 459.9 L 995.4 459.9 L 996.1 459.9 L 996.7 459.9 L 997.4 459.9 L 998.1 460.0 L 998.8 460.0 L 999.4 460.0 L 1000.1 460.0 L 1000.8 460.0 L 1001.5 460.0 L 1002.1 460.0 L 1002.8 460.0 L 1003.5 460.0 L 1004.1 460.0 L 1004.8 460.0 L 1005.5 460.0 L 1006.2 460.0 L 1006.8 460.0 L 1007.5 460.0 L 1008.2 460.0 L 1008.8 460.0 L 1009.5 460.0 L 1010.2 460.0 L 1010.8 460.0 L 1011.5 460.0 L 1012.2 460.0 L 1012.9 460.0 L 1013.6 460.0 L 1014.2 460.0 L 1014.9 460.0 L 1015.6 460.0 L 1016.2 460.0 L 1016.9 460.0 L 1017.6 460.0 L 1018.3 460.0 L 1018.9 460.0 L 1019.6 460.0 L 1020.3 460.0 L 1021.0 460.0 L 1021.6 460.0 L 1022.3 426.2 L 1023.0 417.9 L 1023.8 426.1 L 1024.5 459.9 L 1025.2 459.9 L 1025.9 459.9 L 1026.6 459.9 L 1027.3 459.9 L 1027.9 460.0 L 1028.6 460.0 L 1029.3 460.0 L 1029.9 460.0 L 1030.6 460.0 L 1031.3 460.0 L 1031.9 460.0 L 1032.6 460.0 L 1033.3 460.0 L 1034.0 460.0 L 1034.6 460.0 L 1035.3 460.0 L 1036.0 460.0 L 1036.6 460.0 L 1037.3 459.9 L 1038.0 460.0 L 1038.7 460.0 L 1039.4 460.0 L 1040.0 460.0 L 1040.7 460.0 L 1041.4 460.0 L 1042.0 460.0 L 1042.8 460.0 L 1043.4 460.0 L 1044.1 460.0 L 1044.8 460.0 L 1045.5 460.0 L 1046.1 460.0 L 1046.8 460.0 L 1047.5 460.0 L 1048.1 460.0 L 1048.8 460.0 L 1049.5 460.0 L 1050.2 460.0 L 1050.9 460.0 L 1051.5 455.7 L 1052.2 426.0 L 1052.9 426.2 L 1053.7 438.9 L 1054.4 459.9 L 1055.1 459.9 L 1055.8 459.9 L 1056.5 459.9 L 1057.2 459.9 L 1057.8 460.0 L 1058.5 460.0 L 1059.2 460.0 L 1059.9 460.0 L 1060.5 460.0 L 1061.2 460.0 L 1061.9 460.0 L 1062.6 460.0 L 1063.2 460.0 L 1063.9 460.0 L 1064.6 460.0 L 1065.3 460.0 L 1065.9 460.0 L 1066.6 460.0 L 1067.3 460.0 L 1067.9 460.0 L 1068.6 460.0 L 1069.3 460.0 L 1069.9 459.9 L 1070.6 460.0 L 1071.3 460.0 L 1072.0 460.0 L 1072.6 460.0 L 1073.3 460.0 L 1074.0 460.0 L 1074.7 460.0 L 1075.3 460.0 L 1076.0 460.0" fill="none" stroke="#4C78A8" stroke-width="2.8" stroke-linejoin="round" stroke-linecap="round"/>
<line x1="86" y1="672.0" x2="1076" y2="672.0" stroke="#ececec" stroke-width="1"/>
<text x="76" y="676.0" text-anchor="end" font-size="12" fill="#444" font-family="Helvetica, Arial, sans-serif">0.0</text>
<line x1="86" y1="636.0" x2="1076" y2="636.0" stroke="#ececec" stroke-width="1"/>
<text x="76" y="640.0" text-anchor="end" font-size="12" fill="#444" font-family="Helvetica, Arial, sans-serif">9.6</text>
<line x1="86" y1="600.0" x2="1076" y2="600.0" stroke="#ececec" stroke-width="1"/>
<text x="76" y="604.0" text-anchor="end" font-size="12" fill="#444" font-family="Helvetica, Arial, sans-serif">19.2</text>
<line x1="86" y1="564.0" x2="1076" y2="564.0" stroke="#ececec" stroke-width="1"/>
<text x="76" y="568.0" text-anchor="end" font-size="12" fill="#444" font-family="Helvetica, Arial, sans-serif">28.8</text>
<line x1="86" y1="528.0" x2="1076" y2="528.0" stroke="#ececec" stroke-width="1"/>
<text x="76" y="532.0" text-anchor="end" font-size="12" fill="#444" font-family="Helvetica, Arial, sans-serif">38.4</text>
<line x1="86" y1="492.0" x2="1076" y2="492.0" stroke="#ececec" stroke-width="1"/>
<text x="76" y="496.0" text-anchor="end" font-size="12" fill="#444" font-family="Helvetica, Arial, sans-serif">48.0</text>
<line x1="86" y1="672.0" x2="1076" y2="672.0" stroke="#222" stroke-width="1.4"/>
<line x1="86" y1="492.0" x2="86" y2="672.0" stroke="#222" stroke-width="1.4"/>
<text x="24" y="582.0" text-anchor="middle" font-size="15" fill="#222" font-family="Helvetica, Arial, sans-serif" transform="rotate(-90 24,582.0)">RX GiB/s</text>
<rect x="86.0" y="492.0" width="72.6" height="180.0" fill="#4C78A8" opacity="0.08"/>
<rect x="158.7" y="492.0" width="384.4" height="180.0" fill="#F58518" opacity="0.08"/>
<rect x="158.8" y="492.0" width="384.4" height="180.0" fill="#F58518" opacity="0.08"/>
<rect x="158.8" y="492.0" width="384.3" height="180.0" fill="#F58518" opacity="0.08"/>
<rect x="158.8" y="492.0" width="384.3" height="180.0" fill="#F58518" opacity="0.08"/>
<rect x="158.9" y="492.0" width="384.3" height="180.0" fill="#F58518" opacity="0.08"/>
<rect x="158.9" y="492.0" width="384.2" height="180.0" fill="#F58518" opacity="0.08"/>
<rect x="158.9" y="492.0" width="384.2" height="180.0" fill="#F58518" opacity="0.08"/>
<rect x="158.9" y="492.0" width="384.2" height="180.0" fill="#F58518" opacity="0.08"/>
<rect x="543.4" y="492.0" width="79.9" height="180.0" fill="#F58518" opacity="0.08"/>
<rect x="543.5" y="492.0" width="79.9" height="180.0" fill="#F58518" opacity="0.08"/>
<rect x="543.5" y="492.0" width="79.9" height="180.0" fill="#F58518" opacity="0.08"/>
<rect x="543.5" y="492.0" width="79.8" height="180.0" fill="#F58518" opacity="0.08"/>
<rect x="543.5" y="492.0" width="79.8" height="180.0" fill="#F58518" opacity="0.08"/>
<rect x="543.6" y="492.0" width="79.8" height="180.0" fill="#F58518" opacity="0.08"/>
<rect x="543.6" y="492.0" width="79.8" height="180.0" fill="#F58518" opacity="0.08"/>
<rect x="543.6" y="492.0" width="79.8" height="180.0" fill="#F58518" opacity="0.08"/>
<rect x="623.7" y="492.0" width="79.6" height="180.0" fill="#F58518" opacity="0.08"/>
<rect x="623.7" y="492.0" width="79.5" height="180.0" fill="#F58518" opacity="0.08"/>
<rect x="623.8" y="492.0" width="79.5" height="180.0" fill="#F58518" opacity="0.08"/>
<rect x="623.8" y="492.0" width="79.5" height="180.0" fill="#F58518" opacity="0.08"/>
<rect x="623.8" y="492.0" width="79.5" height="180.0" fill="#F58518" opacity="0.08"/>
<rect x="623.8" y="492.0" width="79.5" height="180.0" fill="#F58518" opacity="0.08"/>
<rect x="623.8" y="492.0" width="79.4" height="180.0" fill="#F58518" opacity="0.08"/>
<rect x="623.9" y="492.0" width="79.4" height="180.0" fill="#F58518" opacity="0.08"/>
<rect x="703.7" y="492.0" width="81.6" height="180.0" fill="#F58518" opacity="0.08"/>
<rect x="703.7" y="492.0" width="81.6" height="180.0" fill="#F58518" opacity="0.08"/>
<rect x="703.7" y="492.0" width="81.6" height="180.0" fill="#F58518" opacity="0.08"/>
<rect x="703.7" y="492.0" width="81.6" height="180.0" fill="#F58518" opacity="0.08"/>
<rect x="703.7" y="492.0" width="81.5" height="180.0" fill="#F58518" opacity="0.08"/>
<rect x="703.8" y="492.0" width="81.5" height="180.0" fill="#F58518" opacity="0.08"/>
<rect x="703.8" y="492.0" width="81.5" height="180.0" fill="#F58518" opacity="0.08"/>
<rect x="703.8" y="492.0" width="81.5" height="180.0" fill="#F58518" opacity="0.08"/>
<rect x="785.7" y="492.0" width="82.5" height="180.0" fill="#F58518" opacity="0.08"/>
<rect x="785.7" y="492.0" width="82.5" height="180.0" fill="#F58518" opacity="0.08"/>
<rect x="785.7" y="492.0" width="82.5" height="180.0" fill="#F58518" opacity="0.08"/>
<rect x="785.7" y="492.0" width="82.4" height="180.0" fill="#F58518" opacity="0.08"/>
<rect x="785.8" y="492.0" width="82.4" height="180.0" fill="#F58518" opacity="0.08"/>
<rect x="785.8" y="492.0" width="82.4" height="180.0" fill="#F58518" opacity="0.08"/>
<rect x="785.8" y="492.0" width="82.4" height="180.0" fill="#F58518" opacity="0.08"/>
<rect x="785.8" y="492.0" width="82.4" height="180.0" fill="#F58518" opacity="0.08"/>
<rect x="868.6" y="492.0" width="29.7" height="180.0" fill="#4C78A8" opacity="0.08"/>
<rect x="898.7" y="492.0" width="29.4" height="180.0" fill="#4C78A8" opacity="0.08"/>
<rect x="928.5" y="492.0" width="29.4" height="180.0" fill="#4C78A8" opacity="0.08"/>
<rect x="958.2" y="492.0" width="29.4" height="180.0" fill="#4C78A8" opacity="0.08"/>
<rect x="988.0" y="492.0" width="29.4" height="180.0" fill="#4C78A8" opacity="0.08"/>
<rect x="1017.8" y="492.0" width="29.4" height="180.0" fill="#4C78A8" opacity="0.08"/>
<rect x="1047.5" y="492.0" width="29.4" height="180.0" fill="#4C78A8" opacity="0.08"/>
<path d="M 86.4 672.0 L 87.1 672.0 L 87.8 672.0 L 88.5 672.0 L 89.2 672.0 L 89.8 672.0 L 90.5 672.0 L 91.2 672.0 L 92.0 672.0 L 92.7 672.0 L 93.4 672.0 L 94.0 672.0 L 94.7 672.0 L 95.4 672.0 L 96.1 672.0 L 96.8 672.0 L 97.4 672.0 L 98.1 672.0 L 98.8 672.0 L 99.5 672.0 L 100.1 672.0 L 100.8 672.0 L 101.5 672.0 L 102.2 672.0 L 102.8 672.0 L 103.5 672.0 L 104.2 672.0 L 104.9 672.0 L 105.6 672.0 L 106.2 672.0 L 106.9 672.0 L 108.1 672.0 L 108.8 672.0 L 109.5 672.0 L 110.2 672.0 L 110.9 672.0 L 111.5 672.0 L 112.2 672.0 L 112.9 672.0 L 113.6 672.0 L 114.3 672.0 L 115.0 672.0 L 115.7 672.0 L 116.3 672.0 L 117.0 672.0 L 117.7 672.0 L 118.3 671.9 L 119.1 672.0 L 119.8 672.0 L 120.5 672.0 L 121.2 672.0 L 121.9 672.0 L 122.5 672.0 L 123.3 672.0 L 123.9 672.0 L 124.6 672.0 L 125.3 672.0 L 125.9 672.0 L 126.6 672.0 L 127.3 672.0 L 128.0 672.0 L 128.6 672.0 L 129.3 672.0 L 130.0 672.0 L 130.7 672.0 L 131.4 672.0 L 132.0 672.0 L 132.7 672.0 L 133.4 672.0 L 134.1 672.0 L 134.7 672.0 L 135.4 671.9 L 136.1 671.9 L 136.8 671.9 L 137.5 671.9 L 138.1 671.9 L 138.8 672.0 L 139.5 672.0 L 140.2 672.0 L 140.9 672.0 L 141.5 672.0 L 142.2 672.0 L 143.3 672.0 L 144.0 672.0 L 144.7 672.0 L 145.4 672.0 L 146.6 672.0 L 147.3 672.0 L 147.9 672.0 L 148.6 672.0 L 149.3 672.0 L 150.0 672.0 L 150.6 672.0 L 151.3 672.0 L 152.0 672.0 L 152.6 672.0 L 153.3 672.0 L 154.0 672.0 L 154.7 672.0 L 155.4 672.0 L 156.0 672.0 L 156.7 672.0 L 157.4 672.0 L 158.0 672.0 L 158.7 672.0 L 159.4 672.0 L 160.1 672.0 L 160.7 672.0 L 161.4 672.0 L 162.1 672.0 L 162.7 568.3 L 163.5 567.3 L 164.2 549.7 L 164.9 671.9 L 165.6 671.9 L 166.3 621.5 L 167.0 672.0 L 167.7 672.0 L 168.3 671.9 L 169.0 672.0 L 169.7 672.0 L 170.4 671.8 L 171.9 672.0 L 172.6 672.0 L 173.3 672.0 L 173.9 672.0 L 174.6 672.0 L 175.3 672.0 L 176.0 672.0 L 176.6 672.0 L 177.4 672.0 L 178.0 672.0 L 178.7 672.0 L 179.4 672.0 L 180.1 672.0 L 180.7 672.0 L 181.4 672.0 L 182.1 672.0 L 182.8 672.0 L 183.5 672.0 L 184.2 672.0 L 184.8 672.0 L 185.5 672.0 L 186.2 672.0 L 187.0 672.0 L 187.6 672.0 L 188.3 672.0 L 189.0 672.0 L 189.7 672.0 L 190.3 672.0 L 191.0 672.0 L 191.7 672.0 L 192.4 672.0 L 193.1 672.0 L 193.7 672.0 L 194.4 672.0 L 195.1 672.0 L 195.8 672.0 L 196.5 672.0 L 197.1 672.0 L 197.8 672.0 L 198.5 672.0 L 199.2 672.0 L 199.9 672.0 L 200.5 672.0 L 201.2 672.0 L 201.9 671.9 L 202.6 672.0 L 203.3 672.0 L 204.0 672.0 L 204.6 672.0 L 205.3 672.0 L 206.0 672.0 L 206.7 672.0 L 207.4 672.0 L 208.0 672.0 L 208.7 671.9 L 209.4 672.0 L 210.0 672.0 L 210.7 672.0 L 211.4 672.0 L 212.1 672.0 L 212.8 672.0 L 213.4 672.0 L 214.1 672.0 L 214.8 672.0 L 215.5 672.0 L 216.1 672.0 L 216.8 672.0 L 217.5 672.0 L 218.2 672.0 L 218.9 672.0 L 219.6 672.0 L 220.2 672.0 L 220.9 672.0 L 221.6 672.0 L 222.4 672.0 L 223.0 672.0 L 223.7 672.0 L 224.4 672.0 L 225.0 672.0 L 225.7 672.0 L 226.4 672.0 L 227.1 672.0 L 227.8 672.0 L 228.5 672.0 L 229.1 672.0 L 229.9 672.0 L 230.6 672.0 L 231.3 672.0 L 231.9 672.0 L 232.6 672.0 L 233.3 672.0 L 234.0 672.0 L 234.6 672.0 L 235.3 672.0 L 236.0 672.0 L 236.7 672.0 L 237.4 672.0 L 238.1 672.0 L 238.8 672.0 L 239.4 672.0 L 240.1 672.0 L 240.8 672.0 L 241.5 672.0 L 242.2 672.0 L 242.8 672.0 L 243.5 672.0 L 244.2 672.0 L 244.9 672.0 L 245.5 672.0 L 246.2 672.0 L 246.9 672.0 L 247.6 672.0 L 248.3 672.0 L 248.9 672.0 L 249.6 672.0 L 250.3 672.0 L 251.0 672.0 L 251.7 671.9 L 252.4 672.0 L 253.1 672.0 L 253.7 672.0 L 254.4 672.0 L 255.1 672.0 L 255.8 672.0 L 256.5 672.0 L 257.2 672.0 L 257.8 672.0 L 258.5 672.0 L 259.2 672.0 L 259.9 672.0 L 260.6 672.0 L 261.3 672.0 L 262.0 672.0 L 262.6 672.0 L 263.3 672.0 L 264.0 672.0 L 264.7 672.0 L 265.4 672.0 L 266.1 672.0 L 266.7 671.9 L 267.4 672.0 L 268.1 580.4 L 268.7 671.9 L 269.5 672.0 L 270.2 672.0 L 270.8 672.0 L 271.5 672.0 L 272.2 672.0 L 272.9 672.0 L 273.5 672.0 L 274.2 672.0 L 274.9 672.0 L 275.6 672.0 L 276.3 672.0 L 276.9 672.0 L 277.6 672.0 L 278.3 672.0 L 279.0 672.0 L 279.7 672.0 L 280.4 672.0 L 281.0 672.0 L 281.7 672.0 L 282.4 672.0 L 283.1 672.0 L 283.7 672.0 L 284.4 672.0 L 285.1 671.9 L 285.8 672.0 L 286.5 672.0 L 287.1 672.0 L 287.8 672.0 L 288.5 672.0 L 289.2 672.0 L 289.8 672.0 L 290.5 672.0 L 291.2 672.0 L 291.9 672.0 L 292.6 672.0 L 293.2 672.0 L 293.9 672.0 L 294.6 672.0 L 295.3 672.0 L 296.0 672.0 L 296.7 672.0 L 297.4 672.0 L 298.0 672.0 L 298.7 672.0 L 299.4 672.0 L 300.2 672.0 L 300.8 672.0 L 301.5 672.0 L 302.2 671.9 L 302.9 672.0 L 303.6 672.0 L 304.3 672.0 L 304.9 672.0 L 305.6 672.0 L 306.3 672.0 L 307.0 672.0 L 307.6 672.0 L 308.4 672.0 L 309.0 672.0 L 309.7 672.0 L 310.4 672.0 L 311.1 672.0 L 311.7 672.0 L 312.4 672.0 L 313.1 672.0 L 313.8 615.7 L 314.6 672.0 L 315.2 672.0 L 315.9 672.0 L 316.6 672.0 L 317.3 672.0 L 318.0 671.9 L 318.6 671.9 L 319.3 672.0 L 320.0 672.0 L 320.7 672.0 L 321.3 672.0 L 322.0 672.0 L 322.7 672.0 L 323.4 672.0 L 324.1 672.0 L 324.7 672.0 L 325.4 672.0 L 326.1 672.0 L 326.8 672.0 L 327.5 672.0 L 328.2 672.0 L 328.9 672.0 L 329.5 672.0 L 330.2 672.0 L 330.9 672.0 L 331.6 672.0 L 332.3 672.0 L 332.9 672.0 L 333.6 672.0 L 334.3 671.9 L 335.0 672.0 L 335.7 672.0 L 336.3 672.0 L 337.0 672.0 L 337.7 672.0 L 338.4 672.0 L 339.1 672.0 L 339.7 672.0 L 340.4 672.0 L 341.1 672.0 L 341.8 672.0 L 342.5 672.0 L 343.2 672.0 L 343.8 672.0 L 344.5 672.0 L 345.2 672.0 L 345.9 672.0 L 346.6 672.0 L 347.2 672.0 L 347.9 672.0 L 348.6 672.0 L 349.3 672.0 L 349.9 672.0 L 350.6 672.0 L 351.4 672.0 L 352.0 672.0 L 352.7 672.0 L 353.4 672.0 L 354.1 672.0 L 354.7 672.0 L 355.4 672.0 L 356.1 672.0 L 356.8 672.0 L 357.5 672.0 L 358.2 672.0 L 358.8 672.0 L 359.5 643.8 L 360.2 672.0 L 360.9 672.0 L 361.6 672.0 L 362.3 672.0 L 363.0 672.0 L 363.6 672.0 L 364.3 671.9 L 365.0 672.0 L 365.8 672.0 L 366.4 672.0 L 367.1 672.0 L 367.8 672.0 L 368.5 671.9 L 369.1 672.0 L 369.8 672.0 L 370.5 672.0 L 371.2 672.0 L 371.9 672.0 L 372.5 672.0 L 373.2 672.0 L 373.9 672.0 L 374.6 672.0 L 375.3 672.0 L 375.9 672.0 L 376.6 672.0 L 377.3 672.0 L 378.0 672.0 L 378.6 672.0 L 379.3 672.0 L 380.0 672.0 L 380.7 672.0 L 381.4 672.0 L 382.0 672.0 L 382.7 672.0 L 383.4 672.0 L 384.1 672.0 L 384.8 672.0 L 385.5 672.0 L 386.2 672.0 L 386.8 672.0 L 387.5 672.0 L 388.2 672.0 L 388.8 672.0 L 389.5 672.0 L 390.2 672.0 L 390.9 672.0 L 391.6 672.0 L 392.3 672.0 L 393.0 672.0 L 393.6 672.0 L 394.4 672.0 L 395.0 672.0 L 395.7 672.0 L 396.4 672.0 L 397.1 672.0 L 397.7 672.0 L 398.4 672.0 L 399.2 672.0 L 399.9 672.0 L 400.5 672.0 L 401.2 672.0 L 401.9 671.9 L 402.5 672.0 L 403.2 672.0 L 403.9 672.0 L 404.6 672.0 L 405.3 672.0 L 406.0 672.0 L 406.6 672.0 L 407.3 672.0 L 408.0 672.0 L 408.7 672.0 L 409.4 672.0 L 410.1 672.0 L 410.7 672.0 L 411.4 672.0 L 412.1 672.0 L 412.8 672.0 L 413.5 643.8 L 414.2 672.0 L 414.8 672.0 L 415.5 672.0 L 416.2 672.0 L 416.8 672.0 L 417.5 671.9 L 418.3 671.9 L 418.9 671.9 L 419.6 672.0 L 420.3 672.0 L 421.0 672.0 L 421.6 672.0 L 422.3 672.0 L 423.1 672.0 L 423.7 672.0 L 424.4 672.0 L 425.1 672.0 L 425.7 672.0 L 426.4 672.0 L 427.1 672.0 L 427.8 672.0 L 428.5 672.0 L 429.2 672.0 L 429.8 672.0 L 430.5 672.0 L 431.2 672.0 L 431.8 672.0 L 432.6 672.0 L 433.3 672.0 L 433.9 672.0 L 434.6 672.0 L 435.3 672.0 L 436.0 672.0 L 436.7 672.0 L 437.4 672.0 L 438.1 672.0 L 438.7 672.0 L 439.4 672.0 L 440.1 672.0 L 440.8 672.0 L 441.4 672.0 L 442.2 672.0 L 442.8 672.0 L 443.5 672.0 L 444.2 672.0 L 444.9 672.0 L 445.5 672.0 L 446.2 672.0 L 446.9 672.0 L 447.6 672.0 L 448.3 672.0 L 448.9 672.0 L 449.6 672.0 L 450.3 672.0 L 451.0 672.0 L 451.7 671.9 L 452.4 672.0 L 453.0 672.0 L 453.7 672.0 L 454.4 672.0 L 455.1 672.0 L 455.7 672.0 L 456.4 672.0 L 457.1 672.0 L 457.8 672.0 L 458.4 672.0 L 459.1 672.0 L 459.8 672.0 L 460.5 672.0 L 461.1 672.0 L 461.8 672.0 L 462.5 672.0 L 463.2 672.0 L 463.9 672.0 L 464.6 672.0 L 465.2 672.0 L 465.9 672.0 L 466.6 672.0 L 467.3 672.0 L 468.0 643.8 L 468.6 672.0 L 469.4 672.0 L 470.0 672.0 L 470.7 672.0 L 471.4 671.9 L 472.1 672.0 L 472.8 672.0 L 473.5 672.0 L 474.2 672.0 L 474.8 672.0 L 475.5 672.0 L 476.2 672.0 L 476.9 672.0 L 477.6 672.0 L 478.3 672.0 L 478.9 672.0 L 479.6 672.0 L 480.3 672.0 L 481.0 672.0 L 481.6 672.0 L 482.3 672.0 L 483.0 672.0 L 483.7 672.0 L 484.4 672.0 L 485.0 671.9 L 485.7 671.9 L 486.5 672.0 L 487.1 672.0 L 487.8 672.0 L 488.5 672.0 L 489.2 672.0 L 489.8 672.0 L 490.5 672.0 L 491.2 672.0 L 491.9 672.0 L 492.5 672.0 L 493.2 672.0 L 493.9 672.0 L 494.6 672.0 L 495.2 672.0 L 495.9 672.0 L 496.6 672.0 L 497.3 672.0 L 498.0 672.0 L 498.7 672.0 L 499.3 672.0 L 500.0 672.0 L 500.7 672.0 L 501.4 672.0 L 502.1 672.0 L 502.8 672.0 L 503.5 672.0 L 504.1 672.0 L 504.8 672.0 L 505.5 672.0 L 506.2 672.0 L 506.9 672.0 L 507.6 672.0 L 508.3 672.0 L 508.9 672.0 L 509.6 672.0 L 510.3 672.0 L 511.0 672.0 L 511.7 672.0 L 512.4 672.0 L 513.0 672.0 L 513.7 672.0 L 514.4 672.0 L 515.1 672.0 L 515.8 672.0 L 516.4 672.0 L 517.1 672.0 L 517.8 672.0 L 518.5 671.9 L 519.1 672.0 L 519.8 671.8 L 520.5 671.9 L 521.2 671.9 L 521.9 671.9 L 522.6 671.9 L 523.2 672.0 L 523.9 672.0 L 524.6 672.0 L 525.3 672.0 L 525.9 672.0 L 526.6 672.0 L 527.3 672.0 L 527.9 672.0 L 528.6 672.0 L 529.3 672.0 L 529.9 672.0 L 530.6 672.0 L 532.2 672.0 L 532.9 672.0 L 533.5 672.0 L 534.2 672.0 L 534.9 672.0 L 535.6 672.0 L 536.2 672.0 L 536.9 672.0 L 537.6 672.0 L 538.3 672.0 L 538.9 672.0 L 539.6 672.0 L 540.3 672.0 L 541.0 672.0 L 541.6 672.0 L 542.3 672.0 L 543.0 672.0 L 543.6 672.0 L 544.3 672.0 L 545.0 672.0 L 545.7 672.0 L 546.4 672.0 L 547.0 672.0 L 547.7 672.0 L 548.4 672.0 L 549.0 672.0 L 549.7 672.0 L 550.4 672.0 L 551.1 615.8 L 551.8 563.4 L 552.5 567.0 L 553.3 672.0 L 554.2 672.0 L 554.8 575.6 L 555.5 568.9 L 556.2 566.6 L 557.1 671.9 L 557.7 672.0 L 558.5 671.9 L 559.1 672.0 L 559.8 672.0 L 560.5 672.0 L 561.1 672.0 L 561.8 672.0 L 562.5 672.0 L 563.2 672.0 L 563.8 672.0 L 564.5 672.0 L 565.2 672.0 L 565.9 672.0 L 566.5 672.0 L 567.2 672.0 L 567.9 672.0 L 568.5 672.0 L 569.2 672.0 L 569.9 672.0 L 570.6 672.0 L 571.2 672.0 L 571.9 564.9 L 572.6 568.1 L 573.4 550.6 L 574.1 672.0 L 574.8 672.0 L 575.5 567.6 L 576.2 568.6 L 576.9 566.1 L 577.7 672.0 L 578.4 672.0 L 579.1 567.8 L 579.8 544.2 L 580.5 568.4 L 581.3 672.0 L 582.0 672.0 L 582.7 615.3 L 583.3 564.1 L 584.1 567.8 L 584.8 672.0 L 585.7 672.0 L 586.3 606.0 L 587.0 568.2 L 587.7 549.4 L 588.5 654.5 L 589.2 672.0 L 589.9 614.7 L 590.6 567.1 L 591.3 565.8 L 592.1 637.4 L 592.8 672.0 L 593.5 672.0 L 594.2 671.9 L 594.9 672.0 L 595.5 672.0 L 596.2 671.8 L 596.9 671.9 L 597.6 671.9 L 598.3 671.9 L 599.0 671.9 L 599.7 671.9 L 600.3 671.9 L 601.0 671.9 L 601.7 671.9 L 602.4 671.9 L 603.1 671.9 L 603.8 672.0 L 604.5 672.0 L 605.1 672.0 L 605.8 672.0 L 606.5 672.0 L 607.2 672.0 L 607.8 672.0 L 608.5 672.0 L 609.2 672.0 L 609.8 672.0 L 610.5 672.0 L 611.2 672.0 L 611.9 672.0 L 612.5 672.0 L 613.2 672.0 L 613.9 672.0 L 614.5 672.0 L 615.2 672.0 L 615.9 672.0 L 616.6 672.0 L 617.2 672.0 L 617.9 672.0 L 618.6 672.0 L 619.3 672.0 L 619.9 672.0 L 620.6 672.0 L 621.3 672.0 L 622.0 672.0 L 622.6 672.0 L 623.3 672.0 L 624.0 672.0 L 624.6 672.0 L 625.3 672.0 L 626.0 672.0 L 626.7 672.0 L 627.3 672.0 L 628.0 643.2 L 628.7 567.7 L 629.4 566.5 L 630.3 630.3 L 631.0 671.9 L 631.7 672.0 L 632.4 672.0 L 633.1 672.0 L 633.7 672.0 L 634.4 672.0 L 635.1 672.0 L 635.8 672.0 L 636.5 672.0 L 637.1 672.0 L 637.8 672.0 L 638.5 672.0 L 639.2 672.0 L 639.8 672.0 L 640.5 672.0 L 641.2 672.0 L 641.8 672.0 L 642.5 672.0 L 643.2 672.0 L 643.9 672.0 L 644.6 672.0 L 645.2 672.0 L 645.9 672.0 L 646.6 591.7 L 647.2 566.3 L 648.0 567.6 L 648.7 672.0 L 649.5 672.0 L 650.1 610.0 L 650.8 566.1 L 651.6 508.4 L 652.5 672.0 L 653.2 672.0 L 653.9 607.9 L 654.5 548.1 L 655.3 567.0 L 656.1 660.6 L 656.8 672.0 L 657.5 618.9 L 658.2 566.3 L 659.0 567.7 L 659.7 661.2 L 660.5 672.0 L 661.2 624.1 L 661.8 567.4 L 662.6 529.8 L 663.4 648.9 L 664.1 672.0 L 664.8 629.9 L 665.5 567.3 L 666.2 567.7 L 667.0 619.7 L 667.7 672.0 L 668.4 664.4 L 669.1 555.8 L 669.9 558.2 L 670.7 617.9 L 671.4 672.0 L 672.1 672.0 L 672.8 672.0 L 673.4 672.0 L 674.1 672.0 L 674.8 672.0 L 675.5 672.0 L 676.1 671.8 L 676.8 671.9 L 677.5 671.9 L 678.2 671.9 L 678.8 671.9 L 679.5 671.9 L 680.2 671.9 L 680.9 671.9 L 681.5 671.9 L 682.2 671.9 L 682.9 671.9 L 683.6 672.0 L 684.3 672.0 L 684.9 672.0 L 685.6 672.0 L 686.3 672.0 L 687.0 672.0 L 687.6 672.0 L 688.3 672.0 L 689.0 672.0 L 689.6 672.0 L 690.3 672.0 L 691.0 672.0 L 691.7 672.0 L 692.3 672.0 L 693.0 672.0 L 693.7 672.0 L 694.4 672.0 L 695.0 672.0 L 695.7 672.0 L 696.4 672.0 L 697.1 672.0 L 697.7 672.0 L 698.4 672.0 L 699.1 672.0 L 699.8 672.0 L 700.4 672.0 L 701.1 672.0 L 701.8 672.0 L 702.5 672.0 L 703.1 672.0 L 703.8 672.0 L 704.5 672.0 L 705.2 672.0 L 705.8 672.0 L 706.5 672.0 L 707.2 672.0 L 707.8 672.0 L 708.5 672.0 L 709.2 672.0 L 709.9 567.2 L 710.5 550.8 L 711.3 567.7 L 712.0 671.9 L 712.7 672.0 L 713.4 672.0 L 714.1 672.0 L 714.7 672.0 L 715.4 672.0 L 716.1 672.0 L 716.7 672.0 L 717.4 672.0 L 718.1 672.0 L 718.8 672.0 L 719.4 672.0 L 720.1 672.0 L 720.8 672.0 L 721.4 672.0 L 722.1 672.0 L 722.8 672.0 L 723.5 672.0 L 724.1 672.0 L 724.8 672.0 L 725.5 672.0 L 726.2 672.0 L 726.8 672.0 L 727.5 672.0 L 728.2 567.2 L 729.0 567.4 L 729.7 565.4 L 730.5 672.0 L 731.1 672.0 L 731.8 618.5 L 732.5 568.3 L 733.2 567.6 L 734.0 614.5 L 734.7 672.0 L 735.3 672.0 L 736.0 520.7 L 736.9 568.3 L 737.7 606.2 L 738.4 672.0 L 739.0 672.0 L 739.7 566.5 L 740.4 568.1 L 741.1 565.8 L 741.9 672.0 L 742.6 672.0 L 743.3 568.5 L 744.0 563.9 L 744.7 568.0 L 745.4 672.0 L 746.1 672.0 L 746.8 570.0 L 747.5 567.1 L 748.3 568.2 L 749.0 672.0 L 749.7 672.0 L 750.4 601.8 L 751.1 568.1 L 751.8 534.4 L 752.6 662.4 L 753.3 671.9 L 754.0 672.0 L 754.7 672.0 L 755.4 672.0 L 756.0 672.0 L 756.7 672.0 L 757.4 672.0 L 758.1 671.9 L 758.8 671.9 L 759.4 671.9 L 760.1 671.9 L 760.8 671.9 L 761.5 671.9 L 762.2 671.9 L 762.8 671.9 L 763.5 671.9 L 764.2 671.9 L 764.9 671.9 L 765.5 672.0 L 766.2 672.0 L 766.9 672.0 L 767.6 672.0 L 768.2 672.0 L 768.9 672.0 L 769.6 672.0 L 770.2 672.0 L 770.9 672.0 L 771.6 672.0 L 772.3 672.0 L 772.9 672.0 L 773.6 672.0 L 774.3 672.0 L 775.0 672.0 L 775.6 672.0 L 776.3 672.0 L 777.0 672.0 L 777.7 672.0 L 778.3 672.0 L 779.0 672.0 L 779.7 672.0 L 780.3 672.0 L 781.0 672.0 L 781.7 672.0 L 782.4 672.0 L 783.1 672.0 L 783.7 672.0 L 784.4 672.0 L 785.1 672.0 L 785.7 672.0 L 786.4 672.0 L 787.1 672.0 L 787.8 672.0 L 788.4 672.0 L 789.1 672.0 L 789.8 672.0 L 790.4 672.0 L 791.1 672.0 L 791.8 672.0 L 792.5 568.4 L 793.1 532.2 L 794.0 569.6 L 794.8 671.9 L 795.5 672.0 L 796.2 672.0 L 796.9 672.0 L 797.6 672.0 L 798.2 672.0 L 798.9 672.0 L 799.6 672.0 L 800.2 672.0 L 800.9 672.0 L 801.6 672.0 L 802.3 672.0 L 802.9 672.0 L 803.6 672.0 L 804.3 672.0 L 804.9 672.0 L 805.6 672.0 L 806.3 672.0 L 806.9 672.0 L 807.6 672.0 L 808.3 672.0 L 809.0 672.0 L 809.6 672.0 L 810.3 672.0 L 811.0 577.8 L 811.7 567.5 L 812.4 551.2 L 813.1 654.5 L 813.9 672.0 L 814.5 628.8 L 815.2 567.1 L 815.9 565.5 L 816.7 587.4 L 817.4 672.0 L 818.1 672.0 L 818.7 552.6 L 819.6 567.0 L 820.4 573.3 L 821.1 672.0 L 821.8 672.0 L 822.4 567.9 L 823.1 567.5 L 823.9 566.1 L 824.7 672.0 L 825.4 672.0 L 826.1 568.3 L 826.8 555.2 L 827.5 568.7 L 828.3 672.0 L 828.9 672.0 L 829.6 582.8 L 830.3 566.4 L 831.1 567.3 L 831.8 665.8 L 832.6 672.0 L 833.2 616.7 L 833.9 567.1 L 834.6 539.2 L 835.4 640.4 L 836.2 671.9 L 836.9 672.0 L 837.6 672.0 L 838.3 672.0 L 838.9 672.0 L 839.6 672.0 L 840.3 672.0 L 841.0 671.9 L 841.6 671.9 L 842.4 671.9 L 843.1 671.9 L 843.7 671.9 L 844.4 671.9 L 845.1 671.9 L 845.8 671.9 L 846.4 671.9 L 847.1 671.9 L 847.8 671.9 L 848.5 672.0 L 849.2 672.0 L 849.8 672.0 L 850.5 672.0 L 851.2 672.0 L 851.9 672.0 L 852.5 672.0 L 853.2 672.0 L 853.9 672.0 L 854.6 672.0 L 855.2 672.0 L 855.9 672.0 L 856.6 672.0 L 857.2 672.0 L 857.9 672.0 L 858.6 672.0 L 859.3 672.0 L 859.9 672.0 L 860.6 672.0 L 861.3 672.0 L 861.9 672.0 L 862.6 672.0 L 863.3 672.0 L 864.0 672.0 L 864.7 672.0 L 865.3 672.0 L 866.0 672.0 L 866.7 672.0 L 867.4 672.0 L 868.0 672.0 L 868.7 672.0 L 869.4 672.0 L 870.0 672.0 L 870.7 672.0 L 871.4 672.0 L 872.1 672.0 L 872.7 610.2 L 873.4 568.0 L 874.1 566.7 L 874.8 643.8 L 875.6 671.9 L 876.3 671.9 L 876.9 671.9 L 877.6 671.9 L 878.3 672.0 L 879.0 672.0 L 879.7 672.0 L 880.4 672.0 L 881.0 672.0 L 881.7 672.0 L 882.4 672.0 L 883.0 672.0 L 883.7 672.0 L 884.4 672.0 L 885.1 672.0 L 885.7 672.0 L 886.4 672.0 L 887.1 672.0 L 887.8 672.0 L 888.4 672.0 L 889.1 672.0 L 889.8 672.0 L 890.4 672.0 L 891.1 672.0 L 891.8 672.0 L 892.5 672.0 L 893.1 672.0 L 893.8 672.0 L 894.5 672.0 L 895.1 672.0 L 895.8 672.0 L 896.5 672.0 L 897.2 672.0 L 897.8 672.0 L 898.5 672.0 L 899.2 672.0 L 899.8 672.0 L 900.5 672.0 L 901.2 672.0 L 901.9 672.0 L 902.5 601.8 L 903.2 534.5 L 904.1 567.9 L 904.9 671.9 L 905.6 671.9 L 906.3 671.9 L 907.0 671.9 L 907.7 671.9 L 908.4 672.0 L 909.0 672.0 L 909.7 672.0 L 910.4 672.0 L 911.1 672.0 L 911.7 672.0 L 912.4 672.0 L 913.1 672.0 L 913.7 672.0 L 914.4 672.0 L 915.1 672.0 L 915.8 672.0 L 916.4 672.0 L 917.1 672.0 L 917.8 672.0 L 918.5 672.0 L 919.1 672.0 L 919.8 672.0 L 920.5 672.0 L 921.1 672.0 L 921.8 672.0 L 922.5 672.0 L 923.2 672.0 L 923.8 672.0 L 924.5 672.0 L 925.2 672.0 L 925.9 672.0 L 926.5 672.0 L 927.2 672.0 L 927.9 672.0 L 928.6 672.0 L 929.3 672.0 L 929.9 672.0 L 930.6 672.0 L 931.3 672.0 L 932.0 672.0 L 932.6 568.0 L 933.3 567.2 L 934.0 568.1 L 934.8 671.9 L 935.5 671.9 L 936.1 671.9 L 936.8 671.9 L 937.5 671.9 L 938.2 672.0 L 938.8 672.0 L 939.6 672.0 L 940.3 672.0 L 940.9 672.0 L 941.6 672.0 L 942.3 672.0 L 942.9 672.0 L 943.6 672.0 L 944.3 672.0 L 945.0 672.0 L 945.6 672.0 L 946.3 672.0 L 947.0 672.0 L 947.7 672.0 L 948.3 672.0 L 949.0 672.0 L 949.7 672.0 L 950.4 672.0 L 951.0 672.0 L 951.7 672.0 L 952.4 672.0 L 953.1 672.0 L 953.7 672.0 L 954.4 672.0 L 955.1 672.0 L 955.7 672.0 L 956.4 672.0 L 957.1 672.0 L 957.8 672.0 L 958.4 672.0 L 959.1 672.0 L 959.8 672.0 L 960.4 672.0 L 961.1 672.0 L 961.8 672.0 L 962.5 566.2 L 963.3 567.2 L 964.0 614.1 L 964.8 671.9 L 965.5 671.9 L 966.2 671.9 L 966.9 671.9 L 967.6 672.0 L 968.3 672.0 L 968.9 672.0 L 969.6 672.0 L 970.3 672.0 L 970.9 672.0 L 971.6 672.0 L 972.3 672.0 L 973.0 672.0 L 973.6 672.0 L 974.3 672.0 L 975.0 672.0 L 975.7 672.0 L 976.3 672.0 L 977.0 672.0 L 977.7 672.0 L 978.3 672.0 L 979.0 672.0 L 979.7 672.0 L 980.3 672.0 L 981.0 672.0 L 981.7 672.0 L 982.4 672.0 L 983.0 672.0 L 983.7 672.0 L 984.4 672.0 L 985.0 672.0 L 985.7 672.0 L 986.4 672.0 L 987.1 672.0 L 987.8 672.0 L 988.4 672.0 L 989.1 672.0 L 989.8 672.0 L 990.4 672.0 L 991.1 672.0 L 991.8 612.7 L 992.5 566.5 L 993.2 566.9 L 993.9 637.3 L 994.7 671.9 L 995.4 671.9 L 996.1 671.9 L 996.7 671.9 L 997.4 672.0 L 998.1 672.0 L 998.8 672.0 L 999.4 672.0 L 1000.1 672.0 L 1000.8 672.0 L 1001.5 672.0 L 1002.1 672.0 L 1002.8 672.0 L 1003.5 672.0 L 1004.1 672.0 L 1004.8 672.0 L 1005.5 672.0 L 1006.2 672.0 L 1006.8 672.0 L 1007.5 672.0 L 1008.2 672.0 L 1008.8 672.0 L 1009.5 672.0 L 1010.2 672.0 L 1010.8 672.0 L 1011.5 672.0 L 1012.2 672.0 L 1012.9 672.0 L 1013.6 672.0 L 1014.2 672.0 L 1014.9 672.0 L 1015.6 672.0 L 1016.2 672.0 L 1016.9 672.0 L 1017.6 672.0 L 1018.3 672.0 L 1018.9 672.0 L 1019.6 672.0 L 1020.3 672.0 L 1021.0 672.0 L 1021.6 590.3 L 1022.3 568.1 L 1023.0 565.7 L 1023.8 671.9 L 1024.5 671.9 L 1025.2 671.9 L 1025.9 671.9 L 1026.6 671.9 L 1027.3 672.0 L 1027.9 672.0 L 1028.6 672.0 L 1029.3 672.0 L 1029.9 672.0 L 1030.6 672.0 L 1031.3 672.0 L 1031.9 672.0 L 1032.6 672.0 L 1033.3 672.0 L 1034.0 672.0 L 1034.6 672.0 L 1035.3 672.0 L 1036.0 672.0 L 1036.6 672.0 L 1037.3 672.0 L 1038.0 672.0 L 1038.7 672.0 L 1039.4 672.0 L 1040.0 672.0 L 1040.7 672.0 L 1041.4 672.0 L 1042.0 672.0 L 1042.8 672.0 L 1043.4 672.0 L 1044.1 672.0 L 1044.8 672.0 L 1045.5 672.0 L 1046.1 672.0 L 1046.8 672.0 L 1047.5 672.0 L 1048.1 672.0 L 1048.8 672.0 L 1049.5 672.0 L 1050.2 672.0 L 1050.9 672.0 L 1051.5 567.3 L 1052.2 568.1 L 1052.9 545.7 L 1053.7 671.9 L 1054.4 671.9 L 1055.1 671.9 L 1055.8 671.9 L 1056.5 671.9 L 1057.2 672.0 L 1057.8 672.0 L 1058.5 672.0 L 1059.2 672.0 L 1059.9 672.0 L 1060.5 672.0 L 1061.2 672.0 L 1061.9 672.0 L 1062.6 672.0 L 1063.2 672.0 L 1063.9 672.0 L 1064.6 672.0 L 1065.3 672.0 L 1065.9 672.0 L 1066.6 672.0 L 1067.3 672.0 L 1067.9 672.0 L 1068.6 672.0 L 1069.3 672.0 L 1069.9 672.0 L 1070.6 672.0 L 1071.3 672.0 L 1072.0 672.0 L 1072.6 672.0 L 1073.3 672.0 L 1074.0 672.0 L 1074.7 672.0 L 1075.3 672.0 L 1076.0 672.0" fill="none" stroke="#F58518" stroke-width="2.8" stroke-linejoin="round" stroke-linecap="round"/>
<line x1="86.0" y1="68.0" x2="86.0" y2="672.0" stroke="#f2f2f2" stroke-width="1"/>
<text x="86.0" y="802" text-anchor="middle" font-size="12" fill="#444" font-family="Helvetica, Arial, sans-serif">0.0</text>
<line x1="251.0" y1="68.0" x2="251.0" y2="672.0" stroke="#f2f2f2" stroke-width="1"/>
<text x="251.0" y="802" text-anchor="middle" font-size="12" fill="#444" font-family="Helvetica, Arial, sans-serif">10.4</text>
<line x1="416.0" y1="68.0" x2="416.0" y2="672.0" stroke="#f2f2f2" stroke-width="1"/>
<text x="416.0" y="802" text-anchor="middle" font-size="12" fill="#444" font-family="Helvetica, Arial, sans-serif">20.7</text>
<line x1="581.0" y1="68.0" x2="581.0" y2="672.0" stroke="#f2f2f2" stroke-width="1"/>
<text x="581.0" y="802" text-anchor="middle" font-size="12" fill="#444" font-family="Helvetica, Arial, sans-serif">31.1</text>
<line x1="746.0" y1="68.0" x2="746.0" y2="672.0" stroke="#f2f2f2" stroke-width="1"/>
<text x="746.0" y="802" text-anchor="middle" font-size="12" fill="#444" font-family="Helvetica, Arial, sans-serif">41.4</text>
<line x1="911.0" y1="68.0" x2="911.0" y2="672.0" stroke="#f2f2f2" stroke-width="1"/>
<text x="911.0" y="802" text-anchor="middle" font-size="12" fill="#444" font-family="Helvetica, Arial, sans-serif">51.8</text>
<line x1="1076.0" y1="68.0" x2="1076.0" y2="672.0" stroke="#f2f2f2" stroke-width="1"/>
<text x="1076.0" y="802" text-anchor="middle" font-size="12" fill="#444" font-family="Helvetica, Arial, sans-serif">62.2</text>
<text x="581.0" y="818" text-anchor="middle" font-size="16" fill="#222" font-family="Helvetica, Arial, sans-serif">time since first request submit (s)</text>
<rect x="850" y="44" width="220" height="70" rx="8" fill="#fff" stroke="#ddd"/>
<rect x="862" y="58" width="16" height="12" fill="#4C78A8" opacity="0.35"/>
<text x="890" y="68" font-size="13" fill="#333" font-family="Helvetica, Arial, sans-serif">seed</text>
<rect x="862" y="80" width="16" height="12" fill="#F58518" opacity="0.35"/>
<text x="890" y="90" font-size="13" fill="#333" font-family="Helvetica, Arial, sans-serif">reuse</text>
</svg>