<svg xmlns="http://www.w3.org/2000/svg" width="1100" height="420" viewBox="0 0 1100 420">
<rect width="1100" height="420" fill="white"/>
<text x="86" y="26" font-size="24" font-weight="700" font-family="Helvetica, Arial, sans-serif">PCIe TX Timeline: pd_external_prefix_terminalbench_qwen3_8b_s8</text>
<line x1="86" y1="366.0" x2="1076" y2="366.0" stroke="#ececec" stroke-width="1"/>
<text x="76" y="370.0" text-anchor="end" font-size="12" fill="#444" font-family="Helvetica, Arial, sans-serif">0.0</text>
<line x1="86" y1="301.6" x2="1076" y2="301.6" stroke="#ececec" stroke-width="1"/>
<text x="76" y="305.6" text-anchor="end" font-size="12" fill="#444" font-family="Helvetica, Arial, sans-serif">3.4</text>
<line x1="86" y1="237.2" x2="1076" y2="237.2" stroke="#ececec" stroke-width="1"/>
<text x="76" y="241.2" text-anchor="end" font-size="12" fill="#444" font-family="Helvetica, Arial, sans-serif">6.8</text>
<line x1="86" y1="172.8" x2="1076" y2="172.8" stroke="#ececec" stroke-width="1"/>
<text x="76" y="176.8" text-anchor="end" font-size="12" fill="#444" font-family="Helvetica, Arial, sans-serif">10.2</text>
<line x1="86" y1="108.4" x2="1076" y2="108.4" stroke="#ececec" stroke-width="1"/>
<text x="76" y="112.4" text-anchor="end" font-size="12" fill="#444" font-family="Helvetica, Arial, sans-serif">13.6</text>
<line x1="86" y1="44.0" x2="1076" y2="44.0" stroke="#ececec" stroke-width="1"/>
<text x="76" y="48.0" text-anchor="end" font-size="12" fill="#444" font-family="Helvetica, Arial, sans-serif">17.0</text>
<line x1="86" y1="366.0" x2="1076" y2="366.0" stroke="#222" stroke-width="1.4"/>
<line x1="86" y1="44.0" x2="86" y2="366.0" stroke="#222" stroke-width="1.4"/>
<text x="24" y="205.0" text-anchor="middle" font-size="15" fill="#222" font-family="Helvetica, Arial, sans-serif" transform="rotate(-90 24,205.0)">TX GiB/s</text>
<rect x="86.0" y="44.0" width="72.6" height="322.0" fill="#4C78A8" opacity="0.08"/>
<rect x="158.7" y="44.0" width="384.4" height="322.0" fill="#F58518" opacity="0.08"/>
<rect x="158.8" y="44.0" width="384.4" height="322.0" fill="#F58518" opacity="0.08"/>
<rect x="158.8" y="44.0" width="384.3" height="322.0" fill="#F58518" opacity="0.08"/>
<rect x="158.8" y="44.0" width="384.3" height="322.0" fill="#F58518" opacity="0.08"/>
<rect x="158.9" y="44.0" width="384.3" height="322.0" fill="#F58518" opacity="0.08"/>
<rect x="158.9" y="44.0" width="384.2" height="322.0" fill="#F58518" opacity="0.08"/>
<rect x="158.9" y="44.0" width="384.2" height="322.0" fill="#F58518" opacity="0.08"/>
<rect x="158.9" y="44.0" width="384.2" height="322.0" fill="#F58518" opacity="0.08"/>
<rect x="543.4" y="44.0" width="79.9" height="322.0" fill="#F58518" opacity="0.08"/>
<rect x="543.5" y="44.0" width="79.9" height="322.0" fill="#F58518" opacity="0.08"/>
<rect x="543.5" y="44.0" width="79.9" height="322.0" fill="#F58518" opacity="0.08"/>
<rect x="543.5" y="44.0" width="79.8" height="322.0" fill="#F58518" opacity="0.08"/>
<rect x="543.5" y="44.0" width="79.8" height="322.0" fill="#F58518" opacity="0.08"/>
<rect x="543.6" y="44.0" width="79.8" height="322.0" fill="#F58518" opacity="0.08"/>
<rect x="543.6" y="44.0" width="79.8" height="322.0" fill="#F58518" opacity="0.08"/>
<rect x="543.6" y="44.0" width="79.8" height="322.0" fill="#F58518" opacity="0.08"/>
<rect x="623.7" y="44.0" width="79.6" height="322.0" fill="#F58518" opacity="0.08"/>
<rect x="623.7" y="44.0" width="79.5" height="322.0" fill="#F58518" opacity="0.08"/>
<rect x="623.8" y="44.0" width="79.5" height="322.0" fill="#F58518" opacity="0.08"/>
<rect x="623.8" y="44.0" width="79.5" height="322.0" fill="#F58518" opacity="0.08"/>
<rect x="623.8" y="44.0" width="79.5" height="322.0" fill="#F58518" opacity="0.08"/>
<rect x="623.8" y="44.0" width="79.5" height="322.0" fill="#F58518" opacity="0.08"/>
<rect x="623.8" y="44.0" width="79.4" height="322.0" fill="#F58518" opacity="0.08"/>
<rect x="623.9" y="44.0" width="79.4" height="322.0" fill="#F58518" opacity="0.08"/>
<rect x="703.7" y="44.0" width="81.6" height="322.0" fill="#F58518" opacity="0.08"/>
<rect x="703.7" y="44.0" width="81.6" height="322.0" fill="#F58518" opacity="0.08"/>
<rect x="703.7" y="44.0" width="81.6" height="322.0" fill="#F58518" opacity="0.08"/>
<rect x="703.7" y="44.0" width="81.6" height="322.0" fill="#F58518" opacity="0.08"/>
<rect x="703.7" y="44.0" width="81.5" height="322.0" fill="#F58518" opacity="0.08"/>
<rect x="703.8" y="44.0" width="81.5" height="322.0" fill="#F58518" opacity="0.08"/>
<rect x="703.8" y="44.0" width="81.5" height="322.0" fill="#F58518" opacity="0.08"/>
<rect x="703.8" y="44.0" width="81.5" height="322.0" fill="#F58518" opacity="0.08"/>
<rect x="785.7" y="44.0" width="82.5" height="322.0" fill="#F58518" opacity="0.08"/>
<rect x="785.7" y="44.0" width="82.5" height="322.0" fill="#F58518" opacity="0.08"/>
<rect x="785.7" y="44.0" width="82.5" height="322.0" fill="#F58518" opacity="0.08"/>
<rect x="785.7" y="44.0" width="82.4" height="322.0" fill="#F58518" opacity="0.08"/>
<rect x="785.8" y="44.0" width="82.4" height="322.0" fill="#F58518" opacity="0.08"/>
<rect x="785.8" y="44.0" width="82.4" height="322.0" fill="#F58518" opacity="0.08"/>
<rect x="785.8" y="44.0" width="82.4" height="322.0" fill="#F58518" opacity="0.08"/>
<rect x="785.8" y="44.0" width="82.4" height="322.0" fill="#F58518" opacity="0.08"/>
<rect x="868.6" y="44.0" width="29.7" height="322.0" fill="#4C78A8" opacity="0.08"/>
<rect x="898.7" y="44.0" width="29.4" height="322.0" fill="#4C78A8" opacity="0.08"/>
<rect x="928.5" y="44.0" width="29.4" height="322.0" fill="#4C78A8" opacity="0.08"/>
<rect x="958.2" y="44.0" width="29.4" height="322.0" fill="#4C78A8" opacity="0.08"/>
<rect x="988.0" y="44.0" width="29.4" height="322.0" fill="#4C78A8" opacity="0.08"/>
<rect x="1017.8" y="44.0" width="29.4" height="322.0" fill="#4C78A8" opacity="0.08"/>
<rect x="1047.5" y="44.0" width="29.4" height="322.0" fill="#4C78A8" opacity="0.08"/>
<path d="M 86.4 366.0 L 87.1 366.0 L 87.8 365.9 L 88.5 365.9 L 89.2 365.9 L 89.8 119.6 L 90.5 365.9 L 91.2 365.9 L 92.0 365.9 L 92.7 73.6 L 93.4 365.9 L 94.0 365.9 L 94.7 365.9 L 95.4 365.9 L 96.1 274.3 L 96.8 366.0 L 97.4 365.9 L 98.1 366.0 L 98.8 366.0 L 99.5 211.0 L 100.1 365.9 L 100.8 365.9 L 101.5 365.9 L 102.2 365.8 L 102.8 176.2 L 103.5 365.9 L 104.2 365.9 L 104.9 365.9 L 105.6 365.9 L 106.2 365.9 L 106.9 73.3 L 108.1 365.9 L 108.8 365.9 L 109.5 366.0 L 110.2 365.9 L 110.9 366.0 L 111.5 366.0 L 112.2 366.0 L 112.9 366.0 L 113.6 365.9 L 114.3 366.0 L 115.0 365.9 L 115.7 98.0 L 116.3 366.0 L 117.0 365.9 L 117.7 366.0 L 118.3 365.9 L 119.1 365.9 L 119.8 365.9 L 120.5 351.8 L 121.2 366.0 L 121.9 366.0 L 122.5 366.0 L 123.3 366.0 L 123.9 366.0 L 124.6 366.0 L 125.3 73.6 L 125.9 366.0 L 126.6 366.0 L 127.3 366.0 L 128.0 366.0 L 128.6 366.0 L 129.3 366.0 L 130.0 366.0 L 130.7 366.0 L 131.4 366.0 L 132.0 366.0 L 132.7 366.0 L 133.4 366.0 L 134.1 365.9 L 134.7 365.9 L 135.4 365.8 L 136.1 365.7 L 136.8 365.8 L 137.5 365.8 L 138.1 365.8 L 138.8 365.8 L 139.5 366.0 L 140.2 366.0 L 140.9 366.0 L 141.5 366.0 L 142.2 365.8 L 143.3 366.0 L 144.0 366.0 L 144.7 366.0 L 145.4 365.7 L 146.6 366.0 L 147.3 366.0 L 147.9 366.0 L 148.6 366.0 L 149.3 366.0 L 150.0 366.0 L 150.6 366.0 L 151.3 365.9 L 152.0 365.9 L 152.6 366.0 L 153.3 366.0 L 154.0 366.0 L 154.7 366.0 L 155.4 366.0 L 156.0 366.0 L 156.7 366.0 L 157.4 366.0 L 158.0 366.0 L 158.7 366.0 L 159.4 366.0 L 160.1 366.0 L 160.7 366.0 L 161.4 366.0 L 162.1 366.0 L 162.7 362.9 L 163.5 305.5 L 164.2 306.1 L 164.9 316.1 L 165.6 365.9 L 166.3 356.6 L 167.0 365.9 L 167.7 365.9 L 168.3 365.9 L 169.0 365.8 L 169.7 110.1 L 170.4 365.9 L 171.9 365.9 L 172.6 365.9 L 173.3 78.3 L 173.9 365.9 L 174.6 365.9 L 175.3 365.9 L 176.0 365.9 L 176.6 362.6 L 177.4 365.9 L 178.0 365.9 L 178.7 365.9 L 179.4 365.9 L 180.1 365.9 L 180.7 150.2 L 181.4 365.9 L 182.1 365.9 L 182.8 365.9 L 183.5 365.9 L 184.2 365.9 L 184.8 216.0 L 185.5 365.9 L 186.2 365.9 L 187.0 365.9 L 187.6 365.9 L 188.3 365.9 L 189.0 365.9 L 189.7 366.0 L 190.3 365.9 L 191.0 365.9 L 191.7 365.9 L 192.4 365.9 L 193.1 365.9 L 193.7 365.9 L 194.4 365.9 L 195.1 365.9 L 195.8 365.9 L 196.5 365.9 L 197.1 365.9 L 197.8 365.9 L 198.5 366.0 L 199.2 366.0 L 199.9 365.9 L 200.5 365.9 L 201.2 365.9 L 201.9 365.9 L 202.6 365.9 L 203.3 366.0 L 204.0 76.0 L 204.6 366.0 L 205.3 366.0 L 206.0 365.9 L 206.7 365.9 L 207.4 365.9 L 208.0 366.0 L 208.7 366.0 L 209.4 247.9 L 210.0 366.0 L 210.7 365.9 L 211.4 366.0 L 212.1 365.9 L 212.8 366.0 L 213.4 366.0 L 214.1 365.9 L 214.8 328.1 L 215.5 365.9 L 216.1 365.9 L 216.8 365.9 L 217.5 272.4 L 218.2 365.9 L 218.9 365.8 L 219.6 365.9 L 220.2 365.9 L 220.9 312.9 L 221.6 365.9 L 222.4 365.9 L 223.0 365.9 L 223.7 365.9 L 224.4 365.9 L 225.0 365.9 L 225.7 365.9 L 226.4 365.9 L 227.1 365.9 L 227.8 365.9 L 228.5 299.2 L 229.1 365.9 L 229.9 365.9 L 230.6 365.9 L 231.3 365.9 L 231.9 365.9 L 232.6 283.6 L 233.3 365.9 L 234.0 365.9 L 234.6 365.9 L 235.3 365.8 L 236.0 365.8 L 236.7 365.9 L 237.4 366.0 L 238.1 365.9 L 238.8 365.9 L 239.4 365.9 L 240.1 365.9 L 240.8 365.9 L 241.5 167.4 L 242.2 365.9 L 242.8 365.9 L 243.5 365.9 L 244.2 365.9 L 244.9 365.9 L 245.5 365.9 L 246.2 73.6 L 246.9 365.9 L 247.6 366.0 L 248.3 365.9 L 248.9 365.9 L 249.6 365.9 L 250.3 365.9 L 251.0 206.3 L 251.7 365.9 L 252.4 365.9 L 253.1 366.0 L 253.7 365.9 L 254.4 366.0 L 255.1 365.9 L 255.8 366.0 L 256.5 226.9 L 257.2 366.0 L 257.8 366.0 L 258.5 365.9 L 259.2 366.0 L 259.9 365.9 L 260.6 366.0 L 261.3 366.0 L 262.0 366.0 L 262.6 366.0 L 263.3 365.9 L 264.0 366.0 L 264.7 365.9 L 265.4 366.0 L 266.1 366.0 L 266.7 366.0 L 267.4 250.0 L 268.1 365.9 L 268.7 364.5 L 269.5 365.8 L 270.2 365.9 L 270.8 365.9 L 271.5 365.9 L 272.2 271.4 L 272.9 365.9 L 273.5 365.9 L 274.2 365.9 L 274.9 365.9 L 275.6 271.2 L 276.3 365.9 L 276.9 365.9 L 277.6 365.9 L 278.3 365.9 L 279.0 365.9 L 279.7 142.0 L 280.4 365.9 L 281.0 365.9 L 281.7 365.9 L 282.4 365.9 L 283.1 365.9 L 283.7 144.3 L 284.4 365.9 L 285.1 365.9 L 285.8 365.8 L 286.5 365.9 L 287.1 365.9 L 287.8 365.9 L 288.5 365.9 L 289.2 366.0 L 289.8 365.9 L 290.5 365.9 L 291.2 366.0 L 291.9 365.9 L 292.6 243.3 L 293.2 365.9 L 293.9 365.9 L 294.6 365.9 L 295.3 365.9 L 296.0 366.0 L 296.7 365.9 L 297.4 177.0 L 298.0 365.9 L 298.7 366.0 L 299.4 366.0 L 300.2 365.9 L 300.8 366.0 L 301.5 365.9 L 302.2 365.8 L 302.9 365.8 L 303.6 365.9 L 304.3 366.0 L 304.9 366.0 L 305.6 365.9 L 306.3 365.9 L 307.0 366.0 L 307.6 94.6 L 308.4 366.0 L 309.0 366.0 L 309.7 366.0 L 310.4 366.0 L 311.1 365.9 L 311.7 366.0 L 312.4 365.9 L 313.1 84.1 L 313.8 366.0 L 314.6 352.0 L 315.2 365.9 L 315.9 365.9 L 316.6 365.9 L 317.3 365.9 L 318.0 365.9 L 318.6 357.9 L 319.3 365.9 L 320.0 365.9 L 320.7 365.9 L 321.3 365.9 L 322.0 73.6 L 322.7 365.9 L 323.4 365.9 L 324.1 365.9 L 324.7 365.9 L 325.4 365.9 L 326.1 194.6 L 326.8 365.9 L 327.5 365.9 L 328.2 365.9 L 328.9 365.9 L 329.5 365.9 L 330.2 208.5 L 330.9 365.9 L 331.6 365.9 L 332.3 365.9 L 332.9 365.9 L 333.6 365.9 L 334.3 171.2 L 335.0 365.9 L 335.7 365.8 L 336.3 365.9 L 337.0 365.9 L 337.7 365.9 L 338.4 365.9 L 339.1 73.6 L 339.7 365.9 L 340.4 365.9 L 341.1 365.9 L 341.8 365.9 L 342.5 365.9 L 343.2 366.0 L 343.8 162.0 L 344.5 365.9 L 345.2 366.0 L 345.9 365.9 L 346.6 366.0 L 347.2 366.0 L 347.9 366.0 L 348.6 73.6 L 349.3 365.9 L 349.9 365.9 L 350.6 365.9 L 351.4 365.9 L 352.0 365.8 L 352.7 365.9 L 353.4 365.9 L 354.1 365.9 L 354.7 366.0 L 355.4 365.9 L 356.1 366.0 L 356.8 366.0 L 357.5 366.0 L 358.2 366.0 L 358.8 365.9 L 359.5 366.0 L 360.2 365.9 L 360.9 366.0 L 361.6 366.0 L 362.3 366.0 L 363.0 366.0 L 363.6 366.0 L 364.3 366.0 L 365.0 278.1 L 365.8 365.9 L 366.4 365.9 L 367.1 365.9 L 367.8 365.9 L 368.5 365.8 L 369.1 365.8 L 369.8 365.9 L 370.5 365.9 L 371.2 365.9 L 371.9 186.0 L 372.5 365.9 L 373.2 365.9 L 373.9 365.9 L 374.6 365.9 L 375.3 330.5 L 375.9 365.9 L 376.6 365.9 L 377.3 365.9 L 378.0 365.9 L 378.6 365.9 L 379.3 272.7 L 380.0 365.9 L 380.7 365.9 L 381.4 365.9 L 382.0 365.9 L 382.7 365.9 L 383.4 365.9 L 384.1 365.9 L 384.8 365.9 L 385.5 365.8 L 386.2 365.9 L 386.8 365.9 L 387.5 365.9 L 388.2 95.2 L 388.8 365.9 L 389.5 365.9 L 390.2 365.9 L 390.9 365.9 L 391.6 366.0 L 392.3 365.9 L 393.0 366.0 L 393.6 365.9 L 394.4 365.9 L 395.0 365.9 L 395.7 366.0 L 396.4 365.9 L 397.1 365.9 L 397.7 365.9 L 398.4 365.9 L 399.2 366.0 L 399.9 365.9 L 400.5 365.9 L 401.2 365.9 L 401.9 365.8 L 402.5 167.7 L 403.2 365.9 L 403.9 366.0 L 404.6 366.0 L 405.3 365.9 L 406.0 365.9 L 406.6 365.9 L 407.3 366.0 L 408.0 365.9 L 408.7 366.0 L 409.4 366.0 L 410.1 366.0 L 410.7 366.0 L 411.4 365.9 L 412.1 366.0 L 412.8 366.0 L 413.5 366.0 L 414.2 365.9 L 414.8 366.0 L 415.5 366.0 L 416.2 365.9 L 416.8 366.0 L 417.5 365.9 L 418.3 275.0 L 418.9 365.9 L 419.6 365.9 L 420.3 365.9 L 421.0 365.9 L 421.6 206.4 L 422.3 365.9 L 423.1 365.9 L 423.7 365.9 L 424.4 365.9 L 425.1 143.9 L 425.7 365.9 L 426.4 365.9 L 427.1 365.9 L 427.8 365.9 L 428.5 365.9 L 429.2 145.7 L 429.8 365.9 L 430.5 365.9 L 431.2 365.9 L 431.8 365.9 L 432.6 365.9 L 433.3 293.0 L 433.9 365.9 L 434.6 365.9 L 435.3 365.7 L 436.0 365.8 L 436.7 365.9 L 437.4 103.2 L 438.1 365.9 L 438.7 365.9 L 439.4 365.9 L 440.1 365.9 L 440.8 366.0 L 441.4 365.9 L 442.2 366.0 L 442.8 365.9 L 443.5 365.9 L 444.2 366.0 L 444.9 365.9 L 445.5 366.0 L 446.2 343.9 L 446.9 365.9 L 447.6 365.9 L 448.3 366.0 L 448.9 366.0 L 449.6 365.9 L 450.3 366.0 L 451.0 365.9 L 451.7 365.9 L 452.4 365.9 L 453.0 366.0 L 453.7 366.0 L 454.4 365.9 L 455.1 366.0 L 455.7 365.9 L 456.4 144.7 L 457.1 365.9 L 457.8 366.0 L 458.4 366.0 L 459.1 365.9 L 459.8 366.0 L 460.5 365.9 L 461.1 366.0 L 461.8 104.3 L 462.5 366.0 L 463.2 366.0 L 463.9 365.9 L 464.6 366.0 L 465.2 366.0 L 465.9 366.0 L 466.6 366.0 L 467.3 307.7 L 468.0 365.9 L 468.6 365.8 L 469.4 365.9 L 470.0 365.9 L 470.7 365.9 L 471.4 73.6 L 472.1 365.9 L 472.8 365.9 L 473.5 365.9 L 474.2 365.9 L 474.8 112.8 L 475.5 365.9 L 476.2 365.9 L 476.9 365.9 L 477.6 365.9 L 478.3 365.9 L 478.9 349.0 L 479.6 365.9 L 480.3 365.9 L 481.0 365.9 L 481.6 365.9 L 482.3 365.9 L 483.0 365.9 L 483.7 365.9 L 484.4 365.9 L 485.0 365.9 L 485.7 365.9 L 486.5 365.9 L 487.1 365.9 L 487.8 365.9 L 488.5 365.9 L 489.2 365.9 L 489.8 365.9 L 490.5 365.9 L 491.2 222.8 L 491.9 365.9 L 492.5 365.9 L 493.2 365.9 L 493.9 365.9 L 494.6 365.9 L 495.2 365.9 L 495.9 365.9 L 496.6 365.9 L 497.3 365.9 L 498.0 365.9 L 498.7 366.0 L 499.3 365.9 L 500.0 339.2 L 500.7 365.9 L 501.4 365.9 L 502.1 365.8 L 502.8 365.9 L 503.5 366.0 L 504.1 366.0 L 504.8 366.0 L 505.5 365.9 L 506.2 366.0 L 506.9 365.9 L 507.6 366.0 L 508.3 366.0 L 508.9 365.9 L 509.6 366.0 L 510.3 194.5 L 511.0 365.9 L 511.7 365.9 L 512.4 366.0 L 513.0 366.0 L 513.7 365.9 L 514.4 366.0 L 515.1 365.9 L 515.8 200.4 L 516.4 365.9 L 517.1 365.9 L 517.8 365.9 L 518.5 365.9 L 519.1 365.9 L 519.8 203.1 L 520.5 365.8 L 521.2 365.8 L 521.9 365.8 L 522.6 365.8 L 523.2 365.8 L 523.9 366.0 L 524.6 366.0 L 525.3 366.0 L 525.9 366.0 L 526.6 366.0 L 527.3 366.0 L 527.9 366.0 L 528.6 366.0 L 529.3 366.0 L 529.9 366.0 L 530.6 365.5 L 532.2 366.0 L 532.9 366.0 L 533.5 366.0 L 534.2 366.0 L 534.9 365.9 L 535.6 365.8 L 536.2 365.9 L 536.9 366.0 L 537.6 366.0 L 538.3 366.0 L 538.9 366.0 L 539.6 366.0 L 540.3 366.0 L 541.0 366.0 L 541.6 366.0 L 542.3 366.0 L 543.0 366.0 L 543.6 366.0 L 544.3 366.0 L 545.0 366.0 L 545.7 366.0 L 546.4 366.0 L 547.0 366.0 L 547.7 366.0 L 548.4 366.0 L 549.0 366.0 L 549.7 366.0 L 550.4 366.0 L 551.1 366.0 L 551.8 305.9 L 552.5 302.4 L 553.3 323.4 L 554.2 366.0 L 554.8 366.0 L 555.5 305.6 L 556.2 294.7 L 557.1 313.2 L 557.7 365.9 L 558.5 365.9 L 559.1 366.0 L 559.8 366.0 L 560.5 366.0 L 561.1 366.0 L 561.8 366.0 L 562.5 366.0 L 563.2 366.0 L 563.8 366.0 L 564.5 366.0 L 565.2 366.0 L 565.9 366.0 L 566.5 366.0 L 567.2 366.0 L 567.9 366.0 L 568.5 366.0 L 569.2 365.9 L 569.9 365.9 L 570.6 366.0 L 571.2 366.0 L 571.9 336.9 L 572.6 303.7 L 573.4 305.3 L 574.1 352.2 L 574.8 366.0 L 575.5 340.4 L 576.2 305.9 L 576.9 292.2 L 577.7 338.0 L 578.4 366.0 L 579.1 355.8 L 579.8 306.1 L 580.5 305.0 L 581.3 330.5 L 582.0 366.0 L 582.7 366.0 L 583.3 304.9 L 584.1 305.9 L 584.8 291.6 L 585.7 365.9 L 586.3 366.0 L 587.0 305.6 L 587.7 305.5 L 588.5 305.3 L 589.2 366.0 L 589.9 366.0 L 590.6 305.7 L 591.3 304.1 L 592.1 305.7 L 592.8 365.9 L 593.5 365.9 L 594.2 365.9 L 594.9 365.9 L 595.5 365.9 L 596.2 365.9 L 596.9 365.8 L 597.6 365.8 L 598.3 365.8 L 599.0 365.8 L 599.7 365.8 L 600.3 365.8 L 601.0 365.8 L 601.7 365.8 L 602.4 365.6 L 603.1 365.8 L 603.8 366.0 L 604.5 366.0 L 605.1 366.0 L 605.8 366.0 L 606.5 366.0 L 607.2 366.0 L 607.8 366.0 L 608.5 366.0 L 609.2 366.0 L 609.8 366.0 L 610.5 366.0 L 611.2 366.0 L 611.9 366.0 L 612.5 366.0 L 613.2 366.0 L 613.9 366.0 L 614.5 366.0 L 615.2 366.0 L 615.9 366.0 L 616.6 366.0 L 617.2 366.0 L 617.9 366.0 L 618.6 365.9 L 619.3 365.9 L 619.9 365.9 L 620.6 366.0 L 621.3 366.0 L 622.0 366.0 L 622.6 366.0 L 623.3 366.0 L 624.0 366.0 L 624.6 366.0 L 625.3 366.0 L 626.0 366.0 L 626.7 366.0 L 627.3 366.0 L 628.0 366.0 L 628.7 305.9 L 629.4 294.5 L 630.3 305.5 L 631.0 365.9 L 631.7 366.0 L 632.4 366.0 L 633.1 366.0 L 633.7 366.0 L 634.4 366.0 L 635.1 366.0 L 635.8 366.0 L 636.5 366.0 L 637.1 366.0 L 637.8 366.0 L 638.5 366.0 L 639.2 366.0 L 639.8 366.0 L 640.5 366.0 L 641.2 366.0 L 641.8 366.0 L 642.5 366.0 L 643.2 366.0 L 643.9 366.0 L 644.6 366.0 L 645.2 366.0 L 645.9 366.0 L 646.6 366.0 L 647.2 305.4 L 648.0 305.3 L 648.7 295.6 L 649.5 366.0 L 650.1 366.0 L 650.8 306.1 L 651.6 305.9 L 652.5 307.4 L 653.2 365.9 L 653.9 366.0 L 654.5 306.2 L 655.3 304.0 L 656.1 305.7 L 656.8 366.0 L 657.5 366.0 L 658.2 297.7 L 659.0 305.8 L 659.7 290.4 L 660.5 366.0 L 661.2 366.0 L 661.8 306.0 L 662.6 306.0 L 663.4 305.1 L 664.1 366.0 L 664.8 366.0 L 665.5 306.2 L 666.2 302.2 L 667.0 306.4 L 667.7 366.0 L 668.4 366.0 L 669.1 305.8 L 669.9 305.0 L 670.7 306.0 L 671.4 365.9 L 672.1 365.9 L 672.8 365.9 L 673.4 365.9 L 674.1 365.9 L 674.8 365.9 L 675.5 365.9 L 676.1 284.5 L 676.8 365.8 L 677.5 365.8 L 678.2 365.8 L 678.8 365.8 L 679.5 365.8 L 680.2 365.8 L 680.9 365.8 L 681.5 365.8 L 682.2 365.8 L 682.9 365.8 L 683.6 365.9 L 684.3 366.0 L 684.9 366.0 L 685.6 366.0 L 686.3 366.0 L 687.0 366.0 L 687.6 366.0 L 688.3 366.0 L 689.0 366.0 L 689.6 366.0 L 690.3 366.0 L 691.0 366.0 L 691.7 366.0 L 692.3 366.0 L 693.0 366.0 L 693.7 366.0 L 694.4 366.0 L 695.0 366.0 L 695.7 366.0 L 696.4 366.0 L 697.1 366.0 L 697.7 366.0 L 698.4 366.0 L 699.1 366.0 L 699.8 366.0 L 700.4 366.0 L 701.1 366.0 L 701.8 366.0 L 702.5 366.0 L 703.1 365.9 L 703.8 365.9 L 704.5 366.0 L 705.2 366.0 L 705.8 366.0 L 706.5 366.0 L 707.2 366.0 L 707.8 366.0 L 708.5 366.0 L 709.2 366.0 L 709.9 319.3 L 710.5 306.1 L 711.3 305.6 L 712.0 347.0 L 712.7 339.2 L 713.4 366.0 L 714.1 366.0 L 714.7 366.0 L 715.4 366.0 L 716.1 366.0 L 716.7 366.0 L 717.4 366.0 L 718.1 366.0 L 718.8 365.9 L 719.4 365.9 L 720.1 365.9 L 720.8 366.0 L 721.4 366.0 L 722.1 366.0 L 722.8 366.0 L 723.5 366.0 L 724.1 366.0 L 724.8 366.0 L 725.5 366.0 L 726.2 366.0 L 726.8 366.0 L 727.5 366.0 L 728.2 347.2 L 729.0 306.1 L 729.7 305.3 L 730.5 329.4 L 731.1 366.0 L 731.8 366.0 L 732.5 305.7 L 733.2 295.0 L 734.0 305.7 L 734.7 366.0 L 735.3 365.9 L 736.0 305.4 L 736.9 303.7 L 737.7 306.2 L 738.4 366.0 L 739.0 366.0 L 739.7 306.3 L 740.4 305.6 L 741.1 296.9 L 741.9 366.0 L 742.6 366.0 L 743.3 333.5 L 744.0 305.8 L 744.7 304.6 L 745.4 332.1 L 746.1 366.0 L 746.8 366.0 L 747.5 300.1 L 748.3 305.6 L 749.0 303.9 L 749.7 366.0 L 750.4 366.0 L 751.1 306.1 L 751.8 305.9 L 752.6 306.1 L 753.3 365.9 L 754.0 365.8 L 754.7 365.9 L 755.4 365.9 L 756.0 365.9 L 756.7 365.9 L 757.4 365.9 L 758.1 183.1 L 758.8 365.8 L 759.4 365.8 L 760.1 365.8 L 760.8 365.8 L 761.5 365.8 L 762.2 365.8 L 762.8 365.8 L 763.5 365.8 L 764.2 365.8 L 764.9 365.8 L 765.5 366.0 L 766.2 366.0 L 766.9 366.0 L 767.6 366.0 L 768.2 366.0 L 768.9 365.9 L 769.6 365.9 L 770.2 365.9 L 770.9 365.9 L 771.6 366.0 L 772.3 366.0 L 772.9 366.0 L 773.6 366.0 L 774.3 366.0 L 775.0 366.0 L 775.6 366.0 L 776.3 366.0 L 777.0 366.0 L 777.7 366.0 L 778.3 366.0 L 779.0 366.0 L 779.7 366.0 L 780.3 366.0 L 781.0 366.0 L 781.7 366.0 L 782.4 366.0 L 783.1 366.0 L 783.7 366.0 L 784.4 366.0 L 785.1 366.0 L 785.7 366.0 L 786.4 366.0 L 787.1 366.0 L 787.8 366.0 L 788.4 366.0 L 789.1 366.0 L 789.8 366.0 L 790.4 366.0 L 791.1 366.0 L 791.8 366.0 L 792.5 325.5 L 793.1 305.7 L 794.0 305.1 L 794.8 360.7 L 795.5 329.4 L 796.2 366.0 L 796.9 366.0 L 797.6 366.0 L 798.2 366.0 L 798.9 366.0 L 799.6 366.0 L 800.2 366.0 L 800.9 366.0 L 801.6 366.0 L 802.3 365.9 L 802.9 365.9 L 803.6 365.9 L 804.3 366.0 L 804.9 366.0 L 805.6 366.0 L 806.3 366.0 L 806.9 366.0 L 807.6 366.0 L 808.3 366.0 L 809.0 366.0 L 809.6 366.0 L 810.3 366.0 L 811.0 366.0 L 811.7 306.0 L 812.4 306.0 L 813.1 305.1 L 813.9 366.0 L 814.5 366.0 L 815.2 305.6 L 815.9 302.7 L 816.7 305.9 L 817.4 366.0 L 818.1 366.0 L 818.7 313.2 L 819.6 301.7 L 820.4 305.5 L 821.1 366.0 L 821.8 366.0 L 822.4 319.8 L 823.1 306.1 L 823.9 297.3 L 824.7 353.7 L 825.4 366.0 L 826.1 341.7 L 826.8 305.2 L 827.5 305.5 L 828.3 325.7 L 828.9 366.0 L 829.6 366.0 L 830.3 298.5 L 831.1 305.3 L 831.8 299.5 L 832.6 366.0 L 833.2 366.0 L 833.9 306.3 L 834.6 305.7 L 835.4 304.1 L 836.2 365.9 L 836.9 365.8 L 837.6 365.8 L 838.3 365.9 L 838.9 365.9 L 839.6 365.9 L 840.3 365.9 L 841.0 219.7 L 841.6 365.8 L 842.4 365.8 L 843.1 365.8 L 843.7 365.8 L 844.4 365.8 L 845.1 365.8 L 845.8 365.8 L 846.4 365.8 L 847.1 365.8 L 847.8 365.8 L 848.5 366.0 L 849.2 366.0 L 849.8 366.0 L 850.5 366.0 L 851.2 366.0 L 851.9 366.0 L 852.5 365.9 L 853.2 365.9 L 853.9 366.0 L 854.6 366.0 L 855.2 366.0 L 855.9 366.0 L 856.6 366.0 L 857.2 366.0 L 857.9 366.0 L 858.6 366.0 L 859.3 366.0 L 859.9 366.0 L 860.6 366.0 L 861.3 366.0 L 861.9 366.0 L 862.6 366.0 L 863.3 366.0 L 864.0 366.0 L 864.7 366.0 L 865.3 366.0 L 866.0 366.0 L 866.7 366.0 L 867.4 366.0 L 868.0 366.0 L 868.7 366.0 L 869.4 366.0 L 870.0 366.0 L 870.7 366.0 L 871.4 366.0 L 872.1 366.0 L 872.7 366.0 L 873.4 305.6 L 874.1 306.2 L 874.8 304.4 L 875.6 365.8 L 876.3 365.8 L 876.9 365.8 L 877.6 365.8 L 878.3 365.8 L 879.0 366.0 L 879.7 366.0 L 880.4 366.0 L 881.0 366.0 L 881.7 366.0 L 882.4 366.0 L 883.0 366.0 L 883.7 366.0 L 884.4 366.0 L 885.1 366.0 L 885.7 365.9 L 886.4 365.9 L 887.1 366.0 L 887.8 366.0 L 888.4 366.0 L 889.1 366.0 L 889.8 366.0 L 890.4 366.0 L 891.1 366.0 L 891.8 366.0 L 892.5 366.0 L 893.1 366.0 L 893.8 366.0 L 894.5 366.0 L 895.1 366.0 L 895.8 366.0 L 896.5 366.0 L 897.2 366.0 L 897.8 366.0 L 898.5 366.0 L 899.2 366.0 L 899.8 366.0 L 900.5 366.0 L 901.2 366.0 L 901.9 366.0 L 902.5 365.9 L 903.2 306.0 L 904.1 305.4 L 904.9 334.7 L 905.6 365.8 L 906.3 365.8 L 907.0 365.8 L 907.7 365.8 L 908.4 365.9 L 909.0 366.0 L 909.7 366.0 L 910.4 366.0 L 911.1 366.0 L 911.7 366.0 L 912.4 366.0 L 913.1 366.0 L 913.7 366.0 L 914.4 366.0 L 915.1 366.0 L 915.8 366.0 L 916.4 366.0 L 917.1 366.0 L 917.8 366.0 L 918.5 366.0 L 919.1 365.9 L 919.8 365.9 L 920.5 365.9 L 921.1 365.9 L 921.8 366.0 L 922.5 366.0 L 923.2 366.0 L 923.8 366.0 L 924.5 366.0 L 925.2 366.0 L 925.9 366.0 L 926.5 366.0 L 927.2 366.0 L 927.9 366.0 L 928.6 366.0 L 929.3 366.0 L 929.9 366.0 L 930.6 366.0 L 931.3 366.0 L 932.0 366.0 L 932.6 327.7 L 933.3 305.4 L 934.0 304.0 L 934.8 344.2 L 935.5 365.8 L 936.1 365.8 L 936.8 365.8 L 937.5 365.7 L 938.2 365.9 L 938.8 366.0 L 939.6 366.0 L 940.3 366.0 L 940.9 366.0 L 941.6 366.0 L 942.3 366.0 L 942.9 366.0 L 943.6 366.0 L 944.3 366.0 L 945.0 366.0 L 945.6 366.0 L 946.3 366.0 L 947.0 366.0 L 947.7 366.0 L 948.3 366.0 L 949.0 366.0 L 949.7 366.0 L 950.4 366.0 L 951.0 366.0 L 951.7 366.0 L 952.4 365.9 L 953.1 365.9 L 953.7 365.9 L 954.4 365.9 L 955.1 366.0 L 955.7 366.0 L 956.4 366.0 L 957.1 366.0 L 957.8 366.0 L 958.4 366.0 L 959.1 366.0 L 959.8 366.0 L 960.4 366.0 L 961.1 366.0 L 961.8 366.0 L 962.5 313.4 L 963.3 305.5 L 964.0 300.1 L 964.8 365.8 L 965.5 365.8 L 966.2 365.8 L 966.9 365.8 L 967.6 365.8 L 968.3 366.0 L 968.9 366.0 L 969.6 366.0 L 970.3 366.0 L 970.9 366.0 L 971.6 366.0 L 972.3 366.0 L 973.0 366.0 L 973.6 366.0 L 974.3 366.0 L 975.0 366.0 L 975.7 366.0 L 976.3 366.0 L 977.0 366.0 L 977.7 366.0 L 978.3 366.0 L 979.0 366.0 L 979.7 366.0 L 980.3 366.0 L 981.0 366.0 L 981.7 366.0 L 982.4 366.0 L 983.0 366.0 L 983.7 366.0 L 984.4 366.0 L 985.0 366.0 L 985.7 365.9 L 986.4 365.9 L 987.1 365.9 L 987.8 365.9 L 988.4 366.0 L 989.1 366.0 L 989.8 366.0 L 990.4 366.0 L 991.1 366.0 L 991.8 366.0 L 992.5 305.3 L 993.2 305.2 L 993.9 305.5 L 994.7 365.8 L 995.4 365.8 L 996.1 365.8 L 996.7 365.8 L 997.4 365.8 L 998.1 366.0 L 998.8 366.0 L 999.4 366.0 L 1000.1 366.0 L 1000.8 366.0 L 1001.5 366.0 L 1002.1 366.0 L 1002.8 366.0 L 1003.5 366.0 L 1004.1 366.0 L 1004.8 366.0 L 1005.5 366.0 L 1006.2 366.0 L 1006.8 366.0 L 1007.5 366.0 L 1008.2 366.0 L 1008.8 366.0 L 1009.5 366.0 L 1010.2 366.0 L 1010.8 366.0 L 1011.5 366.0 L 1012.2 366.0 L 1012.9 366.0 L 1013.6 366.0 L 1014.2 366.0 L 1014.9 366.0 L 1015.6 366.0 L 1016.2 366.0 L 1016.9 366.0 L 1017.6 366.0 L 1018.3 366.0 L 1018.9 366.0 L 1019.6 366.0 L 1020.3 365.9 L 1021.0 365.9 L 1021.6 366.0 L 1022.3 305.5 L 1023.0 290.7 L 1023.8 305.4 L 1024.5 365.8 L 1025.2 365.8 L 1025.9 365.8 L 1026.6 365.8 L 1027.3 365.8 L 1027.9 366.0 L 1028.6 366.0 L 1029.3 366.0 L 1029.9 366.0 L 1030.6 366.0 L 1031.3 366.0 L 1031.9 366.0 L 1032.6 366.0 L 1033.3 366.0 L 1034.0 366.0 L 1034.6 366.0 L 1035.3 366.0 L 1036.0 366.0 L 1036.6 365.9 L 1037.3 365.9 L 1038.0 366.0 L 1038.7 366.0 L 1039.4 366.0 L 1040.0 366.0 L 1040.7 366.0 L 1041.4 366.0 L 1042.0 365.9 L 1042.8 365.9 L 1043.4 366.0 L 1044.1 366.0 L 1044.8 366.0 L 1045.5 366.0 L 1046.1 366.0 L 1046.8 366.0 L 1047.5 366.0 L 1048.1 366.0 L 1048.8 366.0 L 1049.5 366.0 L 1050.2 366.0 L 1050.9 366.0 L 1051.5 358.4 L 1052.2 305.1 L 1052.9 305.5 L 1053.7 328.2 L 1054.4 365.8 L 1055.1 365.8 L 1055.8 365.8 L 1056.5 365.8 L 1057.2 365.9 L 1057.8 366.0 L 1058.5 366.0 L 1059.2 366.0 L 1059.9 366.0 L 1060.5 366.0 L 1061.2 366.0 L 1061.9 366.0 L 1062.6 366.0 L 1063.2 366.0 L 1063.9 366.0 L 1064.6 366.0 L 1065.3 366.0 L 1065.9 366.0 L 1066.6 366.0 L 1067.3 366.0 L 1067.9 366.0 L 1068.6 366.0 L 1069.3 365.9 L 1069.9 365.9 L 1070.6 365.9 L 1071.3 366.0 L 1072.0 366.0 L 1072.6 366.0 L 1073.3 366.0 L 1074.0 366.0 L 1074.7 366.0 L 1075.3 365.9 L 1076.0 365.9" fill="none" stroke="#4C78A8" stroke-width="2.8" stroke-linejoin="round" stroke-linecap="round"/>
<line x1="86.0" y1="44.0" x2="86.0" y2="366.0" stroke="#f2f2f2" stroke-width="1"/>
<text x="86.0" y="402" text-anchor="middle" font-size="12" fill="#444" font-family="Helvetica, Arial, sans-serif">0.0</text>
<line x1="251.0" y1="44.0" x2="251.0" y2="366.0" stroke="#f2f2f2" stroke-width="1"/>
<text x="251.0" y="402" text-anchor="middle" font-size="12" fill="#444" font-family="Helvetica, Arial, sans-serif">10.4</text>
<line x1="416.0" y1="44.0" x2="416.0" y2="366.0" stroke="#f2f2f2" stroke-width="1"/>
<text x="416.0" y="402" text-anchor="middle" font-size="12" fill="#444" font-family="Helvetica, Arial, sans-serif">20.7</text>
<line x1="581.0" y1="44.0" x2="581.0" y2="366.0" stroke="#f2f2f2" stroke-width="1"/>
<text x="581.0" y="402" text-anchor="middle" font-size="12" fill="#444" font-family="Helvetica, Arial, sans-serif">31.1</text>
<line x1="746.0" y1="44.0" x2="746.0" y2="366.0" stroke="#f2f2f2" stroke-width="1"/>
<text x="746.0" y="402" text-anchor="middle" font-size="12" fill="#444" font-family="Helvetica, Arial, sans-serif">41.4</text>
<line x1="911.0" y1="44.0" x2="911.0" y2="366.0" stroke="#f2f2f2" stroke-width="1"/>
<text x="911.0" y="402" text-anchor="middle" font-size="12" fill="#444" font-family="Helvetica, Arial, sans-serif">51.8</text>
<line x1="1076.0" y1="44.0" x2="1076.0" y2="366.0" stroke="#f2f2f2" stroke-width="1"/>
<text x="1076.0" y="402" text-anchor="middle" font-size="12" fill="#444" font-family="Helvetica, Arial, sans-serif">62.2</text>
<text x="581.0" y="418" text-anchor="middle" font-size="16" fill="#222" font-family="Helvetica, Arial, sans-serif">time since first request submit (s)</text>
</svg>