<svg xmlns="http://www.w3.org/2000/svg" width="1100" height="420" viewBox="0 0 1100 420">
<rect width="1100" height="420" fill="white"/>
<text x="86" y="26" font-size="22" font-weight="700" font-family="Helvetica, Arial, sans-serif">tb_session_04_turn_000_seed  phase=seed  turn=0  prompt=24576  peak_tx=3.48 GiB/s  peak_rx=28.19 GiB/s</text>
<line x1="86" y1="366.0" x2="1076" y2="366.0" stroke="#ececec" stroke-width="1"/>
<text x="76" y="370.0" text-anchor="end" font-size="12" fill="#444" font-family="Helvetica, Arial, sans-serif">0.0</text>
<line x1="86" y1="301.6" x2="1076" y2="301.6" stroke="#ececec" stroke-width="1"/>
<text x="76" y="305.6" text-anchor="end" font-size="12" fill="#444" font-family="Helvetica, Arial, sans-serif">6.2</text>
<line x1="86" y1="237.2" x2="1076" y2="237.2" stroke="#ececec" stroke-width="1"/>
<text x="76" y="241.2" text-anchor="end" font-size="12" fill="#444" font-family="Helvetica, Arial, sans-serif">12.4</text>
<line x1="86" y1="172.8" x2="1076" y2="172.8" stroke="#ececec" stroke-width="1"/>
<text x="76" y="176.8" text-anchor="end" font-size="12" fill="#444" font-family="Helvetica, Arial, sans-serif">18.6</text>
<line x1="86" y1="108.4" x2="1076" y2="108.4" stroke="#ececec" stroke-width="1"/>
<text x="76" y="112.4" text-anchor="end" font-size="12" fill="#444" font-family="Helvetica, Arial, sans-serif">24.8</text>
<line x1="86" y1="44.0" x2="1076" y2="44.0" stroke="#ececec" stroke-width="1"/>
<text x="76" y="48.0" text-anchor="end" font-size="12" fill="#444" font-family="Helvetica, Arial, sans-serif">31.0</text>
<line x1="86" y1="366.0" x2="1076" y2="366.0" stroke="#222" stroke-width="1.4"/>
<line x1="86" y1="44.0" x2="86" y2="366.0" stroke="#222" stroke-width="1.4"/>
<rect x="120.3" y="44.0" width="555.0" height="322.0" fill="#4C78A8" opacity="0.08"/>
<path d="M 86.0 366.0 L 98.6 366.0 L 111.3 366.0 L 123.9 366.0 L 136.5 366.0 L 149.2 366.0 L 161.8 366.0 L 174.7 366.0 L 187.4 366.0 L 200.0 337.1 L 216.0 332.8 L 229.2 329.8 L 244.8 365.9 L 257.5 365.9 L 270.4 365.9 L 283.3 365.9 L 296.3 365.9 L 309.5 366.0 L 322.1 366.0 L 334.8 366.0 L 347.4 366.0 L 360.0 366.0 L 372.7 366.0 L 385.3 366.0 L 398.3 366.0 L 410.9 366.0 L 423.5 366.0 L 436.5 366.0 L 449.1 366.0 L 461.7 366.0 L 474.4 366.0 L 487.0 366.0 L 499.6 366.0 L 512.3 366.0 L 524.9 366.0 L 537.8 366.0 L 550.5 366.0 L 563.1 366.0 L 576.0 366.0 L 588.7 366.0 L 601.3 366.0 L 613.9 366.0 L 626.6 366.0 L 639.5 366.0 L 652.4 365.9 L 665.1 366.0 L 677.7 366.0 L 690.3 366.0 L 703.0 366.0 L 715.6 366.0 L 728.3 366.0 L 741.2 366.0 L 754.1 366.0 L 767.1 332.7 L 780.3 332.7 L 794.7 332.8 L 808.6 365.9 L 821.8 365.9 L 834.4 365.9 L 847.4 365.9 L 860.0 365.9 L 872.6 366.0 L 885.6 366.0 L 898.2 366.0 L 911.2 366.0 L 923.8 366.0 L 936.4 366.0 L 949.1 366.0 L 961.7 366.0 L 974.3 366.0 L 987.0 366.0 L 999.6 366.0 L 1012.2 366.0 L 1025.5 366.0 L 1038.1 366.0 L 1050.7 366.0 L 1063.4 366.0 L 1076.0 366.0" fill="none" stroke="#4C78A8" stroke-width="2.8" stroke-linejoin="round" stroke-linecap="round"/>
<path d="M 86.0 366.0 L 98.6 366.0 L 111.3 366.0 L 123.9 366.0 L 136.5 366.0 L 149.2 366.0 L 161.8 365.9 L 174.7 366.0 L 187.4 366.0 L 200.0 73.3 L 216.0 76.0 L 229.2 205.7 L 244.8 365.7 L 257.5 365.7 L 270.4 365.7 L 283.3 365.7 L 296.3 365.9 L 309.5 366.0 L 322.1 366.0 L 334.8 365.9 L 347.4 365.9 L 360.0 366.0 L 372.7 366.0 L 385.3 366.0 L 398.3 366.0 L 410.9 366.0 L 423.5 366.0 L 436.5 366.0 L 449.1 366.0 L 461.7 366.0 L 474.4 366.0 L 487.0 366.0 L 499.6 366.0 L 512.3 366.0 L 524.9 366.0 L 537.8 366.0 L 550.5 366.0 L 563.1 366.0 L 576.0 366.0 L 588.7 366.0 L 601.3 366.0 L 613.9 366.0 L 626.6 366.0 L 639.5 366.0 L 652.4 366.0 L 665.1 366.0 L 677.7 366.0 L 690.3 366.0 L 703.0 366.0 L 715.6 366.0 L 728.3 365.9 L 741.2 366.0 L 754.1 201.9 L 767.1 73.9 L 780.3 75.2 L 794.7 270.0 L 808.6 365.7 L 821.8 365.7 L 834.4 365.7 L 847.4 365.7 L 860.0 365.9 L 872.6 366.0 L 885.6 366.0 L 898.2 366.0 L 911.2 366.0 L 923.8 366.0 L 936.4 366.0 L 949.1 366.0 L 961.7 366.0 L 974.3 366.0 L 987.0 366.0 L 999.6 366.0 L 1012.2 366.0 L 1025.5 366.0 L 1038.1 366.0 L 1050.7 366.0 L 1063.4 366.0 L 1076.0 366.0" fill="none" stroke="#F58518" stroke-width="2.8" stroke-linejoin="round" stroke-linecap="round"/>
<line x1="120.3" y1="44.0" x2="120.3" y2="366.0" stroke="#666" stroke-dasharray="4 4" stroke-width="1.2"/>
<text x="120.3" y="402.0" text-anchor="middle" font-size="12" fill="#444" font-family="Helvetica, Arial, sans-serif">submit</text>
<line x1="675.3" y1="44.0" x2="675.3" y2="366.0" stroke="#888" stroke-dasharray="4 4" stroke-width="1.2"/>
<text x="675.3" y="402.0" text-anchor="middle" font-size="12" fill="#444" font-family="Helvetica, Arial, sans-serif">metrics</text>
<line x1="86.0" y1="44.0" x2="86.0" y2="366.0" stroke="#f5f5f5" stroke-width="1"/>
<text x="86.0" y="418.0" text-anchor="middle" font-size="11" fill="#444" font-family="Helvetica, Arial, sans-serif">-0.11</text>
<line x1="209.8" y1="44.0" x2="209.8" y2="366.0" stroke="#f5f5f5" stroke-width="1"/>
<text x="209.8" y="418.0" text-anchor="middle" font-size="11" fill="#444" font-family="Helvetica, Arial, sans-serif">0.30</text>
<line x1="333.5" y1="44.0" x2="333.5" y2="366.0" stroke="#f5f5f5" stroke-width="1"/>
<text x="333.5" y="418.0" text-anchor="middle" font-size="11" fill="#444" font-family="Helvetica, Arial, sans-serif">0.71</text>
<line x1="457.2" y1="44.0" x2="457.2" y2="366.0" stroke="#f5f5f5" stroke-width="1"/>
<text x="457.2" y="418.0" text-anchor="middle" font-size="11" fill="#444" font-family="Helvetica, Arial, sans-serif">1.12</text>
<line x1="581.0" y1="44.0" x2="581.0" y2="366.0" stroke="#f5f5f5" stroke-width="1"/>
<text x="581.0" y="418.0" text-anchor="middle" font-size="11" fill="#444" font-family="Helvetica, Arial, sans-serif">1.53</text>
<line x1="704.8" y1="44.0" x2="704.8" y2="366.0" stroke="#f5f5f5" stroke-width="1"/>
<text x="704.8" y="418.0" text-anchor="middle" font-size="11" fill="#444" font-family="Helvetica, Arial, sans-serif">1.94</text>
<line x1="828.5" y1="44.0" x2="828.5" y2="366.0" stroke="#f5f5f5" stroke-width="1"/>
<text x="828.5" y="418.0" text-anchor="middle" font-size="11" fill="#444" font-family="Helvetica, Arial, sans-serif">2.35</text>
<line x1="952.2" y1="44.0" x2="952.2" y2="366.0" stroke="#f5f5f5" stroke-width="1"/>
<text x="952.2" y="418.0" text-anchor="middle" font-size="11" fill="#444" font-family="Helvetica, Arial, sans-serif">2.77</text>
<line x1="1076.0" y1="44.0" x2="1076.0" y2="366.0" stroke="#f5f5f5" stroke-width="1"/>
<text x="1076.0" y="418.0" text-anchor="middle" font-size="11" fill="#444" font-family="Helvetica, Arial, sans-serif">3.18</text>
<text x="581.0" y="386.0" text-anchor="middle" font-size="15" fill="#222" font-family="Helvetica, Arial, sans-serif">time since request submit (s)</text>
</svg>