<svg xmlns="http://www.w3.org/2000/svg" width="1100" height="420" viewBox="0 0 1100 420">
<rect width="1100" height="420" fill="white"/>
<text x="86" y="26" font-size="22" font-weight="700" font-family="Helvetica, Arial, sans-serif">tb_session_05_turn_001_reuse  phase=reuse  turn=1  prompt=24832  peak_tx=15.45 GiB/s  peak_rx=32.61 GiB/s</text>
<line x1="86" y1="366.0" x2="1076" y2="366.0" stroke="#ececec" stroke-width="1"/>
<text x="76" y="370.0" text-anchor="end" font-size="12" fill="#444" font-family="Helvetica, Arial, sans-serif">0.0</text>
<line x1="86" y1="301.6" x2="1076" y2="301.6" stroke="#ececec" stroke-width="1"/>
<text x="76" y="305.6" text-anchor="end" font-size="12" fill="#444" font-family="Helvetica, Arial, sans-serif">7.2</text>
<line x1="86" y1="237.2" x2="1076" y2="237.2" stroke="#ececec" stroke-width="1"/>
<text x="76" y="241.2" text-anchor="end" font-size="12" fill="#444" font-family="Helvetica, Arial, sans-serif">14.3</text>
<line x1="86" y1="172.8" x2="1076" y2="172.8" stroke="#ececec" stroke-width="1"/>
<text x="76" y="176.8" text-anchor="end" font-size="12" fill="#444" font-family="Helvetica, Arial, sans-serif">21.5</text>
<line x1="86" y1="108.4" x2="1076" y2="108.4" stroke="#ececec" stroke-width="1"/>
<text x="76" y="112.4" text-anchor="end" font-size="12" fill="#444" font-family="Helvetica, Arial, sans-serif">28.7</text>
<line x1="86" y1="44.0" x2="1076" y2="44.0" stroke="#ececec" stroke-width="1"/>
<text x="76" y="48.0" text-anchor="end" font-size="12" fill="#444" font-family="Helvetica, Arial, sans-serif">35.9</text>
<line x1="86" y1="366.0" x2="1076" y2="366.0" stroke="#222" stroke-width="1.4"/>
<line x1="86" y1="44.0" x2="86" y2="366.0" stroke="#222" stroke-width="1.4"/>
<rect x="91.3" y="44.0" width="932.8" height="322.0" fill="#F58518" opacity="0.08"/>
<path d="M 86.0 366.0 L 87.6 366.0 L 89.2 366.0 L 90.9 366.0 L 92.5 366.0 L 94.1 366.0 L 95.7 366.0 L 97.4 366.0 L 99.0 366.0 L 100.7 364.5 L 102.4 337.3 L 104.1 337.6 L 105.9 342.3 L 107.6 366.0 L 109.3 361.5 L 110.9 366.0 L 112.6 366.0 L 114.2 365.9 L 115.8 365.9 L 117.5 244.6 L 119.2 366.0 L 122.8 366.0 L 124.5 366.0 L 126.2 229.5 L 127.8 366.0 L 129.5 366.0 L 131.1 366.0 L 132.7 366.0 L 134.4 364.4 L 136.1 366.0 L 137.8 366.0 L 139.4 366.0 L 141.0 366.0 L 142.7 366.0 L 144.3 263.6 L 146.0 366.0 L 147.6 366.0 L 149.4 366.0 L 151.0 366.0 L 152.7 366.0 L 154.3 294.9 L 155.9 365.9 L 157.6 365.9 L 159.4 366.0 L 161.1 366.0 L 162.7 366.0 L 164.4 366.0 L 166.0 366.0 L 167.7 366.0 L 169.3 366.0 L 170.9 366.0 L 172.6 366.0 L 174.2 366.0 L 175.8 366.0 L 177.5 366.0 L 179.1 366.0 L 180.8 366.0 L 182.5 366.0 L 184.2 366.0 L 185.8 366.0 L 187.4 366.0 L 189.1 366.0 L 190.7 366.0 L 192.4 366.0 L 194.1 366.0 L 195.8 365.9 L 197.4 366.0 L 199.0 366.0 L 200.7 228.5 L 202.3 366.0 L 204.0 366.0 L 205.6 366.0 L 207.3 366.0 L 208.9 366.0 L 210.6 366.0 L 212.2 366.0 L 213.9 310.0 L 215.5 366.0 L 217.1 366.0 L 218.8 366.0 L 220.4 366.0 L 222.1 366.0 L 223.7 366.0 L 225.3 366.0 L 227.0 348.0 L 228.6 366.0 L 230.3 366.0 L 231.9 366.0 L 233.6 321.6 L 235.2 365.9 L 236.9 365.9 L 238.6 365.9 L 240.2 366.0 L 241.8 340.8 L 243.5 365.9 L 245.4 366.0 L 247.0 366.0 L 248.6 366.0 L 250.3 366.0 L 251.9 366.0 L 253.6 366.0 L 255.2 366.0 L 256.9 366.0 L 258.5 366.0 L 260.2 334.3 L 261.8 366.0 L 263.6 366.0 L 265.3 366.0 L 267.0 366.0 L 268.6 366.0 L 270.3 326.9 L 271.9 366.0 L 273.5 366.0 L 275.2 365.9 L 276.8 365.9 L 278.5 365.9 L 280.3 366.0 L 281.9 366.0 L 283.6 366.0 L 285.2 366.0 L 286.8 366.0 L 288.5 366.0 L 290.1 366.0 L 291.8 271.8 L 293.4 366.0 L 295.1 366.0 L 296.7 366.0 L 298.4 366.0 L 300.0 366.0 L 301.7 366.0 L 303.4 227.3 L 305.0 366.0 L 306.6 366.0 L 308.3 366.0 L 309.9 366.0 L 311.6 366.0 L 313.2 366.0 L 315.0 290.2 L 316.6 365.9 L 318.2 365.9 L 319.9 366.0 L 321.5 366.0 L 323.2 366.0 L 324.8 366.0 L 326.5 366.0 L 328.2 300.0 L 329.9 366.0 L 331.5 366.0 L 333.2 366.0 L 334.8 366.0 L 336.4 366.0 L 338.2 366.0 L 339.9 366.0 L 341.5 366.0 L 343.2 366.0 L 344.8 366.0 L 346.4 366.0 L 348.1 366.0 L 349.8 366.0 L 351.4 366.0 L 353.1 366.0 L 354.7 311.0 L 356.4 366.0 L 358.0 365.3 L 359.7 365.9 L 361.4 366.0 L 363.0 366.0 L 364.7 366.0 L 366.3 321.1 L 368.0 366.0 L 369.6 366.0 L 371.2 366.0 L 372.9 366.0 L 374.5 321.0 L 376.2 366.0 L 377.8 366.0 L 379.5 366.0 L 381.1 366.0 L 382.8 366.0 L 384.5 259.8 L 386.2 366.0 L 387.8 366.0 L 389.4 366.0 L 391.1 366.0 L 392.7 366.0 L 394.4 260.9 L 396.1 366.0 L 397.7 365.9 L 399.3 365.9 L 401.0 366.0 L 402.6 366.0 L 404.3 366.0 L 405.9 366.0 L 407.5 366.0 L 409.2 366.0 L 410.8 366.0 L 412.5 366.0 L 414.1 366.0 L 415.8 307.8 L 417.4 366.0 L 419.1 366.0 L 420.7 366.0 L 422.5 366.0 L 424.2 366.0 L 425.8 366.0 L 427.5 276.4 L 429.1 366.0 L 430.7 366.0 L 432.4 366.0 L 434.2 366.0 L 435.9 366.0 L 437.5 365.9 L 439.2 365.9 L 440.8 365.9 L 442.6 366.0 L 444.2 366.0 L 445.8 366.0 L 447.5 366.0 L 449.1 366.0 L 450.7 366.0 L 452.4 237.3 L 454.1 366.0 L 455.8 366.0 L 457.4 366.0 L 459.0 366.0 L 460.7 366.0 L 462.4 366.0 L 464.0 366.0 L 465.7 232.3 L 467.4 366.0 L 469.2 359.4 L 470.8 366.0 L 472.5 366.0 L 474.1 366.0 L 475.8 366.0 L 477.4 365.9 L 479.1 362.2 L 480.7 366.0 L 482.4 366.0 L 484.0 366.0 L 485.6 366.0 L 487.3 227.3 L 488.9 366.0 L 490.6 366.0 L 492.3 366.0 L 493.9 366.0 L 495.5 366.0 L 497.2 284.7 L 498.8 366.0 L 500.6 366.0 L 502.3 366.0 L 503.9 366.0 L 505.6 366.0 L 507.2 291.3 L 508.9 366.0 L 510.5 366.0 L 512.2 366.0 L 513.8 366.0 L 515.5 366.0 L 517.1 273.6 L 518.8 365.9 L 520.4 365.9 L 522.1 365.9 L 523.8 366.0 L 525.4 366.0 L 527.0 366.0 L 528.7 227.3 L 530.3 366.0 L 531.9 366.0 L 533.6 366.0 L 535.3 366.0 L 536.9 366.0 L 538.6 366.0 L 540.3 269.3 L 541.9 366.0 L 543.5 366.0 L 545.2 366.0 L 546.9 366.0 L 548.5 366.0 L 550.2 366.0 L 551.8 227.3 L 553.5 366.0 L 555.1 366.0 L 556.7 366.0 L 558.5 365.9 L 560.1 365.9 L 561.8 365.9 L 563.4 366.0 L 565.1 366.0 L 566.7 366.0 L 568.3 366.0 L 570.1 366.0 L 571.7 366.0 L 573.4 366.0 L 575.0 366.0 L 576.7 366.0 L 578.3 366.0 L 579.9 366.0 L 581.8 366.0 L 583.4 366.0 L 585.0 366.0 L 586.7 366.0 L 588.3 366.0 L 590.0 366.0 L 591.6 324.3 L 593.5 366.0 L 595.1 366.0 L 596.8 366.0 L 598.4 366.0 L 600.0 365.9 L 601.7 365.9 L 603.3 366.0 L 605.0 366.0 L 606.7 366.0 L 608.3 280.6 L 609.9 366.0 L 611.6 366.0 L 613.2 366.0 L 614.8 366.0 L 616.5 349.1 L 618.2 366.0 L 619.8 366.0 L 621.5 366.0 L 623.1 366.0 L 624.7 366.0 L 626.4 321.7 L 628.1 366.0 L 629.7 366.0 L 631.4 366.0 L 633.0 366.0 L 634.6 366.0 L 636.3 366.0 L 637.9 366.0 L 639.7 365.9 L 641.3 365.9 L 643.0 365.9 L 644.6 366.0 L 646.2 366.0 L 647.9 237.6 L 649.5 366.0 L 651.2 366.0 L 652.9 366.0 L 654.6 366.0 L 656.2 366.0 L 657.8 366.0 L 659.5 366.0 L 661.1 366.0 L 662.9 366.0 L 664.6 366.0 L 666.2 366.0 L 667.8 366.0 L 669.5 366.0 L 671.1 366.0 L 672.7 366.0 L 674.6 366.0 L 676.2 366.0 L 677.9 366.0 L 679.5 366.0 L 681.2 365.9 L 682.8 271.9 L 684.4 366.0 L 686.1 366.0 L 687.8 366.0 L 689.4 366.0 L 691.0 366.0 L 692.7 366.0 L 694.3 366.0 L 696.0 366.0 L 697.7 366.0 L 699.4 366.0 L 701.0 366.0 L 702.6 366.0 L 704.3 366.0 L 705.9 366.0 L 707.6 366.0 L 709.3 366.0 L 711.0 366.0 L 712.6 366.0 L 714.2 366.0 L 715.9 366.0 L 717.5 366.0 L 719.2 366.0 L 720.9 322.9 L 722.6 365.9 L 724.2 365.9 L 725.9 366.0 L 727.5 366.0 L 729.1 290.3 L 730.8 366.0 L 732.6 366.0 L 734.2 366.0 L 735.8 366.0 L 737.5 260.6 L 739.1 366.0 L 740.7 366.0 L 742.4 366.0 L 744.1 366.0 L 745.8 366.0 L 747.4 261.5 L 749.0 366.0 L 750.7 366.0 L 752.3 366.0 L 753.9 366.0 L 755.8 366.0 L 757.4 331.4 L 759.0 366.0 L 760.7 365.9 L 762.3 365.9 L 763.9 365.9 L 765.6 366.0 L 767.4 241.3 L 769.0 366.0 L 770.7 366.0 L 772.3 366.0 L 773.9 366.0 L 775.6 366.0 L 777.2 366.0 L 779.0 366.0 L 780.6 366.0 L 782.2 366.0 L 783.9 366.0 L 785.5 366.0 L 787.1 366.0 L 788.8 355.5 L 790.5 366.0 L 792.1 366.0 L 793.8 366.0 L 795.4 366.0 L 797.1 366.0 L 798.7 366.0 L 800.3 366.0 L 802.1 365.9 L 803.7 365.9 L 805.4 366.0 L 807.0 366.0 L 808.7 366.0 L 810.3 366.0 L 811.9 366.0 L 813.6 261.0 L 815.2 366.0 L 816.9 366.0 L 818.5 366.0 L 820.1 366.0 L 821.8 366.0 L 823.4 366.0 L 825.0 366.0 L 826.7 241.8 L 828.3 366.0 L 830.0 366.0 L 831.7 366.0 L 833.3 366.0 L 834.9 366.0 L 836.6 366.0 L 838.2 366.0 L 839.9 338.3 L 841.6 366.0 L 843.2 365.9 L 845.0 365.9 L 846.6 366.0 L 848.3 366.0 L 849.9 227.3 L 851.7 366.0 L 853.4 366.0 L 855.1 366.0 L 856.7 366.0 L 858.3 245.9 L 860.0 366.0 L 861.6 366.0 L 863.2 366.0 L 864.9 366.0 L 866.6 366.0 L 868.2 357.9 L 869.9 366.0 L 871.5 366.0 L 873.1 366.0 L 874.8 366.0 L 876.5 366.0 L 878.1 366.0 L 879.8 366.0 L 881.4 366.0 L 883.0 365.9 L 884.7 365.9 L 886.5 366.0 L 888.1 366.0 L 889.8 366.0 L 891.4 366.0 L 893.1 366.0 L 894.7 366.0 L 896.3 366.0 L 898.0 298.1 L 899.6 366.0 L 901.3 366.0 L 902.9 366.0 L 904.5 366.0 L 906.2 366.0 L 907.8 366.0 L 909.5 366.0 L 911.2 366.0 L 912.8 366.0 L 914.5 366.0 L 916.1 366.0 L 917.8 366.0 L 919.4 353.3 L 921.0 366.0 L 922.8 365.9 L 924.4 365.9 L 926.2 365.9 L 927.8 366.0 L 929.4 366.0 L 931.1 366.0 L 932.8 366.0 L 934.5 366.0 L 936.1 366.0 L 937.8 366.0 L 939.4 366.0 L 941.1 366.0 L 942.7 366.0 L 944.4 284.7 L 946.1 366.0 L 947.7 366.0 L 949.3 366.0 L 951.0 366.0 L 952.6 366.0 L 954.3 366.0 L 956.0 366.0 L 957.6 287.4 L 959.2 366.0 L 960.9 366.0 L 962.5 366.0 L 964.2 365.9 L 965.8 365.9 L 967.4 288.8 L 969.1 365.9 L 970.8 365.9 L 972.5 365.9 L 974.1 365.9 L 975.8 365.9 L 977.4 366.0 L 979.0 366.0 L 980.7 366.0 L 982.3 366.0 L 983.9 366.0 L 985.6 366.0 L 987.2 366.0 L 988.8 366.0 L 990.4 366.0 L 992.1 366.0 L 993.7 365.8 L 997.6 366.0 L 999.1 366.0 L 1000.8 366.0 L 1002.4 366.0 L 1004.1 366.0 L 1005.7 365.9 L 1007.3 366.0 L 1009.0 366.0 L 1010.6 366.0 L 1012.2 366.0 L 1013.9 366.0 L 1015.5 366.0 L 1017.2 366.0 L 1018.8 366.0 L 1020.4 366.0 L 1022.1 366.0 L 1023.7 366.0 L 1025.3 366.0 L 1026.9 366.0 L 1028.6 366.0 L 1030.3 366.0 L 1031.9 366.0 L 1033.5 366.0 L 1035.1 366.0 L 1036.8 366.0 L 1038.4 366.0 L 1040.0 366.0 L 1041.7 366.0 L 1043.3 366.0 L 1045.0 337.5 L 1046.9 335.9 L 1048.7 345.8 L 1050.8 366.0 L 1052.5 366.0 L 1054.1 337.3 L 1055.9 332.2 L 1057.9 341.0 L 1059.5 366.0 L 1061.3 366.0 L 1062.9 366.0 L 1064.6 366.0 L 1066.2 366.0 L 1067.8 366.0 L 1069.4 366.0 L 1071.1 366.0 L 1072.7 366.0 L 1074.3 366.0 L 1076.0 366.0" fill="none" stroke="#4C78A8" stroke-width="2.8" stroke-linejoin="round" stroke-linecap="round"/>
<path d="M 86.0 366.0 L 87.6 366.0 L 89.2 366.0 L 90.9 366.0 L 92.5 366.0 L 94.1 366.0 L 95.7 366.0 L 97.4 366.0 L 99.0 366.0 L 100.7 118.0 L 102.4 115.4 L 104.1 73.3 L 105.9 365.8 L 107.6 365.8 L 109.3 245.1 L 110.9 365.9 L 112.6 365.9 L 114.2 365.9 L 115.8 365.9 L 117.5 365.9 L 119.2 365.6 L 122.8 365.9 L 124.5 365.9 L 126.2 365.9 L 127.8 365.9 L 129.5 365.9 L 131.1 365.9 L 132.7 365.9 L 134.4 365.9 L 136.1 365.9 L 137.8 365.9 L 139.4 365.9 L 141.0 365.9 L 142.7 365.9 L 144.3 365.9 L 146.0 365.9 L 147.6 365.9 L 149.4 365.9 L 151.0 365.9 L 152.7 365.9 L 154.3 365.9 L 155.9 365.9 L 157.6 365.9 L 159.4 365.9 L 161.1 365.9 L 162.7 365.9 L 164.4 365.9 L 166.0 365.9 L 167.7 365.9 L 169.3 365.9 L 170.9 365.9 L 172.6 365.9 L 174.2 365.9 L 175.8 365.9 L 177.5 365.9 L 179.1 365.9 L 180.8 365.9 L 182.5 365.9 L 184.2 365.9 L 185.8 365.9 L 187.4 365.9 L 189.1 365.9 L 190.7 365.9 L 192.4 365.9 L 194.1 365.9 L 195.8 365.9 L 197.4 365.9 L 199.0 365.9 L 200.7 365.9 L 202.3 365.9 L 204.0 365.9 L 205.6 365.9 L 207.3 365.9 L 208.9 365.9 L 210.6 365.9 L 212.2 365.9 L 213.9 365.9 L 215.5 365.9 L 217.1 365.9 L 218.8 365.9 L 220.4 365.9 L 222.1 365.9 L 223.7 365.9 L 225.3 365.9 L 227.0 365.9 L 228.6 365.9 L 230.3 365.9 L 231.9 365.9 L 233.6 365.9 L 235.2 365.9 L 236.9 365.9 L 238.6 365.9 L 240.2 365.9 L 241.8 365.9 L 243.5 365.9 L 245.4 365.9 L 247.0 365.9 L 248.6 365.9 L 250.3 366.0 L 251.9 365.9 L 253.6 365.9 L 255.2 365.9 L 256.9 365.9 L 258.5 365.9 L 260.2 365.9 L 261.8 365.9 L 263.6 365.9 L 265.3 365.9 L 267.0 365.9 L 268.6 365.9 L 270.3 365.9 L 271.9 365.9 L 273.5 365.9 L 275.2 365.9 L 276.8 365.9 L 278.5 365.9 L 280.3 365.9 L 281.9 365.9 L 283.6 365.9 L 285.2 365.9 L 286.8 365.9 L 288.5 365.9 L 290.1 365.9 L 291.8 365.9 L 293.4 365.9 L 295.1 365.9 L 296.7 365.9 L 298.4 365.9 L 300.0 365.9 L 301.7 365.9 L 303.4 365.9 L 305.0 365.9 L 306.6 365.9 L 308.3 365.9 L 309.9 365.9 L 311.6 365.9 L 313.2 365.9 L 315.0 365.9 L 316.6 365.9 L 318.2 365.9 L 319.9 365.9 L 321.5 365.9 L 323.2 365.9 L 324.8 365.9 L 326.5 365.9 L 328.2 365.9 L 329.9 365.9 L 331.5 365.9 L 333.2 365.9 L 334.8 365.9 L 336.4 365.9 L 338.2 365.9 L 339.9 365.9 L 341.5 365.9 L 343.2 365.9 L 344.8 365.9 L 346.4 365.9 L 348.1 365.9 L 349.8 365.9 L 351.4 365.9 L 353.1 365.9 L 354.7 366.0 L 356.4 146.8 L 358.0 365.9 L 359.7 365.9 L 361.4 365.9 L 363.0 365.9 L 364.7 365.9 L 366.3 365.9 L 368.0 365.9 L 369.6 365.9 L 371.2 365.9 L 372.9 365.9 L 374.5 365.9 L 376.2 365.9 L 377.8 365.9 L 379.5 365.9 L 381.1 365.9 L 382.8 365.9 L 384.5 365.9 L 386.2 365.9 L 387.8 365.9 L 389.4 365.9 L 391.1 365.9 L 392.7 365.9 L 394.4 365.9 L 396.1 365.9 L 397.7 365.8 L 399.3 365.9 L 401.0 365.9 L 402.6 365.9 L 404.3 365.9 L 405.9 365.9 L 407.5 365.9 L 409.2 365.9 L 410.8 365.9 L 412.5 365.9 L 414.1 365.9 L 415.8 365.9 L 417.4 365.9 L 419.1 365.9 L 420.7 365.9 L 422.5 365.9 L 424.2 365.9 L 425.8 365.9 L 427.5 365.9 L 429.1 365.9 L 430.7 365.9 L 432.4 365.9 L 434.2 365.9 L 435.9 365.9 L 437.5 365.9 L 439.2 365.9 L 440.8 365.9 L 442.6 365.9 L 444.2 365.9 L 445.8 365.9 L 447.5 365.9 L 449.1 365.9 L 450.7 365.9 L 452.4 365.9 L 454.1 365.9 L 455.8 365.9 L 457.4 365.9 L 459.0 365.9 L 460.7 365.9 L 462.4 365.9 L 464.0 365.9 L 465.7 366.0 L 467.4 231.2 L 469.2 365.9 L 470.8 365.9 L 472.5 365.9 L 474.1 365.9 L 475.8 365.9 L 477.4 365.8 L 479.1 365.9 L 480.7 365.9 L 482.4 365.9 L 484.0 365.9 L 485.6 365.9 L 487.3 365.9 L 488.9 365.9 L 490.6 365.9 L 492.3 365.9 L 493.9 365.9 L 495.5 365.9 L 497.2 365.9 L 498.8 365.9 L 500.6 365.9 L 502.3 365.9 L 503.9 365.9 L 505.6 365.9 L 507.2 365.9 L 508.9 365.9 L 510.5 365.9 L 512.2 365.9 L 513.8 365.9 L 515.5 365.9 L 517.1 365.9 L 518.8 365.9 L 520.4 365.9 L 522.1 365.9 L 523.8 365.9 L 525.4 365.9 L 527.0 365.9 L 528.7 365.9 L 530.3 365.9 L 531.9 365.9 L 533.6 365.9 L 535.3 365.9 L 536.9 365.9 L 538.6 365.9 L 540.3 365.9 L 541.9 365.9 L 543.5 365.9 L 545.2 365.9 L 546.9 365.9 L 548.5 365.9 L 550.2 365.9 L 551.8 365.9 L 553.5 365.9 L 555.1 365.9 L 556.7 365.9 L 558.5 365.9 L 560.1 365.9 L 561.8 365.9 L 563.4 365.9 L 565.1 365.9 L 566.7 365.9 L 568.3 365.9 L 570.1 365.9 L 571.7 365.9 L 573.4 365.9 L 575.0 365.9 L 576.7 365.9 L 578.3 298.5 L 579.9 365.9 L 581.8 365.9 L 583.4 365.9 L 585.0 365.9 L 586.7 365.9 L 588.3 365.9 L 590.0 365.9 L 591.6 365.9 L 593.5 365.9 L 595.1 365.9 L 596.8 365.9 L 598.4 365.9 L 600.0 365.9 L 601.7 365.9 L 603.3 365.9 L 605.0 365.9 L 606.7 365.9 L 608.3 365.9 L 609.9 365.9 L 611.6 365.9 L 613.2 365.9 L 614.8 365.9 L 616.5 365.9 L 618.2 365.9 L 619.8 365.9 L 621.5 365.9 L 623.1 365.9 L 624.7 365.9 L 626.4 365.9 L 628.1 365.9 L 629.7 365.9 L 631.4 365.9 L 633.0 365.9 L 634.6 365.9 L 636.3 365.9 L 637.9 365.9 L 639.7 365.9 L 641.3 365.9 L 643.0 365.9 L 644.6 365.9 L 646.2 365.9 L 647.9 365.9 L 649.5 365.9 L 651.2 365.9 L 652.9 365.9 L 654.6 365.9 L 656.2 365.9 L 657.8 365.9 L 659.5 365.9 L 661.1 365.9 L 662.9 365.9 L 664.6 365.9 L 666.2 365.9 L 667.8 365.9 L 669.5 365.9 L 671.1 365.9 L 672.7 365.9 L 674.6 365.9 L 676.2 365.9 L 677.9 365.9 L 679.5 365.9 L 681.2 365.8 L 682.8 365.9 L 684.4 365.9 L 686.1 365.9 L 687.8 365.9 L 689.4 365.9 L 691.0 365.9 L 692.7 365.9 L 694.3 365.9 L 696.0 365.9 L 697.7 365.9 L 699.4 365.9 L 701.0 365.9 L 702.6 365.9 L 704.3 365.9 L 705.9 365.9 L 707.6 365.9 L 709.3 298.5 L 711.0 365.9 L 712.6 365.9 L 714.2 365.9 L 715.9 365.9 L 717.5 365.9 L 719.2 365.8 L 720.9 365.9 L 722.6 365.9 L 724.2 365.9 L 725.9 365.9 L 727.5 365.9 L 729.1 365.9 L 730.8 365.9 L 732.6 365.9 L 734.2 365.9 L 735.8 365.9 L 737.5 365.9 L 739.1 365.9 L 740.7 365.9 L 742.4 365.9 L 744.1 365.9 L 745.8 365.9 L 747.4 365.9 L 749.0 365.9 L 750.7 365.9 L 752.3 365.9 L 753.9 365.9 L 755.8 365.9 L 757.4 365.9 L 759.0 365.9 L 760.7 365.9 L 762.3 365.9 L 763.9 365.9 L 765.6 365.9 L 767.4 365.9 L 769.0 365.9 L 770.7 365.9 L 772.3 365.9 L 773.9 365.9 L 775.6 365.9 L 777.2 365.9 L 779.0 365.9 L 780.6 365.9 L 782.2 365.9 L 783.9 365.9 L 785.5 365.9 L 787.1 365.9 L 788.8 365.9 L 790.5 365.9 L 792.1 365.9 L 793.8 365.9 L 795.4 365.9 L 797.1 365.9 L 798.7 365.9 L 800.3 365.9 L 802.1 365.9 L 803.7 365.9 L 805.4 365.9 L 807.0 365.9 L 808.7 365.9 L 810.3 365.9 L 811.9 365.9 L 813.6 365.9 L 815.2 365.9 L 816.9 365.9 L 818.5 365.9 L 820.1 365.9 L 821.8 365.9 L 823.4 365.9 L 825.0 365.9 L 826.7 365.9 L 828.3 365.9 L 830.0 365.9 L 831.7 365.9 L 833.3 365.9 L 834.9 365.9 L 836.6 365.9 L 838.2 365.9 L 839.9 366.0 L 841.6 298.5 L 843.2 365.9 L 845.0 365.9 L 846.6 365.9 L 848.3 365.9 L 849.9 365.8 L 851.7 365.9 L 853.4 365.9 L 855.1 365.9 L 856.7 365.9 L 858.3 365.9 L 860.0 365.9 L 861.6 365.9 L 863.2 365.9 L 864.9 365.9 L 866.6 365.9 L 868.2 365.9 L 869.9 365.9 L 871.5 365.9 L 873.1 365.9 L 874.8 365.9 L 876.5 365.9 L 878.1 365.9 L 879.8 365.9 L 881.4 365.9 L 883.0 365.9 L 884.7 365.9 L 886.5 365.9 L 888.1 365.9 L 889.8 365.9 L 891.4 365.9 L 893.1 365.9 L 894.7 365.9 L 896.3 365.9 L 898.0 365.9 L 899.6 365.9 L 901.3 365.9 L 902.9 365.9 L 904.5 365.9 L 906.2 365.9 L 907.8 365.9 L 909.5 365.9 L 911.2 365.9 L 912.8 365.9 L 914.5 365.9 L 916.1 365.9 L 917.8 365.9 L 919.4 365.9 L 921.0 365.9 L 922.8 365.9 L 924.4 365.9 L 926.2 365.9 L 927.8 365.9 L 929.4 365.9 L 931.1 365.9 L 932.8 365.9 L 934.5 365.9 L 936.1 365.9 L 937.8 365.9 L 939.4 365.9 L 941.1 365.9 L 942.7 365.9 L 944.4 365.9 L 946.1 365.9 L 947.7 365.9 L 949.3 365.9 L 951.0 365.9 L 952.6 365.9 L 954.3 365.9 L 956.0 365.9 L 957.6 365.9 L 959.2 365.9 L 960.9 365.9 L 962.5 365.9 L 964.2 365.9 L 965.8 365.9 L 967.4 365.6 L 969.1 365.8 L 970.8 365.8 L 972.5 365.8 L 974.1 365.8 L 975.8 366.0 L 977.4 366.0 L 979.0 366.0 L 980.7 366.0 L 982.3 366.0 L 983.9 366.0 L 985.6 366.0 L 987.2 366.0 L 988.8 366.0 L 990.4 366.0 L 992.1 366.0 L 993.7 366.0 L 997.6 366.0 L 999.1 366.0 L 1000.8 366.0 L 1002.4 366.0 L 1004.1 366.0 L 1005.7 366.0 L 1007.3 366.0 L 1009.0 366.0 L 1010.6 366.0 L 1012.2 366.0 L 1013.9 366.0 L 1015.5 366.0 L 1017.2 366.0 L 1018.8 366.0 L 1020.4 366.0 L 1022.1 366.0 L 1023.7 366.0 L 1025.3 366.0 L 1026.9 366.0 L 1028.6 366.0 L 1030.3 366.0 L 1031.9 366.0 L 1033.5 366.0 L 1035.1 366.0 L 1036.8 366.0 L 1038.4 366.0 L 1040.0 366.0 L 1041.7 366.0 L 1043.3 231.6 L 1045.0 106.1 L 1046.9 114.7 L 1048.7 366.0 L 1050.8 366.0 L 1052.5 135.4 L 1054.1 119.3 L 1055.9 113.7 L 1057.9 365.9 L 1059.5 365.9 L 1061.3 365.8 L 1062.9 366.0 L 1064.6 366.0 L 1066.2 366.0 L 1067.8 366.0 L 1069.4 366.0 L 1071.1 366.0 L 1072.7 366.0 L 1074.3 366.0 L 1076.0 366.0" fill="none" stroke="#F58518" stroke-width="2.8" stroke-linejoin="round" stroke-linecap="round"/>
<line x1="91.3" y1="44.0" x2="91.3" y2="366.0" stroke="#666" stroke-dasharray="4 4" stroke-width="1.2"/>
<text x="91.3" y="402.0" text-anchor="middle" font-size="12" fill="#444" font-family="Helvetica, Arial, sans-serif">submit</text>
<line x1="1024.0" y1="44.0" x2="1024.0" y2="366.0" stroke="#888" stroke-dasharray="4 4" stroke-width="1.2"/>
<text x="1024.0" y="402.0" text-anchor="middle" font-size="12" fill="#444" font-family="Helvetica, Arial, sans-serif">metrics</text>
<line x1="86.0" y1="44.0" x2="86.0" y2="366.0" stroke="#f5f5f5" stroke-width="1"/>
<text x="86.0" y="418.0" text-anchor="middle" font-size="11" fill="#444" font-family="Helvetica, Arial, sans-serif">-0.14</text>
<line x1="209.8" y1="44.0" x2="209.8" y2="366.0" stroke="#f5f5f5" stroke-width="1"/>
<text x="209.8" y="418.0" text-anchor="middle" font-size="11" fill="#444" font-family="Helvetica, Arial, sans-serif">3.06</text>
<line x1="333.5" y1="44.0" x2="333.5" y2="366.0" stroke="#f5f5f5" stroke-width="1"/>
<text x="333.5" y="418.0" text-anchor="middle" font-size="11" fill="#444" font-family="Helvetica, Arial, sans-serif">6.27</text>
<line x1="457.2" y1="44.0" x2="457.2" y2="366.0" stroke="#f5f5f5" stroke-width="1"/>
<text x="457.2" y="418.0" text-anchor="middle" font-size="11" fill="#444" font-family="Helvetica, Arial, sans-serif">9.47</text>
<line x1="581.0" y1="44.0" x2="581.0" y2="366.0" stroke="#f5f5f5" stroke-width="1"/>
<text x="581.0" y="418.0" text-anchor="middle" font-size="11" fill="#444" font-family="Helvetica, Arial, sans-serif">12.67</text>
<line x1="704.8" y1="44.0" x2="704.8" y2="366.0" stroke="#f5f5f5" stroke-width="1"/>
<text x="704.8" y="418.0" text-anchor="middle" font-size="11" fill="#444" font-family="Helvetica, Arial, sans-serif">15.87</text>
<line x1="828.5" y1="44.0" x2="828.5" y2="366.0" stroke="#f5f5f5" stroke-width="1"/>
<text x="828.5" y="418.0" text-anchor="middle" font-size="11" fill="#444" font-family="Helvetica, Arial, sans-serif">19.07</text>
<line x1="952.2" y1="44.0" x2="952.2" y2="366.0" stroke="#f5f5f5" stroke-width="1"/>
<text x="952.2" y="418.0" text-anchor="middle" font-size="11" fill="#444" font-family="Helvetica, Arial, sans-serif">22.27</text>
<line x1="1076.0" y1="44.0" x2="1076.0" y2="366.0" stroke="#f5f5f5" stroke-width="1"/>
<text x="1076.0" y="418.0" text-anchor="middle" font-size="11" fill="#444" font-family="Helvetica, Arial, sans-serif">25.47</text>
<text x="581.0" y="386.0" text-anchor="middle" font-size="15" fill="#222" font-family="Helvetica, Arial, sans-serif">time since request submit (s)</text>
</svg>