<svg xmlns="http://www.w3.org/2000/svg" width="1100" height="420" viewBox="0 0 1100 420">
<rect width="1100" height="420" fill="white"/>
<text x="86" y="26" font-size="22" font-weight="700" font-family="Helvetica, Arial, sans-serif">tb_session_01_turn_000_seed  phase=seed  turn=0  prompt=24576  peak_tx=3.25 GiB/s  peak_rx=36.64 GiB/s</text>
<line x1="86" y1="366.0" x2="1076" y2="366.0" stroke="#ececec" stroke-width="1"/>
<text x="76" y="370.0" text-anchor="end" font-size="12" fill="#444" font-family="Helvetica, Arial, sans-serif">0.0</text>
<line x1="86" y1="301.6" x2="1076" y2="301.6" stroke="#ececec" stroke-width="1"/>
<text x="76" y="305.6" text-anchor="end" font-size="12" fill="#444" font-family="Helvetica, Arial, sans-serif">8.1</text>
<line x1="86" y1="237.2" x2="1076" y2="237.2" stroke="#ececec" stroke-width="1"/>
<text x="76" y="241.2" text-anchor="end" font-size="12" fill="#444" font-family="Helvetica, Arial, sans-serif">16.1</text>
<line x1="86" y1="172.8" x2="1076" y2="172.8" stroke="#ececec" stroke-width="1"/>
<text x="76" y="176.8" text-anchor="end" font-size="12" fill="#444" font-family="Helvetica, Arial, sans-serif">24.2</text>
<line x1="86" y1="108.4" x2="1076" y2="108.4" stroke="#ececec" stroke-width="1"/>
<text x="76" y="112.4" text-anchor="end" font-size="12" fill="#444" font-family="Helvetica, Arial, sans-serif">32.2</text>
<line x1="86" y1="44.0" x2="1076" y2="44.0" stroke="#ececec" stroke-width="1"/>
<text x="76" y="48.0" text-anchor="end" font-size="12" fill="#444" font-family="Helvetica, Arial, sans-serif">40.3</text>
<line x1="86" y1="366.0" x2="1076" y2="366.0" stroke="#222" stroke-width="1.4"/>
<line x1="86" y1="44.0" x2="86" y2="366.0" stroke="#222" stroke-width="1.4"/>
<rect x="121.3" y="44.0" width="553.9" height="322.0" fill="#4C78A8" opacity="0.08"/>
<path d="M 86.0 366.0 L 98.5 366.0 L 110.9 366.0 L 123.4 366.0 L 136.2 366.0 L 148.6 366.0 L 161.1 366.0 L 173.6 366.0 L 186.0 366.0 L 198.5 366.0 L 211.3 340.5 L 224.6 340.7 L 238.0 340.0 L 251.9 365.9 L 264.7 365.9 L 277.2 365.9 L 289.9 365.9 L 302.7 365.9 L 315.5 366.0 L 328.2 366.0 L 340.7 366.0 L 353.2 366.0 L 365.6 366.0 L 378.1 366.0 L 390.9 366.0 L 403.6 366.0 L 416.1 366.0 L 428.6 366.0 L 441.0 366.0 L 453.5 366.0 L 466.6 366.0 L 479.0 366.0 L 491.5 366.0 L 504.0 366.0 L 516.4 366.0 L 528.9 366.0 L 541.4 366.0 L 554.1 366.0 L 566.6 366.0 L 579.1 366.0 L 591.5 366.0 L 604.0 366.0 L 616.5 366.0 L 629.2 366.0 L 641.7 366.0 L 654.2 366.0 L 666.6 366.0 L 679.1 366.0 L 691.6 366.0 L 704.0 366.0 L 716.5 366.0 L 729.3 366.0 L 741.7 366.0 L 754.2 366.0 L 767.0 340.7 L 783.6 340.4 L 799.0 352.8 L 811.8 365.9 L 824.6 365.9 L 837.3 365.9 L 850.1 365.9 L 862.9 366.0 L 875.3 366.0 L 887.8 366.0 L 900.3 366.0 L 913.0 366.0 L 925.8 366.0 L 938.3 366.0 L 950.7 366.0 L 963.2 366.0 L 976.0 366.0 L 988.4 366.0 L 1000.9 366.0 L 1013.4 366.0 L 1025.8 366.0 L 1038.3 366.0 L 1051.1 366.0 L 1063.5 366.0 L 1076.0 366.0" fill="none" stroke="#4C78A8" stroke-width="2.8" stroke-linejoin="round" stroke-linecap="round"/>
<path d="M 86.0 366.0 L 98.5 366.0 L 110.9 366.0 L 123.4 366.0 L 136.2 365.9 L 148.6 365.9 L 161.1 366.0 L 173.6 365.9 L 186.0 366.0 L 198.5 234.3 L 211.3 144.5 L 224.6 141.9 L 238.0 305.8 L 251.9 365.8 L 264.7 365.8 L 277.2 365.8 L 289.9 365.8 L 302.7 366.0 L 315.5 366.0 L 328.2 366.0 L 340.7 366.0 L 353.2 366.0 L 365.6 366.0 L 378.1 366.0 L 390.9 366.0 L 403.6 366.0 L 416.1 366.0 L 428.6 366.0 L 441.0 366.0 L 453.5 365.9 L 466.6 366.0 L 479.0 366.0 L 491.5 366.0 L 504.0 366.0 L 516.4 366.0 L 528.9 366.0 L 541.4 366.0 L 554.1 366.0 L 566.6 366.0 L 579.1 366.0 L 591.5 366.0 L 604.0 366.0 L 616.5 366.0 L 629.2 366.0 L 641.7 366.0 L 654.2 366.0 L 666.6 366.0 L 679.1 366.0 L 691.6 366.0 L 704.0 366.0 L 716.5 366.0 L 729.3 366.0 L 741.7 366.0 L 754.2 216.6 L 767.0 73.3 L 783.6 144.2 L 799.0 365.8 L 811.8 365.8 L 824.6 365.8 L 837.3 365.8 L 850.1 365.8 L 862.9 366.0 L 875.3 366.0 L 887.8 366.0 L 900.3 366.0 L 913.0 366.0 L 925.8 366.0 L 938.3 366.0 L 950.7 366.0 L 963.2 366.0 L 976.0 366.0 L 988.4 366.0 L 1000.9 366.0 L 1013.4 366.0 L 1025.8 366.0 L 1038.3 366.0 L 1051.1 366.0 L 1063.5 366.0 L 1076.0 366.0" fill="none" stroke="#F58518" stroke-width="2.8" stroke-linejoin="round" stroke-linecap="round"/>
<line x1="121.3" y1="44.0" x2="121.3" y2="366.0" stroke="#666" stroke-dasharray="4 4" stroke-width="1.2"/>
<text x="121.3" y="402.0" text-anchor="middle" font-size="12" fill="#444" font-family="Helvetica, Arial, sans-serif">submit</text>
<line x1="675.3" y1="44.0" x2="675.3" y2="366.0" stroke="#888" stroke-dasharray="4 4" stroke-width="1.2"/>
<text x="675.3" y="402.0" text-anchor="middle" font-size="12" fill="#444" font-family="Helvetica, Arial, sans-serif">metrics</text>
<line x1="86.0" y1="44.0" x2="86.0" y2="366.0" stroke="#f5f5f5" stroke-width="1"/>
<text x="86.0" y="418.0" text-anchor="middle" font-size="11" fill="#444" font-family="Helvetica, Arial, sans-serif">-0.12</text>
<line x1="209.8" y1="44.0" x2="209.8" y2="366.0" stroke="#f5f5f5" stroke-width="1"/>
<text x="209.8" y="418.0" text-anchor="middle" font-size="11" fill="#444" font-family="Helvetica, Arial, sans-serif">0.30</text>
<line x1="333.5" y1="44.0" x2="333.5" y2="366.0" stroke="#f5f5f5" stroke-width="1"/>
<text x="333.5" y="418.0" text-anchor="middle" font-size="11" fill="#444" font-family="Helvetica, Arial, sans-serif">0.71</text>
<line x1="457.2" y1="44.0" x2="457.2" y2="366.0" stroke="#f5f5f5" stroke-width="1"/>
<text x="457.2" y="418.0" text-anchor="middle" font-size="11" fill="#444" font-family="Helvetica, Arial, sans-serif">1.13</text>
<line x1="581.0" y1="44.0" x2="581.0" y2="366.0" stroke="#f5f5f5" stroke-width="1"/>
<text x="581.0" y="418.0" text-anchor="middle" font-size="11" fill="#444" font-family="Helvetica, Arial, sans-serif">1.55</text>
<line x1="704.8" y1="44.0" x2="704.8" y2="366.0" stroke="#f5f5f5" stroke-width="1"/>
<text x="704.8" y="418.0" text-anchor="middle" font-size="11" fill="#444" font-family="Helvetica, Arial, sans-serif">1.97</text>
<line x1="828.5" y1="44.0" x2="828.5" y2="366.0" stroke="#f5f5f5" stroke-width="1"/>
<text x="828.5" y="418.0" text-anchor="middle" font-size="11" fill="#444" font-family="Helvetica, Arial, sans-serif">2.38</text>
<line x1="952.2" y1="44.0" x2="952.2" y2="366.0" stroke="#f5f5f5" stroke-width="1"/>
<text x="952.2" y="418.0" text-anchor="middle" font-size="11" fill="#444" font-family="Helvetica, Arial, sans-serif">2.80</text>
<line x1="1076.0" y1="44.0" x2="1076.0" y2="366.0" stroke="#f5f5f5" stroke-width="1"/>
<text x="1076.0" y="418.0" text-anchor="middle" font-size="11" fill="#444" font-family="Helvetica, Arial, sans-serif">3.22</text>
<text x="581.0" y="386.0" text-anchor="middle" font-size="15" fill="#222" font-family="Helvetica, Arial, sans-serif">time since request submit (s)</text>
</svg>