<svg xmlns="http://www.w3.org/2000/svg" width="1100" height="420" viewBox="0 0 1100 420">
<rect width="1100" height="420" fill="white"/>
<text x="86" y="26" font-size="22" font-weight="700" font-family="Helvetica, Arial, sans-serif">tb_session_07_turn_000_seed  phase=seed  turn=0  prompt=24576  peak_tx=3.22 GiB/s  peak_rx=33.68 GiB/s</text>
<line x1="86" y1="366.0" x2="1076" y2="366.0" stroke="#ececec" stroke-width="1"/>
<text x="76" y="370.0" text-anchor="end" font-size="12" fill="#444" font-family="Helvetica, Arial, sans-serif">0.0</text>
<line x1="86" y1="301.6" x2="1076" y2="301.6" stroke="#ececec" stroke-width="1"/>
<text x="76" y="305.6" text-anchor="end" font-size="12" fill="#444" font-family="Helvetica, Arial, sans-serif">7.4</text>
<line x1="86" y1="237.2" x2="1076" y2="237.2" stroke="#ececec" stroke-width="1"/>
<text x="76" y="241.2" text-anchor="end" font-size="12" fill="#444" font-family="Helvetica, Arial, sans-serif">14.8</text>
<line x1="86" y1="172.8" x2="1076" y2="172.8" stroke="#ececec" stroke-width="1"/>
<text x="76" y="176.8" text-anchor="end" font-size="12" fill="#444" font-family="Helvetica, Arial, sans-serif">22.2</text>
<line x1="86" y1="108.4" x2="1076" y2="108.4" stroke="#ececec" stroke-width="1"/>
<text x="76" y="112.4" text-anchor="end" font-size="12" fill="#444" font-family="Helvetica, Arial, sans-serif">29.6</text>
<line x1="86" y1="44.0" x2="1076" y2="44.0" stroke="#ececec" stroke-width="1"/>
<text x="76" y="48.0" text-anchor="end" font-size="12" fill="#444" font-family="Helvetica, Arial, sans-serif">37.0</text>
<line x1="86" y1="366.0" x2="1076" y2="366.0" stroke="#222" stroke-width="1.4"/>
<line x1="86" y1="44.0" x2="86" y2="366.0" stroke="#222" stroke-width="1.4"/>
<rect x="153.1" y="44.0" width="952.8" height="322.0" fill="#4C78A8" opacity="0.08"/>
<path d="M 86.0 366.0 L 107.7 366.0 L 129.4 366.0 L 151.1 366.0 L 172.8 366.0 L 195.0 366.0 L 217.2 366.0 L 238.9 366.0 L 260.6 366.0 L 282.2 362.5 L 305.0 338.0 L 328.2 338.2 L 353.5 348.6 L 376.2 365.9 L 398.4 365.9 L 420.1 365.9 L 442.3 365.9 L 465.6 366.0 L 487.3 366.0 L 509.0 366.0 L 530.6 366.0 L 552.9 366.0 L 574.5 366.0 L 596.2 366.0 L 618.4 366.0 L 640.1 366.0 L 662.3 366.0 L 684.0 366.0 L 705.7 366.0 L 727.4 366.0 L 749.1 366.0 L 770.8 366.0 L 792.5 366.0 L 814.7 366.0 L 836.4 366.0 L 858.1 366.0 L 879.8 365.9 L 902.0 366.0 L 923.7 366.0 L 945.3 366.0 L 967.0 366.0 L 989.2 366.0 L 1010.9 366.0 L 1032.6 366.0 L 1054.3 366.0 L 1076.0 366.0" fill="none" stroke="#4C78A8" stroke-width="2.8" stroke-linejoin="round" stroke-linecap="round"/>
<path d="M 86.0 366.0 L 107.7 366.0 L 129.4 366.0 L 151.1 366.0 L 172.8 366.0 L 195.0 366.0 L 217.2 366.0 L 238.9 366.0 L 260.6 366.0 L 282.2 123.5 L 305.0 125.3 L 328.2 73.3 L 353.5 365.7 L 376.2 365.8 L 398.4 365.8 L 420.1 365.8 L 442.3 365.8 L 465.6 366.0 L 487.3 366.0 L 509.0 366.0 L 530.6 366.0 L 552.9 366.0 L 574.5 366.0 L 596.2 366.0 L 618.4 366.0 L 640.1 366.0 L 662.3 366.0 L 684.0 366.0 L 705.7 366.0 L 727.4 366.0 L 749.1 366.0 L 770.8 366.0 L 792.5 366.0 L 814.7 366.0 L 836.4 366.0 L 858.1 366.0 L 879.8 366.0 L 902.0 366.0 L 923.7 366.0 L 945.3 366.0 L 967.0 366.0 L 989.2 366.0 L 1010.9 366.0 L 1032.6 366.0 L 1054.3 366.0 L 1076.0 366.0" fill="none" stroke="#F58518" stroke-width="2.8" stroke-linejoin="round" stroke-linecap="round"/>
<line x1="153.1" y1="44.0" x2="153.1" y2="366.0" stroke="#666" stroke-dasharray="4 4" stroke-width="1.2"/>
<text x="153.1" y="402.0" text-anchor="middle" font-size="12" fill="#444" font-family="Helvetica, Arial, sans-serif">submit</text>
<line x1="1106.0" y1="44.0" x2="1106.0" y2="366.0" stroke="#888" stroke-dasharray="4 4" stroke-width="1.2"/>
<text x="1106.0" y="402.0" text-anchor="middle" font-size="12" fill="#444" font-family="Helvetica, Arial, sans-serif">metrics</text>
<line x1="86.0" y1="44.0" x2="86.0" y2="366.0" stroke="#f5f5f5" stroke-width="1"/>
<text x="86.0" y="418.0" text-anchor="middle" font-size="11" fill="#444" font-family="Helvetica, Arial, sans-serif">-0.13</text>
<line x1="209.8" y1="44.0" x2="209.8" y2="366.0" stroke="#f5f5f5" stroke-width="1"/>
<text x="209.8" y="418.0" text-anchor="middle" font-size="11" fill="#444" font-family="Helvetica, Arial, sans-serif">0.11</text>
<line x1="333.5" y1="44.0" x2="333.5" y2="366.0" stroke="#f5f5f5" stroke-width="1"/>
<text x="333.5" y="418.0" text-anchor="middle" font-size="11" fill="#444" font-family="Helvetica, Arial, sans-serif">0.35</text>
<line x1="457.2" y1="44.0" x2="457.2" y2="366.0" stroke="#f5f5f5" stroke-width="1"/>
<text x="457.2" y="418.0" text-anchor="middle" font-size="11" fill="#444" font-family="Helvetica, Arial, sans-serif">0.59</text>
<line x1="581.0" y1="44.0" x2="581.0" y2="366.0" stroke="#f5f5f5" stroke-width="1"/>
<text x="581.0" y="418.0" text-anchor="middle" font-size="11" fill="#444" font-family="Helvetica, Arial, sans-serif">0.83</text>
<line x1="704.7" y1="44.0" x2="704.7" y2="366.0" stroke="#f5f5f5" stroke-width="1"/>
<text x="704.7" y="418.0" text-anchor="middle" font-size="11" fill="#444" font-family="Helvetica, Arial, sans-serif">1.07</text>
<line x1="828.5" y1="44.0" x2="828.5" y2="366.0" stroke="#f5f5f5" stroke-width="1"/>
<text x="828.5" y="418.0" text-anchor="middle" font-size="11" fill="#444" font-family="Helvetica, Arial, sans-serif">1.31</text>
<line x1="952.2" y1="44.0" x2="952.2" y2="366.0" stroke="#f5f5f5" stroke-width="1"/>
<text x="952.2" y="418.0" text-anchor="middle" font-size="11" fill="#444" font-family="Helvetica, Arial, sans-serif">1.55</text>
<line x1="1076.0" y1="44.0" x2="1076.0" y2="366.0" stroke="#f5f5f5" stroke-width="1"/>
<text x="1076.0" y="418.0" text-anchor="middle" font-size="11" fill="#444" font-family="Helvetica, Arial, sans-serif">1.79</text>
<text x="581.0" y="386.0" text-anchor="middle" font-size="15" fill="#222" font-family="Helvetica, Arial, sans-serif">time since request submit (s)</text>
</svg>