<svg xmlns="http://www.w3.org/2000/svg" width="1100" height="420" viewBox="0 0 1100 420">
<rect width="1100" height="420" fill="white"/>
<text x="86" y="26" font-size="22" font-weight="700" font-family="Helvetica, Arial, sans-serif">tb_session_03_turn_000_seed  phase=seed  turn=0  prompt=24576  peak_tx=3.48 GiB/s  peak_rx=28.19 GiB/s</text>
<line x1="86" y1="366.0" x2="1076" y2="366.0" stroke="#ececec" stroke-width="1"/>
<text x="76" y="370.0" text-anchor="end" font-size="12" fill="#444" font-family="Helvetica, Arial, sans-serif">0.0</text>
<line x1="86" y1="301.6" x2="1076" y2="301.6" stroke="#ececec" stroke-width="1"/>
<text x="76" y="305.6" text-anchor="end" font-size="12" fill="#444" font-family="Helvetica, Arial, sans-serif">6.2</text>
<line x1="86" y1="237.2" x2="1076" y2="237.2" stroke="#ececec" stroke-width="1"/>
<text x="76" y="241.2" text-anchor="end" font-size="12" fill="#444" font-family="Helvetica, Arial, sans-serif">12.4</text>
<line x1="86" y1="172.8" x2="1076" y2="172.8" stroke="#ececec" stroke-width="1"/>
<text x="76" y="176.8" text-anchor="end" font-size="12" fill="#444" font-family="Helvetica, Arial, sans-serif">18.6</text>
<line x1="86" y1="108.4" x2="1076" y2="108.4" stroke="#ececec" stroke-width="1"/>
<text x="76" y="112.4" text-anchor="end" font-size="12" fill="#444" font-family="Helvetica, Arial, sans-serif">24.8</text>
<line x1="86" y1="44.0" x2="1076" y2="44.0" stroke="#ececec" stroke-width="1"/>
<text x="76" y="48.0" text-anchor="end" font-size="12" fill="#444" font-family="Helvetica, Arial, sans-serif">31.0</text>
<line x1="86" y1="366.0" x2="1076" y2="366.0" stroke="#222" stroke-width="1.4"/>
<line x1="86" y1="44.0" x2="86" y2="366.0" stroke="#222" stroke-width="1.4"/>
<rect x="122.4" y="44.0" width="554.5" height="322.0" fill="#4C78A8" opacity="0.08"/>
<path d="M 86.0 366.0 L 98.6 366.0 L 111.5 366.0 L 124.2 366.0 L 137.7 366.0 L 150.3 366.0 L 162.9 366.0 L 175.6 366.0 L 188.2 366.0 L 200.8 345.0 L 214.3 332.7 L 227.6 332.0 L 241.4 354.0 L 254.3 365.9 L 267.2 365.9 L 280.2 365.9 L 292.8 365.9 L 305.7 366.0 L 318.3 366.0 L 332.1 366.0 L 345.1 366.0 L 357.7 366.0 L 370.3 366.0 L 382.9 366.0 L 395.6 366.0 L 408.2 366.0 L 421.1 366.0 L 433.7 366.0 L 446.7 366.0 L 459.3 366.0 L 471.9 366.0 L 484.5 366.0 L 497.1 366.0 L 510.1 366.0 L 522.7 366.0 L 535.9 366.0 L 548.5 366.0 L 561.2 366.0 L 573.8 366.0 L 586.4 365.9 L 599.3 366.0 L 612.0 366.0 L 624.6 366.0 L 637.2 366.0 L 650.1 366.0 L 662.7 366.0 L 675.4 366.0 L 688.0 366.0 L 700.6 366.0 L 713.2 366.0 L 725.9 366.0 L 738.8 366.0 L 751.4 366.0 L 764.0 337.1 L 780.0 332.8 L 793.2 329.8 L 808.8 365.9 L 821.4 365.9 L 834.4 365.9 L 847.3 365.9 L 860.2 365.9 L 873.4 366.0 L 886.1 366.0 L 898.7 366.0 L 911.3 366.0 L 923.9 366.0 L 936.5 366.0 L 949.2 366.0 L 962.1 366.0 L 974.7 366.0 L 987.3 366.0 L 1000.3 366.0 L 1012.9 366.0 L 1025.5 366.0 L 1038.1 366.0 L 1050.8 366.0 L 1063.4 366.0 L 1076.0 366.0" fill="none" stroke="#4C78A8" stroke-width="2.8" stroke-linejoin="round" stroke-linecap="round"/>
<path d="M 86.0 366.0 L 98.6 366.0 L 111.5 366.0 L 124.2 366.0 L 137.7 366.0 L 150.3 366.0 L 162.9 366.0 L 175.6 366.0 L 188.2 366.0 L 200.8 78.2 L 214.3 75.8 L 227.6 78.4 L 241.4 365.7 L 254.3 365.7 L 267.2 365.7 L 280.2 365.7 L 292.8 365.7 L 305.7 366.0 L 318.3 366.0 L 332.1 366.0 L 345.1 366.0 L 357.7 366.0 L 370.3 366.0 L 382.9 366.0 L 395.6 366.0 L 408.2 366.0 L 421.1 366.0 L 433.7 366.0 L 446.7 366.0 L 459.3 366.0 L 471.9 366.0 L 484.5 366.0 L 497.1 366.0 L 510.1 366.0 L 522.7 366.0 L 535.9 366.0 L 548.5 366.0 L 561.2 366.0 L 573.8 366.0 L 586.4 366.0 L 599.3 366.0 L 612.0 366.0 L 624.6 366.0 L 637.2 366.0 L 650.1 366.0 L 662.7 366.0 L 675.4 366.0 L 688.0 366.0 L 700.6 366.0 L 713.2 366.0 L 725.9 365.9 L 738.8 366.0 L 751.4 366.0 L 764.0 73.3 L 780.0 76.0 L 793.2 205.7 L 808.8 365.7 L 821.4 365.7 L 834.4 365.7 L 847.3 365.7 L 860.2 365.9 L 873.4 366.0 L 886.1 366.0 L 898.7 365.9 L 911.3 365.9 L 923.9 366.0 L 936.5 366.0 L 949.2 366.0 L 962.1 366.0 L 974.7 366.0 L 987.3 366.0 L 1000.3 366.0 L 1012.9 366.0 L 1025.5 366.0 L 1038.1 366.0 L 1050.8 366.0 L 1063.4 366.0 L 1076.0 366.0" fill="none" stroke="#F58518" stroke-width="2.8" stroke-linejoin="round" stroke-linecap="round"/>
<line x1="122.4" y1="44.0" x2="122.4" y2="366.0" stroke="#666" stroke-dasharray="4 4" stroke-width="1.2"/>
<text x="122.4" y="402.0" text-anchor="middle" font-size="12" fill="#444" font-family="Helvetica, Arial, sans-serif">submit</text>
<line x1="676.9" y1="44.0" x2="676.9" y2="366.0" stroke="#888" stroke-dasharray="4 4" stroke-width="1.2"/>
<text x="676.9" y="402.0" text-anchor="middle" font-size="12" fill="#444" font-family="Helvetica, Arial, sans-serif">metrics</text>
<line x1="86.0" y1="44.0" x2="86.0" y2="366.0" stroke="#f5f5f5" stroke-width="1"/>
<text x="86.0" y="418.0" text-anchor="middle" font-size="11" fill="#444" font-family="Helvetica, Arial, sans-serif">-0.12</text>
<line x1="209.8" y1="44.0" x2="209.8" y2="366.0" stroke="#f5f5f5" stroke-width="1"/>
<text x="209.8" y="418.0" text-anchor="middle" font-size="11" fill="#444" font-family="Helvetica, Arial, sans-serif">0.29</text>
<line x1="333.5" y1="44.0" x2="333.5" y2="366.0" stroke="#f5f5f5" stroke-width="1"/>
<text x="333.5" y="418.0" text-anchor="middle" font-size="11" fill="#444" font-family="Helvetica, Arial, sans-serif">0.70</text>
<line x1="457.2" y1="44.0" x2="457.2" y2="366.0" stroke="#f5f5f5" stroke-width="1"/>
<text x="457.2" y="418.0" text-anchor="middle" font-size="11" fill="#444" font-family="Helvetica, Arial, sans-serif">1.11</text>
<line x1="581.0" y1="44.0" x2="581.0" y2="366.0" stroke="#f5f5f5" stroke-width="1"/>
<text x="581.0" y="418.0" text-anchor="middle" font-size="11" fill="#444" font-family="Helvetica, Arial, sans-serif">1.53</text>
<line x1="704.8" y1="44.0" x2="704.8" y2="366.0" stroke="#f5f5f5" stroke-width="1"/>
<text x="704.8" y="418.0" text-anchor="middle" font-size="11" fill="#444" font-family="Helvetica, Arial, sans-serif">1.94</text>
<line x1="828.5" y1="44.0" x2="828.5" y2="366.0" stroke="#f5f5f5" stroke-width="1"/>
<text x="828.5" y="418.0" text-anchor="middle" font-size="11" fill="#444" font-family="Helvetica, Arial, sans-serif">2.35</text>
<line x1="952.2" y1="44.0" x2="952.2" y2="366.0" stroke="#f5f5f5" stroke-width="1"/>
<text x="952.2" y="418.0" text-anchor="middle" font-size="11" fill="#444" font-family="Helvetica, Arial, sans-serif">2.76</text>
<line x1="1076.0" y1="44.0" x2="1076.0" y2="366.0" stroke="#f5f5f5" stroke-width="1"/>
<text x="1076.0" y="418.0" text-anchor="middle" font-size="11" fill="#444" font-family="Helvetica, Arial, sans-serif">3.17</text>
<text x="581.0" y="386.0" text-anchor="middle" font-size="15" fill="#222" font-family="Helvetica, Arial, sans-serif">time since request submit (s)</text>
</svg>