<svg xmlns="http://www.w3.org/2000/svg" width="1100" height="1462" viewBox="0 0 1100 1462">
<rect width="1100" height="1462" fill="white"/>
<text x="76" y="28" font-size="24" font-weight="700" font-family="Helvetica, Arial, sans-serif">PCIe Request Zooms: pd_external_prefix_imitation_qwen3_8b</text>
<text x="76" y="36" font-size="15" font-weight="600" fill="#222" font-family="Helvetica, Arial, sans-serif">turn_000_seed  phase=seed  turn=0  prompt=24832  peak_tx=15.45 GiB/s  peak_rx=35.53 GiB/s</text>
<rect x="97.5" y="48.0" width="759.6" height="142.0" fill="#4C78A8" opacity="0.08"/>
<line x1="76" y1="190.0" x2="1078" y2="190.0" stroke="#ececec" stroke-width="1"/>
<text x="68" y="194.0" text-anchor="end" font-size="11" fill="#444" font-family="Helvetica, Arial, sans-serif">0.0</text>
<line x1="76" y1="161.6" x2="1078" y2="161.6" stroke="#ececec" stroke-width="1"/>
<text x="68" y="165.6" text-anchor="end" font-size="11" fill="#444" font-family="Helvetica, Arial, sans-serif">7.8</text>
<line x1="76" y1="133.2" x2="1078" y2="133.2" stroke="#ececec" stroke-width="1"/>
<text x="68" y="137.2" text-anchor="end" font-size="11" fill="#444" font-family="Helvetica, Arial, sans-serif">15.6</text>
<line x1="76" y1="104.8" x2="1078" y2="104.8" stroke="#ececec" stroke-width="1"/>
<text x="68" y="108.8" text-anchor="end" font-size="11" fill="#444" font-family="Helvetica, Arial, sans-serif">23.4</text>
<line x1="76" y1="76.4" x2="1078" y2="76.4" stroke="#ececec" stroke-width="1"/>
<text x="68" y="80.4" text-anchor="end" font-size="11" fill="#444" font-family="Helvetica, Arial, sans-serif">31.3</text>
<line x1="76" y1="48.0" x2="1078" y2="48.0" stroke="#ececec" stroke-width="1"/>
<text x="68" y="52.0" text-anchor="end" font-size="11" fill="#444" font-family="Helvetica, Arial, sans-serif">39.1</text>
<line x1="76" y1="190.0" x2="1078" y2="190.0" stroke="#222" stroke-width="1.2"/>
<line x1="76" y1="48.0" x2="76" y2="190.0" stroke="#222" stroke-width="1.2"/>
<path d="M 76.0 190.0 L 82.9 190.0 L 89.8 190.0 L 96.9 190.0 L 103.8 190.0 L 110.7 190.0 L 117.6 190.0 L 124.7 190.0 L 131.7 190.0 L 138.6 161.6 L 145.5 190.0 L 152.6 190.0 L 159.5 190.0 L 166.6 149.1 L 173.8 190.0 L 180.9 190.0 L 187.8 190.0 L 194.8 190.0 L 201.7 144.1 L 217.5 190.0 L 224.4 190.0 L 231.3 190.0 L 238.4 189.1 L 245.3 190.0 L 252.2 190.0 L 259.9 190.0 L 266.8 190.0 L 273.9 133.9 L 280.8 190.0 L 287.7 190.0 L 294.8 190.0 L 301.7 190.0 L 309.2 190.0 L 316.1 172.9 L 323.2 190.0 L 330.1 190.0 L 337.0 190.0 L 344.1 190.0 L 351.0 190.0 L 358.2 146.7 L 365.1 190.0 L 372.2 190.0 L 379.1 190.0 L 386.0 190.0 L 393.1 190.0 L 400.0 190.0 L 407.4 190.0 L 414.3 190.0 L 421.3 190.0 L 428.2 190.0 L 435.3 190.0 L 442.2 190.0 L 449.1 166.4 L 456.7 190.0 L 463.6 190.0 L 470.7 190.0 L 477.6 190.0 L 484.5 190.0 L 491.5 190.0 L 498.6 190.0 L 506.0 190.0 L 512.9 190.0 L 520.0 190.0 L 526.9 190.0 L 533.9 190.0 L 540.8 190.0 L 547.7 190.0 L 555.3 133.9 L 562.2 190.0 L 569.3 190.0 L 576.2 190.0 L 583.1 190.0 L 590.1 190.0 L 597.1 190.0 L 604.6 190.0 L 611.7 133.9 L 618.6 190.0 L 625.5 190.0 L 632.6 190.0 L 639.5 190.0 L 646.5 190.0 L 654.6 190.0 L 661.5 190.0 L 668.4 190.0 L 675.5 190.0 L 683.5 190.0 L 690.7 190.0 L 697.8 190.0 L 704.7 190.0 L 711.6 190.0 L 718.5 190.0 L 725.4 190.0 L 732.3 190.0 L 739.2 190.0 L 746.3 190.0 L 753.4 190.0 L 760.3 190.0 L 767.3 190.0 L 774.2 190.0 L 781.1 190.0 L 788.1 190.0 L 795.0 190.0 L 802.2 190.0 L 809.3 190.0 L 816.2 190.0 L 823.1 190.0 L 830.0 190.0 L 836.9 190.0 L 843.8 190.0 L 850.7 190.0 L 857.7 190.0 L 864.6 190.0 L 871.7 190.0 L 878.6 190.0 L 885.5 190.0 L 892.6 190.0 L 899.5 190.0 L 906.4 190.0 L 914.5 190.0 L 921.7 190.0 L 928.8 190.0 L 935.7 190.0 L 942.6 188.8 L 950.0 178.6 L 957.4 178.4 L 965.6 183.5 L 973.1 190.0 L 980.0 190.0 L 987.3 190.0 L 994.2 190.0 L 1001.4 190.0 L 1008.3 190.0 L 1015.4 190.0 L 1022.3 190.0 L 1029.2 190.0 L 1036.2 190.0 L 1043.3 190.0 L 1050.2 190.0 L 1057.1 190.0 L 1064.2 190.0 L 1071.1 190.0 L 1078.0 190.0" fill="none" stroke="#4C78A8" stroke-width="2.4" stroke-linejoin="round" stroke-linecap="round"/>
<path d="M 76.0 190.0 L 82.9 190.0 L 89.8 190.0 L 96.9 190.0 L 103.8 190.0 L 110.7 190.0 L 117.6 190.0 L 124.7 190.0 L 131.7 190.0 L 138.6 190.0 L 145.5 190.0 L 152.6 190.0 L 159.5 190.0 L 166.6 190.0 L 173.8 190.0 L 180.9 190.0 L 187.8 190.0 L 194.8 190.0 L 201.7 189.8 L 217.5 190.0 L 224.4 190.0 L 231.3 190.0 L 238.4 190.0 L 245.3 190.0 L 252.2 190.0 L 259.9 190.0 L 266.8 190.0 L 273.9 190.0 L 280.8 190.0 L 287.7 190.0 L 294.8 190.0 L 301.7 190.0 L 309.2 190.0 L 316.1 190.0 L 323.2 190.0 L 330.1 190.0 L 337.0 190.0 L 344.1 190.0 L 351.0 190.0 L 358.2 190.0 L 365.1 190.0 L 372.2 190.0 L 379.1 190.0 L 386.0 190.0 L 393.1 190.0 L 400.0 190.0 L 407.4 190.0 L 414.3 190.0 L 421.3 190.0 L 428.2 190.0 L 435.3 190.0 L 442.2 190.0 L 449.1 190.0 L 456.7 190.0 L 463.6 190.0 L 470.7 190.0 L 477.6 190.0 L 484.5 190.0 L 491.5 190.0 L 498.6 190.0 L 506.0 190.0 L 512.9 190.0 L 520.0 190.0 L 526.9 190.0 L 533.9 190.0 L 540.8 190.0 L 547.7 190.0 L 555.3 190.0 L 562.2 190.0 L 569.3 190.0 L 576.2 190.0 L 583.1 190.0 L 590.1 190.0 L 597.1 190.0 L 604.6 190.0 L 611.7 189.9 L 618.6 189.9 L 625.5 189.9 L 632.6 189.9 L 639.5 189.9 L 646.5 189.9 L 654.6 190.0 L 661.5 190.0 L 668.4 190.0 L 675.5 190.0 L 683.5 190.0 L 690.7 190.0 L 697.8 190.0 L 704.7 190.0 L 711.6 190.0 L 718.5 190.0 L 725.4 190.0 L 732.3 190.0 L 739.2 190.0 L 746.3 190.0 L 753.4 190.0 L 760.3 190.0 L 767.3 190.0 L 774.2 190.0 L 781.1 190.0 L 788.1 190.0 L 795.0 190.0 L 802.2 190.0 L 809.3 190.0 L 816.2 190.0 L 823.1 190.0 L 830.0 190.0 L 836.9 190.0 L 843.8 190.0 L 850.7 190.0 L 857.7 190.0 L 864.6 190.0 L 871.7 190.0 L 878.6 190.0 L 885.5 190.0 L 892.6 190.0 L 899.5 190.0 L 906.4 190.0 L 914.5 190.0 L 921.7 190.0 L 928.8 190.0 L 935.7 190.0 L 942.6 82.3 L 950.0 88.5 L 957.4 60.9 L 965.6 189.9 L 973.1 189.9 L 980.0 189.9 L 987.3 189.9 L 994.2 189.9 L 1001.4 189.9 L 1008.3 190.0 L 1015.4 190.0 L 1022.3 190.0 L 1029.2 190.0 L 1036.2 190.0 L 1043.3 190.0 L 1050.2 190.0 L 1057.1 190.0 L 1064.2 190.0 L 1071.1 190.0 L 1078.0 190.0" fill="none" stroke="#F58518" stroke-width="2.4" stroke-linejoin="round" stroke-linecap="round"/>
<line x1="97.5" y1="48.0" x2="97.5" y2="190.0" stroke="#666" stroke-dasharray="4 4" stroke-width="1.2"/>
<text x="97.5" y="208.0" text-anchor="middle" font-size="11" fill="#444" font-family="Helvetica, Arial, sans-serif">submit</text>
<line x1="857.1" y1="48.0" x2="857.1" y2="190.0" stroke="#888" stroke-dasharray="4 4" stroke-width="1.2"/>
<text x="857.1" y="208.0" text-anchor="middle" font-size="11" fill="#444" font-family="Helvetica, Arial, sans-serif">metrics</text>
<line x1="76.0" y1="48.0" x2="76.0" y2="190.0" stroke="#f5f5f5" stroke-width="1"/>
<text x="76.0" y="224.0" text-anchor="middle" font-size="11" fill="#444" font-family="Helvetica, Arial, sans-serif">-0.13</text>
<line x1="243.0" y1="48.0" x2="243.0" y2="190.0" stroke="#f5f5f5" stroke-width="1"/>
<text x="243.0" y="224.0" text-anchor="middle" font-size="11" fill="#444" font-family="Helvetica, Arial, sans-serif">0.89</text>
<line x1="410.0" y1="48.0" x2="410.0" y2="190.0" stroke="#f5f5f5" stroke-width="1"/>
<text x="410.0" y="224.0" text-anchor="middle" font-size="11" fill="#444" font-family="Helvetica, Arial, sans-serif">1.90</text>
<line x1="577.0" y1="48.0" x2="577.0" y2="190.0" stroke="#f5f5f5" stroke-width="1"/>
<text x="577.0" y="224.0" text-anchor="middle" font-size="11" fill="#444" font-family="Helvetica, Arial, sans-serif">2.92</text>
<line x1="744.0" y1="48.0" x2="744.0" y2="190.0" stroke="#f5f5f5" stroke-width="1"/>
<text x="744.0" y="224.0" text-anchor="middle" font-size="11" fill="#444" font-family="Helvetica, Arial, sans-serif">3.93</text>
<line x1="911.0" y1="48.0" x2="911.0" y2="190.0" stroke="#f5f5f5" stroke-width="1"/>
<text x="911.0" y="224.0" text-anchor="middle" font-size="11" fill="#444" font-family="Helvetica, Arial, sans-serif">4.95</text>
<line x1="1078.0" y1="48.0" x2="1078.0" y2="190.0" stroke="#f5f5f5" stroke-width="1"/>
<text x="1078.0" y="224.0" text-anchor="middle" font-size="11" fill="#444" font-family="Helvetica, Arial, sans-serif">5.96</text>
<text x="76" y="270" font-size="15" font-weight="600" fill="#222" font-family="Helvetica, Arial, sans-serif">turn_001_reuse  phase=reuse  turn=1  prompt=25088  peak_tx=3.30 GiB/s  peak_rx=35.53 GiB/s</text>
<rect x="114.1" y="282.0" width="566.5" height="142.0" fill="#F58518" opacity="0.08"/>
<line x1="76" y1="424.0" x2="1078" y2="424.0" stroke="#ececec" stroke-width="1"/>
<text x="68" y="428.0" text-anchor="end" font-size="11" fill="#444" font-family="Helvetica, Arial, sans-serif">0.0</text>
<line x1="76" y1="395.6" x2="1078" y2="395.6" stroke="#ececec" stroke-width="1"/>
<text x="68" y="399.6" text-anchor="end" font-size="11" fill="#444" font-family="Helvetica, Arial, sans-serif">7.8</text>
<line x1="76" y1="367.2" x2="1078" y2="367.2" stroke="#ececec" stroke-width="1"/>
<text x="68" y="371.2" text-anchor="end" font-size="11" fill="#444" font-family="Helvetica, Arial, sans-serif">15.6</text>
<line x1="76" y1="338.8" x2="1078" y2="338.8" stroke="#ececec" stroke-width="1"/>
<text x="68" y="342.8" text-anchor="end" font-size="11" fill="#444" font-family="Helvetica, Arial, sans-serif">23.4</text>
<line x1="76" y1="310.4" x2="1078" y2="310.4" stroke="#ececec" stroke-width="1"/>
<text x="68" y="314.4" text-anchor="end" font-size="11" fill="#444" font-family="Helvetica, Arial, sans-serif">31.3</text>
<line x1="76" y1="282.0" x2="1078" y2="282.0" stroke="#ececec" stroke-width="1"/>
<text x="68" y="286.0" text-anchor="end" font-size="11" fill="#444" font-family="Helvetica, Arial, sans-serif">39.1</text>
<line x1="76" y1="424.0" x2="1078" y2="424.0" stroke="#222" stroke-width="1.2"/>
<line x1="76" y1="282.0" x2="76" y2="424.0" stroke="#222" stroke-width="1.2"/>
<path d="M 76.0 424.0 L 88.6 424.0 L 101.5 424.0 L 114.1 424.0 L 126.7 424.0 L 141.3 424.0 L 154.5 424.0 L 167.4 424.0 L 180.0 424.0 L 192.6 422.8 L 206.1 412.6 L 219.6 412.4 L 234.6 417.5 L 248.3 424.0 L 260.9 424.0 L 274.1 424.0 L 286.7 424.0 L 299.9 424.0 L 312.5 424.0 L 325.4 424.0 L 338.0 424.0 L 350.6 424.0 L 363.4 424.0 L 376.3 424.0 L 388.9 424.0 L 401.5 424.0 L 414.4 424.0 L 427.0 424.0 L 439.6 424.0 L 452.2 424.0 L 464.8 424.0 L 478.2 424.0 L 490.8 424.0 L 503.4 424.0 L 516.0 424.0 L 528.6 424.0 L 541.2 424.0 L 553.8 424.0 L 566.4 424.0 L 579.2 424.0 L 591.8 424.0 L 604.7 424.0 L 617.6 424.0 L 630.2 424.0 L 642.8 424.0 L 655.4 424.0 L 668.0 424.0 L 680.9 424.0 L 693.4 424.0 L 706.0 424.0 L 718.9 424.0 L 731.5 424.0 L 744.1 424.0 L 756.7 424.0 L 769.3 424.0 L 782.2 424.0 L 794.8 424.0 L 807.9 424.0 L 820.8 424.0 L 833.4 424.0 L 846.0 412.4 L 859.5 412.0 L 873.3 412.4 L 886.5 424.0 L 900.0 417.0 L 912.5 424.0 L 925.4 424.0 L 938.0 424.0 L 950.9 424.0 L 963.5 424.0 L 976.4 424.0 L 989.0 424.0 L 1001.6 424.0 L 1014.2 424.0 L 1027.0 424.0 L 1039.6 424.0 L 1052.2 424.0 L 1064.8 424.0 L 1078.0 424.0" fill="none" stroke="#4C78A8" stroke-width="2.4" stroke-linejoin="round" stroke-linecap="round"/>
<path d="M 76.0 424.0 L 88.6 424.0 L 101.5 424.0 L 114.1 424.0 L 126.7 424.0 L 141.3 424.0 L 154.5 424.0 L 167.4 424.0 L 180.0 424.0 L 192.6 316.3 L 206.1 322.5 L 219.6 294.9 L 234.6 423.9 L 248.3 423.9 L 260.9 423.9 L 274.1 423.9 L 286.7 423.9 L 299.9 423.9 L 312.5 424.0 L 325.4 424.0 L 338.0 424.0 L 350.6 424.0 L 363.4 424.0 L 376.3 424.0 L 388.9 424.0 L 401.5 424.0 L 414.4 424.0 L 427.0 424.0 L 439.6 424.0 L 452.2 424.0 L 464.8 424.0 L 478.2 424.0 L 490.8 424.0 L 503.4 424.0 L 516.0 424.0 L 528.6 424.0 L 541.2 424.0 L 553.8 424.0 L 566.4 424.0 L 579.2 424.0 L 591.8 424.0 L 604.7 424.0 L 617.6 424.0 L 630.2 424.0 L 642.8 424.0 L 655.4 424.0 L 668.0 424.0 L 680.9 424.0 L 693.4 424.0 L 706.0 424.0 L 718.9 424.0 L 731.5 424.0 L 744.1 424.0 L 756.7 424.0 L 769.3 424.0 L 782.2 424.0 L 794.8 424.0 L 807.9 424.0 L 820.8 424.0 L 833.4 392.4 L 846.0 323.9 L 859.5 322.8 L 873.3 342.0 L 886.5 423.9 L 900.0 423.9 L 912.5 423.9 L 925.4 423.9 L 938.0 423.9 L 950.9 423.9 L 963.5 424.0 L 976.4 424.0 L 989.0 424.0 L 1001.6 424.0 L 1014.2 424.0 L 1027.0 424.0 L 1039.6 424.0 L 1052.2 424.0 L 1064.8 424.0 L 1078.0 424.0" fill="none" stroke="#F58518" stroke-width="2.4" stroke-linejoin="round" stroke-linecap="round"/>
<line x1="114.1" y1="282.0" x2="114.1" y2="424.0" stroke="#666" stroke-dasharray="4 4" stroke-width="1.2"/>
<text x="114.1" y="442.0" text-anchor="middle" font-size="11" fill="#444" font-family="Helvetica, Arial, sans-serif">submit</text>
<line x1="680.6" y1="282.0" x2="680.6" y2="424.0" stroke="#888" stroke-dasharray="4 4" stroke-width="1.2"/>
<text x="680.6" y="442.0" text-anchor="middle" font-size="11" fill="#444" font-family="Helvetica, Arial, sans-serif">metrics</text>
<line x1="76.0" y1="282.0" x2="76.0" y2="424.0" stroke="#f5f5f5" stroke-width="1"/>
<text x="76.0" y="458.0" text-anchor="middle" font-size="11" fill="#444" font-family="Helvetica, Arial, sans-serif">-0.13</text>
<line x1="243.0" y1="282.0" x2="243.0" y2="424.0" stroke="#f5f5f5" stroke-width="1"/>
<text x="243.0" y="458.0" text-anchor="middle" font-size="11" fill="#444" font-family="Helvetica, Arial, sans-serif">0.43</text>
<line x1="410.0" y1="282.0" x2="410.0" y2="424.0" stroke="#f5f5f5" stroke-width="1"/>
<text x="410.0" y="458.0" text-anchor="middle" font-size="11" fill="#444" font-family="Helvetica, Arial, sans-serif">0.99</text>
<line x1="577.0" y1="282.0" x2="577.0" y2="424.0" stroke="#f5f5f5" stroke-width="1"/>
<text x="577.0" y="458.0" text-anchor="middle" font-size="11" fill="#444" font-family="Helvetica, Arial, sans-serif">1.54</text>
<line x1="744.0" y1="282.0" x2="744.0" y2="424.0" stroke="#f5f5f5" stroke-width="1"/>
<text x="744.0" y="458.0" text-anchor="middle" font-size="11" fill="#444" font-family="Helvetica, Arial, sans-serif">2.10</text>
<line x1="911.0" y1="282.0" x2="911.0" y2="424.0" stroke="#f5f5f5" stroke-width="1"/>
<text x="911.0" y="458.0" text-anchor="middle" font-size="11" fill="#444" font-family="Helvetica, Arial, sans-serif">2.66</text>
<line x1="1078.0" y1="282.0" x2="1078.0" y2="424.0" stroke="#f5f5f5" stroke-width="1"/>
<text x="1078.0" y="458.0" text-anchor="middle" font-size="11" fill="#444" font-family="Helvetica, Arial, sans-serif">3.22</text>
<text x="76" y="504" font-size="15" font-weight="600" fill="#222" font-family="Helvetica, Arial, sans-serif">turn_002_reuse  phase=reuse  turn=2  prompt=25344  peak_tx=3.30 GiB/s  peak_rx=32.07 GiB/s</text>
<rect x="116.7" y="516.0" width="565.7" height="142.0" fill="#F58518" opacity="0.08"/>
<line x1="76" y1="658.0" x2="1078" y2="658.0" stroke="#ececec" stroke-width="1"/>
<text x="68" y="662.0" text-anchor="end" font-size="11" fill="#444" font-family="Helvetica, Arial, sans-serif">0.0</text>
<line x1="76" y1="629.6" x2="1078" y2="629.6" stroke="#ececec" stroke-width="1"/>
<text x="68" y="633.6" text-anchor="end" font-size="11" fill="#444" font-family="Helvetica, Arial, sans-serif">7.1</text>
<line x1="76" y1="601.2" x2="1078" y2="601.2" stroke="#ececec" stroke-width="1"/>
<text x="68" y="605.2" text-anchor="end" font-size="11" fill="#444" font-family="Helvetica, Arial, sans-serif">14.1</text>
<line x1="76" y1="572.8" x2="1078" y2="572.8" stroke="#ececec" stroke-width="1"/>
<text x="68" y="576.8" text-anchor="end" font-size="11" fill="#444" font-family="Helvetica, Arial, sans-serif">21.2</text>
<line x1="76" y1="544.4" x2="1078" y2="544.4" stroke="#ececec" stroke-width="1"/>
<text x="68" y="548.4" text-anchor="end" font-size="11" fill="#444" font-family="Helvetica, Arial, sans-serif">28.2</text>
<line x1="76" y1="516.0" x2="1078" y2="516.0" stroke="#ececec" stroke-width="1"/>
<text x="68" y="520.0" text-anchor="end" font-size="11" fill="#444" font-family="Helvetica, Arial, sans-serif">35.3</text>
<line x1="76" y1="658.0" x2="1078" y2="658.0" stroke="#222" stroke-width="1.2"/>
<line x1="76" y1="516.0" x2="76" y2="658.0" stroke="#222" stroke-width="1.2"/>
<path d="M 76.0 658.0 L 88.5 658.0 L 100.9 658.0 L 113.4 658.0 L 125.9 658.0 L 138.7 658.0 L 151.1 658.0 L 164.2 658.0 L 177.0 658.0 L 189.4 658.0 L 201.9 645.2 L 215.3 644.7 L 228.9 645.2 L 242.0 658.0 L 255.4 650.2 L 267.8 658.0 L 280.6 658.0 L 293.1 658.0 L 305.9 658.0 L 318.3 658.0 L 331.1 658.0 L 343.6 658.0 L 356.0 658.0 L 368.5 658.0 L 381.3 658.0 L 393.8 658.0 L 406.2 658.0 L 418.7 658.0 L 431.8 658.0 L 444.3 658.0 L 457.0 658.0 L 469.5 658.0 L 482.0 658.0 L 494.4 658.0 L 506.9 658.0 L 519.4 658.0 L 531.9 658.0 L 544.6 658.0 L 557.4 658.0 L 569.9 658.0 L 582.3 658.0 L 594.8 658.0 L 607.3 658.0 L 620.1 658.0 L 632.5 658.0 L 645.6 658.0 L 658.1 658.0 L 670.5 658.0 L 683.0 658.0 L 696.4 658.0 L 708.9 658.0 L 721.3 658.0 L 734.1 658.0 L 746.6 658.0 L 759.0 658.0 L 771.8 658.0 L 784.3 658.0 L 796.8 658.0 L 809.2 658.0 L 821.7 658.0 L 834.2 658.0 L 847.5 645.4 L 860.6 645.0 L 875.2 645.1 L 889.1 658.0 L 901.9 650.2 L 914.7 658.0 L 927.1 657.9 L 939.9 658.0 L 952.4 658.0 L 965.1 658.0 L 977.6 658.0 L 990.4 658.0 L 1002.9 658.0 L 1015.3 658.0 L 1027.8 658.0 L 1040.3 658.0 L 1053.1 658.0 L 1065.5 658.0 L 1078.0 658.0" fill="none" stroke="#4C78A8" stroke-width="2.4" stroke-linejoin="round" stroke-linecap="round"/>
<path d="M 76.0 658.0 L 88.5 658.0 L 100.9 658.0 L 113.4 658.0 L 125.9 658.0 L 138.7 658.0 L 151.1 658.0 L 164.2 658.0 L 177.0 658.0 L 189.4 623.0 L 201.9 547.1 L 215.3 545.9 L 228.9 567.1 L 242.0 657.9 L 255.4 657.9 L 267.8 657.9 L 280.6 657.9 L 293.1 657.9 L 305.9 657.9 L 318.3 658.0 L 331.1 658.0 L 343.6 658.0 L 356.0 658.0 L 368.5 658.0 L 381.3 658.0 L 393.8 658.0 L 406.2 658.0 L 418.7 658.0 L 431.8 658.0 L 444.3 658.0 L 457.0 658.0 L 469.5 658.0 L 482.0 658.0 L 494.4 658.0 L 506.9 658.0 L 519.4 658.0 L 531.9 658.0 L 544.6 658.0 L 557.4 658.0 L 569.9 658.0 L 582.3 658.0 L 594.8 658.0 L 607.3 658.0 L 620.1 658.0 L 632.5 658.0 L 645.6 658.0 L 658.1 658.0 L 670.5 658.0 L 683.0 658.0 L 696.4 658.0 L 708.9 658.0 L 721.3 658.0 L 734.1 658.0 L 746.6 658.0 L 759.0 658.0 L 771.8 658.0 L 784.3 658.0 L 796.8 658.0 L 809.2 658.0 L 821.7 658.0 L 834.2 627.0 L 847.5 546.8 L 860.6 528.9 L 875.2 585.4 L 889.1 657.9 L 901.9 657.9 L 914.7 657.9 L 927.1 657.9 L 939.9 657.9 L 952.4 657.9 L 965.1 658.0 L 977.6 658.0 L 990.4 658.0 L 1002.9 658.0 L 1015.3 658.0 L 1027.8 658.0 L 1040.3 658.0 L 1053.1 658.0 L 1065.5 658.0 L 1078.0 658.0" fill="none" stroke="#F58518" stroke-width="2.4" stroke-linejoin="round" stroke-linecap="round"/>
<line x1="116.7" y1="516.0" x2="116.7" y2="658.0" stroke="#666" stroke-dasharray="4 4" stroke-width="1.2"/>
<text x="116.7" y="676.0" text-anchor="middle" font-size="11" fill="#444" font-family="Helvetica, Arial, sans-serif">submit</text>
<line x1="682.4" y1="516.0" x2="682.4" y2="658.0" stroke="#888" stroke-dasharray="4 4" stroke-width="1.2"/>
<text x="682.4" y="676.0" text-anchor="middle" font-size="11" fill="#444" font-family="Helvetica, Arial, sans-serif">metrics</text>
<line x1="76.0" y1="516.0" x2="76.0" y2="658.0" stroke="#f5f5f5" stroke-width="1"/>
<text x="76.0" y="692.0" text-anchor="middle" font-size="11" fill="#444" font-family="Helvetica, Arial, sans-serif">-0.14</text>
<line x1="243.0" y1="516.0" x2="243.0" y2="658.0" stroke="#f5f5f5" stroke-width="1"/>
<text x="243.0" y="692.0" text-anchor="middle" font-size="11" fill="#444" font-family="Helvetica, Arial, sans-serif">0.43</text>
<line x1="410.0" y1="516.0" x2="410.0" y2="658.0" stroke="#f5f5f5" stroke-width="1"/>
<text x="410.0" y="692.0" text-anchor="middle" font-size="11" fill="#444" font-family="Helvetica, Arial, sans-serif">0.99</text>
<line x1="577.0" y1="516.0" x2="577.0" y2="658.0" stroke="#f5f5f5" stroke-width="1"/>
<text x="577.0" y="692.0" text-anchor="middle" font-size="11" fill="#444" font-family="Helvetica, Arial, sans-serif">1.55</text>
<line x1="744.0" y1="516.0" x2="744.0" y2="658.0" stroke="#f5f5f5" stroke-width="1"/>
<text x="744.0" y="692.0" text-anchor="middle" font-size="11" fill="#444" font-family="Helvetica, Arial, sans-serif">2.11</text>
<line x1="911.0" y1="516.0" x2="911.0" y2="658.0" stroke="#f5f5f5" stroke-width="1"/>
<text x="911.0" y="692.0" text-anchor="middle" font-size="11" fill="#444" font-family="Helvetica, Arial, sans-serif">2.67</text>
<line x1="1078.0" y1="516.0" x2="1078.0" y2="658.0" stroke="#f5f5f5" stroke-width="1"/>
<text x="1078.0" y="692.0" text-anchor="middle" font-size="11" fill="#444" font-family="Helvetica, Arial, sans-serif">3.24</text>
<text x="76" y="738" font-size="15" font-weight="600" fill="#222" font-family="Helvetica, Arial, sans-serif">turn_003_reuse  phase=reuse  turn=3  prompt=25600  peak_tx=4.12 GiB/s  peak_rx=32.07 GiB/s</text>
<rect x="115.8" y="750.0" width="571.1" height="142.0" fill="#F58518" opacity="0.08"/>
<line x1="76" y1="892.0" x2="1078" y2="892.0" stroke="#ececec" stroke-width="1"/>
<text x="68" y="896.0" text-anchor="end" font-size="11" fill="#444" font-family="Helvetica, Arial, sans-serif">0.0</text>
<line x1="76" y1="863.6" x2="1078" y2="863.6" stroke="#ececec" stroke-width="1"/>
<text x="68" y="867.6" text-anchor="end" font-size="11" fill="#444" font-family="Helvetica, Arial, sans-serif">7.1</text>
<line x1="76" y1="835.2" x2="1078" y2="835.2" stroke="#ececec" stroke-width="1"/>
<text x="68" y="839.2" text-anchor="end" font-size="11" fill="#444" font-family="Helvetica, Arial, sans-serif">14.1</text>
<line x1="76" y1="806.8" x2="1078" y2="806.8" stroke="#ececec" stroke-width="1"/>
<text x="68" y="810.8" text-anchor="end" font-size="11" fill="#444" font-family="Helvetica, Arial, sans-serif">21.2</text>
<line x1="76" y1="778.4" x2="1078" y2="778.4" stroke="#ececec" stroke-width="1"/>
<text x="68" y="782.4" text-anchor="end" font-size="11" fill="#444" font-family="Helvetica, Arial, sans-serif">28.2</text>
<line x1="76" y1="750.0" x2="1078" y2="750.0" stroke="#ececec" stroke-width="1"/>
<text x="68" y="754.0" text-anchor="end" font-size="11" fill="#444" font-family="Helvetica, Arial, sans-serif">35.3</text>
<line x1="76" y1="892.0" x2="1078" y2="892.0" stroke="#222" stroke-width="1.2"/>
<line x1="76" y1="750.0" x2="76" y2="892.0" stroke="#222" stroke-width="1.2"/>
<path d="M 76.0 892.0 L 88.8 892.0 L 101.2 892.0 L 113.7 892.0 L 126.5 892.0 L 139.0 892.0 L 151.4 892.0 L 163.9 892.0 L 176.4 892.0 L 188.9 892.0 L 202.2 879.4 L 215.3 879.0 L 229.8 879.1 L 243.8 892.0 L 256.6 884.2 L 269.3 892.0 L 281.8 891.9 L 294.6 892.0 L 307.0 892.0 L 319.8 892.0 L 332.3 892.0 L 345.1 892.0 L 357.5 892.0 L 370.0 892.0 L 382.5 892.0 L 395.0 892.0 L 407.7 892.0 L 420.2 892.0 L 432.7 892.0 L 445.1 892.0 L 457.6 892.0 L 470.4 892.0 L 482.9 892.0 L 495.3 892.0 L 507.8 892.0 L 520.3 892.0 L 532.8 892.0 L 545.2 892.0 L 558.6 892.0 L 571.1 892.0 L 583.5 892.0 L 596.0 892.0 L 608.5 892.0 L 621.0 892.0 L 633.7 892.0 L 646.2 892.0 L 658.7 892.0 L 671.1 892.0 L 683.9 892.0 L 696.4 892.0 L 708.9 892.0 L 721.6 892.0 L 734.1 892.0 L 746.6 892.0 L 759.0 892.0 L 771.5 892.0 L 784.0 892.0 L 796.8 892.0 L 809.2 892.0 L 821.7 892.0 L 834.2 892.0 L 846.7 891.5 L 859.7 879.3 L 873.1 875.4 L 888.5 880.3 L 901.3 892.0 L 914.1 887.2 L 926.8 892.0 L 939.3 892.0 L 952.1 892.0 L 964.9 892.0 L 977.3 892.0 L 989.8 892.0 L 1002.6 892.0 L 1015.0 892.0 L 1027.5 892.0 L 1040.3 892.0 L 1052.8 892.0 L 1065.5 892.0 L 1078.0 892.0" fill="none" stroke="#4C78A8" stroke-width="2.4" stroke-linejoin="round" stroke-linecap="round"/>
<path d="M 76.0 892.0 L 88.8 892.0 L 101.2 892.0 L 113.7 892.0 L 126.5 892.0 L 139.0 892.0 L 151.4 892.0 L 163.9 892.0 L 176.4 892.0 L 188.9 861.0 L 202.2 780.8 L 215.3 762.9 L 229.8 819.4 L 243.8 891.9 L 256.6 891.9 L 269.3 891.9 L 281.8 891.9 L 294.6 891.9 L 307.0 891.9 L 319.8 892.0 L 332.3 892.0 L 345.1 892.0 L 357.5 892.0 L 370.0 892.0 L 382.5 892.0 L 395.0 892.0 L 407.7 892.0 L 420.2 892.0 L 432.7 892.0 L 445.1 892.0 L 457.6 892.0 L 470.4 892.0 L 482.9 892.0 L 495.3 892.0 L 507.8 892.0 L 520.3 892.0 L 532.8 892.0 L 545.2 892.0 L 558.6 892.0 L 571.1 892.0 L 583.5 892.0 L 596.0 892.0 L 608.5 892.0 L 621.0 892.0 L 633.7 892.0 L 646.2 892.0 L 658.7 892.0 L 671.1 892.0 L 683.9 892.0 L 696.4 892.0 L 708.9 892.0 L 721.6 892.0 L 734.1 892.0 L 746.6 892.0 L 759.0 892.0 L 771.5 892.0 L 784.0 892.0 L 796.8 892.0 L 809.2 892.0 L 821.7 892.0 L 834.2 892.0 L 846.7 780.6 L 859.7 778.4 L 873.1 776.5 L 888.5 891.9 L 901.3 891.9 L 914.1 891.9 L 926.8 891.9 L 939.3 891.9 L 952.1 891.9 L 964.9 891.9 L 977.3 892.0 L 989.8 892.0 L 1002.6 892.0 L 1015.0 892.0 L 1027.5 892.0 L 1040.3 892.0 L 1052.8 892.0 L 1065.5 892.0 L 1078.0 892.0" fill="none" stroke="#F58518" stroke-width="2.4" stroke-linejoin="round" stroke-linecap="round"/>
<line x1="115.8" y1="750.0" x2="115.8" y2="892.0" stroke="#666" stroke-dasharray="4 4" stroke-width="1.2"/>
<text x="115.8" y="910.0" text-anchor="middle" font-size="11" fill="#444" font-family="Helvetica, Arial, sans-serif">submit</text>
<line x1="686.9" y1="750.0" x2="686.9" y2="892.0" stroke="#888" stroke-dasharray="4 4" stroke-width="1.2"/>
<text x="686.9" y="910.0" text-anchor="middle" font-size="11" fill="#444" font-family="Helvetica, Arial, sans-serif">metrics</text>
<line x1="76.0" y1="750.0" x2="76.0" y2="892.0" stroke="#f5f5f5" stroke-width="1"/>
<text x="76.0" y="926.0" text-anchor="middle" font-size="11" fill="#444" font-family="Helvetica, Arial, sans-serif">-0.13</text>
<line x1="243.0" y1="750.0" x2="243.0" y2="892.0" stroke="#f5f5f5" stroke-width="1"/>
<text x="243.0" y="926.0" text-anchor="middle" font-size="11" fill="#444" font-family="Helvetica, Arial, sans-serif">0.43</text>
<line x1="410.0" y1="750.0" x2="410.0" y2="892.0" stroke="#f5f5f5" stroke-width="1"/>
<text x="410.0" y="926.0" text-anchor="middle" font-size="11" fill="#444" font-family="Helvetica, Arial, sans-serif">0.99</text>
<line x1="577.0" y1="750.0" x2="577.0" y2="892.0" stroke="#f5f5f5" stroke-width="1"/>
<text x="577.0" y="926.0" text-anchor="middle" font-size="11" fill="#444" font-family="Helvetica, Arial, sans-serif">1.55</text>
<line x1="744.0" y1="750.0" x2="744.0" y2="892.0" stroke="#f5f5f5" stroke-width="1"/>
<text x="744.0" y="926.0" text-anchor="middle" font-size="11" fill="#444" font-family="Helvetica, Arial, sans-serif">2.12</text>
<line x1="911.0" y1="750.0" x2="911.0" y2="892.0" stroke="#f5f5f5" stroke-width="1"/>
<text x="911.0" y="926.0" text-anchor="middle" font-size="11" fill="#444" font-family="Helvetica, Arial, sans-serif">2.68</text>
<line x1="1078.0" y1="750.0" x2="1078.0" y2="892.0" stroke="#f5f5f5" stroke-width="1"/>
<text x="1078.0" y="926.0" text-anchor="middle" font-size="11" fill="#444" font-family="Helvetica, Arial, sans-serif">3.24</text>
<text x="76" y="972" font-size="15" font-weight="600" fill="#222" font-family="Helvetica, Arial, sans-serif">turn_004_reuse  phase=reuse  turn=4  prompt=25856  peak_tx=4.12 GiB/s  peak_rx=35.76 GiB/s</text>
<rect x="110.1" y="984.0" width="570.3" height="142.0" fill="#F58518" opacity="0.08"/>
<line x1="76" y1="1126.0" x2="1078" y2="1126.0" stroke="#ececec" stroke-width="1"/>
<text x="68" y="1130.0" text-anchor="end" font-size="11" fill="#444" font-family="Helvetica, Arial, sans-serif">0.0</text>
<line x1="76" y1="1097.6" x2="1078" y2="1097.6" stroke="#ececec" stroke-width="1"/>
<text x="68" y="1101.6" text-anchor="end" font-size="11" fill="#444" font-family="Helvetica, Arial, sans-serif">7.9</text>
<line x1="76" y1="1069.2" x2="1078" y2="1069.2" stroke="#ececec" stroke-width="1"/>
<text x="68" y="1073.2" text-anchor="end" font-size="11" fill="#444" font-family="Helvetica, Arial, sans-serif">15.7</text>
<line x1="76" y1="1040.8" x2="1078" y2="1040.8" stroke="#ececec" stroke-width="1"/>
<text x="68" y="1044.8" text-anchor="end" font-size="11" fill="#444" font-family="Helvetica, Arial, sans-serif">23.6</text>
<line x1="76" y1="1012.4" x2="1078" y2="1012.4" stroke="#ececec" stroke-width="1"/>
<text x="68" y="1016.4" text-anchor="end" font-size="11" fill="#444" font-family="Helvetica, Arial, sans-serif">31.5</text>
<line x1="76" y1="984.0" x2="1078" y2="984.0" stroke="#ececec" stroke-width="1"/>
<text x="68" y="988.0" text-anchor="end" font-size="11" fill="#444" font-family="Helvetica, Arial, sans-serif">39.3</text>
<line x1="76" y1="1126.0" x2="1078" y2="1126.0" stroke="#222" stroke-width="1.2"/>
<line x1="76" y1="984.0" x2="76" y2="1126.0" stroke="#222" stroke-width="1.2"/>
<path d="M 76.0 1126.0 L 88.4 1126.0 L 100.9 1126.0 L 113.3 1126.0 L 125.8 1126.0 L 138.5 1126.0 L 151.0 1126.0 L 163.4 1126.0 L 175.8 1126.0 L 188.3 1125.5 L 201.3 1114.6 L 214.7 1111.1 L 230.1 1115.5 L 242.8 1126.0 L 255.5 1121.7 L 268.3 1126.0 L 280.7 1126.0 L 293.5 1126.0 L 306.2 1126.0 L 318.6 1126.0 L 331.1 1126.0 L 343.8 1126.0 L 356.3 1126.0 L 368.7 1126.0 L 381.5 1126.0 L 393.9 1126.0 L 406.6 1126.0 L 419.1 1126.0 L 431.5 1126.0 L 444.0 1126.0 L 456.4 1126.0 L 468.9 1126.0 L 481.3 1126.0 L 494.0 1126.0 L 506.5 1126.0 L 518.9 1126.0 L 531.4 1126.0 L 543.8 1126.0 L 556.6 1126.0 L 569.0 1126.0 L 581.4 1126.0 L 593.9 1126.0 L 606.6 1126.0 L 619.1 1126.0 L 631.5 1126.0 L 644.0 1126.0 L 656.4 1126.0 L 668.8 1126.0 L 681.6 1126.0 L 694.0 1126.0 L 706.5 1126.0 L 718.9 1126.0 L 731.4 1126.0 L 743.8 1126.0 L 756.2 1126.0 L 768.7 1126.0 L 781.4 1126.0 L 793.9 1126.0 L 806.3 1126.0 L 819.9 1126.0 L 832.4 1126.0 L 844.8 1119.5 L 857.9 1113.8 L 873.9 1113.5 L 888.7 1125.0 L 901.4 1120.6 L 914.2 1126.0 L 926.6 1126.0 L 939.9 1126.0 L 952.7 1126.0 L 965.1 1126.0 L 977.6 1126.0 L 990.0 1126.0 L 1002.7 1126.0 L 1015.2 1126.0 L 1027.9 1126.0 L 1040.4 1126.0 L 1052.8 1126.0 L 1065.6 1126.0 L 1078.0 1126.0" fill="none" stroke="#4C78A8" stroke-width="2.4" stroke-linejoin="round" stroke-linecap="round"/>
<path d="M 76.0 1126.0 L 88.4 1126.0 L 100.9 1126.0 L 113.3 1126.0 L 125.8 1126.0 L 138.5 1126.0 L 151.0 1126.0 L 163.4 1126.0 L 175.8 1126.0 L 188.3 1026.1 L 201.3 1024.1 L 214.7 1022.4 L 230.1 1125.9 L 242.8 1125.9 L 255.5 1125.9 L 268.3 1125.9 L 280.7 1125.9 L 293.5 1125.9 L 306.2 1125.9 L 318.6 1126.0 L 331.1 1126.0 L 343.8 1126.0 L 356.3 1126.0 L 368.7 1126.0 L 381.5 1126.0 L 393.9 1126.0 L 406.6 1126.0 L 419.1 1126.0 L 431.5 1126.0 L 444.0 1126.0 L 456.4 1126.0 L 468.9 1126.0 L 481.3 1126.0 L 494.0 1126.0 L 506.5 1126.0 L 518.9 1126.0 L 531.4 1126.0 L 543.8 1126.0 L 556.6 1126.0 L 569.0 1126.0 L 581.4 1126.0 L 593.9 1126.0 L 606.6 1126.0 L 619.1 1126.0 L 631.5 1126.0 L 644.0 1126.0 L 656.4 1126.0 L 668.8 1126.0 L 681.6 1126.0 L 694.0 1126.0 L 706.5 1126.0 L 718.9 1126.0 L 731.4 1126.0 L 743.8 1126.0 L 756.2 1126.0 L 768.7 1126.0 L 781.4 1126.0 L 793.9 1126.0 L 806.3 1126.0 L 819.9 1126.0 L 832.4 1126.0 L 844.8 1026.6 L 857.9 996.9 L 873.9 1025.0 L 888.7 1125.9 L 901.4 1125.9 L 914.2 1125.9 L 926.6 1125.9 L 939.9 1125.9 L 952.7 1125.9 L 965.1 1126.0 L 977.6 1126.0 L 990.0 1126.0 L 1002.7 1126.0 L 1015.2 1126.0 L 1027.9 1126.0 L 1040.4 1126.0 L 1052.8 1126.0 L 1065.6 1126.0 L 1078.0 1126.0" fill="none" stroke="#F58518" stroke-width="2.4" stroke-linejoin="round" stroke-linecap="round"/>
<line x1="110.1" y1="984.0" x2="110.1" y2="1126.0" stroke="#666" stroke-dasharray="4 4" stroke-width="1.2"/>
<text x="110.1" y="1144.0" text-anchor="middle" font-size="11" fill="#444" font-family="Helvetica, Arial, sans-serif">submit</text>
<line x1="680.4" y1="984.0" x2="680.4" y2="1126.0" stroke="#888" stroke-dasharray="4 4" stroke-width="1.2"/>
<text x="680.4" y="1144.0" text-anchor="middle" font-size="11" fill="#444" font-family="Helvetica, Arial, sans-serif">metrics</text>
<line x1="76.0" y1="984.0" x2="76.0" y2="1126.0" stroke="#f5f5f5" stroke-width="1"/>
<text x="76.0" y="1160.0" text-anchor="middle" font-size="11" fill="#444" font-family="Helvetica, Arial, sans-serif">-0.12</text>
<line x1="243.0" y1="984.0" x2="243.0" y2="1126.0" stroke="#f5f5f5" stroke-width="1"/>
<text x="243.0" y="1160.0" text-anchor="middle" font-size="11" fill="#444" font-family="Helvetica, Arial, sans-serif">0.45</text>
<line x1="410.0" y1="984.0" x2="410.0" y2="1126.0" stroke="#f5f5f5" stroke-width="1"/>
<text x="410.0" y="1160.0" text-anchor="middle" font-size="11" fill="#444" font-family="Helvetica, Arial, sans-serif">1.01</text>
<line x1="577.0" y1="984.0" x2="577.0" y2="1126.0" stroke="#f5f5f5" stroke-width="1"/>
<text x="577.0" y="1160.0" text-anchor="middle" font-size="11" fill="#444" font-family="Helvetica, Arial, sans-serif">1.58</text>
<line x1="744.0" y1="984.0" x2="744.0" y2="1126.0" stroke="#f5f5f5" stroke-width="1"/>
<text x="744.0" y="1160.0" text-anchor="middle" font-size="11" fill="#444" font-family="Helvetica, Arial, sans-serif">2.14</text>
<line x1="911.0" y1="984.0" x2="911.0" y2="1126.0" stroke="#f5f5f5" stroke-width="1"/>
<text x="911.0" y="1160.0" text-anchor="middle" font-size="11" fill="#444" font-family="Helvetica, Arial, sans-serif">2.70</text>
<line x1="1078.0" y1="984.0" x2="1078.0" y2="1126.0" stroke="#f5f5f5" stroke-width="1"/>
<text x="1078.0" y="1160.0" text-anchor="middle" font-size="11" fill="#444" font-family="Helvetica, Arial, sans-serif">3.27</text>
<text x="76" y="1206" font-size="15" font-weight="600" fill="#222" font-family="Helvetica, Arial, sans-serif">turn_005_reuse  phase=reuse  turn=5  prompt=26112  peak_tx=3.46 GiB/s  peak_rx=35.76 GiB/s</text>
<rect x="140.1" y="1218.0" width="849.6" height="142.0" fill="#F58518" opacity="0.08"/>
<line x1="76" y1="1360.0" x2="1078" y2="1360.0" stroke="#ececec" stroke-width="1"/>
<text x="68" y="1364.0" text-anchor="end" font-size="11" fill="#444" font-family="Helvetica, Arial, sans-serif">0.0</text>
<line x1="76" y1="1331.6" x2="1078" y2="1331.6" stroke="#ececec" stroke-width="1"/>
<text x="68" y="1335.6" text-anchor="end" font-size="11" fill="#444" font-family="Helvetica, Arial, sans-serif">7.9</text>
<line x1="76" y1="1303.2" x2="1078" y2="1303.2" stroke="#ececec" stroke-width="1"/>
<text x="68" y="1307.2" text-anchor="end" font-size="11" fill="#444" font-family="Helvetica, Arial, sans-serif">15.7</text>
<line x1="76" y1="1274.8" x2="1078" y2="1274.8" stroke="#ececec" stroke-width="1"/>
<text x="68" y="1278.8" text-anchor="end" font-size="11" fill="#444" font-family="Helvetica, Arial, sans-serif">23.6</text>
<line x1="76" y1="1246.4" x2="1078" y2="1246.4" stroke="#ececec" stroke-width="1"/>
<text x="68" y="1250.4" text-anchor="end" font-size="11" fill="#444" font-family="Helvetica, Arial, sans-serif">31.5</text>
<line x1="76" y1="1218.0" x2="1078" y2="1218.0" stroke="#ececec" stroke-width="1"/>
<text x="68" y="1222.0" text-anchor="end" font-size="11" fill="#444" font-family="Helvetica, Arial, sans-serif">39.3</text>
<line x1="76" y1="1360.0" x2="1078" y2="1360.0" stroke="#222" stroke-width="1.2"/>
<line x1="76" y1="1218.0" x2="76" y2="1360.0" stroke="#222" stroke-width="1.2"/>
<path d="M 76.0 1360.0 L 94.6 1360.0 L 113.1 1360.0 L 131.7 1360.0 L 150.2 1360.0 L 169.2 1360.0 L 187.8 1360.0 L 206.3 1360.0 L 226.7 1360.0 L 245.2 1360.0 L 263.8 1353.5 L 283.2 1347.8 L 307.1 1347.5 L 329.2 1359.0 L 348.1 1354.6 L 367.1 1360.0 L 385.7 1360.0 L 405.6 1360.0 L 424.6 1360.0 L 443.1 1360.0 L 461.7 1360.0 L 480.2 1360.0 L 499.2 1360.0 L 517.8 1360.0 L 536.8 1360.0 L 555.4 1360.0 L 573.9 1360.0 L 592.9 1360.0 L 611.5 1360.0 L 630.0 1360.0 L 648.6 1360.0 L 667.1 1360.0 L 685.7 1360.0 L 704.7 1360.0 L 723.2 1360.0 L 741.8 1360.0 L 760.3 1360.0 L 778.9 1360.0 L 797.9 1360.0 L 816.5 1360.0 L 835.0 1360.0 L 853.6 1360.0 L 872.1 1360.0 L 890.7 1360.0 L 909.2 1360.0 L 928.2 1360.0 L 946.8 1360.0 L 965.3 1360.0 L 983.9 1360.0 L 1002.5 1360.0 L 1021.9 1360.0 L 1040.4 1360.0 L 1059.4 1360.0 L 1078.0 1360.0" fill="none" stroke="#4C78A8" stroke-width="2.4" stroke-linejoin="round" stroke-linecap="round"/>
<path d="M 76.0 1360.0 L 94.6 1360.0 L 113.1 1360.0 L 131.7 1360.0 L 150.2 1360.0 L 169.2 1360.0 L 187.8 1360.0 L 206.3 1360.0 L 226.7 1360.0 L 245.2 1360.0 L 263.8 1260.6 L 283.2 1230.9 L 307.1 1259.0 L 329.2 1359.9 L 348.1 1359.9 L 367.1 1359.9 L 385.7 1359.9 L 405.6 1359.9 L 424.6 1359.9 L 443.1 1360.0 L 461.7 1360.0 L 480.2 1360.0 L 499.2 1360.0 L 517.8 1360.0 L 536.8 1360.0 L 555.4 1360.0 L 573.9 1360.0 L 592.9 1360.0 L 611.5 1360.0 L 630.0 1360.0 L 648.6 1360.0 L 667.1 1360.0 L 685.7 1360.0 L 704.7 1360.0 L 723.2 1360.0 L 741.8 1360.0 L 760.3 1360.0 L 778.9 1360.0 L 797.9 1360.0 L 816.5 1360.0 L 835.0 1360.0 L 853.6 1360.0 L 872.1 1360.0 L 890.7 1360.0 L 909.2 1360.0 L 928.2 1360.0 L 946.8 1360.0 L 965.3 1360.0 L 983.9 1360.0 L 1002.5 1360.0 L 1021.9 1360.0 L 1040.4 1360.0 L 1059.4 1360.0 L 1078.0 1360.0" fill="none" stroke="#F58518" stroke-width="2.4" stroke-linejoin="round" stroke-linecap="round"/>
<line x1="140.1" y1="1218.0" x2="140.1" y2="1360.0" stroke="#666" stroke-dasharray="4 4" stroke-width="1.2"/>
<text x="140.1" y="1378.0" text-anchor="middle" font-size="11" fill="#444" font-family="Helvetica, Arial, sans-serif">submit</text>
<line x1="989.6" y1="1218.0" x2="989.6" y2="1360.0" stroke="#888" stroke-dasharray="4 4" stroke-width="1.2"/>
<text x="989.6" y="1378.0" text-anchor="middle" font-size="11" fill="#444" font-family="Helvetica, Arial, sans-serif">metrics</text>
<line x1="76.0" y1="1218.0" x2="76.0" y2="1360.0" stroke="#f5f5f5" stroke-width="1"/>
<text x="76.0" y="1394.0" text-anchor="middle" font-size="11" fill="#444" font-family="Helvetica, Arial, sans-serif">-0.14</text>
<line x1="243.0" y1="1218.0" x2="243.0" y2="1360.0" stroke="#f5f5f5" stroke-width="1"/>
<text x="243.0" y="1394.0" text-anchor="middle" font-size="11" fill="#444" font-family="Helvetica, Arial, sans-serif">0.23</text>
<line x1="410.0" y1="1218.0" x2="410.0" y2="1360.0" stroke="#f5f5f5" stroke-width="1"/>
<text x="410.0" y="1394.0" text-anchor="middle" font-size="11" fill="#444" font-family="Helvetica, Arial, sans-serif">0.61</text>
<line x1="577.0" y1="1218.0" x2="577.0" y2="1360.0" stroke="#f5f5f5" stroke-width="1"/>
<text x="577.0" y="1394.0" text-anchor="middle" font-size="11" fill="#444" font-family="Helvetica, Arial, sans-serif">0.99</text>
<line x1="744.0" y1="1218.0" x2="744.0" y2="1360.0" stroke="#f5f5f5" stroke-width="1"/>
<text x="744.0" y="1394.0" text-anchor="middle" font-size="11" fill="#444" font-family="Helvetica, Arial, sans-serif">1.37</text>
<line x1="911.0" y1="1218.0" x2="911.0" y2="1360.0" stroke="#f5f5f5" stroke-width="1"/>
<text x="911.0" y="1394.0" text-anchor="middle" font-size="11" fill="#444" font-family="Helvetica, Arial, sans-serif">1.75</text>
<line x1="1078.0" y1="1218.0" x2="1078.0" y2="1360.0" stroke="#f5f5f5" stroke-width="1"/>
<text x="1078.0" y="1394.0" text-anchor="middle" font-size="11" fill="#444" font-family="Helvetica, Arial, sans-serif">2.12</text>
<rect x="880" y="34" width="170" height="52" rx="8" fill="#fff" stroke="#ddd"/>
<line x1="892" y1="52" x2="912" y2="52" stroke="#4C78A8" stroke-width="2.4"/>
<text x="920" y="56" font-size="12" fill="#333" font-family="Helvetica, Arial, sans-serif">TX GiB/s</text>
<line x1="892" y1="70" x2="912" y2="70" stroke="#F58518" stroke-width="2.4"/>
<text x="920" y="74" font-size="12" fill="#333" font-family="Helvetica, Arial, sans-serif">RX GiB/s</text>
</svg>