<svg xmlns="http://www.w3.org/2000/svg" width="1100" height="420" viewBox="0 0 1100 420">
<rect width="1100" height="420" fill="white"/>
<text x="86" y="26" font-size="24" font-weight="700" font-family="Helvetica, Arial, sans-serif">PCIe RX Timeline: pd_external_prefix_imitation_qwen3_8b</text>
<line x1="86" y1="366.0" x2="1076" y2="366.0" stroke="#ececec" stroke-width="1"/>
<text x="76" y="370.0" text-anchor="end" font-size="12" fill="#444" font-family="Helvetica, Arial, sans-serif">0.0</text>
<line x1="86" y1="301.6" x2="1076" y2="301.6" stroke="#ececec" stroke-width="1"/>
<text x="76" y="305.6" text-anchor="end" font-size="12" fill="#444" font-family="Helvetica, Arial, sans-serif">7.9</text>
<line x1="86" y1="237.2" x2="1076" y2="237.2" stroke="#ececec" stroke-width="1"/>
<text x="76" y="241.2" text-anchor="end" font-size="12" fill="#444" font-family="Helvetica, Arial, sans-serif">15.7</text>
<line x1="86" y1="172.8" x2="1076" y2="172.8" stroke="#ececec" stroke-width="1"/>
<text x="76" y="176.8" text-anchor="end" font-size="12" fill="#444" font-family="Helvetica, Arial, sans-serif">23.6</text>
<line x1="86" y1="108.4" x2="1076" y2="108.4" stroke="#ececec" stroke-width="1"/>
<text x="76" y="112.4" text-anchor="end" font-size="12" fill="#444" font-family="Helvetica, Arial, sans-serif">31.5</text>
<line x1="86" y1="44.0" x2="1076" y2="44.0" stroke="#ececec" stroke-width="1"/>
<text x="76" y="48.0" text-anchor="end" font-size="12" fill="#444" font-family="Helvetica, Arial, sans-serif">39.3</text>
<line x1="86" y1="366.0" x2="1076" y2="366.0" stroke="#222" stroke-width="1.4"/>
<line x1="86" y1="44.0" x2="86" y2="366.0" stroke="#222" stroke-width="1.4"/>
<text x="24" y="205.0" text-anchor="middle" font-size="15" fill="#222" font-family="Helvetica, Arial, sans-serif" transform="rotate(-90 24,205.0)">RX GiB/s</text>
<rect x="86.0" y="44.0" width="294.9" height="322.0" fill="#4C78A8" opacity="0.08"/>
<rect x="397.4" y="44.0" width="120.6" height="322.0" fill="#F58518" opacity="0.08"/>
<rect x="534.9" y="44.0" width="121.6" height="322.0" fill="#F58518" opacity="0.08"/>
<rect x="673.5" y="44.0" width="122.7" height="322.0" fill="#F58518" opacity="0.08"/>
<rect x="813.7" y="44.0" width="122.9" height="322.0" fill="#F58518" opacity="0.08"/>
<rect x="954.1" y="44.0" width="122.7" height="322.0" fill="#F58518" opacity="0.08"/>
<path d="M 88.4 366.0 L 91.1 365.9 L 93.8 365.9 L 96.5 365.9 L 99.3 365.9 L 102.0 365.9 L 104.6 365.9 L 107.4 365.9 L 110.1 365.9 L 112.8 365.9 L 115.6 365.9 L 118.4 365.9 L 121.0 365.9 L 123.8 365.9 L 126.5 365.6 L 132.6 365.9 L 135.3 365.9 L 138.0 366.0 L 140.7 365.9 L 143.4 365.9 L 146.1 365.9 L 149.1 365.9 L 151.7 365.9 L 154.5 365.9 L 157.2 365.9 L 159.8 365.9 L 162.6 365.9 L 165.3 365.9 L 168.2 365.9 L 170.9 365.9 L 173.6 365.9 L 176.3 365.9 L 179.0 365.9 L 181.7 365.9 L 184.4 365.9 L 187.2 365.9 L 189.9 365.9 L 192.7 365.9 L 195.3 365.9 L 198.0 365.9 L 200.8 365.9 L 203.4 365.9 L 206.3 365.9 L 209.0 365.9 L 211.7 365.9 L 214.4 365.9 L 217.2 365.9 L 219.8 365.9 L 222.5 365.9 L 225.5 365.9 L 228.1 365.9 L 230.9 365.9 L 233.6 366.0 L 236.2 365.9 L 239.0 365.9 L 241.7 365.9 L 244.6 365.9 L 247.3 366.0 L 250.0 365.9 L 252.7 365.9 L 255.5 365.9 L 258.1 365.9 L 260.8 366.0 L 263.8 365.9 L 266.4 365.9 L 269.2 365.9 L 271.9 366.0 L 274.5 365.9 L 277.3 365.9 L 280.0 365.9 L 282.9 366.0 L 285.6 365.9 L 288.3 365.7 L 291.0 365.8 L 293.8 365.8 L 296.4 365.8 L 299.2 365.8 L 302.3 366.0 L 305.0 366.0 L 307.7 366.0 L 310.4 366.0 L 313.5 366.0 L 316.3 366.0 L 319.1 366.0 L 321.8 366.0 L 324.5 366.0 L 327.1 366.0 L 329.8 366.0 L 332.5 366.0 L 335.2 366.0 L 337.9 366.0 L 340.7 366.0 L 343.3 366.0 L 346.1 366.0 L 348.8 366.0 L 351.5 366.0 L 354.1 366.0 L 356.8 366.0 L 359.6 366.0 L 362.4 366.0 L 365.0 366.0 L 367.7 366.0 L 370.4 366.0 L 373.1 366.0 L 375.8 365.9 L 378.4 366.0 L 381.2 366.0 L 383.9 366.0 L 386.6 366.0 L 389.3 366.0 L 392.0 366.0 L 394.7 366.0 L 397.4 366.0 L 400.1 366.0 L 403.2 366.0 L 406.0 366.0 L 408.8 366.0 L 411.4 366.0 L 414.1 123.2 L 417.0 137.3 L 419.9 75.1 L 423.1 365.9 L 426.0 365.7 L 428.7 365.8 L 431.5 365.8 L 434.2 365.8 L 437.0 365.8 L 439.7 366.0 L 442.4 365.9 L 445.1 366.0 L 447.8 366.0 L 450.5 366.0 L 453.3 366.0 L 455.9 366.0 L 458.6 366.0 L 461.4 366.0 L 464.0 366.0 L 466.7 366.0 L 469.4 366.0 L 472.1 366.0 L 475.0 366.0 L 477.6 366.0 L 480.3 366.0 L 483.0 366.0 L 485.7 366.0 L 488.4 366.0 L 491.0 366.0 L 493.7 366.0 L 496.5 366.0 L 499.1 366.0 L 501.9 366.0 L 504.6 366.0 L 507.3 366.0 L 510.0 366.0 L 512.7 366.0 L 515.4 366.0 L 518.1 366.0 L 520.8 366.0 L 523.5 366.0 L 526.2 366.0 L 528.9 366.0 L 531.6 366.0 L 534.2 366.0 L 536.9 366.0 L 539.7 366.0 L 542.4 366.0 L 545.2 365.9 L 547.9 366.0 L 550.6 294.7 L 553.3 140.5 L 556.1 138.0 L 559.1 181.2 L 561.9 365.9 L 564.8 365.8 L 567.4 365.8 L 570.2 365.8 L 572.9 365.7 L 575.6 365.7 L 578.3 366.0 L 581.0 366.0 L 583.7 366.0 L 586.4 366.0 L 589.1 366.0 L 591.8 366.0 L 594.5 366.0 L 597.2 366.0 L 599.9 366.0 L 602.7 366.0 L 605.3 366.0 L 608.1 366.0 L 610.8 366.0 L 613.5 366.0 L 616.1 366.0 L 618.8 366.0 L 621.5 366.0 L 624.2 366.0 L 626.9 366.0 L 629.7 366.0 L 632.3 366.0 L 635.0 366.0 L 637.7 366.0 L 640.4 366.0 L 643.1 365.9 L 645.8 366.0 L 648.6 366.0 L 651.3 366.0 L 654.0 366.0 L 656.7 366.0 L 659.5 366.0 L 662.2 366.0 L 664.9 366.0 L 667.6 366.0 L 670.3 366.0 L 673.0 366.0 L 675.7 366.0 L 678.4 366.0 L 681.1 366.0 L 683.8 365.9 L 686.5 366.0 L 689.2 302.9 L 692.0 139.9 L 694.8 103.5 L 698.0 218.3 L 701.0 365.9 L 703.7 365.8 L 706.4 365.7 L 709.1 365.7 L 711.9 365.8 L 714.6 365.8 L 717.3 366.0 L 720.0 366.0 L 722.7 366.0 L 725.4 366.0 L 728.1 366.0 L 730.8 366.0 L 733.4 366.0 L 736.2 366.0 L 738.9 366.0 L 741.6 366.0 L 744.2 366.0 L 746.9 366.0 L 749.7 366.0 L 752.3 366.0 L 755.0 366.0 L 757.7 366.0 L 760.4 366.0 L 763.1 366.0 L 765.7 366.0 L 768.6 366.0 L 771.3 366.0 L 774.0 366.0 L 776.7 365.9 L 779.3 366.0 L 782.0 366.0 L 784.8 366.0 L 787.4 366.0 L 790.1 366.0 L 792.8 366.0 L 795.5 366.0 L 798.2 366.0 L 800.9 366.0 L 803.7 366.0 L 806.3 366.0 L 809.0 366.0 L 811.7 366.0 L 814.4 366.0 L 817.1 366.0 L 819.8 366.0 L 822.5 366.0 L 825.2 366.0 L 827.8 366.0 L 830.5 139.4 L 833.3 135.0 L 836.2 131.1 L 839.5 365.9 L 842.3 365.9 L 845.0 365.8 L 847.8 365.8 L 850.4 365.8 L 853.2 365.8 L 855.9 365.8 L 858.6 366.0 L 861.3 366.0 L 864.0 366.0 L 866.7 366.0 L 869.4 366.0 L 872.1 366.0 L 874.8 366.0 L 877.6 366.0 L 880.2 366.0 L 882.9 366.0 L 885.6 366.0 L 888.3 366.0 L 891.0 366.0 L 893.7 366.0 L 896.4 366.0 L 899.1 366.0 L 901.8 366.0 L 904.4 366.0 L 907.1 366.0 L 909.9 365.9 L 912.5 366.0 L 915.2 366.0 L 917.9 366.0 L 920.6 366.0 L 923.3 366.0 L 926.0 366.0 L 928.7 366.0 L 931.4 366.0 L 934.1 366.0 L 936.8 366.0 L 939.5 366.0 L 942.2 366.0 L 944.8 366.0 L 947.5 366.0 L 950.2 366.0 L 952.9 366.0 L 955.6 366.0 L 958.3 366.0 L 961.0 366.0 L 963.7 365.9 L 966.6 366.0 L 969.3 366.0 L 972.0 140.6 L 974.8 73.3 L 978.2 137.0 L 981.4 365.9 L 984.2 365.8 L 986.9 365.8 L 989.6 365.8 L 992.5 365.8 L 995.2 365.8 L 997.9 366.0 L 1000.6 366.0 L 1003.2 366.0 L 1006.0 366.0 L 1008.7 366.0 L 1011.4 366.0 L 1014.1 366.0 L 1016.8 366.0 L 1019.5 366.0 L 1022.2 366.0 L 1024.9 366.0 L 1027.6 366.0 L 1030.2 366.0 L 1032.9 366.0 L 1035.7 366.0 L 1038.3 366.0 L 1041.0 366.0 L 1043.7 366.0 L 1046.4 366.0 L 1049.1 366.0 L 1051.8 366.0 L 1054.5 366.0 L 1057.2 366.0 L 1059.9 366.0 L 1062.5 366.0 L 1065.2 366.0 L 1068.0 366.0 L 1070.6 366.0 L 1073.3 366.0 L 1076.0 366.0" fill="none" stroke="#F58518" stroke-width="2.8" stroke-linejoin="round" stroke-linecap="round"/>
<line x1="86.0" y1="44.0" x2="86.0" y2="366.0" stroke="#f2f2f2" stroke-width="1"/>
<text x="86.0" y="402" text-anchor="middle" font-size="12" fill="#444" font-family="Helvetica, Arial, sans-serif">0.0</text>
<line x1="251.0" y1="44.0" x2="251.0" y2="366.0" stroke="#f2f2f2" stroke-width="1"/>
<text x="251.0" y="402" text-anchor="middle" font-size="12" fill="#444" font-family="Helvetica, Arial, sans-serif">2.6</text>
<line x1="416.0" y1="44.0" x2="416.0" y2="366.0" stroke="#f2f2f2" stroke-width="1"/>
<text x="416.0" y="402" text-anchor="middle" font-size="12" fill="#444" font-family="Helvetica, Arial, sans-serif">5.2</text>
<line x1="581.0" y1="44.0" x2="581.0" y2="366.0" stroke="#f2f2f2" stroke-width="1"/>
<text x="581.0" y="402" text-anchor="middle" font-size="12" fill="#444" font-family="Helvetica, Arial, sans-serif">7.8</text>
<line x1="746.0" y1="44.0" x2="746.0" y2="366.0" stroke="#f2f2f2" stroke-width="1"/>
<text x="746.0" y="402" text-anchor="middle" font-size="12" fill="#444" font-family="Helvetica, Arial, sans-serif">10.3</text>
<line x1="911.0" y1="44.0" x2="911.0" y2="366.0" stroke="#f2f2f2" stroke-width="1"/>
<text x="911.0" y="402" text-anchor="middle" font-size="12" fill="#444" font-family="Helvetica, Arial, sans-serif">12.9</text>
<line x1="1076.0" y1="44.0" x2="1076.0" y2="366.0" stroke="#f2f2f2" stroke-width="1"/>
<text x="1076.0" y="402" text-anchor="middle" font-size="12" fill="#444" font-family="Helvetica, Arial, sans-serif">15.5</text>
<text x="581.0" y="418" text-anchor="middle" font-size="16" fill="#222" font-family="Helvetica, Arial, sans-serif">time since first request submit (s)</text>
</svg>