<svg xmlns="http://www.w3.org/2000/svg" width="1100" height="820" viewBox="0 0 1100 820">
<rect width="1100" height="820" fill="white"/>
<text x="86" y="26" font-size="24" font-weight="700" font-family="Helvetica, Arial, sans-serif">PCIe Timeline: pd_external_prefix_imitation_qwen3_8b</text>
<line x1="86" y1="248.0" x2="1076" y2="248.0" stroke="#ececec" stroke-width="1"/>
<text x="76" y="252.0" text-anchor="end" font-size="12" fill="#444" font-family="Helvetica, Arial, sans-serif">0.0</text>
<line x1="86" y1="212.0" x2="1076" y2="212.0" stroke="#ececec" stroke-width="1"/>
<text x="76" y="216.0" text-anchor="end" font-size="12" fill="#444" font-family="Helvetica, Arial, sans-serif">8.6</text>
<line x1="86" y1="176.0" x2="1076" y2="176.0" stroke="#ececec" stroke-width="1"/>
<text x="76" y="180.0" text-anchor="end" font-size="12" fill="#444" font-family="Helvetica, Arial, sans-serif">17.2</text>
<line x1="86" y1="140.0" x2="1076" y2="140.0" stroke="#ececec" stroke-width="1"/>
<text x="76" y="144.0" text-anchor="end" font-size="12" fill="#444" font-family="Helvetica, Arial, sans-serif">25.8</text>
<line x1="86" y1="104.0" x2="1076" y2="104.0" stroke="#ececec" stroke-width="1"/>
<text x="76" y="108.0" text-anchor="end" font-size="12" fill="#444" font-family="Helvetica, Arial, sans-serif">34.4</text>
<line x1="86" y1="68.0" x2="1076" y2="68.0" stroke="#ececec" stroke-width="1"/>
<text x="76" y="72.0" text-anchor="end" font-size="12" fill="#444" font-family="Helvetica, Arial, sans-serif">43.0</text>
<line x1="86" y1="248.0" x2="1076" y2="248.0" stroke="#222" stroke-width="1.4"/>
<line x1="86" y1="68.0" x2="86" y2="248.0" stroke="#222" stroke-width="1.4"/>
<text x="24" y="158.0" text-anchor="middle" font-size="15" fill="#222" font-family="Helvetica, Arial, sans-serif" transform="rotate(-90 24,158.0)">Total GiB/s</text>
<rect x="86.0" y="68.0" width="294.9" height="180.0" fill="#4C78A8" opacity="0.08"/>
<rect x="397.4" y="68.0" width="120.6" height="180.0" fill="#F58518" opacity="0.08"/>
<rect x="534.9" y="68.0" width="121.6" height="180.0" fill="#F58518" opacity="0.08"/>
<rect x="673.5" y="68.0" width="122.7" height="180.0" fill="#F58518" opacity="0.08"/>
<rect x="813.7" y="68.0" width="122.9" height="180.0" fill="#F58518" opacity="0.08"/>
<rect x="954.1" y="68.0" width="122.7" height="180.0" fill="#F58518" opacity="0.08"/>
<path d="M 88.4 248.0 L 91.1 247.9 L 93.8 247.9 L 96.5 247.9 L 99.3 248.0 L 102.0 215.2 L 104.6 247.9 L 107.4 247.9 L 110.1 247.9 L 112.8 200.9 L 115.6 248.0 L 118.4 248.0 L 121.0 248.0 L 123.8 247.9 L 126.5 195.0 L 132.6 248.0 L 135.3 248.0 L 138.0 248.0 L 140.7 246.9 L 143.4 248.0 L 146.1 247.9 L 149.1 248.0 L 151.7 248.0 L 154.5 183.4 L 157.2 248.0 L 159.8 248.0 L 162.6 248.0 L 165.3 248.0 L 168.2 247.9 L 170.9 228.3 L 173.6 247.9 L 176.3 247.9 L 179.0 248.0 L 181.7 248.0 L 184.4 247.9 L 187.2 198.1 L 189.9 248.0 L 192.7 248.0 L 195.3 248.0 L 198.0 248.0 L 200.8 248.0 L 203.4 248.0 L 206.3 248.0 L 209.0 248.0 L 211.7 248.0 L 214.4 248.0 L 217.2 248.0 L 219.8 248.0 L 222.5 220.8 L 225.5 248.0 L 228.1 248.0 L 230.9 248.0 L 233.6 248.0 L 236.2 248.0 L 239.0 247.9 L 241.7 247.9 L 244.6 248.0 L 247.3 248.0 L 250.0 248.0 L 252.7 248.0 L 255.5 248.0 L 258.1 248.0 L 260.8 248.0 L 263.8 183.3 L 266.4 248.0 L 269.2 248.0 L 271.9 248.0 L 274.5 248.0 L 277.3 248.0 L 280.0 248.0 L 282.9 248.0 L 285.6 183.3 L 288.3 247.8 L 291.0 247.8 L 293.8 247.9 L 296.4 247.9 L 299.2 247.8 L 302.3 248.0 L 305.0 248.0 L 307.7 248.0 L 310.4 248.0 L 313.5 248.0 L 316.3 248.0 L 319.1 248.0 L 321.8 248.0 L 324.5 248.0 L 327.1 248.0 L 329.8 248.0 L 332.5 248.0 L 335.2 248.0 L 337.9 248.0 L 340.7 248.0 L 343.3 248.0 L 346.1 248.0 L 348.8 248.0 L 351.5 248.0 L 354.1 248.0 L 356.8 248.0 L 359.6 248.0 L 362.4 248.0 L 365.0 248.0 L 367.7 248.0 L 370.4 248.0 L 373.1 248.0 L 375.8 248.0 L 378.4 248.0 L 381.2 248.0 L 383.9 248.0 L 386.6 248.0 L 389.3 248.0 L 392.0 248.0 L 394.7 248.0 L 397.4 248.0 L 400.1 248.0 L 403.2 248.0 L 406.0 248.0 L 408.8 248.0 L 411.4 248.0 L 414.1 122.6 L 417.0 118.0 L 419.9 86.1 L 423.1 240.4 L 426.0 247.8 L 428.7 247.8 L 431.5 247.8 L 434.2 247.8 L 437.0 247.9 L 439.7 248.0 L 442.4 248.0 L 445.1 248.0 L 447.8 248.0 L 450.5 248.0 L 453.3 248.0 L 455.9 248.0 L 458.6 248.0 L 461.4 248.0 L 464.0 248.0 L 466.7 248.0 L 469.4 248.0 L 472.1 248.0 L 475.0 248.0 L 477.6 248.0 L 480.3 248.0 L 483.0 248.0 L 485.7 248.0 L 488.4 248.0 L 491.0 248.0 L 493.7 248.0 L 496.5 248.0 L 499.1 248.0 L 501.9 248.0 L 504.6 248.0 L 507.3 248.0 L 510.0 248.0 L 512.7 248.0 L 515.4 248.0 L 518.1 248.0 L 520.8 248.0 L 523.5 248.0 L 526.2 248.0 L 528.9 248.0 L 531.6 248.0 L 534.2 248.0 L 536.9 248.0 L 539.7 248.0 L 542.4 248.0 L 545.2 248.0 L 547.9 248.0 L 550.6 211.6 L 553.3 119.5 L 556.1 117.7 L 559.1 140.3 L 561.9 247.9 L 564.8 239.8 L 567.4 247.9 L 570.2 247.9 L 572.9 247.8 L 575.6 247.8 L 578.3 248.0 L 581.0 248.0 L 583.7 248.0 L 586.4 248.0 L 589.1 248.0 L 591.8 248.0 L 594.5 248.0 L 597.2 248.0 L 599.9 248.0 L 602.7 248.0 L 605.3 248.0 L 608.1 248.0 L 610.8 248.0 L 613.5 248.0 L 616.1 248.0 L 618.8 248.0 L 621.5 248.0 L 624.2 248.0 L 626.9 248.0 L 629.7 248.0 L 632.3 248.0 L 635.0 248.0 L 637.7 248.0 L 640.4 248.0 L 643.1 248.0 L 645.8 248.0 L 648.6 248.0 L 651.3 248.0 L 654.0 248.0 L 656.7 248.0 L 659.5 248.0 L 662.2 248.0 L 664.9 248.0 L 667.6 248.0 L 670.3 248.0 L 673.0 248.0 L 675.7 248.0 L 678.4 248.0 L 681.1 248.0 L 683.8 248.0 L 686.5 248.0 L 689.2 215.8 L 692.0 119.4 L 694.8 100.4 L 698.0 159.2 L 701.0 247.9 L 703.7 239.8 L 706.4 247.8 L 709.1 247.8 L 711.9 247.8 L 714.6 247.8 L 717.3 248.0 L 720.0 248.0 L 722.7 248.0 L 725.4 248.0 L 728.1 248.0 L 730.8 248.0 L 733.4 248.0 L 736.2 248.0 L 738.9 248.0 L 741.6 248.0 L 744.2 248.0 L 746.9 248.0 L 749.7 248.0 L 752.3 248.0 L 755.0 248.0 L 757.7 248.0 L 760.4 248.0 L 763.1 248.0 L 765.7 248.0 L 768.6 248.0 L 771.3 248.0 L 774.0 248.0 L 776.7 248.0 L 779.3 248.0 L 782.0 248.0 L 784.8 248.0 L 787.4 248.0 L 790.1 248.0 L 792.8 248.0 L 795.5 248.0 L 798.2 248.0 L 800.9 248.0 L 803.7 248.0 L 806.3 248.0 L 809.0 248.0 L 811.7 248.0 L 814.4 248.0 L 817.1 248.0 L 819.8 248.0 L 822.5 248.0 L 825.2 248.0 L 827.8 248.0 L 830.5 131.7 L 833.3 116.8 L 836.2 110.7 L 839.5 235.8 L 842.3 247.9 L 845.0 242.9 L 847.8 247.9 L 850.4 247.9 L 853.2 247.8 L 855.9 247.9 L 858.6 248.0 L 861.3 248.0 L 864.0 248.0 L 866.7 248.0 L 869.4 248.0 L 872.1 248.0 L 874.8 248.0 L 877.6 248.0 L 880.2 248.0 L 882.9 248.0 L 885.6 248.0 L 888.3 248.0 L 891.0 248.0 L 893.7 248.0 L 896.4 248.0 L 899.1 248.0 L 901.8 248.0 L 904.4 248.0 L 907.1 248.0 L 909.9 248.0 L 912.5 248.0 L 915.2 248.0 L 917.9 248.0 L 920.6 248.0 L 923.3 248.0 L 926.0 248.0 L 928.7 248.0 L 931.4 248.0 L 934.1 248.0 L 936.8 248.0 L 939.5 248.0 L 942.2 248.0 L 944.8 248.0 L 947.5 248.0 L 950.2 248.0 L 952.9 248.0 L 955.6 248.0 L 958.3 248.0 L 961.0 248.0 L 963.7 248.0 L 966.6 248.0 L 969.3 248.0 L 972.0 125.3 L 974.8 84.4 L 978.2 116.6 L 981.4 246.8 L 984.2 241.7 L 986.9 247.9 L 989.6 247.8 L 992.5 247.8 L 995.2 247.8 L 997.9 248.0 L 1000.6 248.0 L 1003.2 248.0 L 1006.0 248.0 L 1008.7 248.0 L 1011.4 248.0 L 1014.1 248.0 L 1016.8 248.0 L 1019.5 248.0 L 1022.2 248.0 L 1024.9 248.0 L 1027.6 248.0 L 1030.2 248.0 L 1032.9 248.0 L 1035.7 248.0 L 1038.3 248.0 L 1041.0 248.0 L 1043.7 248.0 L 1046.4 248.0 L 1049.1 248.0 L 1051.8 248.0 L 1054.5 248.0 L 1057.2 248.0 L 1059.9 248.0 L 1062.5 248.0 L 1065.2 248.0 L 1068.0 248.0 L 1070.6 248.0 L 1073.3 248.0 L 1076.0 248.0" fill="none" stroke="#54A24B" stroke-width="2.8" stroke-linejoin="round" stroke-linecap="round"/>
<line x1="86" y1="460.0" x2="1076" y2="460.0" stroke="#ececec" stroke-width="1"/>
<text x="76" y="464.0" text-anchor="end" font-size="12" fill="#444" font-family="Helvetica, Arial, sans-serif">0.0</text>
<line x1="86" y1="424.0" x2="1076" y2="424.0" stroke="#ececec" stroke-width="1"/>
<text x="76" y="428.0" text-anchor="end" font-size="12" fill="#444" font-family="Helvetica, Arial, sans-serif">3.4</text>
<line x1="86" y1="388.0" x2="1076" y2="388.0" stroke="#ececec" stroke-width="1"/>
<text x="76" y="392.0" text-anchor="end" font-size="12" fill="#444" font-family="Helvetica, Arial, sans-serif">6.8</text>
<line x1="86" y1="352.0" x2="1076" y2="352.0" stroke="#ececec" stroke-width="1"/>
<text x="76" y="356.0" text-anchor="end" font-size="12" fill="#444" font-family="Helvetica, Arial, sans-serif">10.2</text>
<line x1="86" y1="316.0" x2="1076" y2="316.0" stroke="#ececec" stroke-width="1"/>
<text x="76" y="320.0" text-anchor="end" font-size="12" fill="#444" font-family="Helvetica, Arial, sans-serif">13.6</text>
<line x1="86" y1="280.0" x2="1076" y2="280.0" stroke="#ececec" stroke-width="1"/>
<text x="76" y="284.0" text-anchor="end" font-size="12" fill="#444" font-family="Helvetica, Arial, sans-serif">17.0</text>
<line x1="86" y1="460.0" x2="1076" y2="460.0" stroke="#222" stroke-width="1.4"/>
<line x1="86" y1="280.0" x2="86" y2="460.0" stroke="#222" stroke-width="1.4"/>
<text x="24" y="370.0" text-anchor="middle" font-size="15" fill="#222" font-family="Helvetica, Arial, sans-serif" transform="rotate(-90 24,370.0)">TX GiB/s</text>
<rect x="86.0" y="280.0" width="294.9" height="180.0" fill="#4C78A8" opacity="0.08"/>
<rect x="397.4" y="280.0" width="120.6" height="180.0" fill="#F58518" opacity="0.08"/>
<rect x="534.9" y="280.0" width="121.6" height="180.0" fill="#F58518" opacity="0.08"/>
<rect x="673.5" y="280.0" width="122.7" height="180.0" fill="#F58518" opacity="0.08"/>
<rect x="813.7" y="280.0" width="122.9" height="180.0" fill="#F58518" opacity="0.08"/>
<rect x="954.1" y="280.0" width="122.7" height="180.0" fill="#F58518" opacity="0.08"/>
<path d="M 88.4 460.0 L 91.1 460.0 L 93.8 460.0 L 96.5 460.0 L 99.3 460.0 L 102.0 377.1 L 104.6 460.0 L 107.4 459.9 L 110.1 459.9 L 112.8 340.9 L 115.6 460.0 L 118.4 460.0 L 121.0 460.0 L 123.8 460.0 L 126.5 326.2 L 132.6 460.0 L 135.3 460.0 L 138.0 460.0 L 140.7 457.3 L 143.4 460.0 L 146.1 460.0 L 149.1 460.0 L 151.7 460.0 L 154.5 296.4 L 157.2 460.0 L 159.8 460.0 L 162.6 460.0 L 165.3 460.0 L 168.2 460.0 L 170.9 410.2 L 173.6 459.9 L 176.3 459.9 L 179.0 460.0 L 181.7 460.0 L 184.4 460.0 L 187.2 333.8 L 189.9 460.0 L 192.7 460.0 L 195.3 460.0 L 198.0 460.0 L 200.8 460.0 L 203.4 460.0 L 206.3 460.0 L 209.0 460.0 L 211.7 460.0 L 214.4 460.0 L 217.2 460.0 L 219.8 460.0 L 222.5 391.3 L 225.5 460.0 L 228.1 460.0 L 230.9 460.0 L 233.6 460.0 L 236.2 460.0 L 239.0 460.0 L 241.7 460.0 L 244.6 460.0 L 247.3 460.0 L 250.0 460.0 L 252.7 460.0 L 255.5 460.0 L 258.1 460.0 L 260.8 460.0 L 263.8 296.4 L 266.4 460.0 L 269.2 460.0 L 271.9 460.0 L 274.5 460.0 L 277.3 460.0 L 280.0 460.0 L 282.9 460.0 L 285.6 296.4 L 288.3 460.0 L 291.0 459.9 L 293.8 459.9 L 296.4 459.9 L 299.2 459.9 L 302.3 459.9 L 305.0 460.0 L 307.7 459.9 L 310.4 459.9 L 313.5 460.0 L 316.3 460.0 L 319.1 460.0 L 321.8 460.0 L 324.5 460.0 L 327.1 460.0 L 329.8 460.0 L 332.5 460.0 L 335.2 460.0 L 337.9 460.0 L 340.7 460.0 L 343.3 460.0 L 346.1 460.0 L 348.8 460.0 L 351.5 460.0 L 354.1 460.0 L 356.8 460.0 L 359.6 460.0 L 362.4 460.0 L 365.0 460.0 L 367.7 460.0 L 370.4 460.0 L 373.1 460.0 L 375.8 460.0 L 378.4 460.0 L 381.2 460.0 L 383.9 460.0 L 386.6 460.0 L 389.3 460.0 L 392.0 460.0 L 394.7 460.0 L 397.4 460.0 L 400.1 460.0 L 403.2 460.0 L 406.0 460.0 L 408.8 460.0 L 411.4 460.0 L 414.1 456.5 L 417.0 426.7 L 419.9 426.2 L 423.1 441.1 L 426.0 459.9 L 428.7 459.9 L 431.5 459.9 L 434.2 459.9 L 437.0 459.9 L 439.7 459.9 L 442.4 460.0 L 445.1 460.0 L 447.8 460.0 L 450.5 460.0 L 453.3 460.0 L 455.9 460.0 L 458.6 460.0 L 461.4 460.0 L 464.0 460.0 L 466.7 460.0 L 469.4 460.0 L 472.1 460.0 L 475.0 460.0 L 477.6 460.0 L 480.3 460.0 L 483.0 460.0 L 485.7 460.0 L 488.4 460.0 L 491.0 460.0 L 493.7 460.0 L 496.5 460.0 L 499.1 460.0 L 501.9 460.0 L 504.6 460.0 L 507.3 459.9 L 510.0 459.9 L 512.7 460.0 L 515.4 460.0 L 518.1 460.0 L 520.8 460.0 L 523.5 460.0 L 526.2 460.0 L 528.9 460.0 L 531.6 460.0 L 534.2 460.0 L 536.9 460.0 L 539.7 460.0 L 542.4 460.0 L 545.2 460.0 L 547.9 460.0 L 550.6 460.0 L 553.3 426.2 L 556.1 425.1 L 559.1 426.3 L 561.9 459.9 L 564.8 439.5 L 567.4 459.9 L 570.2 459.9 L 572.9 459.9 L 575.6 459.9 L 578.3 460.0 L 581.0 460.0 L 583.7 460.0 L 586.4 460.0 L 589.1 460.0 L 591.8 460.0 L 594.5 460.0 L 597.2 460.0 L 599.9 460.0 L 602.7 460.0 L 605.3 460.0 L 608.1 460.0 L 610.8 460.0 L 613.5 460.0 L 616.1 460.0 L 618.8 460.0 L 621.5 460.0 L 624.2 460.0 L 626.9 460.0 L 629.7 460.0 L 632.3 460.0 L 635.0 460.0 L 637.7 460.0 L 640.4 460.0 L 643.1 460.0 L 645.8 460.0 L 648.6 460.0 L 651.3 460.0 L 654.0 460.0 L 656.7 460.0 L 659.5 460.0 L 662.2 460.0 L 664.9 460.0 L 667.6 460.0 L 670.3 460.0 L 673.0 460.0 L 675.7 460.0 L 678.4 460.0 L 681.1 460.0 L 683.8 460.0 L 686.5 460.0 L 689.2 460.0 L 692.0 426.9 L 694.8 425.9 L 698.0 426.2 L 701.0 460.0 L 703.7 439.5 L 706.4 459.9 L 709.1 459.9 L 711.9 459.9 L 714.6 459.9 L 717.3 460.0 L 720.0 460.0 L 722.7 460.0 L 725.4 460.0 L 728.1 460.0 L 730.8 460.0 L 733.4 460.0 L 736.2 460.0 L 738.9 460.0 L 741.6 460.0 L 744.2 460.0 L 746.9 460.0 L 749.7 460.0 L 752.3 460.0 L 755.0 460.0 L 757.7 460.0 L 760.4 460.0 L 763.1 460.0 L 765.7 460.0 L 768.6 460.0 L 771.3 460.0 L 774.0 460.0 L 776.7 460.0 L 779.3 460.0 L 782.0 460.0 L 784.8 460.0 L 787.4 460.0 L 790.1 460.0 L 792.8 460.0 L 795.5 460.0 L 798.2 460.0 L 800.9 460.0 L 803.7 460.0 L 806.3 460.0 L 809.0 460.0 L 811.7 460.0 L 814.4 460.0 L 817.1 460.0 L 819.8 460.0 L 822.5 460.0 L 825.2 460.0 L 827.8 460.0 L 830.5 458.6 L 833.3 426.5 L 836.2 416.3 L 839.5 429.3 L 842.3 459.9 L 845.0 447.3 L 847.8 459.9 L 850.4 459.9 L 853.2 459.9 L 855.9 459.9 L 858.6 460.0 L 861.3 460.0 L 864.0 460.0 L 866.7 460.0 L 869.4 460.0 L 872.1 460.0 L 874.8 460.0 L 877.6 460.0 L 880.2 460.0 L 882.9 460.0 L 885.6 460.0 L 888.3 460.0 L 891.0 460.0 L 893.7 460.0 L 896.4 460.0 L 899.1 460.0 L 901.8 460.0 L 904.4 460.0 L 907.1 460.0 L 909.9 460.0 L 912.5 460.0 L 915.2 460.0 L 917.9 460.0 L 920.6 460.0 L 923.3 460.0 L 926.0 460.0 L 928.7 460.0 L 931.4 460.0 L 934.1 460.0 L 936.8 460.0 L 939.5 460.0 L 942.2 460.0 L 944.8 460.0 L 947.5 460.0 L 950.2 460.0 L 952.9 460.0 L 955.6 460.0 L 958.3 460.0 L 961.0 460.0 L 963.7 460.0 L 966.6 460.0 L 969.3 460.0 L 972.0 440.9 L 974.8 424.3 L 978.2 423.4 L 981.4 457.1 L 984.2 444.3 L 986.9 459.9 L 989.6 459.9 L 992.5 459.9 L 995.2 459.9 L 997.9 460.0 L 1000.6 460.0 L 1003.2 460.0 L 1006.0 460.0 L 1008.7 460.0 L 1011.4 460.0 L 1014.1 460.0 L 1016.8 460.0 L 1019.5 460.0 L 1022.2 460.0 L 1024.9 460.0 L 1027.6 460.0 L 1030.2 460.0 L 1032.9 460.0 L 1035.7 460.0 L 1038.3 460.0 L 1041.0 460.0 L 1043.7 460.0 L 1046.4 460.0 L 1049.1 460.0 L 1051.8 460.0 L 1054.5 460.0 L 1057.2 460.0 L 1059.9 460.0 L 1062.5 460.0 L 1065.2 460.0 L 1068.0 460.0 L 1070.6 460.0 L 1073.3 460.0 L 1076.0 460.0" fill="none" stroke="#4C78A8" stroke-width="2.8" stroke-linejoin="round" stroke-linecap="round"/>
<line x1="86" y1="672.0" x2="1076" y2="672.0" stroke="#ececec" stroke-width="1"/>
<text x="76" y="676.0" text-anchor="end" font-size="12" fill="#444" font-family="Helvetica, Arial, sans-serif">0.0</text>
<line x1="86" y1="636.0" x2="1076" y2="636.0" stroke="#ececec" stroke-width="1"/>
<text x="76" y="640.0" text-anchor="end" font-size="12" fill="#444" font-family="Helvetica, Arial, sans-serif">7.9</text>
<line x1="86" y1="600.0" x2="1076" y2="600.0" stroke="#ececec" stroke-width="1"/>
<text x="76" y="604.0" text-anchor="end" font-size="12" fill="#444" font-family="Helvetica, Arial, sans-serif">15.7</text>
<line x1="86" y1="564.0" x2="1076" y2="564.0" stroke="#ececec" stroke-width="1"/>
<text x="76" y="568.0" text-anchor="end" font-size="12" fill="#444" font-family="Helvetica, Arial, sans-serif">23.6</text>
<line x1="86" y1="528.0" x2="1076" y2="528.0" stroke="#ececec" stroke-width="1"/>
<text x="76" y="532.0" text-anchor="end" font-size="12" fill="#444" font-family="Helvetica, Arial, sans-serif">31.5</text>
<line x1="86" y1="492.0" x2="1076" y2="492.0" stroke="#ececec" stroke-width="1"/>
<text x="76" y="496.0" text-anchor="end" font-size="12" fill="#444" font-family="Helvetica, Arial, sans-serif">39.3</text>
<line x1="86" y1="672.0" x2="1076" y2="672.0" stroke="#222" stroke-width="1.4"/>
<line x1="86" y1="492.0" x2="86" y2="672.0" stroke="#222" stroke-width="1.4"/>
<text x="24" y="582.0" text-anchor="middle" font-size="15" fill="#222" font-family="Helvetica, Arial, sans-serif" transform="rotate(-90 24,582.0)">RX GiB/s</text>
<rect x="86.0" y="492.0" width="294.9" height="180.0" fill="#4C78A8" opacity="0.08"/>
<rect x="397.4" y="492.0" width="120.6" height="180.0" fill="#F58518" opacity="0.08"/>
<rect x="534.9" y="492.0" width="121.6" height="180.0" fill="#F58518" opacity="0.08"/>
<rect x="673.5" y="492.0" width="122.7" height="180.0" fill="#F58518" opacity="0.08"/>
<rect x="813.7" y="492.0" width="122.9" height="180.0" fill="#F58518" opacity="0.08"/>
<rect x="954.1" y="492.0" width="122.7" height="180.0" fill="#F58518" opacity="0.08"/>
<path d="M 88.4 672.0 L 91.1 672.0 L 93.8 672.0 L 96.5 672.0 L 99.3 672.0 L 102.0 672.0 L 104.6 672.0 L 107.4 672.0 L 110.1 672.0 L 112.8 671.9 L 115.6 672.0 L 118.4 672.0 L 121.0 672.0 L 123.8 672.0 L 126.5 671.8 L 132.6 672.0 L 135.3 672.0 L 138.0 672.0 L 140.7 672.0 L 143.4 672.0 L 146.1 672.0 L 149.1 672.0 L 151.7 672.0 L 154.5 672.0 L 157.2 672.0 L 159.8 672.0 L 162.6 672.0 L 165.3 672.0 L 168.2 672.0 L 170.9 672.0 L 173.6 672.0 L 176.3 672.0 L 179.0 672.0 L 181.7 672.0 L 184.4 671.9 L 187.2 672.0 L 189.9 672.0 L 192.7 672.0 L 195.3 672.0 L 198.0 672.0 L 200.8 672.0 L 203.4 672.0 L 206.3 672.0 L 209.0 672.0 L 211.7 672.0 L 214.4 672.0 L 217.2 672.0 L 219.8 672.0 L 222.5 672.0 L 225.5 672.0 L 228.1 672.0 L 230.9 672.0 L 233.6 672.0 L 236.2 672.0 L 239.0 671.9 L 241.7 671.9 L 244.6 672.0 L 247.3 672.0 L 250.0 672.0 L 252.7 672.0 L 255.5 672.0 L 258.1 672.0 L 260.8 672.0 L 263.8 672.0 L 266.4 672.0 L 269.2 672.0 L 271.9 672.0 L 274.5 672.0 L 277.3 672.0 L 280.0 672.0 L 282.9 672.0 L 285.6 671.9 L 288.3 671.8 L 291.0 671.9 L 293.8 671.9 L 296.4 671.9 L 299.2 671.9 L 302.3 672.0 L 305.0 672.0 L 307.7 672.0 L 310.4 672.0 L 313.5 672.0 L 316.3 672.0 L 319.1 672.0 L 321.8 672.0 L 324.5 672.0 L 327.1 672.0 L 329.8 672.0 L 332.5 672.0 L 335.2 672.0 L 337.9 672.0 L 340.7 672.0 L 343.3 672.0 L 346.1 672.0 L 348.8 672.0 L 351.5 672.0 L 354.1 672.0 L 356.8 672.0 L 359.6 672.0 L 362.4 672.0 L 365.0 672.0 L 367.7 672.0 L 370.4 672.0 L 373.1 672.0 L 375.8 672.0 L 378.4 672.0 L 381.2 672.0 L 383.9 672.0 L 386.6 672.0 L 389.3 672.0 L 392.0 672.0 L 394.7 672.0 L 397.4 672.0 L 400.1 672.0 L 403.2 672.0 L 406.0 672.0 L 408.8 672.0 L 411.4 672.0 L 414.1 536.3 L 417.0 544.1 L 419.9 509.4 L 423.1 671.9 L 426.0 671.9 L 428.7 671.9 L 431.5 671.9 L 434.2 671.9 L 437.0 671.9 L 439.7 672.0 L 442.4 672.0 L 445.1 672.0 L 447.8 672.0 L 450.5 672.0 L 453.3 672.0 L 455.9 672.0 L 458.6 672.0 L 461.4 672.0 L 464.0 672.0 L 466.7 672.0 L 469.4 672.0 L 472.1 672.0 L 475.0 672.0 L 477.6 672.0 L 480.3 672.0 L 483.0 672.0 L 485.7 672.0 L 488.4 672.0 L 491.0 672.0 L 493.7 672.0 L 496.5 672.0 L 499.1 672.0 L 501.9 672.0 L 504.6 672.0 L 507.3 672.0 L 510.0 672.0 L 512.7 672.0 L 515.4 672.0 L 518.1 672.0 L 520.8 672.0 L 523.5 672.0 L 526.2 672.0 L 528.9 672.0 L 531.6 672.0 L 534.2 672.0 L 536.9 672.0 L 539.7 672.0 L 542.4 672.0 L 545.2 671.9 L 547.9 672.0 L 550.6 632.2 L 553.3 546.0 L 556.1 544.5 L 559.1 568.7 L 561.9 671.9 L 564.8 671.9 L 567.4 671.9 L 570.2 671.9 L 572.9 671.9 L 575.6 671.8 L 578.3 672.0 L 581.0 672.0 L 583.7 672.0 L 586.4 672.0 L 589.1 672.0 L 591.8 672.0 L 594.5 672.0 L 597.2 672.0 L 599.9 672.0 L 602.7 672.0 L 605.3 672.0 L 608.1 672.0 L 610.8 672.0 L 613.5 672.0 L 616.1 672.0 L 618.8 672.0 L 621.5 672.0 L 624.2 672.0 L 626.9 672.0 L 629.7 672.0 L 632.3 672.0 L 635.0 672.0 L 637.7 672.0 L 640.4 672.0 L 643.1 672.0 L 645.8 672.0 L 648.6 672.0 L 651.3 672.0 L 654.0 672.0 L 656.7 672.0 L 659.5 672.0 L 662.2 672.0 L 664.9 672.0 L 667.6 672.0 L 670.3 672.0 L 673.0 672.0 L 675.7 672.0 L 678.4 672.0 L 681.1 672.0 L 683.8 671.9 L 686.5 672.0 L 689.2 636.7 L 692.0 545.6 L 694.8 525.3 L 698.0 589.4 L 701.0 671.9 L 703.7 671.9 L 706.4 671.9 L 709.1 671.8 L 711.9 671.9 L 714.6 671.9 L 717.3 672.0 L 720.0 672.0 L 722.7 672.0 L 725.4 672.0 L 728.1 672.0 L 730.8 672.0 L 733.4 672.0 L 736.2 672.0 L 738.9 672.0 L 741.6 672.0 L 744.2 672.0 L 746.9 672.0 L 749.7 672.0 L 752.3 672.0 L 755.0 672.0 L 757.7 672.0 L 760.4 672.0 L 763.1 672.0 L 765.7 672.0 L 768.6 672.0 L 771.3 672.0 L 774.0 672.0 L 776.7 672.0 L 779.3 672.0 L 782.0 672.0 L 784.8 672.0 L 787.4 672.0 L 790.1 672.0 L 792.8 672.0 L 795.5 672.0 L 798.2 672.0 L 800.9 672.0 L 803.7 672.0 L 806.3 672.0 L 809.0 672.0 L 811.7 672.0 L 814.4 672.0 L 817.1 672.0 L 819.8 672.0 L 822.5 672.0 L 825.2 672.0 L 827.8 672.0 L 830.5 545.3 L 833.3 542.9 L 836.2 540.7 L 839.5 671.9 L 842.3 671.9 L 845.0 671.9 L 847.8 671.9 L 850.4 671.9 L 853.2 671.9 L 855.9 671.9 L 858.6 672.0 L 861.3 672.0 L 864.0 672.0 L 866.7 672.0 L 869.4 672.0 L 872.1 672.0 L 874.8 672.0 L 877.6 672.0 L 880.2 672.0 L 882.9 672.0 L 885.6 672.0 L 888.3 672.0 L 891.0 672.0 L 893.7 672.0 L 896.4 672.0 L 899.1 672.0 L 901.8 672.0 L 904.4 672.0 L 907.1 672.0 L 909.9 672.0 L 912.5 672.0 L 915.2 672.0 L 917.9 672.0 L 920.6 672.0 L 923.3 672.0 L 926.0 672.0 L 928.7 672.0 L 931.4 672.0 L 934.1 672.0 L 936.8 672.0 L 939.5 672.0 L 942.2 672.0 L 944.8 672.0 L 947.5 672.0 L 950.2 672.0 L 952.9 672.0 L 955.6 672.0 L 958.3 672.0 L 961.0 672.0 L 963.7 671.9 L 966.6 672.0 L 969.3 672.0 L 972.0 546.0 L 974.8 508.4 L 978.2 544.0 L 981.4 671.9 L 984.2 671.9 L 986.9 671.9 L 989.6 671.9 L 992.5 671.9 L 995.2 671.9 L 997.9 672.0 L 1000.6 672.0 L 1003.2 672.0 L 1006.0 672.0 L 1008.7 672.0 L 1011.4 672.0 L 1014.1 672.0 L 1016.8 672.0 L 1019.5 672.0 L 1022.2 672.0 L 1024.9 672.0 L 1027.6 672.0 L 1030.2 672.0 L 1032.9 672.0 L 1035.7 672.0 L 1038.3 672.0 L 1041.0 672.0 L 1043.7 672.0 L 1046.4 672.0 L 1049.1 672.0 L 1051.8 672.0 L 1054.5 672.0 L 1057.2 672.0 L 1059.9 672.0 L 1062.5 672.0 L 1065.2 672.0 L 1068.0 672.0 L 1070.6 672.0 L 1073.3 672.0 L 1076.0 672.0" fill="none" stroke="#F58518" stroke-width="2.8" stroke-linejoin="round" stroke-linecap="round"/>
<line x1="86.0" y1="68.0" x2="86.0" y2="672.0" stroke="#f2f2f2" stroke-width="1"/>
<text x="86.0" y="802" text-anchor="middle" font-size="12" fill="#444" font-family="Helvetica, Arial, sans-serif">0.0</text>
<line x1="251.0" y1="68.0" x2="251.0" y2="672.0" stroke="#f2f2f2" stroke-width="1"/>
<text x="251.0" y="802" text-anchor="middle" font-size="12" fill="#444" font-family="Helvetica, Arial, sans-serif">2.6</text>
<line x1="416.0" y1="68.0" x2="416.0" y2="672.0" stroke="#f2f2f2" stroke-width="1"/>
<text x="416.0" y="802" text-anchor="middle" font-size="12" fill="#444" font-family="Helvetica, Arial, sans-serif">5.2</text>
<line x1="581.0" y1="68.0" x2="581.0" y2="672.0" stroke="#f2f2f2" stroke-width="1"/>
<text x="581.0" y="802" text-anchor="middle" font-size="12" fill="#444" font-family="Helvetica, Arial, sans-serif">7.8</text>
<line x1="746.0" y1="68.0" x2="746.0" y2="672.0" stroke="#f2f2f2" stroke-width="1"/>
<text x="746.0" y="802" text-anchor="middle" font-size="12" fill="#444" font-family="Helvetica, Arial, sans-serif">10.3</text>
<line x1="911.0" y1="68.0" x2="911.0" y2="672.0" stroke="#f2f2f2" stroke-width="1"/>
<text x="911.0" y="802" text-anchor="middle" font-size="12" fill="#444" font-family="Helvetica, Arial, sans-serif">12.9</text>
<line x1="1076.0" y1="68.0" x2="1076.0" y2="672.0" stroke="#f2f2f2" stroke-width="1"/>
<text x="1076.0" y="802" text-anchor="middle" font-size="12" fill="#444" font-family="Helvetica, Arial, sans-serif">15.5</text>
<text x="581.0" y="818" text-anchor="middle" font-size="16" fill="#222" font-family="Helvetica, Arial, sans-serif">time since first request submit (s)</text>
<rect x="850" y="44" width="220" height="70" rx="8" fill="#fff" stroke="#ddd"/>
<rect x="862" y="58" width="16" height="12" fill="#4C78A8" opacity="0.35"/>
<text x="890" y="68" font-size="13" fill="#333" font-family="Helvetica, Arial, sans-serif">seed</text>
<rect x="862" y="80" width="16" height="12" fill="#F58518" opacity="0.35"/>
<text x="890" y="90" font-size="13" fill="#333" font-family="Helvetica, Arial, sans-serif">reuse</text>
</svg>