<svg xmlns="http://www.w3.org/2000/svg" width="1100" height="420" viewBox="0 0 1100 420">
<rect width="1100" height="420" fill="white"/>
<text x="86" y="26" font-size="22" font-weight="700" font-family="Helvetica, Arial, sans-serif">tb_session_04_turn_001_reuse  phase=reuse  turn=1  prompt=24832  peak_tx=15.45 GiB/s  peak_rx=32.61 GiB/s</text>
<text x="86" y="46" font-size="13" fill="#444" font-family="Helvetica, Arial, sans-serif">response_window=17.239s, response_tx=17.021 GiB, response_rx=7.156 GiB, metrics_tx=21.757 GiB, metrics_rx=7.527 GiB</text>
<line x1="86" y1="366.0" x2="1076" y2="366.0" stroke="#ececec" stroke-width="1"/>
<text x="76" y="370.0" text-anchor="end" font-size="12" fill="#444" font-family="Helvetica, Arial, sans-serif">0.0</text>
<line x1="86" y1="305.2" x2="1076" y2="305.2" stroke="#ececec" stroke-width="1"/>
<text x="76" y="309.2" text-anchor="end" font-size="12" fill="#444" font-family="Helvetica, Arial, sans-serif">7.2</text>
<line x1="86" y1="244.4" x2="1076" y2="244.4" stroke="#ececec" stroke-width="1"/>
<text x="76" y="248.4" text-anchor="end" font-size="12" fill="#444" font-family="Helvetica, Arial, sans-serif">14.3</text>
<line x1="86" y1="183.6" x2="1076" y2="183.6" stroke="#ececec" stroke-width="1"/>
<text x="76" y="187.6" text-anchor="end" font-size="12" fill="#444" font-family="Helvetica, Arial, sans-serif">21.5</text>
<line x1="86" y1="122.8" x2="1076" y2="122.8" stroke="#ececec" stroke-width="1"/>
<text x="76" y="126.8" text-anchor="end" font-size="12" fill="#444" font-family="Helvetica, Arial, sans-serif">28.7</text>
<line x1="86" y1="62.0" x2="1076" y2="62.0" stroke="#ececec" stroke-width="1"/>
<text x="76" y="66.0" text-anchor="end" font-size="12" fill="#444" font-family="Helvetica, Arial, sans-serif">35.9</text>
<line x1="86" y1="366.0" x2="1076" y2="366.0" stroke="#222" stroke-width="1.4"/>
<line x1="86" y1="62.0" x2="86" y2="366.0" stroke="#222" stroke-width="1.4"/>
<rect x="93.7" y="62.0" width="980.4" height="304.0" fill="#F58518" opacity="0.08"/>
<path d="M 86.0 366.0 L 88.4 366.0 L 90.8 366.0 L 93.2 366.0 L 95.6 366.0 L 97.9 366.0 L 100.3 366.0 L 102.7 366.0 L 105.2 366.0 L 107.6 364.6 L 110.1 338.9 L 112.6 339.2 L 115.3 343.6 L 117.8 366.0 L 120.2 361.8 L 122.7 366.0 L 125.1 366.0 L 127.5 365.9 L 129.9 365.9 L 132.4 251.4 L 134.9 366.0 L 140.2 366.0 L 142.6 366.0 L 145.1 237.2 L 147.5 366.0 L 149.9 366.0 L 152.3 366.0 L 154.8 366.0 L 157.1 364.5 L 159.7 366.0 L 162.1 366.0 L 164.5 366.0 L 166.9 366.0 L 169.4 366.0 L 171.8 269.4 L 174.2 366.0 L 176.7 366.0 L 179.2 366.0 L 181.6 366.0 L 184.0 366.0 L 186.4 298.8 L 188.9 365.9 L 191.3 365.9 L 194.0 366.0 L 196.4 366.0 L 198.9 366.0 L 201.3 366.0 L 203.7 366.0 L 206.1 366.0 L 208.5 366.0 L 210.9 366.0 L 213.4 366.0 L 215.8 366.0 L 218.2 366.0 L 220.6 366.0 L 223.0 366.0 L 225.4 366.0 L 227.9 366.0 L 230.4 366.0 L 232.8 366.0 L 235.2 366.0 L 237.6 366.0 L 240.1 366.0 L 242.5 366.0 L 245.0 366.0 L 247.5 365.9 L 249.9 366.0 L 252.3 366.0 L 254.7 236.1 L 257.1 366.0 L 259.6 366.0 L 262.0 366.0 L 264.4 366.0 L 266.8 366.0 L 269.2 366.0 L 271.6 366.0 L 274.1 313.1 L 276.5 366.0 L 278.9 366.0 L 281.3 366.0 L 283.7 366.0 L 286.2 366.0 L 288.6 366.0 L 291.0 366.0 L 293.4 349.0 L 295.8 366.0 L 298.2 366.0 L 300.6 366.0 L 303.1 324.1 L 305.5 365.9 L 308.0 365.9 L 310.4 365.9 L 312.8 366.0 L 315.2 342.2 L 317.6 365.9 L 320.4 366.0 L 322.8 366.0 L 325.2 366.0 L 327.6 366.0 L 330.0 366.0 L 332.5 366.0 L 334.9 366.0 L 337.4 366.0 L 339.8 366.0 L 342.2 336.1 L 344.6 366.0 L 347.3 366.0 L 349.8 366.0 L 352.2 366.0 L 354.7 366.0 L 357.0 329.1 L 359.4 366.0 L 361.9 366.0 L 364.3 365.9 L 366.7 365.9 L 369.1 365.9 L 371.8 366.0 L 374.2 366.0 L 376.6 366.0 L 379.1 366.0 L 381.4 366.0 L 383.9 366.0 L 386.3 366.0 L 388.7 277.1 L 391.1 366.0 L 393.6 366.0 L 395.9 366.0 L 398.4 366.0 L 400.8 366.0 L 403.2 366.0 L 405.7 235.0 L 408.1 366.0 L 410.6 366.0 L 412.9 366.0 L 415.3 366.0 L 417.8 366.0 L 420.2 366.0 L 422.8 294.5 L 425.2 365.9 L 427.6 365.9 L 430.1 366.0 L 432.5 366.0 L 434.9 366.0 L 437.3 366.0 L 439.8 366.0 L 442.2 303.7 L 444.7 366.0 L 447.1 366.0 L 449.6 366.0 L 452.0 366.0 L 454.3 366.0 L 457.0 366.0 L 459.5 366.0 L 461.9 366.0 L 464.3 366.0 L 466.7 366.0 L 469.1 366.0 L 471.5 366.0 L 474.0 366.0 L 476.5 366.0 L 478.9 366.0 L 481.2 314.0 L 483.7 366.0 L 486.1 365.3 L 488.6 365.9 L 491.1 366.0 L 493.5 366.0 L 495.9 366.0 L 498.3 323.6 L 500.8 366.0 L 503.1 366.0 L 505.5 366.0 L 508.0 366.0 L 510.4 323.6 L 512.9 366.0 L 515.3 366.0 L 517.7 366.0 L 520.1 366.0 L 522.5 366.0 L 525.1 265.7 L 527.5 366.0 L 529.9 366.0 L 532.3 366.0 L 534.8 366.0 L 537.2 366.0 L 539.6 266.7 L 542.1 366.0 L 544.5 365.9 L 546.9 365.9 L 549.4 366.0 L 551.8 366.0 L 554.2 366.0 L 556.6 366.0 L 559.0 366.0 L 561.4 366.0 L 563.8 366.0 L 566.3 366.0 L 568.7 366.0 L 571.1 311.0 L 573.5 366.0 L 575.9 366.0 L 578.3 366.0 L 581.0 366.0 L 583.4 366.0 L 585.8 366.0 L 588.3 281.4 L 590.7 366.0 L 593.1 366.0 L 595.5 366.0 L 598.2 366.0 L 600.7 366.0 L 603.1 365.9 L 605.5 365.9 L 608.0 365.9 L 610.5 366.0 L 612.9 366.0 L 615.3 366.0 L 617.7 366.0 L 620.1 366.0 L 622.5 366.0 L 625.0 244.5 L 627.5 366.0 L 630.0 366.0 L 632.4 366.0 L 634.7 366.0 L 637.2 366.0 L 639.6 366.0 L 642.0 366.0 L 644.6 239.7 L 647.0 366.0 L 649.6 359.8 L 652.1 366.0 L 654.5 366.0 L 656.9 366.0 L 659.4 366.0 L 661.8 366.0 L 664.2 362.4 L 666.6 366.0 L 669.0 366.0 L 671.4 366.0 L 673.9 366.0 L 676.3 235.0 L 678.7 366.0 L 681.1 366.0 L 683.6 366.0 L 686.0 366.0 L 688.4 366.0 L 690.8 289.3 L 693.2 366.0 L 695.9 366.0 L 698.4 366.0 L 700.8 366.0 L 703.2 366.0 L 705.6 295.5 L 708.0 366.0 L 710.4 366.0 L 712.9 366.0 L 715.3 366.0 L 717.8 366.0 L 720.2 278.8 L 722.6 365.9 L 725.0 365.9 L 727.4 365.9 L 729.9 366.0 L 732.3 366.0 L 734.7 366.0 L 737.2 235.0 L 739.6 366.0 L 741.9 366.0 L 744.4 366.0 L 746.9 366.0 L 749.3 366.0 L 751.8 366.0 L 754.2 274.7 L 756.6 366.0 L 759.0 366.0 L 761.4 366.0 L 764.0 366.0 L 766.4 366.0 L 768.8 366.0 L 771.2 235.0 L 773.6 366.0 L 776.0 366.0 L 778.5 366.0 L 781.1 366.0 L 783.5 365.9 L 785.8 365.9 L 788.3 366.0 L 790.7 366.0 L 793.1 366.0 L 795.5 366.0 L 798.1 366.0 L 800.5 366.0 L 803.0 366.0 L 805.4 366.0 L 807.7 366.0 L 810.2 366.0 L 812.6 366.0 L 815.3 366.0 L 817.7 366.0 L 820.1 366.0 L 822.5 366.0 L 824.9 366.0 L 827.3 366.0 L 829.8 326.7 L 832.5 366.0 L 834.9 366.0 L 837.3 366.0 L 839.8 366.0 L 842.1 365.9 L 844.5 365.9 L 847.0 366.0 L 849.4 366.0 L 851.9 366.0 L 854.3 285.4 L 856.7 366.0 L 859.1 366.0 L 861.5 366.0 L 863.9 366.0 L 866.4 350.1 L 868.9 366.0 L 871.3 366.0 L 873.7 366.0 L 876.1 366.0 L 878.5 366.0 L 880.9 324.2 L 883.4 366.0 L 885.8 366.0 L 888.3 366.0 L 890.7 366.0 L 893.0 366.0 L 895.5 366.0 L 897.9 366.0 L 900.5 366.0 L 902.9 365.9 L 905.3 365.9 L 907.7 366.0 L 910.1 366.0 L 912.6 244.7 L 914.9 366.0 L 917.4 366.0 L 919.8 366.0 L 922.3 366.0 L 924.8 366.0 L 927.2 366.0 L 929.6 366.0 L 932.0 366.0 L 934.6 366.0 L 937.1 366.0 L 939.5 366.0 L 941.8 366.0 L 944.3 366.0 L 946.7 366.0 L 949.1 366.0 L 951.9 366.0 L 954.2 366.0 L 956.7 366.0 L 959.1 366.0 L 961.5 365.9 L 963.9 277.2 L 966.3 366.0 L 968.8 366.0 L 971.2 366.0 L 973.6 366.0 L 976.0 366.0 L 978.5 366.0 L 980.9 366.0 L 983.3 366.0 L 985.9 366.0 L 988.2 366.0 L 990.7 366.0 L 993.1 366.0 L 995.5 366.0 L 997.9 366.0 L 1000.3 366.0 L 1002.9 366.0 L 1005.3 366.0 L 1007.7 366.0 L 1010.1 366.0 L 1012.5 366.0 L 1014.9 366.0 L 1017.4 366.0 L 1020.0 325.3 L 1022.4 365.9 L 1024.8 365.9 L 1027.3 366.0 L 1029.7 366.0 L 1032.0 294.5 L 1034.5 366.0 L 1037.1 366.0 L 1039.5 366.0 L 1041.9 366.0 L 1044.3 266.5 L 1046.7 366.0 L 1049.1 366.0 L 1051.5 366.0 L 1054.0 366.0 L 1056.5 366.0 L 1058.9 267.4 L 1061.3 366.0 L 1063.7 366.0 L 1066.1 366.0 L 1068.5 366.0 L 1071.2 366.0 L 1073.6 333.3 L 1076.0 366.0" fill="none" stroke="#4C78A8" stroke-width="2.8" stroke-linejoin="round" stroke-linecap="round"/>
<path d="M 86.0 366.0 L 88.4 366.0 L 90.8 366.0 L 93.2 366.0 L 95.6 366.0 L 97.9 366.0 L 100.3 366.0 L 102.7 366.0 L 105.2 366.0 L 107.6 131.8 L 110.1 129.4 L 112.6 89.6 L 115.3 365.9 L 117.8 365.9 L 120.2 251.8 L 122.7 365.9 L 125.1 365.9 L 127.5 365.9 L 129.9 365.9 L 132.4 365.9 L 134.9 365.6 L 140.2 365.9 L 142.6 365.9 L 145.1 365.9 L 147.5 365.9 L 149.9 365.9 L 152.3 365.9 L 154.8 365.9 L 157.1 365.9 L 159.7 365.9 L 162.1 365.9 L 164.5 365.9 L 166.9 365.9 L 169.4 365.9 L 171.8 365.9 L 174.2 365.9 L 176.7 365.9 L 179.2 365.9 L 181.6 365.9 L 184.0 365.9 L 186.4 365.9 L 188.9 365.9 L 191.3 365.9 L 194.0 365.9 L 196.4 365.9 L 198.9 365.9 L 201.3 365.9 L 203.7 365.9 L 206.1 365.9 L 208.5 365.9 L 210.9 365.9 L 213.4 365.9 L 215.8 365.9 L 218.2 365.9 L 220.6 365.9 L 223.0 365.9 L 225.4 365.9 L 227.9 365.9 L 230.4 365.9 L 232.8 365.9 L 235.2 365.9 L 237.6 365.9 L 240.1 365.9 L 242.5 365.9 L 245.0 365.9 L 247.5 365.9 L 249.9 365.9 L 252.3 365.9 L 254.7 365.9 L 257.1 365.9 L 259.6 365.9 L 262.0 365.9 L 264.4 365.9 L 266.8 365.9 L 269.2 365.9 L 271.6 365.9 L 274.1 365.9 L 276.5 365.9 L 278.9 365.9 L 281.3 365.9 L 283.7 365.9 L 286.2 365.9 L 288.6 365.9 L 291.0 365.9 L 293.4 365.9 L 295.8 365.9 L 298.2 365.9 L 300.6 365.9 L 303.1 365.9 L 305.5 365.9 L 308.0 365.9 L 310.4 365.9 L 312.8 365.9 L 315.2 365.9 L 317.6 365.9 L 320.4 365.9 L 322.8 365.9 L 325.2 365.9 L 327.6 366.0 L 330.0 365.9 L 332.5 365.9 L 334.9 365.9 L 337.4 365.9 L 339.8 365.9 L 342.2 365.9 L 344.6 365.9 L 347.3 365.9 L 349.8 365.9 L 352.2 365.9 L 354.7 365.9 L 357.0 365.9 L 359.4 365.9 L 361.9 365.9 L 364.3 365.9 L 366.7 365.9 L 369.1 365.9 L 371.8 365.9 L 374.2 365.9 L 376.6 365.9 L 379.1 365.9 L 381.4 365.9 L 383.9 365.9 L 386.3 365.9 L 388.7 365.9 L 391.1 365.9 L 393.6 365.9 L 395.9 365.9 L 398.4 365.9 L 400.8 365.9 L 403.2 365.9 L 405.7 365.9 L 408.1 365.9 L 410.6 365.9 L 412.9 365.9 L 415.3 365.9 L 417.8 365.9 L 420.2 365.9 L 422.8 365.9 L 425.2 365.9 L 427.6 365.9 L 430.1 365.9 L 432.5 365.9 L 434.9 365.9 L 437.3 365.9 L 439.8 365.9 L 442.2 365.9 L 444.7 365.9 L 447.1 365.9 L 449.6 365.9 L 452.0 365.9 L 454.3 365.9 L 457.0 365.9 L 459.5 365.9 L 461.9 365.9 L 464.3 365.9 L 466.7 365.9 L 469.1 365.9 L 471.5 365.9 L 474.0 365.9 L 476.5 365.9 L 478.9 365.9 L 481.2 366.0 L 483.7 159.1 L 486.1 365.9 L 488.6 365.9 L 491.1 365.9 L 493.5 365.9 L 495.9 365.9 L 498.3 365.9 L 500.8 365.9 L 503.1 365.9 L 505.5 365.9 L 508.0 365.9 L 510.4 365.9 L 512.9 365.9 L 515.3 365.9 L 517.7 365.9 L 520.1 365.9 L 522.5 365.9 L 525.1 365.9 L 527.5 365.9 L 529.9 365.9 L 532.3 365.9 L 534.8 365.9 L 537.2 365.9 L 539.6 365.9 L 542.1 365.9 L 544.5 365.9 L 546.9 365.9 L 549.4 365.9 L 551.8 365.9 L 554.2 365.9 L 556.6 365.9 L 559.0 365.9 L 561.4 365.9 L 563.8 365.9 L 566.3 365.9 L 568.7 365.9 L 571.1 365.9 L 573.5 365.9 L 575.9 365.9 L 578.3 365.9 L 581.0 365.9 L 583.4 365.9 L 585.8 365.9 L 588.3 365.9 L 590.7 365.9 L 593.1 365.9 L 595.5 365.9 L 598.2 365.9 L 600.7 365.9 L 603.1 365.9 L 605.5 365.9 L 608.0 365.9 L 610.5 365.9 L 612.9 365.9 L 615.3 365.9 L 617.7 365.9 L 620.1 365.9 L 622.5 365.9 L 625.0 365.9 L 627.5 365.9 L 630.0 365.9 L 632.4 365.9 L 634.7 365.9 L 637.2 365.9 L 639.6 365.9 L 642.0 365.9 L 644.6 366.0 L 647.0 238.8 L 649.6 365.9 L 652.1 365.9 L 654.5 365.9 L 656.9 365.9 L 659.4 365.9 L 661.8 365.9 L 664.2 365.9 L 666.6 365.9 L 669.0 365.9 L 671.4 365.9 L 673.9 365.9 L 676.3 365.9 L 678.7 365.9 L 681.1 365.9 L 683.6 365.9 L 686.0 365.9 L 688.4 365.9 L 690.8 365.9 L 693.2 365.9 L 695.9 365.9 L 698.4 365.9 L 700.8 365.9 L 703.2 365.9 L 705.6 365.9 L 708.0 365.9 L 710.4 365.9 L 712.9 365.9 L 715.3 365.9 L 717.8 365.9 L 720.2 365.9 L 722.6 365.9 L 725.0 365.9 L 727.4 365.9 L 729.9 365.9 L 732.3 365.9 L 734.7 365.9 L 737.2 365.9 L 739.6 365.9 L 741.9 365.9 L 744.4 365.9 L 746.9 365.9 L 749.3 365.9 L 751.8 365.9 L 754.2 365.9 L 756.6 365.9 L 759.0 365.9 L 761.4 365.9 L 764.0 365.9 L 766.4 365.9 L 768.8 365.9 L 771.2 365.9 L 773.6 365.9 L 776.0 365.9 L 778.5 365.9 L 781.1 365.9 L 783.5 365.9 L 785.8 365.9 L 788.3 365.9 L 790.7 365.9 L 793.1 365.9 L 795.5 365.9 L 798.1 365.9 L 800.5 365.9 L 803.0 365.9 L 805.4 365.9 L 807.7 365.9 L 810.2 302.3 L 812.6 366.0 L 815.3 366.0 L 817.7 365.9 L 820.1 365.9 L 822.5 365.9 L 824.9 365.9 L 827.3 365.9 L 829.8 365.9 L 832.5 365.9 L 834.9 365.9 L 837.3 365.9 L 839.8 365.9 L 842.1 365.9 L 844.5 365.9 L 847.0 365.9 L 849.4 365.9 L 851.9 365.9 L 854.3 365.9 L 856.7 365.9 L 859.1 365.9 L 861.5 365.9 L 863.9 365.9 L 866.4 365.9 L 868.9 365.9 L 871.3 365.9 L 873.7 365.9 L 876.1 365.9 L 878.5 365.9 L 880.9 365.9 L 883.4 365.9 L 885.8 365.9 L 888.3 365.9 L 890.7 365.9 L 893.0 365.9 L 895.5 365.9 L 897.9 365.9 L 900.5 365.9 L 902.9 365.9 L 905.3 365.9 L 907.7 365.9 L 910.1 365.9 L 912.6 365.9 L 914.9 365.9 L 917.4 365.9 L 919.8 365.9 L 922.3 365.9 L 924.8 365.9 L 927.2 365.9 L 929.6 365.9 L 932.0 365.9 L 934.6 365.9 L 937.1 365.9 L 939.5 365.9 L 941.8 365.9 L 944.3 365.9 L 946.7 365.9 L 949.1 365.9 L 951.9 365.9 L 954.2 365.9 L 956.7 365.9 L 959.1 365.9 L 961.5 365.8 L 963.9 365.9 L 966.3 365.9 L 968.8 365.9 L 971.2 365.9 L 973.6 365.9 L 976.0 365.9 L 978.5 365.9 L 980.9 365.9 L 983.3 365.9 L 985.9 365.9 L 988.2 365.9 L 990.7 365.9 L 993.1 365.9 L 995.5 365.9 L 997.9 365.9 L 1000.3 365.9 L 1002.9 302.3 L 1005.3 365.9 L 1007.7 365.9 L 1010.1 365.9 L 1012.5 365.9 L 1014.9 365.9 L 1017.4 365.9 L 1020.0 365.9 L 1022.4 365.9 L 1024.8 365.9 L 1027.3 365.9 L 1029.7 365.9 L 1032.0 365.9 L 1034.5 365.9 L 1037.1 365.9 L 1039.5 365.9 L 1041.9 365.9 L 1044.3 365.9 L 1046.7 365.9 L 1049.1 365.9 L 1051.5 365.9 L 1054.0 365.9 L 1056.5 365.9 L 1058.9 365.9 L 1061.3 365.9 L 1063.7 365.9 L 1066.1 365.9 L 1068.5 365.9 L 1071.2 365.9 L 1073.6 365.9 L 1076.0 365.9" fill="none" stroke="#F58518" stroke-width="2.8" stroke-linejoin="round" stroke-linecap="round"/>
<line x1="93.7" y1="62.0" x2="93.7" y2="366.0" stroke="#666" stroke-dasharray="4 4" stroke-width="1.2"/>
<text x="93.7" y="402.0" text-anchor="middle" font-size="12" fill="#444" font-family="Helvetica, Arial, sans-serif">submit</text>
<line x1="1074.1" y1="62.0" x2="1074.1" y2="366.0" stroke="#888" stroke-dasharray="4 4" stroke-width="1.2"/>
<text x="1074.1" y="402.0" text-anchor="middle" font-size="12" fill="#444" font-family="Helvetica, Arial, sans-serif">finish</text>
<line x1="86.0" y1="62.0" x2="86.0" y2="366.0" stroke="#f5f5f5" stroke-width="1"/>
<text x="86.0" y="418.0" text-anchor="middle" font-size="11" fill="#444" font-family="Helvetica, Arial, sans-serif">-0.14</text>
<line x1="209.8" y1="62.0" x2="209.8" y2="366.0" stroke="#f5f5f5" stroke-width="1"/>
<text x="209.8" y="418.0" text-anchor="middle" font-size="11" fill="#444" font-family="Helvetica, Arial, sans-serif">2.04</text>
<line x1="333.5" y1="62.0" x2="333.5" y2="366.0" stroke="#f5f5f5" stroke-width="1"/>
<text x="333.5" y="418.0" text-anchor="middle" font-size="11" fill="#444" font-family="Helvetica, Arial, sans-serif">4.22</text>
<line x1="457.2" y1="62.0" x2="457.2" y2="366.0" stroke="#f5f5f5" stroke-width="1"/>
<text x="457.2" y="418.0" text-anchor="middle" font-size="11" fill="#444" font-family="Helvetica, Arial, sans-serif">6.39</text>
<line x1="581.0" y1="62.0" x2="581.0" y2="366.0" stroke="#f5f5f5" stroke-width="1"/>
<text x="581.0" y="418.0" text-anchor="middle" font-size="11" fill="#444" font-family="Helvetica, Arial, sans-serif">8.57</text>
<line x1="704.8" y1="62.0" x2="704.8" y2="366.0" stroke="#f5f5f5" stroke-width="1"/>
<text x="704.8" y="418.0" text-anchor="middle" font-size="11" fill="#444" font-family="Helvetica, Arial, sans-serif">10.75</text>
<line x1="828.5" y1="62.0" x2="828.5" y2="366.0" stroke="#f5f5f5" stroke-width="1"/>
<text x="828.5" y="418.0" text-anchor="middle" font-size="11" fill="#444" font-family="Helvetica, Arial, sans-serif">12.92</text>
<line x1="952.2" y1="62.0" x2="952.2" y2="366.0" stroke="#f5f5f5" stroke-width="1"/>
<text x="952.2" y="418.0" text-anchor="middle" font-size="11" fill="#444" font-family="Helvetica, Arial, sans-serif">15.10</text>
<line x1="1076.0" y1="62.0" x2="1076.0" y2="366.0" stroke="#f5f5f5" stroke-width="1"/>
<text x="1076.0" y="418.0" text-anchor="middle" font-size="11" fill="#444" font-family="Helvetica, Arial, sans-serif">17.27</text>
<text x="581.0" y="386.0" text-anchor="middle" font-size="15" fill="#222" font-family="Helvetica, Arial, sans-serif">time since request submit (s)</text>
</svg>