<svg xmlns="http://www.w3.org/2000/svg" width="1100" height="420" viewBox="0 0 1100 420">
<rect width="1100" height="420" fill="white"/>
<text x="86" y="26" font-size="22" font-weight="700" font-family="Helvetica, Arial, sans-serif">tb_session_06_turn_001_reuse  phase=reuse  turn=1  prompt=24832  peak_tx=15.45 GiB/s  peak_rx=32.61 GiB/s</text>
<text x="86" y="46" font-size="13" fill="#444" font-family="Helvetica, Arial, sans-serif">response_window=22.901s, response_tx=21.753 GiB, response_rx=7.526 GiB, metrics_tx=21.757 GiB, metrics_rx=7.527 GiB</text>
<line x1="86" y1="366.0" x2="1076" y2="366.0" stroke="#ececec" stroke-width="1"/>
<text x="76" y="370.0" text-anchor="end" font-size="12" fill="#444" font-family="Helvetica, Arial, sans-serif">0.0</text>
<line x1="86" y1="305.2" x2="1076" y2="305.2" stroke="#ececec" stroke-width="1"/>
<text x="76" y="309.2" text-anchor="end" font-size="12" fill="#444" font-family="Helvetica, Arial, sans-serif">7.2</text>
<line x1="86" y1="244.4" x2="1076" y2="244.4" stroke="#ececec" stroke-width="1"/>
<text x="76" y="248.4" text-anchor="end" font-size="12" fill="#444" font-family="Helvetica, Arial, sans-serif">14.3</text>
<line x1="86" y1="183.6" x2="1076" y2="183.6" stroke="#ececec" stroke-width="1"/>
<text x="76" y="187.6" text-anchor="end" font-size="12" fill="#444" font-family="Helvetica, Arial, sans-serif">21.5</text>
<line x1="86" y1="122.8" x2="1076" y2="122.8" stroke="#ececec" stroke-width="1"/>
<text x="76" y="126.8" text-anchor="end" font-size="12" fill="#444" font-family="Helvetica, Arial, sans-serif">28.7</text>
<line x1="86" y1="62.0" x2="1076" y2="62.0" stroke="#ececec" stroke-width="1"/>
<text x="76" y="66.0" text-anchor="end" font-size="12" fill="#444" font-family="Helvetica, Arial, sans-serif">35.9</text>
<line x1="86" y1="366.0" x2="1076" y2="366.0" stroke="#222" stroke-width="1.4"/>
<line x1="86" y1="62.0" x2="86" y2="366.0" stroke="#222" stroke-width="1.4"/>
<rect x="91.9" y="62.0" width="983.3" height="304.0" fill="#F58518" opacity="0.08"/>
<path d="M 86.0 366.0 L 87.8 366.0 L 89.6 366.0 L 91.4 366.0 L 93.2 366.0 L 95.0 366.0 L 96.8 366.0 L 98.6 366.0 L 100.5 366.0 L 102.3 364.6 L 104.2 338.9 L 106.1 339.2 L 108.2 343.6 L 110.0 366.0 L 111.8 361.8 L 113.7 366.0 L 115.5 366.0 L 117.3 365.9 L 119.1 365.9 L 121.0 251.4 L 122.9 366.0 L 126.9 366.0 L 128.8 366.0 L 130.6 237.2 L 132.5 366.0 L 134.3 366.0 L 136.1 366.0 L 137.9 366.0 L 139.7 364.5 L 141.6 366.0 L 143.5 366.0 L 145.3 366.0 L 147.1 366.0 L 148.9 366.0 L 150.7 269.4 L 152.6 366.0 L 154.4 366.0 L 156.4 366.0 L 158.2 366.0 L 160.0 366.0 L 161.8 298.8 L 163.7 365.9 L 165.5 365.9 L 167.5 366.0 L 169.4 366.0 L 171.2 366.0 L 173.0 366.0 L 174.8 366.0 L 176.7 366.0 L 178.5 366.0 L 180.3 366.0 L 182.2 366.0 L 184.0 366.0 L 185.8 366.0 L 187.6 366.0 L 189.4 366.0 L 191.3 366.0 L 193.2 366.0 L 195.0 366.0 L 196.9 366.0 L 198.7 366.0 L 200.5 366.0 L 202.3 366.0 L 204.2 366.0 L 206.1 366.0 L 207.9 365.9 L 209.7 366.0 L 211.5 366.0 L 213.4 236.1 L 215.2 366.0 L 217.0 366.0 L 218.8 366.0 L 220.7 366.0 L 222.5 366.0 L 224.3 366.0 L 226.1 366.0 L 228.0 313.1 L 229.8 366.0 L 231.6 366.0 L 233.5 366.0 L 235.3 366.0 L 237.1 366.0 L 238.9 366.0 L 240.7 366.0 L 242.6 349.0 L 244.4 366.0 L 246.2 366.0 L 248.0 366.0 L 249.9 324.1 L 251.7 365.9 L 253.6 365.9 L 255.4 365.9 L 257.2 366.0 L 259.1 342.2 L 260.9 365.9 L 263.0 366.0 L 264.8 366.0 L 266.6 366.0 L 268.4 366.0 L 270.2 366.0 L 272.1 366.0 L 273.9 366.0 L 275.8 366.0 L 277.6 366.0 L 279.4 336.1 L 281.2 366.0 L 283.3 366.0 L 285.1 366.0 L 287.0 366.0 L 288.8 366.0 L 290.6 329.1 L 292.4 366.0 L 294.3 366.0 L 296.1 365.9 L 297.9 365.9 L 299.7 365.9 L 301.8 366.0 L 303.6 366.0 L 305.4 366.0 L 307.3 366.0 L 309.1 366.0 L 310.9 366.0 L 312.7 366.0 L 314.6 277.1 L 316.4 366.0 L 318.2 366.0 L 320.0 366.0 L 321.9 366.0 L 323.7 366.0 L 325.5 366.0 L 327.4 235.0 L 329.2 366.0 L 331.0 366.0 L 332.8 366.0 L 334.6 366.0 L 336.5 366.0 L 338.3 366.0 L 340.3 294.5 L 342.1 365.9 L 343.9 365.9 L 345.8 366.0 L 347.6 366.0 L 349.4 366.0 L 351.2 366.0 L 353.1 366.0 L 355.0 303.7 L 356.8 366.0 L 358.7 366.0 L 360.5 366.0 L 362.3 366.0 L 364.1 366.0 L 366.1 366.0 L 368.0 366.0 L 369.8 366.0 L 371.6 366.0 L 373.4 366.0 L 375.2 366.0 L 377.1 366.0 L 379.0 366.0 L 380.8 366.0 L 382.6 366.0 L 384.4 314.0 L 386.3 366.0 L 388.1 365.3 L 390.0 365.9 L 391.8 366.0 L 393.6 366.0 L 395.5 366.0 L 397.3 323.6 L 399.1 366.0 L 400.9 366.0 L 402.7 366.0 L 404.6 366.0 L 406.4 323.6 L 408.3 366.0 L 410.1 366.0 L 411.9 366.0 L 413.7 366.0 L 415.6 366.0 L 417.5 265.7 L 419.4 366.0 L 421.2 366.0 L 423.0 366.0 L 424.8 366.0 L 426.6 366.0 L 428.5 266.7 L 430.4 366.0 L 432.2 365.9 L 434.0 365.9 L 435.9 366.0 L 437.7 366.0 L 439.5 366.0 L 441.3 366.0 L 443.1 366.0 L 444.9 366.0 L 446.8 366.0 L 448.6 366.0 L 450.4 366.0 L 452.3 311.0 L 454.1 366.0 L 455.9 366.0 L 457.7 366.0 L 459.7 366.0 L 461.6 366.0 L 463.4 366.0 L 465.2 281.4 L 467.0 366.0 L 468.9 366.0 L 470.7 366.0 L 472.7 366.0 L 474.6 366.0 L 476.4 365.9 L 478.2 365.9 L 480.1 365.9 L 482.0 366.0 L 483.8 366.0 L 485.6 366.0 L 487.5 366.0 L 489.3 366.0 L 491.1 366.0 L 492.9 244.5 L 494.8 366.0 L 496.7 366.0 L 498.5 366.0 L 500.3 366.0 L 502.1 366.0 L 504.0 366.0 L 505.8 366.0 L 507.7 239.7 L 509.6 366.0 L 511.5 359.8 L 513.4 366.0 L 515.2 366.0 L 517.0 366.0 L 518.9 366.0 L 520.7 366.0 L 522.5 362.4 L 524.3 366.0 L 526.2 366.0 L 528.0 366.0 L 529.8 366.0 L 531.6 235.0 L 533.5 366.0 L 535.3 366.0 L 537.2 366.0 L 539.0 366.0 L 540.8 366.0 L 542.6 289.3 L 544.4 366.0 L 546.5 366.0 L 548.3 366.0 L 550.1 366.0 L 552.0 366.0 L 553.8 295.5 L 555.6 366.0 L 557.4 366.0 L 559.3 366.0 L 561.1 366.0 L 563.0 366.0 L 564.8 278.8 L 566.6 365.9 L 568.4 365.9 L 570.3 365.9 L 572.2 366.0 L 574.0 366.0 L 575.8 366.0 L 577.6 235.0 L 579.4 366.0 L 581.2 366.0 L 583.1 366.0 L 585.0 366.0 L 586.8 366.0 L 588.7 366.0 L 590.5 274.7 L 592.3 366.0 L 594.1 366.0 L 596.0 366.0 L 597.9 366.0 L 599.7 366.0 L 601.5 366.0 L 603.3 235.0 L 605.2 366.0 L 607.0 366.0 L 608.8 366.0 L 610.8 366.0 L 612.6 365.9 L 614.4 365.9 L 616.2 366.0 L 618.1 366.0 L 619.9 366.0 L 621.7 366.0 L 623.7 366.0 L 625.5 366.0 L 627.3 366.0 L 629.1 366.0 L 630.9 366.0 L 632.8 366.0 L 634.6 366.0 L 636.6 366.0 L 638.4 366.0 L 640.2 366.0 L 642.1 366.0 L 643.9 366.0 L 645.7 366.0 L 647.5 326.7 L 649.6 366.0 L 651.4 366.0 L 653.2 366.0 L 655.1 366.0 L 656.9 365.9 L 658.7 365.9 L 660.5 366.0 L 662.4 366.0 L 664.2 366.0 L 666.0 285.4 L 667.9 366.0 L 669.7 366.0 L 671.5 366.0 L 673.3 366.0 L 675.2 350.1 L 677.1 366.0 L 678.9 366.0 L 680.7 366.0 L 682.5 366.0 L 684.3 366.0 L 686.2 324.2 L 688.1 366.0 L 689.9 366.0 L 691.7 366.0 L 693.5 366.0 L 695.3 366.0 L 697.2 366.0 L 699.0 366.0 L 700.9 366.0 L 702.7 365.9 L 704.6 365.9 L 706.4 366.0 L 708.2 366.0 L 710.0 244.7 L 711.9 366.0 L 713.7 366.0 L 715.5 366.0 L 717.4 366.0 L 719.3 366.0 L 721.1 366.0 L 722.9 366.0 L 724.7 366.0 L 726.7 366.0 L 728.6 366.0 L 730.4 366.0 L 732.2 366.0 L 734.0 366.0 L 735.8 366.0 L 737.6 366.0 L 739.7 366.0 L 741.5 366.0 L 743.4 366.0 L 745.2 366.0 L 747.0 365.9 L 748.8 277.2 L 750.6 366.0 L 752.5 366.0 L 754.4 366.0 L 756.2 366.0 L 758.0 366.0 L 759.8 366.0 L 761.6 366.0 L 763.5 366.0 L 765.4 366.0 L 767.2 366.0 L 769.0 366.0 L 770.8 366.0 L 772.6 366.0 L 774.5 366.0 L 776.3 366.0 L 778.2 366.0 L 780.1 366.0 L 781.9 366.0 L 783.7 366.0 L 785.5 366.0 L 787.3 366.0 L 789.2 366.0 L 791.2 325.3 L 793.0 365.9 L 794.8 365.9 L 796.7 366.0 L 798.5 366.0 L 800.3 294.5 L 802.1 366.0 L 804.1 366.0 L 805.9 366.0 L 807.7 366.0 L 809.5 266.5 L 811.3 366.0 L 813.1 366.0 L 815.0 366.0 L 816.9 366.0 L 818.7 366.0 L 820.5 267.4 L 822.3 366.0 L 824.2 366.0 L 826.0 366.0 L 827.8 366.0 L 829.8 366.0 L 831.6 333.3 L 833.4 366.0 L 835.3 366.0 L 837.1 365.9 L 838.9 365.9 L 840.7 366.0 L 842.7 248.3 L 844.5 366.0 L 846.4 366.0 L 848.2 366.0 L 850.0 366.0 L 851.8 366.0 L 853.7 366.0 L 855.6 366.0 L 857.4 366.0 L 859.2 366.0 L 861.1 366.0 L 862.9 366.0 L 864.7 366.0 L 866.5 356.1 L 868.4 366.0 L 870.2 366.0 L 872.0 366.0 L 873.9 366.0 L 875.7 366.0 L 877.5 366.0 L 879.3 366.0 L 881.3 365.9 L 883.1 365.9 L 884.9 366.0 L 886.7 366.0 L 888.6 366.0 L 890.4 366.0 L 892.2 366.0 L 894.0 266.9 L 895.8 366.0 L 897.7 366.0 L 899.5 366.0 L 901.3 366.0 L 903.1 366.0 L 904.9 366.0 L 906.8 366.0 L 908.6 248.8 L 910.4 366.0 L 912.3 366.0 L 914.1 366.0 L 916.0 366.0 L 917.8 366.0 L 919.6 366.0 L 921.4 366.0 L 923.3 339.9 L 925.1 366.0 L 927.0 365.9 L 928.9 365.9 L 930.7 366.0 L 932.6 366.0 L 934.4 235.0 L 936.4 366.0 L 938.3 366.0 L 940.1 366.0 L 941.9 366.0 L 943.7 252.6 L 945.6 366.0 L 947.4 366.0 L 949.2 366.0 L 951.1 366.0 L 952.9 366.0 L 954.7 358.4 L 956.5 366.0 L 958.4 366.0 L 960.2 366.0 L 962.0 366.0 L 963.9 366.0 L 965.7 366.0 L 967.5 366.0 L 969.4 366.0 L 971.2 365.9 L 973.0 365.9 L 975.0 366.0 L 976.9 366.0 L 978.7 366.0 L 980.5 366.0 L 982.3 366.0 L 984.2 366.0 L 986.0 366.0 L 987.8 301.9 L 989.6 366.0 L 991.4 366.0 L 993.3 366.0 L 995.1 366.0 L 996.9 366.0 L 998.7 366.0 L 1000.6 366.0 L 1002.4 366.0 L 1004.3 366.0 L 1006.1 366.0 L 1007.9 366.0 L 1009.7 366.0 L 1011.6 354.0 L 1013.4 366.0 L 1015.4 366.0 L 1017.2 365.9 L 1019.1 365.9 L 1020.9 366.0 L 1022.7 366.0 L 1024.6 366.0 L 1026.4 366.0 L 1028.3 366.0 L 1030.1 366.0 L 1032.0 366.0 L 1033.8 366.0 L 1035.6 366.0 L 1037.4 366.0 L 1039.3 289.2 L 1041.2 366.0 L 1043.0 366.0 L 1044.8 366.0 L 1046.7 366.0 L 1048.5 366.0 L 1050.3 366.0 L 1052.2 366.0 L 1054.0 291.8 L 1055.8 366.0 L 1057.7 366.0 L 1059.5 366.0 L 1061.3 365.9 L 1063.1 365.9 L 1064.9 293.1 L 1066.8 365.9 L 1068.6 365.9 L 1070.5 365.9 L 1072.4 365.9 L 1074.2 365.9 L 1076.0 366.0" fill="none" stroke="#4C78A8" stroke-width="2.8" stroke-linejoin="round" stroke-linecap="round"/>
<path d="M 86.0 366.0 L 87.8 366.0 L 89.6 366.0 L 91.4 366.0 L 93.2 366.0 L 95.0 366.0 L 96.8 366.0 L 98.6 366.0 L 100.5 366.0 L 102.3 131.8 L 104.2 129.4 L 106.1 89.6 L 108.2 365.9 L 110.0 365.9 L 111.8 251.8 L 113.7 365.9 L 115.5 365.9 L 117.3 365.9 L 119.1 365.9 L 121.0 365.9 L 122.9 365.6 L 126.9 365.9 L 128.8 365.9 L 130.6 365.9 L 132.5 365.9 L 134.3 365.9 L 136.1 365.9 L 137.9 365.9 L 139.7 365.9 L 141.6 365.9 L 143.5 365.9 L 145.3 365.9 L 147.1 365.9 L 148.9 365.9 L 150.7 365.9 L 152.6 365.9 L 154.4 365.9 L 156.4 365.9 L 158.2 365.9 L 160.0 365.9 L 161.8 365.9 L 163.7 365.9 L 165.5 365.9 L 167.5 365.9 L 169.4 365.9 L 171.2 365.9 L 173.0 365.9 L 174.8 365.9 L 176.7 365.9 L 178.5 365.9 L 180.3 365.9 L 182.2 365.9 L 184.0 365.9 L 185.8 365.9 L 187.6 365.9 L 189.4 365.9 L 191.3 365.9 L 193.2 365.9 L 195.0 365.9 L 196.9 365.9 L 198.7 365.9 L 200.5 365.9 L 202.3 365.9 L 204.2 365.9 L 206.1 365.9 L 207.9 365.9 L 209.7 365.9 L 211.5 365.9 L 213.4 365.9 L 215.2 365.9 L 217.0 365.9 L 218.8 365.9 L 220.7 365.9 L 222.5 365.9 L 224.3 365.9 L 226.1 365.9 L 228.0 365.9 L 229.8 365.9 L 231.6 365.9 L 233.5 365.9 L 235.3 365.9 L 237.1 365.9 L 238.9 365.9 L 240.7 365.9 L 242.6 365.9 L 244.4 365.9 L 246.2 365.9 L 248.0 365.9 L 249.9 365.9 L 251.7 365.9 L 253.6 365.9 L 255.4 365.9 L 257.2 365.9 L 259.1 365.9 L 260.9 365.9 L 263.0 365.9 L 264.8 365.9 L 266.6 365.9 L 268.4 366.0 L 270.2 365.9 L 272.1 365.9 L 273.9 365.9 L 275.8 365.9 L 277.6 365.9 L 279.4 365.9 L 281.2 365.9 L 283.3 365.9 L 285.1 365.9 L 287.0 365.9 L 288.8 365.9 L 290.6 365.9 L 292.4 365.9 L 294.3 365.9 L 296.1 365.9 L 297.9 365.9 L 299.7 365.9 L 301.8 365.9 L 303.6 365.9 L 305.4 365.9 L 307.3 365.9 L 309.1 365.9 L 310.9 365.9 L 312.7 365.9 L 314.6 365.9 L 316.4 365.9 L 318.2 365.9 L 320.0 365.9 L 321.9 365.9 L 323.7 365.9 L 325.5 365.9 L 327.4 365.9 L 329.2 365.9 L 331.0 365.9 L 332.8 365.9 L 334.6 365.9 L 336.5 365.9 L 338.3 365.9 L 340.3 365.9 L 342.1 365.9 L 343.9 365.9 L 345.8 365.9 L 347.6 365.9 L 349.4 365.9 L 351.2 365.9 L 353.1 365.9 L 355.0 365.9 L 356.8 365.9 L 358.7 365.9 L 360.5 365.9 L 362.3 365.9 L 364.1 365.9 L 366.1 365.9 L 368.0 365.9 L 369.8 365.9 L 371.6 365.9 L 373.4 365.9 L 375.2 365.9 L 377.1 365.9 L 379.0 365.9 L 380.8 365.9 L 382.6 365.9 L 384.4 366.0 L 386.3 159.1 L 388.1 365.9 L 390.0 365.9 L 391.8 365.9 L 393.6 365.9 L 395.5 365.9 L 397.3 365.9 L 399.1 365.9 L 400.9 365.9 L 402.7 365.9 L 404.6 365.9 L 406.4 365.9 L 408.3 365.9 L 410.1 365.9 L 411.9 365.9 L 413.7 365.9 L 415.6 365.9 L 417.5 365.9 L 419.4 365.9 L 421.2 365.9 L 423.0 365.9 L 424.8 365.9 L 426.6 365.9 L 428.5 365.9 L 430.4 365.9 L 432.2 365.9 L 434.0 365.9 L 435.9 365.9 L 437.7 365.9 L 439.5 365.9 L 441.3 365.9 L 443.1 365.9 L 444.9 365.9 L 446.8 365.9 L 448.6 365.9 L 450.4 365.9 L 452.3 365.9 L 454.1 365.9 L 455.9 365.9 L 457.7 365.9 L 459.7 365.9 L 461.6 365.9 L 463.4 365.9 L 465.2 365.9 L 467.0 365.9 L 468.9 365.9 L 470.7 365.9 L 472.7 365.9 L 474.6 365.9 L 476.4 365.9 L 478.2 365.9 L 480.1 365.9 L 482.0 365.9 L 483.8 365.9 L 485.6 365.9 L 487.5 365.9 L 489.3 365.9 L 491.1 365.9 L 492.9 365.9 L 494.8 365.9 L 496.7 365.9 L 498.5 365.9 L 500.3 365.9 L 502.1 365.9 L 504.0 365.9 L 505.8 365.9 L 507.7 366.0 L 509.6 238.8 L 511.5 365.9 L 513.4 365.9 L 515.2 365.9 L 517.0 365.9 L 518.9 365.9 L 520.7 365.9 L 522.5 365.9 L 524.3 365.9 L 526.2 365.9 L 528.0 365.9 L 529.8 365.9 L 531.6 365.9 L 533.5 365.9 L 535.3 365.9 L 537.2 365.9 L 539.0 365.9 L 540.8 365.9 L 542.6 365.9 L 544.4 365.9 L 546.5 365.9 L 548.3 365.9 L 550.1 365.9 L 552.0 365.9 L 553.8 365.9 L 555.6 365.9 L 557.4 365.9 L 559.3 365.9 L 561.1 365.9 L 563.0 365.9 L 564.8 365.9 L 566.6 365.9 L 568.4 365.9 L 570.3 365.9 L 572.2 365.9 L 574.0 365.9 L 575.8 365.9 L 577.6 365.9 L 579.4 365.9 L 581.2 365.9 L 583.1 365.9 L 585.0 365.9 L 586.8 365.9 L 588.7 365.9 L 590.5 365.9 L 592.3 365.9 L 594.1 365.9 L 596.0 365.9 L 597.9 365.9 L 599.7 365.9 L 601.5 365.9 L 603.3 365.9 L 605.2 365.9 L 607.0 365.9 L 608.8 365.9 L 610.8 365.9 L 612.6 365.9 L 614.4 365.9 L 616.2 365.9 L 618.1 365.9 L 619.9 365.9 L 621.7 365.9 L 623.7 365.9 L 625.5 365.9 L 627.3 365.9 L 629.1 365.9 L 630.9 365.9 L 632.8 302.3 L 634.6 366.0 L 636.6 366.0 L 638.4 365.9 L 640.2 365.9 L 642.1 365.9 L 643.9 365.9 L 645.7 365.9 L 647.5 365.9 L 649.6 365.9 L 651.4 365.9 L 653.2 365.9 L 655.1 365.9 L 656.9 365.9 L 658.7 365.9 L 660.5 365.9 L 662.4 365.9 L 664.2 365.9 L 666.0 365.9 L 667.9 365.9 L 669.7 365.9 L 671.5 365.9 L 673.3 365.9 L 675.2 365.9 L 677.1 365.9 L 678.9 365.9 L 680.7 365.9 L 682.5 365.9 L 684.3 365.9 L 686.2 365.9 L 688.1 365.9 L 689.9 365.9 L 691.7 365.9 L 693.5 365.9 L 695.3 365.9 L 697.2 365.9 L 699.0 365.9 L 700.9 365.9 L 702.7 365.9 L 704.6 365.9 L 706.4 365.9 L 708.2 365.9 L 710.0 365.9 L 711.9 365.9 L 713.7 365.9 L 715.5 365.9 L 717.4 365.9 L 719.3 365.9 L 721.1 365.9 L 722.9 365.9 L 724.7 365.9 L 726.7 365.9 L 728.6 365.9 L 730.4 365.9 L 732.2 365.9 L 734.0 365.9 L 735.8 365.9 L 737.6 365.9 L 739.7 365.9 L 741.5 365.9 L 743.4 365.9 L 745.2 365.9 L 747.0 365.8 L 748.8 365.9 L 750.6 365.9 L 752.5 365.9 L 754.4 365.9 L 756.2 365.9 L 758.0 365.9 L 759.8 365.9 L 761.6 365.9 L 763.5 365.9 L 765.4 365.9 L 767.2 365.9 L 769.0 365.9 L 770.8 365.9 L 772.6 365.9 L 774.5 365.9 L 776.3 365.9 L 778.2 302.3 L 780.1 365.9 L 781.9 365.9 L 783.7 365.9 L 785.5 365.9 L 787.3 365.9 L 789.2 365.9 L 791.2 365.9 L 793.0 365.9 L 794.8 365.9 L 796.7 365.9 L 798.5 365.9 L 800.3 365.9 L 802.1 365.9 L 804.1 365.9 L 805.9 365.9 L 807.7 365.9 L 809.5 365.9 L 811.3 365.9 L 813.1 365.9 L 815.0 365.9 L 816.9 365.9 L 818.7 365.9 L 820.5 365.9 L 822.3 365.9 L 824.2 365.9 L 826.0 365.9 L 827.8 365.9 L 829.8 365.9 L 831.6 365.9 L 833.4 365.9 L 835.3 365.9 L 837.1 365.9 L 838.9 365.9 L 840.7 365.9 L 842.7 365.9 L 844.5 365.9 L 846.4 365.9 L 848.2 365.9 L 850.0 365.9 L 851.8 365.9 L 853.7 365.9 L 855.6 365.9 L 857.4 365.9 L 859.2 365.9 L 861.1 365.9 L 862.9 365.9 L 864.7 365.9 L 866.5 365.9 L 868.4 365.9 L 870.2 365.9 L 872.0 365.9 L 873.9 365.9 L 875.7 365.9 L 877.5 365.9 L 879.3 365.9 L 881.3 365.9 L 883.1 365.9 L 884.9 365.9 L 886.7 365.9 L 888.6 365.9 L 890.4 365.9 L 892.2 365.9 L 894.0 365.9 L 895.8 365.9 L 897.7 365.9 L 899.5 365.9 L 901.3 365.9 L 903.1 365.9 L 904.9 365.9 L 906.8 365.9 L 908.6 365.9 L 910.4 365.9 L 912.3 365.9 L 914.1 365.9 L 916.0 365.9 L 917.8 365.9 L 919.6 365.9 L 921.4 365.9 L 923.3 366.0 L 925.1 302.3 L 927.0 365.9 L 928.9 365.9 L 930.7 365.9 L 932.6 365.9 L 934.4 365.9 L 936.4 365.9 L 938.3 365.9 L 940.1 365.9 L 941.9 365.9 L 943.7 365.9 L 945.6 365.9 L 947.4 365.9 L 949.2 365.9 L 951.1 365.9 L 952.9 365.9 L 954.7 365.9 L 956.5 365.9 L 958.4 365.9 L 960.2 365.9 L 962.0 365.9 L 963.9 365.9 L 965.7 365.9 L 967.5 365.9 L 969.4 365.9 L 971.2 365.9 L 973.0 365.9 L 975.0 365.9 L 976.9 365.9 L 978.7 365.9 L 980.5 365.9 L 982.3 365.9 L 984.2 365.9 L 986.0 365.9 L 987.8 365.9 L 989.6 365.9 L 991.4 365.9 L 993.3 365.9 L 995.1 365.9 L 996.9 365.9 L 998.7 365.9 L 1000.6 365.9 L 1002.4 365.9 L 1004.3 365.9 L 1006.1 365.9 L 1007.9 365.9 L 1009.7 365.9 L 1011.6 365.9 L 1013.4 365.9 L 1015.4 365.9 L 1017.2 365.9 L 1019.1 365.9 L 1020.9 365.9 L 1022.7 365.9 L 1024.6 365.9 L 1026.4 365.9 L 1028.3 365.9 L 1030.1 365.9 L 1032.0 365.9 L 1033.8 365.9 L 1035.6 365.9 L 1037.4 365.9 L 1039.3 365.9 L 1041.2 365.9 L 1043.0 365.9 L 1044.8 365.9 L 1046.7 365.9 L 1048.5 365.9 L 1050.3 365.9 L 1052.2 365.9 L 1054.0 365.9 L 1055.8 365.9 L 1057.7 365.9 L 1059.5 365.9 L 1061.3 365.9 L 1063.1 365.9 L 1064.9 365.6 L 1066.8 365.8 L 1068.6 365.8 L 1070.5 365.8 L 1072.4 365.8 L 1074.2 366.0 L 1076.0 366.0" fill="none" stroke="#F58518" stroke-width="2.8" stroke-linejoin="round" stroke-linecap="round"/>
<line x1="91.9" y1="62.0" x2="91.9" y2="366.0" stroke="#666" stroke-dasharray="4 4" stroke-width="1.2"/>
<text x="91.9" y="402.0" text-anchor="middle" font-size="12" fill="#444" font-family="Helvetica, Arial, sans-serif">submit</text>
<line x1="1075.2" y1="62.0" x2="1075.2" y2="366.0" stroke="#888" stroke-dasharray="4 4" stroke-width="1.2"/>
<text x="1075.2" y="402.0" text-anchor="middle" font-size="12" fill="#444" font-family="Helvetica, Arial, sans-serif">finish</text>
<line x1="86.0" y1="62.0" x2="86.0" y2="366.0" stroke="#f5f5f5" stroke-width="1"/>
<text x="86.0" y="418.0" text-anchor="middle" font-size="11" fill="#444" font-family="Helvetica, Arial, sans-serif">-0.14</text>
<line x1="209.8" y1="62.0" x2="209.8" y2="366.0" stroke="#f5f5f5" stroke-width="1"/>
<text x="209.8" y="418.0" text-anchor="middle" font-size="11" fill="#444" font-family="Helvetica, Arial, sans-serif">2.74</text>
<line x1="333.5" y1="62.0" x2="333.5" y2="366.0" stroke="#f5f5f5" stroke-width="1"/>
<text x="333.5" y="418.0" text-anchor="middle" font-size="11" fill="#444" font-family="Helvetica, Arial, sans-serif">5.63</text>
<line x1="457.2" y1="62.0" x2="457.2" y2="366.0" stroke="#f5f5f5" stroke-width="1"/>
<text x="457.2" y="418.0" text-anchor="middle" font-size="11" fill="#444" font-family="Helvetica, Arial, sans-serif">8.51</text>
<line x1="581.0" y1="62.0" x2="581.0" y2="366.0" stroke="#f5f5f5" stroke-width="1"/>
<text x="581.0" y="418.0" text-anchor="middle" font-size="11" fill="#444" font-family="Helvetica, Arial, sans-serif">11.39</text>
<line x1="704.8" y1="62.0" x2="704.8" y2="366.0" stroke="#f5f5f5" stroke-width="1"/>
<text x="704.8" y="418.0" text-anchor="middle" font-size="11" fill="#444" font-family="Helvetica, Arial, sans-serif">14.27</text>
<line x1="828.5" y1="62.0" x2="828.5" y2="366.0" stroke="#f5f5f5" stroke-width="1"/>
<text x="828.5" y="418.0" text-anchor="middle" font-size="11" fill="#444" font-family="Helvetica, Arial, sans-serif">17.15</text>
<line x1="952.2" y1="62.0" x2="952.2" y2="366.0" stroke="#f5f5f5" stroke-width="1"/>
<text x="952.2" y="418.0" text-anchor="middle" font-size="11" fill="#444" font-family="Helvetica, Arial, sans-serif">20.04</text>
<line x1="1076.0" y1="62.0" x2="1076.0" y2="366.0" stroke="#f5f5f5" stroke-width="1"/>
<text x="1076.0" y="418.0" text-anchor="middle" font-size="11" fill="#444" font-family="Helvetica, Arial, sans-serif">22.92</text>
<text x="581.0" y="386.0" text-anchor="middle" font-size="15" fill="#222" font-family="Helvetica, Arial, sans-serif">time since request submit (s)</text>
</svg>