<svg xmlns="http://www.w3.org/2000/svg" width="1100" height="420" viewBox="0 0 1100 420">
<rect width="1100" height="420" fill="white"/>
<text x="86" y="26" font-size="22" font-weight="700" font-family="Helvetica, Arial, sans-serif">tb_session_05_turn_004_reuse  phase=reuse  turn=4  prompt=25600  peak_tx=9.66 GiB/s  peak_rx=40.32 GiB/s</text>
<text x="86" y="46" font-size="13" fill="#444" font-family="Helvetica, Arial, sans-serif">response_window=3.880s, response_tx=4.114 GiB, response_rx=31.780 GiB, metrics_tx=4.115 GiB, metrics_rx=31.780 GiB</text>
<line x1="86" y1="366.0" x2="1076" y2="366.0" stroke="#ececec" stroke-width="1"/>
<text x="76" y="370.0" text-anchor="end" font-size="12" fill="#444" font-family="Helvetica, Arial, sans-serif">0.0</text>
<line x1="86" y1="305.2" x2="1076" y2="305.2" stroke="#ececec" stroke-width="1"/>
<text x="76" y="309.2" text-anchor="end" font-size="12" fill="#444" font-family="Helvetica, Arial, sans-serif">8.9</text>
<line x1="86" y1="244.4" x2="1076" y2="244.4" stroke="#ececec" stroke-width="1"/>
<text x="76" y="248.4" text-anchor="end" font-size="12" fill="#444" font-family="Helvetica, Arial, sans-serif">17.7</text>
<line x1="86" y1="183.6" x2="1076" y2="183.6" stroke="#ececec" stroke-width="1"/>
<text x="76" y="187.6" text-anchor="end" font-size="12" fill="#444" font-family="Helvetica, Arial, sans-serif">26.6</text>
<line x1="86" y1="122.8" x2="1076" y2="122.8" stroke="#ececec" stroke-width="1"/>
<text x="76" y="126.8" text-anchor="end" font-size="12" fill="#444" font-family="Helvetica, Arial, sans-serif">35.5</text>
<line x1="86" y1="62.0" x2="1076" y2="62.0" stroke="#ececec" stroke-width="1"/>
<text x="76" y="66.0" text-anchor="end" font-size="12" fill="#444" font-family="Helvetica, Arial, sans-serif">44.4</text>
<line x1="86" y1="366.0" x2="1076" y2="366.0" stroke="#222" stroke-width="1.4"/>
<line x1="86" y1="62.0" x2="86" y2="366.0" stroke="#222" stroke-width="1.4"/>
<rect x="116.3" y="62.0" width="949.4" height="304.0" fill="#F58518" opacity="0.08"/>
<path d="M 86.0 366.0 L 96.5 366.0 L 106.8 366.0 L 117.1 366.0 L 127.4 366.0 L 137.6 366.0 L 147.9 366.0 L 158.2 366.0 L 168.5 366.0 L 179.0 366.0 L 189.3 366.0 L 199.5 366.0 L 210.1 349.1 L 220.6 344.3 L 232.3 344.1 L 243.3 359.1 L 253.9 356.3 L 264.1 366.0 L 274.7 366.0 L 284.9 366.0 L 295.2 366.0 L 305.5 366.0 L 315.8 366.0 L 326.3 366.0 L 336.6 366.0 L 346.8 366.0 L 357.1 365.9 L 367.4 366.0 L 377.7 366.0 L 387.9 366.0 L 398.2 366.0 L 408.7 366.0 L 419.0 366.0 L 429.5 366.0 L 439.8 366.0 L 450.1 366.0 L 460.4 366.0 L 470.6 366.0 L 480.9 366.0 L 491.2 359.2 L 504.4 344.3 L 515.4 344.0 L 526.4 352.8 L 537.0 366.0 L 547.2 366.0 L 557.8 344.2 L 568.5 340.3 L 580.5 344.2 L 591.3 366.0 L 601.6 366.0 L 611.8 344.0 L 625.0 343.5 L 637.0 344.3 L 647.8 366.0 L 658.1 366.0 L 668.6 344.4 L 679.9 344.1 L 690.6 341.0 L 702.6 366.0 L 712.9 366.0 L 723.2 354.2 L 733.9 344.2 L 745.2 343.8 L 756.7 353.7 L 767.2 366.0 L 777.5 366.0 L 788.0 342.1 L 800.2 344.1 L 811.2 343.5 L 822.3 366.0 L 832.5 366.0 L 843.1 344.3 L 854.1 344.2 L 866.5 344.3 L 878.0 365.9 L 888.6 365.9 L 899.1 366.0 L 909.4 366.0 L 919.6 366.0 L 930.2 366.0 L 940.4 366.0 L 951.0 299.8 L 961.2 365.9 L 971.5 365.9 L 982.0 365.9 L 992.8 365.9 L 1003.3 365.9 L 1013.6 365.9 L 1024.1 365.9 L 1034.4 365.9 L 1044.7 365.9 L 1055.2 365.9 L 1065.5 366.0 L 1076.0 366.0" fill="none" stroke="#4C78A8" stroke-width="2.8" stroke-linejoin="round" stroke-linecap="round"/>
<path d="M 86.0 366.0 L 96.5 366.0 L 106.8 366.0 L 117.1 366.0 L 127.4 366.0 L 137.6 366.0 L 147.9 366.0 L 158.2 366.0 L 168.5 366.0 L 179.0 365.9 L 189.3 366.0 L 199.5 366.0 L 210.1 174.5 L 220.6 144.6 L 232.3 175.5 L 243.3 365.9 L 253.9 366.0 L 264.1 366.0 L 274.7 366.0 L 284.9 366.0 L 295.2 366.0 L 305.5 366.0 L 315.8 366.0 L 326.3 366.0 L 336.6 366.0 L 346.8 366.0 L 357.1 366.0 L 367.4 366.0 L 377.7 366.0 L 387.9 366.0 L 398.2 366.0 L 408.7 366.0 L 419.0 366.0 L 429.5 366.0 L 439.8 366.0 L 450.1 366.0 L 460.4 366.0 L 470.6 366.0 L 480.9 366.0 L 491.2 174.5 L 504.4 174.9 L 515.4 171.3 L 526.4 366.0 L 537.0 366.0 L 547.2 268.2 L 557.8 176.5 L 568.5 175.3 L 580.5 261.0 L 591.3 366.0 L 601.6 366.0 L 611.8 89.6 L 625.0 176.6 L 637.0 245.8 L 647.8 366.0 L 658.1 366.0 L 668.6 173.3 L 679.9 176.2 L 690.6 171.9 L 702.6 366.0 L 712.9 366.0 L 723.2 176.9 L 733.9 168.6 L 745.2 176.0 L 756.7 366.0 L 767.2 366.0 L 777.5 179.6 L 788.0 174.4 L 800.2 176.4 L 811.2 366.0 L 822.3 366.0 L 832.5 237.7 L 843.1 176.2 L 854.1 114.6 L 866.5 348.5 L 878.0 365.9 L 888.6 365.9 L 899.1 365.9 L 909.4 365.9 L 919.6 365.9 L 930.2 365.9 L 940.4 365.9 L 951.0 365.8 L 961.2 365.8 L 971.5 365.8 L 982.0 365.8 L 992.8 365.8 L 1003.3 365.8 L 1013.6 365.8 L 1024.1 365.8 L 1034.4 365.8 L 1044.7 365.8 L 1055.2 365.8 L 1065.5 366.0 L 1076.0 366.0" fill="none" stroke="#F58518" stroke-width="2.8" stroke-linejoin="round" stroke-linecap="round"/>
<line x1="116.3" y1="62.0" x2="116.3" y2="366.0" stroke="#666" stroke-dasharray="4 4" stroke-width="1.2"/>
<text x="116.3" y="402.0" text-anchor="middle" font-size="12" fill="#444" font-family="Helvetica, Arial, sans-serif">submit</text>
<line x1="1065.7" y1="62.0" x2="1065.7" y2="366.0" stroke="#888" stroke-dasharray="4 4" stroke-width="1.2"/>
<text x="1065.7" y="402.0" text-anchor="middle" font-size="12" fill="#444" font-family="Helvetica, Arial, sans-serif">finish</text>
<line x1="86.0" y1="62.0" x2="86.0" y2="366.0" stroke="#f5f5f5" stroke-width="1"/>
<text x="86.0" y="418.0" text-anchor="middle" font-size="11" fill="#444" font-family="Helvetica, Arial, sans-serif">-0.12</text>
<line x1="209.8" y1="62.0" x2="209.8" y2="366.0" stroke="#f5f5f5" stroke-width="1"/>
<text x="209.8" y="418.0" text-anchor="middle" font-size="11" fill="#444" font-family="Helvetica, Arial, sans-serif">0.38</text>
<line x1="333.5" y1="62.0" x2="333.5" y2="366.0" stroke="#f5f5f5" stroke-width="1"/>
<text x="333.5" y="418.0" text-anchor="middle" font-size="11" fill="#444" font-family="Helvetica, Arial, sans-serif">0.89</text>
<line x1="457.2" y1="62.0" x2="457.2" y2="366.0" stroke="#f5f5f5" stroke-width="1"/>
<text x="457.2" y="418.0" text-anchor="middle" font-size="11" fill="#444" font-family="Helvetica, Arial, sans-serif">1.39</text>
<line x1="581.0" y1="62.0" x2="581.0" y2="366.0" stroke="#f5f5f5" stroke-width="1"/>
<text x="581.0" y="418.0" text-anchor="middle" font-size="11" fill="#444" font-family="Helvetica, Arial, sans-serif">1.90</text>
<line x1="704.8" y1="62.0" x2="704.8" y2="366.0" stroke="#f5f5f5" stroke-width="1"/>
<text x="704.8" y="418.0" text-anchor="middle" font-size="11" fill="#444" font-family="Helvetica, Arial, sans-serif">2.40</text>
<line x1="828.5" y1="62.0" x2="828.5" y2="366.0" stroke="#f5f5f5" stroke-width="1"/>
<text x="828.5" y="418.0" text-anchor="middle" font-size="11" fill="#444" font-family="Helvetica, Arial, sans-serif">2.91</text>
<line x1="952.2" y1="62.0" x2="952.2" y2="366.0" stroke="#f5f5f5" stroke-width="1"/>
<text x="952.2" y="418.0" text-anchor="middle" font-size="11" fill="#444" font-family="Helvetica, Arial, sans-serif">3.42</text>
<line x1="1076.0" y1="62.0" x2="1076.0" y2="366.0" stroke="#f5f5f5" stroke-width="1"/>
<text x="1076.0" y="418.0" text-anchor="middle" font-size="11" fill="#444" font-family="Helvetica, Arial, sans-serif">3.92</text>
<text x="581.0" y="386.0" text-anchor="middle" font-size="15" fill="#222" font-family="Helvetica, Arial, sans-serif">time since request submit (s)</text>
</svg>