<svg xmlns="http://www.w3.org/2000/svg" width="1100" height="420" viewBox="0 0 1100 420">
<rect width="1100" height="420" fill="white"/>
<text x="86" y="26" font-size="22" font-weight="700" font-family="Helvetica, Arial, sans-serif">tb_session_03_turn_005_reuse  phase=reuse  turn=5  prompt=25856  peak_tx=7.73 GiB/s  peak_rx=37.25 GiB/s</text>
<text x="86" y="46" font-size="13" fill="#444" font-family="Helvetica, Arial, sans-serif">response_window=3.944s, response_tx=4.047 GiB, response_rx=32.572 GiB, metrics_tx=4.048 GiB, metrics_rx=32.572 GiB</text>
<line x1="86" y1="366.0" x2="1076" y2="366.0" stroke="#ececec" stroke-width="1"/>
<text x="76" y="370.0" text-anchor="end" font-size="12" fill="#444" font-family="Helvetica, Arial, sans-serif">0.0</text>
<line x1="86" y1="305.2" x2="1076" y2="305.2" stroke="#ececec" stroke-width="1"/>
<text x="76" y="309.2" text-anchor="end" font-size="12" fill="#444" font-family="Helvetica, Arial, sans-serif">8.2</text>
<line x1="86" y1="244.4" x2="1076" y2="244.4" stroke="#ececec" stroke-width="1"/>
<text x="76" y="248.4" text-anchor="end" font-size="12" fill="#444" font-family="Helvetica, Arial, sans-serif">16.4</text>
<line x1="86" y1="183.6" x2="1076" y2="183.6" stroke="#ececec" stroke-width="1"/>
<text x="76" y="187.6" text-anchor="end" font-size="12" fill="#444" font-family="Helvetica, Arial, sans-serif">24.6</text>
<line x1="86" y1="122.8" x2="1076" y2="122.8" stroke="#ececec" stroke-width="1"/>
<text x="76" y="126.8" text-anchor="end" font-size="12" fill="#444" font-family="Helvetica, Arial, sans-serif">32.8</text>
<line x1="86" y1="62.0" x2="1076" y2="62.0" stroke="#ececec" stroke-width="1"/>
<text x="76" y="66.0" text-anchor="end" font-size="12" fill="#444" font-family="Helvetica, Arial, sans-serif">41.0</text>
<line x1="86" y1="366.0" x2="1076" y2="366.0" stroke="#222" stroke-width="1.4"/>
<line x1="86" y1="62.0" x2="86" y2="366.0" stroke="#222" stroke-width="1.4"/>
<rect x="116.1" y="62.0" width="950.2" height="304.0" fill="#F58518" opacity="0.08"/>
<path d="M 86.0 366.0 L 96.1 366.0 L 106.2 366.0 L 116.4 366.0 L 126.5 366.0 L 136.8 366.0 L 147.0 366.0 L 157.1 366.0 L 167.2 366.0 L 177.3 366.0 L 187.7 366.0 L 197.8 366.0 L 207.9 366.0 L 218.0 350.1 L 228.4 342.4 L 240.9 342.1 L 253.0 363.9 L 264.5 351.6 L 274.9 366.0 L 285.0 366.0 L 295.1 366.0 L 305.3 366.0 L 315.6 366.0 L 325.7 366.0 L 335.8 366.0 L 346.0 366.0 L 356.1 366.0 L 366.4 366.0 L 376.6 365.9 L 386.7 366.0 L 396.8 366.0 L 406.9 366.0 L 417.0 366.0 L 427.2 366.0 L 437.3 366.0 L 447.6 366.0 L 457.8 366.0 L 467.9 366.0 L 478.0 366.0 L 488.1 366.0 L 498.2 366.0 L 508.6 342.5 L 519.2 342.5 L 530.8 342.1 L 542.1 366.0 L 552.2 366.0 L 562.6 342.3 L 573.4 341.2 L 584.5 342.4 L 595.1 366.0 L 605.7 366.0 L 615.8 345.3 L 628.3 340.8 L 640.1 342.3 L 651.0 366.0 L 661.6 366.0 L 671.7 347.9 L 682.3 342.5 L 693.2 339.1 L 705.4 361.2 L 715.8 366.0 L 726.4 356.5 L 737.0 342.2 L 748.3 342.3 L 759.7 350.2 L 770.0 366.0 L 780.1 366.0 L 790.5 339.5 L 802.8 342.2 L 813.6 339.9 L 824.7 366.0 L 834.8 366.0 L 845.2 342.6 L 855.8 342.3 L 868.1 341.7 L 879.4 365.9 L 890.2 365.9 L 900.8 365.9 L 911.0 366.0 L 921.1 366.0 L 931.4 366.0 L 941.6 366.0 L 951.9 308.6 L 962.0 365.9 L 973.4 365.9 L 983.5 365.9 L 993.8 365.9 L 1004.0 365.9 L 1014.3 365.9 L 1024.4 365.9 L 1034.8 365.9 L 1045.4 365.9 L 1055.5 365.9 L 1065.9 366.0 L 1076.0 366.0" fill="none" stroke="#4C78A8" stroke-width="2.8" stroke-linejoin="round" stroke-linecap="round"/>
<path d="M 86.0 366.0 L 96.1 366.0 L 106.2 366.0 L 116.4 366.0 L 126.5 366.0 L 136.8 366.0 L 147.0 366.0 L 157.1 366.0 L 167.2 366.0 L 177.3 366.0 L 187.7 365.9 L 197.8 366.0 L 207.9 366.0 L 218.0 161.2 L 228.4 89.6 L 240.9 163.6 L 253.0 365.8 L 264.5 366.0 L 274.9 366.0 L 285.0 366.0 L 295.1 366.0 L 305.3 366.0 L 315.6 366.0 L 325.7 366.0 L 335.8 366.0 L 346.0 366.0 L 356.1 366.0 L 366.4 366.0 L 376.6 366.0 L 386.7 366.0 L 396.8 366.0 L 406.9 366.0 L 417.0 366.0 L 427.2 366.0 L 437.3 366.0 L 447.6 366.0 L 457.8 366.0 L 467.9 366.0 L 478.0 366.0 L 488.1 366.0 L 498.2 179.7 L 508.6 159.4 L 519.2 127.1 L 530.8 331.3 L 542.1 366.0 L 552.2 280.6 L 562.6 158.6 L 573.4 155.5 L 584.5 198.6 L 595.1 366.0 L 605.7 366.0 L 615.8 129.8 L 628.3 158.4 L 640.1 170.8 L 651.0 366.0 L 661.6 366.0 L 671.7 160.1 L 682.3 159.3 L 693.2 156.6 L 705.4 366.0 L 715.8 366.0 L 726.4 160.9 L 737.0 135.0 L 748.3 161.7 L 759.7 366.0 L 770.0 366.0 L 780.1 189.5 L 790.5 157.1 L 802.8 159.0 L 813.6 353.8 L 824.7 366.0 L 834.8 256.6 L 845.2 158.6 L 855.8 103.4 L 868.1 303.5 L 879.4 365.9 L 890.2 365.9 L 900.8 365.9 L 911.0 365.9 L 921.1 365.9 L 931.4 365.9 L 941.6 365.9 L 951.9 365.7 L 962.0 365.8 L 973.4 365.8 L 983.5 365.8 L 993.8 365.8 L 1004.0 365.8 L 1014.3 365.8 L 1024.4 365.8 L 1034.8 365.8 L 1045.4 365.8 L 1055.5 365.8 L 1065.9 366.0 L 1076.0 366.0" fill="none" stroke="#F58518" stroke-width="2.8" stroke-linejoin="round" stroke-linecap="round"/>
<line x1="116.1" y1="62.0" x2="116.1" y2="366.0" stroke="#666" stroke-dasharray="4 4" stroke-width="1.2"/>
<text x="116.1" y="402.0" text-anchor="middle" font-size="12" fill="#444" font-family="Helvetica, Arial, sans-serif">submit</text>
<line x1="1066.4" y1="62.0" x2="1066.4" y2="366.0" stroke="#888" stroke-dasharray="4 4" stroke-width="1.2"/>
<text x="1066.4" y="402.0" text-anchor="middle" font-size="12" fill="#444" font-family="Helvetica, Arial, sans-serif">finish</text>
<line x1="86.0" y1="62.0" x2="86.0" y2="366.0" stroke="#f5f5f5" stroke-width="1"/>
<text x="86.0" y="418.0" text-anchor="middle" font-size="11" fill="#444" font-family="Helvetica, Arial, sans-serif">-0.12</text>
<line x1="209.8" y1="62.0" x2="209.8" y2="366.0" stroke="#f5f5f5" stroke-width="1"/>
<text x="209.8" y="418.0" text-anchor="middle" font-size="11" fill="#444" font-family="Helvetica, Arial, sans-serif">0.39</text>
<line x1="333.5" y1="62.0" x2="333.5" y2="366.0" stroke="#f5f5f5" stroke-width="1"/>
<text x="333.5" y="418.0" text-anchor="middle" font-size="11" fill="#444" font-family="Helvetica, Arial, sans-serif">0.90</text>
<line x1="457.2" y1="62.0" x2="457.2" y2="366.0" stroke="#f5f5f5" stroke-width="1"/>
<text x="457.2" y="418.0" text-anchor="middle" font-size="11" fill="#444" font-family="Helvetica, Arial, sans-serif">1.42</text>
<line x1="581.0" y1="62.0" x2="581.0" y2="366.0" stroke="#f5f5f5" stroke-width="1"/>
<text x="581.0" y="418.0" text-anchor="middle" font-size="11" fill="#444" font-family="Helvetica, Arial, sans-serif">1.93</text>
<line x1="704.8" y1="62.0" x2="704.8" y2="366.0" stroke="#f5f5f5" stroke-width="1"/>
<text x="704.8" y="418.0" text-anchor="middle" font-size="11" fill="#444" font-family="Helvetica, Arial, sans-serif">2.44</text>
<line x1="828.5" y1="62.0" x2="828.5" y2="366.0" stroke="#f5f5f5" stroke-width="1"/>
<text x="828.5" y="418.0" text-anchor="middle" font-size="11" fill="#444" font-family="Helvetica, Arial, sans-serif">2.96</text>
<line x1="952.2" y1="62.0" x2="952.2" y2="366.0" stroke="#f5f5f5" stroke-width="1"/>
<text x="952.2" y="418.0" text-anchor="middle" font-size="11" fill="#444" font-family="Helvetica, Arial, sans-serif">3.47</text>
<line x1="1076.0" y1="62.0" x2="1076.0" y2="366.0" stroke="#f5f5f5" stroke-width="1"/>
<text x="1076.0" y="418.0" text-anchor="middle" font-size="11" fill="#444" font-family="Helvetica, Arial, sans-serif">3.98</text>
<text x="581.0" y="386.0" text-anchor="middle" font-size="15" fill="#222" font-family="Helvetica, Arial, sans-serif">time since request submit (s)</text>
</svg>