<svg xmlns="http://www.w3.org/2000/svg" width="1100" height="420" viewBox="0 0 1100 420">
<rect width="1100" height="420" fill="white"/>
<text x="86" y="26" font-size="22" font-weight="700" font-family="Helvetica, Arial, sans-serif">tb_session_03_turn_001_reuse  phase=reuse  turn=1  prompt=24832  peak_tx=15.45 GiB/s  peak_rx=32.61 GiB/s</text>
<text x="86" y="46" font-size="13" fill="#444" font-family="Helvetica, Arial, sans-serif">response_window=14.418s, response_tx=14.849 GiB, response_rx=6.814 GiB, metrics_tx=21.757 GiB, metrics_rx=7.527 GiB</text>
<line x1="86" y1="366.0" x2="1076" y2="366.0" stroke="#ececec" stroke-width="1"/>
<text x="76" y="370.0" text-anchor="end" font-size="12" fill="#444" font-family="Helvetica, Arial, sans-serif">0.0</text>
<line x1="86" y1="305.2" x2="1076" y2="305.2" stroke="#ececec" stroke-width="1"/>
<text x="76" y="309.2" text-anchor="end" font-size="12" fill="#444" font-family="Helvetica, Arial, sans-serif">7.2</text>
<line x1="86" y1="244.4" x2="1076" y2="244.4" stroke="#ececec" stroke-width="1"/>
<text x="76" y="248.4" text-anchor="end" font-size="12" fill="#444" font-family="Helvetica, Arial, sans-serif">14.3</text>
<line x1="86" y1="183.6" x2="1076" y2="183.6" stroke="#ececec" stroke-width="1"/>
<text x="76" y="187.6" text-anchor="end" font-size="12" fill="#444" font-family="Helvetica, Arial, sans-serif">21.5</text>
<line x1="86" y1="122.8" x2="1076" y2="122.8" stroke="#ececec" stroke-width="1"/>
<text x="76" y="126.8" text-anchor="end" font-size="12" fill="#444" font-family="Helvetica, Arial, sans-serif">28.7</text>
<line x1="86" y1="62.0" x2="1076" y2="62.0" stroke="#ececec" stroke-width="1"/>
<text x="76" y="66.0" text-anchor="end" font-size="12" fill="#444" font-family="Helvetica, Arial, sans-serif">35.9</text>
<line x1="86" y1="366.0" x2="1076" y2="366.0" stroke="#222" stroke-width="1.4"/>
<line x1="86" y1="62.0" x2="86" y2="366.0" stroke="#222" stroke-width="1.4"/>
<rect x="95.0" y="62.0" width="979.3" height="304.0" fill="#F58518" opacity="0.08"/>
<path d="M 86.0 366.0 L 88.9 366.0 L 91.7 366.0 L 94.6 366.0 L 97.4 366.0 L 100.3 366.0 L 103.1 366.0 L 106.0 366.0 L 108.9 366.0 L 111.7 364.6 L 114.8 338.9 L 117.8 339.2 L 121.0 343.6 L 124.0 366.0 L 126.9 361.8 L 129.8 366.0 L 132.7 366.0 L 135.6 365.9 L 138.4 365.9 L 141.4 251.4 L 144.3 366.0 L 150.7 366.0 L 153.6 366.0 L 156.6 237.2 L 159.5 366.0 L 162.3 366.0 L 165.2 366.0 L 168.1 366.0 L 171.0 364.5 L 174.0 366.0 L 176.9 366.0 L 179.8 366.0 L 182.6 366.0 L 185.6 366.0 L 188.4 269.4 L 191.3 366.0 L 194.3 366.0 L 197.3 366.0 L 200.2 366.0 L 203.1 366.0 L 205.9 298.8 L 208.9 365.9 L 211.8 365.9 L 215.0 366.0 L 217.9 366.0 L 220.8 366.0 L 223.7 366.0 L 226.5 366.0 L 229.4 366.0 L 232.3 366.0 L 235.2 366.0 L 238.1 366.0 L 241.0 366.0 L 243.8 366.0 L 246.8 366.0 L 249.6 366.0 L 252.5 366.0 L 255.5 366.0 L 258.4 366.0 L 261.4 366.0 L 264.2 366.0 L 267.1 366.0 L 270.0 366.0 L 272.9 366.0 L 275.9 366.0 L 278.8 365.9 L 281.7 366.0 L 284.6 366.0 L 287.5 236.1 L 290.4 366.0 L 293.3 366.0 L 296.1 366.0 L 299.1 366.0 L 302.0 366.0 L 304.8 366.0 L 307.7 366.0 L 310.6 313.1 L 313.5 366.0 L 316.4 366.0 L 319.3 366.0 L 322.2 366.0 L 325.1 366.0 L 327.9 366.0 L 330.8 366.0 L 333.7 349.0 L 336.6 366.0 L 339.5 366.0 L 342.3 366.0 L 345.3 324.1 L 348.2 365.9 L 351.1 365.9 L 354.0 365.9 L 356.9 366.0 L 359.8 342.2 L 362.6 365.9 L 366.0 366.0 L 368.8 366.0 L 371.7 366.0 L 374.6 366.0 L 377.4 366.0 L 380.4 366.0 L 383.3 366.0 L 386.2 366.0 L 389.1 366.0 L 392.0 336.1 L 394.8 366.0 L 398.1 366.0 L 401.0 366.0 L 403.9 366.0 L 406.9 366.0 L 409.7 329.1 L 412.6 366.0 L 415.5 366.0 L 418.3 365.9 L 421.3 365.9 L 424.1 365.9 L 427.3 366.0 L 430.2 366.0 L 433.1 366.0 L 436.0 366.0 L 438.8 366.0 L 441.8 366.0 L 444.6 366.0 L 447.5 277.1 L 450.4 366.0 L 453.3 366.0 L 456.2 366.0 L 459.1 366.0 L 461.9 366.0 L 464.9 366.0 L 467.8 235.0 L 470.7 366.0 L 473.6 366.0 L 476.5 366.0 L 479.3 366.0 L 482.2 366.0 L 485.1 366.0 L 488.2 294.5 L 491.1 365.9 L 494.0 365.9 L 496.9 366.0 L 499.8 366.0 L 502.7 366.0 L 505.5 366.0 L 508.5 366.0 L 511.5 303.7 L 514.4 366.0 L 517.3 366.0 L 520.2 366.0 L 523.1 366.0 L 525.9 366.0 L 529.1 366.0 L 532.0 366.0 L 534.9 366.0 L 537.8 366.0 L 540.7 366.0 L 543.5 366.0 L 546.4 366.0 L 549.4 366.0 L 552.3 366.0 L 555.2 366.0 L 558.0 314.0 L 561.0 366.0 L 563.8 365.3 L 566.8 365.9 L 569.8 366.0 L 572.6 366.0 L 575.6 366.0 L 578.4 323.6 L 581.3 366.0 L 584.2 366.0 L 587.0 366.0 L 590.0 366.0 L 592.9 323.6 L 595.8 366.0 L 598.7 366.0 L 601.6 366.0 L 604.4 366.0 L 607.4 366.0 L 610.4 265.7 L 613.3 366.0 L 616.2 366.0 L 619.0 366.0 L 622.0 366.0 L 624.8 366.0 L 627.7 266.7 L 630.7 366.0 L 633.6 365.9 L 636.5 365.9 L 639.4 366.0 L 642.3 366.0 L 645.1 366.0 L 648.0 366.0 L 650.9 366.0 L 653.7 366.0 L 656.7 366.0 L 659.6 366.0 L 662.4 366.0 L 665.4 311.0 L 668.2 366.0 L 671.1 366.0 L 674.0 366.0 L 677.2 366.0 L 680.1 366.0 L 682.9 366.0 L 685.9 281.4 L 688.7 366.0 L 691.6 366.0 L 694.5 366.0 L 697.8 366.0 L 700.7 366.0 L 703.5 365.9 L 706.4 365.9 L 709.4 365.9 L 712.4 366.0 L 715.3 366.0 L 718.1 366.0 L 721.1 366.0 L 723.9 366.0 L 726.8 366.0 L 729.7 244.5 L 732.7 366.0 L 735.7 366.0 L 738.5 366.0 L 741.4 366.0 L 744.3 366.0 L 747.2 366.0 L 750.1 366.0 L 753.1 239.7 L 756.0 366.0 L 759.2 359.8 L 762.1 366.0 L 764.9 366.0 L 767.8 366.0 L 770.8 366.0 L 773.7 366.0 L 776.5 362.4 L 779.4 366.0 L 782.3 366.0 L 785.2 366.0 L 788.1 366.0 L 790.9 235.0 L 793.9 366.0 L 796.8 366.0 L 799.7 366.0 L 802.6 366.0 L 805.4 366.0 L 808.3 289.3 L 811.2 366.0 L 814.4 366.0 L 817.4 366.0 L 820.2 366.0 L 823.1 366.0 L 826.0 295.5 L 828.9 366.0 L 831.8 366.0 L 834.7 366.0 L 837.6 366.0 L 840.5 366.0 L 843.4 278.8 L 846.3 365.9 L 849.1 365.9 L 852.1 365.9 L 855.1 366.0 L 857.9 366.0 L 860.8 366.0 L 863.7 235.0 L 866.5 366.0 L 869.4 366.0 L 872.3 366.0 L 875.4 366.0 L 878.2 366.0 L 881.1 366.0 L 884.1 274.7 L 886.9 366.0 L 889.8 366.0 L 892.7 366.0 L 895.7 366.0 L 898.6 366.0 L 901.4 366.0 L 904.4 235.0 L 907.2 366.0 L 910.1 366.0 L 913.0 366.0 L 916.1 366.0 L 919.0 365.9 L 921.8 365.9 L 924.7 366.0 L 927.7 366.0 L 930.5 366.0 L 933.4 366.0 L 936.5 366.0 L 939.3 366.0 L 942.3 366.0 L 945.1 366.0 L 948.0 366.0 L 950.9 366.0 L 953.7 366.0 L 957.0 366.0 L 959.9 366.0 L 962.7 366.0 L 965.6 366.0 L 968.5 366.0 L 971.3 366.0 L 974.3 326.7 L 977.5 366.0 L 980.4 366.0 L 983.3 366.0 L 986.2 366.0 L 989.1 365.9 L 991.9 365.9 L 994.8 366.0 L 997.8 366.0 L 1000.7 366.0 L 1003.5 285.4 L 1006.5 366.0 L 1009.3 366.0 L 1012.2 366.0 L 1015.1 366.0 L 1018.1 350.1 L 1021.0 366.0 L 1023.8 366.0 L 1026.7 366.0 L 1029.6 366.0 L 1032.5 366.0 L 1035.4 324.2 L 1038.4 366.0 L 1041.2 366.0 L 1044.1 366.0 L 1047.0 366.0 L 1049.9 366.0 L 1052.8 366.0 L 1055.6 366.0 L 1058.7 366.0 L 1061.6 365.9 L 1064.5 365.9 L 1067.4 366.0 L 1070.2 366.0 L 1073.1 244.7 L 1076.0 366.0" fill="none" stroke="#4C78A8" stroke-width="2.8" stroke-linejoin="round" stroke-linecap="round"/>
<path d="M 86.0 366.0 L 88.9 366.0 L 91.7 366.0 L 94.6 366.0 L 97.4 366.0 L 100.3 366.0 L 103.1 366.0 L 106.0 366.0 L 108.9 366.0 L 111.7 131.8 L 114.8 129.4 L 117.8 89.6 L 121.0 365.9 L 124.0 365.9 L 126.9 251.8 L 129.8 365.9 L 132.7 365.9 L 135.6 365.9 L 138.4 365.9 L 141.4 365.9 L 144.3 365.6 L 150.7 365.9 L 153.6 365.9 L 156.6 365.9 L 159.5 365.9 L 162.3 365.9 L 165.2 365.9 L 168.1 365.9 L 171.0 365.9 L 174.0 365.9 L 176.9 365.9 L 179.8 365.9 L 182.6 365.9 L 185.6 365.9 L 188.4 365.9 L 191.3 365.9 L 194.3 365.9 L 197.3 365.9 L 200.2 365.9 L 203.1 365.9 L 205.9 365.9 L 208.9 365.9 L 211.8 365.9 L 215.0 365.9 L 217.9 365.9 L 220.8 365.9 L 223.7 365.9 L 226.5 365.9 L 229.4 365.9 L 232.3 365.9 L 235.2 365.9 L 238.1 365.9 L 241.0 365.9 L 243.8 365.9 L 246.8 365.9 L 249.6 365.9 L 252.5 365.9 L 255.5 365.9 L 258.4 365.9 L 261.4 365.9 L 264.2 365.9 L 267.1 365.9 L 270.0 365.9 L 272.9 365.9 L 275.9 365.9 L 278.8 365.9 L 281.7 365.9 L 284.6 365.9 L 287.5 365.9 L 290.4 365.9 L 293.3 365.9 L 296.1 365.9 L 299.1 365.9 L 302.0 365.9 L 304.8 365.9 L 307.7 365.9 L 310.6 365.9 L 313.5 365.9 L 316.4 365.9 L 319.3 365.9 L 322.2 365.9 L 325.1 365.9 L 327.9 365.9 L 330.8 365.9 L 333.7 365.9 L 336.6 365.9 L 339.5 365.9 L 342.3 365.9 L 345.3 365.9 L 348.2 365.9 L 351.1 365.9 L 354.0 365.9 L 356.9 365.9 L 359.8 365.9 L 362.6 365.9 L 366.0 365.9 L 368.8 365.9 L 371.7 365.9 L 374.6 366.0 L 377.4 365.9 L 380.4 365.9 L 383.3 365.9 L 386.2 365.9 L 389.1 365.9 L 392.0 365.9 L 394.8 365.9 L 398.1 365.9 L 401.0 365.9 L 403.9 365.9 L 406.9 365.9 L 409.7 365.9 L 412.6 365.9 L 415.5 365.9 L 418.3 365.9 L 421.3 365.9 L 424.1 365.9 L 427.3 365.9 L 430.2 365.9 L 433.1 365.9 L 436.0 365.9 L 438.8 365.9 L 441.8 365.9 L 444.6 365.9 L 447.5 365.9 L 450.4 365.9 L 453.3 365.9 L 456.2 365.9 L 459.1 365.9 L 461.9 365.9 L 464.9 365.9 L 467.8 365.9 L 470.7 365.9 L 473.6 365.9 L 476.5 365.9 L 479.3 365.9 L 482.2 365.9 L 485.1 365.9 L 488.2 365.9 L 491.1 365.9 L 494.0 365.9 L 496.9 365.9 L 499.8 365.9 L 502.7 365.9 L 505.5 365.9 L 508.5 365.9 L 511.5 365.9 L 514.4 365.9 L 517.3 365.9 L 520.2 365.9 L 523.1 365.9 L 525.9 365.9 L 529.1 365.9 L 532.0 365.9 L 534.9 365.9 L 537.8 365.9 L 540.7 365.9 L 543.5 365.9 L 546.4 365.9 L 549.4 365.9 L 552.3 365.9 L 555.2 365.9 L 558.0 366.0 L 561.0 159.1 L 563.8 365.9 L 566.8 365.9 L 569.8 365.9 L 572.6 365.9 L 575.6 365.9 L 578.4 365.9 L 581.3 365.9 L 584.2 365.9 L 587.0 365.9 L 590.0 365.9 L 592.9 365.9 L 595.8 365.9 L 598.7 365.9 L 601.6 365.9 L 604.4 365.9 L 607.4 365.9 L 610.4 365.9 L 613.3 365.9 L 616.2 365.9 L 619.0 365.9 L 622.0 365.9 L 624.8 365.9 L 627.7 365.9 L 630.7 365.9 L 633.6 365.9 L 636.5 365.9 L 639.4 365.9 L 642.3 365.9 L 645.1 365.9 L 648.0 365.9 L 650.9 365.9 L 653.7 365.9 L 656.7 365.9 L 659.6 365.9 L 662.4 365.9 L 665.4 365.9 L 668.2 365.9 L 671.1 365.9 L 674.0 365.9 L 677.2 365.9 L 680.1 365.9 L 682.9 365.9 L 685.9 365.9 L 688.7 365.9 L 691.6 365.9 L 694.5 365.9 L 697.8 365.9 L 700.7 365.9 L 703.5 365.9 L 706.4 365.9 L 709.4 365.9 L 712.4 365.9 L 715.3 365.9 L 718.1 365.9 L 721.1 365.9 L 723.9 365.9 L 726.8 365.9 L 729.7 365.9 L 732.7 365.9 L 735.7 365.9 L 738.5 365.9 L 741.4 365.9 L 744.3 365.9 L 747.2 365.9 L 750.1 365.9 L 753.1 366.0 L 756.0 238.8 L 759.2 365.9 L 762.1 365.9 L 764.9 365.9 L 767.8 365.9 L 770.8 365.9 L 773.7 365.9 L 776.5 365.9 L 779.4 365.9 L 782.3 365.9 L 785.2 365.9 L 788.1 365.9 L 790.9 365.9 L 793.9 365.9 L 796.8 365.9 L 799.7 365.9 L 802.6 365.9 L 805.4 365.9 L 808.3 365.9 L 811.2 365.9 L 814.4 365.9 L 817.4 365.9 L 820.2 365.9 L 823.1 365.9 L 826.0 365.9 L 828.9 365.9 L 831.8 365.9 L 834.7 365.9 L 837.6 365.9 L 840.5 365.9 L 843.4 365.9 L 846.3 365.9 L 849.1 365.9 L 852.1 365.9 L 855.1 365.9 L 857.9 365.9 L 860.8 365.9 L 863.7 365.9 L 866.5 365.9 L 869.4 365.9 L 872.3 365.9 L 875.4 365.9 L 878.2 365.9 L 881.1 365.9 L 884.1 365.9 L 886.9 365.9 L 889.8 365.9 L 892.7 365.9 L 895.7 365.9 L 898.6 365.9 L 901.4 365.9 L 904.4 365.9 L 907.2 365.9 L 910.1 365.9 L 913.0 365.9 L 916.1 365.9 L 919.0 365.9 L 921.8 365.9 L 924.7 365.9 L 927.7 365.9 L 930.5 365.9 L 933.4 365.9 L 936.5 365.9 L 939.3 365.9 L 942.3 365.9 L 945.1 365.9 L 948.0 365.9 L 950.9 302.3 L 953.7 366.0 L 957.0 366.0 L 959.9 365.9 L 962.7 365.9 L 965.6 365.9 L 968.5 365.9 L 971.3 365.9 L 974.3 365.9 L 977.5 365.9 L 980.4 365.9 L 983.3 365.9 L 986.2 365.9 L 989.1 365.9 L 991.9 365.9 L 994.8 365.9 L 997.8 365.9 L 1000.7 365.9 L 1003.5 365.9 L 1006.5 365.9 L 1009.3 365.9 L 1012.2 365.9 L 1015.1 365.9 L 1018.1 365.9 L 1021.0 365.9 L 1023.8 365.9 L 1026.7 365.9 L 1029.6 365.9 L 1032.5 365.9 L 1035.4 365.9 L 1038.4 365.9 L 1041.2 365.9 L 1044.1 365.9 L 1047.0 365.9 L 1049.9 365.9 L 1052.8 365.9 L 1055.6 365.9 L 1058.7 365.9 L 1061.6 365.9 L 1064.5 365.9 L 1067.4 365.9 L 1070.2 365.9 L 1073.1 365.9 L 1076.0 365.9" fill="none" stroke="#F58518" stroke-width="2.8" stroke-linejoin="round" stroke-linecap="round"/>
<line x1="95.0" y1="62.0" x2="95.0" y2="366.0" stroke="#666" stroke-dasharray="4 4" stroke-width="1.2"/>
<text x="95.0" y="402.0" text-anchor="middle" font-size="12" fill="#444" font-family="Helvetica, Arial, sans-serif">submit</text>
<line x1="1074.3" y1="62.0" x2="1074.3" y2="366.0" stroke="#888" stroke-dasharray="4 4" stroke-width="1.2"/>
<text x="1074.3" y="402.0" text-anchor="middle" font-size="12" fill="#444" font-family="Helvetica, Arial, sans-serif">finish</text>
<line x1="86.0" y1="62.0" x2="86.0" y2="366.0" stroke="#f5f5f5" stroke-width="1"/>
<text x="86.0" y="418.0" text-anchor="middle" font-size="11" fill="#444" font-family="Helvetica, Arial, sans-serif">-0.13</text>
<line x1="209.8" y1="62.0" x2="209.8" y2="366.0" stroke="#f5f5f5" stroke-width="1"/>
<text x="209.8" y="418.0" text-anchor="middle" font-size="11" fill="#444" font-family="Helvetica, Arial, sans-serif">1.69</text>
<line x1="333.5" y1="62.0" x2="333.5" y2="366.0" stroke="#f5f5f5" stroke-width="1"/>
<text x="333.5" y="418.0" text-anchor="middle" font-size="11" fill="#444" font-family="Helvetica, Arial, sans-serif">3.51</text>
<line x1="457.2" y1="62.0" x2="457.2" y2="366.0" stroke="#f5f5f5" stroke-width="1"/>
<text x="457.2" y="418.0" text-anchor="middle" font-size="11" fill="#444" font-family="Helvetica, Arial, sans-serif">5.33</text>
<line x1="581.0" y1="62.0" x2="581.0" y2="366.0" stroke="#f5f5f5" stroke-width="1"/>
<text x="581.0" y="418.0" text-anchor="middle" font-size="11" fill="#444" font-family="Helvetica, Arial, sans-serif">7.16</text>
<line x1="704.7" y1="62.0" x2="704.7" y2="366.0" stroke="#f5f5f5" stroke-width="1"/>
<text x="704.7" y="418.0" text-anchor="middle" font-size="11" fill="#444" font-family="Helvetica, Arial, sans-serif">8.98</text>
<line x1="828.5" y1="62.0" x2="828.5" y2="366.0" stroke="#f5f5f5" stroke-width="1"/>
<text x="828.5" y="418.0" text-anchor="middle" font-size="11" fill="#444" font-family="Helvetica, Arial, sans-serif">10.80</text>
<line x1="952.3" y1="62.0" x2="952.3" y2="366.0" stroke="#f5f5f5" stroke-width="1"/>
<text x="952.3" y="418.0" text-anchor="middle" font-size="11" fill="#444" font-family="Helvetica, Arial, sans-serif">12.62</text>
<line x1="1076.0" y1="62.0" x2="1076.0" y2="366.0" stroke="#f5f5f5" stroke-width="1"/>
<text x="1076.0" y="418.0" text-anchor="middle" font-size="11" fill="#444" font-family="Helvetica, Arial, sans-serif">14.44</text>
<text x="581.0" y="386.0" text-anchor="middle" font-size="15" fill="#222" font-family="Helvetica, Arial, sans-serif">time since request submit (s)</text>
</svg>