<svg xmlns="http://www.w3.org/2000/svg" width="1100" height="420" viewBox="0 0 1100 420">
<rect width="1100" height="420" fill="white"/>
<text x="86" y="26" font-size="22" font-weight="700" font-family="Helvetica, Arial, sans-serif">tb_session_00_turn_000_seed  phase=seed  turn=0  prompt=24576  peak_tx=15.47 GiB/s  peak_rx=0.03 GiB/s</text>
<text x="86" y="46" font-size="13" fill="#444" font-family="Helvetica, Arial, sans-serif">response_window=3.352s, response_tx=4.674 GiB, response_rx=0.031 GiB, metrics_tx=4.677 GiB, metrics_rx=0.032 GiB</text>
<line x1="86" y1="366.0" x2="1076" y2="366.0" stroke="#ececec" stroke-width="1"/>
<text x="76" y="370.0" text-anchor="end" font-size="12" fill="#444" font-family="Helvetica, Arial, sans-serif">0.0</text>
<line x1="86" y1="305.2" x2="1076" y2="305.2" stroke="#ececec" stroke-width="1"/>
<text x="76" y="309.2" text-anchor="end" font-size="12" fill="#444" font-family="Helvetica, Arial, sans-serif">3.4</text>
<line x1="86" y1="244.4" x2="1076" y2="244.4" stroke="#ececec" stroke-width="1"/>
<text x="76" y="248.4" text-anchor="end" font-size="12" fill="#444" font-family="Helvetica, Arial, sans-serif">6.8</text>
<line x1="86" y1="183.6" x2="1076" y2="183.6" stroke="#ececec" stroke-width="1"/>
<text x="76" y="187.6" text-anchor="end" font-size="12" fill="#444" font-family="Helvetica, Arial, sans-serif">10.2</text>
<line x1="86" y1="122.8" x2="1076" y2="122.8" stroke="#ececec" stroke-width="1"/>
<text x="76" y="126.8" text-anchor="end" font-size="12" fill="#444" font-family="Helvetica, Arial, sans-serif">13.6</text>
<line x1="86" y1="62.0" x2="1076" y2="62.0" stroke="#ececec" stroke-width="1"/>
<text x="76" y="66.0" text-anchor="end" font-size="12" fill="#444" font-family="Helvetica, Arial, sans-serif">17.0</text>
<line x1="86" y1="366.0" x2="1076" y2="366.0" stroke="#222" stroke-width="1.4"/>
<line x1="86" y1="62.0" x2="86" y2="366.0" stroke="#222" stroke-width="1.4"/>
<rect x="126.7" y="62.0" width="947.1" height="304.0" fill="#4C78A8" opacity="0.08"/>
<path d="M 86.0 366.0 L 97.9 366.0 L 109.7 366.0 L 121.9 366.0 L 133.7 366.0 L 145.9 366.0 L 157.8 365.9 L 170.5 365.9 L 182.6 365.9 L 194.5 133.4 L 206.6 365.9 L 218.5 365.9 L 233.2 365.9 L 245.1 89.9 L 257.2 365.9 L 269.4 365.9 L 281.2 365.9 L 293.4 366.0 L 305.2 279.4 L 317.7 366.0 L 329.5 365.9 L 341.4 366.0 L 353.6 366.0 L 365.4 219.6 L 377.6 365.9 L 389.4 365.9 L 401.6 365.9 L 413.7 365.8 L 425.6 186.8 L 437.5 365.9 L 449.6 365.9 L 461.5 365.9 L 473.6 365.9 L 485.5 366.0 L 497.7 89.6 L 519.1 366.0 L 531.0 365.9 L 543.7 366.0 L 555.6 365.9 L 567.7 366.0 L 579.6 366.0 L 591.7 366.0 L 603.6 366.0 L 615.5 365.9 L 628.7 366.0 L 640.6 365.9 L 652.8 113.0 L 664.6 366.0 L 676.8 366.0 L 688.6 366.0 L 700.5 365.9 L 714.4 365.9 L 726.2 366.0 L 738.9 352.6 L 750.8 366.0 L 763.0 366.0 L 774.8 366.0 L 787.5 366.0 L 799.4 366.0 L 811.3 366.0 L 823.4 89.9 L 835.3 366.0 L 847.1 366.0 L 859.3 366.0 L 871.2 366.0 L 883.3 366.0 L 895.5 366.0 L 907.3 366.0 L 919.5 366.0 L 931.3 366.0 L 943.2 366.0 L 955.4 366.0 L 967.5 366.0 L 979.4 366.0 L 991.5 365.9 L 1003.4 365.8 L 1015.5 365.7 L 1027.4 365.8 L 1039.6 365.8 L 1051.7 365.8 L 1063.9 365.8 L 1076.0 366.0" fill="none" stroke="#4C78A8" stroke-width="2.8" stroke-linejoin="round" stroke-linecap="round"/>
<path d="M 86.0 366.0 L 97.9 365.9 L 109.7 365.9 L 121.9 365.9 L 133.7 366.0 L 145.9 365.8 L 157.8 365.8 L 170.5 365.8 L 182.6 365.8 L 194.5 365.8 L 206.6 365.8 L 218.5 365.8 L 233.2 365.8 L 245.1 365.8 L 257.2 365.8 L 269.4 365.9 L 281.2 365.9 L 293.4 365.9 L 305.2 365.9 L 317.7 365.9 L 329.5 365.9 L 341.4 365.9 L 353.6 365.8 L 365.4 365.8 L 377.6 365.9 L 389.4 365.8 L 401.6 365.8 L 413.7 365.8 L 425.6 365.8 L 437.5 365.8 L 449.6 365.9 L 461.5 365.9 L 473.6 365.9 L 485.5 365.9 L 497.7 365.9 L 519.1 365.9 L 531.0 365.9 L 543.7 365.9 L 555.6 365.9 L 567.7 365.8 L 579.6 365.9 L 591.7 365.9 L 603.6 365.8 L 615.5 365.9 L 628.7 365.9 L 640.6 365.8 L 652.8 365.9 L 664.6 365.9 L 676.8 365.9 L 688.6 365.8 L 700.5 365.8 L 714.4 365.8 L 726.2 365.8 L 738.9 365.9 L 750.8 365.9 L 763.0 365.9 L 774.8 365.9 L 787.5 365.9 L 799.4 365.9 L 811.3 365.9 L 823.4 365.9 L 835.3 365.9 L 847.1 365.9 L 859.3 365.9 L 871.2 365.9 L 883.3 365.9 L 895.5 365.9 L 907.3 365.8 L 919.5 365.9 L 931.3 365.9 L 943.2 365.9 L 955.4 365.9 L 967.5 365.9 L 979.4 365.9 L 991.5 365.8 L 1003.4 365.7 L 1015.5 365.5 L 1027.4 365.5 L 1039.6 365.5 L 1051.7 365.5 L 1063.9 365.8 L 1076.0 366.0" fill="none" stroke="#F58518" stroke-width="2.8" stroke-linejoin="round" stroke-linecap="round"/>
<line x1="126.7" y1="62.0" x2="126.7" y2="366.0" stroke="#666" stroke-dasharray="4 4" stroke-width="1.2"/>
<text x="126.7" y="402.0" text-anchor="middle" font-size="12" fill="#444" font-family="Helvetica, Arial, sans-serif">submit</text>
<line x1="1073.7" y1="62.0" x2="1073.7" y2="366.0" stroke="#888" stroke-dasharray="4 4" stroke-width="1.2"/>
<text x="1073.7" y="402.0" text-anchor="middle" font-size="12" fill="#444" font-family="Helvetica, Arial, sans-serif">finish</text>
<line x1="86.0" y1="62.0" x2="86.0" y2="366.0" stroke="#f5f5f5" stroke-width="1"/>
<text x="86.0" y="418.0" text-anchor="middle" font-size="11" fill="#444" font-family="Helvetica, Arial, sans-serif">-0.14</text>
<line x1="209.8" y1="62.0" x2="209.8" y2="366.0" stroke="#f5f5f5" stroke-width="1"/>
<text x="209.8" y="418.0" text-anchor="middle" font-size="11" fill="#444" font-family="Helvetica, Arial, sans-serif">0.29</text>
<line x1="333.5" y1="62.0" x2="333.5" y2="366.0" stroke="#f5f5f5" stroke-width="1"/>
<text x="333.5" y="418.0" text-anchor="middle" font-size="11" fill="#444" font-family="Helvetica, Arial, sans-serif">0.73</text>
<line x1="457.2" y1="62.0" x2="457.2" y2="366.0" stroke="#f5f5f5" stroke-width="1"/>
<text x="457.2" y="418.0" text-anchor="middle" font-size="11" fill="#444" font-family="Helvetica, Arial, sans-serif">1.17</text>
<line x1="581.0" y1="62.0" x2="581.0" y2="366.0" stroke="#f5f5f5" stroke-width="1"/>
<text x="581.0" y="418.0" text-anchor="middle" font-size="11" fill="#444" font-family="Helvetica, Arial, sans-serif">1.61</text>
<line x1="704.8" y1="62.0" x2="704.8" y2="366.0" stroke="#f5f5f5" stroke-width="1"/>
<text x="704.8" y="418.0" text-anchor="middle" font-size="11" fill="#444" font-family="Helvetica, Arial, sans-serif">2.05</text>
<line x1="828.5" y1="62.0" x2="828.5" y2="366.0" stroke="#f5f5f5" stroke-width="1"/>
<text x="828.5" y="418.0" text-anchor="middle" font-size="11" fill="#444" font-family="Helvetica, Arial, sans-serif">2.48</text>
<line x1="952.2" y1="62.0" x2="952.2" y2="366.0" stroke="#f5f5f5" stroke-width="1"/>
<text x="952.2" y="418.0" text-anchor="middle" font-size="11" fill="#444" font-family="Helvetica, Arial, sans-serif">2.92</text>
<line x1="1076.0" y1="62.0" x2="1076.0" y2="366.0" stroke="#f5f5f5" stroke-width="1"/>
<text x="1076.0" y="418.0" text-anchor="middle" font-size="11" fill="#444" font-family="Helvetica, Arial, sans-serif">3.36</text>
<text x="581.0" y="386.0" text-anchor="middle" font-size="15" fill="#222" font-family="Helvetica, Arial, sans-serif">time since request submit (s)</text>
</svg>