<svg xmlns="http://www.w3.org/2000/svg" width="1100" height="420" viewBox="0 0 1100 420">
<rect width="1100" height="420" fill="white"/>
<text x="86" y="26" font-size="22" font-weight="700" font-family="Helvetica, Arial, sans-serif">tb_session_07_turn_001_reuse  phase=reuse  turn=1  prompt=24832  peak_tx=15.45 GiB/s  peak_rx=32.61 GiB/s</text>
<text x="86" y="46" font-size="13" fill="#444" font-family="Helvetica, Arial, sans-serif">response_window=22.751s, response_tx=21.752 GiB, response_rx=7.524 GiB, metrics_tx=21.757 GiB, metrics_rx=7.527 GiB</text>
<line x1="86" y1="366.0" x2="1076" y2="366.0" stroke="#ececec" stroke-width="1"/>
<text x="76" y="370.0" text-anchor="end" font-size="12" fill="#444" font-family="Helvetica, Arial, sans-serif">0.0</text>
<line x1="86" y1="305.2" x2="1076" y2="305.2" stroke="#ececec" stroke-width="1"/>
<text x="76" y="309.2" text-anchor="end" font-size="12" fill="#444" font-family="Helvetica, Arial, sans-serif">7.2</text>
<line x1="86" y1="244.4" x2="1076" y2="244.4" stroke="#ececec" stroke-width="1"/>
<text x="76" y="248.4" text-anchor="end" font-size="12" fill="#444" font-family="Helvetica, Arial, sans-serif">14.3</text>
<line x1="86" y1="183.6" x2="1076" y2="183.6" stroke="#ececec" stroke-width="1"/>
<text x="76" y="187.6" text-anchor="end" font-size="12" fill="#444" font-family="Helvetica, Arial, sans-serif">21.5</text>
<line x1="86" y1="122.8" x2="1076" y2="122.8" stroke="#ececec" stroke-width="1"/>
<text x="76" y="126.8" text-anchor="end" font-size="12" fill="#444" font-family="Helvetica, Arial, sans-serif">28.7</text>
<line x1="86" y1="62.0" x2="1076" y2="62.0" stroke="#ececec" stroke-width="1"/>
<text x="76" y="66.0" text-anchor="end" font-size="12" fill="#444" font-family="Helvetica, Arial, sans-serif">35.9</text>
<line x1="86" y1="366.0" x2="1076" y2="366.0" stroke="#222" stroke-width="1.4"/>
<line x1="86" y1="62.0" x2="86" y2="366.0" stroke="#222" stroke-width="1.4"/>
<rect x="92.0" y="62.0" width="982.3" height="304.0" fill="#F58518" opacity="0.08"/>
<path d="M 86.0 366.0 L 87.8 366.0 L 89.6 366.0 L 91.4 366.0 L 93.3 366.0 L 95.1 366.0 L 96.9 366.0 L 98.7 366.0 L 100.6 366.0 L 102.4 364.6 L 104.3 338.9 L 106.2 339.2 L 108.3 343.6 L 110.1 366.0 L 112.0 361.8 L 113.8 366.0 L 115.7 366.0 L 117.5 365.9 L 119.3 365.9 L 121.2 251.4 L 123.1 366.0 L 127.1 366.0 L 129.0 366.0 L 130.9 237.2 L 132.7 366.0 L 134.5 366.0 L 136.3 366.0 L 138.2 366.0 L 140.0 364.5 L 142.0 366.0 L 143.8 366.0 L 145.6 366.0 L 147.4 366.0 L 149.3 366.0 L 151.1 269.4 L 153.0 366.0 L 154.8 366.0 L 156.8 366.0 L 158.6 366.0 L 160.4 366.0 L 162.3 298.8 L 164.1 365.9 L 166.0 365.9 L 168.0 366.0 L 169.8 366.0 L 171.7 366.0 L 173.5 366.0 L 175.3 366.0 L 177.2 366.0 L 179.0 366.0 L 180.9 366.0 L 182.7 366.0 L 184.5 366.0 L 186.3 366.0 L 188.2 366.0 L 190.0 366.0 L 191.9 366.0 L 193.8 366.0 L 195.6 366.0 L 197.5 366.0 L 199.3 366.0 L 201.1 366.0 L 203.0 366.0 L 204.8 366.0 L 206.7 366.0 L 208.6 365.9 L 210.4 366.0 L 212.2 366.0 L 214.1 236.1 L 215.9 366.0 L 217.8 366.0 L 219.6 366.0 L 221.4 366.0 L 223.3 366.0 L 225.1 366.0 L 226.9 366.0 L 228.8 313.1 L 230.6 366.0 L 232.5 366.0 L 234.3 366.0 L 236.1 366.0 L 238.0 366.0 L 239.8 366.0 L 241.6 366.0 L 243.5 349.0 L 245.3 366.0 L 247.1 366.0 L 248.9 366.0 L 250.8 324.1 L 252.7 365.9 L 254.5 365.9 L 256.4 365.9 L 258.2 366.0 L 260.0 342.2 L 261.9 365.9 L 264.0 366.0 L 265.8 366.0 L 267.6 366.0 L 269.5 366.0 L 271.3 366.0 L 273.2 366.0 L 275.0 366.0 L 276.8 366.0 L 278.7 366.0 L 280.5 336.1 L 282.3 366.0 L 284.4 366.0 L 286.3 366.0 L 288.1 366.0 L 290.0 366.0 L 291.8 329.1 L 293.6 366.0 L 295.5 366.0 L 297.3 365.9 L 299.1 365.9 L 300.9 365.9 L 303.0 366.0 L 304.8 366.0 L 306.6 366.0 L 308.5 366.0 L 310.3 366.0 L 312.2 366.0 L 314.0 366.0 L 315.8 277.1 L 317.6 366.0 L 319.5 366.0 L 321.3 366.0 L 323.2 366.0 L 325.0 366.0 L 326.8 366.0 L 328.7 235.0 L 330.6 366.0 L 332.4 366.0 L 334.2 366.0 L 336.0 366.0 L 337.9 366.0 L 339.7 366.0 L 341.7 294.5 L 343.5 365.9 L 345.4 365.9 L 347.2 366.0 L 349.0 366.0 L 350.9 366.0 L 352.7 366.0 L 354.6 366.0 L 356.5 303.7 L 358.4 366.0 L 360.2 366.0 L 362.0 366.0 L 363.8 366.0 L 365.7 366.0 L 367.7 366.0 L 369.5 366.0 L 371.4 366.0 L 373.2 366.0 L 375.0 366.0 L 376.8 366.0 L 378.7 366.0 L 380.6 366.0 L 382.5 366.0 L 384.3 366.0 L 386.1 314.0 L 387.9 366.0 L 389.7 365.3 L 391.6 365.9 L 393.5 366.0 L 395.4 366.0 L 397.2 366.0 L 399.0 323.6 L 400.9 366.0 L 402.7 366.0 L 404.5 366.0 L 406.4 366.0 L 408.2 323.6 L 410.1 366.0 L 411.9 366.0 L 413.8 366.0 L 415.6 366.0 L 417.4 366.0 L 419.4 265.7 L 421.2 366.0 L 423.0 366.0 L 424.9 366.0 L 426.7 366.0 L 428.5 366.0 L 430.4 266.7 L 432.3 366.0 L 434.1 365.9 L 435.9 365.9 L 437.8 366.0 L 439.6 366.0 L 441.4 366.0 L 443.3 366.0 L 445.1 366.0 L 446.9 366.0 L 448.8 366.0 L 450.6 366.0 L 452.4 366.0 L 454.3 311.0 L 456.1 366.0 L 458.0 366.0 L 459.8 366.0 L 461.8 366.0 L 463.7 366.0 L 465.5 366.0 L 467.3 281.4 L 469.2 366.0 L 471.0 366.0 L 472.8 366.0 L 474.9 366.0 L 476.7 366.0 L 478.6 365.9 L 480.4 365.9 L 482.3 365.9 L 484.2 366.0 L 486.0 366.0 L 487.8 366.0 L 489.7 366.0 L 491.5 366.0 L 493.3 366.0 L 495.2 244.5 L 497.1 366.0 L 499.0 366.0 L 500.8 366.0 L 502.6 366.0 L 504.5 366.0 L 506.3 366.0 L 508.1 366.0 L 510.1 239.7 L 511.9 366.0 L 513.9 359.8 L 515.8 366.0 L 517.6 366.0 L 519.5 366.0 L 521.3 366.0 L 523.2 366.0 L 525.0 362.4 L 526.8 366.0 L 528.6 366.0 L 530.5 366.0 L 532.3 366.0 L 534.1 235.0 L 536.0 366.0 L 537.8 366.0 L 539.7 366.0 L 541.5 366.0 L 543.3 366.0 L 545.2 289.3 L 547.0 366.0 L 549.1 366.0 L 550.9 366.0 L 552.7 366.0 L 554.6 366.0 L 556.4 295.5 L 558.3 366.0 L 560.1 366.0 L 562.0 366.0 L 563.8 366.0 L 565.7 366.0 L 567.5 278.8 L 569.3 365.9 L 571.1 365.9 L 573.0 365.9 L 574.9 366.0 L 576.7 366.0 L 578.5 366.0 L 580.4 235.0 L 582.2 366.0 L 584.0 366.0 L 585.9 366.0 L 587.8 366.0 L 589.6 366.0 L 591.5 366.0 L 593.3 274.7 L 595.1 366.0 L 597.0 366.0 L 598.8 366.0 L 600.8 366.0 L 602.6 366.0 L 604.4 366.0 L 606.2 235.0 L 608.1 366.0 L 609.9 366.0 L 611.7 366.0 L 613.7 366.0 L 615.5 365.9 L 617.3 365.9 L 619.2 366.0 L 621.0 366.0 L 622.9 366.0 L 624.7 366.0 L 626.7 366.0 L 628.5 366.0 L 630.3 366.0 L 632.1 366.0 L 634.0 366.0 L 635.8 366.0 L 637.6 366.0 L 639.7 366.0 L 641.5 366.0 L 643.3 366.0 L 645.2 366.0 L 647.0 366.0 L 648.8 366.0 L 650.7 326.7 L 652.7 366.0 L 654.6 366.0 L 656.4 366.0 L 658.3 366.0 L 660.1 365.9 L 661.9 365.9 L 663.7 366.0 L 665.6 366.0 L 667.5 366.0 L 669.3 285.4 L 671.1 366.0 L 672.9 366.0 L 674.8 366.0 L 676.6 366.0 L 678.5 350.1 L 680.4 366.0 L 682.2 366.0 L 684.0 366.0 L 685.9 366.0 L 687.7 366.0 L 689.5 324.2 L 691.4 366.0 L 693.2 366.0 L 695.1 366.0 L 696.9 366.0 L 698.7 366.0 L 700.6 366.0 L 702.4 366.0 L 704.4 366.0 L 706.2 365.9 L 708.0 365.9 L 709.9 366.0 L 711.7 366.0 L 713.5 244.7 L 715.3 366.0 L 717.2 366.0 L 719.1 366.0 L 721.0 366.0 L 722.8 366.0 L 724.6 366.0 L 726.5 366.0 L 728.3 366.0 L 730.3 366.0 L 732.1 366.0 L 734.0 366.0 L 735.8 366.0 L 737.6 366.0 L 739.4 366.0 L 741.3 366.0 L 743.4 366.0 L 745.2 366.0 L 747.0 366.0 L 748.8 366.0 L 750.7 365.9 L 752.5 277.2 L 754.3 366.0 L 756.2 366.0 L 758.1 366.0 L 759.9 366.0 L 761.7 366.0 L 763.6 366.0 L 765.4 366.0 L 767.2 366.0 L 769.2 366.0 L 771.0 366.0 L 772.9 366.0 L 774.7 366.0 L 776.5 366.0 L 778.3 366.0 L 780.2 366.0 L 782.1 366.0 L 784.0 366.0 L 785.8 366.0 L 787.6 366.0 L 789.4 366.0 L 791.2 366.0 L 793.1 366.0 L 795.1 325.3 L 796.9 365.9 L 798.8 365.9 L 800.6 366.0 L 802.4 366.0 L 804.2 294.5 L 806.1 366.0 L 808.1 366.0 L 809.9 366.0 L 811.7 366.0 L 813.6 266.5 L 815.4 366.0 L 817.2 366.0 L 819.1 366.0 L 821.0 366.0 L 822.8 366.0 L 824.6 267.4 L 826.4 366.0 L 828.3 366.0 L 830.1 366.0 L 831.9 366.0 L 834.0 366.0 L 835.8 333.3 L 837.6 366.0 L 839.5 366.0 L 841.3 365.9 L 843.1 365.9 L 845.0 366.0 L 846.9 248.3 L 848.8 366.0 L 850.6 366.0 L 852.4 366.0 L 854.3 366.0 L 856.1 366.0 L 858.0 366.0 L 859.9 366.0 L 861.7 366.0 L 863.5 366.0 L 865.4 366.0 L 867.2 366.0 L 869.0 366.0 L 870.9 356.1 L 872.8 366.0 L 874.6 366.0 L 876.4 366.0 L 878.3 366.0 L 880.1 366.0 L 881.9 366.0 L 883.7 366.0 L 885.7 365.9 L 887.6 365.9 L 889.4 366.0 L 891.2 366.0 L 893.1 366.0 L 894.9 366.0 L 896.7 366.0 L 898.5 266.9 L 900.4 366.0 L 902.2 366.0 L 904.0 366.0 L 905.9 366.0 L 907.7 366.0 L 909.5 366.0 L 911.4 366.0 L 913.2 248.8 L 915.0 366.0 L 916.9 366.0 L 918.8 366.0 L 920.6 366.0 L 922.4 366.0 L 924.2 366.0 L 926.1 366.0 L 927.9 339.9 L 929.8 366.0 L 931.7 365.9 L 933.6 365.9 L 935.5 366.0 L 937.3 366.0 L 939.1 235.0 L 941.1 366.0 L 943.0 366.0 L 944.9 366.0 L 946.7 366.0 L 948.5 252.6 L 950.4 366.0 L 952.2 366.0 L 954.0 366.0 L 955.9 366.0 L 957.7 366.0 L 959.6 358.4 L 961.4 366.0 L 963.2 366.0 L 965.1 366.0 L 966.9 366.0 L 968.8 366.0 L 970.6 366.0 L 972.5 366.0 L 974.3 366.0 L 976.1 365.9 L 977.9 365.9 L 980.0 366.0 L 981.8 366.0 L 983.6 366.0 L 985.5 366.0 L 987.3 366.0 L 989.2 366.0 L 991.0 366.0 L 992.8 301.9 L 994.7 366.0 L 996.5 366.0 L 998.3 366.0 L 1000.1 366.0 L 1002.0 366.0 L 1003.8 366.0 L 1005.7 366.0 L 1007.6 366.0 L 1009.4 366.0 L 1011.2 366.0 L 1013.1 366.0 L 1014.9 366.0 L 1016.7 354.0 L 1018.6 366.0 L 1020.6 366.0 L 1022.4 365.9 L 1024.3 365.9 L 1026.1 366.0 L 1027.9 366.0 L 1029.8 366.0 L 1031.7 366.0 L 1033.6 366.0 L 1035.4 366.0 L 1037.3 366.0 L 1039.1 366.0 L 1040.9 366.0 L 1042.8 366.0 L 1044.6 289.2 L 1046.5 366.0 L 1048.3 366.0 L 1050.2 366.0 L 1052.0 366.0 L 1053.9 366.0 L 1055.7 366.0 L 1057.6 366.0 L 1059.4 291.8 L 1061.2 366.0 L 1063.1 366.0 L 1064.9 366.0 L 1066.8 365.9 L 1068.6 365.9 L 1070.4 293.1 L 1072.2 365.9 L 1074.1 365.9 L 1076.0 365.9" fill="none" stroke="#4C78A8" stroke-width="2.8" stroke-linejoin="round" stroke-linecap="round"/>
<path d="M 86.0 366.0 L 87.8 366.0 L 89.6 366.0 L 91.4 366.0 L 93.3 366.0 L 95.1 366.0 L 96.9 366.0 L 98.7 366.0 L 100.6 366.0 L 102.4 131.8 L 104.3 129.4 L 106.2 89.6 L 108.3 365.9 L 110.1 365.9 L 112.0 251.8 L 113.8 365.9 L 115.7 365.9 L 117.5 365.9 L 119.3 365.9 L 121.2 365.9 L 123.1 365.6 L 127.1 365.9 L 129.0 365.9 L 130.9 365.9 L 132.7 365.9 L 134.5 365.9 L 136.3 365.9 L 138.2 365.9 L 140.0 365.9 L 142.0 365.9 L 143.8 365.9 L 145.6 365.9 L 147.4 365.9 L 149.3 365.9 L 151.1 365.9 L 153.0 365.9 L 154.8 365.9 L 156.8 365.9 L 158.6 365.9 L 160.4 365.9 L 162.3 365.9 L 164.1 365.9 L 166.0 365.9 L 168.0 365.9 L 169.8 365.9 L 171.7 365.9 L 173.5 365.9 L 175.3 365.9 L 177.2 365.9 L 179.0 365.9 L 180.9 365.9 L 182.7 365.9 L 184.5 365.9 L 186.3 365.9 L 188.2 365.9 L 190.0 365.9 L 191.9 365.9 L 193.8 365.9 L 195.6 365.9 L 197.5 365.9 L 199.3 365.9 L 201.1 365.9 L 203.0 365.9 L 204.8 365.9 L 206.7 365.9 L 208.6 365.9 L 210.4 365.9 L 212.2 365.9 L 214.1 365.9 L 215.9 365.9 L 217.8 365.9 L 219.6 365.9 L 221.4 365.9 L 223.3 365.9 L 225.1 365.9 L 226.9 365.9 L 228.8 365.9 L 230.6 365.9 L 232.5 365.9 L 234.3 365.9 L 236.1 365.9 L 238.0 365.9 L 239.8 365.9 L 241.6 365.9 L 243.5 365.9 L 245.3 365.9 L 247.1 365.9 L 248.9 365.9 L 250.8 365.9 L 252.7 365.9 L 254.5 365.9 L 256.4 365.9 L 258.2 365.9 L 260.0 365.9 L 261.9 365.9 L 264.0 365.9 L 265.8 365.9 L 267.6 365.9 L 269.5 366.0 L 271.3 365.9 L 273.2 365.9 L 275.0 365.9 L 276.8 365.9 L 278.7 365.9 L 280.5 365.9 L 282.3 365.9 L 284.4 365.9 L 286.3 365.9 L 288.1 365.9 L 290.0 365.9 L 291.8 365.9 L 293.6 365.9 L 295.5 365.9 L 297.3 365.9 L 299.1 365.9 L 300.9 365.9 L 303.0 365.9 L 304.8 365.9 L 306.6 365.9 L 308.5 365.9 L 310.3 365.9 L 312.2 365.9 L 314.0 365.9 L 315.8 365.9 L 317.6 365.9 L 319.5 365.9 L 321.3 365.9 L 323.2 365.9 L 325.0 365.9 L 326.8 365.9 L 328.7 365.9 L 330.6 365.9 L 332.4 365.9 L 334.2 365.9 L 336.0 365.9 L 337.9 365.9 L 339.7 365.9 L 341.7 365.9 L 343.5 365.9 L 345.4 365.9 L 347.2 365.9 L 349.0 365.9 L 350.9 365.9 L 352.7 365.9 L 354.6 365.9 L 356.5 365.9 L 358.4 365.9 L 360.2 365.9 L 362.0 365.9 L 363.8 365.9 L 365.7 365.9 L 367.7 365.9 L 369.5 365.9 L 371.4 365.9 L 373.2 365.9 L 375.0 365.9 L 376.8 365.9 L 378.7 365.9 L 380.6 365.9 L 382.5 365.9 L 384.3 365.9 L 386.1 366.0 L 387.9 159.1 L 389.7 365.9 L 391.6 365.9 L 393.5 365.9 L 395.4 365.9 L 397.2 365.9 L 399.0 365.9 L 400.9 365.9 L 402.7 365.9 L 404.5 365.9 L 406.4 365.9 L 408.2 365.9 L 410.1 365.9 L 411.9 365.9 L 413.8 365.9 L 415.6 365.9 L 417.4 365.9 L 419.4 365.9 L 421.2 365.9 L 423.0 365.9 L 424.9 365.9 L 426.7 365.9 L 428.5 365.9 L 430.4 365.9 L 432.3 365.9 L 434.1 365.9 L 435.9 365.9 L 437.8 365.9 L 439.6 365.9 L 441.4 365.9 L 443.3 365.9 L 445.1 365.9 L 446.9 365.9 L 448.8 365.9 L 450.6 365.9 L 452.4 365.9 L 454.3 365.9 L 456.1 365.9 L 458.0 365.9 L 459.8 365.9 L 461.8 365.9 L 463.7 365.9 L 465.5 365.9 L 467.3 365.9 L 469.2 365.9 L 471.0 365.9 L 472.8 365.9 L 474.9 365.9 L 476.7 365.9 L 478.6 365.9 L 480.4 365.9 L 482.3 365.9 L 484.2 365.9 L 486.0 365.9 L 487.8 365.9 L 489.7 365.9 L 491.5 365.9 L 493.3 365.9 L 495.2 365.9 L 497.1 365.9 L 499.0 365.9 L 500.8 365.9 L 502.6 365.9 L 504.5 365.9 L 506.3 365.9 L 508.1 365.9 L 510.1 366.0 L 511.9 238.8 L 513.9 365.9 L 515.8 365.9 L 517.6 365.9 L 519.5 365.9 L 521.3 365.9 L 523.2 365.9 L 525.0 365.9 L 526.8 365.9 L 528.6 365.9 L 530.5 365.9 L 532.3 365.9 L 534.1 365.9 L 536.0 365.9 L 537.8 365.9 L 539.7 365.9 L 541.5 365.9 L 543.3 365.9 L 545.2 365.9 L 547.0 365.9 L 549.1 365.9 L 550.9 365.9 L 552.7 365.9 L 554.6 365.9 L 556.4 365.9 L 558.3 365.9 L 560.1 365.9 L 562.0 365.9 L 563.8 365.9 L 565.7 365.9 L 567.5 365.9 L 569.3 365.9 L 571.1 365.9 L 573.0 365.9 L 574.9 365.9 L 576.7 365.9 L 578.5 365.9 L 580.4 365.9 L 582.2 365.9 L 584.0 365.9 L 585.9 365.9 L 587.8 365.9 L 589.6 365.9 L 591.5 365.9 L 593.3 365.9 L 595.1 365.9 L 597.0 365.9 L 598.8 365.9 L 600.8 365.9 L 602.6 365.9 L 604.4 365.9 L 606.2 365.9 L 608.1 365.9 L 609.9 365.9 L 611.7 365.9 L 613.7 365.9 L 615.5 365.9 L 617.3 365.9 L 619.2 365.9 L 621.0 365.9 L 622.9 365.9 L 624.7 365.9 L 626.7 365.9 L 628.5 365.9 L 630.3 365.9 L 632.1 365.9 L 634.0 365.9 L 635.8 302.3 L 637.6 366.0 L 639.7 366.0 L 641.5 365.9 L 643.3 365.9 L 645.2 365.9 L 647.0 365.9 L 648.8 365.9 L 650.7 365.9 L 652.7 365.9 L 654.6 365.9 L 656.4 365.9 L 658.3 365.9 L 660.1 365.9 L 661.9 365.9 L 663.7 365.9 L 665.6 365.9 L 667.5 365.9 L 669.3 365.9 L 671.1 365.9 L 672.9 365.9 L 674.8 365.9 L 676.6 365.9 L 678.5 365.9 L 680.4 365.9 L 682.2 365.9 L 684.0 365.9 L 685.9 365.9 L 687.7 365.9 L 689.5 365.9 L 691.4 365.9 L 693.2 365.9 L 695.1 365.9 L 696.9 365.9 L 698.7 365.9 L 700.6 365.9 L 702.4 365.9 L 704.4 365.9 L 706.2 365.9 L 708.0 365.9 L 709.9 365.9 L 711.7 365.9 L 713.5 365.9 L 715.3 365.9 L 717.2 365.9 L 719.1 365.9 L 721.0 365.9 L 722.8 365.9 L 724.6 365.9 L 726.5 365.9 L 728.3 365.9 L 730.3 365.9 L 732.1 365.9 L 734.0 365.9 L 735.8 365.9 L 737.6 365.9 L 739.4 365.9 L 741.3 365.9 L 743.4 365.9 L 745.2 365.9 L 747.0 365.9 L 748.8 365.9 L 750.7 365.8 L 752.5 365.9 L 754.3 365.9 L 756.2 365.9 L 758.1 365.9 L 759.9 365.9 L 761.7 365.9 L 763.6 365.9 L 765.4 365.9 L 767.2 365.9 L 769.2 365.9 L 771.0 365.9 L 772.9 365.9 L 774.7 365.9 L 776.5 365.9 L 778.3 365.9 L 780.2 365.9 L 782.1 302.3 L 784.0 365.9 L 785.8 365.9 L 787.6 365.9 L 789.4 365.9 L 791.2 365.9 L 793.1 365.9 L 795.1 365.9 L 796.9 365.9 L 798.8 365.9 L 800.6 365.9 L 802.4 365.9 L 804.2 365.9 L 806.1 365.9 L 808.1 365.9 L 809.9 365.9 L 811.7 365.9 L 813.6 365.9 L 815.4 365.9 L 817.2 365.9 L 819.1 365.9 L 821.0 365.9 L 822.8 365.9 L 824.6 365.9 L 826.4 365.9 L 828.3 365.9 L 830.1 365.9 L 831.9 365.9 L 834.0 365.9 L 835.8 365.9 L 837.6 365.9 L 839.5 365.9 L 841.3 365.9 L 843.1 365.9 L 845.0 365.9 L 846.9 365.9 L 848.8 365.9 L 850.6 365.9 L 852.4 365.9 L 854.3 365.9 L 856.1 365.9 L 858.0 365.9 L 859.9 365.9 L 861.7 365.9 L 863.5 365.9 L 865.4 365.9 L 867.2 365.9 L 869.0 365.9 L 870.9 365.9 L 872.8 365.9 L 874.6 365.9 L 876.4 365.9 L 878.3 365.9 L 880.1 365.9 L 881.9 365.9 L 883.7 365.9 L 885.7 365.9 L 887.6 365.9 L 889.4 365.9 L 891.2 365.9 L 893.1 365.9 L 894.9 365.9 L 896.7 365.9 L 898.5 365.9 L 900.4 365.9 L 902.2 365.9 L 904.0 365.9 L 905.9 365.9 L 907.7 365.9 L 909.5 365.9 L 911.4 365.9 L 913.2 365.9 L 915.0 365.9 L 916.9 365.9 L 918.8 365.9 L 920.6 365.9 L 922.4 365.9 L 924.2 365.9 L 926.1 365.9 L 927.9 366.0 L 929.8 302.3 L 931.7 365.9 L 933.6 365.9 L 935.5 365.9 L 937.3 365.9 L 939.1 365.9 L 941.1 365.9 L 943.0 365.9 L 944.9 365.9 L 946.7 365.9 L 948.5 365.9 L 950.4 365.9 L 952.2 365.9 L 954.0 365.9 L 955.9 365.9 L 957.7 365.9 L 959.6 365.9 L 961.4 365.9 L 963.2 365.9 L 965.1 365.9 L 966.9 365.9 L 968.8 365.9 L 970.6 365.9 L 972.5 365.9 L 974.3 365.9 L 976.1 365.9 L 977.9 365.9 L 980.0 365.9 L 981.8 365.9 L 983.6 365.9 L 985.5 365.9 L 987.3 365.9 L 989.2 365.9 L 991.0 365.9 L 992.8 365.9 L 994.7 365.9 L 996.5 365.9 L 998.3 365.9 L 1000.1 365.9 L 1002.0 365.9 L 1003.8 365.9 L 1005.7 365.9 L 1007.6 365.9 L 1009.4 365.9 L 1011.2 365.9 L 1013.1 365.9 L 1014.9 365.9 L 1016.7 365.9 L 1018.6 365.9 L 1020.6 365.9 L 1022.4 365.9 L 1024.3 365.9 L 1026.1 365.9 L 1027.9 365.9 L 1029.8 365.9 L 1031.7 365.9 L 1033.6 365.9 L 1035.4 365.9 L 1037.3 365.9 L 1039.1 365.9 L 1040.9 365.9 L 1042.8 365.9 L 1044.6 365.9 L 1046.5 365.9 L 1048.3 365.9 L 1050.2 365.9 L 1052.0 365.9 L 1053.9 365.9 L 1055.7 365.9 L 1057.6 365.9 L 1059.4 365.9 L 1061.2 365.9 L 1063.1 365.9 L 1064.9 365.9 L 1066.8 365.9 L 1068.6 365.9 L 1070.4 365.6 L 1072.2 365.8 L 1074.1 365.8 L 1076.0 365.8" fill="none" stroke="#F58518" stroke-width="2.8" stroke-linejoin="round" stroke-linecap="round"/>
<line x1="92.0" y1="62.0" x2="92.0" y2="366.0" stroke="#666" stroke-dasharray="4 4" stroke-width="1.2"/>
<text x="92.0" y="402.0" text-anchor="middle" font-size="12" fill="#444" font-family="Helvetica, Arial, sans-serif">submit</text>
<line x1="1074.3" y1="62.0" x2="1074.3" y2="366.0" stroke="#888" stroke-dasharray="4 4" stroke-width="1.2"/>
<text x="1074.3" y="402.0" text-anchor="middle" font-size="12" fill="#444" font-family="Helvetica, Arial, sans-serif">finish</text>
<line x1="86.0" y1="62.0" x2="86.0" y2="366.0" stroke="#f5f5f5" stroke-width="1"/>
<text x="86.0" y="418.0" text-anchor="middle" font-size="11" fill="#444" font-family="Helvetica, Arial, sans-serif">-0.14</text>
<line x1="209.8" y1="62.0" x2="209.8" y2="366.0" stroke="#f5f5f5" stroke-width="1"/>
<text x="209.8" y="418.0" text-anchor="middle" font-size="11" fill="#444" font-family="Helvetica, Arial, sans-serif">2.73</text>
<line x1="333.5" y1="62.0" x2="333.5" y2="366.0" stroke="#f5f5f5" stroke-width="1"/>
<text x="333.5" y="418.0" text-anchor="middle" font-size="11" fill="#444" font-family="Helvetica, Arial, sans-serif">5.59</text>
<line x1="457.2" y1="62.0" x2="457.2" y2="366.0" stroke="#f5f5f5" stroke-width="1"/>
<text x="457.2" y="418.0" text-anchor="middle" font-size="11" fill="#444" font-family="Helvetica, Arial, sans-serif">8.46</text>
<line x1="581.0" y1="62.0" x2="581.0" y2="366.0" stroke="#f5f5f5" stroke-width="1"/>
<text x="581.0" y="418.0" text-anchor="middle" font-size="11" fill="#444" font-family="Helvetica, Arial, sans-serif">11.33</text>
<line x1="704.8" y1="62.0" x2="704.8" y2="366.0" stroke="#f5f5f5" stroke-width="1"/>
<text x="704.8" y="418.0" text-anchor="middle" font-size="11" fill="#444" font-family="Helvetica, Arial, sans-serif">14.19</text>
<line x1="828.5" y1="62.0" x2="828.5" y2="366.0" stroke="#f5f5f5" stroke-width="1"/>
<text x="828.5" y="418.0" text-anchor="middle" font-size="11" fill="#444" font-family="Helvetica, Arial, sans-serif">17.06</text>
<line x1="952.2" y1="62.0" x2="952.2" y2="366.0" stroke="#f5f5f5" stroke-width="1"/>
<text x="952.2" y="418.0" text-anchor="middle" font-size="11" fill="#444" font-family="Helvetica, Arial, sans-serif">19.92</text>
<line x1="1076.0" y1="62.0" x2="1076.0" y2="366.0" stroke="#f5f5f5" stroke-width="1"/>
<text x="1076.0" y="418.0" text-anchor="middle" font-size="11" fill="#444" font-family="Helvetica, Arial, sans-serif">22.79</text>
<text x="581.0" y="386.0" text-anchor="middle" font-size="15" fill="#222" font-family="Helvetica, Arial, sans-serif">time since request submit (s)</text>
</svg>