<svg xmlns="http://www.w3.org/2000/svg" width="1100" height="420" viewBox="0 0 1100 420">
<rect width="1100" height="420" fill="white"/>
<text x="86" y="26" font-size="22" font-weight="700" font-family="Helvetica, Arial, sans-serif">tb_session_05_turn_001_reuse  phase=reuse  turn=1  prompt=24832  peak_tx=15.45 GiB/s  peak_rx=32.61 GiB/s</text>
<text x="86" y="46" font-size="13" fill="#444" font-family="Helvetica, Arial, sans-serif">response_window=20.608s, response_tx=20.218 GiB, response_rx=7.503 GiB, metrics_tx=21.757 GiB, metrics_rx=7.527 GiB</text>
<line x1="86" y1="366.0" x2="1076" y2="366.0" stroke="#ececec" stroke-width="1"/>
<text x="76" y="370.0" text-anchor="end" font-size="12" fill="#444" font-family="Helvetica, Arial, sans-serif">0.0</text>
<line x1="86" y1="305.2" x2="1076" y2="305.2" stroke="#ececec" stroke-width="1"/>
<text x="76" y="309.2" text-anchor="end" font-size="12" fill="#444" font-family="Helvetica, Arial, sans-serif">7.2</text>
<line x1="86" y1="244.4" x2="1076" y2="244.4" stroke="#ececec" stroke-width="1"/>
<text x="76" y="248.4" text-anchor="end" font-size="12" fill="#444" font-family="Helvetica, Arial, sans-serif">14.3</text>
<line x1="86" y1="183.6" x2="1076" y2="183.6" stroke="#ececec" stroke-width="1"/>
<text x="76" y="187.6" text-anchor="end" font-size="12" fill="#444" font-family="Helvetica, Arial, sans-serif">21.5</text>
<line x1="86" y1="122.8" x2="1076" y2="122.8" stroke="#ececec" stroke-width="1"/>
<text x="76" y="126.8" text-anchor="end" font-size="12" fill="#444" font-family="Helvetica, Arial, sans-serif">28.7</text>
<line x1="86" y1="62.0" x2="1076" y2="62.0" stroke="#ececec" stroke-width="1"/>
<text x="76" y="66.0" text-anchor="end" font-size="12" fill="#444" font-family="Helvetica, Arial, sans-serif">35.9</text>
<line x1="86" y1="366.0" x2="1076" y2="366.0" stroke="#222" stroke-width="1.4"/>
<line x1="86" y1="62.0" x2="86" y2="366.0" stroke="#222" stroke-width="1.4"/>
<rect x="92.5" y="62.0" width="981.3" height="304.0" fill="#F58518" opacity="0.08"/>
<path d="M 86.0 366.0 L 88.0 366.0 L 90.0 366.0 L 92.0 366.0 L 94.0 366.0 L 96.0 366.0 L 98.0 366.0 L 100.0 366.0 L 102.0 366.0 L 104.0 364.6 L 106.2 338.9 L 108.3 339.2 L 110.6 343.6 L 112.6 366.0 L 114.7 361.8 L 116.7 366.0 L 118.8 366.0 L 120.8 365.9 L 122.8 365.9 L 124.9 251.4 L 126.9 366.0 L 131.4 366.0 L 133.4 366.0 L 135.5 237.2 L 137.5 366.0 L 139.5 366.0 L 141.5 366.0 L 143.6 366.0 L 145.6 364.5 L 147.7 366.0 L 149.8 366.0 L 151.8 366.0 L 153.8 366.0 L 155.8 366.0 L 157.8 269.4 L 159.9 366.0 L 161.9 366.0 L 164.0 366.0 L 166.0 366.0 L 168.1 366.0 L 170.1 298.8 L 172.1 365.9 L 174.2 365.9 L 176.4 366.0 L 178.5 366.0 L 180.5 366.0 L 182.5 366.0 L 184.5 366.0 L 186.6 366.0 L 188.6 366.0 L 190.6 366.0 L 192.7 366.0 L 194.7 366.0 L 196.7 366.0 L 198.7 366.0 L 200.7 366.0 L 202.8 366.0 L 204.9 366.0 L 206.9 366.0 L 209.0 366.0 L 211.0 366.0 L 213.0 366.0 L 215.0 366.0 L 217.0 366.0 L 219.1 366.0 L 221.2 365.9 L 223.2 366.0 L 225.2 366.0 L 227.3 236.1 L 229.3 366.0 L 231.3 366.0 L 233.3 366.0 L 235.4 366.0 L 237.4 366.0 L 239.4 366.0 L 241.4 366.0 L 243.5 313.1 L 245.5 366.0 L 247.5 366.0 L 249.6 366.0 L 251.6 366.0 L 253.6 366.0 L 255.6 366.0 L 257.6 366.0 L 259.7 349.0 L 261.7 366.0 L 263.7 366.0 L 265.7 366.0 L 267.8 324.1 L 269.8 365.9 L 271.9 365.9 L 273.9 365.9 L 275.9 366.0 L 278.0 342.2 L 280.0 365.9 L 282.3 366.0 L 284.3 366.0 L 286.3 366.0 L 288.3 366.0 L 290.3 366.0 L 292.4 366.0 L 294.4 366.0 L 296.5 366.0 L 298.5 366.0 L 300.5 336.1 L 302.5 366.0 L 304.8 366.0 L 306.9 366.0 L 308.9 366.0 L 311.0 366.0 L 313.0 329.1 L 315.0 366.0 L 317.0 366.0 L 319.0 365.9 L 321.0 365.9 L 323.0 365.9 L 325.3 366.0 L 327.3 366.0 L 329.3 366.0 L 331.4 366.0 L 333.4 366.0 L 335.4 366.0 L 337.4 366.0 L 339.5 277.1 L 341.5 366.0 L 343.5 366.0 L 345.5 366.0 L 347.6 366.0 L 349.6 366.0 L 351.6 366.0 L 353.7 235.0 L 355.7 366.0 L 357.8 366.0 L 359.8 366.0 L 361.8 366.0 L 363.8 366.0 L 365.8 366.0 L 368.0 294.5 L 370.0 365.9 L 372.0 365.9 L 374.1 366.0 L 376.1 366.0 L 378.1 366.0 L 380.1 366.0 L 382.2 366.0 L 384.3 303.7 L 386.4 366.0 L 388.4 366.0 L 390.4 366.0 L 392.4 366.0 L 394.4 366.0 L 396.7 366.0 L 398.7 366.0 L 400.7 366.0 L 402.8 366.0 L 404.8 366.0 L 406.8 366.0 L 408.8 366.0 L 410.9 366.0 L 413.0 366.0 L 415.0 366.0 L 417.0 314.0 L 419.0 366.0 L 421.0 365.3 L 423.1 365.9 L 425.2 366.0 L 427.2 366.0 L 429.2 366.0 L 431.2 323.6 L 433.3 366.0 L 435.3 366.0 L 437.3 366.0 L 439.4 366.0 L 441.4 323.6 L 443.4 366.0 L 445.4 366.0 L 447.5 366.0 L 449.5 366.0 L 451.5 366.0 L 453.7 265.7 L 455.7 366.0 L 457.7 366.0 L 459.7 366.0 L 461.8 366.0 L 463.8 366.0 L 465.8 266.7 L 467.9 366.0 L 469.9 365.9 L 472.0 365.9 L 474.0 366.0 L 476.0 366.0 L 478.0 366.0 L 480.0 366.0 L 482.0 366.0 L 484.0 366.0 L 486.1 366.0 L 488.1 366.0 L 490.1 366.0 L 492.2 311.0 L 494.2 366.0 L 496.2 366.0 L 498.2 366.0 L 500.5 366.0 L 502.5 366.0 L 504.5 366.0 L 506.6 281.4 L 508.6 366.0 L 510.6 366.0 L 512.6 366.0 L 514.9 366.0 L 517.0 366.0 L 519.0 365.9 L 521.0 365.9 L 523.0 365.9 L 525.2 366.0 L 527.2 366.0 L 529.2 366.0 L 531.2 366.0 L 533.2 366.0 L 535.2 366.0 L 537.3 244.5 L 539.4 366.0 L 541.5 366.0 L 543.5 366.0 L 545.5 366.0 L 547.5 366.0 L 549.6 366.0 L 551.6 366.0 L 553.7 239.7 L 555.8 366.0 L 558.0 359.8 L 560.0 366.0 L 562.0 366.0 L 564.0 366.0 L 566.1 366.0 L 568.1 366.0 L 570.1 362.4 L 572.1 366.0 L 574.2 366.0 L 576.2 366.0 L 578.2 366.0 L 580.2 235.0 L 582.3 366.0 L 584.3 366.0 L 586.4 366.0 L 588.4 366.0 L 590.4 366.0 L 592.4 289.3 L 594.4 366.0 L 596.7 366.0 L 598.8 366.0 L 600.8 366.0 L 602.8 366.0 L 604.8 295.5 L 606.9 366.0 L 608.9 366.0 L 611.0 366.0 L 613.0 366.0 L 615.0 366.0 L 617.0 278.8 L 619.0 365.9 L 621.0 365.9 L 623.1 365.9 L 625.2 366.0 L 627.2 366.0 L 629.2 366.0 L 631.2 235.0 L 633.2 366.0 L 635.2 366.0 L 637.3 366.0 L 639.4 366.0 L 641.4 366.0 L 643.5 366.0 L 645.5 274.7 L 647.5 366.0 L 649.5 366.0 L 651.6 366.0 L 653.7 366.0 L 655.7 366.0 L 657.7 366.0 L 659.8 235.0 L 661.8 366.0 L 663.8 366.0 L 665.8 366.0 L 668.0 366.0 L 670.0 365.9 L 672.0 365.9 L 674.0 366.0 L 676.1 366.0 L 678.1 366.0 L 680.1 366.0 L 682.3 366.0 L 684.3 366.0 L 686.3 366.0 L 688.3 366.0 L 690.3 366.0 L 692.4 366.0 L 694.4 366.0 L 696.7 366.0 L 698.7 366.0 L 700.7 366.0 L 702.7 366.0 L 704.7 366.0 L 706.7 366.0 L 708.8 326.7 L 711.0 366.0 L 713.1 366.0 L 715.1 366.0 L 717.1 366.0 L 719.1 365.9 L 721.1 365.9 L 723.2 366.0 L 725.2 366.0 L 727.3 366.0 L 729.3 285.4 L 731.3 366.0 L 733.3 366.0 L 735.3 366.0 L 737.4 366.0 L 739.5 350.1 L 741.5 366.0 L 743.5 366.0 L 745.5 366.0 L 747.6 366.0 L 749.6 366.0 L 751.6 324.2 L 753.7 366.0 L 755.7 366.0 L 757.8 366.0 L 759.8 366.0 L 761.8 366.0 L 763.8 366.0 L 765.8 366.0 L 768.0 366.0 L 770.0 365.9 L 772.0 365.9 L 774.0 366.0 L 776.0 366.0 L 778.1 244.7 L 780.1 366.0 L 782.2 366.0 L 784.2 366.0 L 786.3 366.0 L 788.3 366.0 L 790.3 366.0 L 792.4 366.0 L 794.4 366.0 L 796.6 366.0 L 798.6 366.0 L 800.6 366.0 L 802.6 366.0 L 804.7 366.0 L 806.7 366.0 L 808.7 366.0 L 811.0 366.0 L 813.0 366.0 L 815.0 366.0 L 817.0 366.0 L 819.0 365.9 L 821.0 277.2 L 823.1 366.0 L 825.2 366.0 L 827.2 366.0 L 829.2 366.0 L 831.2 366.0 L 833.3 366.0 L 835.3 366.0 L 837.3 366.0 L 839.5 366.0 L 841.5 366.0 L 843.5 366.0 L 845.5 366.0 L 847.5 366.0 L 849.5 366.0 L 851.6 366.0 L 853.7 366.0 L 855.8 366.0 L 857.8 366.0 L 859.8 366.0 L 861.8 366.0 L 863.8 366.0 L 865.9 366.0 L 868.0 325.3 L 870.1 365.9 L 872.1 365.9 L 874.1 366.0 L 876.1 366.0 L 878.1 294.5 L 880.2 366.0 L 882.4 366.0 L 884.4 366.0 L 886.4 366.0 L 888.4 266.5 L 890.4 366.0 L 892.4 366.0 L 894.5 366.0 L 896.6 366.0 L 898.6 366.0 L 900.6 267.4 L 902.6 366.0 L 904.7 366.0 L 906.7 366.0 L 908.7 366.0 L 911.0 366.0 L 913.0 333.3 L 915.0 366.0 L 917.0 366.0 L 919.0 365.9 L 921.0 365.9 L 923.0 366.0 L 925.2 248.3 L 927.2 366.0 L 929.3 366.0 L 931.3 366.0 L 933.3 366.0 L 935.3 366.0 L 937.4 366.0 L 939.5 366.0 L 941.5 366.0 L 943.5 366.0 L 945.6 366.0 L 947.6 366.0 L 949.6 366.0 L 951.6 356.1 L 953.7 366.0 L 955.8 366.0 L 957.8 366.0 L 959.8 366.0 L 961.8 366.0 L 963.8 366.0 L 965.8 366.0 L 968.0 365.9 L 970.0 365.9 L 972.0 366.0 L 974.0 366.0 L 976.1 366.0 L 978.1 366.0 L 980.1 366.0 L 982.1 266.9 L 984.1 366.0 L 986.2 366.0 L 988.2 366.0 L 990.2 366.0 L 992.2 366.0 L 994.2 366.0 L 996.3 366.0 L 998.3 248.8 L 1000.3 366.0 L 1002.4 366.0 L 1004.4 366.0 L 1006.5 366.0 L 1008.5 366.0 L 1010.5 366.0 L 1012.5 366.0 L 1014.6 339.9 L 1016.6 366.0 L 1018.7 365.9 L 1020.8 365.9 L 1022.9 366.0 L 1024.9 366.0 L 1026.9 235.0 L 1029.1 366.0 L 1031.2 366.0 L 1033.2 366.0 L 1035.2 366.0 L 1037.2 252.6 L 1039.3 366.0 L 1041.3 366.0 L 1043.3 366.0 L 1045.4 366.0 L 1047.4 366.0 L 1049.4 358.4 L 1051.5 366.0 L 1053.5 366.0 L 1055.5 366.0 L 1057.6 366.0 L 1059.6 366.0 L 1061.7 366.0 L 1063.7 366.0 L 1065.7 366.0 L 1067.7 365.9 L 1069.7 365.9 L 1072.0 366.0 L 1074.0 366.0 L 1076.0 366.0" fill="none" stroke="#4C78A8" stroke-width="2.8" stroke-linejoin="round" stroke-linecap="round"/>
<path d="M 86.0 366.0 L 88.0 366.0 L 90.0 366.0 L 92.0 366.0 L 94.0 366.0 L 96.0 366.0 L 98.0 366.0 L 100.0 366.0 L 102.0 366.0 L 104.0 131.8 L 106.2 129.4 L 108.3 89.6 L 110.6 365.9 L 112.6 365.9 L 114.7 251.8 L 116.7 365.9 L 118.8 365.9 L 120.8 365.9 L 122.8 365.9 L 124.9 365.9 L 126.9 365.6 L 131.4 365.9 L 133.4 365.9 L 135.5 365.9 L 137.5 365.9 L 139.5 365.9 L 141.5 365.9 L 143.6 365.9 L 145.6 365.9 L 147.7 365.9 L 149.8 365.9 L 151.8 365.9 L 153.8 365.9 L 155.8 365.9 L 157.8 365.9 L 159.9 365.9 L 161.9 365.9 L 164.0 365.9 L 166.0 365.9 L 168.1 365.9 L 170.1 365.9 L 172.1 365.9 L 174.2 365.9 L 176.4 365.9 L 178.5 365.9 L 180.5 365.9 L 182.5 365.9 L 184.5 365.9 L 186.6 365.9 L 188.6 365.9 L 190.6 365.9 L 192.7 365.9 L 194.7 365.9 L 196.7 365.9 L 198.7 365.9 L 200.7 365.9 L 202.8 365.9 L 204.9 365.9 L 206.9 365.9 L 209.0 365.9 L 211.0 365.9 L 213.0 365.9 L 215.0 365.9 L 217.0 365.9 L 219.1 365.9 L 221.2 365.9 L 223.2 365.9 L 225.2 365.9 L 227.3 365.9 L 229.3 365.9 L 231.3 365.9 L 233.3 365.9 L 235.4 365.9 L 237.4 365.9 L 239.4 365.9 L 241.4 365.9 L 243.5 365.9 L 245.5 365.9 L 247.5 365.9 L 249.6 365.9 L 251.6 365.9 L 253.6 365.9 L 255.6 365.9 L 257.6 365.9 L 259.7 365.9 L 261.7 365.9 L 263.7 365.9 L 265.7 365.9 L 267.8 365.9 L 269.8 365.9 L 271.9 365.9 L 273.9 365.9 L 275.9 365.9 L 278.0 365.9 L 280.0 365.9 L 282.3 365.9 L 284.3 365.9 L 286.3 365.9 L 288.3 366.0 L 290.3 365.9 L 292.4 365.9 L 294.4 365.9 L 296.5 365.9 L 298.5 365.9 L 300.5 365.9 L 302.5 365.9 L 304.8 365.9 L 306.9 365.9 L 308.9 365.9 L 311.0 365.9 L 313.0 365.9 L 315.0 365.9 L 317.0 365.9 L 319.0 365.9 L 321.0 365.9 L 323.0 365.9 L 325.3 365.9 L 327.3 365.9 L 329.3 365.9 L 331.4 365.9 L 333.4 365.9 L 335.4 365.9 L 337.4 365.9 L 339.5 365.9 L 341.5 365.9 L 343.5 365.9 L 345.5 365.9 L 347.6 365.9 L 349.6 365.9 L 351.6 365.9 L 353.7 365.9 L 355.7 365.9 L 357.8 365.9 L 359.8 365.9 L 361.8 365.9 L 363.8 365.9 L 365.8 365.9 L 368.0 365.9 L 370.0 365.9 L 372.0 365.9 L 374.1 365.9 L 376.1 365.9 L 378.1 365.9 L 380.1 365.9 L 382.2 365.9 L 384.3 365.9 L 386.4 365.9 L 388.4 365.9 L 390.4 365.9 L 392.4 365.9 L 394.4 365.9 L 396.7 365.9 L 398.7 365.9 L 400.7 365.9 L 402.8 365.9 L 404.8 365.9 L 406.8 365.9 L 408.8 365.9 L 410.9 365.9 L 413.0 365.9 L 415.0 365.9 L 417.0 366.0 L 419.0 159.1 L 421.0 365.9 L 423.1 365.9 L 425.2 365.9 L 427.2 365.9 L 429.2 365.9 L 431.2 365.9 L 433.3 365.9 L 435.3 365.9 L 437.3 365.9 L 439.4 365.9 L 441.4 365.9 L 443.4 365.9 L 445.4 365.9 L 447.5 365.9 L 449.5 365.9 L 451.5 365.9 L 453.7 365.9 L 455.7 365.9 L 457.7 365.9 L 459.7 365.9 L 461.8 365.9 L 463.8 365.9 L 465.8 365.9 L 467.9 365.9 L 469.9 365.9 L 472.0 365.9 L 474.0 365.9 L 476.0 365.9 L 478.0 365.9 L 480.0 365.9 L 482.0 365.9 L 484.0 365.9 L 486.1 365.9 L 488.1 365.9 L 490.1 365.9 L 492.2 365.9 L 494.2 365.9 L 496.2 365.9 L 498.2 365.9 L 500.5 365.9 L 502.5 365.9 L 504.5 365.9 L 506.6 365.9 L 508.6 365.9 L 510.6 365.9 L 512.6 365.9 L 514.9 365.9 L 517.0 365.9 L 519.0 365.9 L 521.0 365.9 L 523.0 365.9 L 525.2 365.9 L 527.2 365.9 L 529.2 365.9 L 531.2 365.9 L 533.2 365.9 L 535.2 365.9 L 537.3 365.9 L 539.4 365.9 L 541.5 365.9 L 543.5 365.9 L 545.5 365.9 L 547.5 365.9 L 549.6 365.9 L 551.6 365.9 L 553.7 366.0 L 555.8 238.8 L 558.0 365.9 L 560.0 365.9 L 562.0 365.9 L 564.0 365.9 L 566.1 365.9 L 568.1 365.9 L 570.1 365.9 L 572.1 365.9 L 574.2 365.9 L 576.2 365.9 L 578.2 365.9 L 580.2 365.9 L 582.3 365.9 L 584.3 365.9 L 586.4 365.9 L 588.4 365.9 L 590.4 365.9 L 592.4 365.9 L 594.4 365.9 L 596.7 365.9 L 598.8 365.9 L 600.8 365.9 L 602.8 365.9 L 604.8 365.9 L 606.9 365.9 L 608.9 365.9 L 611.0 365.9 L 613.0 365.9 L 615.0 365.9 L 617.0 365.9 L 619.0 365.9 L 621.0 365.9 L 623.1 365.9 L 625.2 365.9 L 627.2 365.9 L 629.2 365.9 L 631.2 365.9 L 633.2 365.9 L 635.2 365.9 L 637.3 365.9 L 639.4 365.9 L 641.4 365.9 L 643.5 365.9 L 645.5 365.9 L 647.5 365.9 L 649.5 365.9 L 651.6 365.9 L 653.7 365.9 L 655.7 365.9 L 657.7 365.9 L 659.8 365.9 L 661.8 365.9 L 663.8 365.9 L 665.8 365.9 L 668.0 365.9 L 670.0 365.9 L 672.0 365.9 L 674.0 365.9 L 676.1 365.9 L 678.1 365.9 L 680.1 365.9 L 682.3 365.9 L 684.3 365.9 L 686.3 365.9 L 688.3 365.9 L 690.3 365.9 L 692.4 302.3 L 694.4 366.0 L 696.7 366.0 L 698.7 365.9 L 700.7 365.9 L 702.7 365.9 L 704.7 365.9 L 706.7 365.9 L 708.8 365.9 L 711.0 365.9 L 713.1 365.9 L 715.1 365.9 L 717.1 365.9 L 719.1 365.9 L 721.1 365.9 L 723.2 365.9 L 725.2 365.9 L 727.3 365.9 L 729.3 365.9 L 731.3 365.9 L 733.3 365.9 L 735.3 365.9 L 737.4 365.9 L 739.5 365.9 L 741.5 365.9 L 743.5 365.9 L 745.5 365.9 L 747.6 365.9 L 749.6 365.9 L 751.6 365.9 L 753.7 365.9 L 755.7 365.9 L 757.8 365.9 L 759.8 365.9 L 761.8 365.9 L 763.8 365.9 L 765.8 365.9 L 768.0 365.9 L 770.0 365.9 L 772.0 365.9 L 774.0 365.9 L 776.0 365.9 L 778.1 365.9 L 780.1 365.9 L 782.2 365.9 L 784.2 365.9 L 786.3 365.9 L 788.3 365.9 L 790.3 365.9 L 792.4 365.9 L 794.4 365.9 L 796.6 365.9 L 798.6 365.9 L 800.6 365.9 L 802.6 365.9 L 804.7 365.9 L 806.7 365.9 L 808.7 365.9 L 811.0 365.9 L 813.0 365.9 L 815.0 365.9 L 817.0 365.9 L 819.0 365.8 L 821.0 365.9 L 823.1 365.9 L 825.2 365.9 L 827.2 365.9 L 829.2 365.9 L 831.2 365.9 L 833.3 365.9 L 835.3 365.9 L 837.3 365.9 L 839.5 365.9 L 841.5 365.9 L 843.5 365.9 L 845.5 365.9 L 847.5 365.9 L 849.5 365.9 L 851.6 365.9 L 853.7 302.3 L 855.8 365.9 L 857.8 365.9 L 859.8 365.9 L 861.8 365.9 L 863.8 365.9 L 865.9 365.9 L 868.0 365.9 L 870.1 365.9 L 872.1 365.9 L 874.1 365.9 L 876.1 365.9 L 878.1 365.9 L 880.2 365.9 L 882.4 365.9 L 884.4 365.9 L 886.4 365.9 L 888.4 365.9 L 890.4 365.9 L 892.4 365.9 L 894.5 365.9 L 896.6 365.9 L 898.6 365.9 L 900.6 365.9 L 902.6 365.9 L 904.7 365.9 L 906.7 365.9 L 908.7 365.9 L 911.0 365.9 L 913.0 365.9 L 915.0 365.9 L 917.0 365.9 L 919.0 365.9 L 921.0 365.9 L 923.0 365.9 L 925.2 365.9 L 927.2 365.9 L 929.3 365.9 L 931.3 365.9 L 933.3 365.9 L 935.3 365.9 L 937.4 365.9 L 939.5 365.9 L 941.5 365.9 L 943.5 365.9 L 945.6 365.9 L 947.6 365.9 L 949.6 365.9 L 951.6 365.9 L 953.7 365.9 L 955.8 365.9 L 957.8 365.9 L 959.8 365.9 L 961.8 365.9 L 963.8 365.9 L 965.8 365.9 L 968.0 365.9 L 970.0 365.9 L 972.0 365.9 L 974.0 365.9 L 976.1 365.9 L 978.1 365.9 L 980.1 365.9 L 982.1 365.9 L 984.1 365.9 L 986.2 365.9 L 988.2 365.9 L 990.2 365.9 L 992.2 365.9 L 994.2 365.9 L 996.3 365.9 L 998.3 365.9 L 1000.3 365.9 L 1002.4 365.9 L 1004.4 365.9 L 1006.5 365.9 L 1008.5 365.9 L 1010.5 365.9 L 1012.5 365.9 L 1014.6 366.0 L 1016.6 302.3 L 1018.7 365.9 L 1020.8 365.9 L 1022.9 365.9 L 1024.9 365.9 L 1026.9 365.9 L 1029.1 365.9 L 1031.2 365.9 L 1033.2 365.9 L 1035.2 365.9 L 1037.2 365.9 L 1039.3 365.9 L 1041.3 365.9 L 1043.3 365.9 L 1045.4 365.9 L 1047.4 365.9 L 1049.4 365.9 L 1051.5 365.9 L 1053.5 365.9 L 1055.5 365.9 L 1057.6 365.9 L 1059.6 365.9 L 1061.7 365.9 L 1063.7 365.9 L 1065.7 365.9 L 1067.7 365.9 L 1069.7 365.9 L 1072.0 365.9 L 1074.0 365.9 L 1076.0 365.9" fill="none" stroke="#F58518" stroke-width="2.8" stroke-linejoin="round" stroke-linecap="round"/>
<line x1="92.5" y1="62.0" x2="92.5" y2="366.0" stroke="#666" stroke-dasharray="4 4" stroke-width="1.2"/>
<text x="92.5" y="402.0" text-anchor="middle" font-size="12" fill="#444" font-family="Helvetica, Arial, sans-serif">submit</text>
<line x1="1073.8" y1="62.0" x2="1073.8" y2="366.0" stroke="#888" stroke-dasharray="4 4" stroke-width="1.2"/>
<text x="1073.8" y="402.0" text-anchor="middle" font-size="12" fill="#444" font-family="Helvetica, Arial, sans-serif">finish</text>
<line x1="86.0" y1="62.0" x2="86.0" y2="366.0" stroke="#f5f5f5" stroke-width="1"/>
<text x="86.0" y="418.0" text-anchor="middle" font-size="11" fill="#444" font-family="Helvetica, Arial, sans-serif">-0.14</text>
<line x1="209.8" y1="62.0" x2="209.8" y2="366.0" stroke="#f5f5f5" stroke-width="1"/>
<text x="209.8" y="418.0" text-anchor="middle" font-size="11" fill="#444" font-family="Helvetica, Arial, sans-serif">2.46</text>
<line x1="333.5" y1="62.0" x2="333.5" y2="366.0" stroke="#f5f5f5" stroke-width="1"/>
<text x="333.5" y="418.0" text-anchor="middle" font-size="11" fill="#444" font-family="Helvetica, Arial, sans-serif">5.06</text>
<line x1="457.2" y1="62.0" x2="457.2" y2="366.0" stroke="#f5f5f5" stroke-width="1"/>
<text x="457.2" y="418.0" text-anchor="middle" font-size="11" fill="#444" font-family="Helvetica, Arial, sans-serif">7.66</text>
<line x1="581.0" y1="62.0" x2="581.0" y2="366.0" stroke="#f5f5f5" stroke-width="1"/>
<text x="581.0" y="418.0" text-anchor="middle" font-size="11" fill="#444" font-family="Helvetica, Arial, sans-serif">10.26</text>
<line x1="704.8" y1="62.0" x2="704.8" y2="366.0" stroke="#f5f5f5" stroke-width="1"/>
<text x="704.8" y="418.0" text-anchor="middle" font-size="11" fill="#444" font-family="Helvetica, Arial, sans-serif">12.86</text>
<line x1="828.5" y1="62.0" x2="828.5" y2="366.0" stroke="#f5f5f5" stroke-width="1"/>
<text x="828.5" y="418.0" text-anchor="middle" font-size="11" fill="#444" font-family="Helvetica, Arial, sans-serif">15.46</text>
<line x1="952.2" y1="62.0" x2="952.2" y2="366.0" stroke="#f5f5f5" stroke-width="1"/>
<text x="952.2" y="418.0" text-anchor="middle" font-size="11" fill="#444" font-family="Helvetica, Arial, sans-serif">18.06</text>
<line x1="1076.0" y1="62.0" x2="1076.0" y2="366.0" stroke="#f5f5f5" stroke-width="1"/>
<text x="1076.0" y="418.0" text-anchor="middle" font-size="11" fill="#444" font-family="Helvetica, Arial, sans-serif">20.65</text>
<text x="581.0" y="386.0" text-anchor="middle" font-size="15" fill="#222" font-family="Helvetica, Arial, sans-serif">time since request submit (s)</text>
</svg>