<svg xmlns="http://www.w3.org/2000/svg" width="1100" height="420" viewBox="0 0 1100 420">
<rect width="1100" height="420" fill="white"/>
<text x="86" y="26" font-size="22" font-weight="700" font-family="Helvetica, Arial, sans-serif">tb_session_00_turn_005_reuse  phase=reuse  turn=5  prompt=25856  peak_tx=7.73 GiB/s  peak_rx=37.25 GiB/s</text>
<text x="86" y="46" font-size="13" fill="#444" font-family="Helvetica, Arial, sans-serif">response_window=3.914s, response_tx=4.047 GiB, response_rx=32.572 GiB, metrics_tx=4.048 GiB, metrics_rx=32.572 GiB</text>
<line x1="86" y1="366.0" x2="1076" y2="366.0" stroke="#ececec" stroke-width="1"/>
<text x="76" y="370.0" text-anchor="end" font-size="12" fill="#444" font-family="Helvetica, Arial, sans-serif">0.0</text>
<line x1="86" y1="305.2" x2="1076" y2="305.2" stroke="#ececec" stroke-width="1"/>
<text x="76" y="309.2" text-anchor="end" font-size="12" fill="#444" font-family="Helvetica, Arial, sans-serif">8.2</text>
<line x1="86" y1="244.4" x2="1076" y2="244.4" stroke="#ececec" stroke-width="1"/>
<text x="76" y="248.4" text-anchor="end" font-size="12" fill="#444" font-family="Helvetica, Arial, sans-serif">16.4</text>
<line x1="86" y1="183.6" x2="1076" y2="183.6" stroke="#ececec" stroke-width="1"/>
<text x="76" y="187.6" text-anchor="end" font-size="12" fill="#444" font-family="Helvetica, Arial, sans-serif">24.6</text>
<line x1="86" y1="122.8" x2="1076" y2="122.8" stroke="#ececec" stroke-width="1"/>
<text x="76" y="126.8" text-anchor="end" font-size="12" fill="#444" font-family="Helvetica, Arial, sans-serif">32.8</text>
<line x1="86" y1="62.0" x2="1076" y2="62.0" stroke="#ececec" stroke-width="1"/>
<text x="76" y="66.0" text-anchor="end" font-size="12" fill="#444" font-family="Helvetica, Arial, sans-serif">41.0</text>
<line x1="86" y1="366.0" x2="1076" y2="366.0" stroke="#222" stroke-width="1.4"/>
<line x1="86" y1="62.0" x2="86" y2="366.0" stroke="#222" stroke-width="1.4"/>
<rect x="115.5" y="62.0" width="952.8" height="304.0" fill="#F58518" opacity="0.08"/>
<path d="M 86.0 366.0 L 96.2 366.0 L 106.4 366.0 L 116.7 366.0 L 126.9 366.0 L 137.4 366.0 L 147.6 366.0 L 157.8 366.0 L 168.0 366.0 L 178.3 366.0 L 188.7 366.0 L 198.9 366.0 L 209.2 366.0 L 219.4 350.1 L 229.9 342.4 L 242.5 342.1 L 254.7 363.9 L 266.4 351.6 L 276.8 366.0 L 287.1 366.0 L 297.3 366.0 L 307.5 366.0 L 318.0 366.0 L 328.2 366.0 L 338.4 366.0 L 348.7 366.0 L 358.9 366.0 L 369.3 366.0 L 379.6 365.9 L 389.8 366.0 L 400.0 366.0 L 410.2 366.0 L 420.5 366.0 L 430.7 366.0 L 440.9 366.0 L 451.4 366.0 L 461.6 366.0 L 471.8 366.0 L 482.0 366.0 L 492.3 366.0 L 502.5 366.0 L 513.0 342.5 L 523.7 342.5 L 535.4 342.1 L 546.8 366.0 L 557.0 366.0 L 567.5 342.3 L 578.4 341.2 L 589.6 342.4 L 600.4 366.0 L 611.1 366.0 L 621.3 345.3 L 633.9 340.8 L 645.9 342.3 L 656.8 366.0 L 667.5 366.0 L 677.8 347.9 L 688.5 342.5 L 699.4 339.1 L 711.8 361.2 L 722.3 366.0 L 733.0 356.5 L 743.7 342.2 L 755.2 342.3 L 766.6 350.2 L 777.1 366.0 L 787.3 366.0 L 797.8 339.5 L 810.2 342.2 L 821.1 339.9 L 832.3 366.0 L 842.6 366.0 L 853.0 342.6 L 863.7 342.3 L 876.1 341.7 L 887.6 365.9 L 898.5 365.9 L 909.3 365.9 L 919.5 366.0 L 929.7 366.0 L 940.2 366.0 L 950.4 366.0 L 960.9 308.6 L 971.1 365.9 L 982.5 365.9 L 992.7 365.9 L 1003.2 365.9 L 1013.4 365.9 L 1023.9 365.9 L 1034.1 365.9 L 1044.6 365.9 L 1055.3 365.9 L 1065.5 365.9 L 1076.0 366.0" fill="none" stroke="#4C78A8" stroke-width="2.8" stroke-linejoin="round" stroke-linecap="round"/>
<path d="M 86.0 366.0 L 96.2 366.0 L 106.4 366.0 L 116.7 366.0 L 126.9 366.0 L 137.4 366.0 L 147.6 366.0 L 157.8 366.0 L 168.0 366.0 L 178.3 366.0 L 188.7 365.9 L 198.9 366.0 L 209.2 366.0 L 219.4 161.2 L 229.9 89.6 L 242.5 163.6 L 254.7 365.8 L 266.4 366.0 L 276.8 366.0 L 287.1 366.0 L 297.3 366.0 L 307.5 366.0 L 318.0 366.0 L 328.2 366.0 L 338.4 366.0 L 348.7 366.0 L 358.9 366.0 L 369.3 366.0 L 379.6 366.0 L 389.8 366.0 L 400.0 366.0 L 410.2 366.0 L 420.5 366.0 L 430.7 366.0 L 440.9 366.0 L 451.4 366.0 L 461.6 366.0 L 471.8 366.0 L 482.0 366.0 L 492.3 366.0 L 502.5 179.7 L 513.0 159.4 L 523.7 127.1 L 535.4 331.3 L 546.8 366.0 L 557.0 280.6 L 567.5 158.6 L 578.4 155.5 L 589.6 198.6 L 600.4 366.0 L 611.1 366.0 L 621.3 129.8 L 633.9 158.4 L 645.9 170.8 L 656.8 366.0 L 667.5 366.0 L 677.8 160.1 L 688.5 159.3 L 699.4 156.6 L 711.8 366.0 L 722.3 366.0 L 733.0 160.9 L 743.7 135.0 L 755.2 161.7 L 766.6 366.0 L 777.1 366.0 L 787.3 189.5 L 797.8 157.1 L 810.2 159.0 L 821.1 353.8 L 832.3 366.0 L 842.6 256.6 L 853.0 158.6 L 863.7 103.4 L 876.1 303.5 L 887.6 365.9 L 898.5 365.9 L 909.3 365.9 L 919.5 365.9 L 929.7 365.9 L 940.2 365.9 L 950.4 365.9 L 960.9 365.7 L 971.1 365.8 L 982.5 365.8 L 992.7 365.8 L 1003.2 365.8 L 1013.4 365.8 L 1023.9 365.8 L 1034.1 365.8 L 1044.6 365.8 L 1055.3 365.8 L 1065.5 365.8 L 1076.0 366.0" fill="none" stroke="#F58518" stroke-width="2.8" stroke-linejoin="round" stroke-linecap="round"/>
<line x1="115.5" y1="62.0" x2="115.5" y2="366.0" stroke="#666" stroke-dasharray="4 4" stroke-width="1.2"/>
<text x="115.5" y="402.0" text-anchor="middle" font-size="12" fill="#444" font-family="Helvetica, Arial, sans-serif">submit</text>
<line x1="1068.2" y1="62.0" x2="1068.2" y2="366.0" stroke="#888" stroke-dasharray="4 4" stroke-width="1.2"/>
<text x="1068.2" y="402.0" text-anchor="middle" font-size="12" fill="#444" font-family="Helvetica, Arial, sans-serif">finish</text>
<line x1="86.0" y1="62.0" x2="86.0" y2="366.0" stroke="#f5f5f5" stroke-width="1"/>
<text x="86.0" y="418.0" text-anchor="middle" font-size="11" fill="#444" font-family="Helvetica, Arial, sans-serif">-0.12</text>
<line x1="209.8" y1="62.0" x2="209.8" y2="366.0" stroke="#f5f5f5" stroke-width="1"/>
<text x="209.8" y="418.0" text-anchor="middle" font-size="11" fill="#444" font-family="Helvetica, Arial, sans-serif">0.39</text>
<line x1="333.5" y1="62.0" x2="333.5" y2="366.0" stroke="#f5f5f5" stroke-width="1"/>
<text x="333.5" y="418.0" text-anchor="middle" font-size="11" fill="#444" font-family="Helvetica, Arial, sans-serif">0.90</text>
<line x1="457.2" y1="62.0" x2="457.2" y2="366.0" stroke="#f5f5f5" stroke-width="1"/>
<text x="457.2" y="418.0" text-anchor="middle" font-size="11" fill="#444" font-family="Helvetica, Arial, sans-serif">1.40</text>
<line x1="581.0" y1="62.0" x2="581.0" y2="366.0" stroke="#f5f5f5" stroke-width="1"/>
<text x="581.0" y="418.0" text-anchor="middle" font-size="11" fill="#444" font-family="Helvetica, Arial, sans-serif">1.91</text>
<line x1="704.8" y1="62.0" x2="704.8" y2="366.0" stroke="#f5f5f5" stroke-width="1"/>
<text x="704.8" y="418.0" text-anchor="middle" font-size="11" fill="#444" font-family="Helvetica, Arial, sans-serif">2.42</text>
<line x1="828.5" y1="62.0" x2="828.5" y2="366.0" stroke="#f5f5f5" stroke-width="1"/>
<text x="828.5" y="418.0" text-anchor="middle" font-size="11" fill="#444" font-family="Helvetica, Arial, sans-serif">2.93</text>
<line x1="952.2" y1="62.0" x2="952.2" y2="366.0" stroke="#f5f5f5" stroke-width="1"/>
<text x="952.2" y="418.0" text-anchor="middle" font-size="11" fill="#444" font-family="Helvetica, Arial, sans-serif">3.44</text>
<line x1="1076.0" y1="62.0" x2="1076.0" y2="366.0" stroke="#f5f5f5" stroke-width="1"/>
<text x="1076.0" y="418.0" text-anchor="middle" font-size="11" fill="#444" font-family="Helvetica, Arial, sans-serif">3.95</text>
<text x="581.0" y="386.0" text-anchor="middle" font-size="15" fill="#222" font-family="Helvetica, Arial, sans-serif">time since request submit (s)</text>
</svg>