<svg xmlns="http://www.w3.org/2000/svg" width="1100" height="420" viewBox="0 0 1100 420">
<rect width="1100" height="420" fill="white"/>
<text x="86" y="26" font-size="22" font-weight="700" font-family="Helvetica, Arial, sans-serif">tb_session_00_turn_001_reuse  phase=reuse  turn=1  prompt=24832  peak_tx=15.32 GiB/s  peak_rx=32.61 GiB/s</text>
<text x="86" y="46" font-size="13" fill="#444" font-family="Helvetica, Arial, sans-serif">response_window=4.673s, response_tx=4.157 GiB, response_rx=4.672 GiB, metrics_tx=21.757 GiB, metrics_rx=7.527 GiB</text>
<line x1="86" y1="366.0" x2="1076" y2="366.0" stroke="#ececec" stroke-width="1"/>
<text x="76" y="370.0" text-anchor="end" font-size="12" fill="#444" font-family="Helvetica, Arial, sans-serif">0.0</text>
<line x1="86" y1="305.2" x2="1076" y2="305.2" stroke="#ececec" stroke-width="1"/>
<text x="76" y="309.2" text-anchor="end" font-size="12" fill="#444" font-family="Helvetica, Arial, sans-serif">7.2</text>
<line x1="86" y1="244.4" x2="1076" y2="244.4" stroke="#ececec" stroke-width="1"/>
<text x="76" y="248.4" text-anchor="end" font-size="12" fill="#444" font-family="Helvetica, Arial, sans-serif">14.3</text>
<line x1="86" y1="183.6" x2="1076" y2="183.6" stroke="#ececec" stroke-width="1"/>
<text x="76" y="187.6" text-anchor="end" font-size="12" fill="#444" font-family="Helvetica, Arial, sans-serif">21.5</text>
<line x1="86" y1="122.8" x2="1076" y2="122.8" stroke="#ececec" stroke-width="1"/>
<text x="76" y="126.8" text-anchor="end" font-size="12" fill="#444" font-family="Helvetica, Arial, sans-serif">28.7</text>
<line x1="86" y1="62.0" x2="1076" y2="62.0" stroke="#ececec" stroke-width="1"/>
<text x="76" y="66.0" text-anchor="end" font-size="12" fill="#444" font-family="Helvetica, Arial, sans-serif">35.9</text>
<line x1="86" y1="366.0" x2="1076" y2="366.0" stroke="#222" stroke-width="1.4"/>
<line x1="86" y1="62.0" x2="86" y2="366.0" stroke="#222" stroke-width="1.4"/>
<rect x="112.1" y="62.0" width="953.7" height="304.0" fill="#F58518" opacity="0.08"/>
<path d="M 86.0 366.0 L 94.6 366.0 L 103.1 366.0 L 111.7 366.0 L 120.3 366.0 L 128.9 366.0 L 137.4 366.0 L 146.0 366.0 L 154.8 366.0 L 163.3 364.6 L 172.5 338.9 L 181.5 339.2 L 191.3 343.6 L 200.1 366.0 L 208.9 361.8 L 217.6 366.0 L 226.4 366.0 L 235.0 365.9 L 243.6 365.9 L 252.5 251.4 L 261.3 366.0 L 280.5 366.0 L 289.3 366.0 L 298.0 237.2 L 306.8 366.0 L 315.4 366.0 L 324.0 366.0 L 332.7 366.0 L 341.3 364.5 L 350.5 366.0 L 359.3 366.0 L 367.8 366.0 L 376.4 366.0 L 385.2 366.0 L 393.8 269.4 L 402.5 366.0 L 411.3 366.0 L 420.5 366.0 L 429.1 366.0 L 437.8 366.0 L 446.4 298.8 L 455.2 365.9 L 464.0 365.9 L 473.6 366.0 L 482.3 366.0 L 491.1 366.0 L 499.7 366.0 L 508.2 366.0 L 517.0 366.0 L 525.6 366.0 L 534.4 366.0 L 543.1 366.0 L 551.7 366.0 L 560.3 366.0 L 569.1 366.0 L 577.6 366.0 L 586.4 366.0 L 595.4 366.0 L 604.2 366.0 L 612.9 366.0 L 621.5 366.0 L 630.1 366.0 L 638.9 366.0 L 647.6 366.0 L 656.6 366.0 L 665.4 365.9 L 674.2 366.0 L 682.7 366.0 L 691.5 236.1 L 700.1 366.0 L 708.9 366.0 L 717.4 366.0 L 726.2 366.0 L 735.0 366.0 L 743.6 366.0 L 752.1 366.0 L 760.9 313.1 L 769.5 366.0 L 778.2 366.0 L 787.0 366.0 L 795.6 366.0 L 804.4 366.0 L 812.9 366.0 L 821.5 366.0 L 830.3 349.0 L 838.9 366.0 L 847.6 366.0 L 856.2 366.0 L 865.2 324.1 L 873.8 365.9 L 882.5 365.9 L 891.3 365.9 L 899.9 366.0 L 908.7 342.2 L 917.2 365.9 L 927.2 366.0 L 935.8 366.0 L 944.4 366.0 L 953.1 366.0 L 961.7 366.0 L 970.7 366.0 L 979.3 366.0 L 988.0 366.0 L 996.6 366.0 L 1005.4 336.1 L 1014.0 366.0 L 1023.8 366.0 L 1032.5 366.0 L 1041.3 366.0 L 1050.1 366.0 L 1058.7 329.1 L 1067.2 366.0 L 1076.0 366.0" fill="none" stroke="#4C78A8" stroke-width="2.8" stroke-linejoin="round" stroke-linecap="round"/>
<path d="M 86.0 366.0 L 94.6 366.0 L 103.1 366.0 L 111.7 366.0 L 120.3 366.0 L 128.9 366.0 L 137.4 366.0 L 146.0 366.0 L 154.8 366.0 L 163.3 131.8 L 172.5 129.4 L 181.5 89.6 L 191.3 365.9 L 200.1 365.9 L 208.9 251.8 L 217.6 365.9 L 226.4 365.9 L 235.0 365.9 L 243.6 365.9 L 252.5 365.9 L 261.3 365.6 L 280.5 365.9 L 289.3 365.9 L 298.0 365.9 L 306.8 365.9 L 315.4 365.9 L 324.0 365.9 L 332.7 365.9 L 341.3 365.9 L 350.5 365.9 L 359.3 365.9 L 367.8 365.9 L 376.4 365.9 L 385.2 365.9 L 393.8 365.9 L 402.5 365.9 L 411.3 365.9 L 420.5 365.9 L 429.1 365.9 L 437.8 365.9 L 446.4 365.9 L 455.2 365.9 L 464.0 365.9 L 473.6 365.9 L 482.3 365.9 L 491.1 365.9 L 499.7 365.9 L 508.2 365.9 L 517.0 365.9 L 525.6 365.9 L 534.4 365.9 L 543.1 365.9 L 551.7 365.9 L 560.3 365.9 L 569.1 365.9 L 577.6 365.9 L 586.4 365.9 L 595.4 365.9 L 604.2 365.9 L 612.9 365.9 L 621.5 365.9 L 630.1 365.9 L 638.9 365.9 L 647.6 365.9 L 656.6 365.9 L 665.4 365.9 L 674.2 365.9 L 682.7 365.9 L 691.5 365.9 L 700.1 365.9 L 708.9 365.9 L 717.4 365.9 L 726.2 365.9 L 735.0 365.9 L 743.6 365.9 L 752.1 365.9 L 760.9 365.9 L 769.5 365.9 L 778.2 365.9 L 787.0 365.9 L 795.6 365.9 L 804.4 365.9 L 812.9 365.9 L 821.5 365.9 L 830.3 365.9 L 838.9 365.9 L 847.6 365.9 L 856.2 365.9 L 865.2 365.9 L 873.8 365.9 L 882.5 365.9 L 891.3 365.9 L 899.9 365.9 L 908.7 365.9 L 917.2 365.9 L 927.2 365.9 L 935.8 365.9 L 944.4 365.9 L 953.1 366.0 L 961.7 365.9 L 970.7 365.9 L 979.3 365.9 L 988.0 365.9 L 996.6 365.9 L 1005.4 365.9 L 1014.0 365.9 L 1023.8 365.9 L 1032.5 365.9 L 1041.3 365.9 L 1050.1 365.9 L 1058.7 365.9 L 1067.2 365.9 L 1076.0 365.9" fill="none" stroke="#F58518" stroke-width="2.8" stroke-linejoin="round" stroke-linecap="round"/>
<line x1="112.1" y1="62.0" x2="112.1" y2="366.0" stroke="#666" stroke-dasharray="4 4" stroke-width="1.2"/>
<text x="112.1" y="402.0" text-anchor="middle" font-size="12" fill="#444" font-family="Helvetica, Arial, sans-serif">submit</text>
<line x1="1065.8" y1="62.0" x2="1065.8" y2="366.0" stroke="#888" stroke-dasharray="4 4" stroke-width="1.2"/>
<text x="1065.8" y="402.0" text-anchor="middle" font-size="12" fill="#444" font-family="Helvetica, Arial, sans-serif">finish</text>
<line x1="86.0" y1="62.0" x2="86.0" y2="366.0" stroke="#f5f5f5" stroke-width="1"/>
<text x="86.0" y="418.0" text-anchor="middle" font-size="11" fill="#444" font-family="Helvetica, Arial, sans-serif">-0.13</text>
<line x1="209.8" y1="62.0" x2="209.8" y2="366.0" stroke="#f5f5f5" stroke-width="1"/>
<text x="209.8" y="418.0" text-anchor="middle" font-size="11" fill="#444" font-family="Helvetica, Arial, sans-serif">0.48</text>
<line x1="333.5" y1="62.0" x2="333.5" y2="366.0" stroke="#f5f5f5" stroke-width="1"/>
<text x="333.5" y="418.0" text-anchor="middle" font-size="11" fill="#444" font-family="Helvetica, Arial, sans-serif">1.08</text>
<line x1="457.2" y1="62.0" x2="457.2" y2="366.0" stroke="#f5f5f5" stroke-width="1"/>
<text x="457.2" y="418.0" text-anchor="middle" font-size="11" fill="#444" font-family="Helvetica, Arial, sans-serif">1.69</text>
<line x1="581.0" y1="62.0" x2="581.0" y2="366.0" stroke="#f5f5f5" stroke-width="1"/>
<text x="581.0" y="418.0" text-anchor="middle" font-size="11" fill="#444" font-family="Helvetica, Arial, sans-serif">2.30</text>
<line x1="704.8" y1="62.0" x2="704.8" y2="366.0" stroke="#f5f5f5" stroke-width="1"/>
<text x="704.8" y="418.0" text-anchor="middle" font-size="11" fill="#444" font-family="Helvetica, Arial, sans-serif">2.90</text>
<line x1="828.5" y1="62.0" x2="828.5" y2="366.0" stroke="#f5f5f5" stroke-width="1"/>
<text x="828.5" y="418.0" text-anchor="middle" font-size="11" fill="#444" font-family="Helvetica, Arial, sans-serif">3.51</text>
<line x1="952.2" y1="62.0" x2="952.2" y2="366.0" stroke="#f5f5f5" stroke-width="1"/>
<text x="952.2" y="418.0" text-anchor="middle" font-size="11" fill="#444" font-family="Helvetica, Arial, sans-serif">4.12</text>
<line x1="1076.0" y1="62.0" x2="1076.0" y2="366.0" stroke="#f5f5f5" stroke-width="1"/>
<text x="1076.0" y="418.0" text-anchor="middle" font-size="11" fill="#444" font-family="Helvetica, Arial, sans-serif">4.72</text>
<text x="581.0" y="386.0" text-anchor="middle" font-size="15" fill="#222" font-family="Helvetica, Arial, sans-serif">time since request submit (s)</text>
</svg>