<svg xmlns="http://www.w3.org/2000/svg" width="1100" height="420" viewBox="0 0 1100 420">
<rect width="1100" height="420" fill="white"/>
<text x="86" y="26" font-size="22" font-weight="700" font-family="Helvetica, Arial, sans-serif">tb_session_02_turn_001_reuse  phase=reuse  turn=1  prompt=24832  peak_tx=15.45 GiB/s  peak_rx=32.61 GiB/s</text>
<text x="86" y="46" font-size="13" fill="#444" font-family="Helvetica, Arial, sans-serif">response_window=11.632s, response_tx=12.654 GiB, response_rx=6.473 GiB, metrics_tx=21.757 GiB, metrics_rx=7.527 GiB</text>
<line x1="86" y1="366.0" x2="1076" y2="366.0" stroke="#ececec" stroke-width="1"/>
<text x="76" y="370.0" text-anchor="end" font-size="12" fill="#444" font-family="Helvetica, Arial, sans-serif">0.0</text>
<line x1="86" y1="305.2" x2="1076" y2="305.2" stroke="#ececec" stroke-width="1"/>
<text x="76" y="309.2" text-anchor="end" font-size="12" fill="#444" font-family="Helvetica, Arial, sans-serif">7.2</text>
<line x1="86" y1="244.4" x2="1076" y2="244.4" stroke="#ececec" stroke-width="1"/>
<text x="76" y="248.4" text-anchor="end" font-size="12" fill="#444" font-family="Helvetica, Arial, sans-serif">14.3</text>
<line x1="86" y1="183.6" x2="1076" y2="183.6" stroke="#ececec" stroke-width="1"/>
<text x="76" y="187.6" text-anchor="end" font-size="12" fill="#444" font-family="Helvetica, Arial, sans-serif">21.5</text>
<line x1="86" y1="122.8" x2="1076" y2="122.8" stroke="#ececec" stroke-width="1"/>
<text x="76" y="126.8" text-anchor="end" font-size="12" fill="#444" font-family="Helvetica, Arial, sans-serif">28.7</text>
<line x1="86" y1="62.0" x2="1076" y2="62.0" stroke="#ececec" stroke-width="1"/>
<text x="76" y="66.0" text-anchor="end" font-size="12" fill="#444" font-family="Helvetica, Arial, sans-serif">35.9</text>
<line x1="86" y1="366.0" x2="1076" y2="366.0" stroke="#222" stroke-width="1.4"/>
<line x1="86" y1="62.0" x2="86" y2="366.0" stroke="#222" stroke-width="1.4"/>
<rect x="97.0" y="62.0" width="976.6" height="304.0" fill="#F58518" opacity="0.08"/>
<path d="M 86.0 366.0 L 89.5 366.0 L 93.1 366.0 L 96.6 366.0 L 100.1 366.0 L 103.6 366.0 L 107.2 366.0 L 110.7 366.0 L 114.3 366.0 L 117.8 364.6 L 121.6 338.9 L 125.3 339.2 L 129.3 343.6 L 132.9 366.0 L 136.5 361.8 L 140.2 366.0 L 143.8 366.0 L 147.3 365.9 L 150.8 365.9 L 154.5 251.4 L 158.1 366.0 L 166.0 366.0 L 169.6 366.0 L 173.2 237.2 L 176.8 366.0 L 180.4 366.0 L 183.9 366.0 L 187.5 366.0 L 191.0 364.5 L 194.8 366.0 L 198.4 366.0 L 201.9 366.0 L 205.5 366.0 L 209.1 366.0 L 212.6 269.4 L 216.2 366.0 L 219.8 366.0 L 223.6 366.0 L 227.1 366.0 L 230.7 366.0 L 234.3 298.8 L 237.9 365.9 L 241.5 365.9 L 245.4 366.0 L 249.0 366.0 L 252.7 366.0 L 256.2 366.0 L 259.7 366.0 L 263.3 366.0 L 266.8 366.0 L 270.4 366.0 L 274.1 366.0 L 277.6 366.0 L 281.1 366.0 L 284.7 366.0 L 288.2 366.0 L 291.9 366.0 L 295.6 366.0 L 299.2 366.0 L 302.8 366.0 L 306.3 366.0 L 309.8 366.0 L 313.4 366.0 L 317.0 366.0 L 320.7 366.0 L 324.3 365.9 L 328.0 366.0 L 331.5 366.0 L 335.1 236.1 L 338.6 366.0 L 342.2 366.0 L 345.8 366.0 L 349.4 366.0 L 353.0 366.0 L 356.5 366.0 L 360.0 366.0 L 363.6 313.1 L 367.2 366.0 L 370.8 366.0 L 374.4 366.0 L 377.9 366.0 L 381.5 366.0 L 385.0 366.0 L 388.6 366.0 L 392.2 349.0 L 395.7 366.0 L 399.3 366.0 L 402.8 366.0 L 406.5 324.1 L 410.1 365.9 L 413.7 365.9 L 417.3 365.9 L 420.8 366.0 L 424.4 342.2 L 427.9 365.9 L 432.1 366.0 L 435.6 366.0 L 439.1 366.0 L 442.7 366.0 L 446.3 366.0 L 449.9 366.0 L 453.5 366.0 L 457.1 366.0 L 460.6 366.0 L 464.2 336.1 L 467.7 366.0 L 471.8 366.0 L 475.4 366.0 L 479.0 366.0 L 482.6 366.0 L 486.1 329.1 L 489.7 366.0 L 493.3 366.0 L 496.8 365.9 L 500.4 365.9 L 503.9 365.9 L 507.9 366.0 L 511.5 366.0 L 515.0 366.0 L 518.6 366.0 L 522.1 366.0 L 525.8 366.0 L 529.3 366.0 L 532.9 277.1 L 536.4 366.0 L 540.0 366.0 L 543.6 366.0 L 547.2 366.0 L 550.7 366.0 L 554.3 366.0 L 558.0 235.0 L 561.5 366.0 L 565.1 366.0 L 568.7 366.0 L 572.2 366.0 L 575.8 366.0 L 579.3 366.0 L 583.2 294.5 L 586.8 365.9 L 590.3 365.9 L 593.9 366.0 L 597.5 366.0 L 601.1 366.0 L 604.6 366.0 L 608.3 366.0 L 611.9 303.7 L 615.6 366.0 L 619.1 366.0 L 622.7 366.0 L 626.3 366.0 L 629.8 366.0 L 633.7 366.0 L 637.3 366.0 L 640.9 366.0 L 644.5 366.0 L 648.0 366.0 L 651.5 366.0 L 655.1 366.0 L 658.8 366.0 L 662.4 366.0 L 666.0 366.0 L 669.5 314.0 L 673.1 366.0 L 676.6 365.3 L 680.3 365.9 L 684.0 366.0 L 687.5 366.0 L 691.1 366.0 L 694.7 323.6 L 698.3 366.0 L 701.8 366.0 L 705.3 366.0 L 709.0 366.0 L 712.6 323.6 L 716.2 366.0 L 719.7 366.0 L 723.3 366.0 L 726.8 366.0 L 730.4 366.0 L 734.2 265.7 L 737.8 366.0 L 741.4 366.0 L 744.9 366.0 L 748.5 366.0 L 752.0 366.0 L 755.6 266.7 L 759.3 366.0 L 762.8 365.9 L 766.5 365.9 L 770.1 366.0 L 773.6 366.0 L 777.1 366.0 L 780.7 366.0 L 784.3 366.0 L 787.8 366.0 L 791.4 366.0 L 795.0 366.0 L 798.5 366.0 L 802.1 311.0 L 805.7 366.0 L 809.3 366.0 L 812.8 366.0 L 816.7 366.0 L 820.4 366.0 L 823.9 366.0 L 827.5 281.4 L 831.0 366.0 L 834.6 366.0 L 838.2 366.0 L 842.2 366.0 L 845.8 366.0 L 849.3 365.9 L 852.9 365.9 L 856.5 365.9 L 860.3 366.0 L 863.8 366.0 L 867.4 366.0 L 871.0 366.0 L 874.5 366.0 L 878.0 366.0 L 881.6 244.5 L 885.4 366.0 L 889.0 366.0 L 892.6 366.0 L 896.1 366.0 L 899.7 366.0 L 903.3 366.0 L 906.8 366.0 L 910.6 239.7 L 914.2 366.0 L 918.1 359.8 L 921.7 366.0 L 925.2 366.0 L 928.8 366.0 L 932.4 366.0 L 936.0 366.0 L 939.6 362.4 L 943.1 366.0 L 946.7 366.0 L 950.2 366.0 L 953.8 366.0 L 957.4 235.0 L 961.0 366.0 L 964.6 366.0 L 968.2 366.0 L 971.7 366.0 L 975.3 366.0 L 978.9 289.3 L 982.4 366.0 L 986.4 366.0 L 990.0 366.0 L 993.6 366.0 L 997.1 366.0 L 1000.7 295.5 L 1004.3 366.0 L 1007.8 366.0 L 1011.5 366.0 L 1015.0 366.0 L 1018.7 366.0 L 1022.2 278.8 L 1025.8 365.9 L 1029.3 365.9 L 1032.9 365.9 L 1036.6 366.0 L 1040.2 366.0 L 1043.7 366.0 L 1047.3 235.0 L 1050.8 366.0 L 1054.3 366.0 L 1057.9 366.0 L 1061.7 366.0 L 1065.3 366.0 L 1068.9 366.0 L 1072.5 274.7 L 1076.0 366.0" fill="none" stroke="#4C78A8" stroke-width="2.8" stroke-linejoin="round" stroke-linecap="round"/>
<path d="M 86.0 366.0 L 89.5 366.0 L 93.1 366.0 L 96.6 366.0 L 100.1 366.0 L 103.6 366.0 L 107.2 366.0 L 110.7 366.0 L 114.3 366.0 L 117.8 131.8 L 121.6 129.4 L 125.3 89.6 L 129.3 365.9 L 132.9 365.9 L 136.5 251.8 L 140.2 365.9 L 143.8 365.9 L 147.3 365.9 L 150.8 365.9 L 154.5 365.9 L 158.1 365.6 L 166.0 365.9 L 169.6 365.9 L 173.2 365.9 L 176.8 365.9 L 180.4 365.9 L 183.9 365.9 L 187.5 365.9 L 191.0 365.9 L 194.8 365.9 L 198.4 365.9 L 201.9 365.9 L 205.5 365.9 L 209.1 365.9 L 212.6 365.9 L 216.2 365.9 L 219.8 365.9 L 223.6 365.9 L 227.1 365.9 L 230.7 365.9 L 234.3 365.9 L 237.9 365.9 L 241.5 365.9 L 245.4 365.9 L 249.0 365.9 L 252.7 365.9 L 256.2 365.9 L 259.7 365.9 L 263.3 365.9 L 266.8 365.9 L 270.4 365.9 L 274.1 365.9 L 277.6 365.9 L 281.1 365.9 L 284.7 365.9 L 288.2 365.9 L 291.9 365.9 L 295.6 365.9 L 299.2 365.9 L 302.8 365.9 L 306.3 365.9 L 309.8 365.9 L 313.4 365.9 L 317.0 365.9 L 320.7 365.9 L 324.3 365.9 L 328.0 365.9 L 331.5 365.9 L 335.1 365.9 L 338.6 365.9 L 342.2 365.9 L 345.8 365.9 L 349.4 365.9 L 353.0 365.9 L 356.5 365.9 L 360.0 365.9 L 363.6 365.9 L 367.2 365.9 L 370.8 365.9 L 374.4 365.9 L 377.9 365.9 L 381.5 365.9 L 385.0 365.9 L 388.6 365.9 L 392.2 365.9 L 395.7 365.9 L 399.3 365.9 L 402.8 365.9 L 406.5 365.9 L 410.1 365.9 L 413.7 365.9 L 417.3 365.9 L 420.8 365.9 L 424.4 365.9 L 427.9 365.9 L 432.1 365.9 L 435.6 365.9 L 439.1 365.9 L 442.7 366.0 L 446.3 365.9 L 449.9 365.9 L 453.5 365.9 L 457.1 365.9 L 460.6 365.9 L 464.2 365.9 L 467.7 365.9 L 471.8 365.9 L 475.4 365.9 L 479.0 365.9 L 482.6 365.9 L 486.1 365.9 L 489.7 365.9 L 493.3 365.9 L 496.8 365.9 L 500.4 365.9 L 503.9 365.9 L 507.9 365.9 L 511.5 365.9 L 515.0 365.9 L 518.6 365.9 L 522.1 365.9 L 525.8 365.9 L 529.3 365.9 L 532.9 365.9 L 536.4 365.9 L 540.0 365.9 L 543.6 365.9 L 547.2 365.9 L 550.7 365.9 L 554.3 365.9 L 558.0 365.9 L 561.5 365.9 L 565.1 365.9 L 568.7 365.9 L 572.2 365.9 L 575.8 365.9 L 579.3 365.9 L 583.2 365.9 L 586.8 365.9 L 590.3 365.9 L 593.9 365.9 L 597.5 365.9 L 601.1 365.9 L 604.6 365.9 L 608.3 365.9 L 611.9 365.9 L 615.6 365.9 L 619.1 365.9 L 622.7 365.9 L 626.3 365.9 L 629.8 365.9 L 633.7 365.9 L 637.3 365.9 L 640.9 365.9 L 644.5 365.9 L 648.0 365.9 L 651.5 365.9 L 655.1 365.9 L 658.8 365.9 L 662.4 365.9 L 666.0 365.9 L 669.5 366.0 L 673.1 159.1 L 676.6 365.9 L 680.3 365.9 L 684.0 365.9 L 687.5 365.9 L 691.1 365.9 L 694.7 365.9 L 698.3 365.9 L 701.8 365.9 L 705.3 365.9 L 709.0 365.9 L 712.6 365.9 L 716.2 365.9 L 719.7 365.9 L 723.3 365.9 L 726.8 365.9 L 730.4 365.9 L 734.2 365.9 L 737.8 365.9 L 741.4 365.9 L 744.9 365.9 L 748.5 365.9 L 752.0 365.9 L 755.6 365.9 L 759.3 365.9 L 762.8 365.9 L 766.5 365.9 L 770.1 365.9 L 773.6 365.9 L 777.1 365.9 L 780.7 365.9 L 784.3 365.9 L 787.8 365.9 L 791.4 365.9 L 795.0 365.9 L 798.5 365.9 L 802.1 365.9 L 805.7 365.9 L 809.3 365.9 L 812.8 365.9 L 816.7 365.9 L 820.4 365.9 L 823.9 365.9 L 827.5 365.9 L 831.0 365.9 L 834.6 365.9 L 838.2 365.9 L 842.2 365.9 L 845.8 365.9 L 849.3 365.9 L 852.9 365.9 L 856.5 365.9 L 860.3 365.9 L 863.8 365.9 L 867.4 365.9 L 871.0 365.9 L 874.5 365.9 L 878.0 365.9 L 881.6 365.9 L 885.4 365.9 L 889.0 365.9 L 892.6 365.9 L 896.1 365.9 L 899.7 365.9 L 903.3 365.9 L 906.8 365.9 L 910.6 366.0 L 914.2 238.8 L 918.1 365.9 L 921.7 365.9 L 925.2 365.9 L 928.8 365.9 L 932.4 365.9 L 936.0 365.9 L 939.6 365.9 L 943.1 365.9 L 946.7 365.9 L 950.2 365.9 L 953.8 365.9 L 957.4 365.9 L 961.0 365.9 L 964.6 365.9 L 968.2 365.9 L 971.7 365.9 L 975.3 365.9 L 978.9 365.9 L 982.4 365.9 L 986.4 365.9 L 990.0 365.9 L 993.6 365.9 L 997.1 365.9 L 1000.7 365.9 L 1004.3 365.9 L 1007.8 365.9 L 1011.5 365.9 L 1015.0 365.9 L 1018.7 365.9 L 1022.2 365.9 L 1025.8 365.9 L 1029.3 365.9 L 1032.9 365.9 L 1036.6 365.9 L 1040.2 365.9 L 1043.7 365.9 L 1047.3 365.9 L 1050.8 365.9 L 1054.3 365.9 L 1057.9 365.9 L 1061.7 365.9 L 1065.3 365.9 L 1068.9 365.9 L 1072.5 365.9 L 1076.0 365.9" fill="none" stroke="#F58518" stroke-width="2.8" stroke-linejoin="round" stroke-linecap="round"/>
<line x1="97.0" y1="62.0" x2="97.0" y2="366.0" stroke="#666" stroke-dasharray="4 4" stroke-width="1.2"/>
<text x="97.0" y="402.0" text-anchor="middle" font-size="12" fill="#444" font-family="Helvetica, Arial, sans-serif">submit</text>
<line x1="1073.6" y1="62.0" x2="1073.6" y2="366.0" stroke="#888" stroke-dasharray="4 4" stroke-width="1.2"/>
<text x="1073.6" y="402.0" text-anchor="middle" font-size="12" fill="#444" font-family="Helvetica, Arial, sans-serif">finish</text>
<line x1="86.0" y1="62.0" x2="86.0" y2="366.0" stroke="#f5f5f5" stroke-width="1"/>
<text x="86.0" y="418.0" text-anchor="middle" font-size="11" fill="#444" font-family="Helvetica, Arial, sans-serif">-0.13</text>
<line x1="209.8" y1="62.0" x2="209.8" y2="366.0" stroke="#f5f5f5" stroke-width="1"/>
<text x="209.8" y="418.0" text-anchor="middle" font-size="11" fill="#444" font-family="Helvetica, Arial, sans-serif">1.34</text>
<line x1="333.5" y1="62.0" x2="333.5" y2="366.0" stroke="#f5f5f5" stroke-width="1"/>
<text x="333.5" y="418.0" text-anchor="middle" font-size="11" fill="#444" font-family="Helvetica, Arial, sans-serif">2.82</text>
<line x1="457.2" y1="62.0" x2="457.2" y2="366.0" stroke="#f5f5f5" stroke-width="1"/>
<text x="457.2" y="418.0" text-anchor="middle" font-size="11" fill="#444" font-family="Helvetica, Arial, sans-serif">4.29</text>
<line x1="581.0" y1="62.0" x2="581.0" y2="366.0" stroke="#f5f5f5" stroke-width="1"/>
<text x="581.0" y="418.0" text-anchor="middle" font-size="11" fill="#444" font-family="Helvetica, Arial, sans-serif">5.76</text>
<line x1="704.8" y1="62.0" x2="704.8" y2="366.0" stroke="#f5f5f5" stroke-width="1"/>
<text x="704.8" y="418.0" text-anchor="middle" font-size="11" fill="#444" font-family="Helvetica, Arial, sans-serif">7.24</text>
<line x1="828.5" y1="62.0" x2="828.5" y2="366.0" stroke="#f5f5f5" stroke-width="1"/>
<text x="828.5" y="418.0" text-anchor="middle" font-size="11" fill="#444" font-family="Helvetica, Arial, sans-serif">8.71</text>
<line x1="952.2" y1="62.0" x2="952.2" y2="366.0" stroke="#f5f5f5" stroke-width="1"/>
<text x="952.2" y="418.0" text-anchor="middle" font-size="11" fill="#444" font-family="Helvetica, Arial, sans-serif">10.19</text>
<line x1="1076.0" y1="62.0" x2="1076.0" y2="366.0" stroke="#f5f5f5" stroke-width="1"/>
<text x="1076.0" y="418.0" text-anchor="middle" font-size="11" fill="#444" font-family="Helvetica, Arial, sans-serif">11.66</text>
<text x="581.0" y="386.0" text-anchor="middle" font-size="15" fill="#222" font-family="Helvetica, Arial, sans-serif">time since request submit (s)</text>
</svg>