<svg xmlns="http://www.w3.org/2000/svg" width="1100" height="420" viewBox="0 0 1100 420">
<rect width="1100" height="420" fill="white"/>
<text x="86" y="26" font-size="22" font-weight="700" font-family="Helvetica, Arial, sans-serif">tb_session_01_turn_001_reuse  phase=reuse  turn=1  prompt=24832  peak_tx=15.45 GiB/s  peak_rx=32.61 GiB/s</text>
<text x="86" y="46" font-size="13" fill="#444" font-family="Helvetica, Arial, sans-serif">response_window=7.876s, response_tx=7.655 GiB, response_rx=5.744 GiB, metrics_tx=21.757 GiB, metrics_rx=7.527 GiB</text>
<line x1="86" y1="366.0" x2="1076" y2="366.0" stroke="#ececec" stroke-width="1"/>
<text x="76" y="370.0" text-anchor="end" font-size="12" fill="#444" font-family="Helvetica, Arial, sans-serif">0.0</text>
<line x1="86" y1="305.2" x2="1076" y2="305.2" stroke="#ececec" stroke-width="1"/>
<text x="76" y="309.2" text-anchor="end" font-size="12" fill="#444" font-family="Helvetica, Arial, sans-serif">7.2</text>
<line x1="86" y1="244.4" x2="1076" y2="244.4" stroke="#ececec" stroke-width="1"/>
<text x="76" y="248.4" text-anchor="end" font-size="12" fill="#444" font-family="Helvetica, Arial, sans-serif">14.3</text>
<line x1="86" y1="183.6" x2="1076" y2="183.6" stroke="#ececec" stroke-width="1"/>
<text x="76" y="187.6" text-anchor="end" font-size="12" fill="#444" font-family="Helvetica, Arial, sans-serif">21.5</text>
<line x1="86" y1="122.8" x2="1076" y2="122.8" stroke="#ececec" stroke-width="1"/>
<text x="76" y="126.8" text-anchor="end" font-size="12" fill="#444" font-family="Helvetica, Arial, sans-serif">28.7</text>
<line x1="86" y1="62.0" x2="1076" y2="62.0" stroke="#ececec" stroke-width="1"/>
<text x="76" y="66.0" text-anchor="end" font-size="12" fill="#444" font-family="Helvetica, Arial, sans-serif">35.9</text>
<line x1="86" y1="366.0" x2="1076" y2="366.0" stroke="#222" stroke-width="1.4"/>
<line x1="86" y1="62.0" x2="86" y2="366.0" stroke="#222" stroke-width="1.4"/>
<rect x="101.9" y="62.0" width="972.2" height="304.0" fill="#F58518" opacity="0.08"/>
<path d="M 86.0 366.0 L 91.2 366.0 L 96.4 366.0 L 101.6 366.0 L 106.7 366.0 L 111.9 366.0 L 117.1 366.0 L 122.3 366.0 L 127.6 366.0 L 132.8 364.6 L 138.3 338.9 L 143.8 339.2 L 149.7 343.6 L 155.0 366.0 L 160.3 361.8 L 165.6 366.0 L 170.9 366.0 L 176.1 365.9 L 181.3 365.9 L 186.7 251.4 L 192.0 366.0 L 203.6 366.0 L 208.9 366.0 L 214.3 237.2 L 219.6 366.0 L 224.7 366.0 L 229.9 366.0 L 235.2 366.0 L 240.4 364.5 L 246.0 366.0 L 251.3 366.0 L 256.5 366.0 L 261.7 366.0 L 267.0 366.0 L 272.1 269.4 L 277.5 366.0 L 282.8 366.0 L 288.3 366.0 L 293.5 366.0 L 298.8 366.0 L 304.0 298.8 L 309.3 365.9 L 314.6 365.9 L 320.4 366.0 L 325.7 366.0 L 331.0 366.0 L 336.2 366.0 L 341.4 366.0 L 346.7 366.0 L 351.9 366.0 L 357.2 366.0 L 362.5 366.0 L 367.7 366.0 L 372.9 366.0 L 378.2 366.0 L 383.4 366.0 L 388.7 366.0 L 394.1 366.0 L 399.4 366.0 L 404.7 366.0 L 409.9 366.0 L 415.1 366.0 L 420.4 366.0 L 425.7 366.0 L 431.1 366.0 L 436.5 365.9 L 441.8 366.0 L 446.9 366.0 L 452.3 236.1 L 457.4 366.0 L 462.7 366.0 L 467.9 366.0 L 473.2 366.0 L 478.5 366.0 L 483.7 366.0 L 488.9 366.0 L 494.2 313.1 L 499.4 366.0 L 504.7 366.0 L 510.0 366.0 L 515.2 366.0 L 520.5 366.0 L 525.7 366.0 L 530.9 366.0 L 536.2 349.0 L 541.4 366.0 L 546.7 366.0 L 551.9 366.0 L 557.3 324.1 L 562.5 365.9 L 567.8 365.9 L 573.1 365.9 L 578.3 366.0 L 583.6 342.2 L 588.8 365.9 L 594.8 366.0 L 600.0 366.0 L 605.2 366.0 L 610.5 366.0 L 615.7 366.0 L 621.1 366.0 L 626.3 366.0 L 631.6 366.0 L 636.8 366.0 L 642.1 336.1 L 647.3 366.0 L 653.2 366.0 L 658.5 366.0 L 663.8 366.0 L 669.1 366.0 L 674.3 329.1 L 679.5 366.0 L 684.8 366.0 L 690.0 365.9 L 695.3 365.9 L 700.5 365.9 L 706.3 366.0 L 711.6 366.0 L 716.8 366.0 L 722.1 366.0 L 727.3 366.0 L 732.6 366.0 L 737.8 366.0 L 743.1 277.1 L 748.3 366.0 L 753.6 366.0 L 758.8 366.0 L 764.1 366.0 L 769.2 366.0 L 774.6 366.0 L 780.0 235.0 L 785.2 366.0 L 790.5 366.0 L 795.7 366.0 L 800.8 366.0 L 806.2 366.0 L 811.3 366.0 L 817.0 294.5 L 822.3 365.9 L 827.5 365.9 L 832.8 366.0 L 838.0 366.0 L 843.3 366.0 L 848.5 366.0 L 853.9 366.0 L 859.2 303.7 L 864.7 366.0 L 869.9 366.0 L 875.2 366.0 L 880.3 366.0 L 885.5 366.0 L 891.3 366.0 L 896.6 366.0 L 901.8 366.0 L 907.1 366.0 L 912.3 366.0 L 917.5 366.0 L 922.8 366.0 L 928.2 366.0 L 933.5 366.0 L 938.7 366.0 L 943.9 314.0 L 949.2 366.0 L 954.4 365.3 L 959.8 365.9 L 965.3 366.0 L 970.5 366.0 L 975.8 366.0 L 981.0 323.6 L 986.3 366.0 L 991.4 366.0 L 996.6 366.0 L 1002.1 366.0 L 1007.2 323.6 L 1012.6 366.0 L 1017.7 366.0 L 1023.0 366.0 L 1028.2 366.0 L 1033.5 366.0 L 1039.1 265.7 L 1044.4 366.0 L 1049.6 366.0 L 1054.8 366.0 L 1060.1 366.0 L 1065.3 366.0 L 1070.6 266.7 L 1076.0 366.0" fill="none" stroke="#4C78A8" stroke-width="2.8" stroke-linejoin="round" stroke-linecap="round"/>
<path d="M 86.0 366.0 L 91.2 366.0 L 96.4 366.0 L 101.6 366.0 L 106.7 366.0 L 111.9 366.0 L 117.1 366.0 L 122.3 366.0 L 127.6 366.0 L 132.8 131.8 L 138.3 129.4 L 143.8 89.6 L 149.7 365.9 L 155.0 365.9 L 160.3 251.8 L 165.6 365.9 L 170.9 365.9 L 176.1 365.9 L 181.3 365.9 L 186.7 365.9 L 192.0 365.6 L 203.6 365.9 L 208.9 365.9 L 214.3 365.9 L 219.6 365.9 L 224.7 365.9 L 229.9 365.9 L 235.2 365.9 L 240.4 365.9 L 246.0 365.9 L 251.3 365.9 L 256.5 365.9 L 261.7 365.9 L 267.0 365.9 L 272.1 365.9 L 277.5 365.9 L 282.8 365.9 L 288.3 365.9 L 293.5 365.9 L 298.8 365.9 L 304.0 365.9 L 309.3 365.9 L 314.6 365.9 L 320.4 365.9 L 325.7 365.9 L 331.0 365.9 L 336.2 365.9 L 341.4 365.9 L 346.7 365.9 L 351.9 365.9 L 357.2 365.9 L 362.5 365.9 L 367.7 365.9 L 372.9 365.9 L 378.2 365.9 L 383.4 365.9 L 388.7 365.9 L 394.1 365.9 L 399.4 365.9 L 404.7 365.9 L 409.9 365.9 L 415.1 365.9 L 420.4 365.9 L 425.7 365.9 L 431.1 365.9 L 436.5 365.9 L 441.8 365.9 L 446.9 365.9 L 452.3 365.9 L 457.4 365.9 L 462.7 365.9 L 467.9 365.9 L 473.2 365.9 L 478.5 365.9 L 483.7 365.9 L 488.9 365.9 L 494.2 365.9 L 499.4 365.9 L 504.7 365.9 L 510.0 365.9 L 515.2 365.9 L 520.5 365.9 L 525.7 365.9 L 530.9 365.9 L 536.2 365.9 L 541.4 365.9 L 546.7 365.9 L 551.9 365.9 L 557.3 365.9 L 562.5 365.9 L 567.8 365.9 L 573.1 365.9 L 578.3 365.9 L 583.6 365.9 L 588.8 365.9 L 594.8 365.9 L 600.0 365.9 L 605.2 365.9 L 610.5 366.0 L 615.7 365.9 L 621.1 365.9 L 626.3 365.9 L 631.6 365.9 L 636.8 365.9 L 642.1 365.9 L 647.3 365.9 L 653.2 365.9 L 658.5 365.9 L 663.8 365.9 L 669.1 365.9 L 674.3 365.9 L 679.5 365.9 L 684.8 365.9 L 690.0 365.9 L 695.3 365.9 L 700.5 365.9 L 706.3 365.9 L 711.6 365.9 L 716.8 365.9 L 722.1 365.9 L 727.3 365.9 L 732.6 365.9 L 737.8 365.9 L 743.1 365.9 L 748.3 365.9 L 753.6 365.9 L 758.8 365.9 L 764.1 365.9 L 769.2 365.9 L 774.6 365.9 L 780.0 365.9 L 785.2 365.9 L 790.5 365.9 L 795.7 365.9 L 800.8 365.9 L 806.2 365.9 L 811.3 365.9 L 817.0 365.9 L 822.3 365.9 L 827.5 365.9 L 832.8 365.9 L 838.0 365.9 L 843.3 365.9 L 848.5 365.9 L 853.9 365.9 L 859.2 365.9 L 864.7 365.9 L 869.9 365.9 L 875.2 365.9 L 880.3 365.9 L 885.5 365.9 L 891.3 365.9 L 896.6 365.9 L 901.8 365.9 L 907.1 365.9 L 912.3 365.9 L 917.5 365.9 L 922.8 365.9 L 928.2 365.9 L 933.5 365.9 L 938.7 365.9 L 943.9 366.0 L 949.2 159.1 L 954.4 365.9 L 959.8 365.9 L 965.3 365.9 L 970.5 365.9 L 975.8 365.9 L 981.0 365.9 L 986.3 365.9 L 991.4 365.9 L 996.6 365.9 L 1002.1 365.9 L 1007.2 365.9 L 1012.6 365.9 L 1017.7 365.9 L 1023.0 365.9 L 1028.2 365.9 L 1033.5 365.9 L 1039.1 365.9 L 1044.4 365.9 L 1049.6 365.9 L 1054.8 365.9 L 1060.1 365.9 L 1065.3 365.9 L 1070.6 365.9 L 1076.0 365.9" fill="none" stroke="#F58518" stroke-width="2.8" stroke-linejoin="round" stroke-linecap="round"/>
<line x1="101.9" y1="62.0" x2="101.9" y2="366.0" stroke="#666" stroke-dasharray="4 4" stroke-width="1.2"/>
<text x="101.9" y="402.0" text-anchor="middle" font-size="12" fill="#444" font-family="Helvetica, Arial, sans-serif">submit</text>
<line x1="1074.1" y1="62.0" x2="1074.1" y2="366.0" stroke="#888" stroke-dasharray="4 4" stroke-width="1.2"/>
<text x="1074.1" y="402.0" text-anchor="middle" font-size="12" fill="#444" font-family="Helvetica, Arial, sans-serif">finish</text>
<line x1="86.0" y1="62.0" x2="86.0" y2="366.0" stroke="#f5f5f5" stroke-width="1"/>
<text x="86.0" y="418.0" text-anchor="middle" font-size="11" fill="#444" font-family="Helvetica, Arial, sans-serif">-0.13</text>
<line x1="209.8" y1="62.0" x2="209.8" y2="366.0" stroke="#f5f5f5" stroke-width="1"/>
<text x="209.8" y="418.0" text-anchor="middle" font-size="11" fill="#444" font-family="Helvetica, Arial, sans-serif">0.87</text>
<line x1="333.5" y1="62.0" x2="333.5" y2="366.0" stroke="#f5f5f5" stroke-width="1"/>
<text x="333.5" y="418.0" text-anchor="middle" font-size="11" fill="#444" font-family="Helvetica, Arial, sans-serif">1.88</text>
<line x1="457.2" y1="62.0" x2="457.2" y2="366.0" stroke="#f5f5f5" stroke-width="1"/>
<text x="457.2" y="418.0" text-anchor="middle" font-size="11" fill="#444" font-family="Helvetica, Arial, sans-serif">2.88</text>
<line x1="581.0" y1="62.0" x2="581.0" y2="366.0" stroke="#f5f5f5" stroke-width="1"/>
<text x="581.0" y="418.0" text-anchor="middle" font-size="11" fill="#444" font-family="Helvetica, Arial, sans-serif">3.88</text>
<line x1="704.8" y1="62.0" x2="704.8" y2="366.0" stroke="#f5f5f5" stroke-width="1"/>
<text x="704.8" y="418.0" text-anchor="middle" font-size="11" fill="#444" font-family="Helvetica, Arial, sans-serif">4.88</text>
<line x1="828.5" y1="62.0" x2="828.5" y2="366.0" stroke="#f5f5f5" stroke-width="1"/>
<text x="828.5" y="418.0" text-anchor="middle" font-size="11" fill="#444" font-family="Helvetica, Arial, sans-serif">5.89</text>
<line x1="952.2" y1="62.0" x2="952.2" y2="366.0" stroke="#f5f5f5" stroke-width="1"/>
<text x="952.2" y="418.0" text-anchor="middle" font-size="11" fill="#444" font-family="Helvetica, Arial, sans-serif">6.89</text>
<line x1="1076.0" y1="62.0" x2="1076.0" y2="366.0" stroke="#f5f5f5" stroke-width="1"/>
<text x="1076.0" y="418.0" text-anchor="middle" font-size="11" fill="#444" font-family="Helvetica, Arial, sans-serif">7.89</text>
<text x="581.0" y="386.0" text-anchor="middle" font-size="15" fill="#222" font-family="Helvetica, Arial, sans-serif">time since request submit (s)</text>
</svg>