<svg xmlns="http://www.w3.org/2000/svg" width="1100" height="420" viewBox="0 0 1100 420">
<rect width="1100" height="420" fill="white"/>
<text x="86" y="26" font-size="22" font-weight="700" font-family="Helvetica, Arial, sans-serif">tb_session_00_turn_003_reuse  phase=reuse  turn=3  prompt=25344  peak_tx=4.31 GiB/s  peak_rx=43.62 GiB/s</text>
<text x="86" y="46" font-size="13" fill="#444" font-family="Helvetica, Arial, sans-serif">response_window=3.732s, response_tx=3.971 GiB, response_rx=30.585 GiB, metrics_tx=3.972 GiB, metrics_rx=30.587 GiB</text>
<line x1="86" y1="366.0" x2="1076" y2="366.0" stroke="#ececec" stroke-width="1"/>
<text x="76" y="370.0" text-anchor="end" font-size="12" fill="#444" font-family="Helvetica, Arial, sans-serif">0.0</text>
<line x1="86" y1="305.2" x2="1076" y2="305.2" stroke="#ececec" stroke-width="1"/>
<text x="76" y="309.2" text-anchor="end" font-size="12" fill="#444" font-family="Helvetica, Arial, sans-serif">9.6</text>
<line x1="86" y1="244.4" x2="1076" y2="244.4" stroke="#ececec" stroke-width="1"/>
<text x="76" y="248.4" text-anchor="end" font-size="12" fill="#444" font-family="Helvetica, Arial, sans-serif">19.2</text>
<line x1="86" y1="183.6" x2="1076" y2="183.6" stroke="#ececec" stroke-width="1"/>
<text x="76" y="187.6" text-anchor="end" font-size="12" fill="#444" font-family="Helvetica, Arial, sans-serif">28.8</text>
<line x1="86" y1="122.8" x2="1076" y2="122.8" stroke="#ececec" stroke-width="1"/>
<text x="76" y="126.8" text-anchor="end" font-size="12" fill="#444" font-family="Helvetica, Arial, sans-serif">38.4</text>
<line x1="86" y1="62.0" x2="1076" y2="62.0" stroke="#ececec" stroke-width="1"/>
<text x="76" y="66.0" text-anchor="end" font-size="12" fill="#444" font-family="Helvetica, Arial, sans-serif">48.0</text>
<line x1="86" y1="366.0" x2="1076" y2="366.0" stroke="#222" stroke-width="1.4"/>
<line x1="86" y1="62.0" x2="86" y2="366.0" stroke="#222" stroke-width="1.4"/>
<rect x="114.4" y="62.0" width="954.9" height="304.0" fill="#F58518" opacity="0.08"/>
<path d="M 86.0 366.0 L 96.7 366.0 L 107.5 366.0 L 118.2 366.0 L 129.0 366.0 L 140.2 366.0 L 151.0 366.0 L 161.7 366.0 L 172.5 366.0 L 183.2 366.0 L 194.2 345.9 L 205.8 342.1 L 219.8 345.8 L 231.1 366.0 L 242.9 366.0 L 253.6 366.0 L 264.3 366.0 L 275.1 366.0 L 285.8 366.0 L 296.6 366.0 L 307.8 366.0 L 319.4 366.0 L 330.1 366.0 L 340.9 366.0 L 351.6 366.0 L 362.4 366.0 L 373.1 366.0 L 383.8 366.0 L 394.8 366.0 L 405.6 366.0 L 416.3 366.0 L 427.3 366.0 L 438.3 366.0 L 449.1 366.0 L 459.8 366.0 L 470.6 366.0 L 481.3 366.0 L 492.3 345.7 L 504.6 345.7 L 516.1 342.4 L 528.2 366.0 L 538.9 366.0 L 550.2 345.9 L 561.7 345.9 L 576.5 346.4 L 587.8 366.0 L 598.5 366.0 L 609.5 346.0 L 621.8 345.2 L 634.6 345.8 L 646.1 366.0 L 657.1 366.0 L 668.1 343.1 L 681.2 345.8 L 692.7 340.7 L 705.2 366.0 L 716.0 366.0 L 727.0 345.9 L 738.5 345.9 L 751.8 345.6 L 763.8 366.0 L 774.8 366.0 L 785.8 346.0 L 797.3 344.7 L 810.1 346.1 L 821.4 366.0 L 832.1 366.0 L 843.1 345.8 L 856.5 345.6 L 869.2 345.9 L 880.5 366.0 L 891.3 366.0 L 902.3 366.0 L 913.3 366.0 L 924.0 366.0 L 934.8 366.0 L 945.8 366.0 L 956.5 338.7 L 967.3 365.9 L 978.3 365.9 L 989.3 365.9 L 1000.0 365.9 L 1011.0 365.9 L 1022.0 365.9 L 1032.8 365.9 L 1043.5 365.9 L 1054.5 365.9 L 1065.3 365.9 L 1076.0 366.0" fill="none" stroke="#4C78A8" stroke-width="2.8" stroke-linejoin="round" stroke-linecap="round"/>
<path d="M 86.0 366.0 L 96.7 366.0 L 107.5 366.0 L 118.2 366.0 L 129.0 366.0 L 140.2 366.0 L 151.0 366.0 L 161.7 365.9 L 172.5 366.0 L 183.2 317.3 L 194.2 189.8 L 205.8 187.8 L 219.8 295.6 L 231.1 365.8 L 242.9 366.0 L 253.6 366.0 L 264.3 366.0 L 275.1 366.0 L 285.8 366.0 L 296.6 366.0 L 307.8 366.0 L 319.4 366.0 L 330.1 366.0 L 340.9 366.0 L 351.6 366.0 L 362.4 366.0 L 373.1 366.0 L 383.8 366.0 L 394.8 366.0 L 405.6 366.0 L 416.3 366.0 L 427.3 366.0 L 438.3 366.0 L 449.1 366.0 L 459.8 366.0 L 470.6 366.0 L 481.3 230.4 L 492.3 187.5 L 504.6 189.7 L 516.1 365.9 L 528.2 366.0 L 538.9 261.4 L 550.2 187.2 L 561.7 89.6 L 576.5 365.9 L 587.8 366.0 L 598.5 257.8 L 609.5 156.8 L 621.8 188.6 L 634.6 346.7 L 646.1 366.0 L 657.1 276.3 L 668.1 187.4 L 681.2 189.9 L 692.7 347.8 L 705.2 366.0 L 716.0 285.1 L 727.0 189.4 L 738.5 125.9 L 751.8 327.0 L 763.8 366.0 L 774.8 295.0 L 785.8 189.2 L 797.3 189.9 L 810.1 277.6 L 821.4 366.0 L 832.1 353.2 L 843.1 169.8 L 856.5 173.8 L 869.2 274.6 L 880.5 365.9 L 891.3 365.9 L 902.3 365.9 L 913.3 365.9 L 924.0 365.9 L 934.8 365.9 L 945.8 365.9 L 956.5 365.7 L 967.3 365.9 L 978.3 365.8 L 989.3 365.8 L 1000.0 365.8 L 1011.0 365.8 L 1022.0 365.8 L 1032.8 365.8 L 1043.5 365.8 L 1054.5 365.8 L 1065.3 365.8 L 1076.0 366.0" fill="none" stroke="#F58518" stroke-width="2.8" stroke-linejoin="round" stroke-linecap="round"/>
<line x1="114.4" y1="62.0" x2="114.4" y2="366.0" stroke="#666" stroke-dasharray="4 4" stroke-width="1.2"/>
<text x="114.4" y="402.0" text-anchor="middle" font-size="12" fill="#444" font-family="Helvetica, Arial, sans-serif">submit</text>
<line x1="1069.3" y1="62.0" x2="1069.3" y2="366.0" stroke="#888" stroke-dasharray="4 4" stroke-width="1.2"/>
<text x="1069.3" y="402.0" text-anchor="middle" font-size="12" fill="#444" font-family="Helvetica, Arial, sans-serif">finish</text>
<line x1="86.0" y1="62.0" x2="86.0" y2="366.0" stroke="#f5f5f5" stroke-width="1"/>
<text x="86.0" y="418.0" text-anchor="middle" font-size="11" fill="#444" font-family="Helvetica, Arial, sans-serif">-0.11</text>
<line x1="209.8" y1="62.0" x2="209.8" y2="366.0" stroke="#f5f5f5" stroke-width="1"/>
<text x="209.8" y="418.0" text-anchor="middle" font-size="11" fill="#444" font-family="Helvetica, Arial, sans-serif">0.37</text>
<line x1="333.5" y1="62.0" x2="333.5" y2="366.0" stroke="#f5f5f5" stroke-width="1"/>
<text x="333.5" y="418.0" text-anchor="middle" font-size="11" fill="#444" font-family="Helvetica, Arial, sans-serif">0.86</text>
<line x1="457.2" y1="62.0" x2="457.2" y2="366.0" stroke="#f5f5f5" stroke-width="1"/>
<text x="457.2" y="418.0" text-anchor="middle" font-size="11" fill="#444" font-family="Helvetica, Arial, sans-serif">1.34</text>
<line x1="581.0" y1="62.0" x2="581.0" y2="366.0" stroke="#f5f5f5" stroke-width="1"/>
<text x="581.0" y="418.0" text-anchor="middle" font-size="11" fill="#444" font-family="Helvetica, Arial, sans-serif">1.82</text>
<line x1="704.8" y1="62.0" x2="704.8" y2="366.0" stroke="#f5f5f5" stroke-width="1"/>
<text x="704.8" y="418.0" text-anchor="middle" font-size="11" fill="#444" font-family="Helvetica, Arial, sans-serif">2.31</text>
<line x1="828.5" y1="62.0" x2="828.5" y2="366.0" stroke="#f5f5f5" stroke-width="1"/>
<text x="828.5" y="418.0" text-anchor="middle" font-size="11" fill="#444" font-family="Helvetica, Arial, sans-serif">2.79</text>
<line x1="952.2" y1="62.0" x2="952.2" y2="366.0" stroke="#f5f5f5" stroke-width="1"/>
<text x="952.2" y="418.0" text-anchor="middle" font-size="11" fill="#444" font-family="Helvetica, Arial, sans-serif">3.27</text>
<line x1="1076.0" y1="62.0" x2="1076.0" y2="366.0" stroke="#f5f5f5" stroke-width="1"/>
<text x="1076.0" y="418.0" text-anchor="middle" font-size="11" fill="#444" font-family="Helvetica, Arial, sans-serif">3.76</text>
<text x="581.0" y="386.0" text-anchor="middle" font-size="15" fill="#222" font-family="Helvetica, Arial, sans-serif">time since request submit (s)</text>
</svg>