<svg xmlns="http://www.w3.org/2000/svg" width="960" height="560" viewBox="0 0 960 560">
<rect width="960" height="560" fill="white"/>
<text x="86" y="28" font-size="24" font-family="Helvetica, Arial, sans-serif" font-weight="700">Decode ms/token at gen=512: baseline vs native offload</text>
<line x1="86" y1="478.0" x2="932" y2="478.0" stroke="#e6e6e6" stroke-width="1"/>
<text x="76" y="482.0" text-anchor="end" font-size="13" fill="#444" font-family="Helvetica, Arial, sans-serif">0.0</text>
<line x1="86" y1="393.6" x2="932" y2="393.6" stroke="#e6e6e6" stroke-width="1"/>
<text x="76" y="397.6" text-anchor="end" font-size="13" fill="#444" font-family="Helvetica, Arial, sans-serif">11.2</text>
<line x1="86" y1="309.2" x2="932" y2="309.2" stroke="#e6e6e6" stroke-width="1"/>
<text x="76" y="313.2" text-anchor="end" font-size="13" fill="#444" font-family="Helvetica, Arial, sans-serif">22.4</text>
<line x1="86" y1="224.8" x2="932" y2="224.8" stroke="#e6e6e6" stroke-width="1"/>
<text x="76" y="228.8" text-anchor="end" font-size="13" fill="#444" font-family="Helvetica, Arial, sans-serif">33.6</text>
<line x1="86" y1="140.4" x2="932" y2="140.4" stroke="#e6e6e6" stroke-width="1"/>
<text x="76" y="144.4" text-anchor="end" font-size="13" fill="#444" font-family="Helvetica, Arial, sans-serif">44.8</text>
<line x1="86" y1="56.0" x2="932" y2="56.0" stroke="#e6e6e6" stroke-width="1"/>
<text x="76" y="60.0" text-anchor="end" font-size="13" fill="#444" font-family="Helvetica, Arial, sans-serif">56.0</text>
<line x1="86.0" y1="56" x2="86.0" y2="478" stroke="#f0f0f0" stroke-width="1"/>
<text x="86.0" y="502" text-anchor="middle" font-size="13" fill="#444" font-family="Helvetica, Arial, sans-serif">2048</text>
<line x1="151.1" y1="56" x2="151.1" y2="478" stroke="#f0f0f0" stroke-width="1"/>
<text x="151.1" y="502" text-anchor="middle" font-size="13" fill="#444" font-family="Helvetica, Arial, sans-serif">4096</text>
<line x1="281.2" y1="56" x2="281.2" y2="478" stroke="#f0f0f0" stroke-width="1"/>
<text x="281.2" y="502" text-anchor="middle" font-size="13" fill="#444" font-family="Helvetica, Arial, sans-serif">8192</text>
<line x1="541.5" y1="56" x2="541.5" y2="478" stroke="#f0f0f0" stroke-width="1"/>
<text x="541.5" y="502" text-anchor="middle" font-size="13" fill="#444" font-family="Helvetica, Arial, sans-serif">16384</text>
<line x1="801.8" y1="56" x2="801.8" y2="478" stroke="#f0f0f0" stroke-width="1"/>
<text x="801.8" y="502" text-anchor="middle" font-size="13" fill="#444" font-family="Helvetica, Arial, sans-serif">24576</text>
<line x1="932.0" y1="56" x2="932.0" y2="478" stroke="#f0f0f0" stroke-width="1"/>
<text x="932.0" y="502" text-anchor="middle" font-size="13" fill="#444" font-family="Helvetica, Arial, sans-serif">28672</text>
<line x1="86" y1="478" x2="932" y2="478" stroke="#222" stroke-width="1.5"/>
<line x1="86" y1="56" x2="86" y2="478" stroke="#222" stroke-width="1.5"/>
<path d="M 86.0 373.5 L 151.1 354.7 L 281.2 309.4 L 541.5 204.0 L 801.8 94.5 L 932.0 94.4" fill="none" stroke="#4C78A8" stroke-width="3" stroke-linejoin="round" stroke-linecap="round"/>
<circle cx="86.0" cy="373.5" r="4.5" fill="#4C78A8"/>
<circle cx="151.1" cy="354.7" r="4.5" fill="#4C78A8"/>
<circle cx="281.2" cy="309.4" r="4.5" fill="#4C78A8"/>
<circle cx="541.5" cy="204.0" r="4.5" fill="#4C78A8"/>
<circle cx="801.8" cy="94.5" r="4.5" fill="#4C78A8"/>
<circle cx="932.0" cy="94.4" r="4.5" fill="#4C78A8"/>
<path d="M 86.0 373.2 L 151.1 354.4 L 281.2 305.6 L 541.5 208.3 L 801.8 96.4 L 932.0 94.7" fill="none" stroke="#F58518" stroke-width="3" stroke-linejoin="round" stroke-linecap="round"/>
<circle cx="86.0" cy="373.2" r="4.5" fill="#F58518"/>
<circle cx="151.1" cy="354.4" r="4.5" fill="#F58518"/>
<circle cx="281.2" cy="305.6" r="4.5" fill="#F58518"/>
<circle cx="541.5" cy="208.3" r="4.5" fill="#F58518"/>
<circle cx="801.8" cy="96.4" r="4.5" fill="#F58518"/>
<circle cx="932.0" cy="94.7" r="4.5" fill="#F58518"/>
<rect x="712" y="66" width="210" height="68" rx="8" fill="#ffffff" stroke="#dddddd"/>
<line x1="724" y1="90" x2="748" y2="90" stroke="#4C78A8" stroke-width="3"/>
<circle cx="736" cy="90" r="4" fill="#4C78A8"/>
<text x="758" y="95" font-size="13" fill="#333" font-family="Helvetica, Arial, sans-serif">baseline decode g=512</text>
<line x1="724" y1="116" x2="748" y2="116" stroke="#F58518" stroke-width="3"/>
<circle cx="736" cy="116" r="4" fill="#F58518"/>
<text x="758" y="121" font-size="13" fill="#333" font-family="Helvetica, Arial, sans-serif">native_offload decode g=512</text>
<text x="509.0" y="540" text-anchor="middle" font-size="16" fill="#222" font-family="Helvetica, Arial, sans-serif">Context Tokens</text>
<text x="22" y="267.0" text-anchor="middle" font-size="16" fill="#222" font-family="Helvetica, Arial, sans-serif" transform="rotate(-90 22,267.0)">ms/token</text>
</svg>